G04 #@! TF.GenerationSoftware,KiCad,Pcbnew,(5.0.1)-3*
G04 #@! TF.CreationDate,2019-10-19T12:43:43+10:30*
G04 #@! TF.ProjectId,LED Glasses v2,4C454420476C61737365732076322E6B,rev?*
G04 #@! TF.SameCoordinates,Original*
G04 #@! TF.FileFunction,Profile,NP*
%FSLAX46Y46*%
G04 Gerber Fmt 4.6, Leading zero omitted, Abs format (unit mm)*
G04 Created by KiCad (PCBNEW (5.0.1)-3) date 19/10/2019 12:43:43 PM*
%MOMM*%
%LPD*%
G01*
G04 APERTURE LIST*
%ADD10C,0.200000*%
G04 APERTURE END LIST*
D10*
X89621411Y-97477479D02*
X87754511Y-97477479D01*
X90709575Y-96266069D02*
X90814635Y-95764086D01*
X90338405Y-108640830D02*
X89989711Y-107421579D01*
X90408811Y-96918679D02*
X90709575Y-96266069D01*
X86230511Y-105541979D02*
X86230511Y-98391879D01*
X86865511Y-97706079D02*
X87741811Y-97477479D01*
X86979811Y-106265879D02*
X87741811Y-106557979D01*
X89621411Y-97477479D02*
X90396111Y-96931379D01*
X87754511Y-106557979D02*
X88986411Y-106557979D01*
X86975626Y-106265630D02*
X86230511Y-105554679D01*
X88994926Y-106570430D02*
X89989711Y-107421579D01*
X86230511Y-98366479D02*
X86865511Y-97706079D01*
X91852831Y-92892076D02*
X90830525Y-95720002D01*
X235750100Y-97307400D02*
X234975400Y-96761300D01*
X234962700Y-96748600D02*
X234661936Y-96095990D01*
X239141000Y-98196400D02*
X238506000Y-97536000D01*
X238395885Y-106095551D02*
X239141000Y-105384600D01*
X236376585Y-106400351D02*
X235381800Y-107251500D01*
X237617000Y-106387900D02*
X236385100Y-106387900D01*
X238391700Y-106095800D02*
X237629700Y-106387900D01*
X239141000Y-105371900D02*
X239141000Y-98221800D01*
X238506000Y-97536000D02*
X237629700Y-97307400D01*
X235750100Y-97307400D02*
X237617000Y-97307400D01*
X148919907Y-122575298D02*
X150942289Y-118039417D01*
X100770713Y-91316119D02*
X152257549Y-91316119D01*
X199245026Y-137726906D02*
X206809250Y-138274897D01*
X183546832Y-131533059D02*
X187627960Y-134232995D01*
X192783915Y-136336933D02*
X199245026Y-137726906D01*
X190846389Y-135544989D02*
X192783915Y-136336933D01*
X187627960Y-134232995D02*
X190846389Y-135544989D01*
X177326146Y-124075252D02*
X180188995Y-128191153D01*
X95392506Y-110431617D02*
X95556156Y-112901550D01*
X152578745Y-100150327D02*
X152734352Y-97687949D01*
X152748020Y-93802515D02*
X152257549Y-91316119D01*
X95313903Y-104037542D02*
X95260164Y-106523545D01*
X100770713Y-91316119D02*
X97778551Y-93786052D01*
X152748020Y-97695840D02*
X95889525Y-97687949D01*
X174772413Y-118903389D02*
X177326146Y-124075252D01*
X180188995Y-128191153D02*
X183546832Y-131533059D01*
X151732370Y-106498139D02*
X152130264Y-104059782D01*
X206809250Y-138274897D02*
X212973364Y-137966879D01*
X150208895Y-112930588D02*
X150861480Y-110431617D01*
X152155557Y-104043652D02*
X95313903Y-104037542D01*
X95889525Y-97687949D02*
X95475341Y-100157884D01*
X173160185Y-91316119D02*
X224647021Y-91316119D01*
X231504115Y-90132149D02*
X228400845Y-87820210D01*
X231578873Y-125469233D02*
X231974864Y-124411238D01*
X233203242Y-121149336D02*
X233882083Y-118039417D01*
X234265953Y-116269463D02*
X234740735Y-112325565D01*
X234985199Y-109189650D02*
X235031667Y-108489666D01*
X231974864Y-124411238D02*
X233203242Y-121149336D01*
X226334021Y-132495042D02*
X229378702Y-129173145D01*
X212973384Y-137966879D02*
X218357642Y-136846937D01*
X102904207Y-135122982D02*
X103932570Y-135544989D01*
X233473964Y-92722079D02*
X231504115Y-90132149D01*
X96626940Y-88050204D02*
X93663073Y-90386140D01*
X99360487Y-132733040D02*
X102904207Y-135122982D01*
X98285655Y-131763070D02*
X99360487Y-132733040D01*
X93549933Y-124839256D02*
X95574343Y-128515144D01*
X93663073Y-90386140D02*
X91852831Y-92892076D01*
X233882083Y-118039417D02*
X234265953Y-116269463D01*
X90588093Y-111287594D02*
X90959835Y-114953497D01*
X90347800Y-108673900D02*
X90588093Y-111287594D01*
X90959835Y-114953497D02*
X91563930Y-118039417D01*
X120156055Y-83638320D02*
X114050529Y-83816312D01*
X95574343Y-128515144D02*
X98285655Y-131763070D01*
X92071040Y-120645347D02*
X93549933Y-124839256D01*
X222923656Y-134898983D02*
X226334021Y-132495042D01*
X100845460Y-86118254D02*
X96626940Y-88050204D01*
X234556876Y-95594007D02*
X233473964Y-92722079D01*
X106486304Y-84684292D02*
X100845460Y-86118254D01*
X214799785Y-84102304D02*
X205261668Y-83638320D01*
X234661936Y-96095990D02*
X234556876Y-95594007D01*
X235033106Y-108470751D02*
X235381800Y-107251500D01*
X91563930Y-118039417D02*
X92071040Y-120645347D01*
X221428584Y-85208277D02*
X214799785Y-84102304D01*
X234740735Y-112325565D02*
X234985199Y-109189650D01*
X229378702Y-129173145D02*
X231578873Y-125469233D01*
X114050529Y-83816312D02*
X106486304Y-84684292D01*
X205261668Y-83638320D02*
X120156055Y-83638320D01*
X218357642Y-136846937D02*
X222923656Y-134898983D01*
X226768392Y-86990231D02*
X221428584Y-85208277D01*
X228400845Y-87820210D02*
X226768392Y-86990231D01*
X128686010Y-137310938D02*
X134322815Y-135768961D01*
X153243464Y-111667581D02*
X154490025Y-108029675D01*
X157647849Y-102599818D02*
X159787407Y-101339854D01*
X159787407Y-101339854D02*
X162708847Y-100857863D01*
X151435243Y-116935445D02*
X153243464Y-111667581D01*
X103932570Y-135544989D02*
X107274244Y-136910917D01*
X162708847Y-100857863D02*
X164310992Y-100995861D01*
X118612500Y-138274897D02*
X121790525Y-138160879D01*
X146113630Y-127069179D02*
X148919907Y-122575298D01*
X134322815Y-135768961D02*
X139042375Y-133523036D01*
X121790525Y-138160879D02*
X128686010Y-137310938D01*
X150946324Y-118033405D02*
X151435243Y-116935445D01*
X172131804Y-111667581D02*
X174772413Y-118903389D01*
X170311459Y-106439716D02*
X172131804Y-111667581D01*
X154490025Y-108029675D02*
X156088128Y-104499769D01*
X168638601Y-103515793D02*
X170311459Y-106439716D01*
X166656628Y-101807837D02*
X168638601Y-103515793D01*
X164310992Y-100995861D02*
X166656628Y-101807837D01*
X156088128Y-104499769D02*
X157647849Y-102599818D01*
X142963892Y-130581096D02*
X146113630Y-127069179D01*
X150942289Y-118039417D02*
X150946324Y-118033405D01*
X112298877Y-137950906D02*
X118612500Y-138274897D01*
X107274244Y-136910917D02*
X112298877Y-137950906D01*
X139042375Y-133523036D02*
X142963892Y-130581096D01*
X97778551Y-93786052D02*
X152748020Y-93802515D01*
X173160185Y-91316119D02*
X172711664Y-93786052D01*
X150885995Y-110391464D02*
X95392506Y-110431617D01*
X95260164Y-106523545D02*
X151732370Y-106498139D01*
X98629122Y-125647230D02*
X143861083Y-125626212D01*
X229937413Y-100150327D02*
X229526189Y-97687949D01*
X143861083Y-125626212D02*
X145630771Y-123175282D01*
X148854695Y-116823913D02*
X96000645Y-116803450D01*
X172722468Y-93802515D02*
X227637154Y-93786052D01*
X96445124Y-119275383D02*
X147754408Y-119278400D01*
X101696037Y-129547118D02*
X105223585Y-132019074D01*
X145638471Y-123171725D02*
X97532067Y-123175282D01*
X97532067Y-123175282D02*
X98629122Y-125647230D01*
X147754408Y-119278400D02*
X148818897Y-116803450D01*
X136159071Y-132058662D02*
X140042454Y-129547118D01*
X140052396Y-129519537D02*
X101696037Y-129547118D01*
X96000645Y-116803450D02*
X96445124Y-119275383D01*
X105223585Y-132019074D02*
X136159071Y-132058662D01*
X95475341Y-100157884D02*
X152578745Y-100150327D01*
X172681358Y-97687949D02*
X172834907Y-100157884D01*
X95556156Y-112901550D02*
X150208895Y-112930588D01*
X172807106Y-100150327D02*
X229942382Y-100157884D01*
X227652201Y-93802515D02*
X224647021Y-91316119D01*
X177631443Y-119278400D02*
X228972610Y-119275383D01*
X230106688Y-104043652D02*
X173287467Y-104059782D01*
X226805826Y-125626212D02*
X227883636Y-123175282D01*
X173287467Y-104059782D02*
X173697601Y-106529717D01*
X175261593Y-112930588D02*
X229861568Y-112901550D01*
X181524767Y-125626212D02*
X226786581Y-125647230D01*
X229514225Y-97695840D02*
X172681358Y-97687949D01*
X230022050Y-110391464D02*
X174556251Y-110431617D01*
X179784943Y-123175282D02*
X181526494Y-125647230D01*
X223758876Y-129519537D02*
X185373256Y-129547118D01*
X185373256Y-129547118D02*
X189220021Y-132019074D01*
X220204101Y-132058662D02*
X223721696Y-129547118D01*
X229429588Y-116823913D02*
X176596816Y-116803450D01*
X174556251Y-110431617D02*
X175243174Y-112901550D01*
X229852775Y-112930588D02*
X230025217Y-110431617D01*
X176596816Y-116803450D02*
X177661548Y-119275383D01*
X173738118Y-106498139D02*
X230151822Y-106558631D01*
X230191325Y-106582776D02*
X230114636Y-104076038D01*
X189226779Y-132058662D02*
X220192126Y-132019074D01*
X227906113Y-123171725D02*
X179784943Y-123175282D01*
X229006400Y-119278400D02*
X229415069Y-116803450D01*
M02*
