G04 #@! TF.GenerationSoftware,KiCad,Pcbnew,(5.0.1)-3*
G04 #@! TF.CreationDate,2019-10-19T12:43:43+10:30*
G04 #@! TF.ProjectId,LED Glasses v2,4C454420476C61737365732076322E6B,rev?*
G04 #@! TF.SameCoordinates,Original*
G04 #@! TF.FileFunction,Copper,L2,Bot,Signal*
G04 #@! TF.FilePolarity,Positive*
%FSLAX46Y46*%
G04 Gerber Fmt 4.6, Leading zero omitted, Abs format (unit mm)*
G04 Created by KiCad (PCBNEW (5.0.1)-3) date 19/10/2019 12:43:43 PM*
%MOMM*%
%LPD*%
G01*
G04 APERTURE LIST*
G04 #@! TA.AperFunction,ViaPad*
%ADD10C,0.800000*%
G04 #@! TD*
G04 #@! TA.AperFunction,Conductor*
%ADD11C,0.250000*%
G04 #@! TD*
G04 #@! TA.AperFunction,Conductor*
%ADD12C,0.254000*%
G04 #@! TD*
G04 APERTURE END LIST*
D10*
G04 #@! TO.N,Net-(C1-Pad2)*
X233654600Y-106540300D03*
X224624900Y-128473200D03*
X208254600Y-128473200D03*
X197027800Y-128371600D03*
X185991500Y-128371600D03*
X187286900Y-120294400D03*
X196329300Y-120472200D03*
X207340200Y-120472200D03*
X218490800Y-120434100D03*
X227482400Y-120294400D03*
X217462100Y-115811300D03*
X207619600Y-115671600D03*
X196761100Y-115773200D03*
X186321700Y-115798600D03*
X176555400Y-115773200D03*
X187032900Y-107403900D03*
X196608700Y-107619800D03*
X207340200Y-107683300D03*
X218147900Y-107556300D03*
X228447600Y-107734100D03*
X217614500Y-103098600D03*
X208013300Y-102933500D03*
X197002400Y-102984300D03*
X187045600Y-102920800D03*
X175260000Y-103035100D03*
X187579000Y-94703900D03*
X196811900Y-94856300D03*
X207225900Y-95034100D03*
X217639900Y-94865000D03*
X227609400Y-94894400D03*
X219938600Y-89928700D03*
X208762600Y-89865200D03*
X196811900Y-89941400D03*
X187553600Y-89890600D03*
X176085500Y-89827100D03*
X140449300Y-89687400D03*
X129895600Y-89725500D03*
X122000000Y-89681144D03*
X111125000Y-89681144D03*
X97472500Y-94830900D03*
X107073700Y-94856300D03*
X118110000Y-94957900D03*
X128790700Y-94932500D03*
X139776200Y-94856300D03*
X154305000Y-102616000D03*
X140233400Y-102971600D03*
X129235200Y-103009700D03*
X118262400Y-102933500D03*
X107480100Y-102997000D03*
X97637600Y-102133400D03*
X91668600Y-102946200D03*
X107302300Y-107645200D03*
X118173500Y-107708700D03*
X129324100Y-107670600D03*
X139839700Y-107696000D03*
X152298400Y-107581700D03*
X140474700Y-115684300D03*
X129324100Y-115722400D03*
X118605300Y-115646200D03*
X107772200Y-115658900D03*
X98120200Y-114947700D03*
X107480100Y-120421400D03*
X118173500Y-120319800D03*
X128917700Y-120383300D03*
X140233400Y-120332500D03*
X148767800Y-120065800D03*
X129298700Y-128562100D03*
X118745000Y-128587500D03*
X107327700Y-128397000D03*
G04 #@! TD*
D11*
G04 #@! TO.N,*
X100139500Y-121589800D02*
X100139500Y-121780300D01*
X100139500Y-121780300D02*
X100139500Y-122135900D01*
G04 #@! TD*
D12*
G04 #@! TO.N,Net-(C1-Pad2)*
G36*
X214721190Y-84834350D02*
X221250684Y-85923755D01*
X226483945Y-87670153D01*
X228011934Y-88447020D01*
X230981864Y-90659621D01*
X232824053Y-93081706D01*
X233849102Y-95800182D01*
X233914852Y-96114342D01*
X233913112Y-96125322D01*
X233944713Y-96257016D01*
X233957352Y-96317408D01*
X233961593Y-96327366D01*
X233964117Y-96337883D01*
X233989928Y-96393889D01*
X234043013Y-96518520D01*
X234050953Y-96526303D01*
X234325477Y-97121978D01*
X234328072Y-97125551D01*
X234342097Y-97161955D01*
X234394621Y-97217170D01*
X234453943Y-97298840D01*
X234517733Y-97337941D01*
X235214909Y-97829393D01*
X235220195Y-97837305D01*
X235334105Y-97913417D01*
X235385790Y-97949851D01*
X235394252Y-97953606D01*
X235463317Y-97999754D01*
X235526609Y-98012344D01*
X235585594Y-98038520D01*
X235668631Y-98040594D01*
X235677712Y-98042400D01*
X235740958Y-98042400D01*
X235877903Y-98045820D01*
X235886780Y-98042400D01*
X237535410Y-98042400D01*
X238119875Y-98194869D01*
X238406001Y-98492441D01*
X238406000Y-105070003D01*
X237997525Y-105459749D01*
X237493653Y-105652900D01*
X236312712Y-105652900D01*
X236098317Y-105695546D01*
X235855195Y-105857995D01*
X235822209Y-105907362D01*
X234905162Y-106691998D01*
X234794990Y-106785397D01*
X234760467Y-106852542D01*
X234713780Y-106911872D01*
X234674714Y-107050862D01*
X234306534Y-108338249D01*
X234304438Y-108363690D01*
X234303077Y-108368752D01*
X234299164Y-108427702D01*
X234288584Y-108556105D01*
X234290287Y-108561413D01*
X234252093Y-109136754D01*
X234009159Y-112253041D01*
X233540343Y-116147383D01*
X233163970Y-117882771D01*
X232496554Y-120940347D01*
X231312270Y-124085161D01*
X231311875Y-124085799D01*
X231286682Y-124153109D01*
X231261510Y-124219952D01*
X231261388Y-124220687D01*
X230913484Y-125150207D01*
X228785562Y-128732492D01*
X225845753Y-131939970D01*
X222563735Y-134253441D01*
X218136431Y-136142218D01*
X212879647Y-137235646D01*
X206817495Y-137538568D01*
X199349381Y-136997540D01*
X193001943Y-135632022D01*
X191191168Y-134891887D01*
X191190876Y-134891694D01*
X191123426Y-134864198D01*
X191057472Y-134837240D01*
X191057136Y-134837175D01*
X187972810Y-133579850D01*
X184013428Y-130960458D01*
X182593892Y-129547656D01*
X184623858Y-129547656D01*
X184639556Y-129626279D01*
X184640990Y-129706442D01*
X184667906Y-129768271D01*
X184681109Y-129834398D01*
X184725699Y-129901029D01*
X184757701Y-129974540D01*
X184806228Y-130021362D01*
X184843732Y-130077403D01*
X184910426Y-130121897D01*
X184915011Y-130126321D01*
X184970656Y-130162079D01*
X185086971Y-130239677D01*
X185093391Y-130240949D01*
X188659620Y-132532631D01*
X188697552Y-132589244D01*
X188940882Y-132751382D01*
X189155331Y-132793753D01*
X219965842Y-132754363D01*
X220080759Y-132797840D01*
X220373017Y-132788775D01*
X220572283Y-132698901D01*
X224200064Y-130108686D01*
X224289161Y-130049061D01*
X224451435Y-129805822D01*
X224508274Y-129518999D01*
X224451023Y-129232257D01*
X224288400Y-128989252D01*
X224045161Y-128826978D01*
X223830735Y-128784486D01*
X185512377Y-128812019D01*
X185506285Y-128809622D01*
X185366453Y-128812123D01*
X185300340Y-128812171D01*
X185294095Y-128813418D01*
X185213932Y-128814852D01*
X185152103Y-128841768D01*
X185085976Y-128854971D01*
X185019345Y-128899561D01*
X184945834Y-128931563D01*
X184899013Y-128980090D01*
X184842971Y-129017594D01*
X184798477Y-129084288D01*
X184742806Y-129141987D01*
X184718119Y-129204740D01*
X184680697Y-129260833D01*
X184665112Y-129339479D01*
X184635760Y-129414089D01*
X184636966Y-129481509D01*
X184623858Y-129547656D01*
X182593892Y-129547656D01*
X180754505Y-127716996D01*
X177960882Y-123700622D01*
X177701510Y-123175337D01*
X179035545Y-123175337D01*
X179051731Y-123256679D01*
X179053780Y-123339596D01*
X179079993Y-123398705D01*
X179092611Y-123462116D01*
X179138694Y-123531073D01*
X179142397Y-123539423D01*
X179178891Y-123591222D01*
X179255078Y-123705226D01*
X179262883Y-123710440D01*
X180967330Y-126129724D01*
X180994293Y-126155387D01*
X180994616Y-126155870D01*
X180995239Y-126156287D01*
X181125672Y-126280428D01*
X181398497Y-126385617D01*
X181690808Y-126378393D01*
X181729337Y-126361307D01*
X226858627Y-126382263D01*
X227073042Y-126339717D01*
X227316239Y-126177381D01*
X227321943Y-126168853D01*
X227324160Y-126167440D01*
X227449503Y-125988350D01*
X227462615Y-125958534D01*
X227478801Y-125934334D01*
X227483400Y-125911268D01*
X228491835Y-123618100D01*
X228598488Y-123458456D01*
X228655511Y-123171670D01*
X228598445Y-122884891D01*
X228435978Y-122641781D01*
X228192844Y-122479350D01*
X227978446Y-122436720D01*
X227947975Y-122436722D01*
X227899823Y-122426058D01*
X227839374Y-122436730D01*
X179921698Y-122440273D01*
X179912940Y-122436896D01*
X179775857Y-122440283D01*
X179712501Y-122440288D01*
X179703545Y-122442070D01*
X179620629Y-122444119D01*
X179561520Y-122470332D01*
X179498109Y-122482950D01*
X179429153Y-122529032D01*
X179353333Y-122562656D01*
X179308757Y-122609491D01*
X179254999Y-122645417D01*
X179208924Y-122714384D01*
X179151745Y-122774461D01*
X179128486Y-122834787D01*
X179092568Y-122888551D01*
X179076393Y-122969900D01*
X179046557Y-123047285D01*
X179048154Y-123111922D01*
X179035545Y-123175337D01*
X177701510Y-123175337D01*
X175449160Y-118613843D01*
X174788377Y-116803160D01*
X175847418Y-116803160D01*
X175848487Y-116808547D01*
X175847491Y-116813950D01*
X175876916Y-116951756D01*
X175904351Y-117089964D01*
X175948297Y-117155788D01*
X176898753Y-119362416D01*
X176939106Y-119565223D01*
X177101570Y-119808336D01*
X177344701Y-119970770D01*
X177559099Y-120013404D01*
X177610725Y-120013401D01*
X177672048Y-120024708D01*
X177725034Y-120013394D01*
X228864658Y-120010389D01*
X228884311Y-120017786D01*
X229176555Y-120008225D01*
X229442895Y-119887555D01*
X229642782Y-119674147D01*
X229719787Y-119469564D01*
X230105117Y-117135956D01*
X230121830Y-117110964D01*
X230178986Y-116824203D01*
X230145645Y-116656245D01*
X230144894Y-116633295D01*
X230138122Y-116618348D01*
X230122053Y-116537399D01*
X230057932Y-116441355D01*
X230024224Y-116366955D01*
X229981620Y-116327051D01*
X229959698Y-116294214D01*
X229913774Y-116263503D01*
X229810816Y-116167068D01*
X229537158Y-116064064D01*
X229244913Y-116073625D01*
X229211354Y-116088829D01*
X176664154Y-116068477D01*
X176586316Y-116054125D01*
X176448501Y-116083552D01*
X176310302Y-116110985D01*
X176305732Y-116114036D01*
X176300360Y-116115183D01*
X176184340Y-116195080D01*
X176067117Y-116273340D01*
X176064062Y-116277909D01*
X176059538Y-116281024D01*
X175982903Y-116399270D01*
X175904574Y-116516399D01*
X175903500Y-116521785D01*
X175900511Y-116526398D01*
X175874949Y-116665031D01*
X175847418Y-116803160D01*
X174788377Y-116803160D01*
X172824141Y-111420753D01*
X172479913Y-110432159D01*
X173806853Y-110432159D01*
X173826677Y-110531446D01*
X173828731Y-110558815D01*
X173840822Y-110602290D01*
X173864105Y-110718901D01*
X173879758Y-110742291D01*
X174554446Y-113168230D01*
X174562828Y-113184828D01*
X174569392Y-113217739D01*
X174610404Y-113279047D01*
X174652978Y-113363359D01*
X174685553Y-113391386D01*
X174731970Y-113460774D01*
X174975179Y-113623094D01*
X175189596Y-113665626D01*
X229648247Y-113636663D01*
X229801186Y-113678209D01*
X230091214Y-113641042D01*
X230344943Y-113495715D01*
X230523743Y-113264353D01*
X230537918Y-113212171D01*
X230554074Y-113187964D01*
X230580006Y-113057234D01*
X230581047Y-113053402D01*
X230581197Y-113051231D01*
X230610967Y-112901152D01*
X230596543Y-112828840D01*
X230761205Y-110442615D01*
X230771449Y-110390922D01*
X230742310Y-110244983D01*
X230735671Y-110193177D01*
X230729983Y-110183246D01*
X230714196Y-110104180D01*
X230551571Y-109861176D01*
X230308332Y-109698903D01*
X230093906Y-109656412D01*
X174673770Y-109696532D01*
X174647035Y-109687738D01*
X174528455Y-109696637D01*
X174483331Y-109696670D01*
X174456417Y-109702044D01*
X174355454Y-109709621D01*
X174314243Y-109730431D01*
X174268967Y-109739471D01*
X174184819Y-109795785D01*
X174094442Y-109841422D01*
X174064332Y-109876418D01*
X174025963Y-109902096D01*
X173969772Y-109986324D01*
X173903738Y-110063074D01*
X173889312Y-110106929D01*
X173863690Y-110145336D01*
X173844009Y-110244654D01*
X173812372Y-110340833D01*
X173815827Y-110386872D01*
X173806853Y-110432159D01*
X172479913Y-110432159D01*
X171007008Y-106202114D01*
X170985373Y-106137549D01*
X170983209Y-106133766D01*
X170981779Y-106129660D01*
X170947343Y-106071079D01*
X169796745Y-104059994D01*
X172538069Y-104059994D01*
X172564323Y-104191784D01*
X172984387Y-106721525D01*
X173061577Y-106926039D01*
X173261657Y-107139266D01*
X173528104Y-107259696D01*
X173820358Y-107268993D01*
X173914852Y-107233328D01*
X229984886Y-107293452D01*
X230214240Y-107331824D01*
X230499145Y-107266036D01*
X230737186Y-107096229D01*
X230892124Y-106848253D01*
X230928194Y-106632654D01*
X230849930Y-104074434D01*
X230856086Y-104043440D01*
X230847693Y-104001307D01*
X230847078Y-103981209D01*
X230822396Y-103874319D01*
X230798960Y-103756673D01*
X230636442Y-103513597D01*
X230393274Y-103351217D01*
X230178867Y-103308632D01*
X173299036Y-103324779D01*
X173164710Y-103320506D01*
X173084532Y-103350768D01*
X173000488Y-103367510D01*
X172949043Y-103401905D01*
X172891145Y-103423758D01*
X172828653Y-103482397D01*
X172757412Y-103530028D01*
X172723045Y-103581493D01*
X172677918Y-103623838D01*
X172642623Y-103701928D01*
X172595032Y-103773196D01*
X172582976Y-103833894D01*
X172557488Y-103890286D01*
X172554763Y-103975941D01*
X172538069Y-104059994D01*
X169796745Y-104059994D01*
X169322281Y-103230698D01*
X169307815Y-103178524D01*
X169250332Y-103104941D01*
X169240619Y-103087964D01*
X169205863Y-103048017D01*
X169173244Y-103006262D01*
X169158418Y-102993486D01*
X169097136Y-102923051D01*
X169048676Y-102898916D01*
X167195401Y-101301865D01*
X167154115Y-101247386D01*
X167085720Y-101207349D01*
X167081599Y-101203797D01*
X167023347Y-101170836D01*
X166965466Y-101136953D01*
X166960314Y-101135170D01*
X166891348Y-101096146D01*
X166823510Y-101087813D01*
X164671261Y-100342782D01*
X164656131Y-100330672D01*
X164533739Y-100295176D01*
X164483019Y-100277619D01*
X164464314Y-100275042D01*
X164446187Y-100269785D01*
X164392736Y-100265181D01*
X164266470Y-100247786D01*
X164247718Y-100252690D01*
X162897476Y-100136389D01*
X162879100Y-100128061D01*
X162752501Y-100123902D01*
X162699801Y-100119363D01*
X162680264Y-100121529D01*
X162660623Y-100120884D01*
X162608447Y-100129492D01*
X162482537Y-100143453D01*
X162464860Y-100153182D01*
X159747983Y-100601423D01*
X159683197Y-100597737D01*
X159605114Y-100624994D01*
X159596339Y-100626442D01*
X159536868Y-100648818D01*
X159476815Y-100669781D01*
X159469144Y-100674299D01*
X159391746Y-100703419D01*
X159344384Y-100747769D01*
X157350554Y-101921916D01*
X157294683Y-101938855D01*
X157225741Y-101995417D01*
X157212506Y-102003211D01*
X157169887Y-102041241D01*
X157125686Y-102077505D01*
X157115931Y-102089388D01*
X157049405Y-102148751D01*
X157024038Y-102201326D01*
X155596924Y-103939745D01*
X155575680Y-103952964D01*
X155504663Y-104052131D01*
X155474104Y-104089356D01*
X155462608Y-104110856D01*
X155448407Y-104130686D01*
X155428534Y-104174583D01*
X155371031Y-104282125D01*
X155368575Y-104307019D01*
X153835823Y-107692579D01*
X153818177Y-107722941D01*
X153806036Y-107758372D01*
X153790594Y-107792481D01*
X153782633Y-107826671D01*
X152548961Y-111426967D01*
X150750598Y-116666113D01*
X150304032Y-117668961D01*
X150300469Y-117673997D01*
X150296749Y-117682341D01*
X150291660Y-117689923D01*
X150267319Y-117748348D01*
X148269419Y-122229320D01*
X145523936Y-126625850D01*
X142464987Y-130036537D01*
X138660134Y-132890956D01*
X134065921Y-135077231D01*
X128543341Y-136587962D01*
X121732281Y-137427497D01*
X118618165Y-137539221D01*
X112392750Y-137219757D01*
X107489600Y-136204913D01*
X104210888Y-134864722D01*
X103252824Y-134471563D01*
X99814430Y-132152655D01*
X98816626Y-131252198D01*
X97393704Y-129547656D01*
X100946639Y-129547656D01*
X100959424Y-129611692D01*
X100957976Y-129676977D01*
X100987776Y-129753692D01*
X101003890Y-129834398D01*
X101040207Y-129888666D01*
X101063852Y-129949535D01*
X101120743Y-130009008D01*
X101166514Y-130077403D01*
X101281096Y-130153846D01*
X104688585Y-132541669D01*
X104693003Y-132548300D01*
X104808042Y-132625380D01*
X104861065Y-132662536D01*
X104868161Y-132665662D01*
X104935917Y-132711060D01*
X105000673Y-132724027D01*
X105061115Y-132750649D01*
X105142657Y-132752458D01*
X105150257Y-132753980D01*
X105214979Y-132754063D01*
X105353444Y-132757135D01*
X105360872Y-132754250D01*
X136153182Y-132793655D01*
X136294253Y-132795767D01*
X136367577Y-132766673D01*
X136444967Y-132751382D01*
X136562424Y-132673117D01*
X140502389Y-130124981D01*
X140576032Y-130053509D01*
X140582681Y-130049060D01*
X140586472Y-130043378D01*
X140659255Y-129972741D01*
X140706349Y-129863691D01*
X140744956Y-129805822D01*
X140756502Y-129747559D01*
X140775182Y-129704303D01*
X140776008Y-129649123D01*
X140801794Y-129518999D01*
X140744543Y-129232257D01*
X140581919Y-128989252D01*
X140338681Y-128826977D01*
X140124255Y-128784486D01*
X101703910Y-128812113D01*
X101566178Y-128809057D01*
X101489463Y-128838857D01*
X101408757Y-128854971D01*
X101354489Y-128891288D01*
X101293620Y-128914933D01*
X101234147Y-128971824D01*
X101165752Y-129017595D01*
X101129514Y-129071913D01*
X101082324Y-129117054D01*
X101049150Y-129192373D01*
X101003477Y-129260833D01*
X100990784Y-129324888D01*
X100964462Y-129384649D01*
X100962636Y-129466928D01*
X100946639Y-129547656D01*
X97393704Y-129547656D01*
X96183986Y-128098515D01*
X94222962Y-124537723D01*
X93742546Y-123175337D01*
X96782669Y-123175337D01*
X96784522Y-123184649D01*
X96782903Y-123194005D01*
X96812989Y-123327709D01*
X96839735Y-123462116D01*
X96885874Y-123531157D01*
X97924252Y-125870892D01*
X97936902Y-125934334D01*
X97982985Y-126003233D01*
X97986674Y-126011545D01*
X98023209Y-126063371D01*
X98099464Y-126177381D01*
X98107236Y-126182569D01*
X98112622Y-126190209D01*
X98228567Y-126263559D01*
X98342661Y-126339717D01*
X98351828Y-126341536D01*
X98359727Y-126346533D01*
X98494907Y-126369927D01*
X98557076Y-126382263D01*
X98566166Y-126382259D01*
X98647845Y-126396394D01*
X98710961Y-126382191D01*
X143847930Y-126361218D01*
X143980496Y-126366035D01*
X144062438Y-126335530D01*
X144148187Y-126318432D01*
X144198169Y-126285001D01*
X144254524Y-126264022D01*
X144318555Y-126204481D01*
X144391234Y-126155870D01*
X144464894Y-126045519D01*
X146146980Y-123715915D01*
X146168415Y-123701590D01*
X146330846Y-123458456D01*
X146347271Y-123375851D01*
X146359976Y-123348076D01*
X146361582Y-123303875D01*
X146387869Y-123171670D01*
X146369703Y-123080380D01*
X146370594Y-123055869D01*
X146358202Y-123022581D01*
X146330803Y-122884891D01*
X146276938Y-122804289D01*
X146268581Y-122781841D01*
X146244960Y-122756439D01*
X146168336Y-122641781D01*
X146089154Y-122588882D01*
X146069467Y-122567710D01*
X146031395Y-122550294D01*
X145925202Y-122479350D01*
X145838705Y-122462151D01*
X145803565Y-122446077D01*
X145747643Y-122444045D01*
X145710804Y-122436720D01*
X145546394Y-122436732D01*
X145511357Y-122435459D01*
X145507929Y-122436735D01*
X100850326Y-122440037D01*
X100855404Y-122432437D01*
X100899500Y-122210751D01*
X100899500Y-121514948D01*
X100855404Y-121293263D01*
X100687429Y-121041871D01*
X100436036Y-120873896D01*
X100139500Y-120814911D01*
X99842963Y-120873896D01*
X99591571Y-121041871D01*
X99423596Y-121293264D01*
X99379500Y-121514949D01*
X99379500Y-122210752D01*
X99423596Y-122432437D01*
X99428745Y-122440142D01*
X97595166Y-122440278D01*
X97513344Y-122426118D01*
X97379646Y-122456203D01*
X97245233Y-122482950D01*
X97237339Y-122488225D01*
X97228075Y-122490310D01*
X97116065Y-122569271D01*
X97002123Y-122645417D01*
X96996848Y-122653313D01*
X96989087Y-122658784D01*
X96915825Y-122774592D01*
X96839692Y-122888551D01*
X96837840Y-122897865D01*
X96832764Y-122905889D01*
X96809395Y-123040922D01*
X96782669Y-123175337D01*
X93742546Y-123175337D01*
X92782181Y-120451894D01*
X92299144Y-117969667D01*
X92299145Y-117969253D01*
X92285346Y-117898762D01*
X92271569Y-117827966D01*
X92271412Y-117827582D01*
X92070873Y-116803160D01*
X95251247Y-116803160D01*
X95278408Y-116939982D01*
X95697093Y-119268467D01*
X95695726Y-119275339D01*
X95722907Y-119412031D01*
X95734536Y-119476702D01*
X95737030Y-119483052D01*
X95752754Y-119562125D01*
X95789963Y-119617819D01*
X95814451Y-119680166D01*
X95870401Y-119738219D01*
X95915188Y-119805256D01*
X95970877Y-119842471D01*
X96017361Y-119890702D01*
X96091270Y-119922925D01*
X96158301Y-119967720D01*
X96223993Y-119980791D01*
X96285394Y-120007561D01*
X96366008Y-120009048D01*
X96372693Y-120010378D01*
X96438340Y-120010382D01*
X96577746Y-120012953D01*
X96584270Y-120010390D01*
X147676993Y-120013395D01*
X147744302Y-120027730D01*
X147821772Y-120013404D01*
X147826752Y-120013404D01*
X147892899Y-120000250D01*
X148031826Y-119974559D01*
X148036126Y-119971769D01*
X148041150Y-119970770D01*
X148158588Y-119892310D01*
X148277117Y-119815404D01*
X148280021Y-119811182D01*
X148284281Y-119808336D01*
X148362779Y-119690870D01*
X148401002Y-119635303D01*
X148402969Y-119630730D01*
X148446745Y-119565223D01*
X148460175Y-119497724D01*
X149381307Y-117356084D01*
X149384394Y-117354023D01*
X149546937Y-117110964D01*
X149604093Y-116824203D01*
X149547160Y-116537399D01*
X149384805Y-116294214D01*
X149141746Y-116131671D01*
X149138144Y-116130953D01*
X149114991Y-116115027D01*
X148829003Y-116054120D01*
X148641300Y-116088831D01*
X96007562Y-116068454D01*
X95868023Y-116065880D01*
X95793089Y-116095312D01*
X95714131Y-116110986D01*
X95658324Y-116148244D01*
X95595862Y-116172777D01*
X95537898Y-116228642D01*
X95470946Y-116273340D01*
X95433643Y-116329121D01*
X95385326Y-116375688D01*
X95353152Y-116449483D01*
X95308403Y-116516399D01*
X95295287Y-116582207D01*
X95268467Y-116643721D01*
X95266982Y-116724213D01*
X95251247Y-116803160D01*
X92070873Y-116803160D01*
X91687661Y-114845587D01*
X91319694Y-111216907D01*
X91247548Y-110432159D01*
X94643108Y-110432159D01*
X94662300Y-110528278D01*
X94816337Y-112853130D01*
X94806758Y-112901152D01*
X94825918Y-112997746D01*
X94827550Y-113022372D01*
X94839975Y-113068611D01*
X94863650Y-113187965D01*
X94877706Y-113209026D01*
X94884277Y-113233478D01*
X94958420Y-113329962D01*
X95025970Y-113431173D01*
X95047015Y-113445251D01*
X95062444Y-113465329D01*
X95167874Y-113526099D01*
X95269006Y-113593751D01*
X95293836Y-113598704D01*
X95315774Y-113611349D01*
X95436430Y-113627147D01*
X95483378Y-113636511D01*
X95508053Y-113636524D01*
X95605700Y-113649309D01*
X95652992Y-113636601D01*
X150186987Y-113665576D01*
X150311436Y-113672938D01*
X150401654Y-113641672D01*
X150495310Y-113623094D01*
X150538571Y-113594221D01*
X150587716Y-113577189D01*
X150659101Y-113513778D01*
X150738518Y-113460774D01*
X150767437Y-113417543D01*
X150806323Y-113383001D01*
X150848008Y-113297098D01*
X150901096Y-113217738D01*
X150925482Y-113095483D01*
X151542894Y-110731200D01*
X151578556Y-110677745D01*
X151635394Y-110390922D01*
X151578141Y-110104181D01*
X151415516Y-109861176D01*
X151172277Y-109698903D01*
X150957851Y-109656412D01*
X95440150Y-109696583D01*
X95342962Y-109683858D01*
X95225001Y-109715555D01*
X95105223Y-109739471D01*
X95084574Y-109753290D01*
X95060578Y-109759738D01*
X94963730Y-109834162D01*
X94862218Y-109902096D01*
X94848428Y-109922766D01*
X94828728Y-109937905D01*
X94767732Y-110043727D01*
X94699945Y-110145336D01*
X94695116Y-110169708D01*
X94682707Y-110191235D01*
X94666850Y-110312347D01*
X94643108Y-110432159D01*
X91247548Y-110432159D01*
X91073086Y-108534527D01*
X91055329Y-108474592D01*
X90696813Y-107220995D01*
X90657731Y-107081950D01*
X90611041Y-107022616D01*
X90576521Y-106955477D01*
X90466475Y-106862184D01*
X90071082Y-106523882D01*
X94510766Y-106523882D01*
X94537765Y-106659294D01*
X94561774Y-106795298D01*
X94566296Y-106802393D01*
X94567940Y-106810639D01*
X94644697Y-106925402D01*
X94718931Y-107041874D01*
X94725822Y-107046697D01*
X94730498Y-107053688D01*
X94845344Y-107130351D01*
X94958486Y-107209539D01*
X94966698Y-107211358D01*
X94973693Y-107216027D01*
X95109149Y-107242908D01*
X95243969Y-107272768D01*
X95324703Y-107258516D01*
X151599504Y-107233198D01*
X151611679Y-107237755D01*
X151745225Y-107233133D01*
X151805088Y-107233106D01*
X151817499Y-107230632D01*
X151903905Y-107227641D01*
X151959527Y-107202313D01*
X152019464Y-107190363D01*
X152091329Y-107142297D01*
X152170015Y-107106468D01*
X152211711Y-107061783D01*
X152262513Y-107027805D01*
X152310516Y-106955894D01*
X152369499Y-106892682D01*
X152390920Y-106835444D01*
X152424853Y-106784610D01*
X152441683Y-106699803D01*
X152446117Y-106687954D01*
X152455755Y-106628888D01*
X152481769Y-106497802D01*
X152479227Y-106485052D01*
X152825293Y-104364304D01*
X152847879Y-104330509D01*
X152904955Y-104043732D01*
X152847941Y-103756944D01*
X152685518Y-103513804D01*
X152442414Y-103351329D01*
X152228023Y-103308660D01*
X95394362Y-103302551D01*
X95330098Y-103288318D01*
X95249561Y-103302536D01*
X95241595Y-103302535D01*
X95178385Y-103315101D01*
X95042150Y-103339152D01*
X95035234Y-103343560D01*
X95027195Y-103345158D01*
X94912222Y-103421962D01*
X94795574Y-103496309D01*
X94790872Y-103503027D01*
X94784055Y-103507581D01*
X94707214Y-103622555D01*
X94627909Y-103735863D01*
X94626136Y-103743868D01*
X94621580Y-103750685D01*
X94594583Y-103886332D01*
X94580640Y-103949287D01*
X94580468Y-103957256D01*
X94564505Y-104037462D01*
X94577338Y-104102016D01*
X94526724Y-106443467D01*
X94510766Y-106523882D01*
X90071082Y-106523882D01*
X89549303Y-106077443D01*
X89516316Y-106028074D01*
X89273194Y-105865625D01*
X89058799Y-105822979D01*
X87877856Y-105822979D01*
X87373986Y-105629829D01*
X86965511Y-105240083D01*
X86965511Y-100157983D01*
X94725943Y-100157983D01*
X94742527Y-100241301D01*
X94745093Y-100326215D01*
X94770798Y-100383329D01*
X94783025Y-100444758D01*
X94830232Y-100515388D01*
X94865097Y-100592855D01*
X94910703Y-100635786D01*
X94945507Y-100687859D01*
X95016148Y-100735046D01*
X95078005Y-100793275D01*
X95136569Y-100815486D01*
X95188650Y-100850275D01*
X95271971Y-100866837D01*
X95351405Y-100896963D01*
X95486469Y-100892882D01*
X152482905Y-100885339D01*
X152531482Y-100898234D01*
X152627828Y-100885320D01*
X152651230Y-100885317D01*
X152699431Y-100875723D01*
X152821291Y-100859389D01*
X152842062Y-100847332D01*
X152865620Y-100842643D01*
X152967843Y-100774320D01*
X153074175Y-100712597D01*
X153088753Y-100693507D01*
X153108720Y-100680161D01*
X153177016Y-100577920D01*
X153251633Y-100480204D01*
X153257794Y-100456992D01*
X153271137Y-100437018D01*
X153295110Y-100316415D01*
X153307716Y-100268925D01*
X153309192Y-100245573D01*
X153328144Y-100150228D01*
X153318332Y-100100934D01*
X153457705Y-97895453D01*
X153497419Y-97695944D01*
X153495810Y-97687845D01*
X171931960Y-97687845D01*
X171950837Y-97782813D01*
X172088420Y-99995932D01*
X172057708Y-100150228D01*
X172114715Y-100437018D01*
X172277131Y-100680161D01*
X172520232Y-100842643D01*
X172565927Y-100851739D01*
X172591636Y-100866697D01*
X172881405Y-100905838D01*
X172958921Y-100885347D01*
X230014672Y-100892893D01*
X230035704Y-100888712D01*
X230060855Y-100889489D01*
X230092996Y-100877324D01*
X230229072Y-100850275D01*
X230313545Y-100793849D01*
X230334324Y-100785984D01*
X230356432Y-100765201D01*
X230472216Y-100687859D01*
X230528869Y-100603095D01*
X230547366Y-100585707D01*
X230561617Y-100554099D01*
X230634697Y-100444758D01*
X230653496Y-100350313D01*
X230667548Y-100319147D01*
X230668989Y-100272479D01*
X230691780Y-100157983D01*
X230642293Y-99909026D01*
X230239225Y-97495480D01*
X230206694Y-97409529D01*
X230206619Y-97409154D01*
X230206463Y-97408921D01*
X230161846Y-97291038D01*
X229961568Y-97077996D01*
X229810863Y-97010049D01*
X229801104Y-97003526D01*
X229792674Y-97001848D01*
X229695008Y-96957814D01*
X229402747Y-96948787D01*
X229370952Y-96960821D01*
X172730820Y-96952956D01*
X172634860Y-96939994D01*
X172515627Y-96971513D01*
X172394672Y-96995556D01*
X172375019Y-97008683D01*
X172352169Y-97014724D01*
X172254076Y-97089471D01*
X172151527Y-97157971D01*
X172138394Y-97177620D01*
X172119595Y-97191945D01*
X172057575Y-97298538D01*
X171989044Y-97401070D01*
X171984430Y-97424250D01*
X171972544Y-97444678D01*
X171956035Y-97566897D01*
X171931960Y-97687845D01*
X153495810Y-97687845D01*
X153440414Y-97409154D01*
X153302697Y-97202985D01*
X153296622Y-97192519D01*
X153294753Y-97191092D01*
X153277998Y-97166009D01*
X153148964Y-97079765D01*
X153064229Y-97015060D01*
X153044202Y-97009744D01*
X153034899Y-97003526D01*
X152978436Y-96992287D01*
X152781615Y-96940042D01*
X152626567Y-96960824D01*
X96024268Y-96952968D01*
X96013461Y-96948869D01*
X95878480Y-96952948D01*
X95817240Y-96952939D01*
X95806212Y-96955131D01*
X95721193Y-96957700D01*
X95664166Y-96983366D01*
X95602839Y-96995556D01*
X95532117Y-97042797D01*
X95454554Y-97077705D01*
X95411692Y-97123237D01*
X95359694Y-97157971D01*
X95312431Y-97228684D01*
X95254134Y-97290613D01*
X95231960Y-97349080D01*
X95197211Y-97401070D01*
X95180607Y-97484486D01*
X95176618Y-97495003D01*
X95166486Y-97555426D01*
X95140127Y-97687845D01*
X95142380Y-97699179D01*
X94752285Y-100025462D01*
X94725943Y-100157983D01*
X86965511Y-100157983D01*
X86965511Y-98662518D01*
X87251636Y-98364949D01*
X87836102Y-98212479D01*
X89484731Y-98212479D01*
X89493608Y-98215899D01*
X89630534Y-98212479D01*
X89693799Y-98212479D01*
X89702884Y-98210672D01*
X89785916Y-98208598D01*
X89844897Y-98182424D01*
X89908194Y-98169833D01*
X89977261Y-98123684D01*
X89985720Y-98119930D01*
X90037389Y-98083508D01*
X90151316Y-98007384D01*
X90156603Y-97999472D01*
X90853792Y-97508011D01*
X90917567Y-97468919D01*
X90976885Y-97387255D01*
X91029414Y-97332035D01*
X91043440Y-97295629D01*
X91046034Y-97292057D01*
X91320559Y-96696383D01*
X91328498Y-96688600D01*
X91381575Y-96563988D01*
X91407394Y-96507964D01*
X91409919Y-96497442D01*
X91414159Y-96487487D01*
X91426796Y-96427107D01*
X91458399Y-96295402D01*
X91456659Y-96284421D01*
X91523511Y-95964994D01*
X92311288Y-93785828D01*
X97029153Y-93785828D01*
X97050824Y-93894946D01*
X97062045Y-94005636D01*
X97079102Y-94037329D01*
X97086112Y-94072627D01*
X97147892Y-94165148D01*
X97200618Y-94263117D01*
X97228503Y-94285868D01*
X97248488Y-94315798D01*
X97340978Y-94377638D01*
X97427176Y-94447968D01*
X97461642Y-94458316D01*
X97491561Y-94478320D01*
X97600678Y-94500059D01*
X97707227Y-94532048D01*
X97815592Y-94521063D01*
X152747657Y-94537514D01*
X152893052Y-94537745D01*
X152961731Y-94509425D01*
X153034595Y-94494954D01*
X153095579Y-94454232D01*
X153163373Y-94426277D01*
X153215987Y-94373830D01*
X153277765Y-94332578D01*
X153318523Y-94271620D01*
X153370460Y-94219847D01*
X153398999Y-94151257D01*
X153440287Y-94089505D01*
X153454614Y-94017592D01*
X153482786Y-93949883D01*
X153482904Y-93875592D01*
X153497418Y-93802739D01*
X171973070Y-93802739D01*
X171977187Y-93823405D01*
X171979212Y-93944517D01*
X172020078Y-94038692D01*
X172030201Y-94089505D01*
X172064180Y-94140325D01*
X172095608Y-94212751D01*
X172143706Y-94259267D01*
X172192722Y-94332578D01*
X172279256Y-94390361D01*
X172305793Y-94416025D01*
X172334896Y-94427514D01*
X172435893Y-94494954D01*
X172576438Y-94522867D01*
X172577769Y-94523392D01*
X172578981Y-94523372D01*
X172650301Y-94537536D01*
X227454577Y-94521107D01*
X227722681Y-94548591D01*
X228002827Y-94464828D01*
X228229594Y-94280233D01*
X228368458Y-94022909D01*
X228398277Y-93732033D01*
X228331022Y-93507098D01*
X228329421Y-93499062D01*
X228327971Y-93496893D01*
X228314514Y-93451887D01*
X228221393Y-93337493D01*
X228166899Y-93255989D01*
X228051531Y-93178953D01*
X225198409Y-90818366D01*
X225176926Y-90786214D01*
X225086611Y-90725868D01*
X225059787Y-90703674D01*
X225026566Y-90685746D01*
X224933804Y-90623765D01*
X224898811Y-90616804D01*
X224867415Y-90599862D01*
X224756441Y-90588485D01*
X224719409Y-90581119D01*
X224684589Y-90581119D01*
X224576540Y-90570042D01*
X224539493Y-90581119D01*
X173300008Y-90581119D01*
X173294080Y-90578779D01*
X173154091Y-90581119D01*
X173087797Y-90581119D01*
X173081715Y-90582329D01*
X173001719Y-90583666D01*
X172939704Y-90610577D01*
X172873402Y-90623765D01*
X172806878Y-90668215D01*
X172733485Y-90700063D01*
X172686491Y-90748655D01*
X172630280Y-90786214D01*
X172585828Y-90852740D01*
X172530212Y-90910248D01*
X172505391Y-90973124D01*
X172467831Y-91029336D01*
X172452222Y-91107808D01*
X172449946Y-91113573D01*
X172438108Y-91178761D01*
X172410786Y-91316119D01*
X172412030Y-91322372D01*
X171975558Y-93725953D01*
X171976549Y-93785222D01*
X171973070Y-93802739D01*
X153497418Y-93802739D01*
X153469205Y-93660682D01*
X153006830Y-91316715D01*
X153006948Y-91316119D01*
X152978532Y-91173262D01*
X152964643Y-91102854D01*
X152964418Y-91102309D01*
X152949903Y-91029336D01*
X152909222Y-90968452D01*
X152881311Y-90900766D01*
X152828790Y-90848078D01*
X152787454Y-90786214D01*
X152726570Y-90745533D01*
X152674881Y-90693679D01*
X152606194Y-90665100D01*
X152544332Y-90623765D01*
X152472518Y-90609480D01*
X152404917Y-90581353D01*
X152330520Y-90581235D01*
X152329937Y-90581119D01*
X152257457Y-90581119D01*
X152112517Y-90580889D01*
X152111959Y-90581119D01*
X100878662Y-90581119D01*
X100842037Y-90570123D01*
X100733568Y-90581119D01*
X100698325Y-90581119D01*
X100661695Y-90588405D01*
X100551127Y-90599614D01*
X100519339Y-90616722D01*
X100483930Y-90623765D01*
X100391519Y-90685512D01*
X100358638Y-90703208D01*
X100331462Y-90725641D01*
X100240808Y-90786214D01*
X100219562Y-90818011D01*
X97339387Y-93195503D01*
X97248805Y-93255989D01*
X97186966Y-93348477D01*
X97116635Y-93434677D01*
X97106287Y-93469143D01*
X97086283Y-93499062D01*
X97064545Y-93608177D01*
X97032555Y-93714728D01*
X97036185Y-93750533D01*
X97029153Y-93785828D01*
X92311288Y-93785828D01*
X92509004Y-93238903D01*
X94198720Y-90899813D01*
X97012884Y-88681864D01*
X101091025Y-86814205D01*
X106619348Y-85408848D01*
X114103241Y-84550087D01*
X120166750Y-84373320D01*
X205243817Y-84373320D01*
X214721190Y-84834350D01*
X214721190Y-84834350D01*
G37*
X214721190Y-84834350D02*
X221250684Y-85923755D01*
X226483945Y-87670153D01*
X228011934Y-88447020D01*
X230981864Y-90659621D01*
X232824053Y-93081706D01*
X233849102Y-95800182D01*
X233914852Y-96114342D01*
X233913112Y-96125322D01*
X233944713Y-96257016D01*
X233957352Y-96317408D01*
X233961593Y-96327366D01*
X233964117Y-96337883D01*
X233989928Y-96393889D01*
X234043013Y-96518520D01*
X234050953Y-96526303D01*
X234325477Y-97121978D01*
X234328072Y-97125551D01*
X234342097Y-97161955D01*
X234394621Y-97217170D01*
X234453943Y-97298840D01*
X234517733Y-97337941D01*
X235214909Y-97829393D01*
X235220195Y-97837305D01*
X235334105Y-97913417D01*
X235385790Y-97949851D01*
X235394252Y-97953606D01*
X235463317Y-97999754D01*
X235526609Y-98012344D01*
X235585594Y-98038520D01*
X235668631Y-98040594D01*
X235677712Y-98042400D01*
X235740958Y-98042400D01*
X235877903Y-98045820D01*
X235886780Y-98042400D01*
X237535410Y-98042400D01*
X238119875Y-98194869D01*
X238406001Y-98492441D01*
X238406000Y-105070003D01*
X237997525Y-105459749D01*
X237493653Y-105652900D01*
X236312712Y-105652900D01*
X236098317Y-105695546D01*
X235855195Y-105857995D01*
X235822209Y-105907362D01*
X234905162Y-106691998D01*
X234794990Y-106785397D01*
X234760467Y-106852542D01*
X234713780Y-106911872D01*
X234674714Y-107050862D01*
X234306534Y-108338249D01*
X234304438Y-108363690D01*
X234303077Y-108368752D01*
X234299164Y-108427702D01*
X234288584Y-108556105D01*
X234290287Y-108561413D01*
X234252093Y-109136754D01*
X234009159Y-112253041D01*
X233540343Y-116147383D01*
X233163970Y-117882771D01*
X232496554Y-120940347D01*
X231312270Y-124085161D01*
X231311875Y-124085799D01*
X231286682Y-124153109D01*
X231261510Y-124219952D01*
X231261388Y-124220687D01*
X230913484Y-125150207D01*
X228785562Y-128732492D01*
X225845753Y-131939970D01*
X222563735Y-134253441D01*
X218136431Y-136142218D01*
X212879647Y-137235646D01*
X206817495Y-137538568D01*
X199349381Y-136997540D01*
X193001943Y-135632022D01*
X191191168Y-134891887D01*
X191190876Y-134891694D01*
X191123426Y-134864198D01*
X191057472Y-134837240D01*
X191057136Y-134837175D01*
X187972810Y-133579850D01*
X184013428Y-130960458D01*
X182593892Y-129547656D01*
X184623858Y-129547656D01*
X184639556Y-129626279D01*
X184640990Y-129706442D01*
X184667906Y-129768271D01*
X184681109Y-129834398D01*
X184725699Y-129901029D01*
X184757701Y-129974540D01*
X184806228Y-130021362D01*
X184843732Y-130077403D01*
X184910426Y-130121897D01*
X184915011Y-130126321D01*
X184970656Y-130162079D01*
X185086971Y-130239677D01*
X185093391Y-130240949D01*
X188659620Y-132532631D01*
X188697552Y-132589244D01*
X188940882Y-132751382D01*
X189155331Y-132793753D01*
X219965842Y-132754363D01*
X220080759Y-132797840D01*
X220373017Y-132788775D01*
X220572283Y-132698901D01*
X224200064Y-130108686D01*
X224289161Y-130049061D01*
X224451435Y-129805822D01*
X224508274Y-129518999D01*
X224451023Y-129232257D01*
X224288400Y-128989252D01*
X224045161Y-128826978D01*
X223830735Y-128784486D01*
X185512377Y-128812019D01*
X185506285Y-128809622D01*
X185366453Y-128812123D01*
X185300340Y-128812171D01*
X185294095Y-128813418D01*
X185213932Y-128814852D01*
X185152103Y-128841768D01*
X185085976Y-128854971D01*
X185019345Y-128899561D01*
X184945834Y-128931563D01*
X184899013Y-128980090D01*
X184842971Y-129017594D01*
X184798477Y-129084288D01*
X184742806Y-129141987D01*
X184718119Y-129204740D01*
X184680697Y-129260833D01*
X184665112Y-129339479D01*
X184635760Y-129414089D01*
X184636966Y-129481509D01*
X184623858Y-129547656D01*
X182593892Y-129547656D01*
X180754505Y-127716996D01*
X177960882Y-123700622D01*
X177701510Y-123175337D01*
X179035545Y-123175337D01*
X179051731Y-123256679D01*
X179053780Y-123339596D01*
X179079993Y-123398705D01*
X179092611Y-123462116D01*
X179138694Y-123531073D01*
X179142397Y-123539423D01*
X179178891Y-123591222D01*
X179255078Y-123705226D01*
X179262883Y-123710440D01*
X180967330Y-126129724D01*
X180994293Y-126155387D01*
X180994616Y-126155870D01*
X180995239Y-126156287D01*
X181125672Y-126280428D01*
X181398497Y-126385617D01*
X181690808Y-126378393D01*
X181729337Y-126361307D01*
X226858627Y-126382263D01*
X227073042Y-126339717D01*
X227316239Y-126177381D01*
X227321943Y-126168853D01*
X227324160Y-126167440D01*
X227449503Y-125988350D01*
X227462615Y-125958534D01*
X227478801Y-125934334D01*
X227483400Y-125911268D01*
X228491835Y-123618100D01*
X228598488Y-123458456D01*
X228655511Y-123171670D01*
X228598445Y-122884891D01*
X228435978Y-122641781D01*
X228192844Y-122479350D01*
X227978446Y-122436720D01*
X227947975Y-122436722D01*
X227899823Y-122426058D01*
X227839374Y-122436730D01*
X179921698Y-122440273D01*
X179912940Y-122436896D01*
X179775857Y-122440283D01*
X179712501Y-122440288D01*
X179703545Y-122442070D01*
X179620629Y-122444119D01*
X179561520Y-122470332D01*
X179498109Y-122482950D01*
X179429153Y-122529032D01*
X179353333Y-122562656D01*
X179308757Y-122609491D01*
X179254999Y-122645417D01*
X179208924Y-122714384D01*
X179151745Y-122774461D01*
X179128486Y-122834787D01*
X179092568Y-122888551D01*
X179076393Y-122969900D01*
X179046557Y-123047285D01*
X179048154Y-123111922D01*
X179035545Y-123175337D01*
X177701510Y-123175337D01*
X175449160Y-118613843D01*
X174788377Y-116803160D01*
X175847418Y-116803160D01*
X175848487Y-116808547D01*
X175847491Y-116813950D01*
X175876916Y-116951756D01*
X175904351Y-117089964D01*
X175948297Y-117155788D01*
X176898753Y-119362416D01*
X176939106Y-119565223D01*
X177101570Y-119808336D01*
X177344701Y-119970770D01*
X177559099Y-120013404D01*
X177610725Y-120013401D01*
X177672048Y-120024708D01*
X177725034Y-120013394D01*
X228864658Y-120010389D01*
X228884311Y-120017786D01*
X229176555Y-120008225D01*
X229442895Y-119887555D01*
X229642782Y-119674147D01*
X229719787Y-119469564D01*
X230105117Y-117135956D01*
X230121830Y-117110964D01*
X230178986Y-116824203D01*
X230145645Y-116656245D01*
X230144894Y-116633295D01*
X230138122Y-116618348D01*
X230122053Y-116537399D01*
X230057932Y-116441355D01*
X230024224Y-116366955D01*
X229981620Y-116327051D01*
X229959698Y-116294214D01*
X229913774Y-116263503D01*
X229810816Y-116167068D01*
X229537158Y-116064064D01*
X229244913Y-116073625D01*
X229211354Y-116088829D01*
X176664154Y-116068477D01*
X176586316Y-116054125D01*
X176448501Y-116083552D01*
X176310302Y-116110985D01*
X176305732Y-116114036D01*
X176300360Y-116115183D01*
X176184340Y-116195080D01*
X176067117Y-116273340D01*
X176064062Y-116277909D01*
X176059538Y-116281024D01*
X175982903Y-116399270D01*
X175904574Y-116516399D01*
X175903500Y-116521785D01*
X175900511Y-116526398D01*
X175874949Y-116665031D01*
X175847418Y-116803160D01*
X174788377Y-116803160D01*
X172824141Y-111420753D01*
X172479913Y-110432159D01*
X173806853Y-110432159D01*
X173826677Y-110531446D01*
X173828731Y-110558815D01*
X173840822Y-110602290D01*
X173864105Y-110718901D01*
X173879758Y-110742291D01*
X174554446Y-113168230D01*
X174562828Y-113184828D01*
X174569392Y-113217739D01*
X174610404Y-113279047D01*
X174652978Y-113363359D01*
X174685553Y-113391386D01*
X174731970Y-113460774D01*
X174975179Y-113623094D01*
X175189596Y-113665626D01*
X229648247Y-113636663D01*
X229801186Y-113678209D01*
X230091214Y-113641042D01*
X230344943Y-113495715D01*
X230523743Y-113264353D01*
X230537918Y-113212171D01*
X230554074Y-113187964D01*
X230580006Y-113057234D01*
X230581047Y-113053402D01*
X230581197Y-113051231D01*
X230610967Y-112901152D01*
X230596543Y-112828840D01*
X230761205Y-110442615D01*
X230771449Y-110390922D01*
X230742310Y-110244983D01*
X230735671Y-110193177D01*
X230729983Y-110183246D01*
X230714196Y-110104180D01*
X230551571Y-109861176D01*
X230308332Y-109698903D01*
X230093906Y-109656412D01*
X174673770Y-109696532D01*
X174647035Y-109687738D01*
X174528455Y-109696637D01*
X174483331Y-109696670D01*
X174456417Y-109702044D01*
X174355454Y-109709621D01*
X174314243Y-109730431D01*
X174268967Y-109739471D01*
X174184819Y-109795785D01*
X174094442Y-109841422D01*
X174064332Y-109876418D01*
X174025963Y-109902096D01*
X173969772Y-109986324D01*
X173903738Y-110063074D01*
X173889312Y-110106929D01*
X173863690Y-110145336D01*
X173844009Y-110244654D01*
X173812372Y-110340833D01*
X173815827Y-110386872D01*
X173806853Y-110432159D01*
X172479913Y-110432159D01*
X171007008Y-106202114D01*
X170985373Y-106137549D01*
X170983209Y-106133766D01*
X170981779Y-106129660D01*
X170947343Y-106071079D01*
X169796745Y-104059994D01*
X172538069Y-104059994D01*
X172564323Y-104191784D01*
X172984387Y-106721525D01*
X173061577Y-106926039D01*
X173261657Y-107139266D01*
X173528104Y-107259696D01*
X173820358Y-107268993D01*
X173914852Y-107233328D01*
X229984886Y-107293452D01*
X230214240Y-107331824D01*
X230499145Y-107266036D01*
X230737186Y-107096229D01*
X230892124Y-106848253D01*
X230928194Y-106632654D01*
X230849930Y-104074434D01*
X230856086Y-104043440D01*
X230847693Y-104001307D01*
X230847078Y-103981209D01*
X230822396Y-103874319D01*
X230798960Y-103756673D01*
X230636442Y-103513597D01*
X230393274Y-103351217D01*
X230178867Y-103308632D01*
X173299036Y-103324779D01*
X173164710Y-103320506D01*
X173084532Y-103350768D01*
X173000488Y-103367510D01*
X172949043Y-103401905D01*
X172891145Y-103423758D01*
X172828653Y-103482397D01*
X172757412Y-103530028D01*
X172723045Y-103581493D01*
X172677918Y-103623838D01*
X172642623Y-103701928D01*
X172595032Y-103773196D01*
X172582976Y-103833894D01*
X172557488Y-103890286D01*
X172554763Y-103975941D01*
X172538069Y-104059994D01*
X169796745Y-104059994D01*
X169322281Y-103230698D01*
X169307815Y-103178524D01*
X169250332Y-103104941D01*
X169240619Y-103087964D01*
X169205863Y-103048017D01*
X169173244Y-103006262D01*
X169158418Y-102993486D01*
X169097136Y-102923051D01*
X169048676Y-102898916D01*
X167195401Y-101301865D01*
X167154115Y-101247386D01*
X167085720Y-101207349D01*
X167081599Y-101203797D01*
X167023347Y-101170836D01*
X166965466Y-101136953D01*
X166960314Y-101135170D01*
X166891348Y-101096146D01*
X166823510Y-101087813D01*
X164671261Y-100342782D01*
X164656131Y-100330672D01*
X164533739Y-100295176D01*
X164483019Y-100277619D01*
X164464314Y-100275042D01*
X164446187Y-100269785D01*
X164392736Y-100265181D01*
X164266470Y-100247786D01*
X164247718Y-100252690D01*
X162897476Y-100136389D01*
X162879100Y-100128061D01*
X162752501Y-100123902D01*
X162699801Y-100119363D01*
X162680264Y-100121529D01*
X162660623Y-100120884D01*
X162608447Y-100129492D01*
X162482537Y-100143453D01*
X162464860Y-100153182D01*
X159747983Y-100601423D01*
X159683197Y-100597737D01*
X159605114Y-100624994D01*
X159596339Y-100626442D01*
X159536868Y-100648818D01*
X159476815Y-100669781D01*
X159469144Y-100674299D01*
X159391746Y-100703419D01*
X159344384Y-100747769D01*
X157350554Y-101921916D01*
X157294683Y-101938855D01*
X157225741Y-101995417D01*
X157212506Y-102003211D01*
X157169887Y-102041241D01*
X157125686Y-102077505D01*
X157115931Y-102089388D01*
X157049405Y-102148751D01*
X157024038Y-102201326D01*
X155596924Y-103939745D01*
X155575680Y-103952964D01*
X155504663Y-104052131D01*
X155474104Y-104089356D01*
X155462608Y-104110856D01*
X155448407Y-104130686D01*
X155428534Y-104174583D01*
X155371031Y-104282125D01*
X155368575Y-104307019D01*
X153835823Y-107692579D01*
X153818177Y-107722941D01*
X153806036Y-107758372D01*
X153790594Y-107792481D01*
X153782633Y-107826671D01*
X152548961Y-111426967D01*
X150750598Y-116666113D01*
X150304032Y-117668961D01*
X150300469Y-117673997D01*
X150296749Y-117682341D01*
X150291660Y-117689923D01*
X150267319Y-117748348D01*
X148269419Y-122229320D01*
X145523936Y-126625850D01*
X142464987Y-130036537D01*
X138660134Y-132890956D01*
X134065921Y-135077231D01*
X128543341Y-136587962D01*
X121732281Y-137427497D01*
X118618165Y-137539221D01*
X112392750Y-137219757D01*
X107489600Y-136204913D01*
X104210888Y-134864722D01*
X103252824Y-134471563D01*
X99814430Y-132152655D01*
X98816626Y-131252198D01*
X97393704Y-129547656D01*
X100946639Y-129547656D01*
X100959424Y-129611692D01*
X100957976Y-129676977D01*
X100987776Y-129753692D01*
X101003890Y-129834398D01*
X101040207Y-129888666D01*
X101063852Y-129949535D01*
X101120743Y-130009008D01*
X101166514Y-130077403D01*
X101281096Y-130153846D01*
X104688585Y-132541669D01*
X104693003Y-132548300D01*
X104808042Y-132625380D01*
X104861065Y-132662536D01*
X104868161Y-132665662D01*
X104935917Y-132711060D01*
X105000673Y-132724027D01*
X105061115Y-132750649D01*
X105142657Y-132752458D01*
X105150257Y-132753980D01*
X105214979Y-132754063D01*
X105353444Y-132757135D01*
X105360872Y-132754250D01*
X136153182Y-132793655D01*
X136294253Y-132795767D01*
X136367577Y-132766673D01*
X136444967Y-132751382D01*
X136562424Y-132673117D01*
X140502389Y-130124981D01*
X140576032Y-130053509D01*
X140582681Y-130049060D01*
X140586472Y-130043378D01*
X140659255Y-129972741D01*
X140706349Y-129863691D01*
X140744956Y-129805822D01*
X140756502Y-129747559D01*
X140775182Y-129704303D01*
X140776008Y-129649123D01*
X140801794Y-129518999D01*
X140744543Y-129232257D01*
X140581919Y-128989252D01*
X140338681Y-128826977D01*
X140124255Y-128784486D01*
X101703910Y-128812113D01*
X101566178Y-128809057D01*
X101489463Y-128838857D01*
X101408757Y-128854971D01*
X101354489Y-128891288D01*
X101293620Y-128914933D01*
X101234147Y-128971824D01*
X101165752Y-129017595D01*
X101129514Y-129071913D01*
X101082324Y-129117054D01*
X101049150Y-129192373D01*
X101003477Y-129260833D01*
X100990784Y-129324888D01*
X100964462Y-129384649D01*
X100962636Y-129466928D01*
X100946639Y-129547656D01*
X97393704Y-129547656D01*
X96183986Y-128098515D01*
X94222962Y-124537723D01*
X93742546Y-123175337D01*
X96782669Y-123175337D01*
X96784522Y-123184649D01*
X96782903Y-123194005D01*
X96812989Y-123327709D01*
X96839735Y-123462116D01*
X96885874Y-123531157D01*
X97924252Y-125870892D01*
X97936902Y-125934334D01*
X97982985Y-126003233D01*
X97986674Y-126011545D01*
X98023209Y-126063371D01*
X98099464Y-126177381D01*
X98107236Y-126182569D01*
X98112622Y-126190209D01*
X98228567Y-126263559D01*
X98342661Y-126339717D01*
X98351828Y-126341536D01*
X98359727Y-126346533D01*
X98494907Y-126369927D01*
X98557076Y-126382263D01*
X98566166Y-126382259D01*
X98647845Y-126396394D01*
X98710961Y-126382191D01*
X143847930Y-126361218D01*
X143980496Y-126366035D01*
X144062438Y-126335530D01*
X144148187Y-126318432D01*
X144198169Y-126285001D01*
X144254524Y-126264022D01*
X144318555Y-126204481D01*
X144391234Y-126155870D01*
X144464894Y-126045519D01*
X146146980Y-123715915D01*
X146168415Y-123701590D01*
X146330846Y-123458456D01*
X146347271Y-123375851D01*
X146359976Y-123348076D01*
X146361582Y-123303875D01*
X146387869Y-123171670D01*
X146369703Y-123080380D01*
X146370594Y-123055869D01*
X146358202Y-123022581D01*
X146330803Y-122884891D01*
X146276938Y-122804289D01*
X146268581Y-122781841D01*
X146244960Y-122756439D01*
X146168336Y-122641781D01*
X146089154Y-122588882D01*
X146069467Y-122567710D01*
X146031395Y-122550294D01*
X145925202Y-122479350D01*
X145838705Y-122462151D01*
X145803565Y-122446077D01*
X145747643Y-122444045D01*
X145710804Y-122436720D01*
X145546394Y-122436732D01*
X145511357Y-122435459D01*
X145507929Y-122436735D01*
X100850326Y-122440037D01*
X100855404Y-122432437D01*
X100899500Y-122210751D01*
X100899500Y-121514948D01*
X100855404Y-121293263D01*
X100687429Y-121041871D01*
X100436036Y-120873896D01*
X100139500Y-120814911D01*
X99842963Y-120873896D01*
X99591571Y-121041871D01*
X99423596Y-121293264D01*
X99379500Y-121514949D01*
X99379500Y-122210752D01*
X99423596Y-122432437D01*
X99428745Y-122440142D01*
X97595166Y-122440278D01*
X97513344Y-122426118D01*
X97379646Y-122456203D01*
X97245233Y-122482950D01*
X97237339Y-122488225D01*
X97228075Y-122490310D01*
X97116065Y-122569271D01*
X97002123Y-122645417D01*
X96996848Y-122653313D01*
X96989087Y-122658784D01*
X96915825Y-122774592D01*
X96839692Y-122888551D01*
X96837840Y-122897865D01*
X96832764Y-122905889D01*
X96809395Y-123040922D01*
X96782669Y-123175337D01*
X93742546Y-123175337D01*
X92782181Y-120451894D01*
X92299144Y-117969667D01*
X92299145Y-117969253D01*
X92285346Y-117898762D01*
X92271569Y-117827966D01*
X92271412Y-117827582D01*
X92070873Y-116803160D01*
X95251247Y-116803160D01*
X95278408Y-116939982D01*
X95697093Y-119268467D01*
X95695726Y-119275339D01*
X95722907Y-119412031D01*
X95734536Y-119476702D01*
X95737030Y-119483052D01*
X95752754Y-119562125D01*
X95789963Y-119617819D01*
X95814451Y-119680166D01*
X95870401Y-119738219D01*
X95915188Y-119805256D01*
X95970877Y-119842471D01*
X96017361Y-119890702D01*
X96091270Y-119922925D01*
X96158301Y-119967720D01*
X96223993Y-119980791D01*
X96285394Y-120007561D01*
X96366008Y-120009048D01*
X96372693Y-120010378D01*
X96438340Y-120010382D01*
X96577746Y-120012953D01*
X96584270Y-120010390D01*
X147676993Y-120013395D01*
X147744302Y-120027730D01*
X147821772Y-120013404D01*
X147826752Y-120013404D01*
X147892899Y-120000250D01*
X148031826Y-119974559D01*
X148036126Y-119971769D01*
X148041150Y-119970770D01*
X148158588Y-119892310D01*
X148277117Y-119815404D01*
X148280021Y-119811182D01*
X148284281Y-119808336D01*
X148362779Y-119690870D01*
X148401002Y-119635303D01*
X148402969Y-119630730D01*
X148446745Y-119565223D01*
X148460175Y-119497724D01*
X149381307Y-117356084D01*
X149384394Y-117354023D01*
X149546937Y-117110964D01*
X149604093Y-116824203D01*
X149547160Y-116537399D01*
X149384805Y-116294214D01*
X149141746Y-116131671D01*
X149138144Y-116130953D01*
X149114991Y-116115027D01*
X148829003Y-116054120D01*
X148641300Y-116088831D01*
X96007562Y-116068454D01*
X95868023Y-116065880D01*
X95793089Y-116095312D01*
X95714131Y-116110986D01*
X95658324Y-116148244D01*
X95595862Y-116172777D01*
X95537898Y-116228642D01*
X95470946Y-116273340D01*
X95433643Y-116329121D01*
X95385326Y-116375688D01*
X95353152Y-116449483D01*
X95308403Y-116516399D01*
X95295287Y-116582207D01*
X95268467Y-116643721D01*
X95266982Y-116724213D01*
X95251247Y-116803160D01*
X92070873Y-116803160D01*
X91687661Y-114845587D01*
X91319694Y-111216907D01*
X91247548Y-110432159D01*
X94643108Y-110432159D01*
X94662300Y-110528278D01*
X94816337Y-112853130D01*
X94806758Y-112901152D01*
X94825918Y-112997746D01*
X94827550Y-113022372D01*
X94839975Y-113068611D01*
X94863650Y-113187965D01*
X94877706Y-113209026D01*
X94884277Y-113233478D01*
X94958420Y-113329962D01*
X95025970Y-113431173D01*
X95047015Y-113445251D01*
X95062444Y-113465329D01*
X95167874Y-113526099D01*
X95269006Y-113593751D01*
X95293836Y-113598704D01*
X95315774Y-113611349D01*
X95436430Y-113627147D01*
X95483378Y-113636511D01*
X95508053Y-113636524D01*
X95605700Y-113649309D01*
X95652992Y-113636601D01*
X150186987Y-113665576D01*
X150311436Y-113672938D01*
X150401654Y-113641672D01*
X150495310Y-113623094D01*
X150538571Y-113594221D01*
X150587716Y-113577189D01*
X150659101Y-113513778D01*
X150738518Y-113460774D01*
X150767437Y-113417543D01*
X150806323Y-113383001D01*
X150848008Y-113297098D01*
X150901096Y-113217738D01*
X150925482Y-113095483D01*
X151542894Y-110731200D01*
X151578556Y-110677745D01*
X151635394Y-110390922D01*
X151578141Y-110104181D01*
X151415516Y-109861176D01*
X151172277Y-109698903D01*
X150957851Y-109656412D01*
X95440150Y-109696583D01*
X95342962Y-109683858D01*
X95225001Y-109715555D01*
X95105223Y-109739471D01*
X95084574Y-109753290D01*
X95060578Y-109759738D01*
X94963730Y-109834162D01*
X94862218Y-109902096D01*
X94848428Y-109922766D01*
X94828728Y-109937905D01*
X94767732Y-110043727D01*
X94699945Y-110145336D01*
X94695116Y-110169708D01*
X94682707Y-110191235D01*
X94666850Y-110312347D01*
X94643108Y-110432159D01*
X91247548Y-110432159D01*
X91073086Y-108534527D01*
X91055329Y-108474592D01*
X90696813Y-107220995D01*
X90657731Y-107081950D01*
X90611041Y-107022616D01*
X90576521Y-106955477D01*
X90466475Y-106862184D01*
X90071082Y-106523882D01*
X94510766Y-106523882D01*
X94537765Y-106659294D01*
X94561774Y-106795298D01*
X94566296Y-106802393D01*
X94567940Y-106810639D01*
X94644697Y-106925402D01*
X94718931Y-107041874D01*
X94725822Y-107046697D01*
X94730498Y-107053688D01*
X94845344Y-107130351D01*
X94958486Y-107209539D01*
X94966698Y-107211358D01*
X94973693Y-107216027D01*
X95109149Y-107242908D01*
X95243969Y-107272768D01*
X95324703Y-107258516D01*
X151599504Y-107233198D01*
X151611679Y-107237755D01*
X151745225Y-107233133D01*
X151805088Y-107233106D01*
X151817499Y-107230632D01*
X151903905Y-107227641D01*
X151959527Y-107202313D01*
X152019464Y-107190363D01*
X152091329Y-107142297D01*
X152170015Y-107106468D01*
X152211711Y-107061783D01*
X152262513Y-107027805D01*
X152310516Y-106955894D01*
X152369499Y-106892682D01*
X152390920Y-106835444D01*
X152424853Y-106784610D01*
X152441683Y-106699803D01*
X152446117Y-106687954D01*
X152455755Y-106628888D01*
X152481769Y-106497802D01*
X152479227Y-106485052D01*
X152825293Y-104364304D01*
X152847879Y-104330509D01*
X152904955Y-104043732D01*
X152847941Y-103756944D01*
X152685518Y-103513804D01*
X152442414Y-103351329D01*
X152228023Y-103308660D01*
X95394362Y-103302551D01*
X95330098Y-103288318D01*
X95249561Y-103302536D01*
X95241595Y-103302535D01*
X95178385Y-103315101D01*
X95042150Y-103339152D01*
X95035234Y-103343560D01*
X95027195Y-103345158D01*
X94912222Y-103421962D01*
X94795574Y-103496309D01*
X94790872Y-103503027D01*
X94784055Y-103507581D01*
X94707214Y-103622555D01*
X94627909Y-103735863D01*
X94626136Y-103743868D01*
X94621580Y-103750685D01*
X94594583Y-103886332D01*
X94580640Y-103949287D01*
X94580468Y-103957256D01*
X94564505Y-104037462D01*
X94577338Y-104102016D01*
X94526724Y-106443467D01*
X94510766Y-106523882D01*
X90071082Y-106523882D01*
X89549303Y-106077443D01*
X89516316Y-106028074D01*
X89273194Y-105865625D01*
X89058799Y-105822979D01*
X87877856Y-105822979D01*
X87373986Y-105629829D01*
X86965511Y-105240083D01*
X86965511Y-100157983D01*
X94725943Y-100157983D01*
X94742527Y-100241301D01*
X94745093Y-100326215D01*
X94770798Y-100383329D01*
X94783025Y-100444758D01*
X94830232Y-100515388D01*
X94865097Y-100592855D01*
X94910703Y-100635786D01*
X94945507Y-100687859D01*
X95016148Y-100735046D01*
X95078005Y-100793275D01*
X95136569Y-100815486D01*
X95188650Y-100850275D01*
X95271971Y-100866837D01*
X95351405Y-100896963D01*
X95486469Y-100892882D01*
X152482905Y-100885339D01*
X152531482Y-100898234D01*
X152627828Y-100885320D01*
X152651230Y-100885317D01*
X152699431Y-100875723D01*
X152821291Y-100859389D01*
X152842062Y-100847332D01*
X152865620Y-100842643D01*
X152967843Y-100774320D01*
X153074175Y-100712597D01*
X153088753Y-100693507D01*
X153108720Y-100680161D01*
X153177016Y-100577920D01*
X153251633Y-100480204D01*
X153257794Y-100456992D01*
X153271137Y-100437018D01*
X153295110Y-100316415D01*
X153307716Y-100268925D01*
X153309192Y-100245573D01*
X153328144Y-100150228D01*
X153318332Y-100100934D01*
X153457705Y-97895453D01*
X153497419Y-97695944D01*
X153495810Y-97687845D01*
X171931960Y-97687845D01*
X171950837Y-97782813D01*
X172088420Y-99995932D01*
X172057708Y-100150228D01*
X172114715Y-100437018D01*
X172277131Y-100680161D01*
X172520232Y-100842643D01*
X172565927Y-100851739D01*
X172591636Y-100866697D01*
X172881405Y-100905838D01*
X172958921Y-100885347D01*
X230014672Y-100892893D01*
X230035704Y-100888712D01*
X230060855Y-100889489D01*
X230092996Y-100877324D01*
X230229072Y-100850275D01*
X230313545Y-100793849D01*
X230334324Y-100785984D01*
X230356432Y-100765201D01*
X230472216Y-100687859D01*
X230528869Y-100603095D01*
X230547366Y-100585707D01*
X230561617Y-100554099D01*
X230634697Y-100444758D01*
X230653496Y-100350313D01*
X230667548Y-100319147D01*
X230668989Y-100272479D01*
X230691780Y-100157983D01*
X230642293Y-99909026D01*
X230239225Y-97495480D01*
X230206694Y-97409529D01*
X230206619Y-97409154D01*
X230206463Y-97408921D01*
X230161846Y-97291038D01*
X229961568Y-97077996D01*
X229810863Y-97010049D01*
X229801104Y-97003526D01*
X229792674Y-97001848D01*
X229695008Y-96957814D01*
X229402747Y-96948787D01*
X229370952Y-96960821D01*
X172730820Y-96952956D01*
X172634860Y-96939994D01*
X172515627Y-96971513D01*
X172394672Y-96995556D01*
X172375019Y-97008683D01*
X172352169Y-97014724D01*
X172254076Y-97089471D01*
X172151527Y-97157971D01*
X172138394Y-97177620D01*
X172119595Y-97191945D01*
X172057575Y-97298538D01*
X171989044Y-97401070D01*
X171984430Y-97424250D01*
X171972544Y-97444678D01*
X171956035Y-97566897D01*
X171931960Y-97687845D01*
X153495810Y-97687845D01*
X153440414Y-97409154D01*
X153302697Y-97202985D01*
X153296622Y-97192519D01*
X153294753Y-97191092D01*
X153277998Y-97166009D01*
X153148964Y-97079765D01*
X153064229Y-97015060D01*
X153044202Y-97009744D01*
X153034899Y-97003526D01*
X152978436Y-96992287D01*
X152781615Y-96940042D01*
X152626567Y-96960824D01*
X96024268Y-96952968D01*
X96013461Y-96948869D01*
X95878480Y-96952948D01*
X95817240Y-96952939D01*
X95806212Y-96955131D01*
X95721193Y-96957700D01*
X95664166Y-96983366D01*
X95602839Y-96995556D01*
X95532117Y-97042797D01*
X95454554Y-97077705D01*
X95411692Y-97123237D01*
X95359694Y-97157971D01*
X95312431Y-97228684D01*
X95254134Y-97290613D01*
X95231960Y-97349080D01*
X95197211Y-97401070D01*
X95180607Y-97484486D01*
X95176618Y-97495003D01*
X95166486Y-97555426D01*
X95140127Y-97687845D01*
X95142380Y-97699179D01*
X94752285Y-100025462D01*
X94725943Y-100157983D01*
X86965511Y-100157983D01*
X86965511Y-98662518D01*
X87251636Y-98364949D01*
X87836102Y-98212479D01*
X89484731Y-98212479D01*
X89493608Y-98215899D01*
X89630534Y-98212479D01*
X89693799Y-98212479D01*
X89702884Y-98210672D01*
X89785916Y-98208598D01*
X89844897Y-98182424D01*
X89908194Y-98169833D01*
X89977261Y-98123684D01*
X89985720Y-98119930D01*
X90037389Y-98083508D01*
X90151316Y-98007384D01*
X90156603Y-97999472D01*
X90853792Y-97508011D01*
X90917567Y-97468919D01*
X90976885Y-97387255D01*
X91029414Y-97332035D01*
X91043440Y-97295629D01*
X91046034Y-97292057D01*
X91320559Y-96696383D01*
X91328498Y-96688600D01*
X91381575Y-96563988D01*
X91407394Y-96507964D01*
X91409919Y-96497442D01*
X91414159Y-96487487D01*
X91426796Y-96427107D01*
X91458399Y-96295402D01*
X91456659Y-96284421D01*
X91523511Y-95964994D01*
X92311288Y-93785828D01*
X97029153Y-93785828D01*
X97050824Y-93894946D01*
X97062045Y-94005636D01*
X97079102Y-94037329D01*
X97086112Y-94072627D01*
X97147892Y-94165148D01*
X97200618Y-94263117D01*
X97228503Y-94285868D01*
X97248488Y-94315798D01*
X97340978Y-94377638D01*
X97427176Y-94447968D01*
X97461642Y-94458316D01*
X97491561Y-94478320D01*
X97600678Y-94500059D01*
X97707227Y-94532048D01*
X97815592Y-94521063D01*
X152747657Y-94537514D01*
X152893052Y-94537745D01*
X152961731Y-94509425D01*
X153034595Y-94494954D01*
X153095579Y-94454232D01*
X153163373Y-94426277D01*
X153215987Y-94373830D01*
X153277765Y-94332578D01*
X153318523Y-94271620D01*
X153370460Y-94219847D01*
X153398999Y-94151257D01*
X153440287Y-94089505D01*
X153454614Y-94017592D01*
X153482786Y-93949883D01*
X153482904Y-93875592D01*
X153497418Y-93802739D01*
X171973070Y-93802739D01*
X171977187Y-93823405D01*
X171979212Y-93944517D01*
X172020078Y-94038692D01*
X172030201Y-94089505D01*
X172064180Y-94140325D01*
X172095608Y-94212751D01*
X172143706Y-94259267D01*
X172192722Y-94332578D01*
X172279256Y-94390361D01*
X172305793Y-94416025D01*
X172334896Y-94427514D01*
X172435893Y-94494954D01*
X172576438Y-94522867D01*
X172577769Y-94523392D01*
X172578981Y-94523372D01*
X172650301Y-94537536D01*
X227454577Y-94521107D01*
X227722681Y-94548591D01*
X228002827Y-94464828D01*
X228229594Y-94280233D01*
X228368458Y-94022909D01*
X228398277Y-93732033D01*
X228331022Y-93507098D01*
X228329421Y-93499062D01*
X228327971Y-93496893D01*
X228314514Y-93451887D01*
X228221393Y-93337493D01*
X228166899Y-93255989D01*
X228051531Y-93178953D01*
X225198409Y-90818366D01*
X225176926Y-90786214D01*
X225086611Y-90725868D01*
X225059787Y-90703674D01*
X225026566Y-90685746D01*
X224933804Y-90623765D01*
X224898811Y-90616804D01*
X224867415Y-90599862D01*
X224756441Y-90588485D01*
X224719409Y-90581119D01*
X224684589Y-90581119D01*
X224576540Y-90570042D01*
X224539493Y-90581119D01*
X173300008Y-90581119D01*
X173294080Y-90578779D01*
X173154091Y-90581119D01*
X173087797Y-90581119D01*
X173081715Y-90582329D01*
X173001719Y-90583666D01*
X172939704Y-90610577D01*
X172873402Y-90623765D01*
X172806878Y-90668215D01*
X172733485Y-90700063D01*
X172686491Y-90748655D01*
X172630280Y-90786214D01*
X172585828Y-90852740D01*
X172530212Y-90910248D01*
X172505391Y-90973124D01*
X172467831Y-91029336D01*
X172452222Y-91107808D01*
X172449946Y-91113573D01*
X172438108Y-91178761D01*
X172410786Y-91316119D01*
X172412030Y-91322372D01*
X171975558Y-93725953D01*
X171976549Y-93785222D01*
X171973070Y-93802739D01*
X153497418Y-93802739D01*
X153469205Y-93660682D01*
X153006830Y-91316715D01*
X153006948Y-91316119D01*
X152978532Y-91173262D01*
X152964643Y-91102854D01*
X152964418Y-91102309D01*
X152949903Y-91029336D01*
X152909222Y-90968452D01*
X152881311Y-90900766D01*
X152828790Y-90848078D01*
X152787454Y-90786214D01*
X152726570Y-90745533D01*
X152674881Y-90693679D01*
X152606194Y-90665100D01*
X152544332Y-90623765D01*
X152472518Y-90609480D01*
X152404917Y-90581353D01*
X152330520Y-90581235D01*
X152329937Y-90581119D01*
X152257457Y-90581119D01*
X152112517Y-90580889D01*
X152111959Y-90581119D01*
X100878662Y-90581119D01*
X100842037Y-90570123D01*
X100733568Y-90581119D01*
X100698325Y-90581119D01*
X100661695Y-90588405D01*
X100551127Y-90599614D01*
X100519339Y-90616722D01*
X100483930Y-90623765D01*
X100391519Y-90685512D01*
X100358638Y-90703208D01*
X100331462Y-90725641D01*
X100240808Y-90786214D01*
X100219562Y-90818011D01*
X97339387Y-93195503D01*
X97248805Y-93255989D01*
X97186966Y-93348477D01*
X97116635Y-93434677D01*
X97106287Y-93469143D01*
X97086283Y-93499062D01*
X97064545Y-93608177D01*
X97032555Y-93714728D01*
X97036185Y-93750533D01*
X97029153Y-93785828D01*
X92311288Y-93785828D01*
X92509004Y-93238903D01*
X94198720Y-90899813D01*
X97012884Y-88681864D01*
X101091025Y-86814205D01*
X106619348Y-85408848D01*
X114103241Y-84550087D01*
X120166750Y-84373320D01*
X205243817Y-84373320D01*
X214721190Y-84834350D01*
G04 #@! TD*
M02*
