M48
;DRILL file {KiCad (5.0.1)-3} date 19/10/2019 12:44:15 PM
;FORMAT={-:-/ absolute / metric / decimal}
FMAT,2
METRIC,TZ
T1C0.400
%
G90
G05
M71
T1
X91.669Y-102.946
X97.472Y-94.831
X97.638Y-102.133
X98.12Y-114.948
X107.074Y-94.856
X107.302Y-107.645
X107.328Y-128.397
X107.48Y-102.997
X107.48Y-120.421
X107.772Y-115.659
X111.125Y-89.681
X118.11Y-94.958
X118.173Y-107.709
X118.173Y-120.32
X118.262Y-102.933
X118.605Y-115.646
X118.745Y-128.588
X122.Y-89.681
X128.791Y-94.932
X128.918Y-120.383
X129.235Y-103.01
X129.299Y-128.562
X129.324Y-107.671
X129.324Y-115.722
X129.896Y-89.725
X139.776Y-94.856
X139.84Y-107.696
X140.233Y-102.972
X140.233Y-120.332
X140.449Y-89.687
X140.475Y-115.684
X148.768Y-120.066
X152.298Y-107.582
X154.305Y-102.616
X175.26Y-103.035
X176.085Y-89.827
X176.555Y-115.773
X185.992Y-128.372
X186.322Y-115.799
X187.033Y-107.404
X187.046Y-102.921
X187.287Y-120.294
X187.554Y-89.891
X187.579Y-94.704
X196.329Y-120.472
X196.609Y-107.62
X196.761Y-115.773
X196.812Y-89.941
X196.812Y-94.856
X197.002Y-102.984
X197.028Y-128.372
X207.226Y-95.034
X207.34Y-107.683
X207.34Y-120.472
X207.62Y-115.672
X208.013Y-102.933
X208.255Y-128.473
X208.763Y-89.865
X217.462Y-115.811
X217.614Y-103.099
X217.64Y-94.865
X218.148Y-107.556
X218.491Y-120.434
X219.939Y-89.929
X224.625Y-128.473
X227.482Y-120.294
X227.609Y-94.894
X228.448Y-107.734
X233.655Y-106.54
T0
M30
