G04 #@! TF.GenerationSoftware,KiCad,Pcbnew,(5.0.1)-3*
G04 #@! TF.CreationDate,2021-05-06T18:47:49+10:00*
G04 #@! TF.ProjectId,LED Right Glasses Arm (power),4C454420526967687420476C61737365,rev?*
G04 #@! TF.SameCoordinates,Original*
G04 #@! TF.FileFunction,Copper,L2,Bot,Signal*
G04 #@! TF.FilePolarity,Positive*
%FSLAX46Y46*%
G04 Gerber Fmt 4.6, Leading zero omitted, Abs format (unit mm)*
G04 Created by KiCad (PCBNEW (5.0.1)-3) date 6/05/2021 6:47:49 PM*
%MOMM*%
%LPD*%
G01*
G04 APERTURE LIST*
G04 #@! TA.AperFunction,ViaPad*
%ADD10C,0.600000*%
G04 #@! TD*
G04 #@! TA.AperFunction,Conductor*
%ADD11C,0.150000*%
G04 #@! TD*
G04 APERTURE END LIST*
D10*
G04 #@! TO.N,GND*
X213550000Y-97450000D03*
X212100000Y-97250000D03*
X214900000Y-97600000D03*
X212000000Y-98300000D03*
X213450000Y-98450000D03*
X214800000Y-98600000D03*
X96900000Y-104350000D03*
X98250000Y-103700000D03*
X99650000Y-103050000D03*
X100050000Y-103950000D03*
X98650000Y-104550000D03*
X97300000Y-105250000D03*
X161600000Y-100250000D03*
X162400000Y-100250000D03*
X162550000Y-95600000D03*
X161900000Y-95600000D03*
X161250000Y-95600000D03*
X164950000Y-98400000D03*
X159400000Y-98750000D03*
X169400000Y-99000000D03*
X187850000Y-93900000D03*
X167500000Y-94050000D03*
X170500000Y-94050000D03*
X156500000Y-99950000D03*
X141000000Y-97500000D03*
G04 #@! TO.N,/PG*
X173550000Y-94800000D03*
X173550000Y-97050000D03*
G04 #@! TD*
D11*
G04 #@! TO.N,/PG*
X173550000Y-97050000D02*
X173550000Y-94800000D01*
G04 #@! TD*
G04 #@! TO.N,GND*
G36*
X175764103Y-89382065D02*
X185962727Y-89556438D01*
X196157851Y-89873186D01*
X206348425Y-90332288D01*
X211595694Y-90624383D01*
X216053716Y-91137591D01*
X215151143Y-99137918D01*
X210622914Y-98627058D01*
X210590545Y-98621468D01*
X210576521Y-98621824D01*
X210562590Y-98620252D01*
X210529877Y-98623007D01*
X210487752Y-98624075D01*
X210487102Y-98624222D01*
X203278597Y-98827171D01*
X203276743Y-98827233D01*
X203274803Y-98827293D01*
X189490736Y-99325634D01*
X189485767Y-99325840D01*
X175707674Y-99968498D01*
X175702707Y-99968756D01*
X161932100Y-100755660D01*
X161927135Y-100755969D01*
X148185851Y-101685657D01*
X146454112Y-101654113D01*
X144732057Y-101471795D01*
X143032445Y-101140083D01*
X141368199Y-100661499D01*
X139747268Y-100037868D01*
X138948095Y-99668268D01*
X137182160Y-98768504D01*
X137167878Y-98761844D01*
X137153560Y-98755110D01*
X135131553Y-97888925D01*
X135131539Y-97888919D01*
X135112488Y-97881534D01*
X135100627Y-97876936D01*
X135100618Y-97876933D01*
X133023108Y-97153906D01*
X132991435Y-97144108D01*
X132991428Y-97144106D01*
X130868543Y-96567759D01*
X130836263Y-96560194D01*
X128678337Y-96133334D01*
X128645608Y-96128039D01*
X126463163Y-95852749D01*
X126430144Y-95849751D01*
X124233812Y-95727370D01*
X124200665Y-95726681D01*
X124200637Y-95726682D01*
X122001146Y-95757809D01*
X122001145Y-95757809D01*
X121968031Y-95759434D01*
X119776041Y-95943915D01*
X119743121Y-95947847D01*
X117569340Y-96284784D01*
X117536774Y-96291003D01*
X115391791Y-96778755D01*
X115359738Y-96787230D01*
X113254012Y-97423418D01*
X113254004Y-97423420D01*
X113222621Y-97434110D01*
X111166395Y-98215638D01*
X111148832Y-98223025D01*
X111135833Y-98228492D01*
X109139133Y-99151553D01*
X109109543Y-99166507D01*
X107182096Y-100226601D01*
X107181181Y-100227147D01*
X107164796Y-100236596D01*
X106130116Y-100863737D01*
X106124326Y-100867422D01*
X106118450Y-100871041D01*
X103022251Y-102872616D01*
X103022230Y-102872629D01*
X103015300Y-102877326D01*
X103005076Y-102884256D01*
X103005046Y-102884278D01*
X99999110Y-105018995D01*
X99982479Y-105031360D01*
X97082638Y-107287290D01*
X96256773Y-107860879D01*
X95374560Y-108292709D01*
X94437175Y-108586129D01*
X93466201Y-108734381D01*
X92483970Y-108734058D01*
X91513084Y-108585163D01*
X90575899Y-108291128D01*
X89692170Y-107857832D01*
X88971153Y-107365321D01*
X88039487Y-106536595D01*
X87211288Y-105598727D01*
X86631295Y-104775335D01*
X86399839Y-104288431D01*
X86293546Y-103771744D01*
X86299966Y-103357342D01*
X86422214Y-102844197D01*
X86660862Y-102379838D01*
X87004162Y-101984917D01*
X87429728Y-101681594D01*
X90777774Y-99926899D01*
X94216713Y-98304344D01*
X97720595Y-96827216D01*
X101283255Y-95498110D01*
X103836125Y-94665734D01*
X172875000Y-94665734D01*
X172875000Y-94934266D01*
X172977763Y-95182357D01*
X173100001Y-95304595D01*
X173100000Y-96545406D01*
X172977763Y-96667643D01*
X172875000Y-96915734D01*
X172875000Y-97184266D01*
X172977763Y-97432357D01*
X173167643Y-97622237D01*
X173415734Y-97725000D01*
X173684266Y-97725000D01*
X173932357Y-97622237D01*
X174122237Y-97432357D01*
X174225000Y-97184266D01*
X174225000Y-96915734D01*
X174122237Y-96667643D01*
X174000000Y-96545406D01*
X174000000Y-95304594D01*
X174122237Y-95182357D01*
X174225000Y-94934266D01*
X174225000Y-94665734D01*
X174122237Y-94417643D01*
X173932357Y-94227763D01*
X173684266Y-94125000D01*
X173415734Y-94125000D01*
X173167643Y-94227763D01*
X172977763Y-94417643D01*
X172875000Y-94665734D01*
X103836125Y-94665734D01*
X104898443Y-94319360D01*
X108559837Y-93293029D01*
X112260952Y-92420932D01*
X115995386Y-91704577D01*
X119756524Y-91145236D01*
X123541112Y-90743533D01*
X124791959Y-90645946D01*
X134975231Y-90108615D01*
X145167618Y-89713415D01*
X155364598Y-89460561D01*
X165564040Y-89350104D01*
X175764103Y-89382065D01*
X175764103Y-89382065D01*
G37*
X175764103Y-89382065D02*
X185962727Y-89556438D01*
X196157851Y-89873186D01*
X206348425Y-90332288D01*
X211595694Y-90624383D01*
X216053716Y-91137591D01*
X215151143Y-99137918D01*
X210622914Y-98627058D01*
X210590545Y-98621468D01*
X210576521Y-98621824D01*
X210562590Y-98620252D01*
X210529877Y-98623007D01*
X210487752Y-98624075D01*
X210487102Y-98624222D01*
X203278597Y-98827171D01*
X203276743Y-98827233D01*
X203274803Y-98827293D01*
X189490736Y-99325634D01*
X189485767Y-99325840D01*
X175707674Y-99968498D01*
X175702707Y-99968756D01*
X161932100Y-100755660D01*
X161927135Y-100755969D01*
X148185851Y-101685657D01*
X146454112Y-101654113D01*
X144732057Y-101471795D01*
X143032445Y-101140083D01*
X141368199Y-100661499D01*
X139747268Y-100037868D01*
X138948095Y-99668268D01*
X137182160Y-98768504D01*
X137167878Y-98761844D01*
X137153560Y-98755110D01*
X135131553Y-97888925D01*
X135131539Y-97888919D01*
X135112488Y-97881534D01*
X135100627Y-97876936D01*
X135100618Y-97876933D01*
X133023108Y-97153906D01*
X132991435Y-97144108D01*
X132991428Y-97144106D01*
X130868543Y-96567759D01*
X130836263Y-96560194D01*
X128678337Y-96133334D01*
X128645608Y-96128039D01*
X126463163Y-95852749D01*
X126430144Y-95849751D01*
X124233812Y-95727370D01*
X124200665Y-95726681D01*
X124200637Y-95726682D01*
X122001146Y-95757809D01*
X122001145Y-95757809D01*
X121968031Y-95759434D01*
X119776041Y-95943915D01*
X119743121Y-95947847D01*
X117569340Y-96284784D01*
X117536774Y-96291003D01*
X115391791Y-96778755D01*
X115359738Y-96787230D01*
X113254012Y-97423418D01*
X113254004Y-97423420D01*
X113222621Y-97434110D01*
X111166395Y-98215638D01*
X111148832Y-98223025D01*
X111135833Y-98228492D01*
X109139133Y-99151553D01*
X109109543Y-99166507D01*
X107182096Y-100226601D01*
X107181181Y-100227147D01*
X107164796Y-100236596D01*
X106130116Y-100863737D01*
X106124326Y-100867422D01*
X106118450Y-100871041D01*
X103022251Y-102872616D01*
X103022230Y-102872629D01*
X103015300Y-102877326D01*
X103005076Y-102884256D01*
X103005046Y-102884278D01*
X99999110Y-105018995D01*
X99982479Y-105031360D01*
X97082638Y-107287290D01*
X96256773Y-107860879D01*
X95374560Y-108292709D01*
X94437175Y-108586129D01*
X93466201Y-108734381D01*
X92483970Y-108734058D01*
X91513084Y-108585163D01*
X90575899Y-108291128D01*
X89692170Y-107857832D01*
X88971153Y-107365321D01*
X88039487Y-106536595D01*
X87211288Y-105598727D01*
X86631295Y-104775335D01*
X86399839Y-104288431D01*
X86293546Y-103771744D01*
X86299966Y-103357342D01*
X86422214Y-102844197D01*
X86660862Y-102379838D01*
X87004162Y-101984917D01*
X87429728Y-101681594D01*
X90777774Y-99926899D01*
X94216713Y-98304344D01*
X97720595Y-96827216D01*
X101283255Y-95498110D01*
X103836125Y-94665734D01*
X172875000Y-94665734D01*
X172875000Y-94934266D01*
X172977763Y-95182357D01*
X173100001Y-95304595D01*
X173100000Y-96545406D01*
X172977763Y-96667643D01*
X172875000Y-96915734D01*
X172875000Y-97184266D01*
X172977763Y-97432357D01*
X173167643Y-97622237D01*
X173415734Y-97725000D01*
X173684266Y-97725000D01*
X173932357Y-97622237D01*
X174122237Y-97432357D01*
X174225000Y-97184266D01*
X174225000Y-96915734D01*
X174122237Y-96667643D01*
X174000000Y-96545406D01*
X174000000Y-95304594D01*
X174122237Y-95182357D01*
X174225000Y-94934266D01*
X174225000Y-94665734D01*
X174122237Y-94417643D01*
X173932357Y-94227763D01*
X173684266Y-94125000D01*
X173415734Y-94125000D01*
X173167643Y-94227763D01*
X172977763Y-94417643D01*
X172875000Y-94665734D01*
X103836125Y-94665734D01*
X104898443Y-94319360D01*
X108559837Y-93293029D01*
X112260952Y-92420932D01*
X115995386Y-91704577D01*
X119756524Y-91145236D01*
X123541112Y-90743533D01*
X124791959Y-90645946D01*
X134975231Y-90108615D01*
X145167618Y-89713415D01*
X155364598Y-89460561D01*
X165564040Y-89350104D01*
X175764103Y-89382065D01*
G04 #@! TD*
M02*
