G04 #@! TF.GenerationSoftware,KiCad,Pcbnew,(5.0.1)-3*
G04 #@! TF.CreationDate,2021-05-06T18:47:49+10:00*
G04 #@! TF.ProjectId,LED Right Glasses Arm (power),4C454420526967687420476C61737365,rev?*
G04 #@! TF.SameCoordinates,Original*
G04 #@! TF.FileFunction,Legend,Top*
G04 #@! TF.FilePolarity,Positive*
%FSLAX46Y46*%
G04 Gerber Fmt 4.6, Leading zero omitted, Abs format (unit mm)*
G04 Created by KiCad (PCBNEW (5.0.1)-3) date 6/05/2021 6:47:49 PM*
%MOMM*%
%LPD*%
G01*
G04 APERTURE LIST*
%ADD10C,0.400000*%
%ADD11C,0.200000*%
%ADD12C,0.120000*%
%ADD13C,0.100000*%
%ADD14C,0.150000*%
G04 APERTURE END LIST*
D10*
X98377828Y-97862396D02*
X99747419Y-97194402D01*
X99396621Y-98213194D02*
X98728627Y-96843603D01*
X210027336Y-91362433D02*
X211542798Y-91521715D01*
X210705426Y-92199805D02*
X210864708Y-90684343D01*
D11*
X133523809Y-96757142D02*
X133476190Y-96804761D01*
X133333333Y-96852380D01*
X133238095Y-96852380D01*
X133095238Y-96804761D01*
X133000000Y-96709523D01*
X132952380Y-96614285D01*
X132904761Y-96423809D01*
X132904761Y-96280952D01*
X132952380Y-96090476D01*
X133000000Y-95995238D01*
X133095238Y-95900000D01*
X133238095Y-95852380D01*
X133333333Y-95852380D01*
X133476190Y-95900000D01*
X133523809Y-95947619D01*
X133809523Y-95852380D02*
X134380952Y-95852380D01*
X134095238Y-96852380D02*
X134095238Y-95852380D01*
X135285714Y-96852380D02*
X134952380Y-96376190D01*
X134714285Y-96852380D02*
X134714285Y-95852380D01*
X135095238Y-95852380D01*
X135190476Y-95900000D01*
X135238095Y-95947619D01*
X135285714Y-96042857D01*
X135285714Y-96185714D01*
X135238095Y-96280952D01*
X135190476Y-96328571D01*
X135095238Y-96376190D01*
X134714285Y-96376190D01*
X136190476Y-96852380D02*
X135714285Y-96852380D01*
X135714285Y-95852380D01*
X149123809Y-90352380D02*
X149457142Y-91352380D01*
X149790476Y-90352380D01*
X150695238Y-91257142D02*
X150647619Y-91304761D01*
X150504761Y-91352380D01*
X150409523Y-91352380D01*
X150266666Y-91304761D01*
X150171428Y-91209523D01*
X150123809Y-91114285D01*
X150076190Y-90923809D01*
X150076190Y-90780952D01*
X150123809Y-90590476D01*
X150171428Y-90495238D01*
X150266666Y-90400000D01*
X150409523Y-90352380D01*
X150504761Y-90352380D01*
X150647619Y-90400000D01*
X150695238Y-90447619D01*
X151695238Y-91257142D02*
X151647619Y-91304761D01*
X151504761Y-91352380D01*
X151409523Y-91352380D01*
X151266666Y-91304761D01*
X151171428Y-91209523D01*
X151123809Y-91114285D01*
X151076190Y-90923809D01*
X151076190Y-90780952D01*
X151123809Y-90590476D01*
X151171428Y-90495238D01*
X151266666Y-90400000D01*
X151409523Y-90352380D01*
X151504761Y-90352380D01*
X151647619Y-90400000D01*
X151695238Y-90447619D01*
X151885714Y-91447619D02*
X152647619Y-91447619D01*
X152885714Y-91352380D02*
X152885714Y-90352380D01*
X153361904Y-91352380D02*
X153361904Y-90352380D01*
X153933333Y-91352380D01*
X153933333Y-90352380D01*
X178138095Y-97971428D02*
X178900000Y-97971428D01*
X178519047Y-98352380D02*
X178519047Y-97590476D01*
X179852380Y-97352380D02*
X179376190Y-97352380D01*
X179328571Y-97828571D01*
X179376190Y-97780952D01*
X179471428Y-97733333D01*
X179709523Y-97733333D01*
X179804761Y-97780952D01*
X179852380Y-97828571D01*
X179900000Y-97923809D01*
X179900000Y-98161904D01*
X179852380Y-98257142D01*
X179804761Y-98304761D01*
X179709523Y-98352380D01*
X179471428Y-98352380D01*
X179376190Y-98304761D01*
X179328571Y-98257142D01*
X180185714Y-97352380D02*
X180519047Y-98352380D01*
X180852380Y-97352380D01*
X181376190Y-97352380D02*
X181471428Y-97352380D01*
X181566666Y-97400000D01*
X181614285Y-97447619D01*
X181661904Y-97542857D01*
X181709523Y-97733333D01*
X181709523Y-97971428D01*
X181661904Y-98161904D01*
X181614285Y-98257142D01*
X181566666Y-98304761D01*
X181471428Y-98352380D01*
X181376190Y-98352380D01*
X181280952Y-98304761D01*
X181233333Y-98257142D01*
X181185714Y-98161904D01*
X181138095Y-97971428D01*
X181138095Y-97733333D01*
X181185714Y-97542857D01*
X181233333Y-97447619D01*
X181280952Y-97400000D01*
X181376190Y-97352380D01*
X174138095Y-91252380D02*
X174138095Y-90252380D01*
X174519047Y-90252380D01*
X174614285Y-90300000D01*
X174661904Y-90347619D01*
X174709523Y-90442857D01*
X174709523Y-90585714D01*
X174661904Y-90680952D01*
X174614285Y-90728571D01*
X174519047Y-90776190D01*
X174138095Y-90776190D01*
X175661904Y-90300000D02*
X175566666Y-90252380D01*
X175423809Y-90252380D01*
X175280952Y-90300000D01*
X175185714Y-90395238D01*
X175138095Y-90490476D01*
X175090476Y-90680952D01*
X175090476Y-90823809D01*
X175138095Y-91014285D01*
X175185714Y-91109523D01*
X175280952Y-91204761D01*
X175423809Y-91252380D01*
X175519047Y-91252380D01*
X175661904Y-91204761D01*
X175709523Y-91157142D01*
X175709523Y-90823809D01*
X175519047Y-90823809D01*
X166138095Y-90550000D02*
X166042857Y-90502380D01*
X165900000Y-90502380D01*
X165757142Y-90550000D01*
X165661904Y-90645238D01*
X165614285Y-90740476D01*
X165566666Y-90930952D01*
X165566666Y-91073809D01*
X165614285Y-91264285D01*
X165661904Y-91359523D01*
X165757142Y-91454761D01*
X165900000Y-91502380D01*
X165995238Y-91502380D01*
X166138095Y-91454761D01*
X166185714Y-91407142D01*
X166185714Y-91073809D01*
X165995238Y-91073809D01*
X166614285Y-91502380D02*
X166614285Y-90502380D01*
X167185714Y-91502380D01*
X167185714Y-90502380D01*
X167661904Y-91502380D02*
X167661904Y-90502380D01*
X167900000Y-90502380D01*
X168042857Y-90550000D01*
X168138095Y-90645238D01*
X168185714Y-90740476D01*
X168233333Y-90930952D01*
X168233333Y-91073809D01*
X168185714Y-91264285D01*
X168138095Y-91359523D01*
X168042857Y-91454761D01*
X167900000Y-91502380D01*
X167661904Y-91502380D01*
D10*
X209327336Y-97462433D02*
X210842798Y-97621715D01*
D11*
X204314251Y-94147496D02*
X205071982Y-94227137D01*
X204653296Y-94566182D02*
X204732937Y-93808451D01*
X206083854Y-93711032D02*
X205610272Y-93661256D01*
X205513138Y-94129860D01*
X205565474Y-94087480D01*
X205665168Y-94050077D01*
X205901959Y-94074964D01*
X205991698Y-94132278D01*
X206034078Y-94184613D01*
X206071482Y-94284307D01*
X206046594Y-94521098D01*
X205989281Y-94610837D01*
X205936945Y-94653218D01*
X205837251Y-94690621D01*
X205600460Y-94665733D01*
X205510721Y-94608420D01*
X205468340Y-94556084D01*
X206415361Y-93745874D02*
X206642340Y-94775239D01*
X207078376Y-93815560D01*
X208357047Y-93949954D02*
X208546480Y-93969864D01*
X208636218Y-94027177D01*
X208720980Y-94131849D01*
X208748428Y-94326259D01*
X208713585Y-94657766D01*
X208646316Y-94842221D01*
X208541645Y-94926983D01*
X208441951Y-94964386D01*
X208252518Y-94944476D01*
X208162780Y-94887162D01*
X208078018Y-94782491D01*
X208050570Y-94588081D01*
X208085413Y-94256573D01*
X208152681Y-94072118D01*
X208257353Y-93987357D01*
X208357047Y-93949954D01*
X209209494Y-94039550D02*
X209124876Y-94844639D01*
X209162279Y-94944333D01*
X209204660Y-94996668D01*
X209294398Y-95053982D01*
X209483831Y-95073892D01*
X209583525Y-95036489D01*
X209635861Y-94994108D01*
X209693174Y-94904369D01*
X209777792Y-94099280D01*
X210109300Y-94134123D02*
X210677598Y-94193853D01*
X210288920Y-95158510D02*
X210393449Y-94163988D01*
D10*
X100477828Y-103462396D02*
X101847419Y-102794402D01*
D11*
X100536136Y-100117684D02*
X101220931Y-99783687D01*
X101045532Y-100293083D02*
X100711535Y-99608287D01*
X101291956Y-99060292D02*
X101848352Y-98788919D01*
X101715753Y-99277441D01*
X101844152Y-99214816D01*
X101950626Y-99215866D01*
X102014301Y-99237791D01*
X102098850Y-99302516D01*
X102203224Y-99516514D01*
X102202174Y-99622989D01*
X102180249Y-99686663D01*
X102115525Y-99771212D01*
X101858726Y-99896461D01*
X101752252Y-99895411D01*
X101688578Y-99873486D01*
X102504922Y-99157442D02*
X103189718Y-98823445D01*
X104255511Y-98727472D02*
X103741914Y-98977969D01*
X103998712Y-98852721D02*
X103560341Y-97953926D01*
X103537366Y-98124075D01*
X103493516Y-98251424D01*
X103428792Y-98335974D01*
X104201287Y-97747278D02*
X104223212Y-97683604D01*
X104287936Y-97599055D01*
X104501935Y-97494681D01*
X104608409Y-97495731D01*
X104672084Y-97517655D01*
X104756633Y-97582380D01*
X104798383Y-97667980D01*
X104818207Y-97817254D01*
X104555109Y-98581348D01*
X105111505Y-98309975D01*
X104929932Y-97285932D02*
X105667901Y-98038603D01*
X105529128Y-96993685D01*
X106951893Y-97412358D02*
X106513522Y-96513564D01*
X107379890Y-97203610D02*
X106941519Y-96304816D01*
X107893486Y-96953112D01*
X107455115Y-96054318D01*
D12*
G04 #@! TO.C,C101*
X157290000Y-97741422D02*
X157290000Y-98258578D01*
X158710000Y-97741422D02*
X158710000Y-98258578D01*
G04 #@! TO.C,C102*
X165290000Y-95258578D02*
X165290000Y-94741422D01*
X166710000Y-95258578D02*
X166710000Y-94741422D01*
G04 #@! TO.C,C103*
X169710000Y-95258578D02*
X169710000Y-94741422D01*
X168290000Y-95258578D02*
X168290000Y-94741422D01*
G04 #@! TO.C,C104*
X171290000Y-95258578D02*
X171290000Y-94741422D01*
X172710000Y-95258578D02*
X172710000Y-94741422D01*
G04 #@! TO.C,C105*
X166741422Y-99710000D02*
X167258578Y-99710000D01*
X166741422Y-98290000D02*
X167258578Y-98290000D01*
G04 #@! TO.C,D101*
X138850000Y-91500000D02*
X138850000Y-94050000D01*
X137150000Y-91500000D02*
X137150000Y-94050000D01*
X138850000Y-91500000D02*
X137150000Y-91500000D01*
G04 #@! TO.C,L101*
X157550000Y-94550000D02*
X164450000Y-94550000D01*
X157550000Y-89450000D02*
X164450000Y-89450000D01*
G04 #@! TO.C,D102*
X182040000Y-91315000D02*
X182040000Y-94000000D01*
X183960000Y-91315000D02*
X182040000Y-91315000D01*
X183960000Y-94000000D02*
X183960000Y-91315000D01*
G04 #@! TO.C,U101*
X160350000Y-99650000D02*
X160350000Y-99400000D01*
X163650000Y-99400000D02*
X163650000Y-99650000D01*
X163650000Y-96600000D02*
X163650000Y-96350000D01*
X160350000Y-99650000D02*
X161015000Y-99650000D01*
X162985000Y-96350000D02*
X163650000Y-96350000D01*
X160350000Y-96350000D02*
X161015000Y-96350000D01*
X162985000Y-99650000D02*
X163650000Y-99650000D01*
G04 #@! TO.C,Q102*
X180580000Y-92240000D02*
X179650000Y-92240000D01*
X177420000Y-92240000D02*
X178350000Y-92240000D01*
X177420000Y-92240000D02*
X177420000Y-94400000D01*
X180580000Y-92240000D02*
X180580000Y-93700000D01*
G04 #@! TO.C,Q101*
X132420000Y-93760000D02*
X132420000Y-92300000D01*
X135580000Y-93760000D02*
X135580000Y-91600000D01*
X135580000Y-93760000D02*
X134650000Y-93760000D01*
X132420000Y-93760000D02*
X133350000Y-93760000D01*
G04 #@! TO.C,R101*
X141710000Y-94741422D02*
X141710000Y-95258578D01*
X140290000Y-94741422D02*
X140290000Y-95258578D01*
G04 #@! TO.C,R102*
X154290000Y-98741422D02*
X154290000Y-99258578D01*
X155710000Y-98741422D02*
X155710000Y-99258578D01*
G04 #@! TO.C,R103*
X174290000Y-93258578D02*
X174290000Y-92741422D01*
X175710000Y-93258578D02*
X175710000Y-92741422D01*
G04 #@! TO.C,R104*
X185290000Y-92741422D02*
X185290000Y-93258578D01*
X186710000Y-92741422D02*
X186710000Y-93258578D01*
G04 #@! TO.C,F101*
X129090000Y-92397936D02*
X129090000Y-93602064D01*
X130910000Y-92397936D02*
X130910000Y-93602064D01*
G04 #@! TO.C,TP101*
X170150000Y-90950000D02*
G75*
G03X170150000Y-90950000I-700000J0D01*
G01*
G04 #@! TO.C,TP102*
X177650000Y-98000000D02*
G75*
G03X177650000Y-98000000I-700000J0D01*
G01*
G04 #@! TO.C,TP103*
X156100000Y-90900000D02*
G75*
G03X156100000Y-90900000I-700000J0D01*
G01*
G04 #@! TO.C,TP104*
X177700000Y-90750000D02*
G75*
G03X177700000Y-90750000I-700000J0D01*
G01*
G04 #@! TO.C,TP105*
X138250000Y-96250000D02*
G75*
G03X138250000Y-96250000I-700000J0D01*
G01*
G04 #@! TO.C,J101*
X89599149Y-102731176D02*
X91650727Y-106937531D01*
X97548086Y-104840019D02*
X96986970Y-103689563D01*
X98986157Y-104138625D02*
X97548086Y-104840019D01*
X99433295Y-105055395D02*
X98986157Y-104138625D01*
X95613420Y-106918473D02*
X99433295Y-105055395D01*
X95443905Y-100525808D02*
X98041419Y-99258915D01*
X94882790Y-99375351D02*
X95443905Y-100525808D01*
X96320860Y-98673958D02*
X94882790Y-99375351D01*
X95873721Y-97757188D02*
X96320860Y-98673958D01*
X92053847Y-99620265D02*
X95873721Y-97757188D01*
D13*
G04 #@! TO.C,SW101*
X143375000Y-98925000D02*
X143375000Y-98550000D01*
X143775000Y-98925000D02*
X143375000Y-98925000D01*
X143375000Y-95075000D02*
X143725000Y-95075000D01*
X143375000Y-95450000D02*
X143375000Y-95075000D01*
X152625000Y-98925000D02*
X152625000Y-98525000D01*
X152150000Y-98925000D02*
X152625000Y-98925000D01*
X151175000Y-95075000D02*
X151175000Y-94025000D01*
X152275000Y-95075000D02*
X151175000Y-95075000D01*
X152625000Y-95450000D02*
X152275000Y-95075000D01*
D14*
G04 #@! TO.C,J103*
X215411064Y-95889494D02*
X211875863Y-95505449D01*
X215301336Y-96899552D02*
X215411064Y-95889494D01*
X211766136Y-96515506D02*
X215301336Y-96899552D01*
X211875863Y-95505449D02*
X211766136Y-96515506D01*
G04 #@! TO.C,J102*
X215817464Y-93070094D02*
X212282263Y-92686049D01*
X215707736Y-94080152D02*
X215817464Y-93070094D01*
X212172536Y-93696106D02*
X215707736Y-94080152D01*
X212282263Y-92686049D02*
X212172536Y-93696106D01*
G04 #@! TO.C,C101*
D11*
X156857142Y-100119047D02*
X156904761Y-100166666D01*
X156952380Y-100309523D01*
X156952380Y-100404761D01*
X156904761Y-100547619D01*
X156809523Y-100642857D01*
X156714285Y-100690476D01*
X156523809Y-100738095D01*
X156380952Y-100738095D01*
X156190476Y-100690476D01*
X156095238Y-100642857D01*
X156000000Y-100547619D01*
X155952380Y-100404761D01*
X155952380Y-100309523D01*
X156000000Y-100166666D01*
X156047619Y-100119047D01*
X156952380Y-99166666D02*
X156952380Y-99738095D01*
X156952380Y-99452380D02*
X155952380Y-99452380D01*
X156095238Y-99547619D01*
X156190476Y-99642857D01*
X156238095Y-99738095D01*
X155952380Y-98547619D02*
X155952380Y-98452380D01*
X156000000Y-98357142D01*
X156047619Y-98309523D01*
X156142857Y-98261904D01*
X156333333Y-98214285D01*
X156571428Y-98214285D01*
X156761904Y-98261904D01*
X156857142Y-98309523D01*
X156904761Y-98357142D01*
X156952380Y-98452380D01*
X156952380Y-98547619D01*
X156904761Y-98642857D01*
X156857142Y-98690476D01*
X156761904Y-98738095D01*
X156571428Y-98785714D01*
X156333333Y-98785714D01*
X156142857Y-98738095D01*
X156047619Y-98690476D01*
X156000000Y-98642857D01*
X155952380Y-98547619D01*
X156952380Y-97261904D02*
X156952380Y-97833333D01*
X156952380Y-97547619D02*
X155952380Y-97547619D01*
X156095238Y-97642857D01*
X156190476Y-97738095D01*
X156238095Y-97833333D01*
G04 #@! TO.C,C102*
X167857142Y-96119047D02*
X167904761Y-96166666D01*
X167952380Y-96309523D01*
X167952380Y-96404761D01*
X167904761Y-96547619D01*
X167809523Y-96642857D01*
X167714285Y-96690476D01*
X167523809Y-96738095D01*
X167380952Y-96738095D01*
X167190476Y-96690476D01*
X167095238Y-96642857D01*
X167000000Y-96547619D01*
X166952380Y-96404761D01*
X166952380Y-96309523D01*
X167000000Y-96166666D01*
X167047619Y-96119047D01*
X167952380Y-95166666D02*
X167952380Y-95738095D01*
X167952380Y-95452380D02*
X166952380Y-95452380D01*
X167095238Y-95547619D01*
X167190476Y-95642857D01*
X167238095Y-95738095D01*
X166952380Y-94547619D02*
X166952380Y-94452380D01*
X167000000Y-94357142D01*
X167047619Y-94309523D01*
X167142857Y-94261904D01*
X167333333Y-94214285D01*
X167571428Y-94214285D01*
X167761904Y-94261904D01*
X167857142Y-94309523D01*
X167904761Y-94357142D01*
X167952380Y-94452380D01*
X167952380Y-94547619D01*
X167904761Y-94642857D01*
X167857142Y-94690476D01*
X167761904Y-94738095D01*
X167571428Y-94785714D01*
X167333333Y-94785714D01*
X167142857Y-94738095D01*
X167047619Y-94690476D01*
X167000000Y-94642857D01*
X166952380Y-94547619D01*
X167047619Y-93833333D02*
X167000000Y-93785714D01*
X166952380Y-93690476D01*
X166952380Y-93452380D01*
X167000000Y-93357142D01*
X167047619Y-93309523D01*
X167142857Y-93261904D01*
X167238095Y-93261904D01*
X167380952Y-93309523D01*
X167952380Y-93880952D01*
X167952380Y-93261904D01*
G04 #@! TO.C,C103*
X170857142Y-96119047D02*
X170904761Y-96166666D01*
X170952380Y-96309523D01*
X170952380Y-96404761D01*
X170904761Y-96547619D01*
X170809523Y-96642857D01*
X170714285Y-96690476D01*
X170523809Y-96738095D01*
X170380952Y-96738095D01*
X170190476Y-96690476D01*
X170095238Y-96642857D01*
X170000000Y-96547619D01*
X169952380Y-96404761D01*
X169952380Y-96309523D01*
X170000000Y-96166666D01*
X170047619Y-96119047D01*
X170952380Y-95166666D02*
X170952380Y-95738095D01*
X170952380Y-95452380D02*
X169952380Y-95452380D01*
X170095238Y-95547619D01*
X170190476Y-95642857D01*
X170238095Y-95738095D01*
X169952380Y-94547619D02*
X169952380Y-94452380D01*
X170000000Y-94357142D01*
X170047619Y-94309523D01*
X170142857Y-94261904D01*
X170333333Y-94214285D01*
X170571428Y-94214285D01*
X170761904Y-94261904D01*
X170857142Y-94309523D01*
X170904761Y-94357142D01*
X170952380Y-94452380D01*
X170952380Y-94547619D01*
X170904761Y-94642857D01*
X170857142Y-94690476D01*
X170761904Y-94738095D01*
X170571428Y-94785714D01*
X170333333Y-94785714D01*
X170142857Y-94738095D01*
X170047619Y-94690476D01*
X170000000Y-94642857D01*
X169952380Y-94547619D01*
X169952380Y-93880952D02*
X169952380Y-93261904D01*
X170333333Y-93595238D01*
X170333333Y-93452380D01*
X170380952Y-93357142D01*
X170428571Y-93309523D01*
X170523809Y-93261904D01*
X170761904Y-93261904D01*
X170857142Y-93309523D01*
X170904761Y-93357142D01*
X170952380Y-93452380D01*
X170952380Y-93738095D01*
X170904761Y-93833333D01*
X170857142Y-93880952D01*
G04 #@! TO.C,C104*
X173857142Y-96119047D02*
X173904761Y-96166666D01*
X173952380Y-96309523D01*
X173952380Y-96404761D01*
X173904761Y-96547619D01*
X173809523Y-96642857D01*
X173714285Y-96690476D01*
X173523809Y-96738095D01*
X173380952Y-96738095D01*
X173190476Y-96690476D01*
X173095238Y-96642857D01*
X173000000Y-96547619D01*
X172952380Y-96404761D01*
X172952380Y-96309523D01*
X173000000Y-96166666D01*
X173047619Y-96119047D01*
X173952380Y-95166666D02*
X173952380Y-95738095D01*
X173952380Y-95452380D02*
X172952380Y-95452380D01*
X173095238Y-95547619D01*
X173190476Y-95642857D01*
X173238095Y-95738095D01*
X172952380Y-94547619D02*
X172952380Y-94452380D01*
X173000000Y-94357142D01*
X173047619Y-94309523D01*
X173142857Y-94261904D01*
X173333333Y-94214285D01*
X173571428Y-94214285D01*
X173761904Y-94261904D01*
X173857142Y-94309523D01*
X173904761Y-94357142D01*
X173952380Y-94452380D01*
X173952380Y-94547619D01*
X173904761Y-94642857D01*
X173857142Y-94690476D01*
X173761904Y-94738095D01*
X173571428Y-94785714D01*
X173333333Y-94785714D01*
X173142857Y-94738095D01*
X173047619Y-94690476D01*
X173000000Y-94642857D01*
X172952380Y-94547619D01*
X173285714Y-93357142D02*
X173952380Y-93357142D01*
X172904761Y-93595238D02*
X173619047Y-93833333D01*
X173619047Y-93214285D01*
G04 #@! TO.C,C105*
X169880952Y-99357142D02*
X169833333Y-99404761D01*
X169690476Y-99452380D01*
X169595238Y-99452380D01*
X169452380Y-99404761D01*
X169357142Y-99309523D01*
X169309523Y-99214285D01*
X169261904Y-99023809D01*
X169261904Y-98880952D01*
X169309523Y-98690476D01*
X169357142Y-98595238D01*
X169452380Y-98500000D01*
X169595238Y-98452380D01*
X169690476Y-98452380D01*
X169833333Y-98500000D01*
X169880952Y-98547619D01*
X170833333Y-99452380D02*
X170261904Y-99452380D01*
X170547619Y-99452380D02*
X170547619Y-98452380D01*
X170452380Y-98595238D01*
X170357142Y-98690476D01*
X170261904Y-98738095D01*
X171452380Y-98452380D02*
X171547619Y-98452380D01*
X171642857Y-98500000D01*
X171690476Y-98547619D01*
X171738095Y-98642857D01*
X171785714Y-98833333D01*
X171785714Y-99071428D01*
X171738095Y-99261904D01*
X171690476Y-99357142D01*
X171642857Y-99404761D01*
X171547619Y-99452380D01*
X171452380Y-99452380D01*
X171357142Y-99404761D01*
X171309523Y-99357142D01*
X171261904Y-99261904D01*
X171214285Y-99071428D01*
X171214285Y-98833333D01*
X171261904Y-98642857D01*
X171309523Y-98547619D01*
X171357142Y-98500000D01*
X171452380Y-98452380D01*
X172690476Y-98452380D02*
X172214285Y-98452380D01*
X172166666Y-98928571D01*
X172214285Y-98880952D01*
X172309523Y-98833333D01*
X172547619Y-98833333D01*
X172642857Y-98880952D01*
X172690476Y-98928571D01*
X172738095Y-99023809D01*
X172738095Y-99261904D01*
X172690476Y-99357142D01*
X172642857Y-99404761D01*
X172547619Y-99452380D01*
X172309523Y-99452380D01*
X172214285Y-99404761D01*
X172166666Y-99357142D01*
G04 #@! TO.C,D101*
X136309523Y-90952380D02*
X136309523Y-89952380D01*
X136547619Y-89952380D01*
X136690476Y-90000000D01*
X136785714Y-90095238D01*
X136833333Y-90190476D01*
X136880952Y-90380952D01*
X136880952Y-90523809D01*
X136833333Y-90714285D01*
X136785714Y-90809523D01*
X136690476Y-90904761D01*
X136547619Y-90952380D01*
X136309523Y-90952380D01*
X137833333Y-90952380D02*
X137261904Y-90952380D01*
X137547619Y-90952380D02*
X137547619Y-89952380D01*
X137452380Y-90095238D01*
X137357142Y-90190476D01*
X137261904Y-90238095D01*
X138452380Y-89952380D02*
X138547619Y-89952380D01*
X138642857Y-90000000D01*
X138690476Y-90047619D01*
X138738095Y-90142857D01*
X138785714Y-90333333D01*
X138785714Y-90571428D01*
X138738095Y-90761904D01*
X138690476Y-90857142D01*
X138642857Y-90904761D01*
X138547619Y-90952380D01*
X138452380Y-90952380D01*
X138357142Y-90904761D01*
X138309523Y-90857142D01*
X138261904Y-90761904D01*
X138214285Y-90571428D01*
X138214285Y-90333333D01*
X138261904Y-90142857D01*
X138309523Y-90047619D01*
X138357142Y-90000000D01*
X138452380Y-89952380D01*
X139738095Y-90952380D02*
X139166666Y-90952380D01*
X139452380Y-90952380D02*
X139452380Y-89952380D01*
X139357142Y-90095238D01*
X139261904Y-90190476D01*
X139166666Y-90238095D01*
G04 #@! TO.C,D102*
X181309523Y-90952380D02*
X181309523Y-89952380D01*
X181547619Y-89952380D01*
X181690476Y-90000000D01*
X181785714Y-90095238D01*
X181833333Y-90190476D01*
X181880952Y-90380952D01*
X181880952Y-90523809D01*
X181833333Y-90714285D01*
X181785714Y-90809523D01*
X181690476Y-90904761D01*
X181547619Y-90952380D01*
X181309523Y-90952380D01*
X182833333Y-90952380D02*
X182261904Y-90952380D01*
X182547619Y-90952380D02*
X182547619Y-89952380D01*
X182452380Y-90095238D01*
X182357142Y-90190476D01*
X182261904Y-90238095D01*
X183452380Y-89952380D02*
X183547619Y-89952380D01*
X183642857Y-90000000D01*
X183690476Y-90047619D01*
X183738095Y-90142857D01*
X183785714Y-90333333D01*
X183785714Y-90571428D01*
X183738095Y-90761904D01*
X183690476Y-90857142D01*
X183642857Y-90904761D01*
X183547619Y-90952380D01*
X183452380Y-90952380D01*
X183357142Y-90904761D01*
X183309523Y-90857142D01*
X183261904Y-90761904D01*
X183214285Y-90571428D01*
X183214285Y-90333333D01*
X183261904Y-90142857D01*
X183309523Y-90047619D01*
X183357142Y-90000000D01*
X183452380Y-89952380D01*
X184166666Y-90047619D02*
X184214285Y-90000000D01*
X184309523Y-89952380D01*
X184547619Y-89952380D01*
X184642857Y-90000000D01*
X184690476Y-90047619D01*
X184738095Y-90142857D01*
X184738095Y-90238095D01*
X184690476Y-90380952D01*
X184119047Y-90952380D01*
X184738095Y-90952380D01*
G04 #@! TO.C,R101*
X142952380Y-96119047D02*
X142476190Y-96452380D01*
X142952380Y-96690476D02*
X141952380Y-96690476D01*
X141952380Y-96309523D01*
X142000000Y-96214285D01*
X142047619Y-96166666D01*
X142142857Y-96119047D01*
X142285714Y-96119047D01*
X142380952Y-96166666D01*
X142428571Y-96214285D01*
X142476190Y-96309523D01*
X142476190Y-96690476D01*
X142952380Y-95166666D02*
X142952380Y-95738095D01*
X142952380Y-95452380D02*
X141952380Y-95452380D01*
X142095238Y-95547619D01*
X142190476Y-95642857D01*
X142238095Y-95738095D01*
X141952380Y-94547619D02*
X141952380Y-94452380D01*
X142000000Y-94357142D01*
X142047619Y-94309523D01*
X142142857Y-94261904D01*
X142333333Y-94214285D01*
X142571428Y-94214285D01*
X142761904Y-94261904D01*
X142857142Y-94309523D01*
X142904761Y-94357142D01*
X142952380Y-94452380D01*
X142952380Y-94547619D01*
X142904761Y-94642857D01*
X142857142Y-94690476D01*
X142761904Y-94738095D01*
X142571428Y-94785714D01*
X142333333Y-94785714D01*
X142142857Y-94738095D01*
X142047619Y-94690476D01*
X142000000Y-94642857D01*
X141952380Y-94547619D01*
X142952380Y-93261904D02*
X142952380Y-93833333D01*
X142952380Y-93547619D02*
X141952380Y-93547619D01*
X142095238Y-93642857D01*
X142190476Y-93738095D01*
X142238095Y-93833333D01*
G04 #@! TO.C,R102*
X153952380Y-100119047D02*
X153476190Y-100452380D01*
X153952380Y-100690476D02*
X152952380Y-100690476D01*
X152952380Y-100309523D01*
X153000000Y-100214285D01*
X153047619Y-100166666D01*
X153142857Y-100119047D01*
X153285714Y-100119047D01*
X153380952Y-100166666D01*
X153428571Y-100214285D01*
X153476190Y-100309523D01*
X153476190Y-100690476D01*
X153952380Y-99166666D02*
X153952380Y-99738095D01*
X153952380Y-99452380D02*
X152952380Y-99452380D01*
X153095238Y-99547619D01*
X153190476Y-99642857D01*
X153238095Y-99738095D01*
X152952380Y-98547619D02*
X152952380Y-98452380D01*
X153000000Y-98357142D01*
X153047619Y-98309523D01*
X153142857Y-98261904D01*
X153333333Y-98214285D01*
X153571428Y-98214285D01*
X153761904Y-98261904D01*
X153857142Y-98309523D01*
X153904761Y-98357142D01*
X153952380Y-98452380D01*
X153952380Y-98547619D01*
X153904761Y-98642857D01*
X153857142Y-98690476D01*
X153761904Y-98738095D01*
X153571428Y-98785714D01*
X153333333Y-98785714D01*
X153142857Y-98738095D01*
X153047619Y-98690476D01*
X153000000Y-98642857D01*
X152952380Y-98547619D01*
X153047619Y-97833333D02*
X153000000Y-97785714D01*
X152952380Y-97690476D01*
X152952380Y-97452380D01*
X153000000Y-97357142D01*
X153047619Y-97309523D01*
X153142857Y-97261904D01*
X153238095Y-97261904D01*
X153380952Y-97309523D01*
X153952380Y-97880952D01*
X153952380Y-97261904D01*
G04 #@! TO.C,R103*
X176952380Y-96119047D02*
X176476190Y-96452380D01*
X176952380Y-96690476D02*
X175952380Y-96690476D01*
X175952380Y-96309523D01*
X176000000Y-96214285D01*
X176047619Y-96166666D01*
X176142857Y-96119047D01*
X176285714Y-96119047D01*
X176380952Y-96166666D01*
X176428571Y-96214285D01*
X176476190Y-96309523D01*
X176476190Y-96690476D01*
X176952380Y-95166666D02*
X176952380Y-95738095D01*
X176952380Y-95452380D02*
X175952380Y-95452380D01*
X176095238Y-95547619D01*
X176190476Y-95642857D01*
X176238095Y-95738095D01*
X175952380Y-94547619D02*
X175952380Y-94452380D01*
X176000000Y-94357142D01*
X176047619Y-94309523D01*
X176142857Y-94261904D01*
X176333333Y-94214285D01*
X176571428Y-94214285D01*
X176761904Y-94261904D01*
X176857142Y-94309523D01*
X176904761Y-94357142D01*
X176952380Y-94452380D01*
X176952380Y-94547619D01*
X176904761Y-94642857D01*
X176857142Y-94690476D01*
X176761904Y-94738095D01*
X176571428Y-94785714D01*
X176333333Y-94785714D01*
X176142857Y-94738095D01*
X176047619Y-94690476D01*
X176000000Y-94642857D01*
X175952380Y-94547619D01*
X175952380Y-93880952D02*
X175952380Y-93261904D01*
X176333333Y-93595238D01*
X176333333Y-93452380D01*
X176380952Y-93357142D01*
X176428571Y-93309523D01*
X176523809Y-93261904D01*
X176761904Y-93261904D01*
X176857142Y-93309523D01*
X176904761Y-93357142D01*
X176952380Y-93452380D01*
X176952380Y-93738095D01*
X176904761Y-93833333D01*
X176857142Y-93880952D01*
G04 #@! TO.C,R104*
X187952380Y-96119047D02*
X187476190Y-96452380D01*
X187952380Y-96690476D02*
X186952380Y-96690476D01*
X186952380Y-96309523D01*
X187000000Y-96214285D01*
X187047619Y-96166666D01*
X187142857Y-96119047D01*
X187285714Y-96119047D01*
X187380952Y-96166666D01*
X187428571Y-96214285D01*
X187476190Y-96309523D01*
X187476190Y-96690476D01*
X187952380Y-95166666D02*
X187952380Y-95738095D01*
X187952380Y-95452380D02*
X186952380Y-95452380D01*
X187095238Y-95547619D01*
X187190476Y-95642857D01*
X187238095Y-95738095D01*
X186952380Y-94547619D02*
X186952380Y-94452380D01*
X187000000Y-94357142D01*
X187047619Y-94309523D01*
X187142857Y-94261904D01*
X187333333Y-94214285D01*
X187571428Y-94214285D01*
X187761904Y-94261904D01*
X187857142Y-94309523D01*
X187904761Y-94357142D01*
X187952380Y-94452380D01*
X187952380Y-94547619D01*
X187904761Y-94642857D01*
X187857142Y-94690476D01*
X187761904Y-94738095D01*
X187571428Y-94785714D01*
X187333333Y-94785714D01*
X187142857Y-94738095D01*
X187047619Y-94690476D01*
X187000000Y-94642857D01*
X186952380Y-94547619D01*
X187285714Y-93357142D02*
X187952380Y-93357142D01*
X186904761Y-93595238D02*
X187619047Y-93833333D01*
X187619047Y-93214285D01*
G04 #@! TO.C,F101*
X128428571Y-94285714D02*
X128428571Y-94619047D01*
X128952380Y-94619047D02*
X127952380Y-94619047D01*
X127952380Y-94142857D01*
X128952380Y-93238095D02*
X128952380Y-93809523D01*
X128952380Y-93523809D02*
X127952380Y-93523809D01*
X128095238Y-93619047D01*
X128190476Y-93714285D01*
X128238095Y-93809523D01*
X127952380Y-92619047D02*
X127952380Y-92523809D01*
X128000000Y-92428571D01*
X128047619Y-92380952D01*
X128142857Y-92333333D01*
X128333333Y-92285714D01*
X128571428Y-92285714D01*
X128761904Y-92333333D01*
X128857142Y-92380952D01*
X128904761Y-92428571D01*
X128952380Y-92523809D01*
X128952380Y-92619047D01*
X128904761Y-92714285D01*
X128857142Y-92761904D01*
X128761904Y-92809523D01*
X128571428Y-92857142D01*
X128333333Y-92857142D01*
X128142857Y-92809523D01*
X128047619Y-92761904D01*
X128000000Y-92714285D01*
X127952380Y-92619047D01*
X128952380Y-91333333D02*
X128952380Y-91904761D01*
X128952380Y-91619047D02*
X127952380Y-91619047D01*
X128095238Y-91714285D01*
X128190476Y-91809523D01*
X128238095Y-91904761D01*
G04 #@! TD*
M02*
