G04 #@! TF.GenerationSoftware,KiCad,Pcbnew,(5.0.1)-3*
G04 #@! TF.CreationDate,2021-05-06T18:47:49+10:00*
G04 #@! TF.ProjectId,LED Right Glasses Arm (power),4C454420526967687420476C61737365,rev?*
G04 #@! TF.SameCoordinates,Original*
G04 #@! TF.FileFunction,Paste,Top*
G04 #@! TF.FilePolarity,Positive*
%FSLAX46Y46*%
G04 Gerber Fmt 4.6, Leading zero omitted, Abs format (unit mm)*
G04 Created by KiCad (PCBNEW (5.0.1)-3) date 6/05/2021 6:47:49 PM*
%MOMM*%
%LPD*%
G01*
G04 APERTURE LIST*
%ADD10C,0.100000*%
%ADD11C,0.975000*%
%ADD12R,0.450000X0.600000*%
%ADD13R,2.400000X4.200000*%
%ADD14O,0.800000X0.230000*%
%ADD15R,0.230000X0.230000*%
%ADD16R,0.650000X0.900000*%
%ADD17R,0.230000X0.600000*%
%ADD18R,0.800000X0.900000*%
%ADD19C,1.250000*%
%ADD20C,1.000000*%
%ADD21C,1.500000*%
%ADD22R,1.200000X2.500000*%
%ADD23C,0.600000*%
G04 APERTURE END LIST*
D10*
G04 #@! TO.C,C101*
G36*
X158480142Y-96576174D02*
X158503803Y-96579684D01*
X158527007Y-96585496D01*
X158549529Y-96593554D01*
X158571153Y-96603782D01*
X158591670Y-96616079D01*
X158610883Y-96630329D01*
X158628607Y-96646393D01*
X158644671Y-96664117D01*
X158658921Y-96683330D01*
X158671218Y-96703847D01*
X158681446Y-96725471D01*
X158689504Y-96747993D01*
X158695316Y-96771197D01*
X158698826Y-96794858D01*
X158700000Y-96818750D01*
X158700000Y-97306250D01*
X158698826Y-97330142D01*
X158695316Y-97353803D01*
X158689504Y-97377007D01*
X158681446Y-97399529D01*
X158671218Y-97421153D01*
X158658921Y-97441670D01*
X158644671Y-97460883D01*
X158628607Y-97478607D01*
X158610883Y-97494671D01*
X158591670Y-97508921D01*
X158571153Y-97521218D01*
X158549529Y-97531446D01*
X158527007Y-97539504D01*
X158503803Y-97545316D01*
X158480142Y-97548826D01*
X158456250Y-97550000D01*
X157543750Y-97550000D01*
X157519858Y-97548826D01*
X157496197Y-97545316D01*
X157472993Y-97539504D01*
X157450471Y-97531446D01*
X157428847Y-97521218D01*
X157408330Y-97508921D01*
X157389117Y-97494671D01*
X157371393Y-97478607D01*
X157355329Y-97460883D01*
X157341079Y-97441670D01*
X157328782Y-97421153D01*
X157318554Y-97399529D01*
X157310496Y-97377007D01*
X157304684Y-97353803D01*
X157301174Y-97330142D01*
X157300000Y-97306250D01*
X157300000Y-96818750D01*
X157301174Y-96794858D01*
X157304684Y-96771197D01*
X157310496Y-96747993D01*
X157318554Y-96725471D01*
X157328782Y-96703847D01*
X157341079Y-96683330D01*
X157355329Y-96664117D01*
X157371393Y-96646393D01*
X157389117Y-96630329D01*
X157408330Y-96616079D01*
X157428847Y-96603782D01*
X157450471Y-96593554D01*
X157472993Y-96585496D01*
X157496197Y-96579684D01*
X157519858Y-96576174D01*
X157543750Y-96575000D01*
X158456250Y-96575000D01*
X158480142Y-96576174D01*
X158480142Y-96576174D01*
G37*
D11*
X158000000Y-97062500D03*
D10*
G36*
X158480142Y-98451174D02*
X158503803Y-98454684D01*
X158527007Y-98460496D01*
X158549529Y-98468554D01*
X158571153Y-98478782D01*
X158591670Y-98491079D01*
X158610883Y-98505329D01*
X158628607Y-98521393D01*
X158644671Y-98539117D01*
X158658921Y-98558330D01*
X158671218Y-98578847D01*
X158681446Y-98600471D01*
X158689504Y-98622993D01*
X158695316Y-98646197D01*
X158698826Y-98669858D01*
X158700000Y-98693750D01*
X158700000Y-99181250D01*
X158698826Y-99205142D01*
X158695316Y-99228803D01*
X158689504Y-99252007D01*
X158681446Y-99274529D01*
X158671218Y-99296153D01*
X158658921Y-99316670D01*
X158644671Y-99335883D01*
X158628607Y-99353607D01*
X158610883Y-99369671D01*
X158591670Y-99383921D01*
X158571153Y-99396218D01*
X158549529Y-99406446D01*
X158527007Y-99414504D01*
X158503803Y-99420316D01*
X158480142Y-99423826D01*
X158456250Y-99425000D01*
X157543750Y-99425000D01*
X157519858Y-99423826D01*
X157496197Y-99420316D01*
X157472993Y-99414504D01*
X157450471Y-99406446D01*
X157428847Y-99396218D01*
X157408330Y-99383921D01*
X157389117Y-99369671D01*
X157371393Y-99353607D01*
X157355329Y-99335883D01*
X157341079Y-99316670D01*
X157328782Y-99296153D01*
X157318554Y-99274529D01*
X157310496Y-99252007D01*
X157304684Y-99228803D01*
X157301174Y-99205142D01*
X157300000Y-99181250D01*
X157300000Y-98693750D01*
X157301174Y-98669858D01*
X157304684Y-98646197D01*
X157310496Y-98622993D01*
X157318554Y-98600471D01*
X157328782Y-98578847D01*
X157341079Y-98558330D01*
X157355329Y-98539117D01*
X157371393Y-98521393D01*
X157389117Y-98505329D01*
X157408330Y-98491079D01*
X157428847Y-98478782D01*
X157450471Y-98468554D01*
X157472993Y-98460496D01*
X157496197Y-98454684D01*
X157519858Y-98451174D01*
X157543750Y-98450000D01*
X158456250Y-98450000D01*
X158480142Y-98451174D01*
X158480142Y-98451174D01*
G37*
D11*
X158000000Y-98937500D03*
G04 #@! TD*
D10*
G04 #@! TO.C,C102*
G36*
X166480142Y-93576174D02*
X166503803Y-93579684D01*
X166527007Y-93585496D01*
X166549529Y-93593554D01*
X166571153Y-93603782D01*
X166591670Y-93616079D01*
X166610883Y-93630329D01*
X166628607Y-93646393D01*
X166644671Y-93664117D01*
X166658921Y-93683330D01*
X166671218Y-93703847D01*
X166681446Y-93725471D01*
X166689504Y-93747993D01*
X166695316Y-93771197D01*
X166698826Y-93794858D01*
X166700000Y-93818750D01*
X166700000Y-94306250D01*
X166698826Y-94330142D01*
X166695316Y-94353803D01*
X166689504Y-94377007D01*
X166681446Y-94399529D01*
X166671218Y-94421153D01*
X166658921Y-94441670D01*
X166644671Y-94460883D01*
X166628607Y-94478607D01*
X166610883Y-94494671D01*
X166591670Y-94508921D01*
X166571153Y-94521218D01*
X166549529Y-94531446D01*
X166527007Y-94539504D01*
X166503803Y-94545316D01*
X166480142Y-94548826D01*
X166456250Y-94550000D01*
X165543750Y-94550000D01*
X165519858Y-94548826D01*
X165496197Y-94545316D01*
X165472993Y-94539504D01*
X165450471Y-94531446D01*
X165428847Y-94521218D01*
X165408330Y-94508921D01*
X165389117Y-94494671D01*
X165371393Y-94478607D01*
X165355329Y-94460883D01*
X165341079Y-94441670D01*
X165328782Y-94421153D01*
X165318554Y-94399529D01*
X165310496Y-94377007D01*
X165304684Y-94353803D01*
X165301174Y-94330142D01*
X165300000Y-94306250D01*
X165300000Y-93818750D01*
X165301174Y-93794858D01*
X165304684Y-93771197D01*
X165310496Y-93747993D01*
X165318554Y-93725471D01*
X165328782Y-93703847D01*
X165341079Y-93683330D01*
X165355329Y-93664117D01*
X165371393Y-93646393D01*
X165389117Y-93630329D01*
X165408330Y-93616079D01*
X165428847Y-93603782D01*
X165450471Y-93593554D01*
X165472993Y-93585496D01*
X165496197Y-93579684D01*
X165519858Y-93576174D01*
X165543750Y-93575000D01*
X166456250Y-93575000D01*
X166480142Y-93576174D01*
X166480142Y-93576174D01*
G37*
D11*
X166000000Y-94062500D03*
D10*
G36*
X166480142Y-95451174D02*
X166503803Y-95454684D01*
X166527007Y-95460496D01*
X166549529Y-95468554D01*
X166571153Y-95478782D01*
X166591670Y-95491079D01*
X166610883Y-95505329D01*
X166628607Y-95521393D01*
X166644671Y-95539117D01*
X166658921Y-95558330D01*
X166671218Y-95578847D01*
X166681446Y-95600471D01*
X166689504Y-95622993D01*
X166695316Y-95646197D01*
X166698826Y-95669858D01*
X166700000Y-95693750D01*
X166700000Y-96181250D01*
X166698826Y-96205142D01*
X166695316Y-96228803D01*
X166689504Y-96252007D01*
X166681446Y-96274529D01*
X166671218Y-96296153D01*
X166658921Y-96316670D01*
X166644671Y-96335883D01*
X166628607Y-96353607D01*
X166610883Y-96369671D01*
X166591670Y-96383921D01*
X166571153Y-96396218D01*
X166549529Y-96406446D01*
X166527007Y-96414504D01*
X166503803Y-96420316D01*
X166480142Y-96423826D01*
X166456250Y-96425000D01*
X165543750Y-96425000D01*
X165519858Y-96423826D01*
X165496197Y-96420316D01*
X165472993Y-96414504D01*
X165450471Y-96406446D01*
X165428847Y-96396218D01*
X165408330Y-96383921D01*
X165389117Y-96369671D01*
X165371393Y-96353607D01*
X165355329Y-96335883D01*
X165341079Y-96316670D01*
X165328782Y-96296153D01*
X165318554Y-96274529D01*
X165310496Y-96252007D01*
X165304684Y-96228803D01*
X165301174Y-96205142D01*
X165300000Y-96181250D01*
X165300000Y-95693750D01*
X165301174Y-95669858D01*
X165304684Y-95646197D01*
X165310496Y-95622993D01*
X165318554Y-95600471D01*
X165328782Y-95578847D01*
X165341079Y-95558330D01*
X165355329Y-95539117D01*
X165371393Y-95521393D01*
X165389117Y-95505329D01*
X165408330Y-95491079D01*
X165428847Y-95478782D01*
X165450471Y-95468554D01*
X165472993Y-95460496D01*
X165496197Y-95454684D01*
X165519858Y-95451174D01*
X165543750Y-95450000D01*
X166456250Y-95450000D01*
X166480142Y-95451174D01*
X166480142Y-95451174D01*
G37*
D11*
X166000000Y-95937500D03*
G04 #@! TD*
D10*
G04 #@! TO.C,C103*
G36*
X169480142Y-95451174D02*
X169503803Y-95454684D01*
X169527007Y-95460496D01*
X169549529Y-95468554D01*
X169571153Y-95478782D01*
X169591670Y-95491079D01*
X169610883Y-95505329D01*
X169628607Y-95521393D01*
X169644671Y-95539117D01*
X169658921Y-95558330D01*
X169671218Y-95578847D01*
X169681446Y-95600471D01*
X169689504Y-95622993D01*
X169695316Y-95646197D01*
X169698826Y-95669858D01*
X169700000Y-95693750D01*
X169700000Y-96181250D01*
X169698826Y-96205142D01*
X169695316Y-96228803D01*
X169689504Y-96252007D01*
X169681446Y-96274529D01*
X169671218Y-96296153D01*
X169658921Y-96316670D01*
X169644671Y-96335883D01*
X169628607Y-96353607D01*
X169610883Y-96369671D01*
X169591670Y-96383921D01*
X169571153Y-96396218D01*
X169549529Y-96406446D01*
X169527007Y-96414504D01*
X169503803Y-96420316D01*
X169480142Y-96423826D01*
X169456250Y-96425000D01*
X168543750Y-96425000D01*
X168519858Y-96423826D01*
X168496197Y-96420316D01*
X168472993Y-96414504D01*
X168450471Y-96406446D01*
X168428847Y-96396218D01*
X168408330Y-96383921D01*
X168389117Y-96369671D01*
X168371393Y-96353607D01*
X168355329Y-96335883D01*
X168341079Y-96316670D01*
X168328782Y-96296153D01*
X168318554Y-96274529D01*
X168310496Y-96252007D01*
X168304684Y-96228803D01*
X168301174Y-96205142D01*
X168300000Y-96181250D01*
X168300000Y-95693750D01*
X168301174Y-95669858D01*
X168304684Y-95646197D01*
X168310496Y-95622993D01*
X168318554Y-95600471D01*
X168328782Y-95578847D01*
X168341079Y-95558330D01*
X168355329Y-95539117D01*
X168371393Y-95521393D01*
X168389117Y-95505329D01*
X168408330Y-95491079D01*
X168428847Y-95478782D01*
X168450471Y-95468554D01*
X168472993Y-95460496D01*
X168496197Y-95454684D01*
X168519858Y-95451174D01*
X168543750Y-95450000D01*
X169456250Y-95450000D01*
X169480142Y-95451174D01*
X169480142Y-95451174D01*
G37*
D11*
X169000000Y-95937500D03*
D10*
G36*
X169480142Y-93576174D02*
X169503803Y-93579684D01*
X169527007Y-93585496D01*
X169549529Y-93593554D01*
X169571153Y-93603782D01*
X169591670Y-93616079D01*
X169610883Y-93630329D01*
X169628607Y-93646393D01*
X169644671Y-93664117D01*
X169658921Y-93683330D01*
X169671218Y-93703847D01*
X169681446Y-93725471D01*
X169689504Y-93747993D01*
X169695316Y-93771197D01*
X169698826Y-93794858D01*
X169700000Y-93818750D01*
X169700000Y-94306250D01*
X169698826Y-94330142D01*
X169695316Y-94353803D01*
X169689504Y-94377007D01*
X169681446Y-94399529D01*
X169671218Y-94421153D01*
X169658921Y-94441670D01*
X169644671Y-94460883D01*
X169628607Y-94478607D01*
X169610883Y-94494671D01*
X169591670Y-94508921D01*
X169571153Y-94521218D01*
X169549529Y-94531446D01*
X169527007Y-94539504D01*
X169503803Y-94545316D01*
X169480142Y-94548826D01*
X169456250Y-94550000D01*
X168543750Y-94550000D01*
X168519858Y-94548826D01*
X168496197Y-94545316D01*
X168472993Y-94539504D01*
X168450471Y-94531446D01*
X168428847Y-94521218D01*
X168408330Y-94508921D01*
X168389117Y-94494671D01*
X168371393Y-94478607D01*
X168355329Y-94460883D01*
X168341079Y-94441670D01*
X168328782Y-94421153D01*
X168318554Y-94399529D01*
X168310496Y-94377007D01*
X168304684Y-94353803D01*
X168301174Y-94330142D01*
X168300000Y-94306250D01*
X168300000Y-93818750D01*
X168301174Y-93794858D01*
X168304684Y-93771197D01*
X168310496Y-93747993D01*
X168318554Y-93725471D01*
X168328782Y-93703847D01*
X168341079Y-93683330D01*
X168355329Y-93664117D01*
X168371393Y-93646393D01*
X168389117Y-93630329D01*
X168408330Y-93616079D01*
X168428847Y-93603782D01*
X168450471Y-93593554D01*
X168472993Y-93585496D01*
X168496197Y-93579684D01*
X168519858Y-93576174D01*
X168543750Y-93575000D01*
X169456250Y-93575000D01*
X169480142Y-93576174D01*
X169480142Y-93576174D01*
G37*
D11*
X169000000Y-94062500D03*
G04 #@! TD*
D10*
G04 #@! TO.C,C104*
G36*
X172480142Y-93576174D02*
X172503803Y-93579684D01*
X172527007Y-93585496D01*
X172549529Y-93593554D01*
X172571153Y-93603782D01*
X172591670Y-93616079D01*
X172610883Y-93630329D01*
X172628607Y-93646393D01*
X172644671Y-93664117D01*
X172658921Y-93683330D01*
X172671218Y-93703847D01*
X172681446Y-93725471D01*
X172689504Y-93747993D01*
X172695316Y-93771197D01*
X172698826Y-93794858D01*
X172700000Y-93818750D01*
X172700000Y-94306250D01*
X172698826Y-94330142D01*
X172695316Y-94353803D01*
X172689504Y-94377007D01*
X172681446Y-94399529D01*
X172671218Y-94421153D01*
X172658921Y-94441670D01*
X172644671Y-94460883D01*
X172628607Y-94478607D01*
X172610883Y-94494671D01*
X172591670Y-94508921D01*
X172571153Y-94521218D01*
X172549529Y-94531446D01*
X172527007Y-94539504D01*
X172503803Y-94545316D01*
X172480142Y-94548826D01*
X172456250Y-94550000D01*
X171543750Y-94550000D01*
X171519858Y-94548826D01*
X171496197Y-94545316D01*
X171472993Y-94539504D01*
X171450471Y-94531446D01*
X171428847Y-94521218D01*
X171408330Y-94508921D01*
X171389117Y-94494671D01*
X171371393Y-94478607D01*
X171355329Y-94460883D01*
X171341079Y-94441670D01*
X171328782Y-94421153D01*
X171318554Y-94399529D01*
X171310496Y-94377007D01*
X171304684Y-94353803D01*
X171301174Y-94330142D01*
X171300000Y-94306250D01*
X171300000Y-93818750D01*
X171301174Y-93794858D01*
X171304684Y-93771197D01*
X171310496Y-93747993D01*
X171318554Y-93725471D01*
X171328782Y-93703847D01*
X171341079Y-93683330D01*
X171355329Y-93664117D01*
X171371393Y-93646393D01*
X171389117Y-93630329D01*
X171408330Y-93616079D01*
X171428847Y-93603782D01*
X171450471Y-93593554D01*
X171472993Y-93585496D01*
X171496197Y-93579684D01*
X171519858Y-93576174D01*
X171543750Y-93575000D01*
X172456250Y-93575000D01*
X172480142Y-93576174D01*
X172480142Y-93576174D01*
G37*
D11*
X172000000Y-94062500D03*
D10*
G36*
X172480142Y-95451174D02*
X172503803Y-95454684D01*
X172527007Y-95460496D01*
X172549529Y-95468554D01*
X172571153Y-95478782D01*
X172591670Y-95491079D01*
X172610883Y-95505329D01*
X172628607Y-95521393D01*
X172644671Y-95539117D01*
X172658921Y-95558330D01*
X172671218Y-95578847D01*
X172681446Y-95600471D01*
X172689504Y-95622993D01*
X172695316Y-95646197D01*
X172698826Y-95669858D01*
X172700000Y-95693750D01*
X172700000Y-96181250D01*
X172698826Y-96205142D01*
X172695316Y-96228803D01*
X172689504Y-96252007D01*
X172681446Y-96274529D01*
X172671218Y-96296153D01*
X172658921Y-96316670D01*
X172644671Y-96335883D01*
X172628607Y-96353607D01*
X172610883Y-96369671D01*
X172591670Y-96383921D01*
X172571153Y-96396218D01*
X172549529Y-96406446D01*
X172527007Y-96414504D01*
X172503803Y-96420316D01*
X172480142Y-96423826D01*
X172456250Y-96425000D01*
X171543750Y-96425000D01*
X171519858Y-96423826D01*
X171496197Y-96420316D01*
X171472993Y-96414504D01*
X171450471Y-96406446D01*
X171428847Y-96396218D01*
X171408330Y-96383921D01*
X171389117Y-96369671D01*
X171371393Y-96353607D01*
X171355329Y-96335883D01*
X171341079Y-96316670D01*
X171328782Y-96296153D01*
X171318554Y-96274529D01*
X171310496Y-96252007D01*
X171304684Y-96228803D01*
X171301174Y-96205142D01*
X171300000Y-96181250D01*
X171300000Y-95693750D01*
X171301174Y-95669858D01*
X171304684Y-95646197D01*
X171310496Y-95622993D01*
X171318554Y-95600471D01*
X171328782Y-95578847D01*
X171341079Y-95558330D01*
X171355329Y-95539117D01*
X171371393Y-95521393D01*
X171389117Y-95505329D01*
X171408330Y-95491079D01*
X171428847Y-95478782D01*
X171450471Y-95468554D01*
X171472993Y-95460496D01*
X171496197Y-95454684D01*
X171519858Y-95451174D01*
X171543750Y-95450000D01*
X172456250Y-95450000D01*
X172480142Y-95451174D01*
X172480142Y-95451174D01*
G37*
D11*
X172000000Y-95937500D03*
G04 #@! TD*
D10*
G04 #@! TO.C,C105*
G36*
X166330142Y-98301174D02*
X166353803Y-98304684D01*
X166377007Y-98310496D01*
X166399529Y-98318554D01*
X166421153Y-98328782D01*
X166441670Y-98341079D01*
X166460883Y-98355329D01*
X166478607Y-98371393D01*
X166494671Y-98389117D01*
X166508921Y-98408330D01*
X166521218Y-98428847D01*
X166531446Y-98450471D01*
X166539504Y-98472993D01*
X166545316Y-98496197D01*
X166548826Y-98519858D01*
X166550000Y-98543750D01*
X166550000Y-99456250D01*
X166548826Y-99480142D01*
X166545316Y-99503803D01*
X166539504Y-99527007D01*
X166531446Y-99549529D01*
X166521218Y-99571153D01*
X166508921Y-99591670D01*
X166494671Y-99610883D01*
X166478607Y-99628607D01*
X166460883Y-99644671D01*
X166441670Y-99658921D01*
X166421153Y-99671218D01*
X166399529Y-99681446D01*
X166377007Y-99689504D01*
X166353803Y-99695316D01*
X166330142Y-99698826D01*
X166306250Y-99700000D01*
X165818750Y-99700000D01*
X165794858Y-99698826D01*
X165771197Y-99695316D01*
X165747993Y-99689504D01*
X165725471Y-99681446D01*
X165703847Y-99671218D01*
X165683330Y-99658921D01*
X165664117Y-99644671D01*
X165646393Y-99628607D01*
X165630329Y-99610883D01*
X165616079Y-99591670D01*
X165603782Y-99571153D01*
X165593554Y-99549529D01*
X165585496Y-99527007D01*
X165579684Y-99503803D01*
X165576174Y-99480142D01*
X165575000Y-99456250D01*
X165575000Y-98543750D01*
X165576174Y-98519858D01*
X165579684Y-98496197D01*
X165585496Y-98472993D01*
X165593554Y-98450471D01*
X165603782Y-98428847D01*
X165616079Y-98408330D01*
X165630329Y-98389117D01*
X165646393Y-98371393D01*
X165664117Y-98355329D01*
X165683330Y-98341079D01*
X165703847Y-98328782D01*
X165725471Y-98318554D01*
X165747993Y-98310496D01*
X165771197Y-98304684D01*
X165794858Y-98301174D01*
X165818750Y-98300000D01*
X166306250Y-98300000D01*
X166330142Y-98301174D01*
X166330142Y-98301174D01*
G37*
D11*
X166062500Y-99000000D03*
D10*
G36*
X168205142Y-98301174D02*
X168228803Y-98304684D01*
X168252007Y-98310496D01*
X168274529Y-98318554D01*
X168296153Y-98328782D01*
X168316670Y-98341079D01*
X168335883Y-98355329D01*
X168353607Y-98371393D01*
X168369671Y-98389117D01*
X168383921Y-98408330D01*
X168396218Y-98428847D01*
X168406446Y-98450471D01*
X168414504Y-98472993D01*
X168420316Y-98496197D01*
X168423826Y-98519858D01*
X168425000Y-98543750D01*
X168425000Y-99456250D01*
X168423826Y-99480142D01*
X168420316Y-99503803D01*
X168414504Y-99527007D01*
X168406446Y-99549529D01*
X168396218Y-99571153D01*
X168383921Y-99591670D01*
X168369671Y-99610883D01*
X168353607Y-99628607D01*
X168335883Y-99644671D01*
X168316670Y-99658921D01*
X168296153Y-99671218D01*
X168274529Y-99681446D01*
X168252007Y-99689504D01*
X168228803Y-99695316D01*
X168205142Y-99698826D01*
X168181250Y-99700000D01*
X167693750Y-99700000D01*
X167669858Y-99698826D01*
X167646197Y-99695316D01*
X167622993Y-99689504D01*
X167600471Y-99681446D01*
X167578847Y-99671218D01*
X167558330Y-99658921D01*
X167539117Y-99644671D01*
X167521393Y-99628607D01*
X167505329Y-99610883D01*
X167491079Y-99591670D01*
X167478782Y-99571153D01*
X167468554Y-99549529D01*
X167460496Y-99527007D01*
X167454684Y-99503803D01*
X167451174Y-99480142D01*
X167450000Y-99456250D01*
X167450000Y-98543750D01*
X167451174Y-98519858D01*
X167454684Y-98496197D01*
X167460496Y-98472993D01*
X167468554Y-98450471D01*
X167478782Y-98428847D01*
X167491079Y-98408330D01*
X167505329Y-98389117D01*
X167521393Y-98371393D01*
X167539117Y-98355329D01*
X167558330Y-98341079D01*
X167578847Y-98328782D01*
X167600471Y-98318554D01*
X167622993Y-98310496D01*
X167646197Y-98304684D01*
X167669858Y-98301174D01*
X167693750Y-98300000D01*
X168181250Y-98300000D01*
X168205142Y-98301174D01*
X168205142Y-98301174D01*
G37*
D11*
X167937500Y-99000000D03*
G04 #@! TD*
D12*
G04 #@! TO.C,D101*
X138000000Y-91950000D03*
X138000000Y-94050000D03*
G04 #@! TD*
D13*
G04 #@! TO.C,L101*
X158750000Y-92000000D03*
X163250000Y-92000000D03*
G04 #@! TD*
D10*
G04 #@! TO.C,D102*
G36*
X183480142Y-91576174D02*
X183503803Y-91579684D01*
X183527007Y-91585496D01*
X183549529Y-91593554D01*
X183571153Y-91603782D01*
X183591670Y-91616079D01*
X183610883Y-91630329D01*
X183628607Y-91646393D01*
X183644671Y-91664117D01*
X183658921Y-91683330D01*
X183671218Y-91703847D01*
X183681446Y-91725471D01*
X183689504Y-91747993D01*
X183695316Y-91771197D01*
X183698826Y-91794858D01*
X183700000Y-91818750D01*
X183700000Y-92306250D01*
X183698826Y-92330142D01*
X183695316Y-92353803D01*
X183689504Y-92377007D01*
X183681446Y-92399529D01*
X183671218Y-92421153D01*
X183658921Y-92441670D01*
X183644671Y-92460883D01*
X183628607Y-92478607D01*
X183610883Y-92494671D01*
X183591670Y-92508921D01*
X183571153Y-92521218D01*
X183549529Y-92531446D01*
X183527007Y-92539504D01*
X183503803Y-92545316D01*
X183480142Y-92548826D01*
X183456250Y-92550000D01*
X182543750Y-92550000D01*
X182519858Y-92548826D01*
X182496197Y-92545316D01*
X182472993Y-92539504D01*
X182450471Y-92531446D01*
X182428847Y-92521218D01*
X182408330Y-92508921D01*
X182389117Y-92494671D01*
X182371393Y-92478607D01*
X182355329Y-92460883D01*
X182341079Y-92441670D01*
X182328782Y-92421153D01*
X182318554Y-92399529D01*
X182310496Y-92377007D01*
X182304684Y-92353803D01*
X182301174Y-92330142D01*
X182300000Y-92306250D01*
X182300000Y-91818750D01*
X182301174Y-91794858D01*
X182304684Y-91771197D01*
X182310496Y-91747993D01*
X182318554Y-91725471D01*
X182328782Y-91703847D01*
X182341079Y-91683330D01*
X182355329Y-91664117D01*
X182371393Y-91646393D01*
X182389117Y-91630329D01*
X182408330Y-91616079D01*
X182428847Y-91603782D01*
X182450471Y-91593554D01*
X182472993Y-91585496D01*
X182496197Y-91579684D01*
X182519858Y-91576174D01*
X182543750Y-91575000D01*
X183456250Y-91575000D01*
X183480142Y-91576174D01*
X183480142Y-91576174D01*
G37*
D11*
X183000000Y-92062500D03*
D10*
G36*
X183480142Y-93451174D02*
X183503803Y-93454684D01*
X183527007Y-93460496D01*
X183549529Y-93468554D01*
X183571153Y-93478782D01*
X183591670Y-93491079D01*
X183610883Y-93505329D01*
X183628607Y-93521393D01*
X183644671Y-93539117D01*
X183658921Y-93558330D01*
X183671218Y-93578847D01*
X183681446Y-93600471D01*
X183689504Y-93622993D01*
X183695316Y-93646197D01*
X183698826Y-93669858D01*
X183700000Y-93693750D01*
X183700000Y-94181250D01*
X183698826Y-94205142D01*
X183695316Y-94228803D01*
X183689504Y-94252007D01*
X183681446Y-94274529D01*
X183671218Y-94296153D01*
X183658921Y-94316670D01*
X183644671Y-94335883D01*
X183628607Y-94353607D01*
X183610883Y-94369671D01*
X183591670Y-94383921D01*
X183571153Y-94396218D01*
X183549529Y-94406446D01*
X183527007Y-94414504D01*
X183503803Y-94420316D01*
X183480142Y-94423826D01*
X183456250Y-94425000D01*
X182543750Y-94425000D01*
X182519858Y-94423826D01*
X182496197Y-94420316D01*
X182472993Y-94414504D01*
X182450471Y-94406446D01*
X182428847Y-94396218D01*
X182408330Y-94383921D01*
X182389117Y-94369671D01*
X182371393Y-94353607D01*
X182355329Y-94335883D01*
X182341079Y-94316670D01*
X182328782Y-94296153D01*
X182318554Y-94274529D01*
X182310496Y-94252007D01*
X182304684Y-94228803D01*
X182301174Y-94205142D01*
X182300000Y-94181250D01*
X182300000Y-93693750D01*
X182301174Y-93669858D01*
X182304684Y-93646197D01*
X182310496Y-93622993D01*
X182318554Y-93600471D01*
X182328782Y-93578847D01*
X182341079Y-93558330D01*
X182355329Y-93539117D01*
X182371393Y-93521393D01*
X182389117Y-93505329D01*
X182408330Y-93491079D01*
X182428847Y-93478782D01*
X182450471Y-93468554D01*
X182472993Y-93460496D01*
X182496197Y-93454684D01*
X182519858Y-93451174D01*
X182543750Y-93450000D01*
X183456250Y-93450000D01*
X183480142Y-93451174D01*
X183480142Y-93451174D01*
G37*
D11*
X183000000Y-93937500D03*
G04 #@! TD*
D14*
G04 #@! TO.C,U101*
X160525000Y-97000000D03*
X160525000Y-97500000D03*
D15*
X160240000Y-98000000D03*
D14*
X160525000Y-98500000D03*
D15*
X160240000Y-99000000D03*
D14*
X163475000Y-99000000D03*
X163475000Y-98500000D03*
D15*
X163760000Y-98000000D03*
X163760000Y-97500000D03*
X163760000Y-97000000D03*
X160240000Y-97000000D03*
X160240000Y-97500000D03*
D14*
X160525000Y-98000000D03*
D15*
X160240000Y-98500000D03*
D14*
X160525000Y-99000000D03*
D15*
X163760000Y-99000000D03*
X163760000Y-98500000D03*
D14*
X163475000Y-98000000D03*
X163475000Y-97500000D03*
X163475000Y-97000000D03*
D16*
X161565000Y-97440000D03*
X162435000Y-98560000D03*
X161565000Y-98560000D03*
X162435000Y-97440000D03*
D17*
X161400000Y-96575000D03*
X161800000Y-96575000D03*
X162200000Y-96575000D03*
X162600000Y-96575000D03*
X161400000Y-99425000D03*
X161800000Y-99425000D03*
X162200000Y-99425000D03*
X162600000Y-99425000D03*
G04 #@! TD*
D18*
G04 #@! TO.C,Q102*
X179000000Y-92000000D03*
X179950000Y-94000000D03*
X178050000Y-94000000D03*
G04 #@! TD*
G04 #@! TO.C,Q101*
X134950000Y-92000000D03*
X133050000Y-92000000D03*
X134000000Y-94000000D03*
G04 #@! TD*
D10*
G04 #@! TO.C,R101*
G36*
X141480142Y-95451174D02*
X141503803Y-95454684D01*
X141527007Y-95460496D01*
X141549529Y-95468554D01*
X141571153Y-95478782D01*
X141591670Y-95491079D01*
X141610883Y-95505329D01*
X141628607Y-95521393D01*
X141644671Y-95539117D01*
X141658921Y-95558330D01*
X141671218Y-95578847D01*
X141681446Y-95600471D01*
X141689504Y-95622993D01*
X141695316Y-95646197D01*
X141698826Y-95669858D01*
X141700000Y-95693750D01*
X141700000Y-96181250D01*
X141698826Y-96205142D01*
X141695316Y-96228803D01*
X141689504Y-96252007D01*
X141681446Y-96274529D01*
X141671218Y-96296153D01*
X141658921Y-96316670D01*
X141644671Y-96335883D01*
X141628607Y-96353607D01*
X141610883Y-96369671D01*
X141591670Y-96383921D01*
X141571153Y-96396218D01*
X141549529Y-96406446D01*
X141527007Y-96414504D01*
X141503803Y-96420316D01*
X141480142Y-96423826D01*
X141456250Y-96425000D01*
X140543750Y-96425000D01*
X140519858Y-96423826D01*
X140496197Y-96420316D01*
X140472993Y-96414504D01*
X140450471Y-96406446D01*
X140428847Y-96396218D01*
X140408330Y-96383921D01*
X140389117Y-96369671D01*
X140371393Y-96353607D01*
X140355329Y-96335883D01*
X140341079Y-96316670D01*
X140328782Y-96296153D01*
X140318554Y-96274529D01*
X140310496Y-96252007D01*
X140304684Y-96228803D01*
X140301174Y-96205142D01*
X140300000Y-96181250D01*
X140300000Y-95693750D01*
X140301174Y-95669858D01*
X140304684Y-95646197D01*
X140310496Y-95622993D01*
X140318554Y-95600471D01*
X140328782Y-95578847D01*
X140341079Y-95558330D01*
X140355329Y-95539117D01*
X140371393Y-95521393D01*
X140389117Y-95505329D01*
X140408330Y-95491079D01*
X140428847Y-95478782D01*
X140450471Y-95468554D01*
X140472993Y-95460496D01*
X140496197Y-95454684D01*
X140519858Y-95451174D01*
X140543750Y-95450000D01*
X141456250Y-95450000D01*
X141480142Y-95451174D01*
X141480142Y-95451174D01*
G37*
D11*
X141000000Y-95937500D03*
D10*
G36*
X141480142Y-93576174D02*
X141503803Y-93579684D01*
X141527007Y-93585496D01*
X141549529Y-93593554D01*
X141571153Y-93603782D01*
X141591670Y-93616079D01*
X141610883Y-93630329D01*
X141628607Y-93646393D01*
X141644671Y-93664117D01*
X141658921Y-93683330D01*
X141671218Y-93703847D01*
X141681446Y-93725471D01*
X141689504Y-93747993D01*
X141695316Y-93771197D01*
X141698826Y-93794858D01*
X141700000Y-93818750D01*
X141700000Y-94306250D01*
X141698826Y-94330142D01*
X141695316Y-94353803D01*
X141689504Y-94377007D01*
X141681446Y-94399529D01*
X141671218Y-94421153D01*
X141658921Y-94441670D01*
X141644671Y-94460883D01*
X141628607Y-94478607D01*
X141610883Y-94494671D01*
X141591670Y-94508921D01*
X141571153Y-94521218D01*
X141549529Y-94531446D01*
X141527007Y-94539504D01*
X141503803Y-94545316D01*
X141480142Y-94548826D01*
X141456250Y-94550000D01*
X140543750Y-94550000D01*
X140519858Y-94548826D01*
X140496197Y-94545316D01*
X140472993Y-94539504D01*
X140450471Y-94531446D01*
X140428847Y-94521218D01*
X140408330Y-94508921D01*
X140389117Y-94494671D01*
X140371393Y-94478607D01*
X140355329Y-94460883D01*
X140341079Y-94441670D01*
X140328782Y-94421153D01*
X140318554Y-94399529D01*
X140310496Y-94377007D01*
X140304684Y-94353803D01*
X140301174Y-94330142D01*
X140300000Y-94306250D01*
X140300000Y-93818750D01*
X140301174Y-93794858D01*
X140304684Y-93771197D01*
X140310496Y-93747993D01*
X140318554Y-93725471D01*
X140328782Y-93703847D01*
X140341079Y-93683330D01*
X140355329Y-93664117D01*
X140371393Y-93646393D01*
X140389117Y-93630329D01*
X140408330Y-93616079D01*
X140428847Y-93603782D01*
X140450471Y-93593554D01*
X140472993Y-93585496D01*
X140496197Y-93579684D01*
X140519858Y-93576174D01*
X140543750Y-93575000D01*
X141456250Y-93575000D01*
X141480142Y-93576174D01*
X141480142Y-93576174D01*
G37*
D11*
X141000000Y-94062500D03*
G04 #@! TD*
D10*
G04 #@! TO.C,R102*
G36*
X155480142Y-97576174D02*
X155503803Y-97579684D01*
X155527007Y-97585496D01*
X155549529Y-97593554D01*
X155571153Y-97603782D01*
X155591670Y-97616079D01*
X155610883Y-97630329D01*
X155628607Y-97646393D01*
X155644671Y-97664117D01*
X155658921Y-97683330D01*
X155671218Y-97703847D01*
X155681446Y-97725471D01*
X155689504Y-97747993D01*
X155695316Y-97771197D01*
X155698826Y-97794858D01*
X155700000Y-97818750D01*
X155700000Y-98306250D01*
X155698826Y-98330142D01*
X155695316Y-98353803D01*
X155689504Y-98377007D01*
X155681446Y-98399529D01*
X155671218Y-98421153D01*
X155658921Y-98441670D01*
X155644671Y-98460883D01*
X155628607Y-98478607D01*
X155610883Y-98494671D01*
X155591670Y-98508921D01*
X155571153Y-98521218D01*
X155549529Y-98531446D01*
X155527007Y-98539504D01*
X155503803Y-98545316D01*
X155480142Y-98548826D01*
X155456250Y-98550000D01*
X154543750Y-98550000D01*
X154519858Y-98548826D01*
X154496197Y-98545316D01*
X154472993Y-98539504D01*
X154450471Y-98531446D01*
X154428847Y-98521218D01*
X154408330Y-98508921D01*
X154389117Y-98494671D01*
X154371393Y-98478607D01*
X154355329Y-98460883D01*
X154341079Y-98441670D01*
X154328782Y-98421153D01*
X154318554Y-98399529D01*
X154310496Y-98377007D01*
X154304684Y-98353803D01*
X154301174Y-98330142D01*
X154300000Y-98306250D01*
X154300000Y-97818750D01*
X154301174Y-97794858D01*
X154304684Y-97771197D01*
X154310496Y-97747993D01*
X154318554Y-97725471D01*
X154328782Y-97703847D01*
X154341079Y-97683330D01*
X154355329Y-97664117D01*
X154371393Y-97646393D01*
X154389117Y-97630329D01*
X154408330Y-97616079D01*
X154428847Y-97603782D01*
X154450471Y-97593554D01*
X154472993Y-97585496D01*
X154496197Y-97579684D01*
X154519858Y-97576174D01*
X154543750Y-97575000D01*
X155456250Y-97575000D01*
X155480142Y-97576174D01*
X155480142Y-97576174D01*
G37*
D11*
X155000000Y-98062500D03*
D10*
G36*
X155480142Y-99451174D02*
X155503803Y-99454684D01*
X155527007Y-99460496D01*
X155549529Y-99468554D01*
X155571153Y-99478782D01*
X155591670Y-99491079D01*
X155610883Y-99505329D01*
X155628607Y-99521393D01*
X155644671Y-99539117D01*
X155658921Y-99558330D01*
X155671218Y-99578847D01*
X155681446Y-99600471D01*
X155689504Y-99622993D01*
X155695316Y-99646197D01*
X155698826Y-99669858D01*
X155700000Y-99693750D01*
X155700000Y-100181250D01*
X155698826Y-100205142D01*
X155695316Y-100228803D01*
X155689504Y-100252007D01*
X155681446Y-100274529D01*
X155671218Y-100296153D01*
X155658921Y-100316670D01*
X155644671Y-100335883D01*
X155628607Y-100353607D01*
X155610883Y-100369671D01*
X155591670Y-100383921D01*
X155571153Y-100396218D01*
X155549529Y-100406446D01*
X155527007Y-100414504D01*
X155503803Y-100420316D01*
X155480142Y-100423826D01*
X155456250Y-100425000D01*
X154543750Y-100425000D01*
X154519858Y-100423826D01*
X154496197Y-100420316D01*
X154472993Y-100414504D01*
X154450471Y-100406446D01*
X154428847Y-100396218D01*
X154408330Y-100383921D01*
X154389117Y-100369671D01*
X154371393Y-100353607D01*
X154355329Y-100335883D01*
X154341079Y-100316670D01*
X154328782Y-100296153D01*
X154318554Y-100274529D01*
X154310496Y-100252007D01*
X154304684Y-100228803D01*
X154301174Y-100205142D01*
X154300000Y-100181250D01*
X154300000Y-99693750D01*
X154301174Y-99669858D01*
X154304684Y-99646197D01*
X154310496Y-99622993D01*
X154318554Y-99600471D01*
X154328782Y-99578847D01*
X154341079Y-99558330D01*
X154355329Y-99539117D01*
X154371393Y-99521393D01*
X154389117Y-99505329D01*
X154408330Y-99491079D01*
X154428847Y-99478782D01*
X154450471Y-99468554D01*
X154472993Y-99460496D01*
X154496197Y-99454684D01*
X154519858Y-99451174D01*
X154543750Y-99450000D01*
X155456250Y-99450000D01*
X155480142Y-99451174D01*
X155480142Y-99451174D01*
G37*
D11*
X155000000Y-99937500D03*
G04 #@! TD*
D10*
G04 #@! TO.C,R103*
G36*
X175480142Y-91576174D02*
X175503803Y-91579684D01*
X175527007Y-91585496D01*
X175549529Y-91593554D01*
X175571153Y-91603782D01*
X175591670Y-91616079D01*
X175610883Y-91630329D01*
X175628607Y-91646393D01*
X175644671Y-91664117D01*
X175658921Y-91683330D01*
X175671218Y-91703847D01*
X175681446Y-91725471D01*
X175689504Y-91747993D01*
X175695316Y-91771197D01*
X175698826Y-91794858D01*
X175700000Y-91818750D01*
X175700000Y-92306250D01*
X175698826Y-92330142D01*
X175695316Y-92353803D01*
X175689504Y-92377007D01*
X175681446Y-92399529D01*
X175671218Y-92421153D01*
X175658921Y-92441670D01*
X175644671Y-92460883D01*
X175628607Y-92478607D01*
X175610883Y-92494671D01*
X175591670Y-92508921D01*
X175571153Y-92521218D01*
X175549529Y-92531446D01*
X175527007Y-92539504D01*
X175503803Y-92545316D01*
X175480142Y-92548826D01*
X175456250Y-92550000D01*
X174543750Y-92550000D01*
X174519858Y-92548826D01*
X174496197Y-92545316D01*
X174472993Y-92539504D01*
X174450471Y-92531446D01*
X174428847Y-92521218D01*
X174408330Y-92508921D01*
X174389117Y-92494671D01*
X174371393Y-92478607D01*
X174355329Y-92460883D01*
X174341079Y-92441670D01*
X174328782Y-92421153D01*
X174318554Y-92399529D01*
X174310496Y-92377007D01*
X174304684Y-92353803D01*
X174301174Y-92330142D01*
X174300000Y-92306250D01*
X174300000Y-91818750D01*
X174301174Y-91794858D01*
X174304684Y-91771197D01*
X174310496Y-91747993D01*
X174318554Y-91725471D01*
X174328782Y-91703847D01*
X174341079Y-91683330D01*
X174355329Y-91664117D01*
X174371393Y-91646393D01*
X174389117Y-91630329D01*
X174408330Y-91616079D01*
X174428847Y-91603782D01*
X174450471Y-91593554D01*
X174472993Y-91585496D01*
X174496197Y-91579684D01*
X174519858Y-91576174D01*
X174543750Y-91575000D01*
X175456250Y-91575000D01*
X175480142Y-91576174D01*
X175480142Y-91576174D01*
G37*
D11*
X175000000Y-92062500D03*
D10*
G36*
X175480142Y-93451174D02*
X175503803Y-93454684D01*
X175527007Y-93460496D01*
X175549529Y-93468554D01*
X175571153Y-93478782D01*
X175591670Y-93491079D01*
X175610883Y-93505329D01*
X175628607Y-93521393D01*
X175644671Y-93539117D01*
X175658921Y-93558330D01*
X175671218Y-93578847D01*
X175681446Y-93600471D01*
X175689504Y-93622993D01*
X175695316Y-93646197D01*
X175698826Y-93669858D01*
X175700000Y-93693750D01*
X175700000Y-94181250D01*
X175698826Y-94205142D01*
X175695316Y-94228803D01*
X175689504Y-94252007D01*
X175681446Y-94274529D01*
X175671218Y-94296153D01*
X175658921Y-94316670D01*
X175644671Y-94335883D01*
X175628607Y-94353607D01*
X175610883Y-94369671D01*
X175591670Y-94383921D01*
X175571153Y-94396218D01*
X175549529Y-94406446D01*
X175527007Y-94414504D01*
X175503803Y-94420316D01*
X175480142Y-94423826D01*
X175456250Y-94425000D01*
X174543750Y-94425000D01*
X174519858Y-94423826D01*
X174496197Y-94420316D01*
X174472993Y-94414504D01*
X174450471Y-94406446D01*
X174428847Y-94396218D01*
X174408330Y-94383921D01*
X174389117Y-94369671D01*
X174371393Y-94353607D01*
X174355329Y-94335883D01*
X174341079Y-94316670D01*
X174328782Y-94296153D01*
X174318554Y-94274529D01*
X174310496Y-94252007D01*
X174304684Y-94228803D01*
X174301174Y-94205142D01*
X174300000Y-94181250D01*
X174300000Y-93693750D01*
X174301174Y-93669858D01*
X174304684Y-93646197D01*
X174310496Y-93622993D01*
X174318554Y-93600471D01*
X174328782Y-93578847D01*
X174341079Y-93558330D01*
X174355329Y-93539117D01*
X174371393Y-93521393D01*
X174389117Y-93505329D01*
X174408330Y-93491079D01*
X174428847Y-93478782D01*
X174450471Y-93468554D01*
X174472993Y-93460496D01*
X174496197Y-93454684D01*
X174519858Y-93451174D01*
X174543750Y-93450000D01*
X175456250Y-93450000D01*
X175480142Y-93451174D01*
X175480142Y-93451174D01*
G37*
D11*
X175000000Y-93937500D03*
G04 #@! TD*
D10*
G04 #@! TO.C,R104*
G36*
X186480142Y-91576174D02*
X186503803Y-91579684D01*
X186527007Y-91585496D01*
X186549529Y-91593554D01*
X186571153Y-91603782D01*
X186591670Y-91616079D01*
X186610883Y-91630329D01*
X186628607Y-91646393D01*
X186644671Y-91664117D01*
X186658921Y-91683330D01*
X186671218Y-91703847D01*
X186681446Y-91725471D01*
X186689504Y-91747993D01*
X186695316Y-91771197D01*
X186698826Y-91794858D01*
X186700000Y-91818750D01*
X186700000Y-92306250D01*
X186698826Y-92330142D01*
X186695316Y-92353803D01*
X186689504Y-92377007D01*
X186681446Y-92399529D01*
X186671218Y-92421153D01*
X186658921Y-92441670D01*
X186644671Y-92460883D01*
X186628607Y-92478607D01*
X186610883Y-92494671D01*
X186591670Y-92508921D01*
X186571153Y-92521218D01*
X186549529Y-92531446D01*
X186527007Y-92539504D01*
X186503803Y-92545316D01*
X186480142Y-92548826D01*
X186456250Y-92550000D01*
X185543750Y-92550000D01*
X185519858Y-92548826D01*
X185496197Y-92545316D01*
X185472993Y-92539504D01*
X185450471Y-92531446D01*
X185428847Y-92521218D01*
X185408330Y-92508921D01*
X185389117Y-92494671D01*
X185371393Y-92478607D01*
X185355329Y-92460883D01*
X185341079Y-92441670D01*
X185328782Y-92421153D01*
X185318554Y-92399529D01*
X185310496Y-92377007D01*
X185304684Y-92353803D01*
X185301174Y-92330142D01*
X185300000Y-92306250D01*
X185300000Y-91818750D01*
X185301174Y-91794858D01*
X185304684Y-91771197D01*
X185310496Y-91747993D01*
X185318554Y-91725471D01*
X185328782Y-91703847D01*
X185341079Y-91683330D01*
X185355329Y-91664117D01*
X185371393Y-91646393D01*
X185389117Y-91630329D01*
X185408330Y-91616079D01*
X185428847Y-91603782D01*
X185450471Y-91593554D01*
X185472993Y-91585496D01*
X185496197Y-91579684D01*
X185519858Y-91576174D01*
X185543750Y-91575000D01*
X186456250Y-91575000D01*
X186480142Y-91576174D01*
X186480142Y-91576174D01*
G37*
D11*
X186000000Y-92062500D03*
D10*
G36*
X186480142Y-93451174D02*
X186503803Y-93454684D01*
X186527007Y-93460496D01*
X186549529Y-93468554D01*
X186571153Y-93478782D01*
X186591670Y-93491079D01*
X186610883Y-93505329D01*
X186628607Y-93521393D01*
X186644671Y-93539117D01*
X186658921Y-93558330D01*
X186671218Y-93578847D01*
X186681446Y-93600471D01*
X186689504Y-93622993D01*
X186695316Y-93646197D01*
X186698826Y-93669858D01*
X186700000Y-93693750D01*
X186700000Y-94181250D01*
X186698826Y-94205142D01*
X186695316Y-94228803D01*
X186689504Y-94252007D01*
X186681446Y-94274529D01*
X186671218Y-94296153D01*
X186658921Y-94316670D01*
X186644671Y-94335883D01*
X186628607Y-94353607D01*
X186610883Y-94369671D01*
X186591670Y-94383921D01*
X186571153Y-94396218D01*
X186549529Y-94406446D01*
X186527007Y-94414504D01*
X186503803Y-94420316D01*
X186480142Y-94423826D01*
X186456250Y-94425000D01*
X185543750Y-94425000D01*
X185519858Y-94423826D01*
X185496197Y-94420316D01*
X185472993Y-94414504D01*
X185450471Y-94406446D01*
X185428847Y-94396218D01*
X185408330Y-94383921D01*
X185389117Y-94369671D01*
X185371393Y-94353607D01*
X185355329Y-94335883D01*
X185341079Y-94316670D01*
X185328782Y-94296153D01*
X185318554Y-94274529D01*
X185310496Y-94252007D01*
X185304684Y-94228803D01*
X185301174Y-94205142D01*
X185300000Y-94181250D01*
X185300000Y-93693750D01*
X185301174Y-93669858D01*
X185304684Y-93646197D01*
X185310496Y-93622993D01*
X185318554Y-93600471D01*
X185328782Y-93578847D01*
X185341079Y-93558330D01*
X185355329Y-93539117D01*
X185371393Y-93521393D01*
X185389117Y-93505329D01*
X185408330Y-93491079D01*
X185428847Y-93478782D01*
X185450471Y-93468554D01*
X185472993Y-93460496D01*
X185496197Y-93454684D01*
X185519858Y-93451174D01*
X185543750Y-93450000D01*
X186456250Y-93450000D01*
X186480142Y-93451174D01*
X186480142Y-93451174D01*
G37*
D11*
X186000000Y-93937500D03*
G04 #@! TD*
D10*
G04 #@! TO.C,F101*
G36*
X130649504Y-90976204D02*
X130673773Y-90979804D01*
X130697571Y-90985765D01*
X130720671Y-90994030D01*
X130742849Y-91004520D01*
X130763893Y-91017133D01*
X130783598Y-91031747D01*
X130801777Y-91048223D01*
X130818253Y-91066402D01*
X130832867Y-91086107D01*
X130845480Y-91107151D01*
X130855970Y-91129329D01*
X130864235Y-91152429D01*
X130870196Y-91176227D01*
X130873796Y-91200496D01*
X130875000Y-91225000D01*
X130875000Y-91975000D01*
X130873796Y-91999504D01*
X130870196Y-92023773D01*
X130864235Y-92047571D01*
X130855970Y-92070671D01*
X130845480Y-92092849D01*
X130832867Y-92113893D01*
X130818253Y-92133598D01*
X130801777Y-92151777D01*
X130783598Y-92168253D01*
X130763893Y-92182867D01*
X130742849Y-92195480D01*
X130720671Y-92205970D01*
X130697571Y-92214235D01*
X130673773Y-92220196D01*
X130649504Y-92223796D01*
X130625000Y-92225000D01*
X129375000Y-92225000D01*
X129350496Y-92223796D01*
X129326227Y-92220196D01*
X129302429Y-92214235D01*
X129279329Y-92205970D01*
X129257151Y-92195480D01*
X129236107Y-92182867D01*
X129216402Y-92168253D01*
X129198223Y-92151777D01*
X129181747Y-92133598D01*
X129167133Y-92113893D01*
X129154520Y-92092849D01*
X129144030Y-92070671D01*
X129135765Y-92047571D01*
X129129804Y-92023773D01*
X129126204Y-91999504D01*
X129125000Y-91975000D01*
X129125000Y-91225000D01*
X129126204Y-91200496D01*
X129129804Y-91176227D01*
X129135765Y-91152429D01*
X129144030Y-91129329D01*
X129154520Y-91107151D01*
X129167133Y-91086107D01*
X129181747Y-91066402D01*
X129198223Y-91048223D01*
X129216402Y-91031747D01*
X129236107Y-91017133D01*
X129257151Y-91004520D01*
X129279329Y-90994030D01*
X129302429Y-90985765D01*
X129326227Y-90979804D01*
X129350496Y-90976204D01*
X129375000Y-90975000D01*
X130625000Y-90975000D01*
X130649504Y-90976204D01*
X130649504Y-90976204D01*
G37*
D19*
X130000000Y-91600000D03*
D10*
G36*
X130649504Y-93776204D02*
X130673773Y-93779804D01*
X130697571Y-93785765D01*
X130720671Y-93794030D01*
X130742849Y-93804520D01*
X130763893Y-93817133D01*
X130783598Y-93831747D01*
X130801777Y-93848223D01*
X130818253Y-93866402D01*
X130832867Y-93886107D01*
X130845480Y-93907151D01*
X130855970Y-93929329D01*
X130864235Y-93952429D01*
X130870196Y-93976227D01*
X130873796Y-94000496D01*
X130875000Y-94025000D01*
X130875000Y-94775000D01*
X130873796Y-94799504D01*
X130870196Y-94823773D01*
X130864235Y-94847571D01*
X130855970Y-94870671D01*
X130845480Y-94892849D01*
X130832867Y-94913893D01*
X130818253Y-94933598D01*
X130801777Y-94951777D01*
X130783598Y-94968253D01*
X130763893Y-94982867D01*
X130742849Y-94995480D01*
X130720671Y-95005970D01*
X130697571Y-95014235D01*
X130673773Y-95020196D01*
X130649504Y-95023796D01*
X130625000Y-95025000D01*
X129375000Y-95025000D01*
X129350496Y-95023796D01*
X129326227Y-95020196D01*
X129302429Y-95014235D01*
X129279329Y-95005970D01*
X129257151Y-94995480D01*
X129236107Y-94982867D01*
X129216402Y-94968253D01*
X129198223Y-94951777D01*
X129181747Y-94933598D01*
X129167133Y-94913893D01*
X129154520Y-94892849D01*
X129144030Y-94870671D01*
X129135765Y-94847571D01*
X129129804Y-94823773D01*
X129126204Y-94799504D01*
X129125000Y-94775000D01*
X129125000Y-94025000D01*
X129126204Y-94000496D01*
X129129804Y-93976227D01*
X129135765Y-93952429D01*
X129144030Y-93929329D01*
X129154520Y-93907151D01*
X129167133Y-93886107D01*
X129181747Y-93866402D01*
X129198223Y-93848223D01*
X129216402Y-93831747D01*
X129236107Y-93817133D01*
X129257151Y-93804520D01*
X129279329Y-93794030D01*
X129302429Y-93785765D01*
X129326227Y-93779804D01*
X129350496Y-93776204D01*
X129375000Y-93775000D01*
X130625000Y-93775000D01*
X130649504Y-93776204D01*
X130649504Y-93776204D01*
G37*
D19*
X130000000Y-94400000D03*
G04 #@! TD*
D10*
G04 #@! TO.C,J101*
G36*
X98074002Y-99579178D02*
X98098120Y-99583675D01*
X98121681Y-99590514D01*
X98144458Y-99599630D01*
X98166233Y-99610935D01*
X98186794Y-99624320D01*
X98205944Y-99639655D01*
X98223499Y-99656794D01*
X98239290Y-99675571D01*
X98253164Y-99695805D01*
X98264987Y-99717301D01*
X98484173Y-100166698D01*
X98493833Y-100189250D01*
X98501236Y-100212640D01*
X98506311Y-100236644D01*
X98509009Y-100261029D01*
X98509303Y-100285561D01*
X98507192Y-100310004D01*
X98502694Y-100334122D01*
X98495855Y-100357683D01*
X98486739Y-100380460D01*
X98475434Y-100402234D01*
X98462049Y-100422796D01*
X98446714Y-100441946D01*
X98429575Y-100459501D01*
X98410799Y-100475291D01*
X98390565Y-100489165D01*
X98369068Y-100500990D01*
X95672686Y-101816103D01*
X95650134Y-101825763D01*
X95626743Y-101833165D01*
X95602740Y-101838240D01*
X95578355Y-101840938D01*
X95553823Y-101841232D01*
X95529380Y-101839120D01*
X95505262Y-101834623D01*
X95481701Y-101827784D01*
X95458924Y-101818668D01*
X95437149Y-101807363D01*
X95416588Y-101793978D01*
X95397438Y-101778643D01*
X95379883Y-101761504D01*
X95364092Y-101742727D01*
X95350218Y-101722493D01*
X95338395Y-101700997D01*
X95119209Y-101251600D01*
X95109549Y-101229048D01*
X95102146Y-101205658D01*
X95097071Y-101181654D01*
X95094373Y-101157269D01*
X95094079Y-101132737D01*
X95096190Y-101108294D01*
X95100688Y-101084176D01*
X95107527Y-101060615D01*
X95116643Y-101037838D01*
X95127948Y-101016064D01*
X95141333Y-100995502D01*
X95156668Y-100976352D01*
X95173807Y-100958797D01*
X95192583Y-100943007D01*
X95212817Y-100929133D01*
X95234314Y-100917308D01*
X97930696Y-99602195D01*
X97953248Y-99592535D01*
X97976639Y-99585133D01*
X98000642Y-99580058D01*
X98025027Y-99577360D01*
X98049559Y-99577066D01*
X98074002Y-99579178D01*
X98074002Y-99579178D01*
G37*
D20*
X96801691Y-100709149D03*
D10*
G36*
X98950745Y-101376764D02*
X98974863Y-101381261D01*
X98998424Y-101388100D01*
X99021201Y-101397216D01*
X99042976Y-101408521D01*
X99063537Y-101421906D01*
X99082687Y-101437241D01*
X99100242Y-101454380D01*
X99116033Y-101473157D01*
X99129907Y-101493391D01*
X99141730Y-101514887D01*
X99360916Y-101964284D01*
X99370576Y-101986836D01*
X99377979Y-102010226D01*
X99383054Y-102034230D01*
X99385752Y-102058615D01*
X99386046Y-102083147D01*
X99383935Y-102107590D01*
X99379437Y-102131708D01*
X99372598Y-102155269D01*
X99363482Y-102178046D01*
X99352177Y-102199820D01*
X99338792Y-102220382D01*
X99323457Y-102239532D01*
X99306318Y-102257087D01*
X99287542Y-102272877D01*
X99267308Y-102286751D01*
X99245811Y-102298576D01*
X96549429Y-103613689D01*
X96526877Y-103623349D01*
X96503486Y-103630751D01*
X96479483Y-103635826D01*
X96455098Y-103638524D01*
X96430566Y-103638818D01*
X96406123Y-103636706D01*
X96382005Y-103632209D01*
X96358444Y-103625370D01*
X96335667Y-103616254D01*
X96313892Y-103604949D01*
X96293331Y-103591564D01*
X96274181Y-103576229D01*
X96256626Y-103559090D01*
X96240835Y-103540313D01*
X96226961Y-103520079D01*
X96215138Y-103498583D01*
X95995952Y-103049186D01*
X95986292Y-103026634D01*
X95978889Y-103003244D01*
X95973814Y-102979240D01*
X95971116Y-102954855D01*
X95970822Y-102930323D01*
X95972933Y-102905880D01*
X95977431Y-102881762D01*
X95984270Y-102858201D01*
X95993386Y-102835424D01*
X96004691Y-102813650D01*
X96018076Y-102793088D01*
X96033411Y-102773938D01*
X96050550Y-102756383D01*
X96069326Y-102740593D01*
X96089560Y-102726719D01*
X96111057Y-102714894D01*
X98807439Y-101399781D01*
X98829991Y-101390121D01*
X98853382Y-101382719D01*
X98877385Y-101377644D01*
X98901770Y-101374946D01*
X98926302Y-101374652D01*
X98950745Y-101376764D01*
X98950745Y-101376764D01*
G37*
D20*
X97678434Y-102506735D03*
D10*
G36*
X91721233Y-99784865D02*
X91745351Y-99789362D01*
X91768912Y-99796201D01*
X91791689Y-99805317D01*
X91813464Y-99816622D01*
X91834025Y-99830007D01*
X91853175Y-99845342D01*
X91870730Y-99862481D01*
X91886521Y-99881258D01*
X91900395Y-99901492D01*
X91912219Y-99922988D01*
X92350590Y-100821782D01*
X92360250Y-100844334D01*
X92367652Y-100867725D01*
X92372727Y-100891728D01*
X92375425Y-100916113D01*
X92375719Y-100940645D01*
X92373607Y-100965088D01*
X92369110Y-100989206D01*
X92362271Y-101012767D01*
X92353155Y-101035544D01*
X92341850Y-101057319D01*
X92328465Y-101077880D01*
X92313130Y-101097030D01*
X92295991Y-101114585D01*
X92277214Y-101130376D01*
X92256980Y-101144250D01*
X92235484Y-101156074D01*
X89628981Y-102427350D01*
X89606429Y-102437010D01*
X89583038Y-102444412D01*
X89559035Y-102449487D01*
X89534650Y-102452185D01*
X89510118Y-102452479D01*
X89485675Y-102450367D01*
X89461557Y-102445870D01*
X89437996Y-102439031D01*
X89415219Y-102429915D01*
X89393444Y-102418610D01*
X89372883Y-102405225D01*
X89353733Y-102389890D01*
X89336178Y-102372751D01*
X89320387Y-102353974D01*
X89306513Y-102333740D01*
X89294689Y-102312244D01*
X88856318Y-101413450D01*
X88846658Y-101390898D01*
X88839256Y-101367507D01*
X88834181Y-101343504D01*
X88831483Y-101319119D01*
X88831189Y-101294587D01*
X88833301Y-101270144D01*
X88837798Y-101246026D01*
X88844637Y-101222465D01*
X88853753Y-101199688D01*
X88865058Y-101177913D01*
X88878443Y-101157352D01*
X88893778Y-101138202D01*
X88910917Y-101120647D01*
X88929694Y-101104856D01*
X88949928Y-101090982D01*
X88971424Y-101079158D01*
X91577927Y-99807882D01*
X91600479Y-99798222D01*
X91623870Y-99790820D01*
X91647873Y-99785745D01*
X91672258Y-99783047D01*
X91696790Y-99782753D01*
X91721233Y-99784865D01*
X91721233Y-99784865D01*
G37*
D21*
X90603454Y-101117616D03*
D10*
G36*
X94658321Y-105806785D02*
X94682439Y-105811282D01*
X94706000Y-105818121D01*
X94728777Y-105827237D01*
X94750552Y-105838542D01*
X94771113Y-105851927D01*
X94790263Y-105867262D01*
X94807818Y-105884401D01*
X94823609Y-105903178D01*
X94837483Y-105923412D01*
X94849307Y-105944908D01*
X95287678Y-106843702D01*
X95297338Y-106866254D01*
X95304740Y-106889645D01*
X95309815Y-106913648D01*
X95312513Y-106938033D01*
X95312807Y-106962565D01*
X95310695Y-106987008D01*
X95306198Y-107011126D01*
X95299359Y-107034687D01*
X95290243Y-107057464D01*
X95278938Y-107079239D01*
X95265553Y-107099800D01*
X95250218Y-107118950D01*
X95233079Y-107136505D01*
X95214302Y-107152296D01*
X95194068Y-107166170D01*
X95172572Y-107177994D01*
X92566069Y-108449270D01*
X92543517Y-108458930D01*
X92520126Y-108466332D01*
X92496123Y-108471407D01*
X92471738Y-108474105D01*
X92447206Y-108474399D01*
X92422763Y-108472287D01*
X92398645Y-108467790D01*
X92375084Y-108460951D01*
X92352307Y-108451835D01*
X92330532Y-108440530D01*
X92309971Y-108427145D01*
X92290821Y-108411810D01*
X92273266Y-108394671D01*
X92257475Y-108375894D01*
X92243601Y-108355660D01*
X92231777Y-108334164D01*
X91793406Y-107435370D01*
X91783746Y-107412818D01*
X91776344Y-107389427D01*
X91771269Y-107365424D01*
X91768571Y-107341039D01*
X91768277Y-107316507D01*
X91770389Y-107292064D01*
X91774886Y-107267946D01*
X91781725Y-107244385D01*
X91790841Y-107221608D01*
X91802146Y-107199833D01*
X91815531Y-107179272D01*
X91830866Y-107160122D01*
X91848005Y-107142567D01*
X91866782Y-107126776D01*
X91887016Y-107112902D01*
X91908512Y-107101078D01*
X94515015Y-105829802D01*
X94537567Y-105820142D01*
X94560958Y-105812740D01*
X94584961Y-105807665D01*
X94609346Y-105804967D01*
X94633878Y-105804673D01*
X94658321Y-105806785D01*
X94658321Y-105806785D01*
G37*
D21*
X93540542Y-107139536D03*
G04 #@! TD*
D22*
G04 #@! TO.C,SW101*
X145500000Y-94250000D03*
X148000000Y-94250000D03*
X150500000Y-94250000D03*
X150500000Y-99750000D03*
X148000000Y-99750000D03*
X145500000Y-99750000D03*
G04 #@! TD*
D23*
G04 #@! TO.C,J103*
X213588600Y-96202500D03*
D10*
G36*
X212064974Y-96338746D02*
X212129773Y-95742256D01*
X215112226Y-96066254D01*
X215047427Y-96662744D01*
X212064974Y-96338746D01*
X212064974Y-96338746D01*
G37*
G04 #@! TD*
D23*
G04 #@! TO.C,J102*
X213995000Y-93383100D03*
D10*
G36*
X212471374Y-93519346D02*
X212536173Y-92922856D01*
X215518626Y-93246854D01*
X215453827Y-93843344D01*
X212471374Y-93519346D01*
X212471374Y-93519346D01*
G37*
G04 #@! TD*
M02*
