M48
METRIC,TZ
T1C0.300
%
G90
G05
T1
X96900Y-104350
X97300Y-105250
X98250Y-103700
X98650Y-104550
X99650Y-103050
X100050Y-103950
X141000Y-97500
X156500Y-99950
X159400Y-98750
X161250Y-95600
X161600Y-100250
X161900Y-95600
X162400Y-100250
X162550Y-95600
X164950Y-98400
X167500Y-94050
X169400Y-99000
X170500Y-94050
X173550Y-94800
X173550Y-97050
X187850Y-93900
X212000Y-98300
X212100Y-97250
X213450Y-98450
X213550Y-97450
X214800Y-98600
X214900Y-97600
T0
M30
