G04 #@! TF.GenerationSoftware,KiCad,Pcbnew,(5.0.1)-3*
G04 #@! TF.CreationDate,2020-05-15T20:10:48+09:30*
G04 #@! TF.ProjectId,LED Left Glasses Arm (mcu),4C4544204C65667420476C6173736573,rev?*
G04 #@! TF.SameCoordinates,Original*
G04 #@! TF.FileFunction,Paste,Top*
G04 #@! TF.FilePolarity,Positive*
%FSLAX46Y46*%
G04 Gerber Fmt 4.6, Leading zero omitted, Abs format (unit mm)*
G04 Created by KiCad (PCBNEW (5.0.1)-3) date 15/05/2020 8:10:48 PM*
%MOMM*%
%LPD*%
G01*
G04 APERTURE LIST*
%ADD10C,0.001000*%
%ADD11R,1.500000X0.550000*%
%ADD12C,0.100000*%
%ADD13C,1.150000*%
%ADD14R,3.000000X0.600000*%
%ADD15R,0.725000X0.522000*%
%ADD16C,0.600000*%
%ADD17R,0.850000X0.250000*%
%ADD18R,0.250000X0.850000*%
%ADD19R,3.600000X3.600000*%
%ADD20R,1.200000X0.900000*%
%ADD21R,0.650000X1.060000*%
G04 APERTURE END LIST*
D10*
G04 #@! TO.C,MK101*
G36*
X119786378Y-93137800D02*
X119770546Y-93148384D01*
X119753253Y-93158981D01*
X119735543Y-93168865D01*
X119717446Y-93178020D01*
X119698990Y-93186430D01*
X119680208Y-93194083D01*
X119661129Y-93200964D01*
X119641786Y-93207063D01*
X119622211Y-93212369D01*
X119602437Y-93216874D01*
X119582495Y-93220570D01*
X119562419Y-93223451D01*
X119542242Y-93225512D01*
X119521999Y-93226750D01*
X119501721Y-93227163D01*
X119481444Y-93226750D01*
X119461201Y-93225512D01*
X119441024Y-93223451D01*
X119420948Y-93220570D01*
X119401006Y-93216874D01*
X119381232Y-93212369D01*
X119361657Y-93207063D01*
X119342314Y-93200964D01*
X119323235Y-93194083D01*
X119304453Y-93186430D01*
X119285997Y-93178020D01*
X119267900Y-93168865D01*
X119250190Y-93158981D01*
X119232897Y-93148384D01*
X119215037Y-93136380D01*
X119001491Y-93349930D01*
X119030181Y-93371341D01*
X119059789Y-93391463D01*
X119090258Y-93410256D01*
X119121528Y-93427684D01*
X119153537Y-93443713D01*
X119186224Y-93458312D01*
X119219524Y-93471452D01*
X119253372Y-93483106D01*
X119287702Y-93493254D01*
X119322447Y-93501874D01*
X119357540Y-93508950D01*
X119392910Y-93514468D01*
X119428490Y-93518417D01*
X119464210Y-93520789D01*
X119500000Y-93521580D01*
X119535790Y-93520789D01*
X119571510Y-93518417D01*
X119607090Y-93514468D01*
X119642460Y-93508950D01*
X119677553Y-93501874D01*
X119712298Y-93493254D01*
X119746628Y-93483106D01*
X119780476Y-93471452D01*
X119813776Y-93458312D01*
X119846463Y-93443713D01*
X119878472Y-93427684D01*
X119909742Y-93410256D01*
X119940211Y-93391463D01*
X119969819Y-93371341D01*
X119998509Y-93349930D01*
X119786378Y-93137800D01*
X119786378Y-93137800D01*
G37*
X119786378Y-93137800D02*
X119770546Y-93148384D01*
X119753253Y-93158981D01*
X119735543Y-93168865D01*
X119717446Y-93178020D01*
X119698990Y-93186430D01*
X119680208Y-93194083D01*
X119661129Y-93200964D01*
X119641786Y-93207063D01*
X119622211Y-93212369D01*
X119602437Y-93216874D01*
X119582495Y-93220570D01*
X119562419Y-93223451D01*
X119542242Y-93225512D01*
X119521999Y-93226750D01*
X119501721Y-93227163D01*
X119481444Y-93226750D01*
X119461201Y-93225512D01*
X119441024Y-93223451D01*
X119420948Y-93220570D01*
X119401006Y-93216874D01*
X119381232Y-93212369D01*
X119361657Y-93207063D01*
X119342314Y-93200964D01*
X119323235Y-93194083D01*
X119304453Y-93186430D01*
X119285997Y-93178020D01*
X119267900Y-93168865D01*
X119250190Y-93158981D01*
X119232897Y-93148384D01*
X119215037Y-93136380D01*
X119001491Y-93349930D01*
X119030181Y-93371341D01*
X119059789Y-93391463D01*
X119090258Y-93410256D01*
X119121528Y-93427684D01*
X119153537Y-93443713D01*
X119186224Y-93458312D01*
X119219524Y-93471452D01*
X119253372Y-93483106D01*
X119287702Y-93493254D01*
X119322447Y-93501874D01*
X119357540Y-93508950D01*
X119392910Y-93514468D01*
X119428490Y-93518417D01*
X119464210Y-93520789D01*
X119500000Y-93521580D01*
X119535790Y-93520789D01*
X119571510Y-93518417D01*
X119607090Y-93514468D01*
X119642460Y-93508950D01*
X119677553Y-93501874D01*
X119712298Y-93493254D01*
X119746628Y-93483106D01*
X119780476Y-93471452D01*
X119813776Y-93458312D01*
X119846463Y-93443713D01*
X119878472Y-93427684D01*
X119909742Y-93410256D01*
X119940211Y-93391463D01*
X119969819Y-93371341D01*
X119998509Y-93349930D01*
X119786378Y-93137800D01*
G36*
X119073616Y-92994962D02*
X119061984Y-92977631D01*
X119051400Y-92960360D01*
X119041528Y-92942672D01*
X119032384Y-92924597D01*
X119023984Y-92906164D01*
X119016341Y-92887405D01*
X119009469Y-92868350D01*
X119003378Y-92849031D01*
X118998078Y-92829481D01*
X118993579Y-92809730D01*
X118989887Y-92789813D01*
X118987010Y-92769762D01*
X118984951Y-92749611D01*
X118983714Y-92729392D01*
X118983302Y-92709140D01*
X118983714Y-92688888D01*
X118984951Y-92668669D01*
X118987010Y-92648518D01*
X118989887Y-92628467D01*
X118993579Y-92608550D01*
X118998078Y-92588800D01*
X119003378Y-92569249D01*
X119009469Y-92549930D01*
X119016341Y-92530875D01*
X119023984Y-92512116D01*
X119032384Y-92493684D01*
X119041528Y-92475608D01*
X119051400Y-92457920D01*
X119061984Y-92440649D01*
X119072909Y-92424328D01*
X118860069Y-92211487D01*
X118838658Y-92240177D01*
X118818536Y-92269786D01*
X118799743Y-92300254D01*
X118782314Y-92331524D01*
X118766285Y-92363534D01*
X118751686Y-92396221D01*
X118738547Y-92429521D01*
X118726892Y-92463369D01*
X118716744Y-92497699D01*
X118708124Y-92532445D01*
X118701049Y-92567537D01*
X118695531Y-92602908D01*
X118691582Y-92638489D01*
X118689209Y-92674209D01*
X118688418Y-92709999D01*
X118689209Y-92745788D01*
X118691582Y-92781508D01*
X118695531Y-92817089D01*
X118701049Y-92852460D01*
X118708124Y-92887552D01*
X118716744Y-92922298D01*
X118726892Y-92956628D01*
X118738547Y-92990476D01*
X118751686Y-93023776D01*
X118766285Y-93056463D01*
X118782314Y-93088473D01*
X118799743Y-93119743D01*
X118818536Y-93150211D01*
X118838658Y-93179820D01*
X118860069Y-93208510D01*
X119073616Y-92994962D01*
X119073616Y-92994962D01*
G37*
X119073616Y-92994962D02*
X119061984Y-92977631D01*
X119051400Y-92960360D01*
X119041528Y-92942672D01*
X119032384Y-92924597D01*
X119023984Y-92906164D01*
X119016341Y-92887405D01*
X119009469Y-92868350D01*
X119003378Y-92849031D01*
X118998078Y-92829481D01*
X118993579Y-92809730D01*
X118989887Y-92789813D01*
X118987010Y-92769762D01*
X118984951Y-92749611D01*
X118983714Y-92729392D01*
X118983302Y-92709140D01*
X118983714Y-92688888D01*
X118984951Y-92668669D01*
X118987010Y-92648518D01*
X118989887Y-92628467D01*
X118993579Y-92608550D01*
X118998078Y-92588800D01*
X119003378Y-92569249D01*
X119009469Y-92549930D01*
X119016341Y-92530875D01*
X119023984Y-92512116D01*
X119032384Y-92493684D01*
X119041528Y-92475608D01*
X119051400Y-92457920D01*
X119061984Y-92440649D01*
X119072909Y-92424328D01*
X118860069Y-92211487D01*
X118838658Y-92240177D01*
X118818536Y-92269786D01*
X118799743Y-92300254D01*
X118782314Y-92331524D01*
X118766285Y-92363534D01*
X118751686Y-92396221D01*
X118738547Y-92429521D01*
X118726892Y-92463369D01*
X118716744Y-92497699D01*
X118708124Y-92532445D01*
X118701049Y-92567537D01*
X118695531Y-92602908D01*
X118691582Y-92638489D01*
X118689209Y-92674209D01*
X118688418Y-92709999D01*
X118689209Y-92745788D01*
X118691582Y-92781508D01*
X118695531Y-92817089D01*
X118701049Y-92852460D01*
X118708124Y-92887552D01*
X118716744Y-92922298D01*
X118726892Y-92956628D01*
X118738547Y-92990476D01*
X118751686Y-93023776D01*
X118766285Y-93056463D01*
X118782314Y-93088473D01*
X118799743Y-93119743D01*
X118818536Y-93150211D01*
X118838658Y-93179820D01*
X118860069Y-93208510D01*
X119073616Y-92994962D01*
G36*
X119214331Y-92282906D02*
X119230653Y-92271980D01*
X119247924Y-92261397D01*
X119265612Y-92251525D01*
X119283687Y-92242381D01*
X119302119Y-92233981D01*
X119320879Y-92226338D01*
X119339933Y-92219466D01*
X119359252Y-92213374D01*
X119378803Y-92208075D01*
X119398553Y-92203575D01*
X119418470Y-92199884D01*
X119438521Y-92197007D01*
X119458672Y-92194948D01*
X119478891Y-92193711D01*
X119499143Y-92193299D01*
X119519395Y-92193711D01*
X119539613Y-92194948D01*
X119559765Y-92197007D01*
X119579816Y-92199884D01*
X119599733Y-92203575D01*
X119619483Y-92208075D01*
X119639034Y-92213374D01*
X119658352Y-92219466D01*
X119677407Y-92226338D01*
X119696166Y-92233981D01*
X119714599Y-92242381D01*
X119732674Y-92251525D01*
X119750362Y-92261397D01*
X119767633Y-92271980D01*
X119784963Y-92283612D01*
X119998509Y-92070066D01*
X119969819Y-92048655D01*
X119940211Y-92028533D01*
X119909742Y-92009740D01*
X119878472Y-91992311D01*
X119846463Y-91976282D01*
X119813776Y-91961684D01*
X119780476Y-91948544D01*
X119746628Y-91936889D01*
X119712298Y-91926742D01*
X119677553Y-91918122D01*
X119642460Y-91911046D01*
X119607090Y-91905528D01*
X119571510Y-91901579D01*
X119535790Y-91899207D01*
X119500000Y-91898415D01*
X119464210Y-91899207D01*
X119428490Y-91901579D01*
X119392910Y-91905528D01*
X119357540Y-91911046D01*
X119322447Y-91918122D01*
X119287702Y-91926742D01*
X119253372Y-91936889D01*
X119219524Y-91948544D01*
X119186224Y-91961684D01*
X119153537Y-91976282D01*
X119121528Y-91992311D01*
X119090258Y-92009740D01*
X119059789Y-92028533D01*
X119030181Y-92048655D01*
X119001491Y-92070066D01*
X119214331Y-92282906D01*
X119214331Y-92282906D01*
G37*
X119214331Y-92282906D02*
X119230653Y-92271980D01*
X119247924Y-92261397D01*
X119265612Y-92251525D01*
X119283687Y-92242381D01*
X119302119Y-92233981D01*
X119320879Y-92226338D01*
X119339933Y-92219466D01*
X119359252Y-92213374D01*
X119378803Y-92208075D01*
X119398553Y-92203575D01*
X119418470Y-92199884D01*
X119438521Y-92197007D01*
X119458672Y-92194948D01*
X119478891Y-92193711D01*
X119499143Y-92193299D01*
X119519395Y-92193711D01*
X119539613Y-92194948D01*
X119559765Y-92197007D01*
X119579816Y-92199884D01*
X119599733Y-92203575D01*
X119619483Y-92208075D01*
X119639034Y-92213374D01*
X119658352Y-92219466D01*
X119677407Y-92226338D01*
X119696166Y-92233981D01*
X119714599Y-92242381D01*
X119732674Y-92251525D01*
X119750362Y-92261397D01*
X119767633Y-92271980D01*
X119784963Y-92283612D01*
X119998509Y-92070066D01*
X119969819Y-92048655D01*
X119940211Y-92028533D01*
X119909742Y-92009740D01*
X119878472Y-91992311D01*
X119846463Y-91976282D01*
X119813776Y-91961684D01*
X119780476Y-91948544D01*
X119746628Y-91936889D01*
X119712298Y-91926742D01*
X119677553Y-91918122D01*
X119642460Y-91911046D01*
X119607090Y-91905528D01*
X119571510Y-91901579D01*
X119535790Y-91899207D01*
X119500000Y-91898415D01*
X119464210Y-91899207D01*
X119428490Y-91901579D01*
X119392910Y-91905528D01*
X119357540Y-91911046D01*
X119322447Y-91918122D01*
X119287702Y-91926742D01*
X119253372Y-91936889D01*
X119219524Y-91948544D01*
X119186224Y-91961684D01*
X119153537Y-91976282D01*
X119121528Y-91992311D01*
X119090258Y-92009740D01*
X119059789Y-92028533D01*
X119030181Y-92048655D01*
X119001491Y-92070066D01*
X119214331Y-92282906D01*
G36*
X119926384Y-92425034D02*
X119938384Y-92442889D01*
X119948981Y-92460182D01*
X119958865Y-92477892D01*
X119968021Y-92495990D01*
X119976431Y-92514445D01*
X119984083Y-92533228D01*
X119990965Y-92552306D01*
X119997063Y-92571649D01*
X120002370Y-92591224D01*
X120006875Y-92610999D01*
X120010571Y-92630941D01*
X120013452Y-92651017D01*
X120015513Y-92671194D01*
X120016751Y-92691438D01*
X120017164Y-92711715D01*
X120016751Y-92731992D01*
X120015513Y-92752236D01*
X120013452Y-92772413D01*
X120010571Y-92792489D01*
X120006875Y-92812431D01*
X120002370Y-92832206D01*
X119997063Y-92851781D01*
X119990965Y-92871124D01*
X119984083Y-92890202D01*
X119976431Y-92908985D01*
X119968021Y-92927440D01*
X119958865Y-92945538D01*
X119948981Y-92963248D01*
X119938384Y-92980541D01*
X119927797Y-92996378D01*
X120139931Y-93208510D01*
X120161342Y-93179820D01*
X120181464Y-93150211D01*
X120200257Y-93119743D01*
X120217686Y-93088473D01*
X120233715Y-93056463D01*
X120248314Y-93023776D01*
X120261453Y-92990476D01*
X120273108Y-92956628D01*
X120283256Y-92922298D01*
X120291876Y-92887552D01*
X120298951Y-92852460D01*
X120304469Y-92817089D01*
X120308418Y-92781508D01*
X120310791Y-92745788D01*
X120311582Y-92709999D01*
X120310791Y-92674209D01*
X120308418Y-92638489D01*
X120304469Y-92602908D01*
X120298951Y-92567537D01*
X120291876Y-92532445D01*
X120283256Y-92497699D01*
X120273108Y-92463369D01*
X120261453Y-92429521D01*
X120248314Y-92396221D01*
X120233715Y-92363534D01*
X120217686Y-92331524D01*
X120200257Y-92300254D01*
X120181464Y-92269786D01*
X120161342Y-92240177D01*
X120139931Y-92211487D01*
X119926384Y-92425034D01*
X119926384Y-92425034D01*
G37*
X119926384Y-92425034D02*
X119938384Y-92442889D01*
X119948981Y-92460182D01*
X119958865Y-92477892D01*
X119968021Y-92495990D01*
X119976431Y-92514445D01*
X119984083Y-92533228D01*
X119990965Y-92552306D01*
X119997063Y-92571649D01*
X120002370Y-92591224D01*
X120006875Y-92610999D01*
X120010571Y-92630941D01*
X120013452Y-92651017D01*
X120015513Y-92671194D01*
X120016751Y-92691438D01*
X120017164Y-92711715D01*
X120016751Y-92731992D01*
X120015513Y-92752236D01*
X120013452Y-92772413D01*
X120010571Y-92792489D01*
X120006875Y-92812431D01*
X120002370Y-92832206D01*
X119997063Y-92851781D01*
X119990965Y-92871124D01*
X119984083Y-92890202D01*
X119976431Y-92908985D01*
X119968021Y-92927440D01*
X119958865Y-92945538D01*
X119948981Y-92963248D01*
X119938384Y-92980541D01*
X119927797Y-92996378D01*
X120139931Y-93208510D01*
X120161342Y-93179820D01*
X120181464Y-93150211D01*
X120200257Y-93119743D01*
X120217686Y-93088473D01*
X120233715Y-93056463D01*
X120248314Y-93023776D01*
X120261453Y-92990476D01*
X120273108Y-92956628D01*
X120283256Y-92922298D01*
X120291876Y-92887552D01*
X120298951Y-92852460D01*
X120304469Y-92817089D01*
X120308418Y-92781508D01*
X120310791Y-92745788D01*
X120311582Y-92709999D01*
X120310791Y-92674209D01*
X120308418Y-92638489D01*
X120304469Y-92602908D01*
X120298951Y-92567537D01*
X120291876Y-92532445D01*
X120283256Y-92497699D01*
X120273108Y-92463369D01*
X120261453Y-92429521D01*
X120248314Y-92396221D01*
X120233715Y-92363534D01*
X120217686Y-92331524D01*
X120200257Y-92300254D01*
X120181464Y-92269786D01*
X120161342Y-92240177D01*
X120139931Y-92211487D01*
X119926384Y-92425034D01*
G04 #@! TD*
D11*
G04 #@! TO.C,SW102*
X107000000Y-93625000D03*
X107000000Y-90375000D03*
G04 #@! TD*
D12*
G04 #@! TO.C,C106*
G36*
X111474505Y-90401204D02*
X111498773Y-90404804D01*
X111522572Y-90410765D01*
X111545671Y-90419030D01*
X111567850Y-90429520D01*
X111588893Y-90442132D01*
X111608599Y-90456747D01*
X111626777Y-90473223D01*
X111643253Y-90491401D01*
X111657868Y-90511107D01*
X111670480Y-90532150D01*
X111680970Y-90554329D01*
X111689235Y-90577428D01*
X111695196Y-90601227D01*
X111698796Y-90625495D01*
X111700000Y-90649999D01*
X111700000Y-91300001D01*
X111698796Y-91324505D01*
X111695196Y-91348773D01*
X111689235Y-91372572D01*
X111680970Y-91395671D01*
X111670480Y-91417850D01*
X111657868Y-91438893D01*
X111643253Y-91458599D01*
X111626777Y-91476777D01*
X111608599Y-91493253D01*
X111588893Y-91507868D01*
X111567850Y-91520480D01*
X111545671Y-91530970D01*
X111522572Y-91539235D01*
X111498773Y-91545196D01*
X111474505Y-91548796D01*
X111450001Y-91550000D01*
X110549999Y-91550000D01*
X110525495Y-91548796D01*
X110501227Y-91545196D01*
X110477428Y-91539235D01*
X110454329Y-91530970D01*
X110432150Y-91520480D01*
X110411107Y-91507868D01*
X110391401Y-91493253D01*
X110373223Y-91476777D01*
X110356747Y-91458599D01*
X110342132Y-91438893D01*
X110329520Y-91417850D01*
X110319030Y-91395671D01*
X110310765Y-91372572D01*
X110304804Y-91348773D01*
X110301204Y-91324505D01*
X110300000Y-91300001D01*
X110300000Y-90649999D01*
X110301204Y-90625495D01*
X110304804Y-90601227D01*
X110310765Y-90577428D01*
X110319030Y-90554329D01*
X110329520Y-90532150D01*
X110342132Y-90511107D01*
X110356747Y-90491401D01*
X110373223Y-90473223D01*
X110391401Y-90456747D01*
X110411107Y-90442132D01*
X110432150Y-90429520D01*
X110454329Y-90419030D01*
X110477428Y-90410765D01*
X110501227Y-90404804D01*
X110525495Y-90401204D01*
X110549999Y-90400000D01*
X111450001Y-90400000D01*
X111474505Y-90401204D01*
X111474505Y-90401204D01*
G37*
D13*
X111000000Y-90975000D03*
D12*
G36*
X111474505Y-92451204D02*
X111498773Y-92454804D01*
X111522572Y-92460765D01*
X111545671Y-92469030D01*
X111567850Y-92479520D01*
X111588893Y-92492132D01*
X111608599Y-92506747D01*
X111626777Y-92523223D01*
X111643253Y-92541401D01*
X111657868Y-92561107D01*
X111670480Y-92582150D01*
X111680970Y-92604329D01*
X111689235Y-92627428D01*
X111695196Y-92651227D01*
X111698796Y-92675495D01*
X111700000Y-92699999D01*
X111700000Y-93350001D01*
X111698796Y-93374505D01*
X111695196Y-93398773D01*
X111689235Y-93422572D01*
X111680970Y-93445671D01*
X111670480Y-93467850D01*
X111657868Y-93488893D01*
X111643253Y-93508599D01*
X111626777Y-93526777D01*
X111608599Y-93543253D01*
X111588893Y-93557868D01*
X111567850Y-93570480D01*
X111545671Y-93580970D01*
X111522572Y-93589235D01*
X111498773Y-93595196D01*
X111474505Y-93598796D01*
X111450001Y-93600000D01*
X110549999Y-93600000D01*
X110525495Y-93598796D01*
X110501227Y-93595196D01*
X110477428Y-93589235D01*
X110454329Y-93580970D01*
X110432150Y-93570480D01*
X110411107Y-93557868D01*
X110391401Y-93543253D01*
X110373223Y-93526777D01*
X110356747Y-93508599D01*
X110342132Y-93488893D01*
X110329520Y-93467850D01*
X110319030Y-93445671D01*
X110310765Y-93422572D01*
X110304804Y-93398773D01*
X110301204Y-93374505D01*
X110300000Y-93350001D01*
X110300000Y-92699999D01*
X110301204Y-92675495D01*
X110304804Y-92651227D01*
X110310765Y-92627428D01*
X110319030Y-92604329D01*
X110329520Y-92582150D01*
X110342132Y-92561107D01*
X110356747Y-92541401D01*
X110373223Y-92523223D01*
X110391401Y-92506747D01*
X110411107Y-92492132D01*
X110432150Y-92479520D01*
X110454329Y-92469030D01*
X110477428Y-92460765D01*
X110501227Y-92454804D01*
X110525495Y-92451204D01*
X110549999Y-92450000D01*
X111450001Y-92450000D01*
X111474505Y-92451204D01*
X111474505Y-92451204D01*
G37*
D13*
X111000000Y-93025000D03*
G04 #@! TD*
D11*
G04 #@! TO.C,SW101*
X146000000Y-90375000D03*
X146000000Y-93625000D03*
G04 #@! TD*
D14*
G04 #@! TO.C,J102*
X151250000Y-95048000D03*
X151250000Y-93524000D03*
X151250000Y-90476000D03*
X151250000Y-92000000D03*
X151250000Y-88952000D03*
G04 #@! TD*
D15*
G04 #@! TO.C,MK101*
X120337500Y-91458000D03*
X120337500Y-90636000D03*
X118662500Y-91458000D03*
X118662500Y-90636000D03*
G04 #@! TD*
D16*
G04 #@! TO.C,J101*
X86718343Y-93098606D03*
D12*
G36*
X85286071Y-93635819D02*
X85189626Y-93043621D01*
X88150615Y-92561393D01*
X88247060Y-93153591D01*
X85286071Y-93635819D01*
X85286071Y-93635819D01*
G37*
D16*
X86963314Y-94602788D03*
D12*
G36*
X85531042Y-95140001D02*
X85434597Y-94547803D01*
X88395586Y-94065575D01*
X88492031Y-94657773D01*
X85531042Y-95140001D01*
X85531042Y-95140001D01*
G37*
D16*
X86473372Y-91594423D03*
D12*
G36*
X85041100Y-92131636D02*
X84944655Y-91539438D01*
X87905644Y-91057210D01*
X88002089Y-91649408D01*
X85041100Y-92131636D01*
X85041100Y-92131636D01*
G37*
G04 #@! TD*
D17*
G04 #@! TO.C,U102*
X127550000Y-90250000D03*
X127550000Y-90750000D03*
X127550000Y-91250000D03*
X127550000Y-91750000D03*
X127550000Y-92250000D03*
X127550000Y-92750000D03*
X127550000Y-93250000D03*
X127550000Y-93750000D03*
D18*
X128250000Y-94450000D03*
X128750000Y-94450000D03*
X129250000Y-94450000D03*
X129750000Y-94450000D03*
X130250000Y-94450000D03*
X130750000Y-94450000D03*
X131250000Y-94450000D03*
X131750000Y-94450000D03*
D17*
X132450000Y-93750000D03*
X132450000Y-93250000D03*
X132450000Y-92750000D03*
X132450000Y-92250000D03*
X132450000Y-91750000D03*
X132450000Y-91250000D03*
X132450000Y-90750000D03*
X132450000Y-90250000D03*
D18*
X131750000Y-89550000D03*
X131250000Y-89550000D03*
X130750000Y-89550000D03*
X130250000Y-89550000D03*
X129750000Y-89550000D03*
X129250000Y-89550000D03*
X128750000Y-89550000D03*
X128250000Y-89550000D03*
D19*
X130000000Y-92000000D03*
G04 #@! TD*
D12*
G04 #@! TO.C,C105*
G36*
X142474505Y-92451204D02*
X142498773Y-92454804D01*
X142522572Y-92460765D01*
X142545671Y-92469030D01*
X142567850Y-92479520D01*
X142588893Y-92492132D01*
X142608599Y-92506747D01*
X142626777Y-92523223D01*
X142643253Y-92541401D01*
X142657868Y-92561107D01*
X142670480Y-92582150D01*
X142680970Y-92604329D01*
X142689235Y-92627428D01*
X142695196Y-92651227D01*
X142698796Y-92675495D01*
X142700000Y-92699999D01*
X142700000Y-93350001D01*
X142698796Y-93374505D01*
X142695196Y-93398773D01*
X142689235Y-93422572D01*
X142680970Y-93445671D01*
X142670480Y-93467850D01*
X142657868Y-93488893D01*
X142643253Y-93508599D01*
X142626777Y-93526777D01*
X142608599Y-93543253D01*
X142588893Y-93557868D01*
X142567850Y-93570480D01*
X142545671Y-93580970D01*
X142522572Y-93589235D01*
X142498773Y-93595196D01*
X142474505Y-93598796D01*
X142450001Y-93600000D01*
X141549999Y-93600000D01*
X141525495Y-93598796D01*
X141501227Y-93595196D01*
X141477428Y-93589235D01*
X141454329Y-93580970D01*
X141432150Y-93570480D01*
X141411107Y-93557868D01*
X141391401Y-93543253D01*
X141373223Y-93526777D01*
X141356747Y-93508599D01*
X141342132Y-93488893D01*
X141329520Y-93467850D01*
X141319030Y-93445671D01*
X141310765Y-93422572D01*
X141304804Y-93398773D01*
X141301204Y-93374505D01*
X141300000Y-93350001D01*
X141300000Y-92699999D01*
X141301204Y-92675495D01*
X141304804Y-92651227D01*
X141310765Y-92627428D01*
X141319030Y-92604329D01*
X141329520Y-92582150D01*
X141342132Y-92561107D01*
X141356747Y-92541401D01*
X141373223Y-92523223D01*
X141391401Y-92506747D01*
X141411107Y-92492132D01*
X141432150Y-92479520D01*
X141454329Y-92469030D01*
X141477428Y-92460765D01*
X141501227Y-92454804D01*
X141525495Y-92451204D01*
X141549999Y-92450000D01*
X142450001Y-92450000D01*
X142474505Y-92451204D01*
X142474505Y-92451204D01*
G37*
D13*
X142000000Y-93025000D03*
D12*
G36*
X142474505Y-90401204D02*
X142498773Y-90404804D01*
X142522572Y-90410765D01*
X142545671Y-90419030D01*
X142567850Y-90429520D01*
X142588893Y-90442132D01*
X142608599Y-90456747D01*
X142626777Y-90473223D01*
X142643253Y-90491401D01*
X142657868Y-90511107D01*
X142670480Y-90532150D01*
X142680970Y-90554329D01*
X142689235Y-90577428D01*
X142695196Y-90601227D01*
X142698796Y-90625495D01*
X142700000Y-90649999D01*
X142700000Y-91300001D01*
X142698796Y-91324505D01*
X142695196Y-91348773D01*
X142689235Y-91372572D01*
X142680970Y-91395671D01*
X142670480Y-91417850D01*
X142657868Y-91438893D01*
X142643253Y-91458599D01*
X142626777Y-91476777D01*
X142608599Y-91493253D01*
X142588893Y-91507868D01*
X142567850Y-91520480D01*
X142545671Y-91530970D01*
X142522572Y-91539235D01*
X142498773Y-91545196D01*
X142474505Y-91548796D01*
X142450001Y-91550000D01*
X141549999Y-91550000D01*
X141525495Y-91548796D01*
X141501227Y-91545196D01*
X141477428Y-91539235D01*
X141454329Y-91530970D01*
X141432150Y-91520480D01*
X141411107Y-91507868D01*
X141391401Y-91493253D01*
X141373223Y-91476777D01*
X141356747Y-91458599D01*
X141342132Y-91438893D01*
X141329520Y-91417850D01*
X141319030Y-91395671D01*
X141310765Y-91372572D01*
X141304804Y-91348773D01*
X141301204Y-91324505D01*
X141300000Y-91300001D01*
X141300000Y-90649999D01*
X141301204Y-90625495D01*
X141304804Y-90601227D01*
X141310765Y-90577428D01*
X141319030Y-90554329D01*
X141329520Y-90532150D01*
X141342132Y-90511107D01*
X141356747Y-90491401D01*
X141373223Y-90473223D01*
X141391401Y-90456747D01*
X141411107Y-90442132D01*
X141432150Y-90429520D01*
X141454329Y-90419030D01*
X141477428Y-90410765D01*
X141501227Y-90404804D01*
X141525495Y-90401204D01*
X141549999Y-90400000D01*
X142450001Y-90400000D01*
X142474505Y-90401204D01*
X142474505Y-90401204D01*
G37*
D13*
X142000000Y-90975000D03*
G04 #@! TD*
D12*
G04 #@! TO.C,C104*
G36*
X116474505Y-92451204D02*
X116498773Y-92454804D01*
X116522572Y-92460765D01*
X116545671Y-92469030D01*
X116567850Y-92479520D01*
X116588893Y-92492132D01*
X116608599Y-92506747D01*
X116626777Y-92523223D01*
X116643253Y-92541401D01*
X116657868Y-92561107D01*
X116670480Y-92582150D01*
X116680970Y-92604329D01*
X116689235Y-92627428D01*
X116695196Y-92651227D01*
X116698796Y-92675495D01*
X116700000Y-92699999D01*
X116700000Y-93350001D01*
X116698796Y-93374505D01*
X116695196Y-93398773D01*
X116689235Y-93422572D01*
X116680970Y-93445671D01*
X116670480Y-93467850D01*
X116657868Y-93488893D01*
X116643253Y-93508599D01*
X116626777Y-93526777D01*
X116608599Y-93543253D01*
X116588893Y-93557868D01*
X116567850Y-93570480D01*
X116545671Y-93580970D01*
X116522572Y-93589235D01*
X116498773Y-93595196D01*
X116474505Y-93598796D01*
X116450001Y-93600000D01*
X115549999Y-93600000D01*
X115525495Y-93598796D01*
X115501227Y-93595196D01*
X115477428Y-93589235D01*
X115454329Y-93580970D01*
X115432150Y-93570480D01*
X115411107Y-93557868D01*
X115391401Y-93543253D01*
X115373223Y-93526777D01*
X115356747Y-93508599D01*
X115342132Y-93488893D01*
X115329520Y-93467850D01*
X115319030Y-93445671D01*
X115310765Y-93422572D01*
X115304804Y-93398773D01*
X115301204Y-93374505D01*
X115300000Y-93350001D01*
X115300000Y-92699999D01*
X115301204Y-92675495D01*
X115304804Y-92651227D01*
X115310765Y-92627428D01*
X115319030Y-92604329D01*
X115329520Y-92582150D01*
X115342132Y-92561107D01*
X115356747Y-92541401D01*
X115373223Y-92523223D01*
X115391401Y-92506747D01*
X115411107Y-92492132D01*
X115432150Y-92479520D01*
X115454329Y-92469030D01*
X115477428Y-92460765D01*
X115501227Y-92454804D01*
X115525495Y-92451204D01*
X115549999Y-92450000D01*
X116450001Y-92450000D01*
X116474505Y-92451204D01*
X116474505Y-92451204D01*
G37*
D13*
X116000000Y-93025000D03*
D12*
G36*
X116474505Y-90401204D02*
X116498773Y-90404804D01*
X116522572Y-90410765D01*
X116545671Y-90419030D01*
X116567850Y-90429520D01*
X116588893Y-90442132D01*
X116608599Y-90456747D01*
X116626777Y-90473223D01*
X116643253Y-90491401D01*
X116657868Y-90511107D01*
X116670480Y-90532150D01*
X116680970Y-90554329D01*
X116689235Y-90577428D01*
X116695196Y-90601227D01*
X116698796Y-90625495D01*
X116700000Y-90649999D01*
X116700000Y-91300001D01*
X116698796Y-91324505D01*
X116695196Y-91348773D01*
X116689235Y-91372572D01*
X116680970Y-91395671D01*
X116670480Y-91417850D01*
X116657868Y-91438893D01*
X116643253Y-91458599D01*
X116626777Y-91476777D01*
X116608599Y-91493253D01*
X116588893Y-91507868D01*
X116567850Y-91520480D01*
X116545671Y-91530970D01*
X116522572Y-91539235D01*
X116498773Y-91545196D01*
X116474505Y-91548796D01*
X116450001Y-91550000D01*
X115549999Y-91550000D01*
X115525495Y-91548796D01*
X115501227Y-91545196D01*
X115477428Y-91539235D01*
X115454329Y-91530970D01*
X115432150Y-91520480D01*
X115411107Y-91507868D01*
X115391401Y-91493253D01*
X115373223Y-91476777D01*
X115356747Y-91458599D01*
X115342132Y-91438893D01*
X115329520Y-91417850D01*
X115319030Y-91395671D01*
X115310765Y-91372572D01*
X115304804Y-91348773D01*
X115301204Y-91324505D01*
X115300000Y-91300001D01*
X115300000Y-90649999D01*
X115301204Y-90625495D01*
X115304804Y-90601227D01*
X115310765Y-90577428D01*
X115319030Y-90554329D01*
X115329520Y-90532150D01*
X115342132Y-90511107D01*
X115356747Y-90491401D01*
X115373223Y-90473223D01*
X115391401Y-90456747D01*
X115411107Y-90442132D01*
X115432150Y-90429520D01*
X115454329Y-90419030D01*
X115477428Y-90410765D01*
X115501227Y-90404804D01*
X115525495Y-90401204D01*
X115549999Y-90400000D01*
X116450001Y-90400000D01*
X116474505Y-90401204D01*
X116474505Y-90401204D01*
G37*
D13*
X116000000Y-90975000D03*
G04 #@! TD*
D12*
G04 #@! TO.C,C103*
G36*
X124974505Y-92451204D02*
X124998773Y-92454804D01*
X125022572Y-92460765D01*
X125045671Y-92469030D01*
X125067850Y-92479520D01*
X125088893Y-92492132D01*
X125108599Y-92506747D01*
X125126777Y-92523223D01*
X125143253Y-92541401D01*
X125157868Y-92561107D01*
X125170480Y-92582150D01*
X125180970Y-92604329D01*
X125189235Y-92627428D01*
X125195196Y-92651227D01*
X125198796Y-92675495D01*
X125200000Y-92699999D01*
X125200000Y-93350001D01*
X125198796Y-93374505D01*
X125195196Y-93398773D01*
X125189235Y-93422572D01*
X125180970Y-93445671D01*
X125170480Y-93467850D01*
X125157868Y-93488893D01*
X125143253Y-93508599D01*
X125126777Y-93526777D01*
X125108599Y-93543253D01*
X125088893Y-93557868D01*
X125067850Y-93570480D01*
X125045671Y-93580970D01*
X125022572Y-93589235D01*
X124998773Y-93595196D01*
X124974505Y-93598796D01*
X124950001Y-93600000D01*
X124049999Y-93600000D01*
X124025495Y-93598796D01*
X124001227Y-93595196D01*
X123977428Y-93589235D01*
X123954329Y-93580970D01*
X123932150Y-93570480D01*
X123911107Y-93557868D01*
X123891401Y-93543253D01*
X123873223Y-93526777D01*
X123856747Y-93508599D01*
X123842132Y-93488893D01*
X123829520Y-93467850D01*
X123819030Y-93445671D01*
X123810765Y-93422572D01*
X123804804Y-93398773D01*
X123801204Y-93374505D01*
X123800000Y-93350001D01*
X123800000Y-92699999D01*
X123801204Y-92675495D01*
X123804804Y-92651227D01*
X123810765Y-92627428D01*
X123819030Y-92604329D01*
X123829520Y-92582150D01*
X123842132Y-92561107D01*
X123856747Y-92541401D01*
X123873223Y-92523223D01*
X123891401Y-92506747D01*
X123911107Y-92492132D01*
X123932150Y-92479520D01*
X123954329Y-92469030D01*
X123977428Y-92460765D01*
X124001227Y-92454804D01*
X124025495Y-92451204D01*
X124049999Y-92450000D01*
X124950001Y-92450000D01*
X124974505Y-92451204D01*
X124974505Y-92451204D01*
G37*
D13*
X124500000Y-93025000D03*
D12*
G36*
X124974505Y-90401204D02*
X124998773Y-90404804D01*
X125022572Y-90410765D01*
X125045671Y-90419030D01*
X125067850Y-90429520D01*
X125088893Y-90442132D01*
X125108599Y-90456747D01*
X125126777Y-90473223D01*
X125143253Y-90491401D01*
X125157868Y-90511107D01*
X125170480Y-90532150D01*
X125180970Y-90554329D01*
X125189235Y-90577428D01*
X125195196Y-90601227D01*
X125198796Y-90625495D01*
X125200000Y-90649999D01*
X125200000Y-91300001D01*
X125198796Y-91324505D01*
X125195196Y-91348773D01*
X125189235Y-91372572D01*
X125180970Y-91395671D01*
X125170480Y-91417850D01*
X125157868Y-91438893D01*
X125143253Y-91458599D01*
X125126777Y-91476777D01*
X125108599Y-91493253D01*
X125088893Y-91507868D01*
X125067850Y-91520480D01*
X125045671Y-91530970D01*
X125022572Y-91539235D01*
X124998773Y-91545196D01*
X124974505Y-91548796D01*
X124950001Y-91550000D01*
X124049999Y-91550000D01*
X124025495Y-91548796D01*
X124001227Y-91545196D01*
X123977428Y-91539235D01*
X123954329Y-91530970D01*
X123932150Y-91520480D01*
X123911107Y-91507868D01*
X123891401Y-91493253D01*
X123873223Y-91476777D01*
X123856747Y-91458599D01*
X123842132Y-91438893D01*
X123829520Y-91417850D01*
X123819030Y-91395671D01*
X123810765Y-91372572D01*
X123804804Y-91348773D01*
X123801204Y-91324505D01*
X123800000Y-91300001D01*
X123800000Y-90649999D01*
X123801204Y-90625495D01*
X123804804Y-90601227D01*
X123810765Y-90577428D01*
X123819030Y-90554329D01*
X123829520Y-90532150D01*
X123842132Y-90511107D01*
X123856747Y-90491401D01*
X123873223Y-90473223D01*
X123891401Y-90456747D01*
X123911107Y-90442132D01*
X123932150Y-90429520D01*
X123954329Y-90419030D01*
X123977428Y-90410765D01*
X124001227Y-90404804D01*
X124025495Y-90401204D01*
X124049999Y-90400000D01*
X124950001Y-90400000D01*
X124974505Y-90401204D01*
X124974505Y-90401204D01*
G37*
D13*
X124500000Y-90975000D03*
G04 #@! TD*
D12*
G04 #@! TO.C,C102*
G36*
X102974505Y-90401204D02*
X102998773Y-90404804D01*
X103022572Y-90410765D01*
X103045671Y-90419030D01*
X103067850Y-90429520D01*
X103088893Y-90442132D01*
X103108599Y-90456747D01*
X103126777Y-90473223D01*
X103143253Y-90491401D01*
X103157868Y-90511107D01*
X103170480Y-90532150D01*
X103180970Y-90554329D01*
X103189235Y-90577428D01*
X103195196Y-90601227D01*
X103198796Y-90625495D01*
X103200000Y-90649999D01*
X103200000Y-91300001D01*
X103198796Y-91324505D01*
X103195196Y-91348773D01*
X103189235Y-91372572D01*
X103180970Y-91395671D01*
X103170480Y-91417850D01*
X103157868Y-91438893D01*
X103143253Y-91458599D01*
X103126777Y-91476777D01*
X103108599Y-91493253D01*
X103088893Y-91507868D01*
X103067850Y-91520480D01*
X103045671Y-91530970D01*
X103022572Y-91539235D01*
X102998773Y-91545196D01*
X102974505Y-91548796D01*
X102950001Y-91550000D01*
X102049999Y-91550000D01*
X102025495Y-91548796D01*
X102001227Y-91545196D01*
X101977428Y-91539235D01*
X101954329Y-91530970D01*
X101932150Y-91520480D01*
X101911107Y-91507868D01*
X101891401Y-91493253D01*
X101873223Y-91476777D01*
X101856747Y-91458599D01*
X101842132Y-91438893D01*
X101829520Y-91417850D01*
X101819030Y-91395671D01*
X101810765Y-91372572D01*
X101804804Y-91348773D01*
X101801204Y-91324505D01*
X101800000Y-91300001D01*
X101800000Y-90649999D01*
X101801204Y-90625495D01*
X101804804Y-90601227D01*
X101810765Y-90577428D01*
X101819030Y-90554329D01*
X101829520Y-90532150D01*
X101842132Y-90511107D01*
X101856747Y-90491401D01*
X101873223Y-90473223D01*
X101891401Y-90456747D01*
X101911107Y-90442132D01*
X101932150Y-90429520D01*
X101954329Y-90419030D01*
X101977428Y-90410765D01*
X102001227Y-90404804D01*
X102025495Y-90401204D01*
X102049999Y-90400000D01*
X102950001Y-90400000D01*
X102974505Y-90401204D01*
X102974505Y-90401204D01*
G37*
D13*
X102500000Y-90975000D03*
D12*
G36*
X102974505Y-92451204D02*
X102998773Y-92454804D01*
X103022572Y-92460765D01*
X103045671Y-92469030D01*
X103067850Y-92479520D01*
X103088893Y-92492132D01*
X103108599Y-92506747D01*
X103126777Y-92523223D01*
X103143253Y-92541401D01*
X103157868Y-92561107D01*
X103170480Y-92582150D01*
X103180970Y-92604329D01*
X103189235Y-92627428D01*
X103195196Y-92651227D01*
X103198796Y-92675495D01*
X103200000Y-92699999D01*
X103200000Y-93350001D01*
X103198796Y-93374505D01*
X103195196Y-93398773D01*
X103189235Y-93422572D01*
X103180970Y-93445671D01*
X103170480Y-93467850D01*
X103157868Y-93488893D01*
X103143253Y-93508599D01*
X103126777Y-93526777D01*
X103108599Y-93543253D01*
X103088893Y-93557868D01*
X103067850Y-93570480D01*
X103045671Y-93580970D01*
X103022572Y-93589235D01*
X102998773Y-93595196D01*
X102974505Y-93598796D01*
X102950001Y-93600000D01*
X102049999Y-93600000D01*
X102025495Y-93598796D01*
X102001227Y-93595196D01*
X101977428Y-93589235D01*
X101954329Y-93580970D01*
X101932150Y-93570480D01*
X101911107Y-93557868D01*
X101891401Y-93543253D01*
X101873223Y-93526777D01*
X101856747Y-93508599D01*
X101842132Y-93488893D01*
X101829520Y-93467850D01*
X101819030Y-93445671D01*
X101810765Y-93422572D01*
X101804804Y-93398773D01*
X101801204Y-93374505D01*
X101800000Y-93350001D01*
X101800000Y-92699999D01*
X101801204Y-92675495D01*
X101804804Y-92651227D01*
X101810765Y-92627428D01*
X101819030Y-92604329D01*
X101829520Y-92582150D01*
X101842132Y-92561107D01*
X101856747Y-92541401D01*
X101873223Y-92523223D01*
X101891401Y-92506747D01*
X101911107Y-92492132D01*
X101932150Y-92479520D01*
X101954329Y-92469030D01*
X101977428Y-92460765D01*
X102001227Y-92454804D01*
X102025495Y-92451204D01*
X102049999Y-92450000D01*
X102950001Y-92450000D01*
X102974505Y-92451204D01*
X102974505Y-92451204D01*
G37*
D13*
X102500000Y-93025000D03*
G04 #@! TD*
D12*
G04 #@! TO.C,C101*
G36*
X95974505Y-90401204D02*
X95998773Y-90404804D01*
X96022572Y-90410765D01*
X96045671Y-90419030D01*
X96067850Y-90429520D01*
X96088893Y-90442132D01*
X96108599Y-90456747D01*
X96126777Y-90473223D01*
X96143253Y-90491401D01*
X96157868Y-90511107D01*
X96170480Y-90532150D01*
X96180970Y-90554329D01*
X96189235Y-90577428D01*
X96195196Y-90601227D01*
X96198796Y-90625495D01*
X96200000Y-90649999D01*
X96200000Y-91300001D01*
X96198796Y-91324505D01*
X96195196Y-91348773D01*
X96189235Y-91372572D01*
X96180970Y-91395671D01*
X96170480Y-91417850D01*
X96157868Y-91438893D01*
X96143253Y-91458599D01*
X96126777Y-91476777D01*
X96108599Y-91493253D01*
X96088893Y-91507868D01*
X96067850Y-91520480D01*
X96045671Y-91530970D01*
X96022572Y-91539235D01*
X95998773Y-91545196D01*
X95974505Y-91548796D01*
X95950001Y-91550000D01*
X95049999Y-91550000D01*
X95025495Y-91548796D01*
X95001227Y-91545196D01*
X94977428Y-91539235D01*
X94954329Y-91530970D01*
X94932150Y-91520480D01*
X94911107Y-91507868D01*
X94891401Y-91493253D01*
X94873223Y-91476777D01*
X94856747Y-91458599D01*
X94842132Y-91438893D01*
X94829520Y-91417850D01*
X94819030Y-91395671D01*
X94810765Y-91372572D01*
X94804804Y-91348773D01*
X94801204Y-91324505D01*
X94800000Y-91300001D01*
X94800000Y-90649999D01*
X94801204Y-90625495D01*
X94804804Y-90601227D01*
X94810765Y-90577428D01*
X94819030Y-90554329D01*
X94829520Y-90532150D01*
X94842132Y-90511107D01*
X94856747Y-90491401D01*
X94873223Y-90473223D01*
X94891401Y-90456747D01*
X94911107Y-90442132D01*
X94932150Y-90429520D01*
X94954329Y-90419030D01*
X94977428Y-90410765D01*
X95001227Y-90404804D01*
X95025495Y-90401204D01*
X95049999Y-90400000D01*
X95950001Y-90400000D01*
X95974505Y-90401204D01*
X95974505Y-90401204D01*
G37*
D13*
X95500000Y-90975000D03*
D12*
G36*
X95974505Y-92451204D02*
X95998773Y-92454804D01*
X96022572Y-92460765D01*
X96045671Y-92469030D01*
X96067850Y-92479520D01*
X96088893Y-92492132D01*
X96108599Y-92506747D01*
X96126777Y-92523223D01*
X96143253Y-92541401D01*
X96157868Y-92561107D01*
X96170480Y-92582150D01*
X96180970Y-92604329D01*
X96189235Y-92627428D01*
X96195196Y-92651227D01*
X96198796Y-92675495D01*
X96200000Y-92699999D01*
X96200000Y-93350001D01*
X96198796Y-93374505D01*
X96195196Y-93398773D01*
X96189235Y-93422572D01*
X96180970Y-93445671D01*
X96170480Y-93467850D01*
X96157868Y-93488893D01*
X96143253Y-93508599D01*
X96126777Y-93526777D01*
X96108599Y-93543253D01*
X96088893Y-93557868D01*
X96067850Y-93570480D01*
X96045671Y-93580970D01*
X96022572Y-93589235D01*
X95998773Y-93595196D01*
X95974505Y-93598796D01*
X95950001Y-93600000D01*
X95049999Y-93600000D01*
X95025495Y-93598796D01*
X95001227Y-93595196D01*
X94977428Y-93589235D01*
X94954329Y-93580970D01*
X94932150Y-93570480D01*
X94911107Y-93557868D01*
X94891401Y-93543253D01*
X94873223Y-93526777D01*
X94856747Y-93508599D01*
X94842132Y-93488893D01*
X94829520Y-93467850D01*
X94819030Y-93445671D01*
X94810765Y-93422572D01*
X94804804Y-93398773D01*
X94801204Y-93374505D01*
X94800000Y-93350001D01*
X94800000Y-92699999D01*
X94801204Y-92675495D01*
X94804804Y-92651227D01*
X94810765Y-92627428D01*
X94819030Y-92604329D01*
X94829520Y-92582150D01*
X94842132Y-92561107D01*
X94856747Y-92541401D01*
X94873223Y-92523223D01*
X94891401Y-92506747D01*
X94911107Y-92492132D01*
X94932150Y-92479520D01*
X94954329Y-92469030D01*
X94977428Y-92460765D01*
X95001227Y-92454804D01*
X95025495Y-92451204D01*
X95049999Y-92450000D01*
X95950001Y-92450000D01*
X95974505Y-92451204D01*
X95974505Y-92451204D01*
G37*
D13*
X95500000Y-93025000D03*
G04 #@! TD*
D20*
G04 #@! TO.C,D101*
X92000000Y-94650000D03*
X92000000Y-91350000D03*
G04 #@! TD*
D21*
G04 #@! TO.C,U101*
X98050000Y-93100000D03*
X99000000Y-93100000D03*
X99950000Y-93100000D03*
X99950000Y-90900000D03*
X98050000Y-90900000D03*
G04 #@! TD*
D12*
G04 #@! TO.C,R101*
G36*
X137474505Y-92451204D02*
X137498773Y-92454804D01*
X137522572Y-92460765D01*
X137545671Y-92469030D01*
X137567850Y-92479520D01*
X137588893Y-92492132D01*
X137608599Y-92506747D01*
X137626777Y-92523223D01*
X137643253Y-92541401D01*
X137657868Y-92561107D01*
X137670480Y-92582150D01*
X137680970Y-92604329D01*
X137689235Y-92627428D01*
X137695196Y-92651227D01*
X137698796Y-92675495D01*
X137700000Y-92699999D01*
X137700000Y-93350001D01*
X137698796Y-93374505D01*
X137695196Y-93398773D01*
X137689235Y-93422572D01*
X137680970Y-93445671D01*
X137670480Y-93467850D01*
X137657868Y-93488893D01*
X137643253Y-93508599D01*
X137626777Y-93526777D01*
X137608599Y-93543253D01*
X137588893Y-93557868D01*
X137567850Y-93570480D01*
X137545671Y-93580970D01*
X137522572Y-93589235D01*
X137498773Y-93595196D01*
X137474505Y-93598796D01*
X137450001Y-93600000D01*
X136549999Y-93600000D01*
X136525495Y-93598796D01*
X136501227Y-93595196D01*
X136477428Y-93589235D01*
X136454329Y-93580970D01*
X136432150Y-93570480D01*
X136411107Y-93557868D01*
X136391401Y-93543253D01*
X136373223Y-93526777D01*
X136356747Y-93508599D01*
X136342132Y-93488893D01*
X136329520Y-93467850D01*
X136319030Y-93445671D01*
X136310765Y-93422572D01*
X136304804Y-93398773D01*
X136301204Y-93374505D01*
X136300000Y-93350001D01*
X136300000Y-92699999D01*
X136301204Y-92675495D01*
X136304804Y-92651227D01*
X136310765Y-92627428D01*
X136319030Y-92604329D01*
X136329520Y-92582150D01*
X136342132Y-92561107D01*
X136356747Y-92541401D01*
X136373223Y-92523223D01*
X136391401Y-92506747D01*
X136411107Y-92492132D01*
X136432150Y-92479520D01*
X136454329Y-92469030D01*
X136477428Y-92460765D01*
X136501227Y-92454804D01*
X136525495Y-92451204D01*
X136549999Y-92450000D01*
X137450001Y-92450000D01*
X137474505Y-92451204D01*
X137474505Y-92451204D01*
G37*
D13*
X137000000Y-93025000D03*
D12*
G36*
X137474505Y-90401204D02*
X137498773Y-90404804D01*
X137522572Y-90410765D01*
X137545671Y-90419030D01*
X137567850Y-90429520D01*
X137588893Y-90442132D01*
X137608599Y-90456747D01*
X137626777Y-90473223D01*
X137643253Y-90491401D01*
X137657868Y-90511107D01*
X137670480Y-90532150D01*
X137680970Y-90554329D01*
X137689235Y-90577428D01*
X137695196Y-90601227D01*
X137698796Y-90625495D01*
X137700000Y-90649999D01*
X137700000Y-91300001D01*
X137698796Y-91324505D01*
X137695196Y-91348773D01*
X137689235Y-91372572D01*
X137680970Y-91395671D01*
X137670480Y-91417850D01*
X137657868Y-91438893D01*
X137643253Y-91458599D01*
X137626777Y-91476777D01*
X137608599Y-91493253D01*
X137588893Y-91507868D01*
X137567850Y-91520480D01*
X137545671Y-91530970D01*
X137522572Y-91539235D01*
X137498773Y-91545196D01*
X137474505Y-91548796D01*
X137450001Y-91550000D01*
X136549999Y-91550000D01*
X136525495Y-91548796D01*
X136501227Y-91545196D01*
X136477428Y-91539235D01*
X136454329Y-91530970D01*
X136432150Y-91520480D01*
X136411107Y-91507868D01*
X136391401Y-91493253D01*
X136373223Y-91476777D01*
X136356747Y-91458599D01*
X136342132Y-91438893D01*
X136329520Y-91417850D01*
X136319030Y-91395671D01*
X136310765Y-91372572D01*
X136304804Y-91348773D01*
X136301204Y-91324505D01*
X136300000Y-91300001D01*
X136300000Y-90649999D01*
X136301204Y-90625495D01*
X136304804Y-90601227D01*
X136310765Y-90577428D01*
X136319030Y-90554329D01*
X136329520Y-90532150D01*
X136342132Y-90511107D01*
X136356747Y-90491401D01*
X136373223Y-90473223D01*
X136391401Y-90456747D01*
X136411107Y-90442132D01*
X136432150Y-90429520D01*
X136454329Y-90419030D01*
X136477428Y-90410765D01*
X136501227Y-90404804D01*
X136525495Y-90401204D01*
X136549999Y-90400000D01*
X137450001Y-90400000D01*
X137474505Y-90401204D01*
X137474505Y-90401204D01*
G37*
D13*
X137000000Y-90975000D03*
G04 #@! TD*
M02*
