M48
METRIC,TZ
T1C0.300
%
G90
G05
T1
X84625Y-95625
X87100Y-95625
X89300Y-94225
X95525Y-89500
X99000Y-94250
X102475Y-94675
X102525Y-89550
X106975Y-94875
X111000Y-94575
X114507Y-90118
X115143Y-89482
X116050Y-94525
X119500Y-94350
X123231Y-94869
X124050Y-89400
X124550Y-94650
X124950Y-89400
X125075Y-96700
X126150Y-92350
X126350Y-88125
X128532Y-95607
X129706Y-96206
X130300Y-86650
X137025Y-94650
X142000Y-89300
X146000Y-89175
X149050Y-91975
T0
M30
