G04 #@! TF.GenerationSoftware,KiCad,Pcbnew,(5.0.1)-3*
G04 #@! TF.CreationDate,2020-05-15T20:10:48+09:30*
G04 #@! TF.ProjectId,LED Left Glasses Arm (mcu),4C4544204C65667420476C6173736573,rev?*
G04 #@! TF.SameCoordinates,Original*
G04 #@! TF.FileFunction,Legend,Top*
G04 #@! TF.FilePolarity,Positive*
%FSLAX46Y46*%
G04 Gerber Fmt 4.6, Leading zero omitted, Abs format (unit mm)*
G04 Created by KiCad (PCBNEW (5.0.1)-3) date 15/05/2020 8:10:48 PM*
%MOMM*%
%LPD*%
G01*
G04 APERTURE LIST*
%ADD10C,0.150000*%
%ADD11C,0.120000*%
%ADD12C,0.127000*%
%ADD13C,0.200000*%
%ADD14C,0.250000*%
G04 APERTURE END LIST*
D10*
X84078038Y-95145979D02*
X84830141Y-95024165D01*
X83678038Y-92095979D02*
X84430141Y-91974165D01*
X84114997Y-92411124D02*
X83993182Y-91659020D01*
X81654640Y-94429860D02*
X81494758Y-93442724D01*
X81729791Y-93404657D01*
X81878424Y-93428823D01*
X81987664Y-93507609D01*
X82049897Y-93594009D01*
X82127357Y-93774422D01*
X82150197Y-93915441D01*
X82133644Y-94111080D01*
X82101864Y-94212707D01*
X82023078Y-94321946D01*
X81889672Y-94391793D01*
X81654640Y-94429860D01*
X82549089Y-93995553D02*
X83019154Y-93919419D01*
X82500756Y-94292819D02*
X82669921Y-93252389D01*
X83158847Y-94186232D01*
X83186992Y-93168642D02*
X83751070Y-93077281D01*
X83628912Y-94110098D02*
X83469031Y-93122961D01*
X84147310Y-93736698D02*
X84617375Y-93660564D01*
X84098977Y-94033964D02*
X84268141Y-92993534D01*
X84757068Y-93927376D01*
X155750000Y-93000000D02*
X155750000Y-94000000D01*
X154750000Y-93000000D02*
X155750000Y-93000000D01*
X154750000Y-94000000D02*
X154750000Y-93000000D01*
X153750000Y-94000000D02*
X154750000Y-94000000D01*
X153750000Y-93000000D02*
X153750000Y-94000000D01*
X153787976Y-95404761D02*
X153930833Y-95452380D01*
X154168928Y-95452380D01*
X154264166Y-95404761D01*
X154311785Y-95357142D01*
X154359404Y-95261904D01*
X154359404Y-95166666D01*
X154311785Y-95071428D01*
X154264166Y-95023809D01*
X154168928Y-94976190D01*
X153978452Y-94928571D01*
X153883214Y-94880952D01*
X153835595Y-94833333D01*
X153787976Y-94738095D01*
X153787976Y-94642857D01*
X153835595Y-94547619D01*
X153883214Y-94500000D01*
X153978452Y-94452380D01*
X154216547Y-94452380D01*
X154359404Y-94500000D01*
X154692738Y-94452380D02*
X154930833Y-95452380D01*
X155121309Y-94738095D01*
X155311785Y-95452380D01*
X155549880Y-94452380D01*
X155930833Y-95452380D02*
X155930833Y-94452380D01*
X156168928Y-94452380D01*
X156311785Y-94500000D01*
X156407023Y-94595238D01*
X156454642Y-94690476D01*
X156502261Y-94880952D01*
X156502261Y-95023809D01*
X156454642Y-95214285D01*
X156407023Y-95309523D01*
X156311785Y-95404761D01*
X156168928Y-95452380D01*
X155930833Y-95452380D01*
X156930833Y-95452380D02*
X156930833Y-94452380D01*
X157597500Y-94452380D02*
X157787976Y-94452380D01*
X157883214Y-94500000D01*
X157978452Y-94595238D01*
X158026071Y-94785714D01*
X158026071Y-95119047D01*
X157978452Y-95309523D01*
X157883214Y-95404761D01*
X157787976Y-95452380D01*
X157597500Y-95452380D01*
X157502261Y-95404761D01*
X157407023Y-95309523D01*
X157359404Y-95119047D01*
X157359404Y-94785714D01*
X157407023Y-94595238D01*
X157502261Y-94500000D01*
X157597500Y-94452380D01*
X153835595Y-92071428D02*
X154597500Y-92071428D01*
X153835595Y-90952380D02*
X153835595Y-89952380D01*
X154407023Y-90952380D01*
X154407023Y-89952380D01*
X155454642Y-90952380D02*
X155121309Y-90476190D01*
X154883214Y-90952380D02*
X154883214Y-89952380D01*
X155264166Y-89952380D01*
X155359404Y-90000000D01*
X155407023Y-90047619D01*
X155454642Y-90142857D01*
X155454642Y-90285714D01*
X155407023Y-90380952D01*
X155359404Y-90428571D01*
X155264166Y-90476190D01*
X154883214Y-90476190D01*
X155835595Y-90904761D02*
X155978452Y-90952380D01*
X156216547Y-90952380D01*
X156311785Y-90904761D01*
X156359404Y-90857142D01*
X156407023Y-90761904D01*
X156407023Y-90666666D01*
X156359404Y-90571428D01*
X156311785Y-90523809D01*
X156216547Y-90476190D01*
X156026071Y-90428571D01*
X155930833Y-90380952D01*
X155883214Y-90333333D01*
X155835595Y-90238095D01*
X155835595Y-90142857D01*
X155883214Y-90047619D01*
X155930833Y-90000000D01*
X156026071Y-89952380D01*
X156264166Y-89952380D01*
X156407023Y-90000000D01*
X156692738Y-89952380D02*
X157264166Y-89952380D01*
X156978452Y-90952380D02*
X156978452Y-89952380D01*
X153835595Y-88821428D02*
X154597500Y-88821428D01*
X154216547Y-89202380D02*
X154216547Y-88440476D01*
D11*
G04 #@! TO.C,SW102*
X105880000Y-93620000D02*
X105880000Y-90380000D01*
X105880000Y-90380000D02*
X105980000Y-90380000D01*
X105880000Y-93620000D02*
X105980000Y-93620000D01*
X108120000Y-93620000D02*
X108120000Y-90380000D01*
X108020000Y-90380000D02*
X108120000Y-90380000D01*
X108020000Y-93620000D02*
X108120000Y-93620000D01*
G04 #@! TO.C,C106*
X111710000Y-91738748D02*
X111710000Y-92261252D01*
X110290000Y-91738748D02*
X110290000Y-92261252D01*
G04 #@! TO.C,SW101*
X147120000Y-90380000D02*
X147120000Y-93620000D01*
X147120000Y-93620000D02*
X147020000Y-93620000D01*
X147120000Y-90380000D02*
X147020000Y-90380000D01*
X144880000Y-90380000D02*
X144880000Y-93620000D01*
X144980000Y-93620000D02*
X144880000Y-93620000D01*
X144980000Y-90380000D02*
X144880000Y-90380000D01*
D10*
G04 #@! TO.C,J102*
X153028000Y-88444000D02*
X149472000Y-88444000D01*
X153028000Y-95556000D02*
X153028000Y-88444000D01*
X149472000Y-95556000D02*
X153028000Y-95556000D01*
X149472000Y-88444000D02*
X149472000Y-95556000D01*
D12*
G04 #@! TO.C,MK101*
X119800000Y-90250000D02*
X119200000Y-90250000D01*
X120825000Y-93750000D02*
X120825000Y-91950000D01*
X118175000Y-93750000D02*
X120825000Y-93750000D01*
X118175000Y-91950000D02*
X118175000Y-93750000D01*
D13*
X117700000Y-90623000D02*
G75*
G03X117700000Y-90623000I-100000J0D01*
G01*
D10*
G04 #@! TO.C,J101*
X88146593Y-90807229D02*
X84636834Y-91378830D01*
X88799851Y-94818382D02*
X88146593Y-90807229D01*
X85290092Y-95389983D02*
X88799851Y-94818382D01*
X84636834Y-91378830D02*
X85290092Y-95389983D01*
D14*
G04 #@! TO.C,U102*
X127250000Y-89500000D02*
G75*
G03X127250000Y-89500000I-125000J0D01*
G01*
D11*
G04 #@! TO.C,C105*
X141290000Y-92261252D02*
X141290000Y-91738748D01*
X142710000Y-92261252D02*
X142710000Y-91738748D01*
G04 #@! TO.C,C104*
X115290000Y-91738748D02*
X115290000Y-92261252D01*
X116710000Y-91738748D02*
X116710000Y-92261252D01*
G04 #@! TO.C,C103*
X123790000Y-92261252D02*
X123790000Y-91738748D01*
X125210000Y-92261252D02*
X125210000Y-91738748D01*
G04 #@! TO.C,C102*
X103210000Y-92261252D02*
X103210000Y-91738748D01*
X101790000Y-92261252D02*
X101790000Y-91738748D01*
G04 #@! TO.C,C101*
X96210000Y-91738748D02*
X96210000Y-92261252D01*
X94790000Y-91738748D02*
X94790000Y-92261252D01*
G04 #@! TO.C,D101*
X91000000Y-95250000D02*
X93000000Y-95250000D01*
X93000000Y-95250000D02*
X93000000Y-91350000D01*
X91000000Y-95250000D02*
X91000000Y-91350000D01*
G04 #@! TO.C,U101*
X100610000Y-92900000D02*
X100610000Y-91100000D01*
X97390000Y-91100000D02*
X97390000Y-93550000D01*
G04 #@! TO.C,R101*
X136290000Y-91738748D02*
X136290000Y-92261252D01*
X137710000Y-91738748D02*
X137710000Y-92261252D01*
G04 #@! TO.C,SW102*
D10*
X104714285Y-95904761D02*
X104857142Y-95952380D01*
X105095238Y-95952380D01*
X105190476Y-95904761D01*
X105238095Y-95857142D01*
X105285714Y-95761904D01*
X105285714Y-95666666D01*
X105238095Y-95571428D01*
X105190476Y-95523809D01*
X105095238Y-95476190D01*
X104904761Y-95428571D01*
X104809523Y-95380952D01*
X104761904Y-95333333D01*
X104714285Y-95238095D01*
X104714285Y-95142857D01*
X104761904Y-95047619D01*
X104809523Y-95000000D01*
X104904761Y-94952380D01*
X105142857Y-94952380D01*
X105285714Y-95000000D01*
X105619047Y-94952380D02*
X105857142Y-95952380D01*
X106047619Y-95238095D01*
X106238095Y-95952380D01*
X106476190Y-94952380D01*
X107380952Y-95952380D02*
X106809523Y-95952380D01*
X107095238Y-95952380D02*
X107095238Y-94952380D01*
X107000000Y-95095238D01*
X106904761Y-95190476D01*
X106809523Y-95238095D01*
X108000000Y-94952380D02*
X108095238Y-94952380D01*
X108190476Y-95000000D01*
X108238095Y-95047619D01*
X108285714Y-95142857D01*
X108333333Y-95333333D01*
X108333333Y-95571428D01*
X108285714Y-95761904D01*
X108238095Y-95857142D01*
X108190476Y-95904761D01*
X108095238Y-95952380D01*
X108000000Y-95952380D01*
X107904761Y-95904761D01*
X107857142Y-95857142D01*
X107809523Y-95761904D01*
X107761904Y-95571428D01*
X107761904Y-95333333D01*
X107809523Y-95142857D01*
X107857142Y-95047619D01*
X107904761Y-95000000D01*
X108000000Y-94952380D01*
X108714285Y-95047619D02*
X108761904Y-95000000D01*
X108857142Y-94952380D01*
X109095238Y-94952380D01*
X109190476Y-95000000D01*
X109238095Y-95047619D01*
X109285714Y-95142857D01*
X109285714Y-95238095D01*
X109238095Y-95380952D01*
X108666666Y-95952380D01*
X109285714Y-95952380D01*
G04 #@! TO.C,C106*
X109880952Y-89357142D02*
X109833333Y-89404761D01*
X109690476Y-89452380D01*
X109595238Y-89452380D01*
X109452380Y-89404761D01*
X109357142Y-89309523D01*
X109309523Y-89214285D01*
X109261904Y-89023809D01*
X109261904Y-88880952D01*
X109309523Y-88690476D01*
X109357142Y-88595238D01*
X109452380Y-88500000D01*
X109595238Y-88452380D01*
X109690476Y-88452380D01*
X109833333Y-88500000D01*
X109880952Y-88547619D01*
X110833333Y-89452380D02*
X110261904Y-89452380D01*
X110547619Y-89452380D02*
X110547619Y-88452380D01*
X110452380Y-88595238D01*
X110357142Y-88690476D01*
X110261904Y-88738095D01*
X111452380Y-88452380D02*
X111547619Y-88452380D01*
X111642857Y-88500000D01*
X111690476Y-88547619D01*
X111738095Y-88642857D01*
X111785714Y-88833333D01*
X111785714Y-89071428D01*
X111738095Y-89261904D01*
X111690476Y-89357142D01*
X111642857Y-89404761D01*
X111547619Y-89452380D01*
X111452380Y-89452380D01*
X111357142Y-89404761D01*
X111309523Y-89357142D01*
X111261904Y-89261904D01*
X111214285Y-89071428D01*
X111214285Y-88833333D01*
X111261904Y-88642857D01*
X111309523Y-88547619D01*
X111357142Y-88500000D01*
X111452380Y-88452380D01*
X112642857Y-88452380D02*
X112452380Y-88452380D01*
X112357142Y-88500000D01*
X112309523Y-88547619D01*
X112214285Y-88690476D01*
X112166666Y-88880952D01*
X112166666Y-89261904D01*
X112214285Y-89357142D01*
X112261904Y-89404761D01*
X112357142Y-89452380D01*
X112547619Y-89452380D01*
X112642857Y-89404761D01*
X112690476Y-89357142D01*
X112738095Y-89261904D01*
X112738095Y-89023809D01*
X112690476Y-88928571D01*
X112642857Y-88880952D01*
X112547619Y-88833333D01*
X112357142Y-88833333D01*
X112261904Y-88880952D01*
X112214285Y-88928571D01*
X112166666Y-89023809D01*
G04 #@! TO.C,SW101*
X143714285Y-95904761D02*
X143857142Y-95952380D01*
X144095238Y-95952380D01*
X144190476Y-95904761D01*
X144238095Y-95857142D01*
X144285714Y-95761904D01*
X144285714Y-95666666D01*
X144238095Y-95571428D01*
X144190476Y-95523809D01*
X144095238Y-95476190D01*
X143904761Y-95428571D01*
X143809523Y-95380952D01*
X143761904Y-95333333D01*
X143714285Y-95238095D01*
X143714285Y-95142857D01*
X143761904Y-95047619D01*
X143809523Y-95000000D01*
X143904761Y-94952380D01*
X144142857Y-94952380D01*
X144285714Y-95000000D01*
X144619047Y-94952380D02*
X144857142Y-95952380D01*
X145047619Y-95238095D01*
X145238095Y-95952380D01*
X145476190Y-94952380D01*
X146380952Y-95952380D02*
X145809523Y-95952380D01*
X146095238Y-95952380D02*
X146095238Y-94952380D01*
X146000000Y-95095238D01*
X145904761Y-95190476D01*
X145809523Y-95238095D01*
X147000000Y-94952380D02*
X147095238Y-94952380D01*
X147190476Y-95000000D01*
X147238095Y-95047619D01*
X147285714Y-95142857D01*
X147333333Y-95333333D01*
X147333333Y-95571428D01*
X147285714Y-95761904D01*
X147238095Y-95857142D01*
X147190476Y-95904761D01*
X147095238Y-95952380D01*
X147000000Y-95952380D01*
X146904761Y-95904761D01*
X146857142Y-95857142D01*
X146809523Y-95761904D01*
X146761904Y-95571428D01*
X146761904Y-95333333D01*
X146809523Y-95142857D01*
X146857142Y-95047619D01*
X146904761Y-95000000D01*
X147000000Y-94952380D01*
X148285714Y-95952380D02*
X147714285Y-95952380D01*
X148000000Y-95952380D02*
X148000000Y-94952380D01*
X147904761Y-95095238D01*
X147809523Y-95190476D01*
X147714285Y-95238095D01*
G04 #@! TO.C,J102*
X149964285Y-86452380D02*
X149964285Y-87166666D01*
X149916666Y-87309523D01*
X149821428Y-87404761D01*
X149678571Y-87452380D01*
X149583333Y-87452380D01*
X150964285Y-87452380D02*
X150392857Y-87452380D01*
X150678571Y-87452380D02*
X150678571Y-86452380D01*
X150583333Y-86595238D01*
X150488095Y-86690476D01*
X150392857Y-86738095D01*
X151583333Y-86452380D02*
X151678571Y-86452380D01*
X151773809Y-86500000D01*
X151821428Y-86547619D01*
X151869047Y-86642857D01*
X151916666Y-86833333D01*
X151916666Y-87071428D01*
X151869047Y-87261904D01*
X151821428Y-87357142D01*
X151773809Y-87404761D01*
X151678571Y-87452380D01*
X151583333Y-87452380D01*
X151488095Y-87404761D01*
X151440476Y-87357142D01*
X151392857Y-87261904D01*
X151345238Y-87071428D01*
X151345238Y-86833333D01*
X151392857Y-86642857D01*
X151440476Y-86547619D01*
X151488095Y-86500000D01*
X151583333Y-86452380D01*
X152297619Y-86547619D02*
X152345238Y-86500000D01*
X152440476Y-86452380D01*
X152678571Y-86452380D01*
X152773809Y-86500000D01*
X152821428Y-86547619D01*
X152869047Y-86642857D01*
X152869047Y-86738095D01*
X152821428Y-86880952D01*
X152250000Y-87452380D01*
X152869047Y-87452380D01*
G04 #@! TO.C,MK101*
X117238095Y-89452380D02*
X117238095Y-88452380D01*
X117571428Y-89166666D01*
X117904761Y-88452380D01*
X117904761Y-89452380D01*
X118380952Y-89452380D02*
X118380952Y-88452380D01*
X118952380Y-89452380D02*
X118523809Y-88880952D01*
X118952380Y-88452380D02*
X118380952Y-89023809D01*
X119904761Y-89452380D02*
X119333333Y-89452380D01*
X119619047Y-89452380D02*
X119619047Y-88452380D01*
X119523809Y-88595238D01*
X119428571Y-88690476D01*
X119333333Y-88738095D01*
X120523809Y-88452380D02*
X120619047Y-88452380D01*
X120714285Y-88500000D01*
X120761904Y-88547619D01*
X120809523Y-88642857D01*
X120857142Y-88833333D01*
X120857142Y-89071428D01*
X120809523Y-89261904D01*
X120761904Y-89357142D01*
X120714285Y-89404761D01*
X120619047Y-89452380D01*
X120523809Y-89452380D01*
X120428571Y-89404761D01*
X120380952Y-89357142D01*
X120333333Y-89261904D01*
X120285714Y-89071428D01*
X120285714Y-88833333D01*
X120333333Y-88642857D01*
X120380952Y-88547619D01*
X120428571Y-88500000D01*
X120523809Y-88452380D01*
X121809523Y-89452380D02*
X121238095Y-89452380D01*
X121523809Y-89452380D02*
X121523809Y-88452380D01*
X121428571Y-88595238D01*
X121333333Y-88690476D01*
X121238095Y-88738095D01*
G04 #@! TO.C,J101*
X84871377Y-89756412D02*
X84986194Y-90461409D01*
X84962157Y-90610063D01*
X84883466Y-90719371D01*
X84750121Y-90789334D01*
X84656121Y-90804643D01*
X86019116Y-90582665D02*
X85455118Y-90674518D01*
X85737117Y-90628592D02*
X85576375Y-89641595D01*
X85505338Y-89797904D01*
X85426648Y-89907212D01*
X85340302Y-89969521D01*
X86469372Y-89496162D02*
X86563371Y-89480853D01*
X86665025Y-89512544D01*
X86719680Y-89551889D01*
X86781988Y-89638234D01*
X86859606Y-89818579D01*
X86897878Y-90053579D01*
X86881495Y-90249232D01*
X86849804Y-90350886D01*
X86810459Y-90405541D01*
X86724114Y-90467849D01*
X86630114Y-90483158D01*
X86528460Y-90451467D01*
X86473806Y-90412122D01*
X86411497Y-90325776D01*
X86333880Y-90145431D01*
X86295608Y-89910432D01*
X86311990Y-89714779D01*
X86343681Y-89613125D01*
X86383026Y-89558470D01*
X86469372Y-89496162D01*
X87899109Y-90276489D02*
X87335112Y-90368342D01*
X87617111Y-90322415D02*
X87456368Y-89335419D01*
X87385332Y-89491727D01*
X87306641Y-89601036D01*
X87220295Y-89663344D01*
G04 #@! TO.C,U102*
X128285714Y-86952380D02*
X128285714Y-87761904D01*
X128333333Y-87857142D01*
X128380952Y-87904761D01*
X128476190Y-87952380D01*
X128666666Y-87952380D01*
X128761904Y-87904761D01*
X128809523Y-87857142D01*
X128857142Y-87761904D01*
X128857142Y-86952380D01*
X129857142Y-87952380D02*
X129285714Y-87952380D01*
X129571428Y-87952380D02*
X129571428Y-86952380D01*
X129476190Y-87095238D01*
X129380952Y-87190476D01*
X129285714Y-87238095D01*
X130476190Y-86952380D02*
X130571428Y-86952380D01*
X130666666Y-87000000D01*
X130714285Y-87047619D01*
X130761904Y-87142857D01*
X130809523Y-87333333D01*
X130809523Y-87571428D01*
X130761904Y-87761904D01*
X130714285Y-87857142D01*
X130666666Y-87904761D01*
X130571428Y-87952380D01*
X130476190Y-87952380D01*
X130380952Y-87904761D01*
X130333333Y-87857142D01*
X130285714Y-87761904D01*
X130238095Y-87571428D01*
X130238095Y-87333333D01*
X130285714Y-87142857D01*
X130333333Y-87047619D01*
X130380952Y-87000000D01*
X130476190Y-86952380D01*
X131190476Y-87047619D02*
X131238095Y-87000000D01*
X131333333Y-86952380D01*
X131571428Y-86952380D01*
X131666666Y-87000000D01*
X131714285Y-87047619D01*
X131761904Y-87142857D01*
X131761904Y-87238095D01*
X131714285Y-87380952D01*
X131142857Y-87952380D01*
X131761904Y-87952380D01*
G04 #@! TO.C,C105*
X140880952Y-88857142D02*
X140833333Y-88904761D01*
X140690476Y-88952380D01*
X140595238Y-88952380D01*
X140452380Y-88904761D01*
X140357142Y-88809523D01*
X140309523Y-88714285D01*
X140261904Y-88523809D01*
X140261904Y-88380952D01*
X140309523Y-88190476D01*
X140357142Y-88095238D01*
X140452380Y-88000000D01*
X140595238Y-87952380D01*
X140690476Y-87952380D01*
X140833333Y-88000000D01*
X140880952Y-88047619D01*
X141833333Y-88952380D02*
X141261904Y-88952380D01*
X141547619Y-88952380D02*
X141547619Y-87952380D01*
X141452380Y-88095238D01*
X141357142Y-88190476D01*
X141261904Y-88238095D01*
X142452380Y-87952380D02*
X142547619Y-87952380D01*
X142642857Y-88000000D01*
X142690476Y-88047619D01*
X142738095Y-88142857D01*
X142785714Y-88333333D01*
X142785714Y-88571428D01*
X142738095Y-88761904D01*
X142690476Y-88857142D01*
X142642857Y-88904761D01*
X142547619Y-88952380D01*
X142452380Y-88952380D01*
X142357142Y-88904761D01*
X142309523Y-88857142D01*
X142261904Y-88761904D01*
X142214285Y-88571428D01*
X142214285Y-88333333D01*
X142261904Y-88142857D01*
X142309523Y-88047619D01*
X142357142Y-88000000D01*
X142452380Y-87952380D01*
X143690476Y-87952380D02*
X143214285Y-87952380D01*
X143166666Y-88428571D01*
X143214285Y-88380952D01*
X143309523Y-88333333D01*
X143547619Y-88333333D01*
X143642857Y-88380952D01*
X143690476Y-88428571D01*
X143738095Y-88523809D01*
X143738095Y-88761904D01*
X143690476Y-88857142D01*
X143642857Y-88904761D01*
X143547619Y-88952380D01*
X143309523Y-88952380D01*
X143214285Y-88904761D01*
X143166666Y-88857142D01*
G04 #@! TO.C,C104*
X114880952Y-95857142D02*
X114833333Y-95904761D01*
X114690476Y-95952380D01*
X114595238Y-95952380D01*
X114452380Y-95904761D01*
X114357142Y-95809523D01*
X114309523Y-95714285D01*
X114261904Y-95523809D01*
X114261904Y-95380952D01*
X114309523Y-95190476D01*
X114357142Y-95095238D01*
X114452380Y-95000000D01*
X114595238Y-94952380D01*
X114690476Y-94952380D01*
X114833333Y-95000000D01*
X114880952Y-95047619D01*
X115833333Y-95952380D02*
X115261904Y-95952380D01*
X115547619Y-95952380D02*
X115547619Y-94952380D01*
X115452380Y-95095238D01*
X115357142Y-95190476D01*
X115261904Y-95238095D01*
X116452380Y-94952380D02*
X116547619Y-94952380D01*
X116642857Y-95000000D01*
X116690476Y-95047619D01*
X116738095Y-95142857D01*
X116785714Y-95333333D01*
X116785714Y-95571428D01*
X116738095Y-95761904D01*
X116690476Y-95857142D01*
X116642857Y-95904761D01*
X116547619Y-95952380D01*
X116452380Y-95952380D01*
X116357142Y-95904761D01*
X116309523Y-95857142D01*
X116261904Y-95761904D01*
X116214285Y-95571428D01*
X116214285Y-95333333D01*
X116261904Y-95142857D01*
X116309523Y-95047619D01*
X116357142Y-95000000D01*
X116452380Y-94952380D01*
X117642857Y-95285714D02*
X117642857Y-95952380D01*
X117404761Y-94904761D02*
X117166666Y-95619047D01*
X117785714Y-95619047D01*
G04 #@! TO.C,C103*
X123380952Y-95857142D02*
X123333333Y-95904761D01*
X123190476Y-95952380D01*
X123095238Y-95952380D01*
X122952380Y-95904761D01*
X122857142Y-95809523D01*
X122809523Y-95714285D01*
X122761904Y-95523809D01*
X122761904Y-95380952D01*
X122809523Y-95190476D01*
X122857142Y-95095238D01*
X122952380Y-95000000D01*
X123095238Y-94952380D01*
X123190476Y-94952380D01*
X123333333Y-95000000D01*
X123380952Y-95047619D01*
X124333333Y-95952380D02*
X123761904Y-95952380D01*
X124047619Y-95952380D02*
X124047619Y-94952380D01*
X123952380Y-95095238D01*
X123857142Y-95190476D01*
X123761904Y-95238095D01*
X124952380Y-94952380D02*
X125047619Y-94952380D01*
X125142857Y-95000000D01*
X125190476Y-95047619D01*
X125238095Y-95142857D01*
X125285714Y-95333333D01*
X125285714Y-95571428D01*
X125238095Y-95761904D01*
X125190476Y-95857142D01*
X125142857Y-95904761D01*
X125047619Y-95952380D01*
X124952380Y-95952380D01*
X124857142Y-95904761D01*
X124809523Y-95857142D01*
X124761904Y-95761904D01*
X124714285Y-95571428D01*
X124714285Y-95333333D01*
X124761904Y-95142857D01*
X124809523Y-95047619D01*
X124857142Y-95000000D01*
X124952380Y-94952380D01*
X125619047Y-94952380D02*
X126238095Y-94952380D01*
X125904761Y-95333333D01*
X126047619Y-95333333D01*
X126142857Y-95380952D01*
X126190476Y-95428571D01*
X126238095Y-95523809D01*
X126238095Y-95761904D01*
X126190476Y-95857142D01*
X126142857Y-95904761D01*
X126047619Y-95952380D01*
X125761904Y-95952380D01*
X125666666Y-95904761D01*
X125619047Y-95857142D01*
G04 #@! TO.C,C102*
X101380952Y-89357142D02*
X101333333Y-89404761D01*
X101190476Y-89452380D01*
X101095238Y-89452380D01*
X100952380Y-89404761D01*
X100857142Y-89309523D01*
X100809523Y-89214285D01*
X100761904Y-89023809D01*
X100761904Y-88880952D01*
X100809523Y-88690476D01*
X100857142Y-88595238D01*
X100952380Y-88500000D01*
X101095238Y-88452380D01*
X101190476Y-88452380D01*
X101333333Y-88500000D01*
X101380952Y-88547619D01*
X102333333Y-89452380D02*
X101761904Y-89452380D01*
X102047619Y-89452380D02*
X102047619Y-88452380D01*
X101952380Y-88595238D01*
X101857142Y-88690476D01*
X101761904Y-88738095D01*
X102952380Y-88452380D02*
X103047619Y-88452380D01*
X103142857Y-88500000D01*
X103190476Y-88547619D01*
X103238095Y-88642857D01*
X103285714Y-88833333D01*
X103285714Y-89071428D01*
X103238095Y-89261904D01*
X103190476Y-89357142D01*
X103142857Y-89404761D01*
X103047619Y-89452380D01*
X102952380Y-89452380D01*
X102857142Y-89404761D01*
X102809523Y-89357142D01*
X102761904Y-89261904D01*
X102714285Y-89071428D01*
X102714285Y-88833333D01*
X102761904Y-88642857D01*
X102809523Y-88547619D01*
X102857142Y-88500000D01*
X102952380Y-88452380D01*
X103666666Y-88547619D02*
X103714285Y-88500000D01*
X103809523Y-88452380D01*
X104047619Y-88452380D01*
X104142857Y-88500000D01*
X104190476Y-88547619D01*
X104238095Y-88642857D01*
X104238095Y-88738095D01*
X104190476Y-88880952D01*
X103619047Y-89452380D01*
X104238095Y-89452380D01*
G04 #@! TO.C,C101*
X94480952Y-89385943D02*
X94433333Y-89433562D01*
X94290476Y-89481181D01*
X94195238Y-89481181D01*
X94052380Y-89433562D01*
X93957142Y-89338324D01*
X93909523Y-89243086D01*
X93861904Y-89052610D01*
X93861904Y-88909753D01*
X93909523Y-88719277D01*
X93957142Y-88624039D01*
X94052380Y-88528801D01*
X94195238Y-88481181D01*
X94290476Y-88481181D01*
X94433333Y-88528801D01*
X94480952Y-88576420D01*
X95433333Y-89481181D02*
X94861904Y-89481181D01*
X95147619Y-89481181D02*
X95147619Y-88481181D01*
X95052380Y-88624039D01*
X94957142Y-88719277D01*
X94861904Y-88766896D01*
X96052380Y-88481181D02*
X96147619Y-88481181D01*
X96242857Y-88528801D01*
X96290476Y-88576420D01*
X96338095Y-88671658D01*
X96385714Y-88862134D01*
X96385714Y-89100229D01*
X96338095Y-89290705D01*
X96290476Y-89385943D01*
X96242857Y-89433562D01*
X96147619Y-89481181D01*
X96052380Y-89481181D01*
X95957142Y-89433562D01*
X95909523Y-89385943D01*
X95861904Y-89290705D01*
X95814285Y-89100229D01*
X95814285Y-88862134D01*
X95861904Y-88671658D01*
X95909523Y-88576420D01*
X95957142Y-88528801D01*
X96052380Y-88481181D01*
X97338095Y-89481181D02*
X96766666Y-89481181D01*
X97052380Y-89481181D02*
X97052380Y-88481181D01*
X96957142Y-88624039D01*
X96861904Y-88719277D01*
X96766666Y-88766896D01*
G04 #@! TO.C,D101*
X90309523Y-96952380D02*
X90309523Y-95952380D01*
X90547619Y-95952380D01*
X90690476Y-96000000D01*
X90785714Y-96095238D01*
X90833333Y-96190476D01*
X90880952Y-96380952D01*
X90880952Y-96523809D01*
X90833333Y-96714285D01*
X90785714Y-96809523D01*
X90690476Y-96904761D01*
X90547619Y-96952380D01*
X90309523Y-96952380D01*
X91833333Y-96952380D02*
X91261904Y-96952380D01*
X91547619Y-96952380D02*
X91547619Y-95952380D01*
X91452380Y-96095238D01*
X91357142Y-96190476D01*
X91261904Y-96238095D01*
X92452380Y-95952380D02*
X92547619Y-95952380D01*
X92642857Y-96000000D01*
X92690476Y-96047619D01*
X92738095Y-96142857D01*
X92785714Y-96333333D01*
X92785714Y-96571428D01*
X92738095Y-96761904D01*
X92690476Y-96857142D01*
X92642857Y-96904761D01*
X92547619Y-96952380D01*
X92452380Y-96952380D01*
X92357142Y-96904761D01*
X92309523Y-96857142D01*
X92261904Y-96761904D01*
X92214285Y-96571428D01*
X92214285Y-96333333D01*
X92261904Y-96142857D01*
X92309523Y-96047619D01*
X92357142Y-96000000D01*
X92452380Y-95952380D01*
X93738095Y-96952380D02*
X93166666Y-96952380D01*
X93452380Y-96952380D02*
X93452380Y-95952380D01*
X93357142Y-96095238D01*
X93261904Y-96190476D01*
X93166666Y-96238095D01*
G04 #@! TO.C,U101*
X97285714Y-94952380D02*
X97285714Y-95761904D01*
X97333333Y-95857142D01*
X97380952Y-95904761D01*
X97476190Y-95952380D01*
X97666666Y-95952380D01*
X97761904Y-95904761D01*
X97809523Y-95857142D01*
X97857142Y-95761904D01*
X97857142Y-94952380D01*
X98857142Y-95952380D02*
X98285714Y-95952380D01*
X98571428Y-95952380D02*
X98571428Y-94952380D01*
X98476190Y-95095238D01*
X98380952Y-95190476D01*
X98285714Y-95238095D01*
X99476190Y-94952380D02*
X99571428Y-94952380D01*
X99666666Y-95000000D01*
X99714285Y-95047619D01*
X99761904Y-95142857D01*
X99809523Y-95333333D01*
X99809523Y-95571428D01*
X99761904Y-95761904D01*
X99714285Y-95857142D01*
X99666666Y-95904761D01*
X99571428Y-95952380D01*
X99476190Y-95952380D01*
X99380952Y-95904761D01*
X99333333Y-95857142D01*
X99285714Y-95761904D01*
X99238095Y-95571428D01*
X99238095Y-95333333D01*
X99285714Y-95142857D01*
X99333333Y-95047619D01*
X99380952Y-95000000D01*
X99476190Y-94952380D01*
X100761904Y-95952380D02*
X100190476Y-95952380D01*
X100476190Y-95952380D02*
X100476190Y-94952380D01*
X100380952Y-95095238D01*
X100285714Y-95190476D01*
X100190476Y-95238095D01*
G04 #@! TO.C,R101*
X135880952Y-95952380D02*
X135547619Y-95476190D01*
X135309523Y-95952380D02*
X135309523Y-94952380D01*
X135690476Y-94952380D01*
X135785714Y-95000000D01*
X135833333Y-95047619D01*
X135880952Y-95142857D01*
X135880952Y-95285714D01*
X135833333Y-95380952D01*
X135785714Y-95428571D01*
X135690476Y-95476190D01*
X135309523Y-95476190D01*
X136833333Y-95952380D02*
X136261904Y-95952380D01*
X136547619Y-95952380D02*
X136547619Y-94952380D01*
X136452380Y-95095238D01*
X136357142Y-95190476D01*
X136261904Y-95238095D01*
X137452380Y-94952380D02*
X137547619Y-94952380D01*
X137642857Y-95000000D01*
X137690476Y-95047619D01*
X137738095Y-95142857D01*
X137785714Y-95333333D01*
X137785714Y-95571428D01*
X137738095Y-95761904D01*
X137690476Y-95857142D01*
X137642857Y-95904761D01*
X137547619Y-95952380D01*
X137452380Y-95952380D01*
X137357142Y-95904761D01*
X137309523Y-95857142D01*
X137261904Y-95761904D01*
X137214285Y-95571428D01*
X137214285Y-95333333D01*
X137261904Y-95142857D01*
X137309523Y-95047619D01*
X137357142Y-95000000D01*
X137452380Y-94952380D01*
X138738095Y-95952380D02*
X138166666Y-95952380D01*
X138452380Y-95952380D02*
X138452380Y-94952380D01*
X138357142Y-95095238D01*
X138261904Y-95190476D01*
X138166666Y-95238095D01*
G04 #@! TD*
M02*
