G04 #@! TF.GenerationSoftware,KiCad,Pcbnew,(5.0.1)-3*
G04 #@! TF.CreationDate,2020-05-15T20:10:48+09:30*
G04 #@! TF.ProjectId,LED Left Glasses Arm (mcu),4C4544204C65667420476C6173736573,rev?*
G04 #@! TF.SameCoordinates,Original*
G04 #@! TF.FileFunction,Soldermask,Top*
G04 #@! TF.FilePolarity,Negative*
%FSLAX46Y46*%
G04 Gerber Fmt 4.6, Leading zero omitted, Abs format (unit mm)*
G04 Created by KiCad (PCBNEW (5.0.1)-3) date 15/05/2020 8:10:48 PM*
%MOMM*%
%LPD*%
G01*
G04 APERTURE LIST*
%ADD10C,0.500000*%
%ADD11C,0.100000*%
G04 APERTURE END LIST*
D10*
G04 #@! TO.C,MK101*
X120162500Y-92700000D02*
G75*
G03X120162500Y-92700000I-662500J0D01*
G01*
D11*
G36*
X152801000Y-95399000D02*
X149699000Y-95399000D01*
X149699000Y-94697000D01*
X152801000Y-94697000D01*
X152801000Y-95399000D01*
X152801000Y-95399000D01*
G37*
G36*
X88550566Y-94699912D02*
X87162332Y-94926000D01*
X85488904Y-95198535D01*
X85488903Y-95198535D01*
X85376062Y-94505664D01*
X88167806Y-94051000D01*
X88437724Y-94007041D01*
X88437725Y-94007041D01*
X88550566Y-94699912D01*
X88550566Y-94699912D01*
G37*
G36*
X92651000Y-95151000D02*
X91349000Y-95151000D01*
X91349000Y-94149000D01*
X92651000Y-94149000D01*
X92651000Y-95151000D01*
X92651000Y-95151000D01*
G37*
G36*
X131926000Y-89949000D02*
X131928402Y-89973386D01*
X131935515Y-89996835D01*
X131947066Y-90018446D01*
X131962612Y-90037388D01*
X131981554Y-90052934D01*
X132003165Y-90064485D01*
X132026614Y-90071598D01*
X132051000Y-90074000D01*
X132926000Y-90074000D01*
X132926000Y-93926000D01*
X132051000Y-93926000D01*
X132026614Y-93928402D01*
X132003165Y-93935515D01*
X131981554Y-93947066D01*
X131962612Y-93962612D01*
X131947066Y-93981554D01*
X131935515Y-94003165D01*
X131928402Y-94026614D01*
X131926000Y-94051000D01*
X131926000Y-94926000D01*
X128074000Y-94926000D01*
X128074000Y-94051000D01*
X128071598Y-94026614D01*
X128064485Y-94003165D01*
X128052934Y-93981554D01*
X128037388Y-93962612D01*
X128018446Y-93947066D01*
X127996835Y-93935515D01*
X127973386Y-93928402D01*
X127949000Y-93926000D01*
X127074000Y-93926000D01*
X127074000Y-90074000D01*
X127949000Y-90074000D01*
X127973386Y-90071598D01*
X127996835Y-90064485D01*
X128018446Y-90052934D01*
X128037388Y-90037388D01*
X128052934Y-90018446D01*
X128064485Y-89996835D01*
X128071598Y-89973386D01*
X128074000Y-89949000D01*
X128074000Y-89074000D01*
X131926000Y-89074000D01*
X131926000Y-89949000D01*
X131926000Y-89949000D01*
G37*
G36*
X146801000Y-93951000D02*
X145199000Y-93951000D01*
X145199000Y-93299000D01*
X146801000Y-93299000D01*
X146801000Y-93951000D01*
X146801000Y-93951000D01*
G37*
G36*
X107801000Y-93951000D02*
X106199000Y-93951000D01*
X106199000Y-93299000D01*
X107801000Y-93299000D01*
X107801000Y-93951000D01*
X107801000Y-93951000D01*
G37*
G36*
X152801000Y-93875000D02*
X149699000Y-93875000D01*
X149699000Y-93173000D01*
X152801000Y-93173000D01*
X152801000Y-93875000D01*
X152801000Y-93875000D01*
G37*
G36*
X88305595Y-93195730D02*
X87181336Y-93378827D01*
X85243933Y-93694353D01*
X85243932Y-93694353D01*
X85131091Y-93001482D01*
X86738826Y-92739646D01*
X88192753Y-92502859D01*
X88192754Y-92502859D01*
X88305595Y-93195730D01*
X88305595Y-93195730D01*
G37*
G36*
X100326000Y-93681000D02*
X97674000Y-93681000D01*
X97674000Y-92519000D01*
X100326000Y-92519000D01*
X100326000Y-93681000D01*
X100326000Y-93681000D01*
G37*
G36*
X111588677Y-92403465D02*
X111626364Y-92414898D01*
X111661103Y-92433466D01*
X111691548Y-92458452D01*
X111716534Y-92488897D01*
X111735102Y-92523636D01*
X111746535Y-92561323D01*
X111751000Y-92606661D01*
X111751000Y-93443339D01*
X111746535Y-93488677D01*
X111735102Y-93526364D01*
X111716534Y-93561103D01*
X111691548Y-93591548D01*
X111661103Y-93616534D01*
X111626364Y-93635102D01*
X111588677Y-93646535D01*
X111543339Y-93651000D01*
X110456661Y-93651000D01*
X110411323Y-93646535D01*
X110373636Y-93635102D01*
X110338897Y-93616534D01*
X110308452Y-93591548D01*
X110283466Y-93561103D01*
X110264898Y-93526364D01*
X110253465Y-93488677D01*
X110249000Y-93443339D01*
X110249000Y-92606661D01*
X110253465Y-92561323D01*
X110264898Y-92523636D01*
X110283466Y-92488897D01*
X110308452Y-92458452D01*
X110338897Y-92433466D01*
X110373636Y-92414898D01*
X110411323Y-92403465D01*
X110456661Y-92399000D01*
X111543339Y-92399000D01*
X111588677Y-92403465D01*
X111588677Y-92403465D01*
G37*
G36*
X142588677Y-92403465D02*
X142626364Y-92414898D01*
X142661103Y-92433466D01*
X142691548Y-92458452D01*
X142716534Y-92488897D01*
X142735102Y-92523636D01*
X142746535Y-92561323D01*
X142751000Y-92606661D01*
X142751000Y-93443339D01*
X142746535Y-93488677D01*
X142735102Y-93526364D01*
X142716534Y-93561103D01*
X142691548Y-93591548D01*
X142661103Y-93616534D01*
X142626364Y-93635102D01*
X142588677Y-93646535D01*
X142543339Y-93651000D01*
X141456661Y-93651000D01*
X141411323Y-93646535D01*
X141373636Y-93635102D01*
X141338897Y-93616534D01*
X141308452Y-93591548D01*
X141283466Y-93561103D01*
X141264898Y-93526364D01*
X141253465Y-93488677D01*
X141249000Y-93443339D01*
X141249000Y-92606661D01*
X141253465Y-92561323D01*
X141264898Y-92523636D01*
X141283466Y-92488897D01*
X141308452Y-92458452D01*
X141338897Y-92433466D01*
X141373636Y-92414898D01*
X141411323Y-92403465D01*
X141456661Y-92399000D01*
X142543339Y-92399000D01*
X142588677Y-92403465D01*
X142588677Y-92403465D01*
G37*
G36*
X116588677Y-92403465D02*
X116626364Y-92414898D01*
X116661103Y-92433466D01*
X116691548Y-92458452D01*
X116716534Y-92488897D01*
X116735102Y-92523636D01*
X116746535Y-92561323D01*
X116751000Y-92606661D01*
X116751000Y-93443339D01*
X116746535Y-93488677D01*
X116735102Y-93526364D01*
X116716534Y-93561103D01*
X116691548Y-93591548D01*
X116661103Y-93616534D01*
X116626364Y-93635102D01*
X116588677Y-93646535D01*
X116543339Y-93651000D01*
X115456661Y-93651000D01*
X115411323Y-93646535D01*
X115373636Y-93635102D01*
X115338897Y-93616534D01*
X115308452Y-93591548D01*
X115283466Y-93561103D01*
X115264898Y-93526364D01*
X115253465Y-93488677D01*
X115249000Y-93443339D01*
X115249000Y-92606661D01*
X115253465Y-92561323D01*
X115264898Y-92523636D01*
X115283466Y-92488897D01*
X115308452Y-92458452D01*
X115338897Y-92433466D01*
X115373636Y-92414898D01*
X115411323Y-92403465D01*
X115456661Y-92399000D01*
X116543339Y-92399000D01*
X116588677Y-92403465D01*
X116588677Y-92403465D01*
G37*
G36*
X137588677Y-92403465D02*
X137626364Y-92414898D01*
X137661103Y-92433466D01*
X137691548Y-92458452D01*
X137716534Y-92488897D01*
X137735102Y-92523636D01*
X137746535Y-92561323D01*
X137751000Y-92606661D01*
X137751000Y-93443339D01*
X137746535Y-93488677D01*
X137735102Y-93526364D01*
X137716534Y-93561103D01*
X137691548Y-93591548D01*
X137661103Y-93616534D01*
X137626364Y-93635102D01*
X137588677Y-93646535D01*
X137543339Y-93651000D01*
X136456661Y-93651000D01*
X136411323Y-93646535D01*
X136373636Y-93635102D01*
X136338897Y-93616534D01*
X136308452Y-93591548D01*
X136283466Y-93561103D01*
X136264898Y-93526364D01*
X136253465Y-93488677D01*
X136249000Y-93443339D01*
X136249000Y-92606661D01*
X136253465Y-92561323D01*
X136264898Y-92523636D01*
X136283466Y-92488897D01*
X136308452Y-92458452D01*
X136338897Y-92433466D01*
X136373636Y-92414898D01*
X136411323Y-92403465D01*
X136456661Y-92399000D01*
X137543339Y-92399000D01*
X137588677Y-92403465D01*
X137588677Y-92403465D01*
G37*
G36*
X125088677Y-92403465D02*
X125126364Y-92414898D01*
X125161103Y-92433466D01*
X125191548Y-92458452D01*
X125216534Y-92488897D01*
X125235102Y-92523636D01*
X125246535Y-92561323D01*
X125251000Y-92606661D01*
X125251000Y-93443339D01*
X125246535Y-93488677D01*
X125235102Y-93526364D01*
X125216534Y-93561103D01*
X125191548Y-93591548D01*
X125161103Y-93616534D01*
X125126364Y-93635102D01*
X125088677Y-93646535D01*
X125043339Y-93651000D01*
X123956661Y-93651000D01*
X123911323Y-93646535D01*
X123873636Y-93635102D01*
X123838897Y-93616534D01*
X123808452Y-93591548D01*
X123783466Y-93561103D01*
X123764898Y-93526364D01*
X123753465Y-93488677D01*
X123749000Y-93443339D01*
X123749000Y-92606661D01*
X123753465Y-92561323D01*
X123764898Y-92523636D01*
X123783466Y-92488897D01*
X123808452Y-92458452D01*
X123838897Y-92433466D01*
X123873636Y-92414898D01*
X123911323Y-92403465D01*
X123956661Y-92399000D01*
X125043339Y-92399000D01*
X125088677Y-92403465D01*
X125088677Y-92403465D01*
G37*
G36*
X103088677Y-92403465D02*
X103126364Y-92414898D01*
X103161103Y-92433466D01*
X103191548Y-92458452D01*
X103216534Y-92488897D01*
X103235102Y-92523636D01*
X103246535Y-92561323D01*
X103251000Y-92606661D01*
X103251000Y-93443339D01*
X103246535Y-93488677D01*
X103235102Y-93526364D01*
X103216534Y-93561103D01*
X103191548Y-93591548D01*
X103161103Y-93616534D01*
X103126364Y-93635102D01*
X103088677Y-93646535D01*
X103043339Y-93651000D01*
X101956661Y-93651000D01*
X101911323Y-93646535D01*
X101873636Y-93635102D01*
X101838897Y-93616534D01*
X101808452Y-93591548D01*
X101783466Y-93561103D01*
X101764898Y-93526364D01*
X101753465Y-93488677D01*
X101749000Y-93443339D01*
X101749000Y-92606661D01*
X101753465Y-92561323D01*
X101764898Y-92523636D01*
X101783466Y-92488897D01*
X101808452Y-92458452D01*
X101838897Y-92433466D01*
X101873636Y-92414898D01*
X101911323Y-92403465D01*
X101956661Y-92399000D01*
X103043339Y-92399000D01*
X103088677Y-92403465D01*
X103088677Y-92403465D01*
G37*
G36*
X96088677Y-92403465D02*
X96126364Y-92414898D01*
X96161103Y-92433466D01*
X96191548Y-92458452D01*
X96216534Y-92488897D01*
X96235102Y-92523636D01*
X96246535Y-92561323D01*
X96251000Y-92606661D01*
X96251000Y-93443339D01*
X96246535Y-93488677D01*
X96235102Y-93526364D01*
X96216534Y-93561103D01*
X96191548Y-93591548D01*
X96161103Y-93616534D01*
X96126364Y-93635102D01*
X96088677Y-93646535D01*
X96043339Y-93651000D01*
X94956661Y-93651000D01*
X94911323Y-93646535D01*
X94873636Y-93635102D01*
X94838897Y-93616534D01*
X94808452Y-93591548D01*
X94783466Y-93561103D01*
X94764898Y-93526364D01*
X94753465Y-93488677D01*
X94749000Y-93443339D01*
X94749000Y-92606661D01*
X94753465Y-92561323D01*
X94764898Y-92523636D01*
X94783466Y-92488897D01*
X94808452Y-92458452D01*
X94838897Y-92433466D01*
X94873636Y-92414898D01*
X94911323Y-92403465D01*
X94956661Y-92399000D01*
X96043339Y-92399000D01*
X96088677Y-92403465D01*
X96088677Y-92403465D01*
G37*
G36*
X119587796Y-92420567D02*
X119642578Y-92443258D01*
X119691879Y-92476200D01*
X119733800Y-92518121D01*
X119766742Y-92567422D01*
X119789433Y-92622204D01*
X119801000Y-92680353D01*
X119801000Y-92739647D01*
X119789433Y-92797796D01*
X119766742Y-92852578D01*
X119733800Y-92901879D01*
X119691879Y-92943800D01*
X119642578Y-92976742D01*
X119587796Y-92999433D01*
X119529647Y-93011000D01*
X119470353Y-93011000D01*
X119412204Y-92999433D01*
X119357422Y-92976742D01*
X119308121Y-92943800D01*
X119266200Y-92901879D01*
X119233258Y-92852578D01*
X119210567Y-92797796D01*
X119199000Y-92739647D01*
X119199000Y-92680353D01*
X119210567Y-92622204D01*
X119233258Y-92567422D01*
X119266200Y-92518121D01*
X119308121Y-92476200D01*
X119357422Y-92443258D01*
X119412204Y-92420567D01*
X119470353Y-92409000D01*
X119529647Y-92409000D01*
X119587796Y-92420567D01*
X119587796Y-92420567D01*
G37*
G36*
X152801000Y-92351000D02*
X149699000Y-92351000D01*
X149699000Y-91649000D01*
X152801000Y-91649000D01*
X152801000Y-92351000D01*
X152801000Y-92351000D01*
G37*
G36*
X88060624Y-91691547D02*
X87081545Y-91851000D01*
X84998962Y-92190170D01*
X84998961Y-92190170D01*
X84886120Y-91497299D01*
X86416952Y-91247987D01*
X87947782Y-90998676D01*
X87947783Y-90998676D01*
X88060624Y-91691547D01*
X88060624Y-91691547D01*
G37*
G36*
X92651000Y-91851000D02*
X91349000Y-91851000D01*
X91349000Y-90849000D01*
X92651000Y-90849000D01*
X92651000Y-91851000D01*
X92651000Y-91851000D01*
G37*
G36*
X120751000Y-91770000D02*
X119924000Y-91770000D01*
X119924000Y-90324000D01*
X120751000Y-90324000D01*
X120751000Y-91770000D01*
X120751000Y-91770000D01*
G37*
G36*
X119076000Y-91770000D02*
X118249000Y-91770000D01*
X118249000Y-90324000D01*
X119076000Y-90324000D01*
X119076000Y-91770000D01*
X119076000Y-91770000D01*
G37*
G36*
X116588677Y-90353465D02*
X116626364Y-90364898D01*
X116661103Y-90383466D01*
X116691548Y-90408452D01*
X116716534Y-90438897D01*
X116735102Y-90473636D01*
X116746535Y-90511323D01*
X116751000Y-90556661D01*
X116751000Y-91393339D01*
X116746535Y-91438677D01*
X116735102Y-91476364D01*
X116716534Y-91511103D01*
X116691548Y-91541548D01*
X116661103Y-91566534D01*
X116626364Y-91585102D01*
X116588677Y-91596535D01*
X116543339Y-91601000D01*
X115456661Y-91601000D01*
X115411323Y-91596535D01*
X115373636Y-91585102D01*
X115338897Y-91566534D01*
X115308452Y-91541548D01*
X115283466Y-91511103D01*
X115264898Y-91476364D01*
X115253465Y-91438677D01*
X115249000Y-91393339D01*
X115249000Y-90556661D01*
X115253465Y-90511323D01*
X115264898Y-90473636D01*
X115283466Y-90438897D01*
X115308452Y-90408452D01*
X115338897Y-90383466D01*
X115373636Y-90364898D01*
X115411323Y-90353465D01*
X115456661Y-90349000D01*
X116543339Y-90349000D01*
X116588677Y-90353465D01*
X116588677Y-90353465D01*
G37*
G36*
X96088677Y-90353465D02*
X96126364Y-90364898D01*
X96161103Y-90383466D01*
X96191548Y-90408452D01*
X96216534Y-90438897D01*
X96235102Y-90473636D01*
X96246535Y-90511323D01*
X96251000Y-90556661D01*
X96251000Y-91393339D01*
X96246535Y-91438677D01*
X96235102Y-91476364D01*
X96216534Y-91511103D01*
X96191548Y-91541548D01*
X96161103Y-91566534D01*
X96126364Y-91585102D01*
X96088677Y-91596535D01*
X96043339Y-91601000D01*
X94956661Y-91601000D01*
X94911323Y-91596535D01*
X94873636Y-91585102D01*
X94838897Y-91566534D01*
X94808452Y-91541548D01*
X94783466Y-91511103D01*
X94764898Y-91476364D01*
X94753465Y-91438677D01*
X94749000Y-91393339D01*
X94749000Y-90556661D01*
X94753465Y-90511323D01*
X94764898Y-90473636D01*
X94783466Y-90438897D01*
X94808452Y-90408452D01*
X94838897Y-90383466D01*
X94873636Y-90364898D01*
X94911323Y-90353465D01*
X94956661Y-90349000D01*
X96043339Y-90349000D01*
X96088677Y-90353465D01*
X96088677Y-90353465D01*
G37*
G36*
X125088677Y-90353465D02*
X125126364Y-90364898D01*
X125161103Y-90383466D01*
X125191548Y-90408452D01*
X125216534Y-90438897D01*
X125235102Y-90473636D01*
X125246535Y-90511323D01*
X125251000Y-90556661D01*
X125251000Y-91393339D01*
X125246535Y-91438677D01*
X125235102Y-91476364D01*
X125216534Y-91511103D01*
X125191548Y-91541548D01*
X125161103Y-91566534D01*
X125126364Y-91585102D01*
X125088677Y-91596535D01*
X125043339Y-91601000D01*
X123956661Y-91601000D01*
X123911323Y-91596535D01*
X123873636Y-91585102D01*
X123838897Y-91566534D01*
X123808452Y-91541548D01*
X123783466Y-91511103D01*
X123764898Y-91476364D01*
X123753465Y-91438677D01*
X123749000Y-91393339D01*
X123749000Y-90556661D01*
X123753465Y-90511323D01*
X123764898Y-90473636D01*
X123783466Y-90438897D01*
X123808452Y-90408452D01*
X123838897Y-90383466D01*
X123873636Y-90364898D01*
X123911323Y-90353465D01*
X123956661Y-90349000D01*
X125043339Y-90349000D01*
X125088677Y-90353465D01*
X125088677Y-90353465D01*
G37*
G36*
X103088677Y-90353465D02*
X103126364Y-90364898D01*
X103161103Y-90383466D01*
X103191548Y-90408452D01*
X103216534Y-90438897D01*
X103235102Y-90473636D01*
X103246535Y-90511323D01*
X103251000Y-90556661D01*
X103251000Y-91393339D01*
X103246535Y-91438677D01*
X103235102Y-91476364D01*
X103216534Y-91511103D01*
X103191548Y-91541548D01*
X103161103Y-91566534D01*
X103126364Y-91585102D01*
X103088677Y-91596535D01*
X103043339Y-91601000D01*
X101956661Y-91601000D01*
X101911323Y-91596535D01*
X101873636Y-91585102D01*
X101838897Y-91566534D01*
X101808452Y-91541548D01*
X101783466Y-91511103D01*
X101764898Y-91476364D01*
X101753465Y-91438677D01*
X101749000Y-91393339D01*
X101749000Y-90556661D01*
X101753465Y-90511323D01*
X101764898Y-90473636D01*
X101783466Y-90438897D01*
X101808452Y-90408452D01*
X101838897Y-90383466D01*
X101873636Y-90364898D01*
X101911323Y-90353465D01*
X101956661Y-90349000D01*
X103043339Y-90349000D01*
X103088677Y-90353465D01*
X103088677Y-90353465D01*
G37*
G36*
X111588677Y-90353465D02*
X111626364Y-90364898D01*
X111661103Y-90383466D01*
X111691548Y-90408452D01*
X111716534Y-90438897D01*
X111735102Y-90473636D01*
X111746535Y-90511323D01*
X111751000Y-90556661D01*
X111751000Y-91393339D01*
X111746535Y-91438677D01*
X111735102Y-91476364D01*
X111716534Y-91511103D01*
X111691548Y-91541548D01*
X111661103Y-91566534D01*
X111626364Y-91585102D01*
X111588677Y-91596535D01*
X111543339Y-91601000D01*
X110456661Y-91601000D01*
X110411323Y-91596535D01*
X110373636Y-91585102D01*
X110338897Y-91566534D01*
X110308452Y-91541548D01*
X110283466Y-91511103D01*
X110264898Y-91476364D01*
X110253465Y-91438677D01*
X110249000Y-91393339D01*
X110249000Y-90556661D01*
X110253465Y-90511323D01*
X110264898Y-90473636D01*
X110283466Y-90438897D01*
X110308452Y-90408452D01*
X110338897Y-90383466D01*
X110373636Y-90364898D01*
X110411323Y-90353465D01*
X110456661Y-90349000D01*
X111543339Y-90349000D01*
X111588677Y-90353465D01*
X111588677Y-90353465D01*
G37*
G36*
X137588677Y-90353465D02*
X137626364Y-90364898D01*
X137661103Y-90383466D01*
X137691548Y-90408452D01*
X137716534Y-90438897D01*
X137735102Y-90473636D01*
X137746535Y-90511323D01*
X137751000Y-90556661D01*
X137751000Y-91393339D01*
X137746535Y-91438677D01*
X137735102Y-91476364D01*
X137716534Y-91511103D01*
X137691548Y-91541548D01*
X137661103Y-91566534D01*
X137626364Y-91585102D01*
X137588677Y-91596535D01*
X137543339Y-91601000D01*
X136456661Y-91601000D01*
X136411323Y-91596535D01*
X136373636Y-91585102D01*
X136338897Y-91566534D01*
X136308452Y-91541548D01*
X136283466Y-91511103D01*
X136264898Y-91476364D01*
X136253465Y-91438677D01*
X136249000Y-91393339D01*
X136249000Y-90556661D01*
X136253465Y-90511323D01*
X136264898Y-90473636D01*
X136283466Y-90438897D01*
X136308452Y-90408452D01*
X136338897Y-90383466D01*
X136373636Y-90364898D01*
X136411323Y-90353465D01*
X136456661Y-90349000D01*
X137543339Y-90349000D01*
X137588677Y-90353465D01*
X137588677Y-90353465D01*
G37*
G36*
X142588677Y-90353465D02*
X142626364Y-90364898D01*
X142661103Y-90383466D01*
X142691548Y-90408452D01*
X142716534Y-90438897D01*
X142735102Y-90473636D01*
X142746535Y-90511323D01*
X142751000Y-90556661D01*
X142751000Y-91393339D01*
X142746535Y-91438677D01*
X142735102Y-91476364D01*
X142716534Y-91511103D01*
X142691548Y-91541548D01*
X142661103Y-91566534D01*
X142626364Y-91585102D01*
X142588677Y-91596535D01*
X142543339Y-91601000D01*
X141456661Y-91601000D01*
X141411323Y-91596535D01*
X141373636Y-91585102D01*
X141338897Y-91566534D01*
X141308452Y-91541548D01*
X141283466Y-91511103D01*
X141264898Y-91476364D01*
X141253465Y-91438677D01*
X141249000Y-91393339D01*
X141249000Y-90556661D01*
X141253465Y-90511323D01*
X141264898Y-90473636D01*
X141283466Y-90438897D01*
X141308452Y-90408452D01*
X141338897Y-90383466D01*
X141373636Y-90364898D01*
X141411323Y-90353465D01*
X141456661Y-90349000D01*
X142543339Y-90349000D01*
X142588677Y-90353465D01*
X142588677Y-90353465D01*
G37*
G36*
X100326000Y-91481000D02*
X99574000Y-91481000D01*
X99574000Y-90319000D01*
X100326000Y-90319000D01*
X100326000Y-91481000D01*
X100326000Y-91481000D01*
G37*
G36*
X98426000Y-91481000D02*
X97674000Y-91481000D01*
X97674000Y-90319000D01*
X98426000Y-90319000D01*
X98426000Y-91481000D01*
X98426000Y-91481000D01*
G37*
G36*
X152801000Y-90827000D02*
X149699000Y-90827000D01*
X149699000Y-90125000D01*
X152801000Y-90125000D01*
X152801000Y-90827000D01*
X152801000Y-90827000D01*
G37*
G36*
X146801000Y-90701000D02*
X145199000Y-90701000D01*
X145199000Y-90049000D01*
X146801000Y-90049000D01*
X146801000Y-90701000D01*
X146801000Y-90701000D01*
G37*
G36*
X107801000Y-90701000D02*
X106199000Y-90701000D01*
X106199000Y-90049000D01*
X107801000Y-90049000D01*
X107801000Y-90701000D01*
X107801000Y-90701000D01*
G37*
G36*
X152801000Y-89303000D02*
X149699000Y-89303000D01*
X149699000Y-88601000D01*
X152801000Y-88601000D01*
X152801000Y-89303000D01*
X152801000Y-89303000D01*
G37*
M02*
