  0
SECTION
  2
HEADER
  9
$ACADVER
  1
AC1014
  9
$HANDSEED
  5
10061
  9
$MEASUREMENT
 70
     1
  0
ENDSEC
  0
SECTION
  2
TABLES
  0
TABLE
  2
VPORT
  5
8
330
0
100
AcDbSymbolTable
 70
     4
  0
VPORT
  5
2E
330
8
100
AcDbSymbolTableRecord
100
AcDbViewportTableRecord
  2
*ACTIVE
 70
     0
 10
0.0
 20
0.0
 11
1.0
 21
1.0
 12
210.0
 22
148.5
 13
0.0
 23
0.0
 14
10.0
 24
10.0
 15
10.0
 25
10.0
 16
0.0
 26
0.0
 36
1.0
 17
0.0
 27
0.0
 37
0.0
 40
341.0
 41
1.24
 42
50.0
 43
0.0
 44
0.0
 50
0.0
 51
0.0
 71
     0
 72
   100
 73
     1
 74
     3
 75
     0
 76
     0
 77
     0
 78
     0
  0
ENDTAB
  0
TABLE
  2
LTYPE
  5
5
330
0
100
AcDbSymbolTable
 70
     1
  0
LTYPE
  5
14
330
5
100
AcDbSymbolTableRecord
100
AcDbLinetypeTableRecord
  2
BYBLOCK
 70
     0
  3

 72
    65
 73
     0
 40
0.0
  0
LTYPE
  5
15
330
5
100
AcDbSymbolTableRecord
100
AcDbLinetypeTableRecord
  2
BYLAYER
 70
     0
  3

 72
    65
 73
     0
 40
0.0
  0
LTYPE
  5
16
330
5
100
AcDbSymbolTableRecord
100
AcDbLinetypeTableRecord
  2
CONTINUOUS
 70
     0
  3
Solid line
 72
    65
 73
     0
 40
0.0
  0
ENDTAB
  0
TABLE
  2
LAYER
  5
2
100
AcDbSymbolTable
 70
1
  0
LAYER
  5
50
100
AcDbSymbolTableRecord
100
AcDbLayerTableRecord
  2
0
 70
0
  6
CONTINUOUS
  0
ENDTAB
  0
TABLE
  2
STYLE
  5
3
330
0
100
AcDbSymbolTable
 70
     1
  0
STYLE
  5
11
330
3
100
AcDbSymbolTableRecord
100
AcDbTextStyleTableRecord
  2
STANDARD
 70
     0
 40
0.0
 41
1.0
 50
0.0
 71
     0
 42
2.5
  3
txt
  4

  0
ENDTAB
  0
TABLE
  2
VIEW
  5
6
330
0
100
AcDbSymbolTable
 70
     0
  0
ENDTAB
  0
TABLE
  2
UCS
  5
7
330
0
100
AcDbSymbolTable
 70
     0
  0
ENDTAB
  0
TABLE
  2
APPID
  5
9
330
0
100
AcDbSymbolTable
 70
     2
  0
APPID
  5
12
330
9
100
AcDbSymbolTableRecord
100
AcDbRegAppTableRecord
  2
ACAD
 70
     0
  0
ENDTAB
  0
TABLE
  2
DIMSTYLE
  5
A
330
0
100
AcDbSymbolTable
 70
     1
  0
DIMSTYLE
105
27
330
A
100
AcDbSymbolTableRecord
100
AcDbDimStyleTableRecord
  2
ISO-25
 70
     0
  3

  4

  5

  6

  7

 40
1.0
 41
2.5
 42
0.625
 43
3.75
 44
1.25
 45
0.0
 46
0.0
 47
0.0
 48
0.0
140
2.5
141
2.5
142
0.0
143
0.03937007874016
144
1.0
145
0.0
146
1.0
147
0.625
 71
     0
 72
     0
 73
     0
 74
     0
 75
     0
 76
     0
 77
     1
 78
     8
170
     0
171
     3
172
     1
173
     0
174
     0
175
     0
176
     0
177
     0
178
     0
270
     2
271
     2
272
     2
273
     2
274
     3
340
11
275
     0
280
     0
281
     0
282
     0
283
     0
284
     8
285
     0
286
     0
287
     3
288
     0
  0
ENDTAB
  0
TABLE
  2
BLOCK_RECORD
  5
1
330
0
100
AcDbSymbolTable
 70
     1
  0
BLOCK_RECORD
  5
1F
330
1
100
AcDbSymbolTableRecord
100
AcDbBlockTableRecord
  2
*MODEL_SPACE
  0
BLOCK_RECORD
  5
1B
330
1
100
AcDbSymbolTableRecord
100
AcDbBlockTableRecord
  2
*PAPER_SPACE
  0
ENDTAB
  0
ENDSEC
  0
SECTION
  2
BLOCKS
  0
BLOCK
  5
20
330
1F
100
AcDbEntity
  8
0
100
AcDbBlockBegin
  2
*MODEL_SPACE
 70
     0
 10
0.0
 20
0.0
 30
0.0
  3
*MODEL_SPACE
  1

  0
ENDBLK
  5
21
330
1F
100
AcDbEntity
  8
0
100
AcDbBlockEnd
  0
BLOCK
  5
1C
330
1B
100
AcDbEntity
 67
     1
  8
0
100
AcDbBlockBegin
  2
*PAPER_SPACE
  1

  0
ENDBLK
  5
1D
330
1B
100
AcDbEntity
 67
     1
  8
0
100
AcDbBlockEnd
  0
ENDSEC
  0
SECTION
  2
ENTITIES
  0
LWPOLYLINE
  5
100
100
AcDbEntity
  8
0
 62
7
100
AcDbPolyline
 90
80
 70
0
 10
122.761468
 20
0.449751
 30
0.0
 10
128.145726
 20
1.569693
 30
0.0
 10
132.711740
 20
3.517647
 30
0.0
 10
136.122105
 20
5.921588
 30
0.0
 10
139.166786
 20
9.243485
 30
0.0
 10
141.366957
 20
12.947397
 30
0.0
 10
141.762948
 20
14.005392
 30
0.0
 10
142.991326
 20
17.267294
 30
0.0
 10
143.670167
 20
20.377213
 30
0.0
 10
144.054037
 20
22.147167
 30
0.0
 10
144.528819
 20
26.091065
 30
0.0
 10
144.773283
 20
29.226980
 30
0.0
 10
144.819751
 20
29.926964
 30
0.0
 10
144.833890
 20
33.120879
 30
0.0
 10
144.858133
 20
37.974751
 30
0.0
 10
144.450020
 20
42.320640
 30
0.0
 10
144.344960
 20
42.822623
 30
0.0
 10
143.262048
 20
45.694551
 30
0.0
 10
141.292199
 20
48.284481
 30
0.0
 10
138.188929
 20
50.596420
 30
0.0
 10
136.556476
 20
51.426399
 30
0.0
 10
131.216668
 20
53.208353
 30
0.0
 10
124.587869
 20
54.314326
 30
0.0
 10
115.049752
 20
54.778310
 30
0.0
 10
29.944139
 20
54.778310
 30
0.0
 10
23.838613
 20
54.600318
 30
0.0
 10
16.274388
 20
53.732338
 30
0.0
 10
10.633544
 20
52.298376
 30
0.0
 10
6.415024
 20
50.366426
 30
0.0
 10
3.451157
 20
48.030490
 30
0.0
 10
1.640915
 20
45.524554
 30
0.0
 10
0.618609
 20
42.696628
 30
0.0
 10
0.186259
 20
38.540736
 30
0.0
 10
0.143839
 20
38.120750
 30
0.0
 10
0.143839
 20
33.120879
 30
0.0
 10
0.141820
 20
30.440950
 30
0.0
 10
0.376177
 20
27.129036
 30
0.0
 10
0.747919
 20
23.463133
 30
0.0
 10
1.352014
 20
20.377213
 30
0.0
 10
1.859124
 20
17.771283
 30
0.0
 10
3.338017
 20
13.577374
 30
0.0
 10
5.362427
 20
9.901486
 30
0.0
 10
8.073739
 20
6.653560
 30
0.0
 10
9.148571
 20
5.683590
 30
0.0
 10
12.692291
 20
3.293648
 30
0.0
 10
13.720654
 20
2.871641
 30
0.0
 10
17.062328
 20
1.505713
 30
0.0
 10
22.086961
 20
0.465724
 30
0.0
 10
28.400584
 20
0.141733
 30
0.0
 10
31.578609
 20
0.255751
 30
0.0
 10
38.474094
 20
1.105692
 30
0.0
 10
44.110899
 20
2.647669
 30
0.0
 10
48.830459
 20
4.893594
 30
0.0
 10
52.751976
 20
7.835534
 30
0.0
 10
55.901714
 20
11.347451
 30
0.0
 10
58.707991
 20
15.841332
 30
0.0
 10
60.730373
 20
20.377213
 30
0.0
 10
60.734408
 20
20.383225
 30
0.0
 10
61.223327
 20
21.481185
 30
0.0
 10
63.031548
 20
26.749049
 30
0.0
 10
64.278109
 20
30.386955
 30
0.0
 10
65.876212
 20
33.916861
 30
0.0
 10
67.435933
 20
35.816812
 30
0.0
 10
69.575491
 20
37.076776
 30
0.0
 10
72.496931
 20
37.558767
 30
0.0
 10
74.099076
 20
37.420769
 30
0.0
 10
76.444712
 20
36.608793
 30
0.0
 10
78.426685
 20
34.900837
 30
0.0
 10
80.099543
 20
31.976914
 30
0.0
 10
81.919888
 20
26.749049
 30
0.0
 10
84.560497
 20
19.513241
 30
0.0
 10
87.114230
 20
14.341378
 30
0.0
 10
89.977079
 20
10.225477
 30
0.0
 10
93.334916
 20
6.883571
 30
0.0
 10
97.416044
 20
4.183635
 30
0.0
 10
100.634473
 20
2.871641
 30
0.0
 10
102.571999
 20
2.079697
 30
0.0
 10
109.033110
 20
0.689724
 30
0.0
 10
116.597334
 20
0.141733
 30
0.0
 10
122.761448
 20
0.449751
 30
0.0
  0
LINE
100
AcDbEntity
  8
0
100
AcDbLine
  5
1001F
  10
10.558797
  20
47.100511
  30
0
  11
62.045633
  21
47.100511
  31
0
  0
LINE
100
AcDbEntity
  8
0
100
AcDbLine
  5
10020
  10
82.948269
  20
47.100511
  30
0
  11
134.435105
  21
47.100511
  31
0
  0
LINE
100
AcDbEntity
  8
0
100
AcDbLine
  5
10023
  10
10.558797
  20
47.100511
  30
0
  11
7.566635
  21
44.630578
  31
0
  0
LINE
100
AcDbEntity
  8
0
100
AcDbLine
  5
10025
  10
62.5361038887433
  20
44.6141149076757
  30
0
  11
62.045633
  21
47.100511
  31
0
  0
LINE
100
AcDbEntity
  8
0
100
AcDbLine
  5
10026
  10
5.677609
  20
40.728681
  30
0
  11
5.263425
  21
38.258746
  31
0
  0
LINE
100
AcDbEntity
  8
0
100
AcDbLine
  5
10028
  10
62.3668289042704
  20
38.2663029899422
  30
0
  11
62.522436
  21
40.728681
  31
0
  0
LINE
100
AcDbEntity
  8
0
100
AcDbLine
  5
10029
  10
62.5361038887433
  20
40.7207902647992
  30
0
  11
5.677609
  21
40.728681
  31
0
  0
LINE
100
AcDbEntity
  8
0
100
AcDbLine
  5
1002A
  10
5.101987
  20
34.379088
  30
0
  11
5.048248
  21
31.893085
  31
0
  0
LINE
100
AcDbEntity
  8
0
100
AcDbLine
  5
1002C
  10
61.5204539819059
  20
31.9184910722087
  30
0
  11
61.918348
  21
34.356848
  31
0
  0
LINE
100
AcDbEntity
  8
0
100
AcDbLine
  5
1002D
  10
61.9436414430881
  20
34.3729783470657
  30
0
  11
5.101987
  21
34.379088
  31
0
  0
LINE
100
AcDbEntity
  8
0
100
AcDbLine
  5
1002E
  10
5.18059
  20
27.985013
  30
0
  11
5.34424
  21
25.51508
  31
0
  0
LINE
100
AcDbEntity
  8
0
100
AcDbLine
  5
10030
  10
59.9969791216499
  20
25.4860416622388
  30
0
  11
60.649564
  21
27.985013
  31
0
  0
LINE
100
AcDbEntity
  8
0
100
AcDbLine
  5
10031
  10
60.6740790595414
  20
28.0251664293322
  30
0
  11
5.18059
  21
27.985013
  31
0
  0
LINE
100
AcDbEntity
  8
0
100
AcDbLine
  5
10032
  10
5.788729
  20
21.61318
  30
0
  11
6.233208
  21
19.141247
  31
0
  0
LINE
100
AcDbEntity
  8
0
100
AcDbLine
  5
10034
  10
57.5424918467929
  20
19.1382297445053
  30
0
  11
58.606981
  21
21.61318
  31
0
  0
LINE
100
AcDbEntity
  8
0
100
AcDbLine
  5
10035
  10
58.6427792458667
  20
21.5927170193622
  30
0
  11
5.788729
  21
21.61318
  31
0
  0
LINE
100
AcDbEntity
  8
0
100
AcDbLine
  5
10036
  10
7.320151
  20
15.241348
  30
0
  11
8.417206
  21
12.7694
  31
0
  0
LINE
100
AcDbEntity
  8
0
100
AcDbLine
  5
10038
  10
53.6491672039164
  20
12.7904178267718
  30
0
  11
55.418855
  21
15.241348
  31
0
  0
LINE
100
AcDbEntity
  8
0
100
AcDbLine
  5
10039
  10
55.4265545408817
  20
15.2449051016288
  30
0
  11
7.320151
  21
15.241348
  31
0
  0
LINE
100
AcDbEntity
  8
0
100
AcDbLine
  5
1003A
  10
11.484121
  20
8.869512
  30
0
  11
15.011669
  21
6.397556
  31
0
  0
LINE
100
AcDbEntity
  8
0
100
AcDbLine
  5
1003C
  10
45.9471554103997
  20
6.35796841680186
  30
0
  11
49.830538
  21
8.869512
  31
0
  0
LINE
100
AcDbEntity
  8
0
100
AcDbLine
  5
1003D
  10
49.8404800532763
  20
8.89709318389526
  30
0
  11
11.484121
  21
8.869512
  31
0
  0
LINE
100
AcDbEntity
  8
0
100
AcDbLine
  5
1003F
  10
7.566635
  20
44.630578
  30
0
  11
62.5361038887433
  21
44.6141149076757
  31
0
  0
LINE
100
AcDbEntity
  8
0
100
AcDbLine
  5
10040
  10
5.263425
  20
38.258746
  30
0
  11
62.3668289042704
  21
38.2663029899422
  31
0
  0
LINE
100
AcDbEntity
  8
0
100
AcDbLine
  5
10041
  10
5.048248
  20
31.893085
  30
0
  11
61.5204539819059
  21
31.9184910722087
  31
0
  0
LINE
100
AcDbEntity
  8
0
100
AcDbLine
  5
10042
  10
5.34424
  20
25.51508
  30
0
  11
59.9969791216499
  21
25.4860416622388
  31
0
  0
LINE
100
AcDbEntity
  8
0
100
AcDbLine
  5
10043
  10
6.233208
  20
19.141247
  30
0
  11
57.5424918467929
  21
19.1382297445053
  31
0
  0
LINE
100
AcDbEntity
  8
0
100
AcDbLine
  5
10044
  10
8.417206
  20
12.7694
  30
0
  11
53.6491672039164
  21
12.7904178267718
  31
0
  0
LINE
100
AcDbEntity
  8
0
100
AcDbLine
  5
10045
  10
15.011669
  20
6.397556
  30
0
  11
45.9471554103997
  21
6.35796841680186
  31
0
  0
LINE
100
AcDbEntity
  8
0
100
AcDbLine
  5
10046
  10
82.948269
  20
47.100511
  30
0
  11
82.499748
  21
44.630578
  31
0
  0
LINE
100
AcDbEntity
  8
0
100
AcDbLine
  5
10047
  10
82.5105520565446
  20
44.6141149076757
  30
0
  11
137.425238
  21
44.630578
  31
0
  0
LINE
100
AcDbEntity
  8
0
100
AcDbLine
  5
10048
  10
137.440284517998
  20
44.6141149076757
  30
0
  11
134.435105
  21
47.100511
  31
0
  0
LINE
100
AcDbEntity
  8
0
100
AcDbLine
  5
10049
  10
82.469442
  20
40.728681
  30
0
  11
82.622991
  21
38.258746
  31
0
  0
LINE
100
AcDbEntity
  8
0
100
AcDbLine
  5
1004A
  10
82.5951895487811
  20
38.2663029899422
  30
0
  11
139.730466
  21
38.258746
  31
0
  0
LINE
100
AcDbEntity
  8
0
100
AcDbLine
  5
1004B
  10
139.725496808383
  20
38.2663029899422
  30
0
  11
139.314273
  21
40.728681
  31
0
  0
LINE
100
AcDbEntity
  8
0
100
AcDbLine
  5
1004C
  10
139.3023093472
  20
40.7207902647992
  30
0
  11
82.469442
  21
40.728681
  31
0
  0
LINE
100
AcDbEntity
  8
0
100
AcDbLine
  5
1004D
  10
83.075551
  20
34.356848
  30
0
  11
83.485685
  21
31.886913
  31
0
  0
LINE
100
AcDbEntity
  8
0
100
AcDbLine
  5
1004E
  10
83.526201963382
  20
31.9184910722087
  30
0
  11
139.939906
  21
31.857999
  31
0
  0
LINE
100
AcDbEntity
  8
0
100
AcDbLine
  5
1004F
  10
139.979409285092
  20
31.8338535799723
  30
0
  11
139.90272
  21
34.340592
  31
0
  0
LINE
100
AcDbEntity
  8
0
100
AcDbLine
  5
10050
  10
139.894771792855
  20
34.3729783470657
  30
0
  11
83.075551
  21
34.356848
  31
0
  0
LINE
100
AcDbEntity
  8
0
100
AcDbLine
  5
10051
  10
84.344335
  20
27.985013
  30
0
  11
85.031258
  21
25.51508
  31
0
  0
LINE
100
AcDbEntity
  8
0
100
AcDbLine
  5
10052
  10
85.049676823638
  20
25.4860416622388
  30
0
  11
139.649652
  21
25.51508
  31
0
  0
LINE
100
AcDbEntity
  8
0
100
AcDbLine
  5
10053
  10
139.640859316146
  20
25.4860416622388
  30
0
  11
139.813301
  21
27.985013
  31
0
  0
LINE
100
AcDbEntity
  8
0
100
AcDbLine
  5
10054
  10
139.810134300619
  20
28.0251664293322
  30
0
  11
84.344335
  21
27.985013
  31
0
  0
LINE
100
AcDbEntity
  8
0
100
AcDbLine
  5
10055
  10
86.3849
  20
21.61318
  30
0
  11
87.449632
  21
19.141247
  31
0
  0
LINE
100
AcDbEntity
  8
0
100
AcDbLine
  5
10056
  10
87.4195266062585
  20
19.1382297445053
  30
0
  11
138.760694
  21
19.141247
  31
0
  0
LINE
100
AcDbEntity
  8
0
100
AcDbLine
  5
10057
  10
138.794484393782
  20
19.1382297445053
  30
0
  11
139.203153
  21
21.61318
  31
0
  0
LINE
100
AcDbEntity
  8
0
100
AcDbLine
  5
10058
  10
139.217671854964
  20
21.5927170193622
  30
0
  11
86.3849
  21
21.61318
  31
0
  0
LINE
100
AcDbEntity
  8
0
100
AcDbLine
  5
10059
  10
89.573027
  20
15.241348
  30
0
  11
91.314578
  21
12.7694
  31
0
  0
LINE
100
AcDbEntity
  8
0
100
AcDbLine
  5
1005A
  10
91.3128512491351
  20
12.7904178267718
  30
0
  11
136.574665
  21
12.7694
  31
0
  0
LINE
100
AcDbEntity
  8
0
100
AcDbLine
  5
1005B
  10
136.593909595634
  20
12.7904178267718
  30
0
  11
137.67172
  21
15.241348
  31
0
  0
LINE
100
AcDbEntity
  8
0
100
AcDbLine
  5
1005C
  10
137.694196994708
  20
15.2449051016288
  30
0
  11
89.573027
  21
15.241348
  31
0
  0
LINE
100
AcDbEntity
  8
0
100
AcDbLine
  5
1005D
  10
95.16134
  20
8.869512
  30
0
  11
99.008105
  21
6.397556
  31
0
  0
LINE
100
AcDbEntity
  8
0
100
AcDbLine
  5
1005E
  10
99.0148630426517
  20
6.35796841680186
  30
0
  11
129.98021
  21
6.397556
  31
0
  0
LINE
100
AcDbEntity
  8
0
100
AcDbLine
  5
1005F
  10
129.992185201191
  20
6.35796841680186
  30
0
  11
133.50978
  21
8.869512
  31
0
  0
LINE
100
AcDbEntity
  8
0
100
AcDbLine
  5
10060
  10
133.546959875122
  20
8.89709318389526
  30
0
  11
95.16134
  21
8.869512
  31
0
  0
ENDSEC
  0
SECTION
  2
OBJECTS
  0
DICTIONARY
  5
C
330
0
100
AcDbDictionary
  3
ACAD_GROUP
350
D
  3
ACAD_MLINESTYLE
350
17
  0
DICTIONARY
  5
D
330
C
100
AcDbDictionary
  0
DICTIONARY
  5
1A
330
C
100
AcDbDictionary
  0
DICTIONARY
  5
17
330
C
100
AcDbDictionary
  3
STANDARD
350
18
  0
DICTIONARY
  5
19
330
C
100
AcDbDictionary
  0
ENDSEC
  0
EOF
