G04 #@! TF.GenerationSoftware,KiCad,Pcbnew,(5.0.1)-3*
G04 #@! TF.CreationDate,2019-10-20T14:25:59+10:30*
G04 #@! TF.ProjectId,LED Glasses v2,4C454420476C61737365732076322E6B,rev?*
G04 #@! TF.SameCoordinates,Original*
G04 #@! TF.FileFunction,Copper,L1,Top,Signal*
G04 #@! TF.FilePolarity,Positive*
%FSLAX46Y46*%
G04 Gerber Fmt 4.6, Leading zero omitted, Abs format (unit mm)*
G04 Created by KiCad (PCBNEW (5.0.1)-3) date 20/10/2019 2:25:59 PM*
%MOMM*%
%LPD*%
G01*
G04 APERTURE LIST*
G04 #@! TA.AperFunction,SMDPad,CuDef*
%ADD10R,1.600000X0.850000*%
G04 #@! TD*
G04 #@! TA.AperFunction,SMDPad,CuDef*
%ADD11R,3.000000X0.600000*%
G04 #@! TD*
G04 #@! TA.AperFunction,Conductor*
%ADD12C,0.100000*%
G04 #@! TD*
G04 #@! TA.AperFunction,SMDPad,CuDef*
%ADD13C,0.950000*%
G04 #@! TD*
G04 #@! TA.AperFunction,ViaPad*
%ADD14C,0.800000*%
G04 #@! TD*
G04 #@! TA.AperFunction,Conductor*
%ADD15C,0.250000*%
G04 #@! TD*
G04 APERTURE END LIST*
D10*
G04 #@! TO.P,D53,1*
G04 #@! TO.N,Net-(D47-Pad3)*
X200500000Y-101225000D03*
G04 #@! TO.P,D53,2*
G04 #@! TO.N,Net-(C1-Pad2)*
X200500000Y-102975000D03*
G04 #@! TO.P,D53,4*
G04 #@! TO.N,Net-(C1-Pad1)*
X204000000Y-101225000D03*
G04 #@! TO.P,D53,3*
G04 #@! TO.N,Net-(D53-Pad3)*
X204000000Y-102975000D03*
G04 #@! TD*
D11*
G04 #@! TO.P,J4,1*
G04 #@! TO.N,Net-(C1-Pad2)*
X236715300Y-103276400D03*
G04 #@! TD*
G04 #@! TO.P,J5,1*
G04 #@! TO.N,Net-(C1-Pad1)*
X236651800Y-100571300D03*
G04 #@! TD*
G04 #@! TO.P,J2,1*
G04 #@! TO.N,Net-(C1-Pad1)*
X88696800Y-100660200D03*
G04 #@! TD*
G04 #@! TO.P,J3,1*
G04 #@! TO.N,Net-(C1-Pad2)*
X88696800Y-103009700D03*
G04 #@! TD*
G04 #@! TO.P,J1,1*
G04 #@! TO.N,Net-(D63-Pad3)*
X236730209Y-101917570D03*
G04 #@! TD*
D10*
G04 #@! TO.P,D51,3*
G04 #@! TO.N,Net-(D51-Pad3)*
X193125000Y-128475000D03*
G04 #@! TO.P,D51,4*
G04 #@! TO.N,Net-(C1-Pad1)*
X193125000Y-126725000D03*
G04 #@! TO.P,D51,2*
G04 #@! TO.N,Net-(C1-Pad2)*
X189625000Y-128475000D03*
G04 #@! TO.P,D51,1*
G04 #@! TO.N,Net-(D45-Pad3)*
X189625000Y-126725000D03*
G04 #@! TD*
D12*
G04 #@! TO.N,Net-(C1-Pad1)*
G04 #@! TO.C,C1*
G36*
X94443979Y-96007544D02*
X94467034Y-96010963D01*
X94489643Y-96016627D01*
X94511587Y-96024479D01*
X94532657Y-96034444D01*
X94552648Y-96046426D01*
X94571368Y-96060310D01*
X94588638Y-96075962D01*
X94604290Y-96093232D01*
X94618174Y-96111952D01*
X94630156Y-96131943D01*
X94640121Y-96153013D01*
X94647973Y-96174957D01*
X94653637Y-96197566D01*
X94657056Y-96220621D01*
X94658200Y-96243900D01*
X94658200Y-96818900D01*
X94657056Y-96842179D01*
X94653637Y-96865234D01*
X94647973Y-96887843D01*
X94640121Y-96909787D01*
X94630156Y-96930857D01*
X94618174Y-96950848D01*
X94604290Y-96969568D01*
X94588638Y-96986838D01*
X94571368Y-97002490D01*
X94552648Y-97016374D01*
X94532657Y-97028356D01*
X94511587Y-97038321D01*
X94489643Y-97046173D01*
X94467034Y-97051837D01*
X94443979Y-97055256D01*
X94420700Y-97056400D01*
X93945700Y-97056400D01*
X93922421Y-97055256D01*
X93899366Y-97051837D01*
X93876757Y-97046173D01*
X93854813Y-97038321D01*
X93833743Y-97028356D01*
X93813752Y-97016374D01*
X93795032Y-97002490D01*
X93777762Y-96986838D01*
X93762110Y-96969568D01*
X93748226Y-96950848D01*
X93736244Y-96930857D01*
X93726279Y-96909787D01*
X93718427Y-96887843D01*
X93712763Y-96865234D01*
X93709344Y-96842179D01*
X93708200Y-96818900D01*
X93708200Y-96243900D01*
X93709344Y-96220621D01*
X93712763Y-96197566D01*
X93718427Y-96174957D01*
X93726279Y-96153013D01*
X93736244Y-96131943D01*
X93748226Y-96111952D01*
X93762110Y-96093232D01*
X93777762Y-96075962D01*
X93795032Y-96060310D01*
X93813752Y-96046426D01*
X93833743Y-96034444D01*
X93854813Y-96024479D01*
X93876757Y-96016627D01*
X93899366Y-96010963D01*
X93922421Y-96007544D01*
X93945700Y-96006400D01*
X94420700Y-96006400D01*
X94443979Y-96007544D01*
X94443979Y-96007544D01*
G37*
D13*
G04 #@! TD*
G04 #@! TO.P,C1,1*
G04 #@! TO.N,Net-(C1-Pad1)*
X94183200Y-96531400D03*
D12*
G04 #@! TO.N,Net-(C1-Pad2)*
G04 #@! TO.C,C1*
G36*
X94443979Y-94257544D02*
X94467034Y-94260963D01*
X94489643Y-94266627D01*
X94511587Y-94274479D01*
X94532657Y-94284444D01*
X94552648Y-94296426D01*
X94571368Y-94310310D01*
X94588638Y-94325962D01*
X94604290Y-94343232D01*
X94618174Y-94361952D01*
X94630156Y-94381943D01*
X94640121Y-94403013D01*
X94647973Y-94424957D01*
X94653637Y-94447566D01*
X94657056Y-94470621D01*
X94658200Y-94493900D01*
X94658200Y-95068900D01*
X94657056Y-95092179D01*
X94653637Y-95115234D01*
X94647973Y-95137843D01*
X94640121Y-95159787D01*
X94630156Y-95180857D01*
X94618174Y-95200848D01*
X94604290Y-95219568D01*
X94588638Y-95236838D01*
X94571368Y-95252490D01*
X94552648Y-95266374D01*
X94532657Y-95278356D01*
X94511587Y-95288321D01*
X94489643Y-95296173D01*
X94467034Y-95301837D01*
X94443979Y-95305256D01*
X94420700Y-95306400D01*
X93945700Y-95306400D01*
X93922421Y-95305256D01*
X93899366Y-95301837D01*
X93876757Y-95296173D01*
X93854813Y-95288321D01*
X93833743Y-95278356D01*
X93813752Y-95266374D01*
X93795032Y-95252490D01*
X93777762Y-95236838D01*
X93762110Y-95219568D01*
X93748226Y-95200848D01*
X93736244Y-95180857D01*
X93726279Y-95159787D01*
X93718427Y-95137843D01*
X93712763Y-95115234D01*
X93709344Y-95092179D01*
X93708200Y-95068900D01*
X93708200Y-94493900D01*
X93709344Y-94470621D01*
X93712763Y-94447566D01*
X93718427Y-94424957D01*
X93726279Y-94403013D01*
X93736244Y-94381943D01*
X93748226Y-94361952D01*
X93762110Y-94343232D01*
X93777762Y-94325962D01*
X93795032Y-94310310D01*
X93813752Y-94296426D01*
X93833743Y-94284444D01*
X93854813Y-94274479D01*
X93876757Y-94266627D01*
X93899366Y-94260963D01*
X93922421Y-94257544D01*
X93945700Y-94256400D01*
X94420700Y-94256400D01*
X94443979Y-94257544D01*
X94443979Y-94257544D01*
G37*
D13*
G04 #@! TD*
G04 #@! TO.P,C1,2*
G04 #@! TO.N,Net-(C1-Pad2)*
X94183200Y-94781400D03*
D12*
G04 #@! TO.N,Net-(C1-Pad2)*
G04 #@! TO.C,C14*
G36*
X220212079Y-94384544D02*
X220235134Y-94387963D01*
X220257743Y-94393627D01*
X220279687Y-94401479D01*
X220300757Y-94411444D01*
X220320748Y-94423426D01*
X220339468Y-94437310D01*
X220356738Y-94452962D01*
X220372390Y-94470232D01*
X220386274Y-94488952D01*
X220398256Y-94508943D01*
X220408221Y-94530013D01*
X220416073Y-94551957D01*
X220421737Y-94574566D01*
X220425156Y-94597621D01*
X220426300Y-94620900D01*
X220426300Y-95195900D01*
X220425156Y-95219179D01*
X220421737Y-95242234D01*
X220416073Y-95264843D01*
X220408221Y-95286787D01*
X220398256Y-95307857D01*
X220386274Y-95327848D01*
X220372390Y-95346568D01*
X220356738Y-95363838D01*
X220339468Y-95379490D01*
X220320748Y-95393374D01*
X220300757Y-95405356D01*
X220279687Y-95415321D01*
X220257743Y-95423173D01*
X220235134Y-95428837D01*
X220212079Y-95432256D01*
X220188800Y-95433400D01*
X219713800Y-95433400D01*
X219690521Y-95432256D01*
X219667466Y-95428837D01*
X219644857Y-95423173D01*
X219622913Y-95415321D01*
X219601843Y-95405356D01*
X219581852Y-95393374D01*
X219563132Y-95379490D01*
X219545862Y-95363838D01*
X219530210Y-95346568D01*
X219516326Y-95327848D01*
X219504344Y-95307857D01*
X219494379Y-95286787D01*
X219486527Y-95264843D01*
X219480863Y-95242234D01*
X219477444Y-95219179D01*
X219476300Y-95195900D01*
X219476300Y-94620900D01*
X219477444Y-94597621D01*
X219480863Y-94574566D01*
X219486527Y-94551957D01*
X219494379Y-94530013D01*
X219504344Y-94508943D01*
X219516326Y-94488952D01*
X219530210Y-94470232D01*
X219545862Y-94452962D01*
X219563132Y-94437310D01*
X219581852Y-94423426D01*
X219601843Y-94411444D01*
X219622913Y-94401479D01*
X219644857Y-94393627D01*
X219667466Y-94387963D01*
X219690521Y-94384544D01*
X219713800Y-94383400D01*
X220188800Y-94383400D01*
X220212079Y-94384544D01*
X220212079Y-94384544D01*
G37*
D13*
G04 #@! TD*
G04 #@! TO.P,C14,2*
G04 #@! TO.N,Net-(C1-Pad2)*
X219951300Y-94908400D03*
D12*
G04 #@! TO.N,Net-(C1-Pad1)*
G04 #@! TO.C,C14*
G36*
X220212079Y-96134544D02*
X220235134Y-96137963D01*
X220257743Y-96143627D01*
X220279687Y-96151479D01*
X220300757Y-96161444D01*
X220320748Y-96173426D01*
X220339468Y-96187310D01*
X220356738Y-96202962D01*
X220372390Y-96220232D01*
X220386274Y-96238952D01*
X220398256Y-96258943D01*
X220408221Y-96280013D01*
X220416073Y-96301957D01*
X220421737Y-96324566D01*
X220425156Y-96347621D01*
X220426300Y-96370900D01*
X220426300Y-96945900D01*
X220425156Y-96969179D01*
X220421737Y-96992234D01*
X220416073Y-97014843D01*
X220408221Y-97036787D01*
X220398256Y-97057857D01*
X220386274Y-97077848D01*
X220372390Y-97096568D01*
X220356738Y-97113838D01*
X220339468Y-97129490D01*
X220320748Y-97143374D01*
X220300757Y-97155356D01*
X220279687Y-97165321D01*
X220257743Y-97173173D01*
X220235134Y-97178837D01*
X220212079Y-97182256D01*
X220188800Y-97183400D01*
X219713800Y-97183400D01*
X219690521Y-97182256D01*
X219667466Y-97178837D01*
X219644857Y-97173173D01*
X219622913Y-97165321D01*
X219601843Y-97155356D01*
X219581852Y-97143374D01*
X219563132Y-97129490D01*
X219545862Y-97113838D01*
X219530210Y-97096568D01*
X219516326Y-97077848D01*
X219504344Y-97057857D01*
X219494379Y-97036787D01*
X219486527Y-97014843D01*
X219480863Y-96992234D01*
X219477444Y-96969179D01*
X219476300Y-96945900D01*
X219476300Y-96370900D01*
X219477444Y-96347621D01*
X219480863Y-96324566D01*
X219486527Y-96301957D01*
X219494379Y-96280013D01*
X219504344Y-96258943D01*
X219516326Y-96238952D01*
X219530210Y-96220232D01*
X219545862Y-96202962D01*
X219563132Y-96187310D01*
X219581852Y-96173426D01*
X219601843Y-96161444D01*
X219622913Y-96151479D01*
X219644857Y-96143627D01*
X219667466Y-96137963D01*
X219690521Y-96134544D01*
X219713800Y-96133400D01*
X220188800Y-96133400D01*
X220212079Y-96134544D01*
X220212079Y-96134544D01*
G37*
D13*
G04 #@! TD*
G04 #@! TO.P,C14,1*
G04 #@! TO.N,Net-(C1-Pad1)*
X219951300Y-96658400D03*
D12*
G04 #@! TO.N,Net-(C1-Pad2)*
G04 #@! TO.C,C13*
G36*
X151924179Y-102104844D02*
X151947234Y-102108263D01*
X151969843Y-102113927D01*
X151991787Y-102121779D01*
X152012857Y-102131744D01*
X152032848Y-102143726D01*
X152051568Y-102157610D01*
X152068838Y-102173262D01*
X152084490Y-102190532D01*
X152098374Y-102209252D01*
X152110356Y-102229243D01*
X152120321Y-102250313D01*
X152128173Y-102272257D01*
X152133837Y-102294866D01*
X152137256Y-102317921D01*
X152138400Y-102341200D01*
X152138400Y-102916200D01*
X152137256Y-102939479D01*
X152133837Y-102962534D01*
X152128173Y-102985143D01*
X152120321Y-103007087D01*
X152110356Y-103028157D01*
X152098374Y-103048148D01*
X152084490Y-103066868D01*
X152068838Y-103084138D01*
X152051568Y-103099790D01*
X152032848Y-103113674D01*
X152012857Y-103125656D01*
X151991787Y-103135621D01*
X151969843Y-103143473D01*
X151947234Y-103149137D01*
X151924179Y-103152556D01*
X151900900Y-103153700D01*
X151425900Y-103153700D01*
X151402621Y-103152556D01*
X151379566Y-103149137D01*
X151356957Y-103143473D01*
X151335013Y-103135621D01*
X151313943Y-103125656D01*
X151293952Y-103113674D01*
X151275232Y-103099790D01*
X151257962Y-103084138D01*
X151242310Y-103066868D01*
X151228426Y-103048148D01*
X151216444Y-103028157D01*
X151206479Y-103007087D01*
X151198627Y-102985143D01*
X151192963Y-102962534D01*
X151189544Y-102939479D01*
X151188400Y-102916200D01*
X151188400Y-102341200D01*
X151189544Y-102317921D01*
X151192963Y-102294866D01*
X151198627Y-102272257D01*
X151206479Y-102250313D01*
X151216444Y-102229243D01*
X151228426Y-102209252D01*
X151242310Y-102190532D01*
X151257962Y-102173262D01*
X151275232Y-102157610D01*
X151293952Y-102143726D01*
X151313943Y-102131744D01*
X151335013Y-102121779D01*
X151356957Y-102113927D01*
X151379566Y-102108263D01*
X151402621Y-102104844D01*
X151425900Y-102103700D01*
X151900900Y-102103700D01*
X151924179Y-102104844D01*
X151924179Y-102104844D01*
G37*
D13*
G04 #@! TD*
G04 #@! TO.P,C13,2*
G04 #@! TO.N,Net-(C1-Pad2)*
X151663400Y-102628700D03*
D12*
G04 #@! TO.N,Net-(C1-Pad1)*
G04 #@! TO.C,C13*
G36*
X151924179Y-100354844D02*
X151947234Y-100358263D01*
X151969843Y-100363927D01*
X151991787Y-100371779D01*
X152012857Y-100381744D01*
X152032848Y-100393726D01*
X152051568Y-100407610D01*
X152068838Y-100423262D01*
X152084490Y-100440532D01*
X152098374Y-100459252D01*
X152110356Y-100479243D01*
X152120321Y-100500313D01*
X152128173Y-100522257D01*
X152133837Y-100544866D01*
X152137256Y-100567921D01*
X152138400Y-100591200D01*
X152138400Y-101166200D01*
X152137256Y-101189479D01*
X152133837Y-101212534D01*
X152128173Y-101235143D01*
X152120321Y-101257087D01*
X152110356Y-101278157D01*
X152098374Y-101298148D01*
X152084490Y-101316868D01*
X152068838Y-101334138D01*
X152051568Y-101349790D01*
X152032848Y-101363674D01*
X152012857Y-101375656D01*
X151991787Y-101385621D01*
X151969843Y-101393473D01*
X151947234Y-101399137D01*
X151924179Y-101402556D01*
X151900900Y-101403700D01*
X151425900Y-101403700D01*
X151402621Y-101402556D01*
X151379566Y-101399137D01*
X151356957Y-101393473D01*
X151335013Y-101385621D01*
X151313943Y-101375656D01*
X151293952Y-101363674D01*
X151275232Y-101349790D01*
X151257962Y-101334138D01*
X151242310Y-101316868D01*
X151228426Y-101298148D01*
X151216444Y-101278157D01*
X151206479Y-101257087D01*
X151198627Y-101235143D01*
X151192963Y-101212534D01*
X151189544Y-101189479D01*
X151188400Y-101166200D01*
X151188400Y-100591200D01*
X151189544Y-100567921D01*
X151192963Y-100544866D01*
X151198627Y-100522257D01*
X151206479Y-100500313D01*
X151216444Y-100479243D01*
X151228426Y-100459252D01*
X151242310Y-100440532D01*
X151257962Y-100423262D01*
X151275232Y-100407610D01*
X151293952Y-100393726D01*
X151313943Y-100381744D01*
X151335013Y-100371779D01*
X151356957Y-100363927D01*
X151379566Y-100358263D01*
X151402621Y-100354844D01*
X151425900Y-100353700D01*
X151900900Y-100353700D01*
X151924179Y-100354844D01*
X151924179Y-100354844D01*
G37*
D13*
G04 #@! TD*
G04 #@! TO.P,C13,1*
G04 #@! TO.N,Net-(C1-Pad1)*
X151663400Y-100878700D03*
D12*
G04 #@! TO.N,Net-(C1-Pad1)*
G04 #@! TO.C,C12*
G36*
X150870079Y-87590044D02*
X150893134Y-87593463D01*
X150915743Y-87599127D01*
X150937687Y-87606979D01*
X150958757Y-87616944D01*
X150978748Y-87628926D01*
X150997468Y-87642810D01*
X151014738Y-87658462D01*
X151030390Y-87675732D01*
X151044274Y-87694452D01*
X151056256Y-87714443D01*
X151066221Y-87735513D01*
X151074073Y-87757457D01*
X151079737Y-87780066D01*
X151083156Y-87803121D01*
X151084300Y-87826400D01*
X151084300Y-88401400D01*
X151083156Y-88424679D01*
X151079737Y-88447734D01*
X151074073Y-88470343D01*
X151066221Y-88492287D01*
X151056256Y-88513357D01*
X151044274Y-88533348D01*
X151030390Y-88552068D01*
X151014738Y-88569338D01*
X150997468Y-88584990D01*
X150978748Y-88598874D01*
X150958757Y-88610856D01*
X150937687Y-88620821D01*
X150915743Y-88628673D01*
X150893134Y-88634337D01*
X150870079Y-88637756D01*
X150846800Y-88638900D01*
X150371800Y-88638900D01*
X150348521Y-88637756D01*
X150325466Y-88634337D01*
X150302857Y-88628673D01*
X150280913Y-88620821D01*
X150259843Y-88610856D01*
X150239852Y-88598874D01*
X150221132Y-88584990D01*
X150203862Y-88569338D01*
X150188210Y-88552068D01*
X150174326Y-88533348D01*
X150162344Y-88513357D01*
X150152379Y-88492287D01*
X150144527Y-88470343D01*
X150138863Y-88447734D01*
X150135444Y-88424679D01*
X150134300Y-88401400D01*
X150134300Y-87826400D01*
X150135444Y-87803121D01*
X150138863Y-87780066D01*
X150144527Y-87757457D01*
X150152379Y-87735513D01*
X150162344Y-87714443D01*
X150174326Y-87694452D01*
X150188210Y-87675732D01*
X150203862Y-87658462D01*
X150221132Y-87642810D01*
X150239852Y-87628926D01*
X150259843Y-87616944D01*
X150280913Y-87606979D01*
X150302857Y-87599127D01*
X150325466Y-87593463D01*
X150348521Y-87590044D01*
X150371800Y-87588900D01*
X150846800Y-87588900D01*
X150870079Y-87590044D01*
X150870079Y-87590044D01*
G37*
D13*
G04 #@! TD*
G04 #@! TO.P,C12,1*
G04 #@! TO.N,Net-(C1-Pad1)*
X150609300Y-88113900D03*
D12*
G04 #@! TO.N,Net-(C1-Pad2)*
G04 #@! TO.C,C12*
G36*
X150870079Y-89340044D02*
X150893134Y-89343463D01*
X150915743Y-89349127D01*
X150937687Y-89356979D01*
X150958757Y-89366944D01*
X150978748Y-89378926D01*
X150997468Y-89392810D01*
X151014738Y-89408462D01*
X151030390Y-89425732D01*
X151044274Y-89444452D01*
X151056256Y-89464443D01*
X151066221Y-89485513D01*
X151074073Y-89507457D01*
X151079737Y-89530066D01*
X151083156Y-89553121D01*
X151084300Y-89576400D01*
X151084300Y-90151400D01*
X151083156Y-90174679D01*
X151079737Y-90197734D01*
X151074073Y-90220343D01*
X151066221Y-90242287D01*
X151056256Y-90263357D01*
X151044274Y-90283348D01*
X151030390Y-90302068D01*
X151014738Y-90319338D01*
X150997468Y-90334990D01*
X150978748Y-90348874D01*
X150958757Y-90360856D01*
X150937687Y-90370821D01*
X150915743Y-90378673D01*
X150893134Y-90384337D01*
X150870079Y-90387756D01*
X150846800Y-90388900D01*
X150371800Y-90388900D01*
X150348521Y-90387756D01*
X150325466Y-90384337D01*
X150302857Y-90378673D01*
X150280913Y-90370821D01*
X150259843Y-90360856D01*
X150239852Y-90348874D01*
X150221132Y-90334990D01*
X150203862Y-90319338D01*
X150188210Y-90302068D01*
X150174326Y-90283348D01*
X150162344Y-90263357D01*
X150152379Y-90242287D01*
X150144527Y-90220343D01*
X150138863Y-90197734D01*
X150135444Y-90174679D01*
X150134300Y-90151400D01*
X150134300Y-89576400D01*
X150135444Y-89553121D01*
X150138863Y-89530066D01*
X150144527Y-89507457D01*
X150152379Y-89485513D01*
X150162344Y-89464443D01*
X150174326Y-89444452D01*
X150188210Y-89425732D01*
X150203862Y-89408462D01*
X150221132Y-89392810D01*
X150239852Y-89378926D01*
X150259843Y-89366944D01*
X150280913Y-89356979D01*
X150302857Y-89349127D01*
X150325466Y-89343463D01*
X150348521Y-89340044D01*
X150371800Y-89338900D01*
X150846800Y-89338900D01*
X150870079Y-89340044D01*
X150870079Y-89340044D01*
G37*
D13*
G04 #@! TD*
G04 #@! TO.P,C12,2*
G04 #@! TO.N,Net-(C1-Pad2)*
X150609300Y-89863900D03*
D12*
G04 #@! TO.N,Net-(C1-Pad1)*
G04 #@! TO.C,C11*
G36*
X219627879Y-113523444D02*
X219650934Y-113526863D01*
X219673543Y-113532527D01*
X219695487Y-113540379D01*
X219716557Y-113550344D01*
X219736548Y-113562326D01*
X219755268Y-113576210D01*
X219772538Y-113591862D01*
X219788190Y-113609132D01*
X219802074Y-113627852D01*
X219814056Y-113647843D01*
X219824021Y-113668913D01*
X219831873Y-113690857D01*
X219837537Y-113713466D01*
X219840956Y-113736521D01*
X219842100Y-113759800D01*
X219842100Y-114334800D01*
X219840956Y-114358079D01*
X219837537Y-114381134D01*
X219831873Y-114403743D01*
X219824021Y-114425687D01*
X219814056Y-114446757D01*
X219802074Y-114466748D01*
X219788190Y-114485468D01*
X219772538Y-114502738D01*
X219755268Y-114518390D01*
X219736548Y-114532274D01*
X219716557Y-114544256D01*
X219695487Y-114554221D01*
X219673543Y-114562073D01*
X219650934Y-114567737D01*
X219627879Y-114571156D01*
X219604600Y-114572300D01*
X219129600Y-114572300D01*
X219106321Y-114571156D01*
X219083266Y-114567737D01*
X219060657Y-114562073D01*
X219038713Y-114554221D01*
X219017643Y-114544256D01*
X218997652Y-114532274D01*
X218978932Y-114518390D01*
X218961662Y-114502738D01*
X218946010Y-114485468D01*
X218932126Y-114466748D01*
X218920144Y-114446757D01*
X218910179Y-114425687D01*
X218902327Y-114403743D01*
X218896663Y-114381134D01*
X218893244Y-114358079D01*
X218892100Y-114334800D01*
X218892100Y-113759800D01*
X218893244Y-113736521D01*
X218896663Y-113713466D01*
X218902327Y-113690857D01*
X218910179Y-113668913D01*
X218920144Y-113647843D01*
X218932126Y-113627852D01*
X218946010Y-113609132D01*
X218961662Y-113591862D01*
X218978932Y-113576210D01*
X218997652Y-113562326D01*
X219017643Y-113550344D01*
X219038713Y-113540379D01*
X219060657Y-113532527D01*
X219083266Y-113526863D01*
X219106321Y-113523444D01*
X219129600Y-113522300D01*
X219604600Y-113522300D01*
X219627879Y-113523444D01*
X219627879Y-113523444D01*
G37*
D13*
G04 #@! TD*
G04 #@! TO.P,C11,1*
G04 #@! TO.N,Net-(C1-Pad1)*
X219367100Y-114047300D03*
D12*
G04 #@! TO.N,Net-(C1-Pad2)*
G04 #@! TO.C,C11*
G36*
X219627879Y-115273444D02*
X219650934Y-115276863D01*
X219673543Y-115282527D01*
X219695487Y-115290379D01*
X219716557Y-115300344D01*
X219736548Y-115312326D01*
X219755268Y-115326210D01*
X219772538Y-115341862D01*
X219788190Y-115359132D01*
X219802074Y-115377852D01*
X219814056Y-115397843D01*
X219824021Y-115418913D01*
X219831873Y-115440857D01*
X219837537Y-115463466D01*
X219840956Y-115486521D01*
X219842100Y-115509800D01*
X219842100Y-116084800D01*
X219840956Y-116108079D01*
X219837537Y-116131134D01*
X219831873Y-116153743D01*
X219824021Y-116175687D01*
X219814056Y-116196757D01*
X219802074Y-116216748D01*
X219788190Y-116235468D01*
X219772538Y-116252738D01*
X219755268Y-116268390D01*
X219736548Y-116282274D01*
X219716557Y-116294256D01*
X219695487Y-116304221D01*
X219673543Y-116312073D01*
X219650934Y-116317737D01*
X219627879Y-116321156D01*
X219604600Y-116322300D01*
X219129600Y-116322300D01*
X219106321Y-116321156D01*
X219083266Y-116317737D01*
X219060657Y-116312073D01*
X219038713Y-116304221D01*
X219017643Y-116294256D01*
X218997652Y-116282274D01*
X218978932Y-116268390D01*
X218961662Y-116252738D01*
X218946010Y-116235468D01*
X218932126Y-116216748D01*
X218920144Y-116196757D01*
X218910179Y-116175687D01*
X218902327Y-116153743D01*
X218896663Y-116131134D01*
X218893244Y-116108079D01*
X218892100Y-116084800D01*
X218892100Y-115509800D01*
X218893244Y-115486521D01*
X218896663Y-115463466D01*
X218902327Y-115440857D01*
X218910179Y-115418913D01*
X218920144Y-115397843D01*
X218932126Y-115377852D01*
X218946010Y-115359132D01*
X218961662Y-115341862D01*
X218978932Y-115326210D01*
X218997652Y-115312326D01*
X219017643Y-115300344D01*
X219038713Y-115290379D01*
X219060657Y-115282527D01*
X219083266Y-115276863D01*
X219106321Y-115273444D01*
X219129600Y-115272300D01*
X219604600Y-115272300D01*
X219627879Y-115273444D01*
X219627879Y-115273444D01*
G37*
D13*
G04 #@! TD*
G04 #@! TO.P,C11,2*
G04 #@! TO.N,Net-(C1-Pad2)*
X219367100Y-115797300D03*
D12*
G04 #@! TO.N,Net-(C1-Pad2)*
G04 #@! TO.C,C10*
G36*
X219754879Y-102598844D02*
X219777934Y-102602263D01*
X219800543Y-102607927D01*
X219822487Y-102615779D01*
X219843557Y-102625744D01*
X219863548Y-102637726D01*
X219882268Y-102651610D01*
X219899538Y-102667262D01*
X219915190Y-102684532D01*
X219929074Y-102703252D01*
X219941056Y-102723243D01*
X219951021Y-102744313D01*
X219958873Y-102766257D01*
X219964537Y-102788866D01*
X219967956Y-102811921D01*
X219969100Y-102835200D01*
X219969100Y-103410200D01*
X219967956Y-103433479D01*
X219964537Y-103456534D01*
X219958873Y-103479143D01*
X219951021Y-103501087D01*
X219941056Y-103522157D01*
X219929074Y-103542148D01*
X219915190Y-103560868D01*
X219899538Y-103578138D01*
X219882268Y-103593790D01*
X219863548Y-103607674D01*
X219843557Y-103619656D01*
X219822487Y-103629621D01*
X219800543Y-103637473D01*
X219777934Y-103643137D01*
X219754879Y-103646556D01*
X219731600Y-103647700D01*
X219256600Y-103647700D01*
X219233321Y-103646556D01*
X219210266Y-103643137D01*
X219187657Y-103637473D01*
X219165713Y-103629621D01*
X219144643Y-103619656D01*
X219124652Y-103607674D01*
X219105932Y-103593790D01*
X219088662Y-103578138D01*
X219073010Y-103560868D01*
X219059126Y-103542148D01*
X219047144Y-103522157D01*
X219037179Y-103501087D01*
X219029327Y-103479143D01*
X219023663Y-103456534D01*
X219020244Y-103433479D01*
X219019100Y-103410200D01*
X219019100Y-102835200D01*
X219020244Y-102811921D01*
X219023663Y-102788866D01*
X219029327Y-102766257D01*
X219037179Y-102744313D01*
X219047144Y-102723243D01*
X219059126Y-102703252D01*
X219073010Y-102684532D01*
X219088662Y-102667262D01*
X219105932Y-102651610D01*
X219124652Y-102637726D01*
X219144643Y-102625744D01*
X219165713Y-102615779D01*
X219187657Y-102607927D01*
X219210266Y-102602263D01*
X219233321Y-102598844D01*
X219256600Y-102597700D01*
X219731600Y-102597700D01*
X219754879Y-102598844D01*
X219754879Y-102598844D01*
G37*
D13*
G04 #@! TD*
G04 #@! TO.P,C10,2*
G04 #@! TO.N,Net-(C1-Pad2)*
X219494100Y-103122700D03*
D12*
G04 #@! TO.N,Net-(C1-Pad1)*
G04 #@! TO.C,C10*
G36*
X219754879Y-100848844D02*
X219777934Y-100852263D01*
X219800543Y-100857927D01*
X219822487Y-100865779D01*
X219843557Y-100875744D01*
X219863548Y-100887726D01*
X219882268Y-100901610D01*
X219899538Y-100917262D01*
X219915190Y-100934532D01*
X219929074Y-100953252D01*
X219941056Y-100973243D01*
X219951021Y-100994313D01*
X219958873Y-101016257D01*
X219964537Y-101038866D01*
X219967956Y-101061921D01*
X219969100Y-101085200D01*
X219969100Y-101660200D01*
X219967956Y-101683479D01*
X219964537Y-101706534D01*
X219958873Y-101729143D01*
X219951021Y-101751087D01*
X219941056Y-101772157D01*
X219929074Y-101792148D01*
X219915190Y-101810868D01*
X219899538Y-101828138D01*
X219882268Y-101843790D01*
X219863548Y-101857674D01*
X219843557Y-101869656D01*
X219822487Y-101879621D01*
X219800543Y-101887473D01*
X219777934Y-101893137D01*
X219754879Y-101896556D01*
X219731600Y-101897700D01*
X219256600Y-101897700D01*
X219233321Y-101896556D01*
X219210266Y-101893137D01*
X219187657Y-101887473D01*
X219165713Y-101879621D01*
X219144643Y-101869656D01*
X219124652Y-101857674D01*
X219105932Y-101843790D01*
X219088662Y-101828138D01*
X219073010Y-101810868D01*
X219059126Y-101792148D01*
X219047144Y-101772157D01*
X219037179Y-101751087D01*
X219029327Y-101729143D01*
X219023663Y-101706534D01*
X219020244Y-101683479D01*
X219019100Y-101660200D01*
X219019100Y-101085200D01*
X219020244Y-101061921D01*
X219023663Y-101038866D01*
X219029327Y-101016257D01*
X219037179Y-100994313D01*
X219047144Y-100973243D01*
X219059126Y-100953252D01*
X219073010Y-100934532D01*
X219088662Y-100917262D01*
X219105932Y-100901610D01*
X219124652Y-100887726D01*
X219144643Y-100875744D01*
X219165713Y-100865779D01*
X219187657Y-100857927D01*
X219210266Y-100852263D01*
X219233321Y-100848844D01*
X219256600Y-100847700D01*
X219731600Y-100847700D01*
X219754879Y-100848844D01*
X219754879Y-100848844D01*
G37*
D13*
G04 #@! TD*
G04 #@! TO.P,C10,1*
G04 #@! TO.N,Net-(C1-Pad1)*
X219494100Y-101372700D03*
D12*
G04 #@! TO.N,Net-(C1-Pad1)*
G04 #@! TO.C,C8*
G36*
X185680779Y-121509144D02*
X185703834Y-121512563D01*
X185726443Y-121518227D01*
X185748387Y-121526079D01*
X185769457Y-121536044D01*
X185789448Y-121548026D01*
X185808168Y-121561910D01*
X185825438Y-121577562D01*
X185841090Y-121594832D01*
X185854974Y-121613552D01*
X185866956Y-121633543D01*
X185876921Y-121654613D01*
X185884773Y-121676557D01*
X185890437Y-121699166D01*
X185893856Y-121722221D01*
X185895000Y-121745500D01*
X185895000Y-122320500D01*
X185893856Y-122343779D01*
X185890437Y-122366834D01*
X185884773Y-122389443D01*
X185876921Y-122411387D01*
X185866956Y-122432457D01*
X185854974Y-122452448D01*
X185841090Y-122471168D01*
X185825438Y-122488438D01*
X185808168Y-122504090D01*
X185789448Y-122517974D01*
X185769457Y-122529956D01*
X185748387Y-122539921D01*
X185726443Y-122547773D01*
X185703834Y-122553437D01*
X185680779Y-122556856D01*
X185657500Y-122558000D01*
X185182500Y-122558000D01*
X185159221Y-122556856D01*
X185136166Y-122553437D01*
X185113557Y-122547773D01*
X185091613Y-122539921D01*
X185070543Y-122529956D01*
X185050552Y-122517974D01*
X185031832Y-122504090D01*
X185014562Y-122488438D01*
X184998910Y-122471168D01*
X184985026Y-122452448D01*
X184973044Y-122432457D01*
X184963079Y-122411387D01*
X184955227Y-122389443D01*
X184949563Y-122366834D01*
X184946144Y-122343779D01*
X184945000Y-122320500D01*
X184945000Y-121745500D01*
X184946144Y-121722221D01*
X184949563Y-121699166D01*
X184955227Y-121676557D01*
X184963079Y-121654613D01*
X184973044Y-121633543D01*
X184985026Y-121613552D01*
X184998910Y-121594832D01*
X185014562Y-121577562D01*
X185031832Y-121561910D01*
X185050552Y-121548026D01*
X185070543Y-121536044D01*
X185091613Y-121526079D01*
X185113557Y-121518227D01*
X185136166Y-121512563D01*
X185159221Y-121509144D01*
X185182500Y-121508000D01*
X185657500Y-121508000D01*
X185680779Y-121509144D01*
X185680779Y-121509144D01*
G37*
D13*
G04 #@! TD*
G04 #@! TO.P,C8,1*
G04 #@! TO.N,Net-(C1-Pad1)*
X185420000Y-122033000D03*
D12*
G04 #@! TO.N,Net-(C1-Pad2)*
G04 #@! TO.C,C8*
G36*
X185680779Y-119759144D02*
X185703834Y-119762563D01*
X185726443Y-119768227D01*
X185748387Y-119776079D01*
X185769457Y-119786044D01*
X185789448Y-119798026D01*
X185808168Y-119811910D01*
X185825438Y-119827562D01*
X185841090Y-119844832D01*
X185854974Y-119863552D01*
X185866956Y-119883543D01*
X185876921Y-119904613D01*
X185884773Y-119926557D01*
X185890437Y-119949166D01*
X185893856Y-119972221D01*
X185895000Y-119995500D01*
X185895000Y-120570500D01*
X185893856Y-120593779D01*
X185890437Y-120616834D01*
X185884773Y-120639443D01*
X185876921Y-120661387D01*
X185866956Y-120682457D01*
X185854974Y-120702448D01*
X185841090Y-120721168D01*
X185825438Y-120738438D01*
X185808168Y-120754090D01*
X185789448Y-120767974D01*
X185769457Y-120779956D01*
X185748387Y-120789921D01*
X185726443Y-120797773D01*
X185703834Y-120803437D01*
X185680779Y-120806856D01*
X185657500Y-120808000D01*
X185182500Y-120808000D01*
X185159221Y-120806856D01*
X185136166Y-120803437D01*
X185113557Y-120797773D01*
X185091613Y-120789921D01*
X185070543Y-120779956D01*
X185050552Y-120767974D01*
X185031832Y-120754090D01*
X185014562Y-120738438D01*
X184998910Y-120721168D01*
X184985026Y-120702448D01*
X184973044Y-120682457D01*
X184963079Y-120661387D01*
X184955227Y-120639443D01*
X184949563Y-120616834D01*
X184946144Y-120593779D01*
X184945000Y-120570500D01*
X184945000Y-119995500D01*
X184946144Y-119972221D01*
X184949563Y-119949166D01*
X184955227Y-119926557D01*
X184963079Y-119904613D01*
X184973044Y-119883543D01*
X184985026Y-119863552D01*
X184998910Y-119844832D01*
X185014562Y-119827562D01*
X185031832Y-119811910D01*
X185050552Y-119798026D01*
X185070543Y-119786044D01*
X185091613Y-119776079D01*
X185113557Y-119768227D01*
X185136166Y-119762563D01*
X185159221Y-119759144D01*
X185182500Y-119758000D01*
X185657500Y-119758000D01*
X185680779Y-119759144D01*
X185680779Y-119759144D01*
G37*
D13*
G04 #@! TD*
G04 #@! TO.P,C8,2*
G04 #@! TO.N,Net-(C1-Pad2)*
X185420000Y-120283000D03*
D12*
G04 #@! TO.N,Net-(C1-Pad2)*
G04 #@! TO.C,C7*
G36*
X185591879Y-106881344D02*
X185614934Y-106884763D01*
X185637543Y-106890427D01*
X185659487Y-106898279D01*
X185680557Y-106908244D01*
X185700548Y-106920226D01*
X185719268Y-106934110D01*
X185736538Y-106949762D01*
X185752190Y-106967032D01*
X185766074Y-106985752D01*
X185778056Y-107005743D01*
X185788021Y-107026813D01*
X185795873Y-107048757D01*
X185801537Y-107071366D01*
X185804956Y-107094421D01*
X185806100Y-107117700D01*
X185806100Y-107692700D01*
X185804956Y-107715979D01*
X185801537Y-107739034D01*
X185795873Y-107761643D01*
X185788021Y-107783587D01*
X185778056Y-107804657D01*
X185766074Y-107824648D01*
X185752190Y-107843368D01*
X185736538Y-107860638D01*
X185719268Y-107876290D01*
X185700548Y-107890174D01*
X185680557Y-107902156D01*
X185659487Y-107912121D01*
X185637543Y-107919973D01*
X185614934Y-107925637D01*
X185591879Y-107929056D01*
X185568600Y-107930200D01*
X185093600Y-107930200D01*
X185070321Y-107929056D01*
X185047266Y-107925637D01*
X185024657Y-107919973D01*
X185002713Y-107912121D01*
X184981643Y-107902156D01*
X184961652Y-107890174D01*
X184942932Y-107876290D01*
X184925662Y-107860638D01*
X184910010Y-107843368D01*
X184896126Y-107824648D01*
X184884144Y-107804657D01*
X184874179Y-107783587D01*
X184866327Y-107761643D01*
X184860663Y-107739034D01*
X184857244Y-107715979D01*
X184856100Y-107692700D01*
X184856100Y-107117700D01*
X184857244Y-107094421D01*
X184860663Y-107071366D01*
X184866327Y-107048757D01*
X184874179Y-107026813D01*
X184884144Y-107005743D01*
X184896126Y-106985752D01*
X184910010Y-106967032D01*
X184925662Y-106949762D01*
X184942932Y-106934110D01*
X184961652Y-106920226D01*
X184981643Y-106908244D01*
X185002713Y-106898279D01*
X185024657Y-106890427D01*
X185047266Y-106884763D01*
X185070321Y-106881344D01*
X185093600Y-106880200D01*
X185568600Y-106880200D01*
X185591879Y-106881344D01*
X185591879Y-106881344D01*
G37*
D13*
G04 #@! TD*
G04 #@! TO.P,C7,2*
G04 #@! TO.N,Net-(C1-Pad2)*
X185331100Y-107405200D03*
D12*
G04 #@! TO.N,Net-(C1-Pad1)*
G04 #@! TO.C,C7*
G36*
X185591879Y-108631344D02*
X185614934Y-108634763D01*
X185637543Y-108640427D01*
X185659487Y-108648279D01*
X185680557Y-108658244D01*
X185700548Y-108670226D01*
X185719268Y-108684110D01*
X185736538Y-108699762D01*
X185752190Y-108717032D01*
X185766074Y-108735752D01*
X185778056Y-108755743D01*
X185788021Y-108776813D01*
X185795873Y-108798757D01*
X185801537Y-108821366D01*
X185804956Y-108844421D01*
X185806100Y-108867700D01*
X185806100Y-109442700D01*
X185804956Y-109465979D01*
X185801537Y-109489034D01*
X185795873Y-109511643D01*
X185788021Y-109533587D01*
X185778056Y-109554657D01*
X185766074Y-109574648D01*
X185752190Y-109593368D01*
X185736538Y-109610638D01*
X185719268Y-109626290D01*
X185700548Y-109640174D01*
X185680557Y-109652156D01*
X185659487Y-109662121D01*
X185637543Y-109669973D01*
X185614934Y-109675637D01*
X185591879Y-109679056D01*
X185568600Y-109680200D01*
X185093600Y-109680200D01*
X185070321Y-109679056D01*
X185047266Y-109675637D01*
X185024657Y-109669973D01*
X185002713Y-109662121D01*
X184981643Y-109652156D01*
X184961652Y-109640174D01*
X184942932Y-109626290D01*
X184925662Y-109610638D01*
X184910010Y-109593368D01*
X184896126Y-109574648D01*
X184884144Y-109554657D01*
X184874179Y-109533587D01*
X184866327Y-109511643D01*
X184860663Y-109489034D01*
X184857244Y-109465979D01*
X184856100Y-109442700D01*
X184856100Y-108867700D01*
X184857244Y-108844421D01*
X184860663Y-108821366D01*
X184866327Y-108798757D01*
X184874179Y-108776813D01*
X184884144Y-108755743D01*
X184896126Y-108735752D01*
X184910010Y-108717032D01*
X184925662Y-108699762D01*
X184942932Y-108684110D01*
X184961652Y-108670226D01*
X184981643Y-108658244D01*
X185002713Y-108648279D01*
X185024657Y-108640427D01*
X185047266Y-108634763D01*
X185070321Y-108631344D01*
X185093600Y-108630200D01*
X185568600Y-108630200D01*
X185591879Y-108631344D01*
X185591879Y-108631344D01*
G37*
D13*
G04 #@! TD*
G04 #@! TO.P,C7,1*
G04 #@! TO.N,Net-(C1-Pad1)*
X185331100Y-109155200D03*
D12*
G04 #@! TO.N,Net-(C1-Pad1)*
G04 #@! TO.C,C6*
G36*
X186366579Y-96032944D02*
X186389634Y-96036363D01*
X186412243Y-96042027D01*
X186434187Y-96049879D01*
X186455257Y-96059844D01*
X186475248Y-96071826D01*
X186493968Y-96085710D01*
X186511238Y-96101362D01*
X186526890Y-96118632D01*
X186540774Y-96137352D01*
X186552756Y-96157343D01*
X186562721Y-96178413D01*
X186570573Y-96200357D01*
X186576237Y-96222966D01*
X186579656Y-96246021D01*
X186580800Y-96269300D01*
X186580800Y-96844300D01*
X186579656Y-96867579D01*
X186576237Y-96890634D01*
X186570573Y-96913243D01*
X186562721Y-96935187D01*
X186552756Y-96956257D01*
X186540774Y-96976248D01*
X186526890Y-96994968D01*
X186511238Y-97012238D01*
X186493968Y-97027890D01*
X186475248Y-97041774D01*
X186455257Y-97053756D01*
X186434187Y-97063721D01*
X186412243Y-97071573D01*
X186389634Y-97077237D01*
X186366579Y-97080656D01*
X186343300Y-97081800D01*
X185868300Y-97081800D01*
X185845021Y-97080656D01*
X185821966Y-97077237D01*
X185799357Y-97071573D01*
X185777413Y-97063721D01*
X185756343Y-97053756D01*
X185736352Y-97041774D01*
X185717632Y-97027890D01*
X185700362Y-97012238D01*
X185684710Y-96994968D01*
X185670826Y-96976248D01*
X185658844Y-96956257D01*
X185648879Y-96935187D01*
X185641027Y-96913243D01*
X185635363Y-96890634D01*
X185631944Y-96867579D01*
X185630800Y-96844300D01*
X185630800Y-96269300D01*
X185631944Y-96246021D01*
X185635363Y-96222966D01*
X185641027Y-96200357D01*
X185648879Y-96178413D01*
X185658844Y-96157343D01*
X185670826Y-96137352D01*
X185684710Y-96118632D01*
X185700362Y-96101362D01*
X185717632Y-96085710D01*
X185736352Y-96071826D01*
X185756343Y-96059844D01*
X185777413Y-96049879D01*
X185799357Y-96042027D01*
X185821966Y-96036363D01*
X185845021Y-96032944D01*
X185868300Y-96031800D01*
X186343300Y-96031800D01*
X186366579Y-96032944D01*
X186366579Y-96032944D01*
G37*
D13*
G04 #@! TD*
G04 #@! TO.P,C6,1*
G04 #@! TO.N,Net-(C1-Pad1)*
X186105800Y-96556800D03*
D12*
G04 #@! TO.N,Net-(C1-Pad2)*
G04 #@! TO.C,C6*
G36*
X186366579Y-94282944D02*
X186389634Y-94286363D01*
X186412243Y-94292027D01*
X186434187Y-94299879D01*
X186455257Y-94309844D01*
X186475248Y-94321826D01*
X186493968Y-94335710D01*
X186511238Y-94351362D01*
X186526890Y-94368632D01*
X186540774Y-94387352D01*
X186552756Y-94407343D01*
X186562721Y-94428413D01*
X186570573Y-94450357D01*
X186576237Y-94472966D01*
X186579656Y-94496021D01*
X186580800Y-94519300D01*
X186580800Y-95094300D01*
X186579656Y-95117579D01*
X186576237Y-95140634D01*
X186570573Y-95163243D01*
X186562721Y-95185187D01*
X186552756Y-95206257D01*
X186540774Y-95226248D01*
X186526890Y-95244968D01*
X186511238Y-95262238D01*
X186493968Y-95277890D01*
X186475248Y-95291774D01*
X186455257Y-95303756D01*
X186434187Y-95313721D01*
X186412243Y-95321573D01*
X186389634Y-95327237D01*
X186366579Y-95330656D01*
X186343300Y-95331800D01*
X185868300Y-95331800D01*
X185845021Y-95330656D01*
X185821966Y-95327237D01*
X185799357Y-95321573D01*
X185777413Y-95313721D01*
X185756343Y-95303756D01*
X185736352Y-95291774D01*
X185717632Y-95277890D01*
X185700362Y-95262238D01*
X185684710Y-95244968D01*
X185670826Y-95226248D01*
X185658844Y-95206257D01*
X185648879Y-95185187D01*
X185641027Y-95163243D01*
X185635363Y-95140634D01*
X185631944Y-95117579D01*
X185630800Y-95094300D01*
X185630800Y-94519300D01*
X185631944Y-94496021D01*
X185635363Y-94472966D01*
X185641027Y-94450357D01*
X185648879Y-94428413D01*
X185658844Y-94407343D01*
X185670826Y-94387352D01*
X185684710Y-94368632D01*
X185700362Y-94351362D01*
X185717632Y-94335710D01*
X185736352Y-94321826D01*
X185756343Y-94309844D01*
X185777413Y-94299879D01*
X185799357Y-94292027D01*
X185821966Y-94286363D01*
X185845021Y-94282944D01*
X185868300Y-94281800D01*
X186343300Y-94281800D01*
X186366579Y-94282944D01*
X186366579Y-94282944D01*
G37*
D13*
G04 #@! TD*
G04 #@! TO.P,C6,2*
G04 #@! TO.N,Net-(C1-Pad2)*
X186105800Y-94806800D03*
D12*
G04 #@! TO.N,Net-(C1-Pad1)*
G04 #@! TO.C,C5*
G36*
X149841379Y-113550144D02*
X149864434Y-113553563D01*
X149887043Y-113559227D01*
X149908987Y-113567079D01*
X149930057Y-113577044D01*
X149950048Y-113589026D01*
X149968768Y-113602910D01*
X149986038Y-113618562D01*
X150001690Y-113635832D01*
X150015574Y-113654552D01*
X150027556Y-113674543D01*
X150037521Y-113695613D01*
X150045373Y-113717557D01*
X150051037Y-113740166D01*
X150054456Y-113763221D01*
X150055600Y-113786500D01*
X150055600Y-114361500D01*
X150054456Y-114384779D01*
X150051037Y-114407834D01*
X150045373Y-114430443D01*
X150037521Y-114452387D01*
X150027556Y-114473457D01*
X150015574Y-114493448D01*
X150001690Y-114512168D01*
X149986038Y-114529438D01*
X149968768Y-114545090D01*
X149950048Y-114558974D01*
X149930057Y-114570956D01*
X149908987Y-114580921D01*
X149887043Y-114588773D01*
X149864434Y-114594437D01*
X149841379Y-114597856D01*
X149818100Y-114599000D01*
X149343100Y-114599000D01*
X149319821Y-114597856D01*
X149296766Y-114594437D01*
X149274157Y-114588773D01*
X149252213Y-114580921D01*
X149231143Y-114570956D01*
X149211152Y-114558974D01*
X149192432Y-114545090D01*
X149175162Y-114529438D01*
X149159510Y-114512168D01*
X149145626Y-114493448D01*
X149133644Y-114473457D01*
X149123679Y-114452387D01*
X149115827Y-114430443D01*
X149110163Y-114407834D01*
X149106744Y-114384779D01*
X149105600Y-114361500D01*
X149105600Y-113786500D01*
X149106744Y-113763221D01*
X149110163Y-113740166D01*
X149115827Y-113717557D01*
X149123679Y-113695613D01*
X149133644Y-113674543D01*
X149145626Y-113654552D01*
X149159510Y-113635832D01*
X149175162Y-113618562D01*
X149192432Y-113602910D01*
X149211152Y-113589026D01*
X149231143Y-113577044D01*
X149252213Y-113567079D01*
X149274157Y-113559227D01*
X149296766Y-113553563D01*
X149319821Y-113550144D01*
X149343100Y-113549000D01*
X149818100Y-113549000D01*
X149841379Y-113550144D01*
X149841379Y-113550144D01*
G37*
D13*
G04 #@! TD*
G04 #@! TO.P,C5,1*
G04 #@! TO.N,Net-(C1-Pad1)*
X149580600Y-114074000D03*
D12*
G04 #@! TO.N,Net-(C1-Pad2)*
G04 #@! TO.C,C5*
G36*
X149841379Y-115300144D02*
X149864434Y-115303563D01*
X149887043Y-115309227D01*
X149908987Y-115317079D01*
X149930057Y-115327044D01*
X149950048Y-115339026D01*
X149968768Y-115352910D01*
X149986038Y-115368562D01*
X150001690Y-115385832D01*
X150015574Y-115404552D01*
X150027556Y-115424543D01*
X150037521Y-115445613D01*
X150045373Y-115467557D01*
X150051037Y-115490166D01*
X150054456Y-115513221D01*
X150055600Y-115536500D01*
X150055600Y-116111500D01*
X150054456Y-116134779D01*
X150051037Y-116157834D01*
X150045373Y-116180443D01*
X150037521Y-116202387D01*
X150027556Y-116223457D01*
X150015574Y-116243448D01*
X150001690Y-116262168D01*
X149986038Y-116279438D01*
X149968768Y-116295090D01*
X149950048Y-116308974D01*
X149930057Y-116320956D01*
X149908987Y-116330921D01*
X149887043Y-116338773D01*
X149864434Y-116344437D01*
X149841379Y-116347856D01*
X149818100Y-116349000D01*
X149343100Y-116349000D01*
X149319821Y-116347856D01*
X149296766Y-116344437D01*
X149274157Y-116338773D01*
X149252213Y-116330921D01*
X149231143Y-116320956D01*
X149211152Y-116308974D01*
X149192432Y-116295090D01*
X149175162Y-116279438D01*
X149159510Y-116262168D01*
X149145626Y-116243448D01*
X149133644Y-116223457D01*
X149123679Y-116202387D01*
X149115827Y-116180443D01*
X149110163Y-116157834D01*
X149106744Y-116134779D01*
X149105600Y-116111500D01*
X149105600Y-115536500D01*
X149106744Y-115513221D01*
X149110163Y-115490166D01*
X149115827Y-115467557D01*
X149123679Y-115445613D01*
X149133644Y-115424543D01*
X149145626Y-115404552D01*
X149159510Y-115385832D01*
X149175162Y-115368562D01*
X149192432Y-115352910D01*
X149211152Y-115339026D01*
X149231143Y-115327044D01*
X149252213Y-115317079D01*
X149274157Y-115309227D01*
X149296766Y-115303563D01*
X149319821Y-115300144D01*
X149343100Y-115299000D01*
X149818100Y-115299000D01*
X149841379Y-115300144D01*
X149841379Y-115300144D01*
G37*
D13*
G04 #@! TD*
G04 #@! TO.P,C5,2*
G04 #@! TO.N,Net-(C1-Pad2)*
X149580600Y-115824000D03*
D12*
G04 #@! TO.N,Net-(C1-Pad2)*
G04 #@! TO.C,C4*
G36*
X140252879Y-127859144D02*
X140275934Y-127862563D01*
X140298543Y-127868227D01*
X140320487Y-127876079D01*
X140341557Y-127886044D01*
X140361548Y-127898026D01*
X140380268Y-127911910D01*
X140397538Y-127927562D01*
X140413190Y-127944832D01*
X140427074Y-127963552D01*
X140439056Y-127983543D01*
X140449021Y-128004613D01*
X140456873Y-128026557D01*
X140462537Y-128049166D01*
X140465956Y-128072221D01*
X140467100Y-128095500D01*
X140467100Y-128670500D01*
X140465956Y-128693779D01*
X140462537Y-128716834D01*
X140456873Y-128739443D01*
X140449021Y-128761387D01*
X140439056Y-128782457D01*
X140427074Y-128802448D01*
X140413190Y-128821168D01*
X140397538Y-128838438D01*
X140380268Y-128854090D01*
X140361548Y-128867974D01*
X140341557Y-128879956D01*
X140320487Y-128889921D01*
X140298543Y-128897773D01*
X140275934Y-128903437D01*
X140252879Y-128906856D01*
X140229600Y-128908000D01*
X139754600Y-128908000D01*
X139731321Y-128906856D01*
X139708266Y-128903437D01*
X139685657Y-128897773D01*
X139663713Y-128889921D01*
X139642643Y-128879956D01*
X139622652Y-128867974D01*
X139603932Y-128854090D01*
X139586662Y-128838438D01*
X139571010Y-128821168D01*
X139557126Y-128802448D01*
X139545144Y-128782457D01*
X139535179Y-128761387D01*
X139527327Y-128739443D01*
X139521663Y-128716834D01*
X139518244Y-128693779D01*
X139517100Y-128670500D01*
X139517100Y-128095500D01*
X139518244Y-128072221D01*
X139521663Y-128049166D01*
X139527327Y-128026557D01*
X139535179Y-128004613D01*
X139545144Y-127983543D01*
X139557126Y-127963552D01*
X139571010Y-127944832D01*
X139586662Y-127927562D01*
X139603932Y-127911910D01*
X139622652Y-127898026D01*
X139642643Y-127886044D01*
X139663713Y-127876079D01*
X139685657Y-127868227D01*
X139708266Y-127862563D01*
X139731321Y-127859144D01*
X139754600Y-127858000D01*
X140229600Y-127858000D01*
X140252879Y-127859144D01*
X140252879Y-127859144D01*
G37*
D13*
G04 #@! TD*
G04 #@! TO.P,C4,2*
G04 #@! TO.N,Net-(C1-Pad2)*
X139992100Y-128383000D03*
D12*
G04 #@! TO.N,Net-(C1-Pad1)*
G04 #@! TO.C,C4*
G36*
X140252879Y-126109144D02*
X140275934Y-126112563D01*
X140298543Y-126118227D01*
X140320487Y-126126079D01*
X140341557Y-126136044D01*
X140361548Y-126148026D01*
X140380268Y-126161910D01*
X140397538Y-126177562D01*
X140413190Y-126194832D01*
X140427074Y-126213552D01*
X140439056Y-126233543D01*
X140449021Y-126254613D01*
X140456873Y-126276557D01*
X140462537Y-126299166D01*
X140465956Y-126322221D01*
X140467100Y-126345500D01*
X140467100Y-126920500D01*
X140465956Y-126943779D01*
X140462537Y-126966834D01*
X140456873Y-126989443D01*
X140449021Y-127011387D01*
X140439056Y-127032457D01*
X140427074Y-127052448D01*
X140413190Y-127071168D01*
X140397538Y-127088438D01*
X140380268Y-127104090D01*
X140361548Y-127117974D01*
X140341557Y-127129956D01*
X140320487Y-127139921D01*
X140298543Y-127147773D01*
X140275934Y-127153437D01*
X140252879Y-127156856D01*
X140229600Y-127158000D01*
X139754600Y-127158000D01*
X139731321Y-127156856D01*
X139708266Y-127153437D01*
X139685657Y-127147773D01*
X139663713Y-127139921D01*
X139642643Y-127129956D01*
X139622652Y-127117974D01*
X139603932Y-127104090D01*
X139586662Y-127088438D01*
X139571010Y-127071168D01*
X139557126Y-127052448D01*
X139545144Y-127032457D01*
X139535179Y-127011387D01*
X139527327Y-126989443D01*
X139521663Y-126966834D01*
X139518244Y-126943779D01*
X139517100Y-126920500D01*
X139517100Y-126345500D01*
X139518244Y-126322221D01*
X139521663Y-126299166D01*
X139527327Y-126276557D01*
X139535179Y-126254613D01*
X139545144Y-126233543D01*
X139557126Y-126213552D01*
X139571010Y-126194832D01*
X139586662Y-126177562D01*
X139603932Y-126161910D01*
X139622652Y-126148026D01*
X139642643Y-126136044D01*
X139663713Y-126126079D01*
X139685657Y-126118227D01*
X139708266Y-126112563D01*
X139731321Y-126109144D01*
X139754600Y-126108000D01*
X140229600Y-126108000D01*
X140252879Y-126109144D01*
X140252879Y-126109144D01*
G37*
D13*
G04 #@! TD*
G04 #@! TO.P,C4,1*
G04 #@! TO.N,Net-(C1-Pad1)*
X139992100Y-126633000D03*
D12*
G04 #@! TO.N,Net-(C1-Pad2)*
G04 #@! TO.C,C3*
G36*
X95078979Y-119849344D02*
X95102034Y-119852763D01*
X95124643Y-119858427D01*
X95146587Y-119866279D01*
X95167657Y-119876244D01*
X95187648Y-119888226D01*
X95206368Y-119902110D01*
X95223638Y-119917762D01*
X95239290Y-119935032D01*
X95253174Y-119953752D01*
X95265156Y-119973743D01*
X95275121Y-119994813D01*
X95282973Y-120016757D01*
X95288637Y-120039366D01*
X95292056Y-120062421D01*
X95293200Y-120085700D01*
X95293200Y-120660700D01*
X95292056Y-120683979D01*
X95288637Y-120707034D01*
X95282973Y-120729643D01*
X95275121Y-120751587D01*
X95265156Y-120772657D01*
X95253174Y-120792648D01*
X95239290Y-120811368D01*
X95223638Y-120828638D01*
X95206368Y-120844290D01*
X95187648Y-120858174D01*
X95167657Y-120870156D01*
X95146587Y-120880121D01*
X95124643Y-120887973D01*
X95102034Y-120893637D01*
X95078979Y-120897056D01*
X95055700Y-120898200D01*
X94580700Y-120898200D01*
X94557421Y-120897056D01*
X94534366Y-120893637D01*
X94511757Y-120887973D01*
X94489813Y-120880121D01*
X94468743Y-120870156D01*
X94448752Y-120858174D01*
X94430032Y-120844290D01*
X94412762Y-120828638D01*
X94397110Y-120811368D01*
X94383226Y-120792648D01*
X94371244Y-120772657D01*
X94361279Y-120751587D01*
X94353427Y-120729643D01*
X94347763Y-120707034D01*
X94344344Y-120683979D01*
X94343200Y-120660700D01*
X94343200Y-120085700D01*
X94344344Y-120062421D01*
X94347763Y-120039366D01*
X94353427Y-120016757D01*
X94361279Y-119994813D01*
X94371244Y-119973743D01*
X94383226Y-119953752D01*
X94397110Y-119935032D01*
X94412762Y-119917762D01*
X94430032Y-119902110D01*
X94448752Y-119888226D01*
X94468743Y-119876244D01*
X94489813Y-119866279D01*
X94511757Y-119858427D01*
X94534366Y-119852763D01*
X94557421Y-119849344D01*
X94580700Y-119848200D01*
X95055700Y-119848200D01*
X95078979Y-119849344D01*
X95078979Y-119849344D01*
G37*
D13*
G04 #@! TD*
G04 #@! TO.P,C3,2*
G04 #@! TO.N,Net-(C1-Pad2)*
X94818200Y-120373200D03*
D12*
G04 #@! TO.N,Net-(C1-Pad1)*
G04 #@! TO.C,C3*
G36*
X95078979Y-121599344D02*
X95102034Y-121602763D01*
X95124643Y-121608427D01*
X95146587Y-121616279D01*
X95167657Y-121626244D01*
X95187648Y-121638226D01*
X95206368Y-121652110D01*
X95223638Y-121667762D01*
X95239290Y-121685032D01*
X95253174Y-121703752D01*
X95265156Y-121723743D01*
X95275121Y-121744813D01*
X95282973Y-121766757D01*
X95288637Y-121789366D01*
X95292056Y-121812421D01*
X95293200Y-121835700D01*
X95293200Y-122410700D01*
X95292056Y-122433979D01*
X95288637Y-122457034D01*
X95282973Y-122479643D01*
X95275121Y-122501587D01*
X95265156Y-122522657D01*
X95253174Y-122542648D01*
X95239290Y-122561368D01*
X95223638Y-122578638D01*
X95206368Y-122594290D01*
X95187648Y-122608174D01*
X95167657Y-122620156D01*
X95146587Y-122630121D01*
X95124643Y-122637973D01*
X95102034Y-122643637D01*
X95078979Y-122647056D01*
X95055700Y-122648200D01*
X94580700Y-122648200D01*
X94557421Y-122647056D01*
X94534366Y-122643637D01*
X94511757Y-122637973D01*
X94489813Y-122630121D01*
X94468743Y-122620156D01*
X94448752Y-122608174D01*
X94430032Y-122594290D01*
X94412762Y-122578638D01*
X94397110Y-122561368D01*
X94383226Y-122542648D01*
X94371244Y-122522657D01*
X94361279Y-122501587D01*
X94353427Y-122479643D01*
X94347763Y-122457034D01*
X94344344Y-122433979D01*
X94343200Y-122410700D01*
X94343200Y-121835700D01*
X94344344Y-121812421D01*
X94347763Y-121789366D01*
X94353427Y-121766757D01*
X94361279Y-121744813D01*
X94371244Y-121723743D01*
X94383226Y-121703752D01*
X94397110Y-121685032D01*
X94412762Y-121667762D01*
X94430032Y-121652110D01*
X94448752Y-121638226D01*
X94468743Y-121626244D01*
X94489813Y-121616279D01*
X94511757Y-121608427D01*
X94534366Y-121602763D01*
X94557421Y-121599344D01*
X94580700Y-121598200D01*
X95055700Y-121598200D01*
X95078979Y-121599344D01*
X95078979Y-121599344D01*
G37*
D13*
G04 #@! TD*
G04 #@! TO.P,C3,1*
G04 #@! TO.N,Net-(C1-Pad1)*
X94818200Y-122123200D03*
D12*
G04 #@! TO.N,Net-(C1-Pad1)*
G04 #@! TO.C,C2*
G36*
X93326379Y-108669444D02*
X93349434Y-108672863D01*
X93372043Y-108678527D01*
X93393987Y-108686379D01*
X93415057Y-108696344D01*
X93435048Y-108708326D01*
X93453768Y-108722210D01*
X93471038Y-108737862D01*
X93486690Y-108755132D01*
X93500574Y-108773852D01*
X93512556Y-108793843D01*
X93522521Y-108814913D01*
X93530373Y-108836857D01*
X93536037Y-108859466D01*
X93539456Y-108882521D01*
X93540600Y-108905800D01*
X93540600Y-109480800D01*
X93539456Y-109504079D01*
X93536037Y-109527134D01*
X93530373Y-109549743D01*
X93522521Y-109571687D01*
X93512556Y-109592757D01*
X93500574Y-109612748D01*
X93486690Y-109631468D01*
X93471038Y-109648738D01*
X93453768Y-109664390D01*
X93435048Y-109678274D01*
X93415057Y-109690256D01*
X93393987Y-109700221D01*
X93372043Y-109708073D01*
X93349434Y-109713737D01*
X93326379Y-109717156D01*
X93303100Y-109718300D01*
X92828100Y-109718300D01*
X92804821Y-109717156D01*
X92781766Y-109713737D01*
X92759157Y-109708073D01*
X92737213Y-109700221D01*
X92716143Y-109690256D01*
X92696152Y-109678274D01*
X92677432Y-109664390D01*
X92660162Y-109648738D01*
X92644510Y-109631468D01*
X92630626Y-109612748D01*
X92618644Y-109592757D01*
X92608679Y-109571687D01*
X92600827Y-109549743D01*
X92595163Y-109527134D01*
X92591744Y-109504079D01*
X92590600Y-109480800D01*
X92590600Y-108905800D01*
X92591744Y-108882521D01*
X92595163Y-108859466D01*
X92600827Y-108836857D01*
X92608679Y-108814913D01*
X92618644Y-108793843D01*
X92630626Y-108773852D01*
X92644510Y-108755132D01*
X92660162Y-108737862D01*
X92677432Y-108722210D01*
X92696152Y-108708326D01*
X92716143Y-108696344D01*
X92737213Y-108686379D01*
X92759157Y-108678527D01*
X92781766Y-108672863D01*
X92804821Y-108669444D01*
X92828100Y-108668300D01*
X93303100Y-108668300D01*
X93326379Y-108669444D01*
X93326379Y-108669444D01*
G37*
D13*
G04 #@! TD*
G04 #@! TO.P,C2,1*
G04 #@! TO.N,Net-(C1-Pad1)*
X93065600Y-109193300D03*
D12*
G04 #@! TO.N,Net-(C1-Pad2)*
G04 #@! TO.C,C2*
G36*
X93326379Y-106919444D02*
X93349434Y-106922863D01*
X93372043Y-106928527D01*
X93393987Y-106936379D01*
X93415057Y-106946344D01*
X93435048Y-106958326D01*
X93453768Y-106972210D01*
X93471038Y-106987862D01*
X93486690Y-107005132D01*
X93500574Y-107023852D01*
X93512556Y-107043843D01*
X93522521Y-107064913D01*
X93530373Y-107086857D01*
X93536037Y-107109466D01*
X93539456Y-107132521D01*
X93540600Y-107155800D01*
X93540600Y-107730800D01*
X93539456Y-107754079D01*
X93536037Y-107777134D01*
X93530373Y-107799743D01*
X93522521Y-107821687D01*
X93512556Y-107842757D01*
X93500574Y-107862748D01*
X93486690Y-107881468D01*
X93471038Y-107898738D01*
X93453768Y-107914390D01*
X93435048Y-107928274D01*
X93415057Y-107940256D01*
X93393987Y-107950221D01*
X93372043Y-107958073D01*
X93349434Y-107963737D01*
X93326379Y-107967156D01*
X93303100Y-107968300D01*
X92828100Y-107968300D01*
X92804821Y-107967156D01*
X92781766Y-107963737D01*
X92759157Y-107958073D01*
X92737213Y-107950221D01*
X92716143Y-107940256D01*
X92696152Y-107928274D01*
X92677432Y-107914390D01*
X92660162Y-107898738D01*
X92644510Y-107881468D01*
X92630626Y-107862748D01*
X92618644Y-107842757D01*
X92608679Y-107821687D01*
X92600827Y-107799743D01*
X92595163Y-107777134D01*
X92591744Y-107754079D01*
X92590600Y-107730800D01*
X92590600Y-107155800D01*
X92591744Y-107132521D01*
X92595163Y-107109466D01*
X92600827Y-107086857D01*
X92608679Y-107064913D01*
X92618644Y-107043843D01*
X92630626Y-107023852D01*
X92644510Y-107005132D01*
X92660162Y-106987862D01*
X92677432Y-106972210D01*
X92696152Y-106958326D01*
X92716143Y-106946344D01*
X92737213Y-106936379D01*
X92759157Y-106928527D01*
X92781766Y-106922863D01*
X92804821Y-106919444D01*
X92828100Y-106918300D01*
X93303100Y-106918300D01*
X93326379Y-106919444D01*
X93326379Y-106919444D01*
G37*
D13*
G04 #@! TD*
G04 #@! TO.P,C2,2*
G04 #@! TO.N,Net-(C1-Pad2)*
X93065600Y-107443300D03*
D12*
G04 #@! TO.N,Net-(C1-Pad1)*
G04 #@! TO.C,C9*
G36*
X219869179Y-126096444D02*
X219892234Y-126099863D01*
X219914843Y-126105527D01*
X219936787Y-126113379D01*
X219957857Y-126123344D01*
X219977848Y-126135326D01*
X219996568Y-126149210D01*
X220013838Y-126164862D01*
X220029490Y-126182132D01*
X220043374Y-126200852D01*
X220055356Y-126220843D01*
X220065321Y-126241913D01*
X220073173Y-126263857D01*
X220078837Y-126286466D01*
X220082256Y-126309521D01*
X220083400Y-126332800D01*
X220083400Y-126907800D01*
X220082256Y-126931079D01*
X220078837Y-126954134D01*
X220073173Y-126976743D01*
X220065321Y-126998687D01*
X220055356Y-127019757D01*
X220043374Y-127039748D01*
X220029490Y-127058468D01*
X220013838Y-127075738D01*
X219996568Y-127091390D01*
X219977848Y-127105274D01*
X219957857Y-127117256D01*
X219936787Y-127127221D01*
X219914843Y-127135073D01*
X219892234Y-127140737D01*
X219869179Y-127144156D01*
X219845900Y-127145300D01*
X219370900Y-127145300D01*
X219347621Y-127144156D01*
X219324566Y-127140737D01*
X219301957Y-127135073D01*
X219280013Y-127127221D01*
X219258943Y-127117256D01*
X219238952Y-127105274D01*
X219220232Y-127091390D01*
X219202962Y-127075738D01*
X219187310Y-127058468D01*
X219173426Y-127039748D01*
X219161444Y-127019757D01*
X219151479Y-126998687D01*
X219143627Y-126976743D01*
X219137963Y-126954134D01*
X219134544Y-126931079D01*
X219133400Y-126907800D01*
X219133400Y-126332800D01*
X219134544Y-126309521D01*
X219137963Y-126286466D01*
X219143627Y-126263857D01*
X219151479Y-126241913D01*
X219161444Y-126220843D01*
X219173426Y-126200852D01*
X219187310Y-126182132D01*
X219202962Y-126164862D01*
X219220232Y-126149210D01*
X219238952Y-126135326D01*
X219258943Y-126123344D01*
X219280013Y-126113379D01*
X219301957Y-126105527D01*
X219324566Y-126099863D01*
X219347621Y-126096444D01*
X219370900Y-126095300D01*
X219845900Y-126095300D01*
X219869179Y-126096444D01*
X219869179Y-126096444D01*
G37*
D13*
G04 #@! TD*
G04 #@! TO.P,C9,1*
G04 #@! TO.N,Net-(C1-Pad1)*
X219608400Y-126620300D03*
D12*
G04 #@! TO.N,Net-(C1-Pad2)*
G04 #@! TO.C,C9*
G36*
X219869179Y-127846444D02*
X219892234Y-127849863D01*
X219914843Y-127855527D01*
X219936787Y-127863379D01*
X219957857Y-127873344D01*
X219977848Y-127885326D01*
X219996568Y-127899210D01*
X220013838Y-127914862D01*
X220029490Y-127932132D01*
X220043374Y-127950852D01*
X220055356Y-127970843D01*
X220065321Y-127991913D01*
X220073173Y-128013857D01*
X220078837Y-128036466D01*
X220082256Y-128059521D01*
X220083400Y-128082800D01*
X220083400Y-128657800D01*
X220082256Y-128681079D01*
X220078837Y-128704134D01*
X220073173Y-128726743D01*
X220065321Y-128748687D01*
X220055356Y-128769757D01*
X220043374Y-128789748D01*
X220029490Y-128808468D01*
X220013838Y-128825738D01*
X219996568Y-128841390D01*
X219977848Y-128855274D01*
X219957857Y-128867256D01*
X219936787Y-128877221D01*
X219914843Y-128885073D01*
X219892234Y-128890737D01*
X219869179Y-128894156D01*
X219845900Y-128895300D01*
X219370900Y-128895300D01*
X219347621Y-128894156D01*
X219324566Y-128890737D01*
X219301957Y-128885073D01*
X219280013Y-128877221D01*
X219258943Y-128867256D01*
X219238952Y-128855274D01*
X219220232Y-128841390D01*
X219202962Y-128825738D01*
X219187310Y-128808468D01*
X219173426Y-128789748D01*
X219161444Y-128769757D01*
X219151479Y-128748687D01*
X219143627Y-128726743D01*
X219137963Y-128704134D01*
X219134544Y-128681079D01*
X219133400Y-128657800D01*
X219133400Y-128082800D01*
X219134544Y-128059521D01*
X219137963Y-128036466D01*
X219143627Y-128013857D01*
X219151479Y-127991913D01*
X219161444Y-127970843D01*
X219173426Y-127950852D01*
X219187310Y-127932132D01*
X219202962Y-127914862D01*
X219220232Y-127899210D01*
X219238952Y-127885326D01*
X219258943Y-127873344D01*
X219280013Y-127863379D01*
X219301957Y-127855527D01*
X219324566Y-127849863D01*
X219347621Y-127846444D01*
X219370900Y-127845300D01*
X219845900Y-127845300D01*
X219869179Y-127846444D01*
X219869179Y-127846444D01*
G37*
D13*
G04 #@! TD*
G04 #@! TO.P,C9,2*
G04 #@! TO.N,Net-(C1-Pad2)*
X219608400Y-128370300D03*
D10*
G04 #@! TO.P,D1,3*
G04 #@! TO.N,Net-(D1-Pad3)*
X103750000Y-89681144D03*
G04 #@! TO.P,D1,4*
G04 #@! TO.N,Net-(C1-Pad1)*
X103750000Y-87931144D03*
G04 #@! TO.P,D1,2*
G04 #@! TO.N,Net-(C1-Pad2)*
X100250000Y-89681144D03*
G04 #@! TO.P,D1,1*
G04 #@! TO.N,Net-(D1-Pad1)*
X100250000Y-87931144D03*
G04 #@! TD*
G04 #@! TO.P,D2,1*
G04 #@! TO.N,Net-(D1-Pad3)*
X111125000Y-87931144D03*
G04 #@! TO.P,D2,2*
G04 #@! TO.N,Net-(C1-Pad2)*
X111125000Y-89681144D03*
G04 #@! TO.P,D2,4*
G04 #@! TO.N,Net-(C1-Pad1)*
X114625000Y-87931144D03*
G04 #@! TO.P,D2,3*
G04 #@! TO.N,Net-(D2-Pad3)*
X114625000Y-89681144D03*
G04 #@! TD*
G04 #@! TO.P,D3,3*
G04 #@! TO.N,Net-(D3-Pad3)*
X125500000Y-89681144D03*
G04 #@! TO.P,D3,4*
G04 #@! TO.N,Net-(C1-Pad1)*
X125500000Y-87931144D03*
G04 #@! TO.P,D3,2*
G04 #@! TO.N,Net-(C1-Pad2)*
X122000000Y-89681144D03*
G04 #@! TO.P,D3,1*
G04 #@! TO.N,Net-(D2-Pad3)*
X122000000Y-87931144D03*
G04 #@! TD*
G04 #@! TO.P,D4,1*
G04 #@! TO.N,Net-(D3-Pad3)*
X132875000Y-87931144D03*
G04 #@! TO.P,D4,2*
G04 #@! TO.N,Net-(C1-Pad2)*
X132875000Y-89681144D03*
G04 #@! TO.P,D4,4*
G04 #@! TO.N,Net-(C1-Pad1)*
X136375000Y-87931144D03*
G04 #@! TO.P,D4,3*
G04 #@! TO.N,Net-(D33-Pad1)*
X136375000Y-89681144D03*
G04 #@! TD*
G04 #@! TO.P,D5,3*
G04 #@! TO.N,Net-(D1-Pad1)*
X100250000Y-94865000D03*
G04 #@! TO.P,D5,4*
G04 #@! TO.N,Net-(C1-Pad1)*
X100250000Y-96615000D03*
G04 #@! TO.P,D5,2*
G04 #@! TO.N,Net-(C1-Pad2)*
X103750000Y-94865000D03*
G04 #@! TO.P,D5,1*
G04 #@! TO.N,Net-(D10-Pad3)*
X103750000Y-96615000D03*
G04 #@! TD*
G04 #@! TO.P,D6,1*
G04 #@! TO.N,Net-(D6-Pad1)*
X100250000Y-101225000D03*
G04 #@! TO.P,D6,2*
G04 #@! TO.N,Net-(C1-Pad2)*
X100250000Y-102975000D03*
G04 #@! TO.P,D6,4*
G04 #@! TO.N,Net-(C1-Pad1)*
X103750000Y-101225000D03*
G04 #@! TO.P,D6,3*
G04 #@! TO.N,Net-(D11-Pad1)*
X103750000Y-102975000D03*
G04 #@! TD*
G04 #@! TO.P,D7,1*
G04 #@! TO.N,Net-(D12-Pad3)*
X103750000Y-109355000D03*
G04 #@! TO.P,D7,2*
G04 #@! TO.N,Net-(C1-Pad2)*
X103750000Y-107605000D03*
G04 #@! TO.P,D7,4*
G04 #@! TO.N,Net-(C1-Pad1)*
X100250000Y-109355000D03*
G04 #@! TO.P,D7,3*
G04 #@! TO.N,Net-(D6-Pad1)*
X100250000Y-107605000D03*
G04 #@! TD*
G04 #@! TO.P,D8,1*
G04 #@! TO.N,Net-(D8-Pad1)*
X100250000Y-113975000D03*
G04 #@! TO.P,D8,2*
G04 #@! TO.N,Net-(C1-Pad2)*
X100250000Y-115725000D03*
G04 #@! TO.P,D8,4*
G04 #@! TO.N,Net-(C1-Pad1)*
X103750000Y-113975000D03*
G04 #@! TO.P,D8,3*
G04 #@! TO.N,Net-(D13-Pad1)*
X103750000Y-115725000D03*
G04 #@! TD*
G04 #@! TO.P,D9,3*
G04 #@! TO.N,Net-(D8-Pad1)*
X100250000Y-120325000D03*
G04 #@! TO.P,D9,4*
G04 #@! TO.N,Net-(C1-Pad1)*
X100250000Y-122075000D03*
G04 #@! TO.P,D9,2*
G04 #@! TO.N,Net-(C1-Pad2)*
X103750000Y-120325000D03*
G04 #@! TO.P,D9,1*
G04 #@! TO.N,Net-(D14-Pad3)*
X103750000Y-122075000D03*
G04 #@! TD*
G04 #@! TO.P,D10,1*
G04 #@! TO.N,Net-(D10-Pad1)*
X114625000Y-96615000D03*
G04 #@! TO.P,D10,2*
G04 #@! TO.N,Net-(C1-Pad2)*
X114625000Y-94865000D03*
G04 #@! TO.P,D10,4*
G04 #@! TO.N,Net-(C1-Pad1)*
X111125000Y-96615000D03*
G04 #@! TO.P,D10,3*
G04 #@! TO.N,Net-(D10-Pad3)*
X111125000Y-94865000D03*
G04 #@! TD*
G04 #@! TO.P,D11,3*
G04 #@! TO.N,Net-(D11-Pad3)*
X114625000Y-102975000D03*
G04 #@! TO.P,D11,4*
G04 #@! TO.N,Net-(C1-Pad1)*
X114625000Y-101225000D03*
G04 #@! TO.P,D11,2*
G04 #@! TO.N,Net-(C1-Pad2)*
X111125000Y-102975000D03*
G04 #@! TO.P,D11,1*
G04 #@! TO.N,Net-(D11-Pad1)*
X111125000Y-101225000D03*
G04 #@! TD*
G04 #@! TO.P,D12,3*
G04 #@! TO.N,Net-(D12-Pad3)*
X111125000Y-107605000D03*
G04 #@! TO.P,D12,4*
G04 #@! TO.N,Net-(C1-Pad1)*
X111125000Y-109355000D03*
G04 #@! TO.P,D12,2*
G04 #@! TO.N,Net-(C1-Pad2)*
X114625000Y-107605000D03*
G04 #@! TO.P,D12,1*
G04 #@! TO.N,Net-(D12-Pad1)*
X114625000Y-109355000D03*
G04 #@! TD*
G04 #@! TO.P,D13,3*
G04 #@! TO.N,Net-(D13-Pad3)*
X114625000Y-115725000D03*
G04 #@! TO.P,D13,4*
G04 #@! TO.N,Net-(C1-Pad1)*
X114625000Y-113975000D03*
G04 #@! TO.P,D13,2*
G04 #@! TO.N,Net-(C1-Pad2)*
X111125000Y-115725000D03*
G04 #@! TO.P,D13,1*
G04 #@! TO.N,Net-(D13-Pad1)*
X111125000Y-113975000D03*
G04 #@! TD*
G04 #@! TO.P,D14,1*
G04 #@! TO.N,Net-(D14-Pad1)*
X114625000Y-122075000D03*
G04 #@! TO.P,D14,2*
G04 #@! TO.N,Net-(C1-Pad2)*
X114625000Y-120325000D03*
G04 #@! TO.P,D14,4*
G04 #@! TO.N,Net-(C1-Pad1)*
X111125000Y-122075000D03*
G04 #@! TO.P,D14,3*
G04 #@! TO.N,Net-(D14-Pad3)*
X111125000Y-120325000D03*
G04 #@! TD*
G04 #@! TO.P,D15,3*
G04 #@! TO.N,Net-(D15-Pad3)*
X114625000Y-128475000D03*
G04 #@! TO.P,D15,4*
G04 #@! TO.N,Net-(C1-Pad1)*
X114625000Y-126725000D03*
G04 #@! TO.P,D15,2*
G04 #@! TO.N,Net-(C1-Pad2)*
X111125000Y-128475000D03*
G04 #@! TO.P,D15,1*
G04 #@! TO.N,Net-(D15-Pad1)*
X111125000Y-126725000D03*
G04 #@! TD*
G04 #@! TO.P,D16,3*
G04 #@! TO.N,Net-(D10-Pad1)*
X122000000Y-94865000D03*
G04 #@! TO.P,D16,4*
G04 #@! TO.N,Net-(C1-Pad1)*
X122000000Y-96615000D03*
G04 #@! TO.P,D16,2*
G04 #@! TO.N,Net-(C1-Pad2)*
X125500000Y-94865000D03*
G04 #@! TO.P,D16,1*
G04 #@! TO.N,Net-(D16-Pad1)*
X125500000Y-96615000D03*
G04 #@! TD*
G04 #@! TO.P,D17,1*
G04 #@! TO.N,Net-(D11-Pad3)*
X122000000Y-101225000D03*
G04 #@! TO.P,D17,2*
G04 #@! TO.N,Net-(C1-Pad2)*
X122000000Y-102975000D03*
G04 #@! TO.P,D17,4*
G04 #@! TO.N,Net-(C1-Pad1)*
X125500000Y-101225000D03*
G04 #@! TO.P,D17,3*
G04 #@! TO.N,Net-(D17-Pad3)*
X125500000Y-102975000D03*
G04 #@! TD*
G04 #@! TO.P,D18,1*
G04 #@! TO.N,Net-(D18-Pad1)*
X125500000Y-109355000D03*
G04 #@! TO.P,D18,2*
G04 #@! TO.N,Net-(C1-Pad2)*
X125500000Y-107605000D03*
G04 #@! TO.P,D18,4*
G04 #@! TO.N,Net-(C1-Pad1)*
X122000000Y-109355000D03*
G04 #@! TO.P,D18,3*
G04 #@! TO.N,Net-(D12-Pad1)*
X122000000Y-107605000D03*
G04 #@! TD*
G04 #@! TO.P,D19,1*
G04 #@! TO.N,Net-(D13-Pad3)*
X122000000Y-113975000D03*
G04 #@! TO.P,D19,2*
G04 #@! TO.N,Net-(C1-Pad2)*
X122000000Y-115725000D03*
G04 #@! TO.P,D19,4*
G04 #@! TO.N,Net-(C1-Pad1)*
X125500000Y-113975000D03*
G04 #@! TO.P,D19,3*
G04 #@! TO.N,Net-(D19-Pad3)*
X125500000Y-115725000D03*
G04 #@! TD*
G04 #@! TO.P,D20,1*
G04 #@! TO.N,Net-(D20-Pad1)*
X125500000Y-122075000D03*
G04 #@! TO.P,D20,2*
G04 #@! TO.N,Net-(C1-Pad2)*
X125500000Y-120325000D03*
G04 #@! TO.P,D20,4*
G04 #@! TO.N,Net-(C1-Pad1)*
X122000000Y-122075000D03*
G04 #@! TO.P,D20,3*
G04 #@! TO.N,Net-(D14-Pad1)*
X122000000Y-120325000D03*
G04 #@! TD*
G04 #@! TO.P,D21,1*
G04 #@! TO.N,Net-(D15-Pad3)*
X122000000Y-126725000D03*
G04 #@! TO.P,D21,2*
G04 #@! TO.N,Net-(C1-Pad2)*
X122000000Y-128475000D03*
G04 #@! TO.P,D21,4*
G04 #@! TO.N,Net-(C1-Pad1)*
X125500000Y-126725000D03*
G04 #@! TO.P,D21,3*
G04 #@! TO.N,Net-(D21-Pad3)*
X125500000Y-128475000D03*
G04 #@! TD*
G04 #@! TO.P,D22,3*
G04 #@! TO.N,Net-(D16-Pad1)*
X132875000Y-94865000D03*
G04 #@! TO.P,D22,4*
G04 #@! TO.N,Net-(C1-Pad1)*
X132875000Y-96615000D03*
G04 #@! TO.P,D22,2*
G04 #@! TO.N,Net-(C1-Pad2)*
X136375000Y-94865000D03*
G04 #@! TO.P,D22,1*
G04 #@! TO.N,Net-(D22-Pad1)*
X136375000Y-96615000D03*
G04 #@! TD*
G04 #@! TO.P,D23,3*
G04 #@! TO.N,Net-(D23-Pad3)*
X136375000Y-102975000D03*
G04 #@! TO.P,D23,4*
G04 #@! TO.N,Net-(C1-Pad1)*
X136375000Y-101225000D03*
G04 #@! TO.P,D23,2*
G04 #@! TO.N,Net-(C1-Pad2)*
X132875000Y-102975000D03*
G04 #@! TO.P,D23,1*
G04 #@! TO.N,Net-(D17-Pad3)*
X132875000Y-101225000D03*
G04 #@! TD*
G04 #@! TO.P,D24,3*
G04 #@! TO.N,Net-(D18-Pad1)*
X132875000Y-107605000D03*
G04 #@! TO.P,D24,4*
G04 #@! TO.N,Net-(C1-Pad1)*
X132875000Y-109355000D03*
G04 #@! TO.P,D24,2*
G04 #@! TO.N,Net-(C1-Pad2)*
X136375000Y-107605000D03*
G04 #@! TO.P,D24,1*
G04 #@! TO.N,Net-(D24-Pad1)*
X136375000Y-109355000D03*
G04 #@! TD*
G04 #@! TO.P,D25,3*
G04 #@! TO.N,Net-(D25-Pad3)*
X136375000Y-115725000D03*
G04 #@! TO.P,D25,4*
G04 #@! TO.N,Net-(C1-Pad1)*
X136375000Y-113975000D03*
G04 #@! TO.P,D25,2*
G04 #@! TO.N,Net-(C1-Pad2)*
X132875000Y-115725000D03*
G04 #@! TO.P,D25,1*
G04 #@! TO.N,Net-(D19-Pad3)*
X132875000Y-113975000D03*
G04 #@! TD*
G04 #@! TO.P,D26,3*
G04 #@! TO.N,Net-(D20-Pad1)*
X132875000Y-120325000D03*
G04 #@! TO.P,D26,4*
G04 #@! TO.N,Net-(C1-Pad1)*
X132875000Y-122075000D03*
G04 #@! TO.P,D26,2*
G04 #@! TO.N,Net-(C1-Pad2)*
X136375000Y-120325000D03*
G04 #@! TO.P,D26,1*
G04 #@! TO.N,Net-(D26-Pad1)*
X136375000Y-122075000D03*
G04 #@! TD*
G04 #@! TO.P,D27,3*
G04 #@! TO.N,Net-(D27-Pad3)*
X136375000Y-128475000D03*
G04 #@! TO.P,D27,4*
G04 #@! TO.N,Net-(C1-Pad1)*
X136375000Y-126725000D03*
G04 #@! TO.P,D27,2*
G04 #@! TO.N,Net-(C1-Pad2)*
X132875000Y-128475000D03*
G04 #@! TO.P,D27,1*
G04 #@! TO.N,Net-(D21-Pad3)*
X132875000Y-126725000D03*
G04 #@! TD*
G04 #@! TO.P,D28,3*
G04 #@! TO.N,Net-(D22-Pad1)*
X143750000Y-94865000D03*
G04 #@! TO.P,D28,4*
G04 #@! TO.N,Net-(C1-Pad1)*
X143750000Y-96615000D03*
G04 #@! TO.P,D28,2*
G04 #@! TO.N,Net-(C1-Pad2)*
X147250000Y-94865000D03*
G04 #@! TO.P,D28,1*
G04 #@! TO.N,Net-(D28-Pad1)*
X147250000Y-96615000D03*
G04 #@! TD*
G04 #@! TO.P,D29,1*
G04 #@! TO.N,Net-(D23-Pad3)*
X143750000Y-101225000D03*
G04 #@! TO.P,D29,2*
G04 #@! TO.N,Net-(C1-Pad2)*
X143750000Y-102975000D03*
G04 #@! TO.P,D29,4*
G04 #@! TO.N,Net-(C1-Pad1)*
X147250000Y-101225000D03*
G04 #@! TO.P,D29,3*
G04 #@! TO.N,Net-(D28-Pad1)*
X147250000Y-102975000D03*
G04 #@! TD*
G04 #@! TO.P,D30,1*
G04 #@! TO.N,Net-(D30-Pad1)*
X147250000Y-109355000D03*
G04 #@! TO.P,D30,2*
G04 #@! TO.N,Net-(C1-Pad2)*
X147250000Y-107605000D03*
G04 #@! TO.P,D30,4*
G04 #@! TO.N,Net-(C1-Pad1)*
X143750000Y-109355000D03*
G04 #@! TO.P,D30,3*
G04 #@! TO.N,Net-(D24-Pad1)*
X143750000Y-107605000D03*
G04 #@! TD*
G04 #@! TO.P,D31,1*
G04 #@! TO.N,Net-(D25-Pad3)*
X143750000Y-113975000D03*
G04 #@! TO.P,D31,2*
G04 #@! TO.N,Net-(C1-Pad2)*
X143750000Y-115725000D03*
G04 #@! TO.P,D31,4*
G04 #@! TO.N,Net-(C1-Pad1)*
X147250000Y-113975000D03*
G04 #@! TO.P,D31,3*
G04 #@! TO.N,Net-(D30-Pad1)*
X147250000Y-115725000D03*
G04 #@! TD*
G04 #@! TO.P,D32,1*
G04 #@! TO.N,Net-(D27-Pad3)*
X147250000Y-122075000D03*
G04 #@! TO.P,D32,2*
G04 #@! TO.N,Net-(C1-Pad2)*
X147250000Y-120325000D03*
G04 #@! TO.P,D32,4*
G04 #@! TO.N,Net-(C1-Pad1)*
X143750000Y-122075000D03*
G04 #@! TO.P,D32,3*
G04 #@! TO.N,Net-(D26-Pad1)*
X143750000Y-120325000D03*
G04 #@! TD*
G04 #@! TO.P,D33,3*
G04 #@! TO.N,Net-(D33-Pad3)*
X147250000Y-89681144D03*
G04 #@! TO.P,D33,4*
G04 #@! TO.N,Net-(C1-Pad1)*
X147250000Y-87931144D03*
G04 #@! TO.P,D33,2*
G04 #@! TO.N,Net-(C1-Pad2)*
X143750000Y-89681144D03*
G04 #@! TO.P,D33,1*
G04 #@! TO.N,Net-(D33-Pad1)*
X143750000Y-87931144D03*
G04 #@! TD*
G04 #@! TO.P,D34,1*
G04 #@! TO.N,Net-(D33-Pad3)*
X178750000Y-88125000D03*
G04 #@! TO.P,D34,2*
G04 #@! TO.N,Net-(C1-Pad2)*
X178750000Y-89875000D03*
G04 #@! TO.P,D34,4*
G04 #@! TO.N,Net-(C1-Pad1)*
X182250000Y-88125000D03*
G04 #@! TO.P,D34,3*
G04 #@! TO.N,Net-(D34-Pad3)*
X182250000Y-89875000D03*
G04 #@! TD*
G04 #@! TO.P,D35,3*
G04 #@! TO.N,Net-(D35-Pad3)*
X193125000Y-89875000D03*
G04 #@! TO.P,D35,4*
G04 #@! TO.N,Net-(C1-Pad1)*
X193125000Y-88125000D03*
G04 #@! TO.P,D35,2*
G04 #@! TO.N,Net-(C1-Pad2)*
X189625000Y-89875000D03*
G04 #@! TO.P,D35,1*
G04 #@! TO.N,Net-(D34-Pad3)*
X189625000Y-88125000D03*
G04 #@! TD*
G04 #@! TO.P,D36,1*
G04 #@! TO.N,Net-(D35-Pad3)*
X200500000Y-88125000D03*
G04 #@! TO.P,D36,2*
G04 #@! TO.N,Net-(C1-Pad2)*
X200500000Y-89875000D03*
G04 #@! TO.P,D36,4*
G04 #@! TO.N,Net-(C1-Pad1)*
X204000000Y-88125000D03*
G04 #@! TO.P,D36,3*
G04 #@! TO.N,Net-(D36-Pad3)*
X204000000Y-89875000D03*
G04 #@! TD*
G04 #@! TO.P,D37,3*
G04 #@! TO.N,Net-(D37-Pad3)*
X214875000Y-89875000D03*
G04 #@! TO.P,D37,4*
G04 #@! TO.N,Net-(C1-Pad1)*
X214875000Y-88125000D03*
G04 #@! TO.P,D37,2*
G04 #@! TO.N,Net-(C1-Pad2)*
X211375000Y-89875000D03*
G04 #@! TO.P,D37,1*
G04 #@! TO.N,Net-(D36-Pad3)*
X211375000Y-88125000D03*
G04 #@! TD*
G04 #@! TO.P,D38,1*
G04 #@! TO.N,Net-(D37-Pad3)*
X222250000Y-88125000D03*
G04 #@! TO.P,D38,2*
G04 #@! TO.N,Net-(C1-Pad2)*
X222250000Y-89875000D03*
G04 #@! TO.P,D38,4*
G04 #@! TO.N,Net-(C1-Pad1)*
X225750000Y-88125000D03*
G04 #@! TO.P,D38,3*
G04 #@! TO.N,Net-(D38-Pad3)*
X225750000Y-89875000D03*
G04 #@! TD*
G04 #@! TO.P,D41,3*
G04 #@! TO.N,Net-(D41-Pad3)*
X178750000Y-94865000D03*
G04 #@! TO.P,D41,4*
G04 #@! TO.N,Net-(C1-Pad1)*
X178750000Y-96615000D03*
G04 #@! TO.P,D41,2*
G04 #@! TO.N,Net-(C1-Pad2)*
X182250000Y-94865000D03*
G04 #@! TO.P,D41,1*
G04 #@! TO.N,Net-(D41-Pad1)*
X182250000Y-96615000D03*
G04 #@! TD*
G04 #@! TO.P,D42,1*
G04 #@! TO.N,Net-(D41-Pad3)*
X178750000Y-101225000D03*
G04 #@! TO.P,D42,2*
G04 #@! TO.N,Net-(C1-Pad2)*
X178750000Y-102975000D03*
G04 #@! TO.P,D42,4*
G04 #@! TO.N,Net-(C1-Pad1)*
X182250000Y-101225000D03*
G04 #@! TO.P,D42,3*
G04 #@! TO.N,Net-(D42-Pad3)*
X182250000Y-102975000D03*
G04 #@! TD*
G04 #@! TO.P,D43,3*
G04 #@! TO.N,Net-(D43-Pad3)*
X178750000Y-107605000D03*
G04 #@! TO.P,D43,4*
G04 #@! TO.N,Net-(C1-Pad1)*
X178750000Y-109355000D03*
G04 #@! TO.P,D43,2*
G04 #@! TO.N,Net-(C1-Pad2)*
X182250000Y-107605000D03*
G04 #@! TO.P,D43,1*
G04 #@! TO.N,Net-(D43-Pad1)*
X182250000Y-109355000D03*
G04 #@! TD*
G04 #@! TO.P,D44,1*
G04 #@! TO.N,Net-(D43-Pad3)*
X178750000Y-113975000D03*
G04 #@! TO.P,D44,2*
G04 #@! TO.N,Net-(C1-Pad2)*
X178750000Y-115725000D03*
G04 #@! TO.P,D44,4*
G04 #@! TO.N,Net-(C1-Pad1)*
X182250000Y-113975000D03*
G04 #@! TO.P,D44,3*
G04 #@! TO.N,Net-(D44-Pad3)*
X182250000Y-115725000D03*
G04 #@! TD*
G04 #@! TO.P,D45,1*
G04 #@! TO.N,Net-(D45-Pad1)*
X182250000Y-122075000D03*
G04 #@! TO.P,D45,2*
G04 #@! TO.N,Net-(C1-Pad2)*
X182250000Y-120325000D03*
G04 #@! TO.P,D45,4*
G04 #@! TO.N,Net-(C1-Pad1)*
X178750000Y-122075000D03*
G04 #@! TO.P,D45,3*
G04 #@! TO.N,Net-(D45-Pad3)*
X178750000Y-120325000D03*
G04 #@! TD*
G04 #@! TO.P,D46,1*
G04 #@! TO.N,Net-(D46-Pad1)*
X193125000Y-96615000D03*
G04 #@! TO.P,D46,2*
G04 #@! TO.N,Net-(C1-Pad2)*
X193125000Y-94865000D03*
G04 #@! TO.P,D46,4*
G04 #@! TO.N,Net-(C1-Pad1)*
X189625000Y-96615000D03*
G04 #@! TO.P,D46,3*
G04 #@! TO.N,Net-(D41-Pad1)*
X189625000Y-94865000D03*
G04 #@! TD*
G04 #@! TO.P,D47,3*
G04 #@! TO.N,Net-(D47-Pad3)*
X193125000Y-102975000D03*
G04 #@! TO.P,D47,4*
G04 #@! TO.N,Net-(C1-Pad1)*
X193125000Y-101225000D03*
G04 #@! TO.P,D47,2*
G04 #@! TO.N,Net-(C1-Pad2)*
X189625000Y-102975000D03*
G04 #@! TO.P,D47,1*
G04 #@! TO.N,Net-(D42-Pad3)*
X189625000Y-101225000D03*
G04 #@! TD*
G04 #@! TO.P,D48,3*
G04 #@! TO.N,Net-(D43-Pad1)*
X189625000Y-107605000D03*
G04 #@! TO.P,D48,4*
G04 #@! TO.N,Net-(C1-Pad1)*
X189625000Y-109355000D03*
G04 #@! TO.P,D48,2*
G04 #@! TO.N,Net-(C1-Pad2)*
X193125000Y-107605000D03*
G04 #@! TO.P,D48,1*
G04 #@! TO.N,Net-(D48-Pad1)*
X193125000Y-109355000D03*
G04 #@! TD*
G04 #@! TO.P,D49,1*
G04 #@! TO.N,Net-(D44-Pad3)*
X189625000Y-113975000D03*
G04 #@! TO.P,D49,2*
G04 #@! TO.N,Net-(C1-Pad2)*
X189625000Y-115725000D03*
G04 #@! TO.P,D49,4*
G04 #@! TO.N,Net-(C1-Pad1)*
X193125000Y-113975000D03*
G04 #@! TO.P,D49,3*
G04 #@! TO.N,Net-(D49-Pad3)*
X193125000Y-115725000D03*
G04 #@! TD*
G04 #@! TO.P,D50,1*
G04 #@! TO.N,Net-(D50-Pad1)*
X193125000Y-122075000D03*
G04 #@! TO.P,D50,2*
G04 #@! TO.N,Net-(C1-Pad2)*
X193125000Y-120325000D03*
G04 #@! TO.P,D50,4*
G04 #@! TO.N,Net-(C1-Pad1)*
X189625000Y-122075000D03*
G04 #@! TO.P,D50,3*
G04 #@! TO.N,Net-(D45-Pad1)*
X189625000Y-120325000D03*
G04 #@! TD*
G04 #@! TO.P,D52,3*
G04 #@! TO.N,Net-(D46-Pad1)*
X200500000Y-94865000D03*
G04 #@! TO.P,D52,4*
G04 #@! TO.N,Net-(C1-Pad1)*
X200500000Y-96615000D03*
G04 #@! TO.P,D52,2*
G04 #@! TO.N,Net-(C1-Pad2)*
X204000000Y-94865000D03*
G04 #@! TO.P,D52,1*
G04 #@! TO.N,Net-(D52-Pad1)*
X204000000Y-96615000D03*
G04 #@! TD*
G04 #@! TO.P,D54,3*
G04 #@! TO.N,Net-(D48-Pad1)*
X200500000Y-107605000D03*
G04 #@! TO.P,D54,4*
G04 #@! TO.N,Net-(C1-Pad1)*
X200500000Y-109355000D03*
G04 #@! TO.P,D54,2*
G04 #@! TO.N,Net-(C1-Pad2)*
X204000000Y-107605000D03*
G04 #@! TO.P,D54,1*
G04 #@! TO.N,Net-(D54-Pad1)*
X204000000Y-109355000D03*
G04 #@! TD*
G04 #@! TO.P,D55,3*
G04 #@! TO.N,Net-(D55-Pad3)*
X204000000Y-115725000D03*
G04 #@! TO.P,D55,4*
G04 #@! TO.N,Net-(C1-Pad1)*
X204000000Y-113975000D03*
G04 #@! TO.P,D55,2*
G04 #@! TO.N,Net-(C1-Pad2)*
X200500000Y-115725000D03*
G04 #@! TO.P,D55,1*
G04 #@! TO.N,Net-(D49-Pad3)*
X200500000Y-113975000D03*
G04 #@! TD*
G04 #@! TO.P,D56,1*
G04 #@! TO.N,Net-(D56-Pad1)*
X204000000Y-122075000D03*
G04 #@! TO.P,D56,2*
G04 #@! TO.N,Net-(C1-Pad2)*
X204000000Y-120325000D03*
G04 #@! TO.P,D56,4*
G04 #@! TO.N,Net-(C1-Pad1)*
X200500000Y-122075000D03*
G04 #@! TO.P,D56,3*
G04 #@! TO.N,Net-(D50-Pad1)*
X200500000Y-120325000D03*
G04 #@! TD*
G04 #@! TO.P,D57,1*
G04 #@! TO.N,Net-(D51-Pad3)*
X200500000Y-126725000D03*
G04 #@! TO.P,D57,2*
G04 #@! TO.N,Net-(C1-Pad2)*
X200500000Y-128475000D03*
G04 #@! TO.P,D57,4*
G04 #@! TO.N,Net-(C1-Pad1)*
X204000000Y-126725000D03*
G04 #@! TO.P,D57,3*
G04 #@! TO.N,Net-(D57-Pad3)*
X204000000Y-128475000D03*
G04 #@! TD*
G04 #@! TO.P,D58,1*
G04 #@! TO.N,Net-(D58-Pad1)*
X214875000Y-96615000D03*
G04 #@! TO.P,D58,2*
G04 #@! TO.N,Net-(C1-Pad2)*
X214875000Y-94865000D03*
G04 #@! TO.P,D58,4*
G04 #@! TO.N,Net-(C1-Pad1)*
X211375000Y-96615000D03*
G04 #@! TO.P,D58,3*
G04 #@! TO.N,Net-(D52-Pad1)*
X211375000Y-94865000D03*
G04 #@! TD*
G04 #@! TO.P,D59,3*
G04 #@! TO.N,Net-(D59-Pad3)*
X214875000Y-102975000D03*
G04 #@! TO.P,D59,4*
G04 #@! TO.N,Net-(C1-Pad1)*
X214875000Y-101225000D03*
G04 #@! TO.P,D59,2*
G04 #@! TO.N,Net-(C1-Pad2)*
X211375000Y-102975000D03*
G04 #@! TO.P,D59,1*
G04 #@! TO.N,Net-(D53-Pad3)*
X211375000Y-101225000D03*
G04 #@! TD*
G04 #@! TO.P,D60,1*
G04 #@! TO.N,Net-(D60-Pad1)*
X214875000Y-109355000D03*
G04 #@! TO.P,D60,2*
G04 #@! TO.N,Net-(C1-Pad2)*
X214875000Y-107605000D03*
G04 #@! TO.P,D60,4*
G04 #@! TO.N,Net-(C1-Pad1)*
X211375000Y-109355000D03*
G04 #@! TO.P,D60,3*
G04 #@! TO.N,Net-(D54-Pad1)*
X211375000Y-107605000D03*
G04 #@! TD*
G04 #@! TO.P,D61,3*
G04 #@! TO.N,Net-(D61-Pad3)*
X214875000Y-115725000D03*
G04 #@! TO.P,D61,4*
G04 #@! TO.N,Net-(C1-Pad1)*
X214875000Y-113975000D03*
G04 #@! TO.P,D61,2*
G04 #@! TO.N,Net-(C1-Pad2)*
X211375000Y-115725000D03*
G04 #@! TO.P,D61,1*
G04 #@! TO.N,Net-(D55-Pad3)*
X211375000Y-113975000D03*
G04 #@! TD*
G04 #@! TO.P,D62,1*
G04 #@! TO.N,Net-(D62-Pad1)*
X214875000Y-122075000D03*
G04 #@! TO.P,D62,2*
G04 #@! TO.N,Net-(C1-Pad2)*
X214875000Y-120325000D03*
G04 #@! TO.P,D62,4*
G04 #@! TO.N,Net-(C1-Pad1)*
X211375000Y-122075000D03*
G04 #@! TO.P,D62,3*
G04 #@! TO.N,Net-(D56-Pad1)*
X211375000Y-120325000D03*
G04 #@! TD*
G04 #@! TO.P,D63,3*
G04 #@! TO.N,Net-(D63-Pad3)*
X214875000Y-128475000D03*
G04 #@! TO.P,D63,4*
G04 #@! TO.N,Net-(C1-Pad1)*
X214875000Y-126725000D03*
G04 #@! TO.P,D63,2*
G04 #@! TO.N,Net-(C1-Pad2)*
X211375000Y-128475000D03*
G04 #@! TO.P,D63,1*
G04 #@! TO.N,Net-(D57-Pad3)*
X211375000Y-126725000D03*
G04 #@! TD*
G04 #@! TO.P,D64,3*
G04 #@! TO.N,Net-(D58-Pad1)*
X222250000Y-94865000D03*
G04 #@! TO.P,D64,4*
G04 #@! TO.N,Net-(C1-Pad1)*
X222250000Y-96615000D03*
G04 #@! TO.P,D64,2*
G04 #@! TO.N,Net-(C1-Pad2)*
X225750000Y-94865000D03*
G04 #@! TO.P,D64,1*
G04 #@! TO.N,Net-(D38-Pad3)*
X225750000Y-96615000D03*
G04 #@! TD*
G04 #@! TO.P,D65,1*
G04 #@! TO.N,Net-(D59-Pad3)*
X222250000Y-101225000D03*
G04 #@! TO.P,D65,2*
G04 #@! TO.N,Net-(C1-Pad2)*
X222250000Y-102975000D03*
G04 #@! TO.P,D65,4*
G04 #@! TO.N,Net-(C1-Pad1)*
X225750000Y-101225000D03*
G04 #@! TO.P,D65,3*
G04 #@! TO.N,Net-(D65-Pad3)*
X225750000Y-102975000D03*
G04 #@! TD*
G04 #@! TO.P,D66,3*
G04 #@! TO.N,Net-(D60-Pad1)*
X222250000Y-107605000D03*
G04 #@! TO.P,D66,4*
G04 #@! TO.N,Net-(C1-Pad1)*
X222250000Y-109355000D03*
G04 #@! TO.P,D66,2*
G04 #@! TO.N,Net-(C1-Pad2)*
X225750000Y-107605000D03*
G04 #@! TO.P,D66,1*
G04 #@! TO.N,Net-(D65-Pad3)*
X225750000Y-109355000D03*
G04 #@! TD*
G04 #@! TO.P,D67,1*
G04 #@! TO.N,Net-(D61-Pad3)*
X222250000Y-113975000D03*
G04 #@! TO.P,D67,2*
G04 #@! TO.N,Net-(C1-Pad2)*
X222250000Y-115725000D03*
G04 #@! TO.P,D67,4*
G04 #@! TO.N,Net-(C1-Pad1)*
X225750000Y-113975000D03*
G04 #@! TO.P,D67,3*
G04 #@! TO.N,Net-(D67-Pad3)*
X225750000Y-115725000D03*
G04 #@! TD*
G04 #@! TO.P,D68,3*
G04 #@! TO.N,Net-(D62-Pad1)*
X222250000Y-120325000D03*
G04 #@! TO.P,D68,4*
G04 #@! TO.N,Net-(C1-Pad1)*
X222250000Y-122075000D03*
G04 #@! TO.P,D68,2*
G04 #@! TO.N,Net-(C1-Pad2)*
X225750000Y-120325000D03*
G04 #@! TO.P,D68,1*
G04 #@! TO.N,Net-(D67-Pad3)*
X225750000Y-122075000D03*
G04 #@! TD*
D14*
G04 #@! TO.N,Net-(C1-Pad2)*
X233654600Y-106540300D03*
X224624900Y-128473200D03*
X208254600Y-128473200D03*
X197027800Y-128371600D03*
X185991500Y-128371600D03*
X187286900Y-120294400D03*
X196329300Y-120472200D03*
X207340200Y-120472200D03*
X218490800Y-120434100D03*
X227482400Y-120294400D03*
X217462100Y-115811300D03*
X207619600Y-115671600D03*
X196761100Y-115773200D03*
X186321700Y-115798600D03*
X176555400Y-115773200D03*
X187032900Y-107403900D03*
X196608700Y-107619800D03*
X207340200Y-107683300D03*
X218147900Y-107556300D03*
X228447600Y-107734100D03*
X217614500Y-103098600D03*
X208013300Y-102933500D03*
X197002400Y-102984300D03*
X187045600Y-102920800D03*
X175260000Y-103035100D03*
X187579000Y-94703900D03*
X196811900Y-94856300D03*
X207225900Y-95034100D03*
X217639900Y-94865000D03*
X227609400Y-94894400D03*
X219938600Y-89928700D03*
X208762600Y-89865200D03*
X196811900Y-89941400D03*
X187553600Y-89890600D03*
X176085500Y-89827100D03*
X140449300Y-89687400D03*
X129895600Y-89725500D03*
X122000000Y-89681144D03*
X111125000Y-89681144D03*
X97472500Y-94830900D03*
X107073700Y-94856300D03*
X118110000Y-94957900D03*
X128790700Y-94932500D03*
X139776200Y-94856300D03*
X154305000Y-102616000D03*
X140233400Y-102971600D03*
X129235200Y-103009700D03*
X118262400Y-102933500D03*
X107480100Y-102997000D03*
X97637600Y-102133400D03*
X91668600Y-102946200D03*
X107302300Y-107645200D03*
X118173500Y-107708700D03*
X129324100Y-107670600D03*
X139839700Y-107696000D03*
X152298400Y-107581700D03*
X140474700Y-115684300D03*
X129324100Y-115722400D03*
X118605300Y-115646200D03*
X107772200Y-115658900D03*
X98120200Y-114947700D03*
X107480100Y-120421400D03*
X118173500Y-120319800D03*
X128917700Y-120383300D03*
X140233400Y-120332500D03*
X148767800Y-120065800D03*
X129298700Y-128562100D03*
X118745000Y-128587500D03*
X107327700Y-128397000D03*
G04 #@! TD*
D15*
G04 #@! TO.N,Net-(D59-Pad3)*
X215925000Y-102975000D02*
X214875000Y-102975000D01*
X216677290Y-102222710D02*
X215925000Y-102975000D01*
X220202290Y-102222710D02*
X216677290Y-102222710D01*
X221200000Y-101225000D02*
X220202290Y-102222710D01*
X222250000Y-101225000D02*
X221200000Y-101225000D01*
G04 #@! TO.N,Net-(C1-Pad1)*
X147596300Y-100878700D02*
X147250000Y-101225000D01*
X151663400Y-100878700D02*
X147596300Y-100878700D01*
X211750000Y-122075000D02*
X211375000Y-122075000D01*
X212425000Y-122750000D02*
X211750000Y-122075000D01*
X220524999Y-122750001D02*
X212425000Y-122750000D01*
X221200000Y-122075000D02*
X220524999Y-122750001D01*
X222250000Y-122075000D02*
X221200000Y-122075000D01*
X200875000Y-122075000D02*
X200500000Y-122075000D01*
X201550000Y-122750000D02*
X200875000Y-122075000D01*
X209649999Y-122750001D02*
X201550000Y-122750000D01*
X210325000Y-122075000D02*
X209649999Y-122750001D01*
X211375000Y-122075000D02*
X210325000Y-122075000D01*
X190000000Y-122075000D02*
X189625000Y-122075000D01*
X190675000Y-122750000D02*
X190000000Y-122075000D01*
X198774999Y-122750001D02*
X190675000Y-122750000D01*
X199450000Y-122075000D02*
X198774999Y-122750001D01*
X200500000Y-122075000D02*
X199450000Y-122075000D01*
X185462000Y-122075000D02*
X185420000Y-122033000D01*
X189625000Y-122075000D02*
X185462000Y-122075000D01*
X179125000Y-122075000D02*
X178750000Y-122075000D01*
X179800000Y-122750000D02*
X179125000Y-122075000D01*
X184127999Y-122750001D02*
X179800000Y-122750000D01*
X184845000Y-122033000D02*
X184127999Y-122750001D01*
X185420000Y-122033000D02*
X184845000Y-122033000D01*
X203625000Y-126725000D02*
X204000000Y-126725000D01*
X202950000Y-126050000D02*
X203625000Y-126725000D01*
X194850001Y-126049999D02*
X202950000Y-126050000D01*
X194175000Y-126725000D02*
X194850001Y-126049999D01*
X193125000Y-126725000D02*
X194175000Y-126725000D01*
X204375000Y-126725000D02*
X204000000Y-126725000D01*
X205050000Y-126050000D02*
X204375000Y-126725000D01*
X213149999Y-126049999D02*
X205050000Y-126050000D01*
X213825000Y-126725000D02*
X213149999Y-126049999D01*
X214875000Y-126725000D02*
X213825000Y-126725000D01*
X214979700Y-126620300D02*
X214875000Y-126725000D01*
X219608400Y-126620300D02*
X214979700Y-126620300D01*
X184832028Y-109654272D02*
X185331100Y-109155200D01*
X184456299Y-110030001D02*
X184832028Y-109654272D01*
X180475001Y-110030001D02*
X184456299Y-110030001D01*
X179800000Y-109355000D02*
X180475001Y-110030001D01*
X178750000Y-109355000D02*
X179800000Y-109355000D01*
X189425200Y-109155200D02*
X189625000Y-109355000D01*
X185331100Y-109155200D02*
X189425200Y-109155200D01*
X200125000Y-109355000D02*
X200500000Y-109355000D01*
X199450000Y-110030000D02*
X200125000Y-109355000D01*
X192124999Y-110030001D02*
X199450000Y-110030000D01*
X191449998Y-109355000D02*
X192124999Y-110030001D01*
X189625000Y-109355000D02*
X191449998Y-109355000D01*
X211100300Y-109080300D02*
X211375000Y-109355000D01*
X210430044Y-109080300D02*
X211100300Y-109080300D01*
X209480343Y-110030001D02*
X210430044Y-109080300D01*
X202999999Y-110030001D02*
X209480343Y-110030001D01*
X202324998Y-109355000D02*
X202999999Y-110030001D01*
X200500000Y-109355000D02*
X202324998Y-109355000D01*
X221875000Y-109355000D02*
X222250000Y-109355000D01*
X221200000Y-110030000D02*
X221875000Y-109355000D01*
X213100001Y-110030001D02*
X221200000Y-110030000D01*
X212425000Y-109355000D02*
X213100001Y-110030001D01*
X211375000Y-109355000D02*
X212425000Y-109355000D01*
X219866172Y-113548228D02*
X219367100Y-114047300D01*
X220114401Y-113299999D02*
X219866172Y-113548228D01*
X224024999Y-113299999D02*
X220114401Y-113299999D01*
X224700000Y-113975000D02*
X224024999Y-113299999D01*
X225750000Y-113975000D02*
X224700000Y-113975000D01*
X214947300Y-114047300D02*
X214875000Y-113975000D01*
X219367100Y-114047300D02*
X214947300Y-114047300D01*
X204375000Y-113975000D02*
X204000000Y-113975000D01*
X205050000Y-113300000D02*
X204375000Y-113975000D01*
X213824999Y-113299999D02*
X205050000Y-113300000D01*
X214500000Y-113975000D02*
X213824999Y-113299999D01*
X214875000Y-113975000D02*
X214500000Y-113975000D01*
X193500000Y-113975000D02*
X193125000Y-113975000D01*
X194175000Y-113300000D02*
X193500000Y-113975000D01*
X202274999Y-113299999D02*
X194175000Y-113300000D01*
X202950000Y-113975000D02*
X202274999Y-113299999D01*
X204000000Y-113975000D02*
X202950000Y-113975000D01*
X182625000Y-113975000D02*
X182250000Y-113975000D01*
X183300000Y-113300000D02*
X182625000Y-113975000D01*
X190625001Y-113299999D02*
X183300000Y-113300000D01*
X191300002Y-113975000D02*
X190625001Y-113299999D01*
X193125000Y-113975000D02*
X191300002Y-113975000D01*
X219993172Y-100873628D02*
X219494100Y-101372700D01*
X220316801Y-100549999D02*
X219993172Y-100873628D01*
X224024999Y-100549999D02*
X220316801Y-100549999D01*
X224700000Y-101225000D02*
X224024999Y-100549999D01*
X225750000Y-101225000D02*
X224700000Y-101225000D01*
X215022700Y-101372700D02*
X214875000Y-101225000D01*
X219494100Y-101372700D02*
X215022700Y-101372700D01*
X204375000Y-101225000D02*
X204000000Y-101225000D01*
X205050000Y-100550000D02*
X204375000Y-101225000D01*
X213149999Y-100549999D02*
X205050000Y-100550000D01*
X213825000Y-101225000D02*
X213149999Y-100549999D01*
X214875000Y-101225000D02*
X213825000Y-101225000D01*
X193500000Y-101225000D02*
X193125000Y-101225000D01*
X194175000Y-100550000D02*
X193500000Y-101225000D01*
X202274999Y-100549999D02*
X194175000Y-100550000D01*
X202950000Y-101225000D02*
X202274999Y-100549999D01*
X204000000Y-101225000D02*
X202950000Y-101225000D01*
X182625000Y-101225000D02*
X182250000Y-101225000D01*
X183300000Y-100550000D02*
X182625000Y-101225000D01*
X191399999Y-100549999D02*
X183300000Y-100550000D01*
X192075000Y-101225000D02*
X191399999Y-100549999D01*
X193125000Y-101225000D02*
X192075000Y-101225000D01*
X185606728Y-97055872D02*
X186105800Y-96556800D01*
X185372599Y-97290001D02*
X185606728Y-97055872D01*
X180475001Y-97290001D02*
X185372599Y-97290001D01*
X179800000Y-96615000D02*
X180475001Y-97290001D01*
X178750000Y-96615000D02*
X179800000Y-96615000D01*
X189566800Y-96556800D02*
X189625000Y-96615000D01*
X186105800Y-96556800D02*
X189566800Y-96556800D01*
X200125000Y-96615000D02*
X200500000Y-96615000D01*
X199450000Y-97290000D02*
X200125000Y-96615000D01*
X191350001Y-97290001D02*
X199450000Y-97290000D01*
X190675000Y-96615000D02*
X191350001Y-97290001D01*
X189625000Y-96615000D02*
X190675000Y-96615000D01*
X211203800Y-96443800D02*
X211375000Y-96615000D01*
X210326544Y-96443800D02*
X211203800Y-96443800D01*
X209480343Y-97290001D02*
X210326544Y-96443800D01*
X202225001Y-97290001D02*
X209480343Y-97290001D01*
X201550000Y-96615000D02*
X202225001Y-97290001D01*
X200500000Y-96615000D02*
X201550000Y-96615000D01*
X219452228Y-97157472D02*
X219951300Y-96658400D01*
X219319699Y-97290001D02*
X219452228Y-97157472D01*
X213100001Y-97290001D02*
X219319699Y-97290001D01*
X212425000Y-96615000D02*
X213100001Y-97290001D01*
X211375000Y-96615000D02*
X212425000Y-96615000D01*
X222206600Y-96658400D02*
X222250000Y-96615000D01*
X219951300Y-96658400D02*
X222206600Y-96658400D01*
X215250000Y-88125000D02*
X214875000Y-88125000D01*
X215925000Y-87450000D02*
X215250000Y-88125000D01*
X224024999Y-87449999D02*
X215925000Y-87450000D01*
X224700000Y-88125000D02*
X224024999Y-87449999D01*
X225750000Y-88125000D02*
X224700000Y-88125000D01*
X204375000Y-88125000D02*
X204000000Y-88125000D01*
X205050000Y-87450000D02*
X204375000Y-88125000D01*
X213149999Y-87449999D02*
X205050000Y-87450000D01*
X213825000Y-88125000D02*
X213149999Y-87449999D01*
X214875000Y-88125000D02*
X213825000Y-88125000D01*
X193500000Y-88125000D02*
X193125000Y-88125000D01*
X194175000Y-87450000D02*
X193500000Y-88125000D01*
X202950000Y-87450000D02*
X194175000Y-87450000D01*
X203625000Y-88125000D02*
X202950000Y-87450000D01*
X204000000Y-88125000D02*
X203625000Y-88125000D01*
X182625000Y-88125000D02*
X182250000Y-88125000D01*
X183300000Y-87450000D02*
X182625000Y-88125000D01*
X191399999Y-87449999D02*
X183300000Y-87450000D01*
X192075000Y-88125000D02*
X191399999Y-87449999D01*
X193125000Y-88125000D02*
X192075000Y-88125000D01*
X151108372Y-87614828D02*
X150609300Y-88113900D01*
X151273201Y-87449999D02*
X151108372Y-87614828D01*
X180524999Y-87449999D02*
X151273201Y-87449999D01*
X181200000Y-88125000D02*
X180524999Y-87449999D01*
X182250000Y-88125000D02*
X181200000Y-88125000D01*
X147432756Y-88113900D02*
X147250000Y-87931144D01*
X150609300Y-88113900D02*
X147432756Y-88113900D01*
X136750000Y-87931144D02*
X136375000Y-87931144D01*
X137425000Y-87256144D02*
X136750000Y-87931144D01*
X146200000Y-87256144D02*
X137425000Y-87256144D01*
X146875000Y-87931144D02*
X146200000Y-87256144D01*
X147250000Y-87931144D02*
X146875000Y-87931144D01*
X125875000Y-87931144D02*
X125500000Y-87931144D01*
X126550000Y-87256144D02*
X125875000Y-87931144D01*
X134649999Y-87256143D02*
X126550000Y-87256144D01*
X135325000Y-87931144D02*
X134649999Y-87256143D01*
X136375000Y-87931144D02*
X135325000Y-87931144D01*
X115000000Y-87931144D02*
X114625000Y-87931144D01*
X115675000Y-87256144D02*
X115000000Y-87931144D01*
X124449999Y-87256143D02*
X115675000Y-87256144D01*
X125125000Y-87931144D02*
X124449999Y-87256143D01*
X125500000Y-87931144D02*
X125125000Y-87931144D01*
X104125000Y-87931144D02*
X103750000Y-87931144D01*
X104800000Y-87256144D02*
X104125000Y-87931144D01*
X112899999Y-87256143D02*
X104800000Y-87256144D01*
X113575000Y-87931144D02*
X112899999Y-87256143D01*
X114625000Y-87931144D02*
X113575000Y-87931144D01*
X100166400Y-96531400D02*
X100250000Y-96615000D01*
X94183200Y-96531400D02*
X100166400Y-96531400D01*
X99344657Y-87256143D02*
X93008180Y-93592620D01*
X102699999Y-87256143D02*
X99344657Y-87256143D01*
X103375000Y-87931144D02*
X102699999Y-87256143D01*
X103750000Y-87931144D02*
X103375000Y-87931144D01*
X93008180Y-95931380D02*
X93008180Y-93592620D01*
X93608200Y-96531400D02*
X93008180Y-95931380D01*
X94183200Y-96531400D02*
X93608200Y-96531400D01*
X110966500Y-96456500D02*
X111125000Y-96615000D01*
X110121700Y-96456500D02*
X110966500Y-96456500D01*
X110058200Y-96520000D02*
X110121700Y-96456500D01*
X110000344Y-96520000D02*
X110058200Y-96520000D01*
X109230343Y-97290001D02*
X110000344Y-96520000D01*
X101975001Y-97290001D02*
X109230343Y-97290001D01*
X101300000Y-96615000D02*
X101975001Y-97290001D01*
X100250000Y-96615000D02*
X101300000Y-96615000D01*
X121367800Y-96615000D02*
X122000000Y-96615000D01*
X121158000Y-96824800D02*
X121367800Y-96615000D01*
X120624600Y-96824800D02*
X121158000Y-96824800D01*
X120159399Y-97290001D02*
X120624600Y-96824800D01*
X112850001Y-97290001D02*
X120159399Y-97290001D01*
X112175000Y-96615000D02*
X112850001Y-97290001D01*
X111125000Y-96615000D02*
X112175000Y-96615000D01*
X132500000Y-96615000D02*
X132875000Y-96615000D01*
X131825000Y-97290000D02*
X132500000Y-96615000D01*
X123725001Y-97290001D02*
X131825000Y-97290000D01*
X123050000Y-96615000D02*
X123725001Y-97290001D01*
X122000000Y-96615000D02*
X123050000Y-96615000D01*
X143629100Y-96735900D02*
X143750000Y-96615000D01*
X142409444Y-96735900D02*
X143629100Y-96735900D01*
X141855343Y-97290001D02*
X142409444Y-96735900D01*
X134600001Y-97290001D02*
X141855343Y-97290001D01*
X133925000Y-96615000D02*
X134600001Y-97290001D01*
X132875000Y-96615000D02*
X133925000Y-96615000D01*
X136750000Y-101225000D02*
X136375000Y-101225000D01*
X137425000Y-100550000D02*
X136750000Y-101225000D01*
X145524999Y-100549999D02*
X137425000Y-100550000D01*
X146200000Y-101225000D02*
X145524999Y-100549999D01*
X147250000Y-101225000D02*
X146200000Y-101225000D01*
X125875000Y-101225000D02*
X125500000Y-101225000D01*
X126550000Y-100550000D02*
X125875000Y-101225000D01*
X134649999Y-100549999D02*
X126550000Y-100550000D01*
X135325000Y-101225000D02*
X134649999Y-100549999D01*
X136375000Y-101225000D02*
X135325000Y-101225000D01*
X115000000Y-101225000D02*
X114625000Y-101225000D01*
X115675000Y-100550000D02*
X115000000Y-101225000D01*
X123000001Y-100549999D02*
X115675000Y-100550000D01*
X123675002Y-101225000D02*
X123000001Y-100549999D01*
X125500000Y-101225000D02*
X123675002Y-101225000D01*
X104125000Y-101225000D02*
X103750000Y-101225000D01*
X104800000Y-100550000D02*
X104125000Y-101225000D01*
X113574999Y-100549999D02*
X104800000Y-100550000D01*
X114250000Y-101225000D02*
X113574999Y-100549999D01*
X114625000Y-101225000D02*
X114250000Y-101225000D01*
X90446800Y-100660200D02*
X88696800Y-100660200D01*
X90557001Y-100549999D02*
X90446800Y-100660200D01*
X102700000Y-101225000D02*
X102024999Y-100549999D01*
X103750000Y-101225000D02*
X102700000Y-101225000D01*
X96823757Y-100549999D02*
X97231200Y-100549999D01*
X91369791Y-106003965D02*
X96823757Y-100549999D01*
X91369790Y-108072490D02*
X91369791Y-106003965D01*
X92490600Y-109193300D02*
X91369790Y-108072490D01*
X93065600Y-109193300D02*
X92490600Y-109193300D01*
X97231200Y-100549999D02*
X90557001Y-100549999D01*
X102024999Y-100549999D02*
X97231200Y-100549999D01*
X100088300Y-109193300D02*
X100250000Y-109355000D01*
X93065600Y-109193300D02*
X100088300Y-109193300D01*
X110431200Y-109355000D02*
X111125000Y-109355000D01*
X110261400Y-109524800D02*
X110431200Y-109355000D01*
X109842300Y-109524800D02*
X110261400Y-109524800D01*
X109337099Y-110030001D02*
X109842300Y-109524800D01*
X101300000Y-109355000D02*
X101975001Y-110030001D01*
X101975001Y-110030001D02*
X109337099Y-110030001D01*
X100250000Y-109355000D02*
X101300000Y-109355000D01*
X121625000Y-109355000D02*
X122000000Y-109355000D01*
X120950000Y-110030000D02*
X121625000Y-109355000D01*
X112850001Y-110030001D02*
X120950000Y-110030000D01*
X112175000Y-109355000D02*
X112850001Y-110030001D01*
X111125000Y-109355000D02*
X112175000Y-109355000D01*
X132705200Y-109524800D02*
X132875000Y-109355000D01*
X131485544Y-109524800D02*
X132705200Y-109524800D01*
X130980343Y-110030001D02*
X131485544Y-109524800D01*
X124499999Y-110030001D02*
X130980343Y-110030001D01*
X123824998Y-109355000D02*
X124499999Y-110030001D01*
X122000000Y-109355000D02*
X123824998Y-109355000D01*
X143375000Y-109355000D02*
X143750000Y-109355000D01*
X142700000Y-110030000D02*
X143375000Y-109355000D01*
X134600001Y-110030001D02*
X142700000Y-110030000D01*
X133925000Y-109355000D02*
X134600001Y-110030001D01*
X132875000Y-109355000D02*
X133925000Y-109355000D01*
X147349000Y-114074000D02*
X147250000Y-113975000D01*
X149580600Y-114074000D02*
X147349000Y-114074000D01*
X136750000Y-113975000D02*
X136375000Y-113975000D01*
X137425000Y-113300000D02*
X136750000Y-113975000D01*
X145524999Y-113299999D02*
X137425000Y-113300000D01*
X146200000Y-113975000D02*
X145524999Y-113299999D01*
X147250000Y-113975000D02*
X146200000Y-113975000D01*
X125875000Y-113975000D02*
X125500000Y-113975000D01*
X126550000Y-113300000D02*
X125875000Y-113975000D01*
X135325000Y-113300000D02*
X126550000Y-113300000D01*
X136000000Y-113975000D02*
X135325000Y-113300000D01*
X136375000Y-113975000D02*
X136000000Y-113975000D01*
X115000000Y-113975000D02*
X114625000Y-113975000D01*
X115675000Y-113300000D02*
X115000000Y-113975000D01*
X123774999Y-113299999D02*
X115675000Y-113300000D01*
X124450000Y-113975000D02*
X123774999Y-113299999D01*
X125500000Y-113975000D02*
X124450000Y-113975000D01*
X104125000Y-113975000D02*
X103750000Y-113975000D01*
X104800000Y-113300000D02*
X104125000Y-113975000D01*
X113575000Y-113300000D02*
X104800000Y-113300000D01*
X114250000Y-113975000D02*
X113575000Y-113300000D01*
X114625000Y-113975000D02*
X114250000Y-113975000D01*
X92982690Y-117929266D02*
X92982690Y-120592490D01*
X97611957Y-113299999D02*
X92982690Y-117929266D01*
X102024999Y-113299999D02*
X97611957Y-113299999D01*
X103750000Y-113975000D02*
X102700000Y-113975000D01*
X102700000Y-113975000D02*
X102024999Y-113299999D01*
X94319128Y-121624128D02*
X94818200Y-122123200D01*
X94014328Y-121624128D02*
X94319128Y-121624128D01*
X92982690Y-120592490D02*
X94014328Y-121624128D01*
X100201800Y-122123200D02*
X100250000Y-122075000D01*
X94818200Y-122123200D02*
X100201800Y-122123200D01*
X110750000Y-122075000D02*
X111125000Y-122075000D01*
X110075000Y-122750000D02*
X110750000Y-122075000D01*
X101975001Y-122750001D02*
X110075000Y-122750000D01*
X101300000Y-122075000D02*
X101975001Y-122750001D01*
X100250000Y-122075000D02*
X101300000Y-122075000D01*
X121901000Y-122174000D02*
X122000000Y-122075000D01*
X120681344Y-122174000D02*
X121901000Y-122174000D01*
X120105343Y-122750001D02*
X120681344Y-122174000D01*
X112850001Y-122750001D02*
X120105343Y-122750001D01*
X112175000Y-122075000D02*
X112850001Y-122750001D01*
X111125000Y-122075000D02*
X112175000Y-122075000D01*
X132500000Y-122075000D02*
X132875000Y-122075000D01*
X131825000Y-122750000D02*
X132500000Y-122075000D01*
X123725001Y-122750001D02*
X131825000Y-122750000D01*
X123050000Y-122075000D02*
X123725001Y-122750001D01*
X122000000Y-122075000D02*
X123050000Y-122075000D01*
X143375000Y-122075000D02*
X143750000Y-122075000D01*
X142700000Y-122750000D02*
X143375000Y-122075000D01*
X134600001Y-122750001D02*
X142700000Y-122750000D01*
X133925000Y-122075000D02*
X134600001Y-122750001D01*
X132875000Y-122075000D02*
X133925000Y-122075000D01*
X136467000Y-126633000D02*
X136375000Y-126725000D01*
X139992100Y-126633000D02*
X136467000Y-126633000D01*
X125686100Y-126911100D02*
X125500000Y-126725000D01*
X126533556Y-126911100D02*
X125686100Y-126911100D01*
X127394657Y-126049999D02*
X126533556Y-126911100D01*
X134649999Y-126049999D02*
X127394657Y-126049999D01*
X135325000Y-126725000D02*
X134649999Y-126049999D01*
X136375000Y-126725000D02*
X135325000Y-126725000D01*
X115000000Y-126725000D02*
X114625000Y-126725000D01*
X115675000Y-126050000D02*
X115000000Y-126725000D01*
X123774999Y-126049999D02*
X115675000Y-126050000D01*
X124450000Y-126725000D02*
X123774999Y-126049999D01*
X125500000Y-126725000D02*
X124450000Y-126725000D01*
X232030199Y-103992901D02*
X232030199Y-121347301D01*
X236651800Y-100571300D02*
X235451800Y-100571300D01*
X235451800Y-100571300D02*
X232030199Y-103992901D01*
X226757200Y-126620300D02*
X219608400Y-126620300D01*
X232030199Y-121347301D02*
X226757200Y-126620300D01*
X192074999Y-126049999D02*
X181429701Y-126049999D01*
X193125000Y-126725000D02*
X192750000Y-126725000D01*
X192750000Y-126725000D02*
X192074999Y-126049999D01*
X181429701Y-126049999D02*
X181427202Y-126047500D01*
X181427202Y-126047500D02*
X180797200Y-126047500D01*
X178750000Y-124000300D02*
X178750000Y-122075000D01*
X180797200Y-126047500D02*
X178750000Y-124000300D01*
X224749999Y-122750001D02*
X229979799Y-122750001D01*
X222250000Y-122075000D02*
X224074998Y-122075000D01*
X224074998Y-122075000D02*
X224749999Y-122750001D01*
X229979799Y-122750001D02*
X231609900Y-121119900D01*
X231609900Y-121119900D02*
X231609900Y-114757200D01*
X230827700Y-113975000D02*
X225750000Y-113975000D01*
X231609900Y-114757200D02*
X230827700Y-113975000D01*
X223975001Y-110030001D02*
X229580699Y-110030001D01*
X222250000Y-109355000D02*
X223300000Y-109355000D01*
X223300000Y-109355000D02*
X223975001Y-110030001D01*
X229580699Y-110030001D02*
X231698800Y-107911900D01*
X231698800Y-107911900D02*
X231698800Y-102844600D01*
X230079200Y-101225000D02*
X225750000Y-101225000D01*
X231698800Y-102844600D02*
X230079200Y-101225000D01*
X172711926Y-100516214D02*
X172106114Y-100516214D01*
X172967004Y-100500357D02*
X172711926Y-100516214D01*
X181095633Y-100501433D02*
X172967004Y-100500357D01*
X182250000Y-101225000D02*
X181819200Y-101225000D01*
X181819200Y-101225000D02*
X181095633Y-100501433D01*
X172106114Y-100516214D02*
X171538900Y-99949000D01*
X171538900Y-99949000D02*
X171538900Y-97815400D01*
X172739300Y-96615000D02*
X178750000Y-96615000D01*
X171538900Y-97815400D02*
X172739300Y-96615000D01*
X226800000Y-88125000D02*
X225750000Y-88125000D01*
X230829209Y-93970235D02*
X230829209Y-92154209D01*
X230829209Y-92154209D02*
X226800000Y-88125000D01*
X227509443Y-97290001D02*
X230829209Y-93970235D01*
X223975001Y-97290001D02*
X227509443Y-97290001D01*
X223300000Y-96615000D02*
X223975001Y-97290001D01*
X222250000Y-96615000D02*
X223300000Y-96615000D01*
X146289491Y-97329493D02*
X153692093Y-97329493D01*
X143750000Y-96615000D02*
X145574998Y-96615000D01*
X145574998Y-96615000D02*
X146289491Y-97329493D01*
X153692093Y-97329493D02*
X154508200Y-98145600D01*
X152238400Y-100878700D02*
X151663400Y-100878700D01*
X152345385Y-100878700D02*
X152238400Y-100878700D01*
X154508200Y-98715885D02*
X152345385Y-100878700D01*
X154508200Y-98145600D02*
X154508200Y-98715885D01*
X145475001Y-110030001D02*
X151031199Y-110030001D01*
X143750000Y-109355000D02*
X144800000Y-109355000D01*
X144800000Y-109355000D02*
X145475001Y-110030001D01*
X150079672Y-113574928D02*
X149580600Y-114074000D01*
X151236108Y-112418492D02*
X150079672Y-113574928D01*
X151236108Y-110234910D02*
X151236108Y-112418492D01*
X151031199Y-110030001D02*
X151236108Y-110234910D01*
X140567100Y-126633000D02*
X139992100Y-126633000D01*
X143375629Y-126633000D02*
X140567100Y-126633000D01*
X145988490Y-124020139D02*
X143375629Y-126633000D01*
X145988490Y-123026743D02*
X145988490Y-124020139D01*
X145036747Y-122075000D02*
X145988490Y-123026743D01*
X143750000Y-122075000D02*
X145036747Y-122075000D01*
X181875000Y-113975000D02*
X182250000Y-113975000D01*
X174269400Y-112795298D02*
X174774101Y-113299999D01*
X174263298Y-112795298D02*
X174269400Y-112795298D01*
X181199999Y-113299999D02*
X181875000Y-113975000D01*
X174528100Y-109355000D02*
X173926501Y-109956599D01*
X178750000Y-109355000D02*
X174528100Y-109355000D01*
X173926501Y-109956599D02*
X173926501Y-110540834D01*
X174774101Y-113299999D02*
X181199999Y-113299999D01*
X173926501Y-110540834D02*
X173939200Y-110553533D01*
X173939200Y-110553533D02*
X173939200Y-112471200D01*
X173939200Y-112471200D02*
X174263298Y-112795298D01*
G04 #@! TO.N,Net-(C1-Pad2)*
X219439400Y-115725000D02*
X219367100Y-115797300D01*
X222250000Y-115725000D02*
X219439400Y-115725000D01*
X182292000Y-120283000D02*
X182250000Y-120325000D01*
X185420000Y-120283000D02*
X182292000Y-120283000D01*
X185131300Y-107605000D02*
X185331100Y-107405200D01*
X182250000Y-107605000D02*
X185131300Y-107605000D01*
X219641800Y-102975000D02*
X219494100Y-103122700D01*
X222250000Y-102975000D02*
X219641800Y-102975000D01*
X186047600Y-94865000D02*
X186105800Y-94806800D01*
X182250000Y-94865000D02*
X186047600Y-94865000D01*
X144800000Y-89681144D02*
X143750000Y-89681144D01*
X145550001Y-90431145D02*
X144800000Y-89681144D01*
X149467055Y-90431145D02*
X145550001Y-90431145D01*
X150034300Y-89863900D02*
X149467055Y-90431145D01*
X150609300Y-89863900D02*
X150034300Y-89863900D01*
X94758200Y-94781400D02*
X94183200Y-94781400D01*
X94774744Y-94781400D02*
X94758200Y-94781400D01*
X99875000Y-89681144D02*
X94774744Y-94781400D01*
X100250000Y-89681144D02*
X99875000Y-89681144D01*
X147250000Y-94865000D02*
X152651410Y-94865000D01*
X100250000Y-102975000D02*
X95565510Y-102975000D01*
X93065600Y-105474910D02*
X93065600Y-107443300D01*
X95565510Y-102975000D02*
X93065600Y-105474910D01*
X147250000Y-107605000D02*
X150100610Y-107605000D01*
X152113410Y-109617800D02*
X152113410Y-113498110D01*
X150100610Y-107605000D02*
X152113410Y-109617800D01*
X149787520Y-115824000D02*
X149580600Y-115824000D01*
X152113410Y-113498110D02*
X149787520Y-115824000D01*
X100250000Y-115725000D02*
X96477947Y-115725000D01*
X96477947Y-115725000D02*
X94042147Y-118160800D01*
X94042147Y-119597147D02*
X94818200Y-120373200D01*
X94042147Y-118160800D02*
X94042147Y-119597147D01*
X140567100Y-128383000D02*
X139992100Y-128383000D01*
X143144410Y-128383000D02*
X140567100Y-128383000D01*
X146906409Y-124621001D02*
X143144410Y-128383000D01*
X146906410Y-124114085D02*
X146906409Y-124621001D01*
X148375001Y-122645494D02*
X146906410Y-124114085D01*
X148375001Y-120400001D02*
X148375001Y-122645494D01*
X148300000Y-120325000D02*
X148375001Y-120400001D01*
X147250000Y-120325000D02*
X148300000Y-120325000D01*
X234001400Y-106540300D02*
X233654600Y-106540300D01*
X236715300Y-103276400D02*
X236715300Y-103826400D01*
X236715300Y-103826400D02*
X234001400Y-106540300D01*
X219608400Y-128370300D02*
X224522000Y-128370300D01*
X224522000Y-128370300D02*
X224624900Y-128473200D01*
X211375000Y-128475000D02*
X208256400Y-128475000D01*
X208256400Y-128475000D02*
X208254600Y-128473200D01*
X200500000Y-128475000D02*
X197131200Y-128475000D01*
X197131200Y-128475000D02*
X197027800Y-128371600D01*
X189625000Y-128475000D02*
X186094900Y-128475000D01*
X186094900Y-128475000D02*
X185991500Y-128371600D01*
X185420000Y-120283000D02*
X187275500Y-120283000D01*
X187275500Y-120283000D02*
X187286900Y-120294400D01*
X193125000Y-120325000D02*
X196182100Y-120325000D01*
X196182100Y-120325000D02*
X196329300Y-120472200D01*
X204000000Y-120325000D02*
X207193000Y-120325000D01*
X207193000Y-120325000D02*
X207340200Y-120472200D01*
X214875000Y-120325000D02*
X218381700Y-120325000D01*
X218381700Y-120325000D02*
X218490800Y-120434100D01*
X225750000Y-120325000D02*
X227451800Y-120325000D01*
X227451800Y-120325000D02*
X227482400Y-120294400D01*
X219367100Y-115797300D02*
X217476100Y-115797300D01*
X217476100Y-115797300D02*
X217462100Y-115811300D01*
X211375000Y-115725000D02*
X207673000Y-115725000D01*
X207673000Y-115725000D02*
X207619600Y-115671600D01*
X200500000Y-115725000D02*
X196809300Y-115725000D01*
X196809300Y-115725000D02*
X196761100Y-115773200D01*
X189625000Y-115725000D02*
X186395300Y-115725000D01*
X186395300Y-115725000D02*
X186321700Y-115798600D01*
X178750000Y-115725000D02*
X176603600Y-115725000D01*
X176603600Y-115725000D02*
X176555400Y-115773200D01*
X185331100Y-107405200D02*
X187031600Y-107405200D01*
X187031600Y-107405200D02*
X187032900Y-107403900D01*
X193125000Y-107605000D02*
X196593900Y-107605000D01*
X196593900Y-107605000D02*
X196608700Y-107619800D01*
X204000000Y-107605000D02*
X207261900Y-107605000D01*
X207261900Y-107605000D02*
X207340200Y-107683300D01*
X214875000Y-107605000D02*
X218099200Y-107605000D01*
X218099200Y-107605000D02*
X218147900Y-107556300D01*
X225750000Y-107605000D02*
X228318500Y-107605000D01*
X228318500Y-107605000D02*
X228447600Y-107734100D01*
X219494100Y-103122700D02*
X217638600Y-103122700D01*
X217638600Y-103122700D02*
X217614500Y-103098600D01*
X211375000Y-102975000D02*
X208054800Y-102975000D01*
X208054800Y-102975000D02*
X208013300Y-102933500D01*
X200500000Y-102975000D02*
X197011700Y-102975000D01*
X197011700Y-102975000D02*
X197002400Y-102984300D01*
X189625000Y-102975000D02*
X187099800Y-102975000D01*
X187099800Y-102975000D02*
X187045600Y-102920800D01*
X178750000Y-102975000D02*
X175320100Y-102975000D01*
X175320100Y-102975000D02*
X175260000Y-103035100D01*
X186105800Y-94806800D02*
X187476100Y-94806800D01*
X187476100Y-94806800D02*
X187579000Y-94703900D01*
X193125000Y-94865000D02*
X196803200Y-94865000D01*
X196803200Y-94865000D02*
X196811900Y-94856300D01*
X204000000Y-94865000D02*
X207056800Y-94865000D01*
X207056800Y-94865000D02*
X207225900Y-95034100D01*
X219907900Y-94865000D02*
X219951300Y-94908400D01*
X217639900Y-94865000D02*
X219907900Y-94865000D01*
X214875000Y-94865000D02*
X217639900Y-94865000D01*
X225750000Y-94865000D02*
X227580000Y-94865000D01*
X227580000Y-94865000D02*
X227609400Y-94894400D01*
X222250000Y-89875000D02*
X219992300Y-89875000D01*
X219992300Y-89875000D02*
X219938600Y-89928700D01*
X211375000Y-89875000D02*
X208772400Y-89875000D01*
X208772400Y-89875000D02*
X208762600Y-89865200D01*
X200500000Y-89875000D02*
X196878300Y-89875000D01*
X196878300Y-89875000D02*
X196811900Y-89941400D01*
X189625000Y-89875000D02*
X187569200Y-89875000D01*
X187569200Y-89875000D02*
X187553600Y-89890600D01*
X178750000Y-89875000D02*
X176133400Y-89875000D01*
X176133400Y-89875000D02*
X176085500Y-89827100D01*
X143750000Y-89681144D02*
X140455556Y-89681144D01*
X140455556Y-89681144D02*
X140449300Y-89687400D01*
X132875000Y-89681144D02*
X129939956Y-89681144D01*
X129939956Y-89681144D02*
X129895600Y-89725500D01*
X94183200Y-94781400D02*
X97423000Y-94781400D01*
X97423000Y-94781400D02*
X97472500Y-94830900D01*
X103750000Y-94865000D02*
X107065000Y-94865000D01*
X107065000Y-94865000D02*
X107073700Y-94856300D01*
X114625000Y-94865000D02*
X118017100Y-94865000D01*
X118017100Y-94865000D02*
X118110000Y-94957900D01*
X125500000Y-94865000D02*
X128723200Y-94865000D01*
X128723200Y-94865000D02*
X128790700Y-94932500D01*
X136375000Y-94865000D02*
X139767500Y-94865000D01*
X139767500Y-94865000D02*
X139776200Y-94856300D01*
X151663400Y-102628700D02*
X154292300Y-102628700D01*
X154292300Y-102628700D02*
X154305000Y-102616000D01*
X143750000Y-102975000D02*
X140236800Y-102975000D01*
X140236800Y-102975000D02*
X140233400Y-102971600D01*
X132875000Y-102975000D02*
X129269900Y-102975000D01*
X129269900Y-102975000D02*
X129235200Y-103009700D01*
X122000000Y-102975000D02*
X118303900Y-102975000D01*
X118303900Y-102975000D02*
X118262400Y-102933500D01*
X111125000Y-102975000D02*
X107502100Y-102975000D01*
X107502100Y-102975000D02*
X107480100Y-102997000D01*
X100250000Y-102975000D02*
X98479200Y-102975000D01*
X98479200Y-102975000D02*
X97637600Y-102133400D01*
X88582500Y-103009700D02*
X91605100Y-103009700D01*
X91605100Y-103009700D02*
X91668600Y-102946200D01*
X103750000Y-107605000D02*
X107262100Y-107605000D01*
X107262100Y-107605000D02*
X107302300Y-107645200D01*
X114625000Y-107605000D02*
X118069800Y-107605000D01*
X118069800Y-107605000D02*
X118173500Y-107708700D01*
X125500000Y-107605000D02*
X129258500Y-107605000D01*
X129258500Y-107605000D02*
X129324100Y-107670600D01*
X136375000Y-107605000D02*
X139748700Y-107605000D01*
X139748700Y-107605000D02*
X139839700Y-107696000D01*
X147250000Y-107605000D02*
X152275100Y-107605000D01*
X152275100Y-107605000D02*
X152298400Y-107581700D01*
X143750000Y-115725000D02*
X140515400Y-115725000D01*
X140515400Y-115725000D02*
X140474700Y-115684300D01*
X132875000Y-115725000D02*
X129326700Y-115725000D01*
X129326700Y-115725000D02*
X129324100Y-115722400D01*
X122000000Y-115725000D02*
X118684100Y-115725000D01*
X118684100Y-115725000D02*
X118605300Y-115646200D01*
X111125000Y-115725000D02*
X107838300Y-115725000D01*
X107838300Y-115725000D02*
X107772200Y-115658900D01*
X100250000Y-115725000D02*
X98897500Y-115725000D01*
X98897500Y-115725000D02*
X98120200Y-114947700D01*
X103750000Y-120325000D02*
X107383700Y-120325000D01*
X107383700Y-120325000D02*
X107480100Y-120421400D01*
X114625000Y-120325000D02*
X118168300Y-120325000D01*
X118168300Y-120325000D02*
X118173500Y-120319800D01*
X125500000Y-120325000D02*
X128859400Y-120325000D01*
X128859400Y-120325000D02*
X128917700Y-120383300D01*
X136375000Y-120325000D02*
X140225900Y-120325000D01*
X140225900Y-120325000D02*
X140233400Y-120332500D01*
X147250000Y-120325000D02*
X148508600Y-120325000D01*
X148508600Y-120325000D02*
X148767800Y-120065800D01*
X132875000Y-128475000D02*
X129385800Y-128475000D01*
X129385800Y-128475000D02*
X129298700Y-128562100D01*
X122000000Y-128475000D02*
X118857500Y-128475000D01*
X118857500Y-128475000D02*
X118745000Y-128587500D01*
X111125000Y-128475000D02*
X107405700Y-128475000D01*
X107405700Y-128475000D02*
X107327700Y-128397000D01*
X152238400Y-102628700D02*
X151663400Y-102628700D01*
X155258220Y-99608880D02*
X152238400Y-102628700D01*
X155258220Y-97471810D02*
X155258220Y-99608880D01*
X152651410Y-94865000D02*
X155258220Y-97471810D01*
G04 #@! TO.N,Net-(D53-Pad3)*
X204375000Y-102975000D02*
X204000000Y-102975000D01*
X205050000Y-102300000D02*
X204375000Y-102975000D01*
X205050000Y-101925000D02*
X205050000Y-102300000D01*
X205750000Y-101225000D02*
X205050000Y-101925000D01*
X211375000Y-101225000D02*
X205750000Y-101225000D01*
G04 #@! TO.N,Net-(D41-Pad1)*
X188575000Y-94865000D02*
X189625000Y-94865000D01*
X187733210Y-95706790D02*
X188575000Y-94865000D01*
X184208210Y-95706790D02*
X187733210Y-95706790D01*
X183300000Y-96615000D02*
X184208210Y-95706790D01*
X182250000Y-96615000D02*
X183300000Y-96615000D01*
G04 #@! TO.N,Net-(D45-Pad1)*
X188575000Y-120325000D02*
X189625000Y-120325000D01*
X187766990Y-121133010D02*
X188575000Y-120325000D01*
X184241990Y-121133010D02*
X187766990Y-121133010D01*
X183300000Y-122075000D02*
X184241990Y-121133010D01*
X182250000Y-122075000D02*
X183300000Y-122075000D01*
G04 #@! TO.N,Net-(D50-Pad1)*
X200125000Y-120325000D02*
X200500000Y-120325000D01*
X199450000Y-121000000D02*
X200125000Y-120325000D01*
X199450000Y-121375000D02*
X199450000Y-121000000D01*
X198750000Y-122075000D02*
X199450000Y-121375000D01*
X193125000Y-122075000D02*
X198750000Y-122075000D01*
G04 #@! TO.N,Net-(D44-Pad3)*
X182625000Y-115725000D02*
X182250000Y-115725000D01*
X183300000Y-115050000D02*
X182625000Y-115725000D01*
X183300000Y-114675000D02*
X183300000Y-115050000D01*
X184000000Y-113975000D02*
X183300000Y-114675000D01*
X189625000Y-113975000D02*
X184000000Y-113975000D01*
G04 #@! TO.N,Net-(D49-Pad3)*
X193500000Y-115725000D02*
X193125000Y-115725000D01*
X194175000Y-115050000D02*
X193500000Y-115725000D01*
X194175000Y-114675000D02*
X194175000Y-115050000D01*
X194875000Y-113975000D02*
X194175000Y-114675000D01*
X200500000Y-113975000D02*
X194875000Y-113975000D01*
G04 #@! TO.N,Net-(D43-Pad1)*
X188575000Y-107605000D02*
X189625000Y-107605000D01*
X187924790Y-108255210D02*
X188575000Y-107605000D01*
X184399790Y-108255210D02*
X187924790Y-108255210D01*
X183300000Y-109355000D02*
X184399790Y-108255210D01*
X182250000Y-109355000D02*
X183300000Y-109355000D01*
G04 #@! TO.N,Net-(D48-Pad1)*
X200125000Y-107605000D02*
X200500000Y-107605000D01*
X199450000Y-108280000D02*
X200125000Y-107605000D01*
X199450000Y-108655000D02*
X199450000Y-108280000D01*
X198750000Y-109355000D02*
X199450000Y-108655000D01*
X193125000Y-109355000D02*
X198750000Y-109355000D01*
G04 #@! TO.N,Net-(D42-Pad3)*
X182625000Y-102975000D02*
X182250000Y-102975000D01*
X183300000Y-102300000D02*
X182625000Y-102975000D01*
X183300000Y-101925000D02*
X183300000Y-102300000D01*
X184000000Y-101225000D02*
X183300000Y-101925000D01*
X189625000Y-101225000D02*
X184000000Y-101225000D01*
G04 #@! TO.N,Net-(D47-Pad3)*
X193500000Y-102975000D02*
X193125000Y-102975000D01*
X195250000Y-101225000D02*
X193500000Y-102975000D01*
X200500000Y-101225000D02*
X195250000Y-101225000D01*
G04 #@! TO.N,Net-(D46-Pad1)*
X200125000Y-94865000D02*
X200500000Y-94865000D01*
X199450000Y-95540000D02*
X200125000Y-94865000D01*
X199450000Y-95915000D02*
X199450000Y-95540000D01*
X198750000Y-96615000D02*
X199450000Y-95915000D01*
X193125000Y-96615000D02*
X198750000Y-96615000D01*
G04 #@! TO.N,Net-(D45-Pad3)*
X178375000Y-120325000D02*
X178750000Y-120325000D01*
X177624999Y-121075001D02*
X178375000Y-120325000D01*
X189625000Y-126725000D02*
X180944356Y-126725000D01*
X177624999Y-121075001D02*
X177624999Y-122625001D01*
X177624999Y-122625001D02*
X178374990Y-123374992D01*
X178374990Y-123374992D02*
X178374990Y-124158690D01*
X180941300Y-126725000D02*
X180944356Y-126725000D01*
X178374990Y-124158690D02*
X180941300Y-126725000D01*
G04 #@! TO.N,Net-(D33-Pad3)*
X148300000Y-89681144D02*
X147250000Y-89681144D01*
X148967254Y-89013890D02*
X148300000Y-89681144D01*
X176811110Y-89013890D02*
X148967254Y-89013890D01*
X177700000Y-88125000D02*
X176811110Y-89013890D01*
X178750000Y-88125000D02*
X177700000Y-88125000D01*
G04 #@! TO.N,Net-(D38-Pad3)*
X225750000Y-96615000D02*
X227654100Y-96615000D01*
X227654100Y-96615000D02*
X230454200Y-93814900D01*
X230454200Y-93814900D02*
X230454200Y-92316300D01*
X228012900Y-89875000D02*
X225750000Y-89875000D01*
X230454200Y-92316300D02*
X228012900Y-89875000D01*
G04 #@! TO.N,Net-(D52-Pad1)*
X211000000Y-94865000D02*
X211375000Y-94865000D01*
X210325000Y-95540000D02*
X211000000Y-94865000D01*
X210325000Y-95915000D02*
X210325000Y-95540000D01*
X209625000Y-96615000D02*
X210325000Y-95915000D01*
X204000000Y-96615000D02*
X209625000Y-96615000D01*
G04 #@! TO.N,Net-(D37-Pad3)*
X215250000Y-89875000D02*
X214875000Y-89875000D01*
X215925000Y-89200000D02*
X215250000Y-89875000D01*
X215925000Y-88825000D02*
X215925000Y-89200000D01*
X216625000Y-88125000D02*
X215925000Y-88825000D01*
X222250000Y-88125000D02*
X216625000Y-88125000D01*
G04 #@! TO.N,Net-(D62-Pad1)*
X221875000Y-120325000D02*
X222250000Y-120325000D01*
X221200000Y-121000000D02*
X221875000Y-120325000D01*
X221200000Y-121375000D02*
X221200000Y-121000000D01*
X220500000Y-122075000D02*
X221200000Y-121375000D01*
X214875000Y-122075000D02*
X220500000Y-122075000D01*
G04 #@! TO.N,Net-(D61-Pad3)*
X215925000Y-115725000D02*
X214875000Y-115725000D01*
X216752690Y-114897310D02*
X215925000Y-115725000D01*
X220277690Y-114897310D02*
X216752690Y-114897310D01*
X221200000Y-113975000D02*
X220277690Y-114897310D01*
X222250000Y-113975000D02*
X221200000Y-113975000D01*
G04 #@! TO.N,Net-(D67-Pad3)*
X230279000Y-115725000D02*
X225750000Y-115725000D01*
X226843383Y-122075000D02*
X228458883Y-120459500D01*
X225750000Y-122075000D02*
X226843383Y-122075000D01*
X228458883Y-120459500D02*
X230441500Y-120459500D01*
X230441500Y-120459500D02*
X231025700Y-119875300D01*
X231025700Y-119875300D02*
X231025700Y-116471700D01*
X231025700Y-116471700D02*
X230279000Y-115725000D01*
G04 #@! TO.N,Net-(D56-Pad1)*
X211000000Y-120325000D02*
X211375000Y-120325000D01*
X210325000Y-121000000D02*
X211000000Y-120325000D01*
X210325000Y-121375000D02*
X210325000Y-121000000D01*
X209625000Y-122075000D02*
X210325000Y-121375000D01*
X204000000Y-122075000D02*
X209625000Y-122075000D01*
G04 #@! TO.N,Net-(D65-Pad3)*
X225750000Y-109355000D02*
X229595300Y-109355000D01*
X229595300Y-109355000D02*
X231254300Y-107696000D01*
X231254300Y-107696000D02*
X231254300Y-103974900D01*
X230254400Y-102975000D02*
X225750000Y-102975000D01*
X231254300Y-103974900D02*
X230254400Y-102975000D01*
G04 #@! TO.N,Net-(D11-Pad1)*
X104125000Y-102975000D02*
X103750000Y-102975000D01*
X104800000Y-102300000D02*
X104125000Y-102975000D01*
X104800000Y-101925000D02*
X104800000Y-102300000D01*
X105500000Y-101225000D02*
X104800000Y-101925000D01*
X111125000Y-101225000D02*
X105500000Y-101225000D01*
G04 #@! TO.N,Net-(D11-Pad3)*
X115000000Y-102975000D02*
X114625000Y-102975000D01*
X115675000Y-102300000D02*
X115000000Y-102975000D01*
X115675000Y-101925000D02*
X115675000Y-102300000D01*
X116375000Y-101225000D02*
X115675000Y-101925000D01*
X122000000Y-101225000D02*
X116375000Y-101225000D01*
G04 #@! TO.N,Net-(D60-Pad1)*
X221875000Y-107605000D02*
X222250000Y-107605000D01*
X221200000Y-108280000D02*
X221875000Y-107605000D01*
X221200000Y-108655000D02*
X221200000Y-108280000D01*
X220500000Y-109355000D02*
X221200000Y-108655000D01*
X214875000Y-109355000D02*
X220500000Y-109355000D01*
G04 #@! TO.N,Net-(D58-Pad1)*
X221875000Y-94865000D02*
X222250000Y-94865000D01*
X220981590Y-95758410D02*
X221875000Y-94865000D01*
X216781590Y-95758410D02*
X220981590Y-95758410D01*
X215925000Y-96615000D02*
X216781590Y-95758410D01*
X214875000Y-96615000D02*
X215925000Y-96615000D01*
G04 #@! TO.N,Net-(D57-Pad3)*
X204375000Y-128475000D02*
X204000000Y-128475000D01*
X205050000Y-127800000D02*
X204375000Y-128475000D01*
X205050000Y-127425000D02*
X205050000Y-127800000D01*
X205750000Y-126725000D02*
X205050000Y-127425000D01*
X211375000Y-126725000D02*
X205750000Y-126725000D01*
G04 #@! TO.N,Net-(D63-Pad3)*
X236730209Y-101917570D02*
X235530209Y-101917570D01*
X215925000Y-128475000D02*
X214875000Y-128475000D01*
X216879710Y-127520290D02*
X215925000Y-128475000D01*
X227343110Y-127520290D02*
X216879710Y-127520290D01*
X230339900Y-124523500D02*
X227343110Y-127520290D01*
X232405209Y-105042570D02*
X232405208Y-121502636D01*
X235530209Y-101917570D02*
X232405209Y-105042570D01*
X230339900Y-123567944D02*
X230339900Y-124523500D01*
X232405208Y-121502636D02*
X230339900Y-123567944D01*
G04 #@! TO.N,Net-(D55-Pad3)*
X204375000Y-115725000D02*
X204000000Y-115725000D01*
X205050000Y-115050000D02*
X204375000Y-115725000D01*
X205050000Y-114675000D02*
X205050000Y-115050000D01*
X205750000Y-113975000D02*
X205050000Y-114675000D01*
X211375000Y-113975000D02*
X205750000Y-113975000D01*
G04 #@! TO.N,Net-(D54-Pad1)*
X211000000Y-107605000D02*
X211375000Y-107605000D01*
X210325000Y-108280000D02*
X211000000Y-107605000D01*
X210325000Y-108655000D02*
X210325000Y-108280000D01*
X209625000Y-109355000D02*
X210325000Y-108655000D01*
X204000000Y-109355000D02*
X209625000Y-109355000D01*
G04 #@! TO.N,Net-(D12-Pad3)*
X110750000Y-107605000D02*
X111125000Y-107605000D01*
X110075000Y-108280000D02*
X110750000Y-107605000D01*
X110075000Y-108655000D02*
X110075000Y-108280000D01*
X109375000Y-109355000D02*
X110075000Y-108655000D01*
X103750000Y-109355000D02*
X109375000Y-109355000D01*
G04 #@! TO.N,Net-(D12-Pad1)*
X121625000Y-107605000D02*
X122000000Y-107605000D01*
X120950000Y-108280000D02*
X121625000Y-107605000D01*
X120950000Y-108655000D02*
X120950000Y-108280000D01*
X120250000Y-109355000D02*
X120950000Y-108655000D01*
X114625000Y-109355000D02*
X120250000Y-109355000D01*
G04 #@! TO.N,Net-(D51-Pad3)*
X193500000Y-128475000D02*
X193125000Y-128475000D01*
X194175000Y-127800000D02*
X193500000Y-128475000D01*
X194175000Y-127425000D02*
X194175000Y-127800000D01*
X194875000Y-126725000D02*
X194175000Y-127425000D01*
X200500000Y-126725000D02*
X194875000Y-126725000D01*
G04 #@! TO.N,Net-(D1-Pad1)*
X93383190Y-95301900D02*
X93724990Y-95643700D01*
X93383190Y-93747954D02*
X93383190Y-95301900D01*
X100250000Y-87931144D02*
X99200000Y-87931144D01*
X99200000Y-87931144D02*
X93383190Y-93747954D01*
X99200000Y-94865000D02*
X100250000Y-94865000D01*
X98421300Y-95643700D02*
X99200000Y-94865000D01*
X93724990Y-95643700D02*
X98421300Y-95643700D01*
G04 #@! TO.N,Net-(D1-Pad3)*
X104125000Y-89681144D02*
X103750000Y-89681144D01*
X104800000Y-89006144D02*
X104125000Y-89681144D01*
X104800000Y-88631144D02*
X104800000Y-89006144D01*
X105500000Y-87931144D02*
X104800000Y-88631144D01*
X111125000Y-87931144D02*
X105500000Y-87931144D01*
G04 #@! TO.N,Net-(D13-Pad1)*
X104125000Y-115725000D02*
X103750000Y-115725000D01*
X104800000Y-115050000D02*
X104125000Y-115725000D01*
X104800000Y-114675000D02*
X104800000Y-115050000D01*
X105500000Y-113975000D02*
X104800000Y-114675000D01*
X111125000Y-113975000D02*
X105500000Y-113975000D01*
G04 #@! TO.N,Net-(D13-Pad3)*
X115000000Y-115725000D02*
X114625000Y-115725000D01*
X115675000Y-115050000D02*
X115000000Y-115725000D01*
X115675000Y-114675000D02*
X115675000Y-115050000D01*
X116375000Y-113975000D02*
X115675000Y-114675000D01*
X122000000Y-113975000D02*
X116375000Y-113975000D01*
G04 #@! TO.N,Net-(D10-Pad1)*
X121625000Y-94865000D02*
X122000000Y-94865000D01*
X120950000Y-95540000D02*
X121625000Y-94865000D01*
X120950000Y-95915000D02*
X120950000Y-95540000D01*
X120250000Y-96615000D02*
X120950000Y-95915000D01*
X114625000Y-96615000D02*
X120250000Y-96615000D01*
G04 #@! TO.N,Net-(D15-Pad3)*
X115000000Y-128475000D02*
X114625000Y-128475000D01*
X115675000Y-127800000D02*
X115000000Y-128475000D01*
X115675000Y-127425000D02*
X115675000Y-127800000D01*
X116375000Y-126725000D02*
X115675000Y-127425000D01*
X122000000Y-126725000D02*
X116375000Y-126725000D01*
G04 #@! TO.N,Net-(D14-Pad1)*
X121625000Y-120325000D02*
X122000000Y-120325000D01*
X120950000Y-121000000D02*
X121625000Y-120325000D01*
X120950000Y-121375000D02*
X120950000Y-121000000D01*
X120250000Y-122075000D02*
X120950000Y-121375000D01*
X114625000Y-122075000D02*
X120250000Y-122075000D01*
G04 #@! TO.N,Net-(D10-Pad3)*
X110750000Y-94865000D02*
X111125000Y-94865000D01*
X110075000Y-95540000D02*
X110750000Y-94865000D01*
X110075000Y-95915000D02*
X110075000Y-95540000D01*
X109375000Y-96615000D02*
X110075000Y-95915000D01*
X103750000Y-96615000D02*
X109375000Y-96615000D01*
G04 #@! TO.N,Net-(D14-Pad3)*
X110750000Y-120325000D02*
X111125000Y-120325000D01*
X110075000Y-121000000D02*
X110750000Y-120325000D01*
X110075000Y-121375000D02*
X110075000Y-121000000D01*
X109375000Y-122075000D02*
X110075000Y-121375000D01*
X103750000Y-122075000D02*
X109375000Y-122075000D01*
G04 #@! TO.N,Net-(D36-Pad3)*
X204375000Y-89875000D02*
X204000000Y-89875000D01*
X205050000Y-89200000D02*
X204375000Y-89875000D01*
X205050000Y-88825000D02*
X205050000Y-89200000D01*
X205750000Y-88125000D02*
X205050000Y-88825000D01*
X211375000Y-88125000D02*
X205750000Y-88125000D01*
G04 #@! TO.N,Net-(D43-Pad3)*
X175655800Y-107605000D02*
X178750000Y-107605000D01*
X178750000Y-113975000D02*
X174918758Y-113975000D01*
X174114066Y-113170308D02*
X174066808Y-113170308D01*
X174918758Y-113975000D02*
X174114066Y-113170308D01*
X173551491Y-109709309D02*
X175655800Y-107605000D01*
X173551491Y-112654991D02*
X173551491Y-109709309D01*
X174066808Y-113170308D02*
X173551491Y-112654991D01*
G04 #@! TO.N,Net-(D41-Pad3)*
X177700000Y-101225000D02*
X176944000Y-101981000D01*
X178750000Y-101225000D02*
X177700000Y-101225000D01*
X176944000Y-101981000D02*
X172275500Y-101981000D01*
X172275500Y-101981000D02*
X171145200Y-100850700D01*
X174888965Y-94865000D02*
X177700000Y-94865000D01*
X177700000Y-94865000D02*
X178750000Y-94865000D01*
X173958956Y-94865000D02*
X177700000Y-94865000D01*
X171145200Y-97678756D02*
X173958956Y-94865000D01*
X171145200Y-100850700D02*
X171145200Y-97678756D01*
G04 #@! TO.N,Net-(D35-Pad3)*
X193500000Y-89875000D02*
X193125000Y-89875000D01*
X194175000Y-89200000D02*
X193500000Y-89875000D01*
X194175000Y-88825000D02*
X194175000Y-89200000D01*
X194875000Y-88125000D02*
X194175000Y-88825000D01*
X200500000Y-88125000D02*
X194875000Y-88125000D01*
G04 #@! TO.N,Net-(D34-Pad3)*
X182625000Y-89875000D02*
X182250000Y-89875000D01*
X183300000Y-89200000D02*
X182625000Y-89875000D01*
X183300000Y-88825000D02*
X183300000Y-89200000D01*
X184000000Y-88125000D02*
X183300000Y-88825000D01*
X189625000Y-88125000D02*
X184000000Y-88125000D01*
G04 #@! TO.N,Net-(D33-Pad1)*
X136750000Y-89681144D02*
X136375000Y-89681144D01*
X137425000Y-89006144D02*
X136750000Y-89681144D01*
X137425000Y-88631144D02*
X137425000Y-89006144D01*
X138125000Y-87931144D02*
X137425000Y-88631144D01*
X143750000Y-87931144D02*
X138125000Y-87931144D01*
G04 #@! TO.N,Net-(D27-Pad3)*
X137425000Y-128475000D02*
X136375000Y-128475000D01*
X147250000Y-122750000D02*
X146456400Y-123543600D01*
X146456400Y-123543600D02*
X146456400Y-124434600D01*
X146456400Y-124434600D02*
X143358010Y-127532990D01*
X147250000Y-122075000D02*
X147250000Y-122750000D01*
X143358010Y-127532990D02*
X138367010Y-127532990D01*
X138367010Y-127532990D02*
X137425000Y-128475000D01*
G04 #@! TO.N,Net-(D28-Pad1)*
X147250000Y-96615000D02*
X153507944Y-96615000D01*
X153507944Y-96615000D02*
X154883210Y-97990266D01*
X147625000Y-102975000D02*
X147250000Y-102975000D01*
X154883210Y-97990266D02*
X154883210Y-98979400D01*
X154883210Y-98979400D02*
X152083920Y-101778690D01*
X152083920Y-101778690D02*
X148821310Y-101778690D01*
X148821310Y-101778690D02*
X147625000Y-102975000D01*
G04 #@! TO.N,Net-(D30-Pad1)*
X147250000Y-109355000D02*
X151214200Y-109355000D01*
X151214200Y-109355000D02*
X151663400Y-109804200D01*
X148300000Y-115725000D02*
X147250000Y-115725000D01*
X149051010Y-114973990D02*
X148300000Y-115725000D01*
X150001120Y-114973990D02*
X149051010Y-114973990D01*
X151663400Y-113311710D02*
X150001120Y-114973990D01*
X151663400Y-109804200D02*
X151663400Y-113311710D01*
G04 #@! TO.N,Net-(D2-Pad3)*
X115000000Y-89681144D02*
X114625000Y-89681144D01*
X115675000Y-89006144D02*
X115000000Y-89681144D01*
X115675000Y-88631144D02*
X115675000Y-89006144D01*
X116375000Y-87931144D02*
X115675000Y-88631144D01*
X122000000Y-87931144D02*
X116375000Y-87931144D01*
G04 #@! TO.N,Net-(D26-Pad1)*
X143375000Y-120325000D02*
X143750000Y-120325000D01*
X142700000Y-121000000D02*
X143375000Y-120325000D01*
X142700000Y-121375000D02*
X142700000Y-121000000D01*
X142000000Y-122075000D02*
X142700000Y-121375000D01*
X136375000Y-122075000D02*
X142000000Y-122075000D01*
G04 #@! TO.N,Net-(D16-Pad1)*
X132500000Y-94865000D02*
X132875000Y-94865000D01*
X131825000Y-95540000D02*
X132500000Y-94865000D01*
X131825000Y-95915000D02*
X131825000Y-95540000D01*
X131125000Y-96615000D02*
X131825000Y-95915000D01*
X125500000Y-96615000D02*
X131125000Y-96615000D01*
G04 #@! TO.N,Net-(D3-Pad3)*
X125875000Y-89681144D02*
X125500000Y-89681144D01*
X126550000Y-89006144D02*
X125875000Y-89681144D01*
X126550000Y-88631144D02*
X126550000Y-89006144D01*
X127250000Y-87931144D02*
X126550000Y-88631144D01*
X132875000Y-87931144D02*
X127250000Y-87931144D01*
G04 #@! TO.N,Net-(D6-Pad1)*
X100250000Y-101225000D02*
X96679100Y-101225000D01*
X96679100Y-101225000D02*
X91744800Y-106159300D01*
X92645080Y-108343290D02*
X94093890Y-108343290D01*
X91744800Y-106159300D02*
X91744800Y-107443010D01*
X91744800Y-107443010D02*
X92645080Y-108343290D01*
X94832180Y-107605000D02*
X100250000Y-107605000D01*
X94093890Y-108343290D02*
X94832180Y-107605000D01*
G04 #@! TO.N,Net-(D8-Pad1)*
X100250000Y-113975000D02*
X97467300Y-113975000D01*
X97467300Y-113975000D02*
X93357700Y-118084600D01*
X99200000Y-120325000D02*
X100250000Y-120325000D01*
X98301790Y-121223210D02*
X99200000Y-120325000D01*
X94347700Y-121223210D02*
X98301790Y-121223210D01*
X93357700Y-120233210D02*
X94347700Y-121223210D01*
X93357700Y-118084600D02*
X93357700Y-120233210D01*
G04 #@! TO.N,Net-(D17-Pad3)*
X125875000Y-102975000D02*
X125500000Y-102975000D01*
X126550000Y-102300000D02*
X125875000Y-102975000D01*
X126550000Y-101925000D02*
X126550000Y-102300000D01*
X127250000Y-101225000D02*
X126550000Y-101925000D01*
X132875000Y-101225000D02*
X127250000Y-101225000D01*
G04 #@! TO.N,Net-(D18-Pad1)*
X132500000Y-107605000D02*
X132875000Y-107605000D01*
X131825000Y-108280000D02*
X132500000Y-107605000D01*
X131825000Y-108655000D02*
X131825000Y-108280000D01*
X131125000Y-109355000D02*
X131825000Y-108655000D01*
X125500000Y-109355000D02*
X131125000Y-109355000D01*
G04 #@! TO.N,Net-(D19-Pad3)*
X125875000Y-115725000D02*
X125500000Y-115725000D01*
X126550000Y-115050000D02*
X125875000Y-115725000D01*
X126550000Y-114675000D02*
X126550000Y-115050000D01*
X127250000Y-113975000D02*
X126550000Y-114675000D01*
X132875000Y-113975000D02*
X127250000Y-113975000D01*
G04 #@! TO.N,Net-(D20-Pad1)*
X132500000Y-120325000D02*
X132875000Y-120325000D01*
X131825000Y-121000000D02*
X132500000Y-120325000D01*
X131825000Y-121375000D02*
X131825000Y-121000000D01*
X131125000Y-122075000D02*
X131825000Y-121375000D01*
X125500000Y-122075000D02*
X131125000Y-122075000D01*
G04 #@! TO.N,Net-(D21-Pad3)*
X125875000Y-128475000D02*
X125500000Y-128475000D01*
X126550000Y-127800000D02*
X125875000Y-128475000D01*
X126550000Y-127425000D02*
X126550000Y-127800000D01*
X127250000Y-126725000D02*
X126550000Y-127425000D01*
X132875000Y-126725000D02*
X127250000Y-126725000D01*
G04 #@! TO.N,Net-(D22-Pad1)*
X143375000Y-94865000D02*
X143750000Y-94865000D01*
X142700000Y-95540000D02*
X143375000Y-94865000D01*
X142700000Y-95915000D02*
X142700000Y-95540000D01*
X142000000Y-96615000D02*
X142700000Y-95915000D01*
X136375000Y-96615000D02*
X142000000Y-96615000D01*
G04 #@! TO.N,Net-(D24-Pad1)*
X143375000Y-107605000D02*
X143750000Y-107605000D01*
X142700000Y-108280000D02*
X143375000Y-107605000D01*
X142700000Y-108655000D02*
X142700000Y-108280000D01*
X142000000Y-109355000D02*
X142700000Y-108655000D01*
X136375000Y-109355000D02*
X142000000Y-109355000D01*
G04 #@! TO.N,Net-(D25-Pad3)*
X136750000Y-115725000D02*
X136375000Y-115725000D01*
X137425000Y-115050000D02*
X136750000Y-115725000D01*
X137425000Y-114675000D02*
X137425000Y-115050000D01*
X138125000Y-113975000D02*
X137425000Y-114675000D01*
X143750000Y-113975000D02*
X138125000Y-113975000D01*
G04 #@! TO.N,Net-(D23-Pad3)*
X136750000Y-102975000D02*
X136375000Y-102975000D01*
X137425000Y-102300000D02*
X136750000Y-102975000D01*
X137425000Y-101925000D02*
X137425000Y-102300000D01*
X138125000Y-101225000D02*
X137425000Y-101925000D01*
X143750000Y-101225000D02*
X138125000Y-101225000D01*
G04 #@! TD*
M02*
