999
FreeCAD v0.20 29410 (Git)
  0
SECTION
  2
HEADER
  9
$ACADVER
  1
AC1014
  9
$ACADMAINTVER
 70
     9
  9
$DWGCODEPAGE
  3
ANSI_1252
  9
$TEXTSTYLE
  7
STANDARD
  9
$DIMSTYLE
  2
STANDARD
  9
$DIMTXSTY
  7
STANDARD
  9
$CMLSTYLE
  2
STANDARD
  9
$LUNITS
 70
2
  9
$INSUNITS
 70
4
  9
$PEXTMAX
 10
50
 20
50
 30
50
  9
$PEXTMIN
 10
0
 20
0
 30
0
  9
$HANDSEED
  5
FFFF
  0
ENDSEC
  0
SECTION
  2
CLASSES
  0
CLASS
  1
ACDBDICTIONARYWDFLT
  2
AcDbDictionaryWithDefault
  3
ObjectDBX Classes
 90
        0
280
     0
281
     0
  0
CLASS
  1
XRECORD
  2
AcDbXrecord
  3
ObjectDBX Classes
 90
        0
280
     0
281
     0
  0
CLASS
  1
LWPOLYLINE
  2
AcDbPolyline
  3
ObjectDBX Classes
 90
        0
280
     0
281
     1
  0
ENDSEC
  0
SECTION
  2
TABLES
  0
TABLE
  2
VPORT
  5
20
330
0
100
AcDbSymbolTable
 70
     1
  0
VPORT
  5
21
330
20
100
AcDbSymbolTableRecord
100
AcDbViewportTableRecord
  2
*ACTIVE
 70
     0
  0
ENDTAB
  0
TABLE
  2
LTYPE
  5
22
330
0
100
AcDbSymbolTable
 70
     1
  0
LTYPE
  5
23
330
21
100
AcDbSymbolTableRecord
100
AcDbLinetypeTableRecord
  2
BYBLOCK
 70
     0
  3

 72
    65
 73
     0
 40
0.0
  0
LTYPE
  5
24
330
21
100
AcDbSymbolTableRecord
100
AcDbLinetypeTableRecord
  2
BYLAYER
 70
     0
  3

 72
    65
 73
     0
 40
0.0
  0
LTYPE
  5
25
330
21
100
AcDbSymbolTableRecord
100
AcDbLinetypeTableRecord
  2
CONTINUOUS
 70
     0
  3
Solid line
 72
    65
 73
     0
 40
0.0
  0
ENDTAB
  0
TABLE
  2
LAYER
  5
A57
330
0
100
AcDbSymbolTable
 70
81
  0
LAYER
  5
A58
330
A57
100
AcDbSymbolTableRecord
100
AcDbLayerTableRecord
  2
0
 70
   0
 62
   7
  6
CONTINUOUS
  0
LAYER
  5
A59
330
A57
100
AcDbSymbolTableRecord
100
AcDbLayerTableRecord
  2
none
 70
    0
 62
    7
  6
CONTINUOUS
  0
LAYER
  5
A5A
330
A57
100
AcDbSymbolTableRecord
100
AcDbLayerTableRecord
  2
Shape
 70
    0
 62
    7
  6
CONTINUOUS
  0
LAYER
  5
A5B
330
A57
100
AcDbSymbolTableRecord
100
AcDbLayerTableRecord
  2
Shape001
 70
    0
 62
    7
  6
CONTINUOUS
  0
LAYER
  5
A5C
330
A57
100
AcDbSymbolTableRecord
100
AcDbLayerTableRecord
  2
Shape002
 70
    0
 62
    7
  6
CONTINUOUS
  0
LAYER
  5
A5D
330
A57
100
AcDbSymbolTableRecord
100
AcDbLayerTableRecord
  2
Shape003
 70
    0
 62
    7
  6
CONTINUOUS
  0
LAYER
  5
A5E
330
A57
100
AcDbSymbolTableRecord
100
AcDbLayerTableRecord
  2
Shape004
 70
    0
 62
    7
  6
CONTINUOUS
  0
LAYER
  5
A5F
330
A57
100
AcDbSymbolTableRecord
100
AcDbLayerTableRecord
  2
Shape005
 70
    0
 62
    7
  6
CONTINUOUS
  0
LAYER
  5
A60
330
A57
100
AcDbSymbolTableRecord
100
AcDbLayerTableRecord
  2
Shape006
 70
    0
 62
    7
  6
CONTINUOUS
  0
LAYER
  5
A61
330
A57
100
AcDbSymbolTableRecord
100
AcDbLayerTableRecord
  2
Shape007
 70
    0
 62
    7
  6
CONTINUOUS
  0
LAYER
  5
A62
330
A57
100
AcDbSymbolTableRecord
100
AcDbLayerTableRecord
  2
Shape008
 70
    0
 62
    7
  6
CONTINUOUS
  0
LAYER
  5
A63
330
A57
100
AcDbSymbolTableRecord
100
AcDbLayerTableRecord
  2
Shape009
 70
    0
 62
    7
  6
CONTINUOUS
  0
LAYER
  5
A64
330
A57
100
AcDbSymbolTableRecord
100
AcDbLayerTableRecord
  2
Shape010
 70
    0
 62
    7
  6
CONTINUOUS
  0
LAYER
  5
A65
330
A57
100
AcDbSymbolTableRecord
100
AcDbLayerTableRecord
  2
Shape011
 70
    0
 62
    7
  6
CONTINUOUS
  0
LAYER
  5
A66
330
A57
100
AcDbSymbolTableRecord
100
AcDbLayerTableRecord
  2
Shape012
 70
    0
 62
    7
  6
CONTINUOUS
  0
LAYER
  5
A67
330
A57
100
AcDbSymbolTableRecord
100
AcDbLayerTableRecord
  2
Shape013
 70
    0
 62
    7
  6
CONTINUOUS
  0
LAYER
  5
A68
330
A57
100
AcDbSymbolTableRecord
100
AcDbLayerTableRecord
  2
Shape014
 70
    0
 62
    7
  6
CONTINUOUS
  0
LAYER
  5
A69
330
A57
100
AcDbSymbolTableRecord
100
AcDbLayerTableRecord
  2
Shape015
 70
    0
 62
    7
  6
CONTINUOUS
  0
LAYER
  5
A6A
330
A57
100
AcDbSymbolTableRecord
100
AcDbLayerTableRecord
  2
Shape016
 70
    0
 62
    7
  6
CONTINUOUS
  0
LAYER
  5
A6B
330
A57
100
AcDbSymbolTableRecord
100
AcDbLayerTableRecord
  2
Shape017
 70
    0
 62
    7
  6
CONTINUOUS
  0
LAYER
  5
A6C
330
A57
100
AcDbSymbolTableRecord
100
AcDbLayerTableRecord
  2
Shape018
 70
    0
 62
    7
  6
CONTINUOUS
  0
LAYER
  5
A6D
330
A57
100
AcDbSymbolTableRecord
100
AcDbLayerTableRecord
  2
Shape019
 70
    0
 62
    7
  6
CONTINUOUS
  0
LAYER
  5
A6E
330
A57
100
AcDbSymbolTableRecord
100
AcDbLayerTableRecord
  2
Shape020
 70
    0
 62
    7
  6
CONTINUOUS
  0
LAYER
  5
A6F
330
A57
100
AcDbSymbolTableRecord
100
AcDbLayerTableRecord
  2
Shape021
 70
    0
 62
    7
  6
CONTINUOUS
  0
LAYER
  5
A70
330
A57
100
AcDbSymbolTableRecord
100
AcDbLayerTableRecord
  2
Shape022
 70
    0
 62
    7
  6
CONTINUOUS
  0
LAYER
  5
A71
330
A57
100
AcDbSymbolTableRecord
100
AcDbLayerTableRecord
  2
Shape023
 70
    0
 62
    7
  6
CONTINUOUS
  0
LAYER
  5
A72
330
A57
100
AcDbSymbolTableRecord
100
AcDbLayerTableRecord
  2
Shape024
 70
    0
 62
    7
  6
CONTINUOUS
  0
LAYER
  5
A73
330
A57
100
AcDbSymbolTableRecord
100
AcDbLayerTableRecord
  2
Shape025
 70
    0
 62
    7
  6
CONTINUOUS
  0
LAYER
  5
A74
330
A57
100
AcDbSymbolTableRecord
100
AcDbLayerTableRecord
  2
Shape026
 70
    0
 62
    7
  6
CONTINUOUS
  0
LAYER
  5
A75
330
A57
100
AcDbSymbolTableRecord
100
AcDbLayerTableRecord
  2
Shape027
 70
    0
 62
    7
  6
CONTINUOUS
  0
LAYER
  5
A76
330
A57
100
AcDbSymbolTableRecord
100
AcDbLayerTableRecord
  2
Shape028
 70
    0
 62
    7
  6
CONTINUOUS
  0
LAYER
  5
A77
330
A57
100
AcDbSymbolTableRecord
100
AcDbLayerTableRecord
  2
Shape029
 70
    0
 62
    7
  6
CONTINUOUS
  0
LAYER
  5
A78
330
A57
100
AcDbSymbolTableRecord
100
AcDbLayerTableRecord
  2
Shape030
 70
    0
 62
    7
  6
CONTINUOUS
  0
LAYER
  5
A79
330
A57
100
AcDbSymbolTableRecord
100
AcDbLayerTableRecord
  2
Shape031
 70
    0
 62
    7
  6
CONTINUOUS
  0
LAYER
  5
A7A
330
A57
100
AcDbSymbolTableRecord
100
AcDbLayerTableRecord
  2
Shape032
 70
    0
 62
    7
  6
CONTINUOUS
  0
LAYER
  5
A7B
330
A57
100
AcDbSymbolTableRecord
100
AcDbLayerTableRecord
  2
Shape033
 70
    0
 62
    7
  6
CONTINUOUS
  0
LAYER
  5
A7C
330
A57
100
AcDbSymbolTableRecord
100
AcDbLayerTableRecord
  2
Shape034
 70
    0
 62
    7
  6
CONTINUOUS
  0
LAYER
  5
A7D
330
A57
100
AcDbSymbolTableRecord
100
AcDbLayerTableRecord
  2
Shape035
 70
    0
 62
    7
  6
CONTINUOUS
  0
LAYER
  5
A7E
330
A57
100
AcDbSymbolTableRecord
100
AcDbLayerTableRecord
  2
Shape036
 70
    0
 62
    7
  6
CONTINUOUS
  0
LAYER
  5
A7F
330
A57
100
AcDbSymbolTableRecord
100
AcDbLayerTableRecord
  2
Shape037
 70
    0
 62
    7
  6
CONTINUOUS
  0
LAYER
  5
A80
330
A57
100
AcDbSymbolTableRecord
100
AcDbLayerTableRecord
  2
Shape038
 70
    0
 62
    7
  6
CONTINUOUS
  0
LAYER
  5
A81
330
A57
100
AcDbSymbolTableRecord
100
AcDbLayerTableRecord
  2
Shape039
 70
    0
 62
    7
  6
CONTINUOUS
  0
LAYER
  5
A82
330
A57
100
AcDbSymbolTableRecord
100
AcDbLayerTableRecord
  2
Shape040
 70
    0
 62
    7
  6
CONTINUOUS
  0
LAYER
  5
A83
330
A57
100
AcDbSymbolTableRecord
100
AcDbLayerTableRecord
  2
Shape041
 70
    0
 62
    7
  6
CONTINUOUS
  0
LAYER
  5
A84
330
A57
100
AcDbSymbolTableRecord
100
AcDbLayerTableRecord
  2
Shape042
 70
    0
 62
    7
  6
CONTINUOUS
  0
LAYER
  5
A85
330
A57
100
AcDbSymbolTableRecord
100
AcDbLayerTableRecord
  2
Shape043
 70
    0
 62
    7
  6
CONTINUOUS
  0
LAYER
  5
A86
330
A57
100
AcDbSymbolTableRecord
100
AcDbLayerTableRecord
  2
Shape044
 70
    0
 62
    7
  6
CONTINUOUS
  0
LAYER
  5
A87
330
A57
100
AcDbSymbolTableRecord
100
AcDbLayerTableRecord
  2
Shape045
 70
    0
 62
    7
  6
CONTINUOUS
  0
LAYER
  5
A88
330
A57
100
AcDbSymbolTableRecord
100
AcDbLayerTableRecord
  2
Shape046
 70
    0
 62
    7
  6
CONTINUOUS
  0
LAYER
  5
A89
330
A57
100
AcDbSymbolTableRecord
100
AcDbLayerTableRecord
  2
Shape047
 70
    0
 62
    7
  6
CONTINUOUS
  0
LAYER
  5
A8A
330
A57
100
AcDbSymbolTableRecord
100
AcDbLayerTableRecord
  2
Shape048
 70
    0
 62
    7
  6
CONTINUOUS
  0
LAYER
  5
A8B
330
A57
100
AcDbSymbolTableRecord
100
AcDbLayerTableRecord
  2
Shape049
 70
    0
 62
    7
  6
CONTINUOUS
  0
LAYER
  5
A8C
330
A57
100
AcDbSymbolTableRecord
100
AcDbLayerTableRecord
  2
Shape050
 70
    0
 62
    7
  6
CONTINUOUS
  0
LAYER
  5
A8D
330
A57
100
AcDbSymbolTableRecord
100
AcDbLayerTableRecord
  2
Shape051
 70
    0
 62
    7
  6
CONTINUOUS
  0
LAYER
  5
A8E
330
A57
100
AcDbSymbolTableRecord
100
AcDbLayerTableRecord
  2
Shape052
 70
    0
 62
    7
  6
CONTINUOUS
  0
LAYER
  5
A8F
330
A57
100
AcDbSymbolTableRecord
100
AcDbLayerTableRecord
  2
Shape053
 70
    0
 62
    7
  6
CONTINUOUS
  0
LAYER
  5
A90
330
A57
100
AcDbSymbolTableRecord
100
AcDbLayerTableRecord
  2
Shape054
 70
    0
 62
    7
  6
CONTINUOUS
  0
LAYER
  5
A91
330
A57
100
AcDbSymbolTableRecord
100
AcDbLayerTableRecord
  2
Shape055
 70
    0
 62
    7
  6
CONTINUOUS
  0
LAYER
  5
A92
330
A57
100
AcDbSymbolTableRecord
100
AcDbLayerTableRecord
  2
Shape056
 70
    0
 62
    7
  6
CONTINUOUS
  0
LAYER
  5
A93
330
A57
100
AcDbSymbolTableRecord
100
AcDbLayerTableRecord
  2
Shape057
 70
    0
 62
    7
  6
CONTINUOUS
  0
LAYER
  5
A94
330
A57
100
AcDbSymbolTableRecord
100
AcDbLayerTableRecord
  2
Shape058
 70
    0
 62
    7
  6
CONTINUOUS
  0
LAYER
  5
A95
330
A57
100
AcDbSymbolTableRecord
100
AcDbLayerTableRecord
  2
Shape059
 70
    0
 62
    7
  6
CONTINUOUS
  0
LAYER
  5
A96
330
A57
100
AcDbSymbolTableRecord
100
AcDbLayerTableRecord
  2
Shape060
 70
    0
 62
    7
  6
CONTINUOUS
  0
LAYER
  5
A97
330
A57
100
AcDbSymbolTableRecord
100
AcDbLayerTableRecord
  2
Shape061
 70
    0
 62
    7
  6
CONTINUOUS
  0
LAYER
  5
A98
330
A57
100
AcDbSymbolTableRecord
100
AcDbLayerTableRecord
  2
Shape062
 70
    0
 62
    7
  6
CONTINUOUS
  0
LAYER
  5
A99
330
A57
100
AcDbSymbolTableRecord
100
AcDbLayerTableRecord
  2
Shape063
 70
    0
 62
    7
  6
CONTINUOUS
  0
LAYER
  5
A9A
330
A57
100
AcDbSymbolTableRecord
100
AcDbLayerTableRecord
  2
Shape064
 70
    0
 62
    7
  6
CONTINUOUS
  0
LAYER
  5
A9B
330
A57
100
AcDbSymbolTableRecord
100
AcDbLayerTableRecord
  2
Shape065
 70
    0
 62
    7
  6
CONTINUOUS
  0
LAYER
  5
A9C
330
A57
100
AcDbSymbolTableRecord
100
AcDbLayerTableRecord
  2
Shape066
 70
    0
 62
    7
  6
CONTINUOUS
  0
LAYER
  5
A9D
330
A57
100
AcDbSymbolTableRecord
100
AcDbLayerTableRecord
  2
Shape067
 70
    0
 62
    7
  6
CONTINUOUS
  0
LAYER
  5
A9E
330
A57
100
AcDbSymbolTableRecord
100
AcDbLayerTableRecord
  2
Shape068
 70
    0
 62
    7
  6
CONTINUOUS
  0
LAYER
  5
A9F
330
A57
100
AcDbSymbolTableRecord
100
AcDbLayerTableRecord
  2
Shape069
 70
    0
 62
    7
  6
CONTINUOUS
  0
LAYER
  5
AA0
330
A57
100
AcDbSymbolTableRecord
100
AcDbLayerTableRecord
  2
Shape070
 70
    0
 62
    7
  6
CONTINUOUS
  0
LAYER
  5
AA1
330
A57
100
AcDbSymbolTableRecord
100
AcDbLayerTableRecord
  2
Shape071
 70
    0
 62
    7
  6
CONTINUOUS
  0
LAYER
  5
AA2
330
A57
100
AcDbSymbolTableRecord
100
AcDbLayerTableRecord
  2
Shape072
 70
    0
 62
    7
  6
CONTINUOUS
  0
LAYER
  5
AA3
330
A57
100
AcDbSymbolTableRecord
100
AcDbLayerTableRecord
  2
Shape073
 70
    0
 62
    7
  6
CONTINUOUS
  0
LAYER
  5
AA4
330
A57
100
AcDbSymbolTableRecord
100
AcDbLayerTableRecord
  2
Shape074
 70
    0
 62
    7
  6
CONTINUOUS
  0
LAYER
  5
AA5
330
A57
100
AcDbSymbolTableRecord
100
AcDbLayerTableRecord
  2
Shape075
 70
    0
 62
    7
  6
CONTINUOUS
  0
LAYER
  5
AA6
330
A57
100
AcDbSymbolTableRecord
100
AcDbLayerTableRecord
  2
Shape076
 70
    0
 62
    7
  6
CONTINUOUS
  0
LAYER
  5
AA7
330
A57
100
AcDbSymbolTableRecord
100
AcDbLayerTableRecord
  2
Shape077
 70
    0
 62
    7
  6
CONTINUOUS
  0
LAYER
  5
AA8
330
A57
100
AcDbSymbolTableRecord
100
AcDbLayerTableRecord
  2
Shape078
 70
    0
 62
    7
  6
CONTINUOUS
  0
ENDTAB
  0
TABLE
  2
STYLE
  5
70
330
0
100
AcDbSymbolTable
 70
     2
  0
STYLE
  5
71
330
70
100
AcDbSymbolTableRecord
100
AcDbTextStyleTableRecord
  2
STANDARD
 70
     0
 40
0.0
 41
1.0
 50
0.0
 71
     0
 42
2.5
  3
arial.ttf
  4

  0
STYLE
  5
72
330
70
100
AcDbSymbolTableRecord
100
AcDbTextStyleTableRecord
  2
ANNOTATIVE
 70
     0
 40
0.0
 41
1.0
 50
0.0
 71
     0
 42
2.5
  3
arial.ttf
  4

  0
ENDTAB
  0
TABLE
  2
VIEW
  5
73
330
0
100
AcDbSymbolTable
 70
     0
  0
ENDTAB
  0
TABLE
  2
UCS
  5
74
330
0
100
AcDbSymbolTable
 70
     0
  0
ENDTAB
  0
TABLE
  2
APPID
  5
75
330
0
100
AcDbSymbolTable
 70
     2
  0
APPID
  5
76
330
75
100
AcDbSymbolTableRecord
100
AcDbRegAppTableRecord
  2
ACAD
 70
     0
  0
APPID
  5
77
330
75
100
AcDbSymbolTableRecord
100
AcDbRegAppTableRecord
  2
ACADANNOTATIVE
 70
     0
  0
ENDTAB
  0
TABLE
  2
DIMSTYLE
  5
78
330
0
100
AcDbSymbolTable
 70
     2
  0
DIMSTYLE
105
79
330
78
100
AcDbSymbolTableRecord
100
AcDbDimStyleTableRecord
  2
STANDARD
 70
     0
  3

  4

  5

  6

  7

 40
0.0
 41
2.5
 42
0.625
 43
3.75
 44
1.25
 45
0.0
 46
0.0
 47
0.0
 48
0.0
140
2.5
141
2.5
142
0.0
143
0.03937007874016
144
1.0
145
0.0
146
1.0
147
0.625
 71
     0
 72
     0
 73
     0
 74
     0
 75
     0
 76
     0
 77
     1
 78
     8
170
     0
171
     3
172
     1
173
     0
174
     0
175
     0
176
     0
177
     0
178
     0
270
     2
271
     2
272
     2
273
     2
274
     3
340
71
275
     0
280
     0
281
     0
282
     0
283
     0
284
     8
285
     0
286
     0
287
     3
288
     0
  0
ENDTAB
  0
TABLE
  2
BLOCK_RECORD
  5
A01
330
0
100
AcDbSymbolTable
  70
5
  0
BLOCK_RECORD
  5
A02
330
A01
100
AcDbSymbolTableRecord
100
AcDbBlockTableRecord
  2
*MODEL_SPACE
  0
BLOCK_RECORD
  5
A03
330
A01
100
AcDbSymbolTableRecord
100
AcDbBlockTableRecord
  2
*PAPER_SPACE
  0
ENDTAB
  0
ENDSEC
  0
SECTION
  2
BLOCKS
  0
BLOCK
  5
A04
330
A02
100
AcDbEntity
  8
0
100
AcDbBlockBegin
  2
*MODEL_SPACE
 70
   0
 10
0
 20
0
 30
0
  3
*MODEL_SPACE
  1
 
  0
ENDBLK
  5
A05
330
A02
100
AcDbEntity
  8
0
100
AcDbBlockEnd
  0
BLOCK
  5
A06
330
A03
100
AcDbEntity
 67
1
  8
0
100
AcDbBlockBegin
  2
*PAPER_SPACE
 70
   0
 10
0
 20
0
 30
0
  3
*PAPER_SPACE
  1
 
  0
ENDBLK
  5
A07
330
A03
100
AcDbEntity
 67
    1
  8
0
100
AcDbBlockEnd
  0
ENDSEC
  0
SECTION
  2
ENTITIES
  0
LINE
  5
A08
330
A02
100
AcDbEntity
  8
Shape
100
AcDbLine
 10
-15.3355
 20
-10.15
 30
-5.55112e-16
 11
-65.8203
 21
-10.15
 31
-5.55112e-16
  0
SPLINE
  5
A09
330
A02
100
AcDbEntity
  8
Shape001
100
AcDbSpline
210
0
220
0
230
1
 70
8
 71
2
 72
6
 73
3
 74
0
 40
-0.381645
 40
-0.381645
 40
-0.381645
 40
-0.358693
 40
-0.358693
 40
-0.358693
 10
-65.8203
 20
-10.15
 30
0
 10
-66.3632
 20
-8.95084
 30
3.70082e-16
 10
-66.8136
 20
-7.65
 30
0
  0
LINE
  5
A0A
330
A02
100
AcDbEntity
  8
Shape002
100
AcDbLine
 10
-66.8136
 20
-7.65
 30
0
 11
-14.3945
 21
-7.65
 31
-2.46519e-31
  0
SPLINE
  5
A0B
330
A02
100
AcDbEntity
  8
Shape003
100
AcDbSpline
210
0
220
0
230
1
 70
8
 71
2
 72
6
 73
3
 74
0
 40
-0.863159
 40
-0.863159
 40
-0.863159
 40
-0.846768
 40
-0.846768
 40
-0.846768
 10
-14.3945
 20
-7.65
 30
0
 10
-14.8341
 20
-8.94876
 30
-2.47257e-16
 10
-15.3355
 20
-10.15
 30
-5.55112e-16
  0
LINE
  5
A0C
330
A02
100
AcDbEntity
  8
Shape004
100
AcDbLine
 10
-9.97301
 20
13.85
 30
0
 11
-68.1582
 21
13.85
 31
4.93038e-31
  0
SPLINE
  5
A0D
330
A02
100
AcDbEntity
  8
Shape005
100
AcDbSpline
210
0
220
0
230
1
 70
8
 71
3
 72
8
 73
4
 74
0
 40
-0.183023
 40
-0.183023
 40
-0.183023
 40
-0.183023
 40
-0.155953
 40
-0.155953
 40
-0.155953
 40
-0.155953
 10
-68.1582
 20
13.85
 30
-5.55112e-16
 10
-67.9189
 20
14.7685
 30
2.94033e-16
 10
-67.6216
 20
15.6084
 30
-9.10408e-17
 10
-67.2754
 20
16.35
 30
0
  0
LINE
  5
A0E
330
A02
100
AcDbEntity
  8
Shape006
100
AcDbLine
 10
-67.2754
 20
16.35
 30
0
 11
-9.77235
 21
16.35
 31
-4.93038e-31
  0
ARC
  5
A0F
330
A02
100
AcDbEntity
  8
Shape007
100
AcDbCircle
 10
-109.544
 20
23.1
 30
-4.25863e-42
 40
100
100
AcDbArc
 50
-5.30745
 51
-3.87041
  0
SPLINE
  5
A10
330
A02
100
AcDbEntity
  8
Shape008
100
AcDbSpline
210
0
220
0
230
1
 70
8
 71
2
 72
6
 73
3
 74
0
 40
0.846768
 40
0.846768
 40
0.846768
 40
0.863159
 40
0.863159
 40
0.863159
 10
15.3355
 20
-10.15
 30
0
 10
14.8341
 20
-8.94876
 30
3.89105e-16
 10
14.3945
 20
-7.65
 30
0
  0
LINE
  5
A11
330
A02
100
AcDbEntity
  8
Shape009
100
AcDbLine
 10
14.3945
 20
-7.65
 30
0
 11
66.8136
 21
-7.65
 31
-2.46519e-31
  0
SPLINE
  5
A12
330
A02
100
AcDbEntity
  8
Shape010
100
AcDbSpline
210
0
220
0
230
1
 70
8
 71
2
 72
6
 73
3
 74
0
 40
0.358693
 40
0.358693
 40
0.358693
 40
0.381645
 40
0.381645
 40
0.381645
 10
66.8136
 20
-7.65
 30
0
 10
66.3632
 20
-8.95084
 30
-4.13005e-16
 10
65.8203
 20
-10.15
 30
0
  0
LINE
  5
A13
330
A02
100
AcDbEntity
  8
Shape011
100
AcDbLine
 10
65.8203
 20
-10.15
 30
-2.59361e-32
 11
15.3355
 21
-10.15
 31
0
  0
ARC
  5
A14
330
A02
100
AcDbEntity
  8
Shape012
100
AcDbCircle
 10
109.544
 20
23.1
 30
2.39885e-42
 40
100
100
AcDbArc
 50
-176.13
 51
-174.693
  0
LINE
  5
A15
330
A02
100
AcDbEntity
  8
Shape013
100
AcDbLine
 10
9.77235
 20
16.35
 30
-9.24156e-31
 11
67.2754
 21
16.35
 31
-4.93038e-31
  0
SPLINE
  5
A16
330
A02
100
AcDbEntity
  8
Shape014
100
AcDbSpline
210
0
220
0
230
1
 70
8
 71
3
 72
8
 73
4
 74
0
 40
0.155953
 40
0.155953
 40
0.155953
 40
0.155953
 40
0.183023
 40
0.183023
 40
0.183023
 40
0.183023
 10
67.2754
 20
16.35
 30
-5.55112e-16
 10
67.6216
 20
15.6084
 30
5.15308e-16
 10
67.9189
 20
14.7685
 30
-2.16834e-16
 10
68.1582
 20
13.85
 30
0
  0
LINE
  5
A17
330
A02
100
AcDbEntity
  8
Shape015
100
AcDbLine
 10
68.1582
 20
13.85
 30
0
 11
9.97301
 21
13.85
 31
-9.24446e-31
  0
ARC
  5
A18
330
A02
100
AcDbEntity
  8
Shape016
100
AcDbCircle
 10
109.544
 20
23.1
 30
0
 40
100
100
AcDbArc
 50
-172.675
 51
-171.228
  0
LINE
  5
A19
330
A02
100
AcDbEntity
  8
Shape017
100
AcDbLine
 10
10.7139
 20
7.85
 30
0
 11
63.81
 21
7.85
 31
0
  0
LINE
  5
A1A
330
A02
100
AcDbEntity
  8
Shape018
100
AcDbLine
 10
63.81
 20
7.85
 30
0
 11
63.81
 21
10.35
 31
0
  0
LINE
  5
A1B
330
A02
100
AcDbEntity
  8
Shape019
100
AcDbLine
 10
63.81
 20
10.35
 30
0
 11
10.3604
 21
10.35
 31
0
  0
SPLINE
  5
A1C
330
A02
100
AcDbEntity
  8
Shape020
100
AcDbSpline
210
0
220
0
230
1
 70
8
 71
2
 72
6
 73
3
 74
0
 40
0.799825
 40
0.799825
 40
0.799825
 40
0.82114
 40
0.82114
 40
0.82114
 10
18.8008
 20
-16.15
 30
-5.55112e-16
 10
17.8691
 20
-14.9966
 30
-9.27721e-17
 10
17.0739
 20
-13.65
 30
0
  0
LINE
  5
A1D
330
A02
100
AcDbEntity
  8
Shape021
100
AcDbLine
 10
17.0739
 20
-13.65
 30
5.78248e-32
 11
63.8858
 21
-13.65
 31
0
  0
SPLINE
  5
A1E
330
A02
100
AcDbEntity
  8
Shape022
100
AcDbSpline
210
0
220
0
230
1
 70
8
 71
2
 72
6
 73
3
 74
0
 40
0.417498
 40
0.417498
 40
0.417498
 40
0.446839
 40
0.446839
 40
0.446839
 10
63.8858
 20
-13.65
 30
-5.55112e-16
 10
62.9952
 20
-14.9816
 30
1.38778e-16
 10
61.9318
 20
-16.15
 30
0
  0
LINE
  5
A1F
330
A02
100
AcDbEntity
  8
Shape023
100
AcDbLine
 10
61.9318
 20
-16.15
 30
-1.0084e-31
 11
18.8008
 21
-16.15
 31
-5.55112e-16
  0
LINE
  5
A20
330
A02
100
AcDbEntity
  8
Shape024
100
AcDbLine
 10
-10.7139
 20
7.85
 30
0
 11
-63.81
 21
7.85
 31
0
  0
LINE
  5
A21
330
A02
100
AcDbEntity
  8
Shape025
100
AcDbLine
 10
-63.81
 20
7.85
 30
0
 11
-63.81
 21
10.35
 31
0
  0
LINE
  5
A22
330
A02
100
AcDbEntity
  8
Shape026
100
AcDbLine
 10
-63.81
 20
10.35
 30
0
 11
-10.3604
 21
10.35
 31
0
  0
ARC
  5
A23
330
A02
100
AcDbEntity
  8
Shape027
100
AcDbCircle
 10
-109.544
 20
23.1
 30
0
 40
100
100
AcDbArc
 50
-8.77183
 51
-7.32515
  0
LINE
  5
A24
330
A02
100
AcDbEntity
  8
Shape028
100
AcDbLine
 10
-18.8008
 20
-16.15
 30
0
 11
-61.9318
 21
-16.15
 31
0
  0
SPLINE
  5
A25
330
A02
100
AcDbEntity
  8
Shape029
100
AcDbSpline
210
0
220
0
230
1
 70
8
 71
2
 72
6
 73
3
 74
0
 40
-0.446839
 40
-0.446839
 40
-0.446839
 40
-0.417498
 40
-0.417498
 40
-0.417498
 10
-61.9318
 20
-16.15
 30
0
 10
-62.9952
 20
-14.9816
 30
0
 10
-63.8858
 20
-13.65
 30
0
  0
LINE
  5
A26
330
A02
100
AcDbEntity
  8
Shape030
100
AcDbLine
 10
-63.8858
 20
-13.65
 30
0
 11
-17.0739
 21
-13.65
 31
0
  0
SPLINE
  5
A27
330
A02
100
AcDbEntity
  8
Shape031
100
AcDbSpline
210
0
220
0
230
1
 70
8
 71
2
 72
6
 73
3
 74
0
 40
-0.82114
 40
-0.82114
 40
-0.82114
 40
-0.799825
 40
-0.799825
 40
-0.799825
 10
-17.0739
 20
-13.65
 30
-5.55112e-16
 10
-17.8691
 20
-14.9966
 30
2.23878e-16
 10
-18.8008
 20
-16.15
 30
0
  0
LINE
  5
A28
330
A02
100
AcDbEntity
  8
Shape032
100
AcDbLine
 10
-13.3287
 20
-4.15
 30
5.55112e-16
 11
-67.8203
 21
-4.15
 31
5.55112e-16
  0
SPLINE
  5
A29
330
A02
100
AcDbEntity
  8
Shape033
100
AcDbSpline
210
0
220
0
230
1
 70
8
 71
2
 72
6
 73
3
 74
0
 40
-0.329093
 40
-0.329093
 40
-0.329093
 40
-0.309055
 40
-0.309055
 40
-0.309055
 10
-67.8203
 20
-4.15
 30
0
 10
-68.1086
 20
-2.92091
 30
0
 10
-68.3263
 20
-1.65
 30
0
  0
LINE
  5
A2A
330
A02
100
AcDbEntity
  8
Shape034
100
AcDbLine
 10
-68.3263
 20
-1.65
 30
0
 11
-12.6555
 21
-1.65
 31
-4.93038e-31
  0
ARC
  5
A2B
330
A02
100
AcDbEntity
  8
Shape035
100
AcDbCircle
 10
-109.544
 20
23.1
 30
-4.25863e-42
 40
100
100
AcDbArc
 50
-15.8131
 51
-14.3296
  0
LINE
  5
A2C
330
A02
100
AcDbEntity
  8
Shape036
100
AcDbLine
 10
-9.5971
 20
19.85
 30
0
 11
-64.4165
 21
19.85
 31
9.86076e-31
  0
SPLINE
  5
A2D
330
A02
100
AcDbEntity
  8
Shape037
100
AcDbSpline
210
0
220
0
230
1
 70
8
 71
3
 72
11
 73
7
 74
0
 40
-0.103487
 40
-0.103487
 40
-0.103487
 40
-0.103487
 40
-0.0642438
 40
-0.0642438
 40
-0.0642438
 40
-0.0471241
 40
-0.0471241
 40
-0.0471241
 40
-0.0471241
 10
-64.4165
 20
19.85
 30
-4.93038e-32
 10
-63.4109
 20
20.5704
 30
5.55112e-16
 10
-62.0813
 20
21.2067
 30
1.03538e-30
 10
-60.1474
 20
21.7375
 30
-5.55112e-16
 10
-59.3067
 20
21.9695
 30
-9.25186e-17
 10
-58.3454
 20
22.1736
 30
9.25186e-17
 10
-57.2636
 20
22.35
 30
0
  0
LINE
  5
A2E
330
A02
100
AcDbEntity
  8
Shape038
100
AcDbLine
 10
-57.2636
 20
22.35
 30
-3.39007e-32
 11
-9.54709
 21
22.35
 31
9.86076e-31
  0
ARC
  5
A2F
330
A02
100
AcDbEntity
  8
Shape039
100
AcDbCircle
 10
-109.544
 20
23.1
 30
-4.25863e-42
 40
100
100
AcDbArc
 50
-1.86244
 51
-0.429722
  0
ARC
  5
A30
330
A02
100
AcDbEntity
  8
Shape040
100
AcDbCircle
 10
109.544
 20
23.1
 30
2.39885e-42
 40
100
100
AcDbArc
 50
-165.67
 51
-164.187
  0
LINE
  5
A31
330
A02
100
AcDbEntity
  8
Shape041
100
AcDbLine
 10
12.6555
 20
-1.65
 30
-2.46436e-30
 11
68.3263
 21
-1.65
 31
5.55112e-16
  0
SPLINE
  5
A32
330
A02
100
AcDbEntity
  8
Shape042
100
AcDbSpline
210
0
220
0
230
1
 70
8
 71
2
 72
6
 73
3
 74
0
 40
0.309055
 40
0.309055
 40
0.309055
 40
0.329093
 40
0.329093
 40
0.329093
 10
68.3263
 20
-1.65
 30
5.55112e-16
 10
68.1086
 20
-2.92091
 30
-1.38778e-16
 10
67.8203
 20
-4.15
 30
0
  0
LINE
  5
A33
330
A02
100
AcDbEntity
  8
Shape043
100
AcDbLine
 10
67.8203
 20
-4.15
 30
-1.32356e-31
 11
13.3287
 21
-4.15
 31
-2.46519e-30
  0
ARC
  5
A34
330
A02
100
AcDbEntity
  8
Shape044
100
AcDbCircle
 10
109.544
 20
23.1
 30
2.39885e-42
 40
100
100
AcDbArc
 50
-179.57
 51
-178.138
  0
LINE
  5
A35
330
A02
100
AcDbEntity
  8
Shape045
100
AcDbLine
 10
9.54709
 20
22.35
 30
-3.38858e-30
 11
57.2636
 21
22.35
 31
9.86076e-31
  0
SPLINE
  5
A36
330
A02
100
AcDbEntity
  8
Shape046
100
AcDbSpline
210
0
220
0
230
1
 70
8
 71
3
 72
11
 73
7
 74
0
 40
0.0471241
 40
0.0471241
 40
0.0471241
 40
0.0471241
 40
0.0642438
 40
0.0642438
 40
0.0642438
 40
0.103487
 40
0.103487
 40
0.103487
 40
0.103487
 10
57.2636
 20
22.35
 30
0
 10
58.3454
 20
22.1736
 30
0
 10
59.3067
 20
21.9695
 30
0
 10
60.1474
 20
21.7375
 30
0
 10
62.0813
 20
21.2067
 30
5.55112e-16
 10
63.4109
 20
20.5704
 30
1.18329e-30
 10
64.4165
 20
19.85
 30
0
  0
LINE
  5
A37
330
A02
100
AcDbEntity
  8
Shape047
100
AcDbLine
 10
64.4165
 20
19.85
 30
-1.34836e-31
 11
9.5971
 21
19.85
 31
-3.38964e-30
  0
ARC
  5
A38
330
A02
100
AcDbEntity
  8
Shape048
100
AcDbCircle
 10
109.544
 20
23.1
 30
2.39885e-42
 40
100
100
AcDbArc
 50
-169.193
 51
-167.731
  0
LINE
  5
A39
330
A02
100
AcDbEntity
  8
Shape049
100
AcDbLine
 10
11.3178
 20
4.35
 30
-4.31268e-30
 11
68.9571
 21
4.35
 31
-4.93038e-31
  0
SPLINE
  5
A3A
330
A02
100
AcDbEntity
  8
Shape050
100
AcDbSpline
210
0
220
0
230
1
 70
8
 71
2
 72
6
 73
3
 74
0
 40
0.262572
 40
0.262572
 40
0.262572
 40
0.281813
 40
0.281813
 40
0.281813
 10
68.9571
 20
4.35
 30
-5.55112e-16
 10
68.905
 20
3.09992
 30
9.11469e-16
 10
68.7878
 20
1.85
 30
0
  0
LINE
  5
A3B
330
A02
100
AcDbEntity
  8
Shape051
100
AcDbLine
 10
68.7878
 20
1.85
 30
-1.11552e-31
 11
11.8282
 21
1.85
 31
-4.31408e-30
  0
SPLINE
  5
A3C
330
A02
100
AcDbEntity
  8
Shape052
100
AcDbSpline
210
0
220
0
230
1
 70
8
 71
3
 72
8
 73
4
 74
0
 40
0.724899
 40
0.724899
 40
0.724899
 40
0.724899
 40
0.76252
 40
0.76252
 40
0.76252
 40
0.76252
 10
27.0889
 20
-22.15
 30
1.7223e-31
 10
25.4187
 20
-21.4783
 30
9.80113e-16
 10
23.8864
 20
-20.6499
 30
-4.56688e-16
 10
22.4993
 20
-19.65
 30
2.46519e-32
  0
LINE
  5
A3D
330
A02
100
AcDbEntity
  8
Shape053
100
AcDbLine
 10
22.4993
 20
-19.65
 30
3.7102e-32
 11
57.793
 21
-19.65
 31
4.93038e-31
  0
SPLINE
  5
A3E
330
A02
100
AcDbEntity
  8
Shape054
100
AcDbSpline
210
0
220
0
230
1
 70
8
 71
2
 72
6
 73
3
 74
0
 40
0.496398
 40
0.496398
 40
0.496398
 40
0.543507
 40
0.543507
 40
0.543507
 10
57.793
 20
-19.65
 30
0
 10
55.5546
 20
-21.1079
 30
4.16334e-16
 10
52.7767
 20
-22.15
 30
0
  0
LINE
  5
A3F
330
A02
100
AcDbEntity
  8
Shape055
100
AcDbLine
 10
52.7767
 20
-22.15
 30
-3.62335e-31
 11
27.0889
 21
-22.15
 31
0
  0
LINE
  5
A40
330
A02
100
AcDbEntity
  8
Shape056
100
AcDbLine
 10
-11.8282
 20
1.85
 30
0
 11
-68.7878
 21
1.85
 31
4.93038e-31
  0
SPLINE
  5
A41
330
A02
100
AcDbEntity
  8
Shape057
100
AcDbSpline
210
0
220
0
230
1
 70
8
 71
2
 72
6
 73
3
 74
0
 40
-0.281813
 40
-0.281813
 40
-0.281813
 40
-0.262572
 40
-0.262572
 40
-0.262572
 10
-68.7878
 20
1.85
 30
0
 10
-68.905
 20
3.09992
 30
1.87805e-16
 10
-68.9571
 20
4.35
 30
0
  0
LINE
  5
A42
330
A02
100
AcDbEntity
  8
Shape058
100
AcDbLine
 10
-68.9571
 20
4.35
 30
4.02251e-32
 11
-11.3178
 21
4.35
 31
-4.93038e-31
  0
ARC
  5
A43
330
A02
100
AcDbEntity
  8
Shape059
100
AcDbCircle
 10
-109.544
 20
23.1
 30
-4.25863e-42
 40
100
100
AcDbArc
 50
-12.2689
 51
-10.8069
  0
LINE
  5
A44
330
A02
100
AcDbEntity
  8
Shape060
100
AcDbLine
 10
-27.0889
 20
-22.15
 30
5.55112e-16
 11
-52.7767
 21
-22.15
 31
5.55112e-16
  0
SPLINE
  5
A45
330
A02
100
AcDbEntity
  8
Shape061
100
AcDbSpline
210
0
220
0
230
1
 70
8
 71
2
 72
6
 73
3
 74
0
 40
-0.543507
 40
-0.543507
 40
-0.543507
 40
-0.496398
 40
-0.496398
 40
-0.496398
 10
-52.7767
 20
-22.15
 30
0
 10
-55.5546
 20
-21.1079
 30
0
 10
-57.793
 20
-19.65
 30
0
  0
LINE
  5
A46
330
A02
100
AcDbEntity
  8
Shape062
100
AcDbLine
 10
-57.793
 20
-19.65
 30
0
 11
-22.4993
 21
-19.65
 31
-4.93038e-31
  0
SPLINE
  5
A47
330
A02
100
AcDbEntity
  8
Shape063
100
AcDbSpline
210
0
220
0
230
1
 70
8
 71
3
 72
8
 73
4
 74
0
 40
-0.76252
 40
-0.76252
 40
-0.76252
 40
-0.76252
 40
-0.724899
 40
-0.724899
 40
-0.724899
 40
-0.724899
 10
-22.4993
 20
-19.65
 30
-4.91517e-33
 10
-23.8864
 20
-20.6499
 30
-1.31013e-16
 10
-25.4187
 20
-21.4783
 30
-1.56345e-16
 10
-27.0889
 20
-22.15
 30
5.55112e-16
  0
CIRCLE
  5
A48
330
A02
100
AcDbEntity
  8
Shape064
100
AcDbCircle
 10
71.88
 20
9.1
 40
0.825
  0
CIRCLE
  5
A49
330
A02
100
AcDbEntity
  8
Shape065
100
AcDbCircle
 10
-75.5
 20
9.1
 40
0.825
  0
CIRCLE
  5
A4A
330
A02
100
AcDbEntity
  8
Shape066
100
AcDbCircle
 10
75.5
 20
9.1
 40
0.825
  0
CIRCLE
  5
A4B
330
A02
100
AcDbEntity
  8
Shape067
100
AcDbCircle
 10
-71.88
 20
9.1
 40
0.825
  0
LINE
  5
A4C
330
A02
100
AcDbEntity
  8
Shape068
100
AcDbLine
 10
77.5
 20
13.1
 30
0
 11
71.9129
 21
13.1
 31
0
  0
SPLINE
  5
A4D
330
A02
100
AcDbEntity
  8
Shape069
100
AcDbSpline
210
0
220
0
230
1
 70
8
 71
3
 72
17
 73
13
 74
0
 40
-0.19632
 40
-0.19632
 40
-0.19632
 40
-0.19632
 40
-0.14724
 40
-0.14724
 40
-0.14724
 40
-0.0981598
 40
-0.0981598
 40
-0.0981598
 40
-0.0490799
 40
-0.0490799
 40
-0.0490799
 40
0
 40
0
 40
0
 40
0
 10
71.9129
 20
13.1
 30
-5.20919e-33
 10
71.5204
 20
15.1592
 30
-4.19483e-18
 10
70.9144
 20
17.0742
 30
-9.95143e-17
 10
69.9655
 20
18.7627
 30
-1.54499e-16
 10
69.0132
 20
20.452
 30
-2.14517e-16
 10
67.7196
 20
21.9139
 30
-2.46591e-16
 10
65.86
 20
23.0899
 30
-2.60209e-16
 10
63.996
 20
24.2672
 30
-2.73051e-16
 10
61.5678
 20
25.1575
 30
-2.79827e-16
 10
58.2312
 20
25.7403
 30
-2.6834e-16
 10
54.8896
 20
26.325
 30
-2.5027e-16
 10
50.6414
 20
26.6011
 30
-2.26327e-16
 10
45
 20
26.6
 30
0
  0
LINE
  5
A4E
330
A02
100
AcDbEntity
  8
Shape070
100
AcDbLine
 10
45
 20
26.6
 30
-5.53512e-30
 11
-45
 21
26.6
 31
0
  0
SPLINE
  5
A4F
330
A02
100
AcDbEntity
  8
Shape071
100
AcDbSpline
210
0
220
0
230
1
 70
8
 71
3
 72
17
 73
13
 74
0
 40
0
 40
0
 40
0
 40
0
 40
0.0490799
 40
0.0490799
 40
0.0490799
 40
0.0981598
 40
0.0981598
 40
0.0981598
 40
0.14724
 40
0.14724
 40
0.14724
 40
0.19632
 40
0.19632
 40
0.19632
 40
0.19632
 10
-45
 20
26.6
 30
0
 10
-50.6414
 20
26.6011
 30
8.17454e-20
 10
-54.8896
 20
26.325
 30
-2.49539e-19
 10
-58.2312
 20
25.7403
 30
5.42101e-19
 10
-61.5678
 20
25.1575
 30
1.72096e-18
 10
-63.996
 20
24.2672
 30
3.19668e-18
 10
-65.86
 20
23.0899
 30
1.73472e-17
 10
-67.7196
 20
21.9139
 30
3.22722e-17
 10
-69.0132
 20
20.452
 30
5.9046e-17
 10
-69.9655
 20
18.7627
 30
1.31731e-16
 10
-70.9144
 20
17.0742
 30
2.05577e-16
 10
-71.5204
 20
15.1592
 30
3.24508e-16
 10
-71.9129
 20
13.1
 30
5.55112e-16
  0
LINE
  5
A50
330
A02
100
AcDbEntity
  8
Shape072
100
AcDbLine
 10
-71.9129
 20
13.1
 30
5.55112e-16
 11
-77.5
 21
13.1
 31
5.55112e-16
  0
LINE
  5
A51
330
A02
100
AcDbEntity
  8
Shape073
100
AcDbLine
 10
-77.5
 20
13.1
 30
5.55112e-16
 11
-77.5
 21
5.1
 31
5.55112e-16
  0
LINE
  5
A52
330
A02
100
AcDbEntity
  8
Shape074
100
AcDbLine
 10
-77.5
 20
5.1
 30
5.55112e-16
 11
-72.4831
 21
5.1
 31
0
  0
SPLINE
  5
A53
330
A02
100
AcDbEntity
  8
Shape075
100
AcDbSpline
210
0
220
0
230
1
 70
8
 71
3
 72
50
 73
46
 74
0
 40
0.256136
 40
0.256136
 40
0.256136
 40
0.256136
 40
0.302627
 40
0.302627
 40
0.302627
 40
0.349119
 40
0.349119
 40
0.349119
 40
0.442102
 40
0.442102
 40
0.442102
 40
0.535085
 40
0.535085
 40
0.535085
 40
0.581576
 40
0.581576
 40
0.581576
 40
0.628068
 40
0.628068
 40
0.628068
 40
0.674559
 40
0.674559
 40
0.674559
 40
0.721051
 40
0.721051
 40
0.721051
 40
0.767542
 40
0.767542
 40
0.767542
 40
0.814034
 40
0.814034
 40
0.814034
 40
0.860525
 40
0.860525
 40
0.860525
 40
0.907017
 40
0.907017
 40
0.907017
 40
0.953508
 40
0.953508
 40
0.953508
 40
0.976754
 40
0.976754
 40
0.976754
 40
1
 40
1
 40
1
 40
1
 10
-72.4831
 20
5.1
 30
1.2326e-32
 10
-72.432
 20
2.94789
 30
-4.94763e-18
 10
-72.2425
 20
0.768498
 30
-1.07009e-16
 10
-71.9177
 20
-1.36617
 30
-1.65917e-16
 10
-71.5924
 20
-3.50144
 30
-2.30069e-16
 10
-71.1302
 20
-5.59118
 30
-2.68229e-16
 10
-70.5181
 20
-7.58029
 30
-2.86504e-16
 10
-69.2945
 20
-11.564
 30
-3.23e-16
 10
-67.4649
 20
-15.127
 30
-2.92013e-16
 10
-64.913
 20
-18.0641
 30
-2.53289e-16
 10
-62.3665
 20
-21.0062
 30
-2.13176e-16
 10
-59.0831
 20
-23.3384
 30
-1.64006e-16
 10
-55.1014
 20
-24.9942
 30
-1.26659e-16
 10
-53.1133
 20
-25.8222
 30
-1.07708e-16
 10
-50.9552
 20
-26.4819
 30
-9.11191e-17
 10
-48.662
 20
-26.9612
 30
-7.72545e-17
 10
-46.3697
 20
-27.4401
 30
-6.33613e-17
 10
-43.9418
 20
-27.739
 30
-5.21511e-17
 10
-41.4409
 20
-27.8348
 30
-4.31834e-17
 10
-38.9412
 20
-27.9299
 30
-3.42065e-17
 10
-36.3681
 20
-27.8223
 30
-2.74308e-17
 10
-33.8178
 20
-27.4711
 30
-2.21549e-17
 10
-31.2683
 20
-27.1195
 30
-1.6883e-17
 10
-28.7443
 20
-26.5223
 30
-1.31006e-17
 10
-26.3685
 20
-25.6257
 30
-1.02503e-17
 10
-23.9919
 20
-24.73
 30
-7.40561e-18
 10
-21.7673
 20
-23.5318
 30
-5.49504e-18
 10
-19.7981
 20
-22.002
 30
-4.11936e-18
 10
-17.8264
 20
-20.4746
 30
-2.7484e-18
 10
-16.1138
 20
-18.6126
 30
-1.91434e-18
 10
-14.6949
 20
-16.4522
 30
-1.34983e-18
 10
-13.2718
 20
-14.2957
 30
-7.89087e-19
 10
-12.146
 20
-11.8377
 30
-4.99889e-19
 10
-11.2338
 20
-9.2207
 30
-3.20322e-19
 10
-10.3155
 20
-6.60897
 30
-1.43579e-19
 10
-9.61444
 20
-3.83517
 30
-7.84745e-20
 10
-8.87851
 20
-1.18866
 30
-4.21823e-20
 10
-8.13481
 20
1.45114
 30
-7.77317e-21
 10
-7.36002
 20
3.96677
 30
-4.18475e-21
 10
-6.08431
 20
5.88116
 30
-1.3182e-21
 10
-5.44394
 20
6.8362
 30
-2.42912e-22
 10
-4.67381
 20
7.63704
 30
-1.30773e-22
 10
-3.69078
 20
8.20317
 30
-4.11936e-23
 10
-2.7071
 20
8.76875
 30
1.89621e-23
 10
-1.51063
 20
9.09971
 30
-6.21174e-24
 10
-1.77636e-15
 20
9.1
 30
0
  0
SPLINE
  5
A54
330
A02
100
AcDbEntity
  8
Shape076
100
AcDbSpline
210
0
220
0
230
1
 70
8
 71
3
 72
50
 73
46
 74
0
 40
-1
 40
-1
 40
-1
 40
-1
 40
-0.976754
 40
-0.976754
 40
-0.976754
 40
-0.953508
 40
-0.953508
 40
-0.953508
 40
-0.907017
 40
-0.907017
 40
-0.907017
 40
-0.860525
 40
-0.860525
 40
-0.860525
 40
-0.814034
 40
-0.814034
 40
-0.814034
 40
-0.767542
 40
-0.767542
 40
-0.767542
 40
-0.721051
 40
-0.721051
 40
-0.721051
 40
-0.674559
 40
-0.674559
 40
-0.674559
 40
-0.628068
 40
-0.628068
 40
-0.628068
 40
-0.581576
 40
-0.581576
 40
-0.581576
 40
-0.535085
 40
-0.535085
 40
-0.535085
 40
-0.442102
 40
-0.442102
 40
-0.442102
 40
-0.349119
 40
-0.349119
 40
-0.349119
 40
-0.302627
 40
-0.302627
 40
-0.302627
 40
-0.256136
 40
-0.256136
 40
-0.256136
 40
-0.256136
 10
-1.33227e-15
 20
9.1
 30
0
 10
1.51063
 20
9.09971
 30
-6.45114e-17
 10
2.7071
 20
8.76875
 30
-1.15573e-16
 10
3.69078
 20
8.20317
 30
-1.56238e-16
 10
4.67381
 20
7.63704
 30
-1.96887e-16
 10
5.44394
 20
6.8362
 30
-2.27137e-16
 10
6.08431
 20
5.88116
 30
-2.49584e-16
 10
7.36002
 20
3.96677
 30
-2.94352e-16
 10
8.13481
 20
1.45114
 30
-3.08373e-16
 10
8.87851
 20
-1.18866
 30
-3.07485e-16
 10
9.61444
 20
-3.83517
 30
-3.06397e-16
 10
10.3155
 20
-6.60897
 30
-2.90313e-16
 10
11.2338
 20
-9.2207
 30
-2.69464e-16
 10
12.146
 20
-11.8377
 30
-2.48455e-16
 10
13.2718
 20
-14.2957
 30
-2.22594e-16
 10
14.6949
 20
-16.4522
 30
-1.97641e-16
 10
16.1138
 20
-18.6126
 30
-1.72568e-16
 10
17.8264
 20
-20.4746
 30
-1.48316e-16
 10
19.7981
 20
-22.002
 30
-1.27307e-16
 10
21.7673
 20
-23.5318
 30
-1.0622e-16
 10
23.9919
 20
-24.73
 30
-8.82894e-17
 10
26.3685
 20
-25.6257
 30
-7.37376e-17
 10
28.7443
 20
-26.5223
 30
-5.91478e-17
 10
31.2683
 20
-27.1195
 30
-4.78502e-17
 10
33.8178
 20
-27.4711
 30
-3.90012e-17
 10
36.3681
 20
-27.8223
 30
-3.01493e-17
 10
38.9412
 20
-27.9299
 30
-2.36849e-17
 10
41.4409
 20
-27.8348
 30
-1.87509e-17
 10
43.9418
 20
-27.739
 30
-1.38252e-17
 10
46.3697
 20
-27.4401
 30
-1.04325e-17
 10
48.662
 20
-26.9612
 30
-7.9479e-18
 10
50.9552
 20
-26.4819
 30
-5.47029e-18
 10
53.1133
 20
-25.8222
 30
-3.90351e-18
 10
55.1014
 20
-24.9942
 30
-2.81807e-18
 10
59.0831
 20
-23.3384
 30
-6.89995e-19
 10
62.3665
 20
-21.0062
 30
-3.4453e-19
 10
64.913
 20
-18.0641
 30
-1.28347e-19
 10
67.4649
 20
-15.127
 30
3.88749e-20
 10
69.2945
 20
-11.564
 30
-1.24785e-20
 10
70.5181
 20
-7.58029
 30
-8.26365e-24
 10
71.1302
 20
-5.59118
 30
9.59666e-24
 10
71.5924
 20
-3.50144
 30
-4.50271e-24
 10
71.9177
 20
-1.36617
 30
0
 10
72.2425
 20
0.768498
 30
0
 10
72.432
 20
2.94789
 30
0
 10
72.4831
 20
5.1
 30
0
  0
LINE
  5
A55
330
A02
100
AcDbEntity
  8
Shape077
100
AcDbLine
 10
72.4831
 20
5.1
 30
0
 11
77.5
 21
5.1
 31
-5.91712e-48
  0
LINE
  5
A56
330
A02
100
AcDbEntity
  8
Shape078
100
AcDbLine
 10
77.5
 20
5.1
 30
-5.91712e-48
 11
77.5
 21
13.1
 31
0
  0
ENDSEC
  0
SECTION
  2
OBJECTS
  0
DICTIONARY
  5
F000
330
0
100
AcDbDictionary
  3
ACAD_GROUP
350
F001
  0
DICTIONARY
  5
F001
330
F000
100
AcDbDictionary
  0
ENDSEC
  0
EOF