999
FreeCAD v0.20 29410 (Git)
  0
SECTION
  2
HEADER
  9
$ACADVER
  1
AC1014
  9
$ACADMAINTVER
 70
     9
  9
$DWGCODEPAGE
  3
ANSI_1252
  9
$TEXTSTYLE
  7
STANDARD
  9
$DIMSTYLE
  2
STANDARD
  9
$DIMTXSTY
  7
STANDARD
  9
$CMLSTYLE
  2
STANDARD
  9
$LUNITS
 70
2
  9
$INSUNITS
 70
4
  9
$PEXTMAX
 10
50
 20
50
 30
50
  9
$PEXTMIN
 10
0
 20
0
 30
0
  9
$HANDSEED
  5
FFFF
  0
ENDSEC
  0
SECTION
  2
CLASSES
  0
CLASS
  1
ACDBDICTIONARYWDFLT
  2
AcDbDictionaryWithDefault
  3
ObjectDBX Classes
 90
        0
280
     0
281
     0
  0
CLASS
  1
XRECORD
  2
AcDbXrecord
  3
ObjectDBX Classes
 90
        0
280
     0
281
     0
  0
CLASS
  1
LWPOLYLINE
  2
AcDbPolyline
  3
ObjectDBX Classes
 90
        0
280
     0
281
     1
  0
ENDSEC
  0
SECTION
  2
TABLES
  0
TABLE
  2
VPORT
  5
20
330
0
100
AcDbSymbolTable
 70
     1
  0
VPORT
  5
21
330
20
100
AcDbSymbolTableRecord
100
AcDbViewportTableRecord
  2
*ACTIVE
 70
     0
  0
ENDTAB
  0
TABLE
  2
LTYPE
  5
22
330
0
100
AcDbSymbolTable
 70
     1
  0
LTYPE
  5
23
330
21
100
AcDbSymbolTableRecord
100
AcDbLinetypeTableRecord
  2
BYBLOCK
 70
     0
  3

 72
    65
 73
     0
 40
0.0
  0
LTYPE
  5
24
330
21
100
AcDbSymbolTableRecord
100
AcDbLinetypeTableRecord
  2
BYLAYER
 70
     0
  3

 72
    65
 73
     0
 40
0.0
  0
LTYPE
  5
25
330
21
100
AcDbSymbolTableRecord
100
AcDbLinetypeTableRecord
  2
CONTINUOUS
 70
     0
  3
Solid line
 72
    65
 73
     0
 40
0.0
  0
ENDTAB
  0
TABLE
  2
LAYER
  5
A5D
330
0
100
AcDbSymbolTable
 70
3
  0
LAYER
  5
A5E
330
A5D
100
AcDbSymbolTableRecord
100
AcDbLayerTableRecord
  2
0
 70
   0
 62
   7
  6
CONTINUOUS
  0
LAYER
  5
A5F
330
A5D
100
AcDbSymbolTableRecord
100
AcDbLayerTableRecord
  2
none
 70
    0
 62
    7
  6
CONTINUOUS
  0
LAYER
  5
A60
330
A5D
100
AcDbSymbolTableRecord
100
AcDbLayerTableRecord
  2
Shape2DView
 70
    0
 62
    7
  6
CONTINUOUS
  0
ENDTAB
  0
TABLE
  2
STYLE
  5
70
330
0
100
AcDbSymbolTable
 70
     2
  0
STYLE
  5
71
330
70
100
AcDbSymbolTableRecord
100
AcDbTextStyleTableRecord
  2
STANDARD
 70
     0
 40
0.0
 41
1.0
 50
0.0
 71
     0
 42
2.5
  3
arial.ttf
  4

  0
STYLE
  5
72
330
70
100
AcDbSymbolTableRecord
100
AcDbTextStyleTableRecord
  2
ANNOTATIVE
 70
     0
 40
0.0
 41
1.0
 50
0.0
 71
     0
 42
2.5
  3
arial.ttf
  4

  0
ENDTAB
  0
TABLE
  2
VIEW
  5
73
330
0
100
AcDbSymbolTable
 70
     0
  0
ENDTAB
  0
TABLE
  2
UCS
  5
74
330
0
100
AcDbSymbolTable
 70
     0
  0
ENDTAB
  0
TABLE
  2
APPID
  5
75
330
0
100
AcDbSymbolTable
 70
     2
  0
APPID
  5
76
330
75
100
AcDbSymbolTableRecord
100
AcDbRegAppTableRecord
  2
ACAD
 70
     0
  0
APPID
  5
77
330
75
100
AcDbSymbolTableRecord
100
AcDbRegAppTableRecord
  2
ACADANNOTATIVE
 70
     0
  0
ENDTAB
  0
TABLE
  2
DIMSTYLE
  5
78
330
0
100
AcDbSymbolTable
 70
     2
  0
DIMSTYLE
105
79
330
78
100
AcDbSymbolTableRecord
100
AcDbDimStyleTableRecord
  2
STANDARD
 70
     0
  3

  4

  5

  6

  7

 40
0.0
 41
2.5
 42
0.625
 43
3.75
 44
1.25
 45
0.0
 46
0.0
 47
0.0
 48
0.0
140
2.5
141
2.5
142
0.0
143
0.03937007874016
144
1.0
145
0.0
146
1.0
147
0.625
 71
     0
 72
     0
 73
     0
 74
     0
 75
     0
 76
     0
 77
     1
 78
     8
170
     0
171
     3
172
     1
173
     0
174
     0
175
     0
176
     0
177
     0
178
     0
270
     2
271
     2
272
     2
273
     2
274
     3
340
71
275
     0
280
     0
281
     0
282
     0
283
     0
284
     8
285
     0
286
     0
287
     3
288
     0
  0
ENDTAB
  0
TABLE
  2
BLOCK_RECORD
  5
A01
330
0
100
AcDbSymbolTable
  70
5
  0
BLOCK_RECORD
  5
A02
330
A01
100
AcDbSymbolTableRecord
100
AcDbBlockTableRecord
  2
*MODEL_SPACE
  0
BLOCK_RECORD
  5
A03
330
A01
100
AcDbSymbolTableRecord
100
AcDbBlockTableRecord
  2
*PAPER_SPACE
  0
ENDTAB
  0
ENDSEC
  0
SECTION
  2
BLOCKS
  0
BLOCK
  5
A04
330
A02
100
AcDbEntity
  8
0
100
AcDbBlockBegin
  2
*MODEL_SPACE
 70
   0
 10
0
 20
0
 30
0
  3
*MODEL_SPACE
  1
 
  0
ENDBLK
  5
A05
330
A02
100
AcDbEntity
  8
0
100
AcDbBlockEnd
  0
BLOCK
  5
A06
330
A03
100
AcDbEntity
 67
1
  8
0
100
AcDbBlockBegin
  2
*PAPER_SPACE
 70
   0
 10
0
 20
0
 30
0
  3
*PAPER_SPACE
  1
 
  0
ENDBLK
  5
A07
330
A03
100
AcDbEntity
 67
    1
  8
0
100
AcDbBlockEnd
  0
ENDSEC
  0
SECTION
  2
ENTITIES
  0
LINE
  5
A08
330
A02
100
AcDbEntity
  8
Shape2DView
100
AcDbLine
 10
-10.35
 20
63.81
 30
0
 11
-7.85
 21
63.81
 31
0
  0
LINE
  5
A09
330
A02
100
AcDbEntity
  8
Shape2DView
100
AcDbLine
 10
-7.85
 20
63.81
 30
0
 11
-7.85
 21
10.7139
 31
0
  0
LINE
  5
A0A
330
A02
100
AcDbEntity
  8
Shape2DView
100
AcDbLine
 10
-10.35
 20
10.3604
 30
0
 11
-10.35
 21
63.81
 31
0
  0
LINE
  5
A0B
330
A02
100
AcDbEntity
  8
Shape2DView
100
AcDbLine
 10
-10.35
 20
-63.81
 30
0
 11
-7.85
 21
-63.81
 31
0
  0
LINE
  5
A0C
330
A02
100
AcDbEntity
  8
Shape2DView
100
AcDbLine
 10
-7.85
 20
-10.7139
 30
0
 11
-7.85
 21
-63.81
 31
0
  0
LINE
  5
A0D
330
A02
100
AcDbEntity
  8
Shape2DView
100
AcDbLine
 10
-10.35
 20
-63.81
 30
0
 11
-10.35
 21
-10.3604
 31
0
  0
LINE
  5
A0E
330
A02
100
AcDbEntity
  8
Shape2DView
100
AcDbLine
 10
10.15
 20
-15.3355
 30
0
 11
10.15
 21
-65.8203
 31
0
  0
SPLINE
  5
A0F
330
A02
100
AcDbEntity
  8
Shape2DView
100
AcDbSpline
210
0
220
0
230
1
 70
8
 71
2
 72
6
 73
3
 74
0
 40
-0.863159
 40
-0.863159
 40
-0.863159
 40
-0.846768
 40
-0.846768
 40
-0.846768
 10
7.65
 20
-14.3945
 30
0
 10
8.94876
 20
-14.8341
 30
0
 10
10.15
 20
-15.3355
 30
0
  0
LINE
  5
A10
330
A02
100
AcDbEntity
  8
Shape2DView
100
AcDbLine
 10
7.65
 20
-66.8136
 30
0
 11
7.65
 21
-14.3945
 31
0
  0
SPLINE
  5
A11
330
A02
100
AcDbEntity
  8
Shape2DView
100
AcDbSpline
210
0
220
0
230
1
 70
8
 71
2
 72
6
 73
3
 74
0
 40
-0.381645
 40
-0.381645
 40
-0.381645
 40
-0.358693
 40
-0.358693
 40
-0.358693
 10
10.15
 20
-65.8203
 30
0
 10
8.95084
 20
-66.3632
 30
0
 10
7.65
 20
-66.8136
 30
0
  0
LINE
  5
A12
330
A02
100
AcDbEntity
  8
Shape2DView
100
AcDbLine
 10
-13.85
 20
-9.97301
 30
0
 11
-13.85
 21
-68.1582
 31
0
  0
ARC
  5
A13
330
A02
100
AcDbEntity
  8
Shape2DView
100
AcDbCircle
 10
-23.1
 20
-109.544
 30
0
 40
100
100
AcDbArc
 50
84.6926
 51
86.1296
  0
LINE
  5
A14
330
A02
100
AcDbEntity
  8
Shape2DView
100
AcDbLine
 10
-16.35
 20
-67.2754
 30
0
 11
-16.35
 21
-9.77235
 31
0
  0
SPLINE
  5
A15
330
A02
100
AcDbEntity
  8
Shape2DView
100
AcDbSpline
210
0
220
0
230
1
 70
8
 71
3
 72
8
 73
4
 74
0
 40
0.155953
 40
0.155953
 40
0.155953
 40
0.155953
 40
0.183023
 40
0.183023
 40
0.183023
 40
0.183023
 10
-16.35
 20
-67.2754
 30
0
 10
-15.6084
 20
-67.6216
 30
0
 10
-14.7685
 20
-67.9189
 30
0
 10
-13.85
 20
-68.1582
 30
0
  0
SPLINE
  5
A16
330
A02
100
AcDbEntity
  8
Shape2DView
100
AcDbSpline
210
0
220
0
230
1
 70
8
 71
3
 72
8
 73
4
 74
0
 40
-0.183023
 40
-0.183023
 40
-0.183023
 40
-0.183023
 40
-0.155953
 40
-0.155953
 40
-0.155953
 40
-0.155953
 10
-13.85
 20
-68.1582
 30
0
 10
-14.7685
 20
-67.9189
 30
0
 10
-15.6084
 20
-67.6216
 30
0
 10
-16.35
 20
-67.2754
 30
0
  0
SPLINE
  5
A17
330
A02
100
AcDbEntity
  8
Shape2DView
100
AcDbSpline
210
0
220
0
230
1
 70
8
 71
2
 72
6
 73
3
 74
0
 40
0.846768
 40
0.846768
 40
0.846768
 40
0.863159
 40
0.863159
 40
0.863159
 10
10.15
 20
15.3355
 30
0
 10
8.94876
 20
14.8341
 30
0
 10
7.65
 20
14.3945
 30
0
  0
LINE
  5
A18
330
A02
100
AcDbEntity
  8
Shape2DView
100
AcDbLine
 10
10.15
 20
65.8203
 30
0
 11
10.15
 21
15.3355
 31
0
  0
SPLINE
  5
A19
330
A02
100
AcDbEntity
  8
Shape2DView
100
AcDbSpline
210
0
220
0
230
1
 70
8
 71
2
 72
6
 73
3
 74
0
 40
-0.381645
 40
-0.381645
 40
-0.381645
 40
-0.358693
 40
-0.358693
 40
-0.358693
 10
10.15
 20
65.8203
 30
0
 10
8.95084
 20
66.3632
 30
0
 10
7.65
 20
66.8136
 30
0
  0
SPLINE
  5
A1A
330
A02
100
AcDbEntity
  8
Shape2DView
100
AcDbSpline
210
0
220
0
230
1
 70
8
 71
2
 72
6
 73
3
 74
0
 40
0.358693
 40
0.358693
 40
0.358693
 40
0.381645
 40
0.381645
 40
0.381645
 10
7.65
 20
66.8136
 30
0
 10
8.95084
 20
66.3632
 30
0
 10
10.15
 20
65.8203
 30
0
  0
LINE
  5
A1B
330
A02
100
AcDbEntity
  8
Shape2DView
100
AcDbLine
 10
7.65
 20
14.3945
 30
0
 11
7.65
 21
66.8136
 31
0
  0
ARC
  5
A1C
330
A02
100
AcDbEntity
  8
Shape2DView
100
AcDbCircle
 10
-23.1
 20
109.544
 30
0
 40
100
100
AcDbArc
 50
-86.1296
 51
-84.6926
  0
LINE
  5
A1D
330
A02
100
AcDbEntity
  8
Shape2DView
100
AcDbLine
 10
-13.85
 20
68.1582
 30
0
 11
-13.85
 21
9.97301
 31
0
  0
SPLINE
  5
A1E
330
A02
100
AcDbEntity
  8
Shape2DView
100
AcDbSpline
210
0
220
0
230
1
 70
8
 71
3
 72
8
 73
4
 74
0
 40
0.155953
 40
0.155953
 40
0.155953
 40
0.155953
 40
0.183023
 40
0.183023
 40
0.183023
 40
0.183023
 10
-16.35
 20
67.2754
 30
0
 10
-15.6084
 20
67.6216
 30
0
 10
-14.7685
 20
67.9189
 30
0
 10
-13.85
 20
68.1582
 30
0
  0
LINE
  5
A1F
330
A02
100
AcDbEntity
  8
Shape2DView
100
AcDbLine
 10
-16.35
 20
9.77235
 30
0
 11
-16.35
 21
67.2754
 31
0
  0
ARC
  5
A20
330
A02
100
AcDbEntity
  8
Shape2DView
100
AcDbCircle
 10
-23.1
 20
109.544
 30
0
 40
100
100
AcDbArc
 50
-82.6748
 51
-81.2282
  0
SPLINE
  5
A21
330
A02
100
AcDbEntity
  8
Shape2DView
100
AcDbSpline
210
0
220
0
230
1
 70
8
 71
2
 72
6
 73
3
 74
0
 40
0.799825
 40
0.799825
 40
0.799825
 40
0.82114
 40
0.82114
 40
0.82114
 10
16.15
 20
18.8008
 30
0
 10
14.9966
 20
17.8691
 30
0
 10
13.65
 20
17.0739
 30
0
  0
LINE
  5
A22
330
A02
100
AcDbEntity
  8
Shape2DView
100
AcDbLine
 10
16.15
 20
61.9318
 30
0
 11
16.15
 21
18.8008
 31
0
  0
SPLINE
  5
A23
330
A02
100
AcDbEntity
  8
Shape2DView
100
AcDbSpline
210
0
220
0
230
1
 70
8
 71
2
 72
6
 73
3
 74
0
 40
0.417498
 40
0.417498
 40
0.417498
 40
0.446839
 40
0.446839
 40
0.446839
 10
13.65
 20
63.8858
 30
0
 10
14.9816
 20
62.9952
 30
0
 10
16.15
 20
61.9318
 30
0
  0
LINE
  5
A24
330
A02
100
AcDbEntity
  8
Shape2DView
100
AcDbLine
 10
13.65
 20
17.0739
 30
0
 11
13.65
 21
63.8858
 31
0
  0
ARC
  5
A25
330
A02
100
AcDbEntity
  8
Shape2DView
100
AcDbCircle
 10
-23.1
 20
-109.544
 30
0
 40
100
100
AcDbArc
 50
81.2282
 51
82.6748
  0
LINE
  5
A26
330
A02
100
AcDbEntity
  8
Shape2DView
100
AcDbLine
 10
16.15
 20
-18.8008
 30
0
 11
16.15
 21
-61.9318
 31
0
  0
SPLINE
  5
A27
330
A02
100
AcDbEntity
  8
Shape2DView
100
AcDbSpline
210
0
220
0
230
1
 70
8
 71
2
 72
6
 73
3
 74
0
 40
0.799825
 40
0.799825
 40
0.799825
 40
0.82114
 40
0.82114
 40
0.82114
 10
16.15
 20
-18.8008
 30
0
 10
14.9966
 20
-17.8691
 30
0
 10
13.65
 20
-17.0739
 30
0
  0
SPLINE
  5
A28
330
A02
100
AcDbEntity
  8
Shape2DView
100
AcDbSpline
210
0
220
0
230
1
 70
8
 71
2
 72
6
 73
3
 74
0
 40
-0.82114
 40
-0.82114
 40
-0.82114
 40
-0.799825
 40
-0.799825
 40
-0.799825
 10
13.65
 20
-17.0739
 30
0
 10
14.9966
 20
-17.8691
 30
0
 10
16.15
 20
-18.8008
 30
0
  0
LINE
  5
A29
330
A02
100
AcDbEntity
  8
Shape2DView
100
AcDbLine
 10
13.65
 20
-63.8858
 30
0
 11
13.65
 21
-17.0739
 31
0
  0
SPLINE
  5
A2A
330
A02
100
AcDbEntity
  8
Shape2DView
100
AcDbSpline
210
0
220
0
230
1
 70
8
 71
2
 72
6
 73
3
 74
0
 40
-0.446839
 40
-0.446839
 40
-0.446839
 40
-0.417498
 40
-0.417498
 40
-0.417498
 10
16.15
 20
-61.9318
 30
0
 10
14.9816
 20
-62.9952
 30
0
 10
13.65
 20
-63.8858
 30
0
  0
LINE
  5
A2B
330
A02
100
AcDbEntity
  8
Shape2DView
100
AcDbLine
 10
4.15
 20
-13.3287
 30
0
 11
4.15
 21
-67.8203
 31
0
  0
ARC
  5
A2C
330
A02
100
AcDbEntity
  8
Shape2DView
100
AcDbCircle
 10
-23.1
 20
-109.544
 30
0
 40
100
100
AcDbArc
 50
74.1869
 51
75.6704
  0
LINE
  5
A2D
330
A02
100
AcDbEntity
  8
Shape2DView
100
AcDbLine
 10
1.65
 20
-68.3263
 30
0
 11
1.65
 21
-12.6555
 31
0
  0
SPLINE
  5
A2E
330
A02
100
AcDbEntity
  8
Shape2DView
100
AcDbSpline
210
0
220
0
230
1
 70
8
 71
2
 72
6
 73
3
 74
0
 40
-0.329093
 40
-0.329093
 40
-0.329093
 40
-0.309055
 40
-0.309055
 40
-0.309055
 10
4.15
 20
-67.8203
 30
0
 10
2.92091
 20
-68.1086
 30
0
 10
1.65
 20
-68.3263
 30
0
  0
LINE
  5
A2F
330
A02
100
AcDbEntity
  8
Shape2DView
100
AcDbLine
 10
-19.85
 20
-9.5971
 30
0
 11
-19.85
 21
-64.4165
 31
0
  0
ARC
  5
A30
330
A02
100
AcDbEntity
  8
Shape2DView
100
AcDbCircle
 10
-23.1
 20
-109.544
 30
0
 40
100
100
AcDbArc
 50
88.1376
 51
89.5703
  0
LINE
  5
A31
330
A02
100
AcDbEntity
  8
Shape2DView
100
AcDbLine
 10
-22.35
 20
-57.2636
 30
0
 11
-22.35
 21
-9.54709
 31
0
  0
SPLINE
  5
A32
330
A02
100
AcDbEntity
  8
Shape2DView
100
AcDbSpline
210
0
220
0
230
1
 70
8
 71
3
 72
11
 73
7
 74
0
 40
-0.103487
 40
-0.103487
 40
-0.103487
 40
-0.103487
 40
-0.0642438
 40
-0.0642438
 40
-0.0642438
 40
-0.0471241
 40
-0.0471241
 40
-0.0471241
 40
-0.0471241
 10
-19.85
 20
-64.4165
 30
0
 10
-20.5704
 20
-63.4109
 30
0
 10
-21.2067
 20
-62.0813
 30
0
 10
-21.7375
 20
-60.1474
 30
0
 10
-21.9695
 20
-59.3067
 30
0
 10
-22.1736
 20
-58.3454
 30
0
 10
-22.35
 20
-57.2636
 30
0
  0
ARC
  5
A33
330
A02
100
AcDbEntity
  8
Shape2DView
100
AcDbCircle
 10
-23.1
 20
109.544
 30
0
 40
100
100
AcDbArc
 50
-75.6704
 51
-74.1869
  0
LINE
  5
A34
330
A02
100
AcDbEntity
  8
Shape2DView
100
AcDbLine
 10
4.15
 20
67.8203
 30
0
 11
4.15
 21
13.3287
 31
0
  0
SPLINE
  5
A35
330
A02
100
AcDbEntity
  8
Shape2DView
100
AcDbSpline
210
0
220
0
230
1
 70
8
 71
2
 72
6
 73
3
 74
0
 40
0.309055
 40
0.309055
 40
0.309055
 40
0.329093
 40
0.329093
 40
0.329093
 10
1.65
 20
68.3263
 30
0
 10
2.92091
 20
68.1086
 30
0
 10
4.15
 20
67.8203
 30
0
  0
LINE
  5
A36
330
A02
100
AcDbEntity
  8
Shape2DView
100
AcDbLine
 10
1.65
 20
12.6555
 30
0
 11
1.65
 21
68.3263
 31
0
  0
ARC
  5
A37
330
A02
100
AcDbEntity
  8
Shape2DView
100
AcDbCircle
 10
-23.1
 20
109.544
 30
0
 40
100
100
AcDbArc
 50
-89.5703
 51
-88.1376
  0
LINE
  5
A38
330
A02
100
AcDbEntity
  8
Shape2DView
100
AcDbLine
 10
-19.85
 20
64.4165
 30
0
 11
-19.85
 21
9.5971
 31
0
  0
SPLINE
  5
A39
330
A02
100
AcDbEntity
  8
Shape2DView
100
AcDbSpline
210
0
220
0
230
1
 70
8
 71
3
 72
11
 73
7
 74
0
 40
-0.103487
 40
-0.103487
 40
-0.103487
 40
-0.103487
 40
-0.0642438
 40
-0.0642438
 40
-0.0642438
 40
-0.0471241
 40
-0.0471241
 40
-0.0471241
 40
-0.0471241
 10
-19.85
 20
64.4165
 30
0
 10
-20.5704
 20
63.4109
 30
0
 10
-21.2067
 20
62.0813
 30
0
 10
-21.7375
 20
60.1474
 30
0
 10
-21.9695
 20
59.3067
 30
0
 10
-22.1736
 20
58.3454
 30
0
 10
-22.35
 20
57.2636
 30
0
  0
SPLINE
  5
A3A
330
A02
100
AcDbEntity
  8
Shape2DView
100
AcDbSpline
210
0
220
0
230
1
 70
8
 71
3
 72
11
 73
7
 74
0
 40
0.0471241
 40
0.0471241
 40
0.0471241
 40
0.0471241
 40
0.0642438
 40
0.0642438
 40
0.0642438
 40
0.103487
 40
0.103487
 40
0.103487
 40
0.103487
 10
-22.35
 20
57.2636
 30
0
 10
-22.1736
 20
58.3454
 30
0
 10
-21.9695
 20
59.3067
 30
0
 10
-21.7375
 20
60.1474
 30
0
 10
-21.2067
 20
62.0813
 30
0
 10
-20.5704
 20
63.4109
 30
0
 10
-19.85
 20
64.4165
 30
0
  0
LINE
  5
A3B
330
A02
100
AcDbEntity
  8
Shape2DView
100
AcDbLine
 10
-22.35
 20
9.54709
 30
0
 11
-22.35
 21
57.2636
 31
0
  0
ARC
  5
A3C
330
A02
100
AcDbEntity
  8
Shape2DView
100
AcDbCircle
 10
-23.1
 20
109.544
 30
0
 40
100
100
AcDbArc
 50
-79.1931
 51
-77.7311
  0
LINE
  5
A3D
330
A02
100
AcDbEntity
  8
Shape2DView
100
AcDbLine
 10
-1.85
 20
68.7878
 30
0
 11
-1.85
 21
11.8282
 31
0
  0
SPLINE
  5
A3E
330
A02
100
AcDbEntity
  8
Shape2DView
100
AcDbSpline
210
0
220
0
230
1
 70
8
 71
2
 72
6
 73
3
 74
0
 40
0.262572
 40
0.262572
 40
0.262572
 40
0.281813
 40
0.281813
 40
0.281813
 10
-4.35
 20
68.9571
 30
0
 10
-3.09992
 20
68.905
 30
0
 10
-1.85
 20
68.7878
 30
0
  0
LINE
  5
A3F
330
A02
100
AcDbEntity
  8
Shape2DView
100
AcDbLine
 10
-4.35
 20
11.3178
 30
0
 11
-4.35
 21
68.9571
 31
0
  0
SPLINE
  5
A40
330
A02
100
AcDbEntity
  8
Shape2DView
100
AcDbSpline
210
0
220
0
230
1
 70
8
 71
3
 72
8
 73
4
 74
0
 40
0.724899
 40
0.724899
 40
0.724899
 40
0.724899
 40
0.76252
 40
0.76252
 40
0.76252
 40
0.76252
 10
22.15
 20
27.0889
 30
0
 10
21.4783
 20
25.4187
 30
0
 10
20.6499
 20
23.8864
 30
0
 10
19.65
 20
22.4993
 30
0
  0
LINE
  5
A41
330
A02
100
AcDbEntity
  8
Shape2DView
100
AcDbLine
 10
22.15
 20
52.7767
 30
0
 11
22.15
 21
27.0889
 31
0
  0
SPLINE
  5
A42
330
A02
100
AcDbEntity
  8
Shape2DView
100
AcDbSpline
210
0
220
0
230
1
 70
8
 71
2
 72
6
 73
3
 74
0
 40
0.496398
 40
0.496398
 40
0.496398
 40
0.543507
 40
0.543507
 40
0.543507
 10
19.65
 20
57.793
 30
0
 10
21.1079
 20
55.5546
 30
0
 10
22.15
 20
52.7767
 30
0
  0
LINE
  5
A43
330
A02
100
AcDbEntity
  8
Shape2DView
100
AcDbLine
 10
19.65
 20
22.4993
 30
0
 11
19.65
 21
57.793
 31
0
  0
LINE
  5
A44
330
A02
100
AcDbEntity
  8
Shape2DView
100
AcDbLine
 10
-1.85
 20
-11.8282
 30
0
 11
-1.85
 21
-68.7878
 31
0
  0
ARC
  5
A45
330
A02
100
AcDbEntity
  8
Shape2DView
100
AcDbCircle
 10
-23.1
 20
-109.544
 30
0
 40
100
100
AcDbArc
 50
77.7311
 51
79.1931
  0
LINE
  5
A46
330
A02
100
AcDbEntity
  8
Shape2DView
100
AcDbLine
 10
-4.35
 20
-68.9571
 30
0
 11
-4.35
 21
-11.3178
 31
0
  0
SPLINE
  5
A47
330
A02
100
AcDbEntity
  8
Shape2DView
100
AcDbSpline
210
0
220
0
230
1
 70
8
 71
2
 72
6
 73
3
 74
0
 40
0.262572
 40
0.262572
 40
0.262572
 40
0.281813
 40
0.281813
 40
0.281813
 10
-4.35
 20
-68.9571
 30
0
 10
-3.09992
 20
-68.905
 30
0
 10
-1.85
 20
-68.7878
 30
0
  0
SPLINE
  5
A48
330
A02
100
AcDbEntity
  8
Shape2DView
100
AcDbSpline
210
0
220
0
230
1
 70
8
 71
2
 72
6
 73
3
 74
0
 40
-0.281813
 40
-0.281813
 40
-0.281813
 40
-0.262572
 40
-0.262572
 40
-0.262572
 10
-1.85
 20
-68.7878
 30
0
 10
-3.09992
 20
-68.905
 30
0
 10
-4.35
 20
-68.9571
 30
0
  0
LINE
  5
A49
330
A02
100
AcDbEntity
  8
Shape2DView
100
AcDbLine
 10
22.15
 20
-27.0889
 30
0
 11
22.15
 21
-52.7767
 31
0
  0
SPLINE
  5
A4A
330
A02
100
AcDbEntity
  8
Shape2DView
100
AcDbSpline
210
0
220
0
230
1
 70
8
 71
3
 72
8
 73
4
 74
0
 40
-0.76252
 40
-0.76252
 40
-0.76252
 40
-0.76252
 40
-0.724899
 40
-0.724899
 40
-0.724899
 40
-0.724899
 10
19.65
 20
-22.4993
 30
0
 10
20.6499
 20
-23.8864
 30
0
 10
21.4783
 20
-25.4187
 30
0
 10
22.15
 20
-27.0889
 30
0
  0
LINE
  5
A4B
330
A02
100
AcDbEntity
  8
Shape2DView
100
AcDbLine
 10
19.65
 20
-57.793
 30
0
 11
19.65
 21
-22.4993
 31
0
  0
SPLINE
  5
A4C
330
A02
100
AcDbEntity
  8
Shape2DView
100
AcDbSpline
210
0
220
0
230
1
 70
8
 71
2
 72
6
 73
3
 74
0
 40
-0.543507
 40
-0.543507
 40
-0.543507
 40
-0.496398
 40
-0.496398
 40
-0.496398
 10
22.15
 20
-52.7767
 30
0
 10
21.1079
 20
-55.5546
 30
0
 10
19.65
 20
-57.793
 30
0
  0
CIRCLE
  5
A4D
330
A02
100
AcDbEntity
  8
Shape2DView
100
AcDbCircle
 10
-9.1
 20
-71.88
 40
0.825
  0
CIRCLE
  5
A4E
330
A02
100
AcDbEntity
  8
Shape2DView
100
AcDbCircle
 10
-9.1
 20
75.5
 40
0.825
  0
CIRCLE
  5
A4F
330
A02
100
AcDbEntity
  8
Shape2DView
100
AcDbCircle
 10
-9.1
 20
-75.5
 40
0.825
  0
CIRCLE
  5
A50
330
A02
100
AcDbEntity
  8
Shape2DView
100
AcDbCircle
 10
-9.1
 20
71.88
 40
0.825
  0
LINE
  5
A51
330
A02
100
AcDbEntity
  8
Shape2DView
100
AcDbLine
 10
-5.1
 20
77.5
 30
0
 11
-13.1
 21
77.5
 31
0
  0
LINE
  5
A52
330
A02
100
AcDbEntity
  8
Shape2DView
100
AcDbLine
 10
-5.1
 20
72.4831
 30
0
 11
-5.1
 21
77.5
 31
0
  0
SPLINE
  5
A53
330
A02
100
AcDbEntity
  8
Shape2DView
100
AcDbSpline
210
0
220
0
230
1
 70
8
 71
3
 72
11
 73
7
 74
0
 40
0.933944
 40
0.933944
 40
0.933944
 40
0.933944
 40
0.966972
 40
0.966972
 40
0.966972
 40
1
 40
1
 40
1
 40
1
 10
-3.18004
 20
7.46331
 30
0
 10
-4.83903
 20
6.79685
 30
0
 10
-6.30382
 20
5.98662
 30
0
 10
-7.36973
 20
4.82488
 30
0
 10
-8.43344
 20
3.66058
 30
0
 10
-9.09883
 20
2.14545
 30
0
 10
-9.1
 20
-2.22045e-15
 30
0
  0
SPLINE
  5
A54
330
A02
100
AcDbEntity
  8
Shape2DView
100
AcDbSpline
210
0
220
0
230
1
 70
8
 71
3
 72
50
 73
46
 74
0
 40
-1
 40
-1
 40
-1
 40
-1
 40
-0.976754
 40
-0.976754
 40
-0.976754
 40
-0.953508
 40
-0.953508
 40
-0.953508
 40
-0.907017
 40
-0.907017
 40
-0.907017
 40
-0.860525
 40
-0.860525
 40
-0.860525
 40
-0.814034
 40
-0.814034
 40
-0.814034
 40
-0.767542
 40
-0.767542
 40
-0.767542
 40
-0.721051
 40
-0.721051
 40
-0.721051
 40
-0.674559
 40
-0.674559
 40
-0.674559
 40
-0.628068
 40
-0.628068
 40
-0.628068
 40
-0.581576
 40
-0.581576
 40
-0.581576
 40
-0.535085
 40
-0.535085
 40
-0.535085
 40
-0.442102
 40
-0.442102
 40
-0.442102
 40
-0.349119
 40
-0.349119
 40
-0.349119
 40
-0.302627
 40
-0.302627
 40
-0.302627
 40
-0.256136
 40
-0.256136
 40
-0.256136
 40
-0.256136
 10
-9.1
 20
-2.66454e-15
 30
0
 10
-9.09971
 20
1.51063
 30
0
 10
-8.76875
 20
2.7071
 30
0
 10
-8.20317
 20
3.69078
 30
0
 10
-7.63704
 20
4.67381
 30
0
 10
-6.8362
 20
5.44394
 30
0
 10
-5.88116
 20
6.08431
 30
0
 10
-3.96677
 20
7.36002
 30
0
 10
-1.45114
 20
8.13481
 30
0
 10
1.18866
 20
8.87851
 30
0
 10
3.83517
 20
9.61444
 30
0
 10
6.60897
 20
10.3155
 30
0
 10
9.2207
 20
11.2338
 30
0
 10
11.8377
 20
12.146
 30
0
 10
14.2957
 20
13.2718
 30
0
 10
16.4522
 20
14.6949
 30
0
 10
18.6126
 20
16.1138
 30
0
 10
20.4746
 20
17.8264
 30
0
 10
22.002
 20
19.7981
 30
0
 10
23.5318
 20
21.7673
 30
0
 10
24.73
 20
23.9919
 30
0
 10
25.6257
 20
26.3685
 30
0
 10
26.5223
 20
28.7443
 30
0
 10
27.1195
 20
31.2683
 30
0
 10
27.4711
 20
33.8178
 30
0
 10
27.8223
 20
36.3681
 30
0
 10
27.9299
 20
38.9412
 30
0
 10
27.8348
 20
41.4409
 30
0
 10
27.739
 20
43.9418
 30
0
 10
27.4401
 20
46.3697
 30
0
 10
26.9612
 20
48.662
 30
0
 10
26.4819
 20
50.9552
 30
0
 10
25.8222
 20
53.1133
 30
0
 10
24.9942
 20
55.1014
 30
0
 10
23.3384
 20
59.0831
 30
0
 10
21.0062
 20
62.3665
 30
0
 10
18.0641
 20
64.913
 30
0
 10
15.127
 20
67.4649
 30
0
 10
11.564
 20
69.2945
 30
0
 10
7.58029
 20
70.5181
 30
0
 10
5.59118
 20
71.1302
 30
0
 10
3.50144
 20
71.5924
 30
0
 10
1.36617
 20
71.9177
 30
0
 10
-0.768498
 20
72.2425
 30
0
 10
-2.94789
 20
72.432
 30
0
 10
-5.1
 20
72.4831
 30
0
  0
SPLINE
  5
A55
330
A02
100
AcDbEntity
  8
Shape2DView
100
AcDbSpline
210
0
220
0
230
1
 70
8
 71
3
 72
50
 73
46
 74
0
 40
0.256136
 40
0.256136
 40
0.256136
 40
0.256136
 40
0.302627
 40
0.302627
 40
0.302627
 40
0.349119
 40
0.349119
 40
0.349119
 40
0.442102
 40
0.442102
 40
0.442102
 40
0.535085
 40
0.535085
 40
0.535085
 40
0.581576
 40
0.581576
 40
0.581576
 40
0.628068
 40
0.628068
 40
0.628068
 40
0.674559
 40
0.674559
 40
0.674559
 40
0.721051
 40
0.721051
 40
0.721051
 40
0.767542
 40
0.767542
 40
0.767542
 40
0.814034
 40
0.814034
 40
0.814034
 40
0.860525
 40
0.860525
 40
0.860525
 40
0.907017
 40
0.907017
 40
0.907017
 40
0.953508
 40
0.953508
 40
0.953508
 40
0.976754
 40
0.976754
 40
0.976754
 40
1
 40
1
 40
1
 40
1
 10
-5.1
 20
-72.4831
 30
0
 10
-2.94789
 20
-72.432
 30
0
 10
-0.768498
 20
-72.2425
 30
0
 10
1.36617
 20
-71.9177
 30
0
 10
3.50144
 20
-71.5924
 30
0
 10
5.59118
 20
-71.1302
 30
0
 10
7.58029
 20
-70.5181
 30
0
 10
11.564
 20
-69.2945
 30
0
 10
15.127
 20
-67.4649
 30
0
 10
18.0641
 20
-64.913
 30
0
 10
21.0062
 20
-62.3665
 30
0
 10
23.3384
 20
-59.0831
 30
0
 10
24.9942
 20
-55.1014
 30
0
 10
25.8222
 20
-53.1133
 30
0
 10
26.4819
 20
-50.9552
 30
0
 10
26.9612
 20
-48.662
 30
0
 10
27.4401
 20
-46.3697
 30
0
 10
27.739
 20
-43.9418
 30
0
 10
27.8348
 20
-41.4409
 30
0
 10
27.9299
 20
-38.9412
 30
0
 10
27.8223
 20
-36.3681
 30
0
 10
27.4711
 20
-33.8178
 30
0
 10
27.1195
 20
-31.2683
 30
0
 10
26.5223
 20
-28.7443
 30
0
 10
25.6257
 20
-26.3685
 30
0
 10
24.73
 20
-23.9919
 30
0
 10
23.5318
 20
-21.7673
 30
0
 10
22.002
 20
-19.7981
 30
0
 10
20.4746
 20
-17.8264
 30
0
 10
18.6126
 20
-16.1138
 30
0
 10
16.4522
 20
-14.6949
 30
0
 10
14.2957
 20
-13.2718
 30
0
 10
11.8377
 20
-12.146
 30
0
 10
9.2207
 20
-11.2338
 30
0
 10
6.60897
 20
-10.3155
 30
0
 10
3.83517
 20
-9.61444
 30
0
 10
1.18866
 20
-8.87851
 30
0
 10
-1.45114
 20
-8.13481
 30
0
 10
-3.96677
 20
-7.36002
 30
0
 10
-5.88116
 20
-6.08431
 30
0
 10
-6.8362
 20
-5.44394
 30
0
 10
-7.63704
 20
-4.67381
 30
0
 10
-8.20317
 20
-3.69078
 30
0
 10
-8.76875
 20
-2.7071
 30
0
 10
-9.09971
 20
-1.51063
 30
0
 10
-9.1
 20
-2.22045e-15
 30
0
  0
LINE
  5
A56
330
A02
100
AcDbEntity
  8
Shape2DView
100
AcDbLine
 10
-5.1
 20
-77.5
 30
0
 11
-5.1
 21
-72.4831
 31
0
  0
LINE
  5
A57
330
A02
100
AcDbEntity
  8
Shape2DView
100
AcDbLine
 10
-13.1
 20
-77.5
 30
0
 11
-5.1
 21
-77.5
 31
0
  0
LINE
  5
A58
330
A02
100
AcDbEntity
  8
Shape2DView
100
AcDbLine
 10
-13.1
 20
-71.9129
 30
0
 11
-13.1
 21
-77.5
 31
0
  0
SPLINE
  5
A59
330
A02
100
AcDbEntity
  8
Shape2DView
100
AcDbSpline
210
0
220
0
230
1
 70
8
 71
3
 72
17
 73
13
 74
0
 40
0
 40
0
 40
0
 40
0
 40
0.0490799
 40
0.0490799
 40
0.0490799
 40
0.0981598
 40
0.0981598
 40
0.0981598
 40
0.14724
 40
0.14724
 40
0.14724
 40
0.19632
 40
0.19632
 40
0.19632
 40
0.19632
 10
-26.6
 20
-45
 30
0
 10
-26.6011
 20
-50.6414
 30
0
 10
-26.325
 20
-54.8896
 30
0
 10
-25.7403
 20
-58.2312
 30
0
 10
-25.1575
 20
-61.5678
 30
0
 10
-24.2672
 20
-63.996
 30
0
 10
-23.0899
 20
-65.86
 30
0
 10
-21.9139
 20
-67.7196
 30
0
 10
-20.452
 20
-69.0132
 30
0
 10
-18.7627
 20
-69.9655
 30
0
 10
-17.0742
 20
-70.9144
 30
0
 10
-15.1592
 20
-71.5204
 30
0
 10
-13.1
 20
-71.9129
 30
0
  0
LINE
  5
A5A
330
A02
100
AcDbEntity
  8
Shape2DView
100
AcDbLine
 10
-26.6
 20
45
 30
0
 11
-26.6
 21
-45
 31
0
  0
SPLINE
  5
A5B
330
A02
100
AcDbEntity
  8
Shape2DView
100
AcDbSpline
210
0
220
0
230
1
 70
8
 71
3
 72
17
 73
13
 74
0
 40
-0.19632
 40
-0.19632
 40
-0.19632
 40
-0.19632
 40
-0.14724
 40
-0.14724
 40
-0.14724
 40
-0.0981598
 40
-0.0981598
 40
-0.0981598
 40
-0.0490799
 40
-0.0490799
 40
-0.0490799
 40
0
 40
0
 40
0
 40
0
 10
-13.1
 20
71.9129
 30
0
 10
-15.1592
 20
71.5204
 30
0
 10
-17.0742
 20
70.9144
 30
0
 10
-18.7627
 20
69.9655
 30
0
 10
-20.452
 20
69.0132
 30
0
 10
-21.9139
 20
67.7196
 30
0
 10
-23.0899
 20
65.86
 30
0
 10
-24.2672
 20
63.996
 30
0
 10
-25.1575
 20
61.5678
 30
0
 10
-25.7403
 20
58.2312
 30
0
 10
-26.325
 20
54.8896
 30
0
 10
-26.6011
 20
50.6414
 30
0
 10
-26.6
 20
45
 30
0
  0
LINE
  5
A5C
330
A02
100
AcDbEntity
  8
Shape2DView
100
AcDbLine
 10
-13.1
 20
77.5
 30
0
 11
-13.1
 21
71.9129
 31
0
  0
ENDSEC
  0
SECTION
  2
OBJECTS
  0
DICTIONARY
  5
F000
330
0
100
AcDbDictionary
  3
ACAD_GROUP
350
F001
  0
DICTIONARY
  5
F001
330
F000
100
AcDbDictionary
  0
ENDSEC
  0
EOF