999
FreeCAD v0.20 29410 (Git)
  0
SECTION
  2
HEADER
  9
$ACADVER
  1
AC1014
  9
$ACADMAINTVER
 70
     9
  9
$DWGCODEPAGE
  3
ANSI_1252
  9
$TEXTSTYLE
  7
STANDARD
  9
$DIMSTYLE
  2
STANDARD
  9
$DIMTXSTY
  7
STANDARD
  9
$CMLSTYLE
  2
STANDARD
  9
$LUNITS
 70
2
  9
$INSUNITS
 70
4
  9
$PEXTMAX
 10
50
 20
50
 30
50
  9
$PEXTMIN
 10
0
 20
0
 30
0
  9
$HANDSEED
  5
FFFF
  0
ENDSEC
  0
SECTION
  2
CLASSES
  0
CLASS
  1
ACDBDICTIONARYWDFLT
  2
AcDbDictionaryWithDefault
  3
ObjectDBX Classes
 90
        0
280
     0
281
     0
  0
CLASS
  1
XRECORD
  2
AcDbXrecord
  3
ObjectDBX Classes
 90
        0
280
     0
281
     0
  0
CLASS
  1
LWPOLYLINE
  2
AcDbPolyline
  3
ObjectDBX Classes
 90
        0
280
     0
281
     1
  0
ENDSEC
  0
SECTION
  2
TABLES
  0
TABLE
  2
VPORT
  5
20
330
0
100
AcDbSymbolTable
 70
     1
  0
VPORT
  5
21
330
20
100
AcDbSymbolTableRecord
100
AcDbViewportTableRecord
  2
*ACTIVE
 70
     0
  0
ENDTAB
  0
TABLE
  2
LTYPE
  5
22
330
0
100
AcDbSymbolTable
 70
     1
  0
LTYPE
  5
23
330
21
100
AcDbSymbolTableRecord
100
AcDbLinetypeTableRecord
  2
BYBLOCK
 70
     0
  3

 72
    65
 73
     0
 40
0.0
  0
LTYPE
  5
24
330
21
100
AcDbSymbolTableRecord
100
AcDbLinetypeTableRecord
  2
BYLAYER
 70
     0
  3

 72
    65
 73
     0
 40
0.0
  0
LTYPE
  5
25
330
21
100
AcDbSymbolTableRecord
100
AcDbLinetypeTableRecord
  2
CONTINUOUS
 70
     0
  3
Solid line
 72
    65
 73
     0
 40
0.0
  0
ENDTAB
  0
TABLE
  2
LAYER
  5
BE2
330
0
100
AcDbSymbolTable
 70
3
  0
LAYER
  5
BE3
330
BE2
100
AcDbSymbolTableRecord
100
AcDbLayerTableRecord
  2
0
 70
   0
 62
   7
  6
CONTINUOUS
  0
LAYER
  5
BE4
330
BE2
100
AcDbSymbolTableRecord
100
AcDbLayerTableRecord
  2
none
 70
    0
 62
    7
  6
CONTINUOUS
  0
LAYER
  5
BE5
330
BE2
100
AcDbSymbolTableRecord
100
AcDbLayerTableRecord
  2
Solid
 70
    0
 62
    7
  6
CONTINUOUS
  0
ENDTAB
  0
TABLE
  2
STYLE
  5
70
330
0
100
AcDbSymbolTable
 70
     2
  0
STYLE
  5
71
330
70
100
AcDbSymbolTableRecord
100
AcDbTextStyleTableRecord
  2
STANDARD
 70
     0
 40
0.0
 41
1.0
 50
0.0
 71
     0
 42
2.5
  3
arial.ttf
  4

  0
STYLE
  5
72
330
70
100
AcDbSymbolTableRecord
100
AcDbTextStyleTableRecord
  2
ANNOTATIVE
 70
     0
 40
0.0
 41
1.0
 50
0.0
 71
     0
 42
2.5
  3
arial.ttf
  4

  0
ENDTAB
  0
TABLE
  2
VIEW
  5
73
330
0
100
AcDbSymbolTable
 70
     0
  0
ENDTAB
  0
TABLE
  2
UCS
  5
74
330
0
100
AcDbSymbolTable
 70
     0
  0
ENDTAB
  0
TABLE
  2
APPID
  5
75
330
0
100
AcDbSymbolTable
 70
     2
  0
APPID
  5
76
330
75
100
AcDbSymbolTableRecord
100
AcDbRegAppTableRecord
  2
ACAD
 70
     0
  0
APPID
  5
77
330
75
100
AcDbSymbolTableRecord
100
AcDbRegAppTableRecord
  2
ACADANNOTATIVE
 70
     0
  0
ENDTAB
  0
TABLE
  2
DIMSTYLE
  5
78
330
0
100
AcDbSymbolTable
 70
     2
  0
DIMSTYLE
105
79
330
78
100
AcDbSymbolTableRecord
100
AcDbDimStyleTableRecord
  2
STANDARD
 70
     0
  3

  4

  5

  6

  7

 40
0.0
 41
2.5
 42
0.625
 43
3.75
 44
1.25
 45
0.0
 46
0.0
 47
0.0
 48
0.0
140
2.5
141
2.5
142
0.0
143
0.03937007874016
144
1.0
145
0.0
146
1.0
147
0.625
 71
     0
 72
     0
 73
     0
 74
     0
 75
     0
 76
     0
 77
     1
 78
     8
170
     0
171
     3
172
     1
173
     0
174
     0
175
     0
176
     0
177
     0
178
     0
270
     2
271
     2
272
     2
273
     2
274
     3
340
71
275
     0
280
     0
281
     0
282
     0
283
     0
284
     8
285
     0
286
     0
287
     3
288
     0
  0
ENDTAB
  0
TABLE
  2
BLOCK_RECORD
  5
A01
330
0
100
AcDbSymbolTable
  70
5
  0
BLOCK_RECORD
  5
A02
330
A01
100
AcDbSymbolTableRecord
100
AcDbBlockTableRecord
  2
*MODEL_SPACE
  0
BLOCK_RECORD
  5
A03
330
A01
100
AcDbSymbolTableRecord
100
AcDbBlockTableRecord
  2
*PAPER_SPACE
  0
ENDTAB
  0
ENDSEC
  0
SECTION
  2
BLOCKS
  0
BLOCK
  5
A04
330
A02
100
AcDbEntity
  8
0
100
AcDbBlockBegin
  2
*MODEL_SPACE
 70
   0
 10
0
 20
0
 30
0
  3
*MODEL_SPACE
  1
 
  0
ENDBLK
  5
A05
330
A02
100
AcDbEntity
  8
0
100
AcDbBlockEnd
  0
BLOCK
  5
A06
330
A03
100
AcDbEntity
 67
1
  8
0
100
AcDbBlockBegin
  2
*PAPER_SPACE
 70
   0
 10
0
 20
0
 30
0
  3
*PAPER_SPACE
  1
 
  0
ENDBLK
  5
A07
330
A03
100
AcDbEntity
 67
    1
  8
0
100
AcDbBlockEnd
  0
ENDSEC
  0
SECTION
  2
ENTITIES
  0
LINE
  5
A08
330
A02
100
AcDbEntity
  8
Solid
100
AcDbLine
 10
63.81
 20
-2.5
 30
10.35
 11
63.81
 21
-2.5
 31
7.85
  0
LINE
  5
A09
330
A02
100
AcDbEntity
  8
Solid
100
AcDbLine
 10
63.81
 20
-0.9
 30
10.35
 11
63.81
 21
-2.5
 31
10.35
  0
LINE
  5
A0A
330
A02
100
AcDbEntity
  8
Solid
100
AcDbLine
 10
63.81
 20
-0.9
 30
7.85
 11
63.81
 21
-0.9
 31
10.35
  0
LINE
  5
A0B
330
A02
100
AcDbEntity
  8
Solid
100
AcDbLine
 10
63.81
 20
-2.5
 30
7.85
 11
63.81
 21
-0.9
 31
7.85
  0
LINE
  5
A0C
330
A02
100
AcDbEntity
  8
Solid
100
AcDbLine
 10
63.81
 20
-2.5
 30
7.85
 11
63.81
 21
-0.9
 31
7.85
  0
LINE
  5
A0D
330
A02
100
AcDbEntity
  8
Solid
100
AcDbLine
 10
10.7139
 20
-0.9
 30
7.85
 11
63.81
 21
-0.9
 31
7.85
  0
LINE
  5
A0E
330
A02
100
AcDbEntity
  8
Solid
100
AcDbLine
 10
10.7139
 20
-2.5
 30
7.85
 11
10.7139
 21
-0.9
 31
7.85
  0
LINE
  5
A0F
330
A02
100
AcDbEntity
  8
Solid
100
AcDbLine
 10
63.81
 20
-2.5
 30
7.85
 11
10.7139
 21
-2.5
 31
7.85
  0
LINE
  5
A10
330
A02
100
AcDbEntity
  8
Solid
100
AcDbLine
 10
63.81
 20
-0.9
 30
10.35
 11
63.81
 21
-2.5
 31
10.35
  0
LINE
  5
A11
330
A02
100
AcDbEntity
  8
Solid
100
AcDbLine
 10
10.3604
 20
-2.5
 30
10.35
 11
63.81
 21
-2.5
 31
10.35
  0
LINE
  5
A12
330
A02
100
AcDbEntity
  8
Solid
100
AcDbLine
 10
10.3604
 20
-2.5
 30
10.35
 11
10.3604
 21
-0.9
 31
10.35
  0
LINE
  5
A13
330
A02
100
AcDbEntity
  8
Solid
100
AcDbLine
 10
63.81
 20
-0.9
 30
10.35
 11
10.3604
 21
-0.9
 31
10.35
  0
LINE
  5
A14
330
A02
100
AcDbEntity
  8
Solid
100
AcDbLine
 10
-63.81
 20
-2.5
 30
10.35
 11
-63.81
 21
-2.5
 31
7.85
  0
LINE
  5
A15
330
A02
100
AcDbEntity
  8
Solid
100
AcDbLine
 10
-63.81
 20
-0.9
 30
7.85
 11
-63.81
 21
-2.5
 31
7.85
  0
LINE
  5
A16
330
A02
100
AcDbEntity
  8
Solid
100
AcDbLine
 10
-63.81
 20
-0.9
 30
10.35
 11
-63.81
 21
-0.9
 31
7.85
  0
LINE
  5
A17
330
A02
100
AcDbEntity
  8
Solid
100
AcDbLine
 10
-63.81
 20
-2.5
 30
10.35
 11
-63.81
 21
-0.9
 31
10.35
  0
LINE
  5
A18
330
A02
100
AcDbEntity
  8
Solid
100
AcDbLine
 10
-63.81
 20
-0.9
 30
7.85
 11
-63.81
 21
-2.5
 31
7.85
  0
LINE
  5
A19
330
A02
100
AcDbEntity
  8
Solid
100
AcDbLine
 10
-10.7139
 20
-2.5
 30
7.85
 11
-63.81
 21
-2.5
 31
7.85
  0
LINE
  5
A1A
330
A02
100
AcDbEntity
  8
Solid
100
AcDbLine
 10
-10.7139
 20
-2.5
 30
7.85
 11
-10.7139
 21
-0.9
 31
7.85
  0
LINE
  5
A1B
330
A02
100
AcDbEntity
  8
Solid
100
AcDbLine
 10
-63.81
 20
-0.9
 30
7.85
 11
-10.7139
 21
-0.9
 31
7.85
  0
LINE
  5
A1C
330
A02
100
AcDbEntity
  8
Solid
100
AcDbLine
 10
-63.81
 20
-2.5
 30
10.35
 11
-63.81
 21
-0.9
 31
10.35
  0
LINE
  5
A1D
330
A02
100
AcDbEntity
  8
Solid
100
AcDbLine
 10
-10.3604
 20
-0.9
 30
10.35
 11
-63.81
 21
-0.9
 31
10.35
  0
LINE
  5
A1E
330
A02
100
AcDbEntity
  8
Solid
100
AcDbLine
 10
-10.3604
 20
-2.5
 30
10.35
 11
-10.3604
 21
-0.9
 31
10.35
  0
LINE
  5
A1F
330
A02
100
AcDbEntity
  8
Solid
100
AcDbLine
 10
-63.81
 20
-2.5
 30
10.35
 11
-10.3604
 21
-2.5
 31
10.35
  0
LINE
  5
A20
330
A02
100
AcDbEntity
  8
Solid
100
AcDbLine
 10
-15.3355
 20
-2.5
 30
-10.15
 11
-65.8203
 21
-2.5
 31
-10.15
  0
LINE
  5
A21
330
A02
100
AcDbEntity
  8
Solid
100
AcDbLine
 10
-15.3355
 20
-2.5
 30
-10.15
 11
-15.3355
 21
-0.9
 31
-10.15
  0
LINE
  5
A22
330
A02
100
AcDbEntity
  8
Solid
100
AcDbLine
 10
-65.8203
 20
-0.9
 30
-10.15
 11
-15.3355
 21
-0.9
 31
-10.15
  0
LINE
  5
A23
330
A02
100
AcDbEntity
  8
Solid
100
AcDbLine
 10
-65.8203
 20
-2.5
 30
-10.15
 11
-65.8203
 21
-0.9
 31
-10.15
  0
LINE
  5
A24
330
A02
100
AcDbEntity
  8
Solid
100
AcDbLine
 10
-15.3355
 20
-2.5
 30
-10.15
 11
-15.3355
 21
-0.9
 31
-10.15
  0
SPLINE
  5
A25
330
A02
100
AcDbEntity
  8
Solid
100
AcDbSpline
210
0
220
0
230
1
 70
8
 71
2
 72
6
 73
3
 74
0
 40
0.846768
 40
0.846768
 40
0.846768
 40
0.863159
 40
0.863159
 40
0.863159
 10
-15.3355
 20
-0.9
 30
-10.15
 10
-14.8341
 20
-0.9
 30
-8.94876
 10
-14.3945
 20
-0.9
 30
-7.65
  0
LINE
  5
A26
330
A02
100
AcDbEntity
  8
Solid
100
AcDbLine
 10
-14.3945
 20
-2.5
 30
-7.65
 11
-14.3945
 21
-0.9
 31
-7.65
  0
SPLINE
  5
A27
330
A02
100
AcDbEntity
  8
Solid
100
AcDbSpline
210
0
220
0
230
1
 70
8
 71
2
 72
6
 73
3
 74
0
 40
-0.863159
 40
-0.863159
 40
-0.863159
 40
-0.846768
 40
-0.846768
 40
-0.846768
 10
-14.3945
 20
-2.5
 30
-7.65
 10
-14.8341
 20
-2.5
 30
-8.94876
 10
-15.3355
 20
-2.5
 30
-10.15
  0
LINE
  5
A28
330
A02
100
AcDbEntity
  8
Solid
100
AcDbLine
 10
-66.8136
 20
-2.5
 30
-7.65
 11
-14.3945
 21
-2.5
 31
-7.65
  0
LINE
  5
A29
330
A02
100
AcDbEntity
  8
Solid
100
AcDbLine
 10
-66.8136
 20
-2.5
 30
-7.65
 11
-66.8136
 21
-0.9
 31
-7.65
  0
LINE
  5
A2A
330
A02
100
AcDbEntity
  8
Solid
100
AcDbLine
 10
-14.3945
 20
-0.9
 30
-7.65
 11
-66.8136
 21
-0.9
 31
-7.65
  0
LINE
  5
A2B
330
A02
100
AcDbEntity
  8
Solid
100
AcDbLine
 10
-14.3945
 20
-2.5
 30
-7.65
 11
-14.3945
 21
-0.9
 31
-7.65
  0
LINE
  5
A2C
330
A02
100
AcDbEntity
  8
Solid
100
AcDbLine
 10
-66.8136
 20
-2.5
 30
-7.65
 11
-66.8136
 21
-0.9
 31
-7.65
  0
SPLINE
  5
A2D
330
A02
100
AcDbEntity
  8
Solid
100
AcDbSpline
210
0
220
0
230
1
 70
8
 71
2
 72
6
 73
3
 74
0
 40
0.358693
 40
0.358693
 40
0.358693
 40
0.381645
 40
0.381645
 40
0.381645
 10
-66.8136
 20
-0.9
 30
-7.65
 10
-66.3632
 20
-0.9
 30
-8.95084
 10
-65.8203
 20
-0.9
 30
-10.15
  0
LINE
  5
A2E
330
A02
100
AcDbEntity
  8
Solid
100
AcDbLine
 10
-65.8203
 20
-2.5
 30
-10.15
 11
-65.8203
 21
-0.9
 31
-10.15
  0
SPLINE
  5
A2F
330
A02
100
AcDbEntity
  8
Solid
100
AcDbSpline
210
0
220
0
230
1
 70
8
 71
2
 72
6
 73
3
 74
0
 40
-0.381645
 40
-0.381645
 40
-0.381645
 40
-0.358693
 40
-0.358693
 40
-0.358693
 10
-65.8203
 20
-2.5
 30
-10.15
 10
-66.3632
 20
-2.5
 30
-8.95084
 10
-66.8136
 20
-2.5
 30
-7.65
  0
LINE
  5
A30
330
A02
100
AcDbEntity
  8
Solid
100
AcDbLine
 10
-9.97301
 20
-2.5
 30
13.85
 11
-68.1582
 21
-2.5
 31
13.85
  0
LINE
  5
A31
330
A02
100
AcDbEntity
  8
Solid
100
AcDbLine
 10
-9.97301
 20
-2.5
 30
13.85
 11
-9.97301
 21
-0.9
 31
13.85
  0
LINE
  5
A32
330
A02
100
AcDbEntity
  8
Solid
100
AcDbLine
 10
-68.1582
 20
-0.9
 30
13.85
 11
-9.97301
 21
-0.9
 31
13.85
  0
LINE
  5
A33
330
A02
100
AcDbEntity
  8
Solid
100
AcDbLine
 10
-68.1582
 20
-2.5
 30
13.85
 11
-68.1582
 21
-0.9
 31
13.85
  0
LINE
  5
A34
330
A02
100
AcDbEntity
  8
Solid
100
AcDbLine
 10
-9.97301
 20
-2.5
 30
13.85
 11
-9.97301
 21
-0.9
 31
13.85
  0
ARC
  5
A35
330
A02
100
AcDbEntity
  8
Solid
100
AcDbCircle
 10
-109.544
 20
-0.9
 30
23.1
 40
99.5713
100
AcDbArc
 50
-1.04561e-14
 51
-1.01577e-14
  0
LINE
  5
A36
330
A02
100
AcDbEntity
  8
Solid
100
AcDbLine
 10
-9.77235
 20
-2.5
 30
16.35
 11
-9.77235
 21
-0.9
 31
16.35
  0
ARC
  5
A37
330
A02
100
AcDbEntity
  8
Solid
100
AcDbCircle
 10
-109.544
 20
-2.5
 30
23.1
 40
99.7719
100
AcDbArc
 50
-1.04561e-14
 51
-1.02216e-14
  0
LINE
  5
A38
330
A02
100
AcDbEntity
  8
Solid
100
AcDbLine
 10
-67.2754
 20
-2.5
 30
16.35
 11
-9.77235
 21
-2.5
 31
16.35
  0
LINE
  5
A39
330
A02
100
AcDbEntity
  8
Solid
100
AcDbLine
 10
-67.2754
 20
-2.5
 30
16.35
 11
-67.2754
 21
-0.9
 31
16.35
  0
LINE
  5
A3A
330
A02
100
AcDbEntity
  8
Solid
100
AcDbLine
 10
-9.77235
 20
-0.9
 30
16.35
 11
-67.2754
 21
-0.9
 31
16.35
  0
LINE
  5
A3B
330
A02
100
AcDbEntity
  8
Solid
100
AcDbLine
 10
-9.77235
 20
-2.5
 30
16.35
 11
-9.77235
 21
-0.9
 31
16.35
  0
LINE
  5
A3C
330
A02
100
AcDbEntity
  8
Solid
100
AcDbLine
 10
-67.2754
 20
-2.5
 30
16.35
 11
-67.2754
 21
-0.9
 31
16.35
  0
SPLINE
  5
A3D
330
A02
100
AcDbEntity
  8
Solid
100
AcDbSpline
210
0
220
0
230
1
 70
8
 71
3
 72
8
 73
4
 74
0
 40
0.155953
 40
0.155953
 40
0.155953
 40
0.155953
 40
0.183023
 40
0.183023
 40
0.183023
 40
0.183023
 10
-67.2754
 20
-0.9
 30
16.35
 10
-67.6216
 20
-0.9
 30
15.6084
 10
-67.9189
 20
-0.9
 30
14.7685
 10
-68.1582
 20
-0.9
 30
13.85
  0
LINE
  5
A3E
330
A02
100
AcDbEntity
  8
Solid
100
AcDbLine
 10
-68.1582
 20
-2.5
 30
13.85
 11
-68.1582
 21
-0.9
 31
13.85
  0
SPLINE
  5
A3F
330
A02
100
AcDbEntity
  8
Solid
100
AcDbSpline
210
0
220
0
230
1
 70
8
 71
3
 72
8
 73
4
 74
0
 40
-0.183023
 40
-0.183023
 40
-0.183023
 40
-0.183023
 40
-0.155953
 40
-0.155953
 40
-0.155953
 40
-0.155953
 10
-68.1582
 20
-2.5
 30
13.85
 10
-67.9189
 20
-2.5
 30
14.7685
 10
-67.6216
 20
-2.5
 30
15.6084
 10
-67.2754
 20
-2.5
 30
16.35
  0
LINE
  5
A40
330
A02
100
AcDbEntity
  8
Solid
100
AcDbLine
 10
14.3945
 20
-2.5
 30
-7.65
 11
14.3945
 21
-0.9
 31
-7.65
  0
SPLINE
  5
A41
330
A02
100
AcDbEntity
  8
Solid
100
AcDbSpline
210
0
220
0
230
1
 70
8
 71
2
 72
6
 73
3
 74
0
 40
-0.863159
 40
-0.863159
 40
-0.863159
 40
-0.846768
 40
-0.846768
 40
-0.846768
 10
14.3945
 20
-0.9
 30
-7.65
 10
14.8341
 20
-0.9
 30
-8.94876
 10
15.3355
 20
-0.9
 30
-10.15
  0
LINE
  5
A42
330
A02
100
AcDbEntity
  8
Solid
100
AcDbLine
 10
15.3355
 20
-2.5
 30
-10.15
 11
15.3355
 21
-0.9
 31
-10.15
  0
SPLINE
  5
A43
330
A02
100
AcDbEntity
  8
Solid
100
AcDbSpline
210
0
220
0
230
1
 70
8
 71
2
 72
6
 73
3
 74
0
 40
0.846768
 40
0.846768
 40
0.846768
 40
0.863159
 40
0.863159
 40
0.863159
 10
15.3355
 20
-2.5
 30
-10.15
 10
14.8341
 20
-2.5
 30
-8.94876
 10
14.3945
 20
-2.5
 30
-7.65
  0
LINE
  5
A44
330
A02
100
AcDbEntity
  8
Solid
100
AcDbLine
 10
65.8203
 20
-2.5
 30
-10.15
 11
15.3355
 21
-2.5
 31
-10.15
  0
LINE
  5
A45
330
A02
100
AcDbEntity
  8
Solid
100
AcDbLine
 10
65.8203
 20
-2.5
 30
-10.15
 11
65.8203
 21
-0.9
 31
-10.15
  0
LINE
  5
A46
330
A02
100
AcDbEntity
  8
Solid
100
AcDbLine
 10
15.3355
 20
-0.9
 30
-10.15
 11
65.8203
 21
-0.9
 31
-10.15
  0
LINE
  5
A47
330
A02
100
AcDbEntity
  8
Solid
100
AcDbLine
 10
15.3355
 20
-2.5
 30
-10.15
 11
15.3355
 21
-0.9
 31
-10.15
  0
LINE
  5
A48
330
A02
100
AcDbEntity
  8
Solid
100
AcDbLine
 10
65.8203
 20
-2.5
 30
-10.15
 11
65.8203
 21
-0.9
 31
-10.15
  0
SPLINE
  5
A49
330
A02
100
AcDbEntity
  8
Solid
100
AcDbSpline
210
0
220
0
230
1
 70
8
 71
2
 72
6
 73
3
 74
0
 40
-0.381645
 40
-0.381645
 40
-0.381645
 40
-0.358693
 40
-0.358693
 40
-0.358693
 10
65.8203
 20
-0.9
 30
-10.15
 10
66.3632
 20
-0.9
 30
-8.95084
 10
66.8136
 20
-0.9
 30
-7.65
  0
LINE
  5
A4A
330
A02
100
AcDbEntity
  8
Solid
100
AcDbLine
 10
66.8136
 20
-2.5
 30
-7.65
 11
66.8136
 21
-0.9
 31
-7.65
  0
SPLINE
  5
A4B
330
A02
100
AcDbEntity
  8
Solid
100
AcDbSpline
210
0
220
0
230
1
 70
8
 71
2
 72
6
 73
3
 74
0
 40
0.358693
 40
0.358693
 40
0.358693
 40
0.381645
 40
0.381645
 40
0.381645
 10
66.8136
 20
-2.5
 30
-7.65
 10
66.3632
 20
-2.5
 30
-8.95084
 10
65.8203
 20
-2.5
 30
-10.15
  0
LINE
  5
A4C
330
A02
100
AcDbEntity
  8
Solid
100
AcDbLine
 10
14.3945
 20
-2.5
 30
-7.65
 11
66.8136
 21
-2.5
 31
-7.65
  0
LINE
  5
A4D
330
A02
100
AcDbEntity
  8
Solid
100
AcDbLine
 10
14.3945
 20
-2.5
 30
-7.65
 11
14.3945
 21
-0.9
 31
-7.65
  0
LINE
  5
A4E
330
A02
100
AcDbEntity
  8
Solid
100
AcDbLine
 10
66.8136
 20
-0.9
 30
-7.65
 11
14.3945
 21
-0.9
 31
-7.65
  0
LINE
  5
A4F
330
A02
100
AcDbEntity
  8
Solid
100
AcDbLine
 10
66.8136
 20
-2.5
 30
-7.65
 11
66.8136
 21
-0.9
 31
-7.65
  0
LINE
  5
A50
330
A02
100
AcDbEntity
  8
Solid
100
AcDbLine
 10
9.77235
 20
-2.5
 30
16.35
 11
9.77235
 21
-0.9
 31
16.35
  0
ARC
  5
A51
330
A02
100
AcDbEntity
  8
Solid
100
AcDbCircle
 10
109.544
 20
-0.9
 30
23.1
 40
99.7719
100
AcDbArc
 50
180
 51
180
  0
LINE
  5
A52
330
A02
100
AcDbEntity
  8
Solid
100
AcDbLine
 10
9.97301
 20
-2.5
 30
13.85
 11
9.97301
 21
-0.9
 31
13.85
  0
ARC
  5
A53
330
A02
100
AcDbEntity
  8
Solid
100
AcDbCircle
 10
109.544
 20
-2.5
 30
23.1
 40
99.5713
100
AcDbArc
 50
180
 51
180
  0
LINE
  5
A54
330
A02
100
AcDbEntity
  8
Solid
100
AcDbLine
 10
68.1582
 20
-2.5
 30
13.85
 11
9.97301
 21
-2.5
 31
13.85
  0
LINE
  5
A55
330
A02
100
AcDbEntity
  8
Solid
100
AcDbLine
 10
68.1582
 20
-2.5
 30
13.85
 11
68.1582
 21
-0.9
 31
13.85
  0
LINE
  5
A56
330
A02
100
AcDbEntity
  8
Solid
100
AcDbLine
 10
9.97301
 20
-0.9
 30
13.85
 11
68.1582
 21
-0.9
 31
13.85
  0
LINE
  5
A57
330
A02
100
AcDbEntity
  8
Solid
100
AcDbLine
 10
9.97301
 20
-2.5
 30
13.85
 11
9.97301
 21
-0.9
 31
13.85
  0
LINE
  5
A58
330
A02
100
AcDbEntity
  8
Solid
100
AcDbLine
 10
68.1582
 20
-2.5
 30
13.85
 11
68.1582
 21
-0.9
 31
13.85
  0
SPLINE
  5
A59
330
A02
100
AcDbEntity
  8
Solid
100
AcDbSpline
210
0
220
0
230
1
 70
8
 71
3
 72
8
 73
4
 74
0
 40
-0.183023
 40
-0.183023
 40
-0.183023
 40
-0.183023
 40
-0.155953
 40
-0.155953
 40
-0.155953
 40
-0.155953
 10
68.1582
 20
-0.9
 30
13.85
 10
67.9189
 20
-0.9
 30
14.7685
 10
67.6216
 20
-0.9
 30
15.6084
 10
67.2754
 20
-0.9
 30
16.35
  0
LINE
  5
A5A
330
A02
100
AcDbEntity
  8
Solid
100
AcDbLine
 10
67.2754
 20
-2.5
 30
16.35
 11
67.2754
 21
-0.9
 31
16.35
  0
SPLINE
  5
A5B
330
A02
100
AcDbEntity
  8
Solid
100
AcDbSpline
210
0
220
0
230
1
 70
8
 71
3
 72
8
 73
4
 74
0
 40
0.155953
 40
0.155953
 40
0.155953
 40
0.155953
 40
0.183023
 40
0.183023
 40
0.183023
 40
0.183023
 10
67.2754
 20
-2.5
 30
16.35
 10
67.6216
 20
-2.5
 30
15.6084
 10
67.9189
 20
-2.5
 30
14.7685
 10
68.1582
 20
-2.5
 30
13.85
  0
LINE
  5
A5C
330
A02
100
AcDbEntity
  8
Solid
100
AcDbLine
 10
9.77235
 20
-2.5
 30
16.35
 11
67.2754
 21
-2.5
 31
16.35
  0
LINE
  5
A5D
330
A02
100
AcDbEntity
  8
Solid
100
AcDbLine
 10
9.77235
 20
-2.5
 30
16.35
 11
9.77235
 21
-0.9
 31
16.35
  0
LINE
  5
A5E
330
A02
100
AcDbEntity
  8
Solid
100
AcDbLine
 10
67.2754
 20
-0.9
 30
16.35
 11
9.77235
 21
-0.9
 31
16.35
  0
LINE
  5
A5F
330
A02
100
AcDbEntity
  8
Solid
100
AcDbLine
 10
67.2754
 20
-2.5
 30
16.35
 11
67.2754
 21
-0.9
 31
16.35
  0
LINE
  5
A60
330
A02
100
AcDbEntity
  8
Solid
100
AcDbLine
 10
10.3604
 20
-2.5
 30
10.35
 11
10.3604
 21
-0.9
 31
10.35
  0
ARC
  5
A61
330
A02
100
AcDbEntity
  8
Solid
100
AcDbCircle
 10
109.544
 20
-0.9
 30
23.1
 40
99.1839
100
AcDbArc
 50
180
 51
180
  0
LINE
  5
A62
330
A02
100
AcDbEntity
  8
Solid
100
AcDbLine
 10
10.7139
 20
-2.5
 30
7.85
 11
10.7139
 21
-0.9
 31
7.85
  0
ARC
  5
A63
330
A02
100
AcDbEntity
  8
Solid
100
AcDbCircle
 10
109.544
 20
-2.5
 30
23.1
 40
98.8303
100
AcDbArc
 50
180
 51
180
  0
LINE
  5
A64
330
A02
100
AcDbEntity
  8
Solid
100
AcDbLine
 10
17.0739
 20
-2.5
 30
-13.65
 11
17.0739
 21
-0.9
 31
-13.65
  0
SPLINE
  5
A65
330
A02
100
AcDbEntity
  8
Solid
100
AcDbSpline
210
0
220
0
230
1
 70
8
 71
2
 72
6
 73
3
 74
0
 40
-0.82114
 40
-0.82114
 40
-0.82114
 40
-0.799825
 40
-0.799825
 40
-0.799825
 10
17.0739
 20
-0.9
 30
-13.65
 10
17.8691
 20
-0.9
 30
-14.9966
 10
18.8008
 20
-0.9
 30
-16.15
  0
LINE
  5
A66
330
A02
100
AcDbEntity
  8
Solid
100
AcDbLine
 10
18.8008
 20
-2.5
 30
-16.15
 11
18.8008
 21
-0.9
 31
-16.15
  0
SPLINE
  5
A67
330
A02
100
AcDbEntity
  8
Solid
100
AcDbSpline
210
0
220
0
230
1
 70
8
 71
2
 72
6
 73
3
 74
0
 40
0.799825
 40
0.799825
 40
0.799825
 40
0.82114
 40
0.82114
 40
0.82114
 10
18.8008
 20
-2.5
 30
-16.15
 10
17.8691
 20
-2.5
 30
-14.9966
 10
17.0739
 20
-2.5
 30
-13.65
  0
LINE
  5
A68
330
A02
100
AcDbEntity
  8
Solid
100
AcDbLine
 10
61.9318
 20
-2.5
 30
-16.15
 11
18.8008
 21
-2.5
 31
-16.15
  0
LINE
  5
A69
330
A02
100
AcDbEntity
  8
Solid
100
AcDbLine
 10
61.9318
 20
-2.5
 30
-16.15
 11
61.9318
 21
-0.9
 31
-16.15
  0
LINE
  5
A6A
330
A02
100
AcDbEntity
  8
Solid
100
AcDbLine
 10
18.8008
 20
-0.9
 30
-16.15
 11
61.9318
 21
-0.9
 31
-16.15
  0
LINE
  5
A6B
330
A02
100
AcDbEntity
  8
Solid
100
AcDbLine
 10
18.8008
 20
-2.5
 30
-16.15
 11
18.8008
 21
-0.9
 31
-16.15
  0
LINE
  5
A6C
330
A02
100
AcDbEntity
  8
Solid
100
AcDbLine
 10
61.9318
 20
-2.5
 30
-16.15
 11
61.9318
 21
-0.9
 31
-16.15
  0
SPLINE
  5
A6D
330
A02
100
AcDbEntity
  8
Solid
100
AcDbSpline
210
0
220
0
230
1
 70
8
 71
2
 72
6
 73
3
 74
0
 40
-0.446839
 40
-0.446839
 40
-0.446839
 40
-0.417498
 40
-0.417498
 40
-0.417498
 10
61.9318
 20
-0.9
 30
-16.15
 10
62.9952
 20
-0.9
 30
-14.9816
 10
63.8858
 20
-0.9
 30
-13.65
  0
LINE
  5
A6E
330
A02
100
AcDbEntity
  8
Solid
100
AcDbLine
 10
63.8858
 20
-2.5
 30
-13.65
 11
63.8858
 21
-0.9
 31
-13.65
  0
SPLINE
  5
A6F
330
A02
100
AcDbEntity
  8
Solid
100
AcDbSpline
210
0
220
0
230
1
 70
8
 71
2
 72
6
 73
3
 74
0
 40
0.417498
 40
0.417498
 40
0.417498
 40
0.446839
 40
0.446839
 40
0.446839
 10
63.8858
 20
-2.5
 30
-13.65
 10
62.9952
 20
-2.5
 30
-14.9816
 10
61.9318
 20
-2.5
 30
-16.15
  0
LINE
  5
A70
330
A02
100
AcDbEntity
  8
Solid
100
AcDbLine
 10
17.0739
 20
-2.5
 30
-13.65
 11
63.8858
 21
-2.5
 31
-13.65
  0
LINE
  5
A71
330
A02
100
AcDbEntity
  8
Solid
100
AcDbLine
 10
17.0739
 20
-2.5
 30
-13.65
 11
17.0739
 21
-0.9
 31
-13.65
  0
LINE
  5
A72
330
A02
100
AcDbEntity
  8
Solid
100
AcDbLine
 10
63.8858
 20
-0.9
 30
-13.65
 11
17.0739
 21
-0.9
 31
-13.65
  0
LINE
  5
A73
330
A02
100
AcDbEntity
  8
Solid
100
AcDbLine
 10
63.8858
 20
-2.5
 30
-13.65
 11
63.8858
 21
-0.9
 31
-13.65
  0
LINE
  5
A74
330
A02
100
AcDbEntity
  8
Solid
100
AcDbLine
 10
-10.7139
 20
-2.5
 30
7.85
 11
-10.7139
 21
-0.9
 31
7.85
  0
ARC
  5
A75
330
A02
100
AcDbEntity
  8
Solid
100
AcDbCircle
 10
-109.544
 20
-0.9
 30
23.1
 40
98.8303
100
AcDbArc
 50
-9.68431e-15
 51
-9.33277e-15
  0
LINE
  5
A76
330
A02
100
AcDbEntity
  8
Solid
100
AcDbLine
 10
-10.3604
 20
-2.5
 30
10.35
 11
-10.3604
 21
-0.9
 31
10.35
  0
ARC
  5
A77
330
A02
100
AcDbEntity
  8
Solid
100
AcDbCircle
 10
-109.544
 20
-2.5
 30
23.1
 40
99.1839
100
AcDbArc
 50
-9.74845e-15
 51
-9.26841e-15
  0
LINE
  5
A78
330
A02
100
AcDbEntity
  8
Solid
100
AcDbLine
 10
-18.8008
 20
-2.5
 30
-16.15
 11
-61.9318
 21
-2.5
 31
-16.15
  0
LINE
  5
A79
330
A02
100
AcDbEntity
  8
Solid
100
AcDbLine
 10
-18.8008
 20
-2.5
 30
-16.15
 11
-18.8008
 21
-0.9
 31
-16.15
  0
LINE
  5
A7A
330
A02
100
AcDbEntity
  8
Solid
100
AcDbLine
 10
-61.9318
 20
-0.9
 30
-16.15
 11
-18.8008
 21
-0.9
 31
-16.15
  0
LINE
  5
A7B
330
A02
100
AcDbEntity
  8
Solid
100
AcDbLine
 10
-61.9318
 20
-2.5
 30
-16.15
 11
-61.9318
 21
-0.9
 31
-16.15
  0
LINE
  5
A7C
330
A02
100
AcDbEntity
  8
Solid
100
AcDbLine
 10
-18.8008
 20
-2.5
 30
-16.15
 11
-18.8008
 21
-0.9
 31
-16.15
  0
SPLINE
  5
A7D
330
A02
100
AcDbEntity
  8
Solid
100
AcDbSpline
210
0
220
0
230
1
 70
8
 71
2
 72
6
 73
3
 74
0
 40
0.799825
 40
0.799825
 40
0.799825
 40
0.82114
 40
0.82114
 40
0.82114
 10
-18.8008
 20
-0.9
 30
-16.15
 10
-17.8691
 20
-0.9
 30
-14.9966
 10
-17.0739
 20
-0.9
 30
-13.65
  0
LINE
  5
A7E
330
A02
100
AcDbEntity
  8
Solid
100
AcDbLine
 10
-17.0739
 20
-2.5
 30
-13.65
 11
-17.0739
 21
-0.9
 31
-13.65
  0
SPLINE
  5
A7F
330
A02
100
AcDbEntity
  8
Solid
100
AcDbSpline
210
0
220
0
230
1
 70
8
 71
2
 72
6
 73
3
 74
0
 40
-0.82114
 40
-0.82114
 40
-0.82114
 40
-0.799825
 40
-0.799825
 40
-0.799825
 10
-17.0739
 20
-2.5
 30
-13.65
 10
-17.8691
 20
-2.5
 30
-14.9966
 10
-18.8008
 20
-2.5
 30
-16.15
  0
LINE
  5
A80
330
A02
100
AcDbEntity
  8
Solid
100
AcDbLine
 10
-63.8858
 20
-2.5
 30
-13.65
 11
-17.0739
 21
-2.5
 31
-13.65
  0
LINE
  5
A81
330
A02
100
AcDbEntity
  8
Solid
100
AcDbLine
 10
-63.8858
 20
-2.5
 30
-13.65
 11
-63.8858
 21
-0.9
 31
-13.65
  0
LINE
  5
A82
330
A02
100
AcDbEntity
  8
Solid
100
AcDbLine
 10
-17.0739
 20
-0.9
 30
-13.65
 11
-63.8858
 21
-0.9
 31
-13.65
  0
LINE
  5
A83
330
A02
100
AcDbEntity
  8
Solid
100
AcDbLine
 10
-17.0739
 20
-2.5
 30
-13.65
 11
-17.0739
 21
-0.9
 31
-13.65
  0
LINE
  5
A84
330
A02
100
AcDbEntity
  8
Solid
100
AcDbLine
 10
-63.8858
 20
-2.5
 30
-13.65
 11
-63.8858
 21
-0.9
 31
-13.65
  0
SPLINE
  5
A85
330
A02
100
AcDbEntity
  8
Solid
100
AcDbSpline
210
0
220
0
230
1
 70
8
 71
2
 72
6
 73
3
 74
0
 40
0.417498
 40
0.417498
 40
0.417498
 40
0.446839
 40
0.446839
 40
0.446839
 10
-63.8858
 20
-0.9
 30
-13.65
 10
-62.9952
 20
-0.9
 30
-14.9816
 10
-61.9318
 20
-0.9
 30
-16.15
  0
LINE
  5
A86
330
A02
100
AcDbEntity
  8
Solid
100
AcDbLine
 10
-61.9318
 20
-2.5
 30
-16.15
 11
-61.9318
 21
-0.9
 31
-16.15
  0
SPLINE
  5
A87
330
A02
100
AcDbEntity
  8
Solid
100
AcDbSpline
210
0
220
0
230
1
 70
8
 71
2
 72
6
 73
3
 74
0
 40
-0.446839
 40
-0.446839
 40
-0.446839
 40
-0.417498
 40
-0.417498
 40
-0.417498
 10
-61.9318
 20
-2.5
 30
-16.15
 10
-62.9952
 20
-2.5
 30
-14.9816
 10
-63.8858
 20
-2.5
 30
-13.65
  0
LINE
  5
A88
330
A02
100
AcDbEntity
  8
Solid
100
AcDbLine
 10
-13.3287
 20
-2.5
 30
-4.15
 11
-67.8203
 21
-2.5
 31
-4.15
  0
LINE
  5
A89
330
A02
100
AcDbEntity
  8
Solid
100
AcDbLine
 10
-13.3287
 20
-2.5
 30
-4.15
 11
-13.3287
 21
-0.9
 31
-4.15
  0
LINE
  5
A8A
330
A02
100
AcDbEntity
  8
Solid
100
AcDbLine
 10
-67.8203
 20
-0.9
 30
-4.15
 11
-13.3287
 21
-0.9
 31
-4.15
  0
LINE
  5
A8B
330
A02
100
AcDbEntity
  8
Solid
100
AcDbLine
 10
-67.8203
 20
-2.5
 30
-4.15
 11
-67.8203
 21
-0.9
 31
-4.15
  0
LINE
  5
A8C
330
A02
100
AcDbEntity
  8
Solid
100
AcDbLine
 10
-13.3287
 20
-2.5
 30
-4.15
 11
-13.3287
 21
-0.9
 31
-4.15
  0
ARC
  5
A8D
330
A02
100
AcDbEntity
  8
Solid
100
AcDbCircle
 10
-109.544
 20
-0.9
 30
23.1
 40
96.2156
100
AcDbArc
 50
-8.07541e-15
 51
-7.73523e-15
  0
LINE
  5
A8E
330
A02
100
AcDbEntity
  8
Solid
100
AcDbLine
 10
-12.6555
 20
-2.5
 30
-1.65
 11
-12.6555
 21
-0.9
 31
-1.65
  0
ARC
  5
A8F
330
A02
100
AcDbEntity
  8
Solid
100
AcDbCircle
 10
-109.544
 20
-2.5
 30
23.1
 40
96.8888
100
AcDbArc
 50
-8.14106e-15
 51
-7.66912e-15
  0
LINE
  5
A90
330
A02
100
AcDbEntity
  8
Solid
100
AcDbLine
 10
-68.3263
 20
-2.5
 30
-1.65
 11
-12.6555
 21
-2.5
 31
-1.65
  0
LINE
  5
A91
330
A02
100
AcDbEntity
  8
Solid
100
AcDbLine
 10
-68.3263
 20
-2.5
 30
-1.65
 11
-68.3263
 21
-0.9
 31
-1.65
  0
LINE
  5
A92
330
A02
100
AcDbEntity
  8
Solid
100
AcDbLine
 10
-12.6555
 20
-0.9
 30
-1.65
 11
-68.3263
 21
-0.9
 31
-1.65
  0
LINE
  5
A93
330
A02
100
AcDbEntity
  8
Solid
100
AcDbLine
 10
-12.6555
 20
-2.5
 30
-1.65
 11
-12.6555
 21
-0.9
 31
-1.65
  0
LINE
  5
A94
330
A02
100
AcDbEntity
  8
Solid
100
AcDbLine
 10
-68.3263
 20
-2.5
 30
-1.65
 11
-68.3263
 21
-0.9
 31
-1.65
  0
SPLINE
  5
A95
330
A02
100
AcDbEntity
  8
Solid
100
AcDbSpline
210
0
220
0
230
1
 70
8
 71
2
 72
6
 73
3
 74
0
 40
0.309055
 40
0.309055
 40
0.309055
 40
0.329093
 40
0.329093
 40
0.329093
 10
-68.3263
 20
-0.9
 30
-1.65
 10
-68.1086
 20
-0.9
 30
-2.92091
 10
-67.8203
 20
-0.9
 30
-4.15
  0
LINE
  5
A96
330
A02
100
AcDbEntity
  8
Solid
100
AcDbLine
 10
-67.8203
 20
-2.5
 30
-4.15
 11
-67.8203
 21
-0.9
 31
-4.15
  0
SPLINE
  5
A97
330
A02
100
AcDbEntity
  8
Solid
100
AcDbSpline
210
0
220
0
230
1
 70
8
 71
2
 72
6
 73
3
 74
0
 40
-0.329093
 40
-0.329093
 40
-0.329093
 40
-0.309055
 40
-0.309055
 40
-0.309055
 10
-67.8203
 20
-2.5
 30
-4.15
 10
-68.1086
 20
-2.5
 30
-2.92091
 10
-68.3263
 20
-2.5
 30
-1.65
  0
LINE
  5
A98
330
A02
100
AcDbEntity
  8
Solid
100
AcDbLine
 10
-9.5971
 20
-2.5
 30
19.85
 11
-64.4165
 21
-2.5
 31
19.85
  0
LINE
  5
A99
330
A02
100
AcDbEntity
  8
Solid
100
AcDbLine
 10
-9.5971
 20
-2.5
 30
19.85
 11
-9.5971
 21
-0.9
 31
19.85
  0
LINE
  5
A9A
330
A02
100
AcDbEntity
  8
Solid
100
AcDbLine
 10
-64.4165
 20
-0.9
 30
19.85
 11
-9.5971
 21
-0.9
 31
19.85
  0
LINE
  5
A9B
330
A02
100
AcDbEntity
  8
Solid
100
AcDbLine
 10
-64.4165
 20
-2.5
 30
19.85
 11
-64.4165
 21
-0.9
 31
19.85
  0
LINE
  5
A9C
330
A02
100
AcDbEntity
  8
Solid
100
AcDbLine
 10
-9.5971
 20
-2.5
 30
19.85
 11
-9.5971
 21
-0.9
 31
19.85
  0
ARC
  5
A9D
330
A02
100
AcDbEntity
  8
Solid
100
AcDbCircle
 10
-109.544
 20
-0.9
 30
23.1
 40
99.9472
100
AcDbArc
 50
-1.11959e-14
 51
-1.08832e-14
  0
LINE
  5
A9E
330
A02
100
AcDbEntity
  8
Solid
100
AcDbLine
 10
-9.54709
 20
-2.5
 30
22.35
 11
-9.54709
 21
-0.9
 31
22.35
  0
ARC
  5
A9F
330
A02
100
AcDbEntity
  8
Solid
100
AcDbCircle
 10
-109.544
 20
-2.5
 30
23.1
 40
99.9972
100
AcDbArc
 50
-1.11959e-14
 51
-1.09469e-14
  0
LINE
  5
AA0
330
A02
100
AcDbEntity
  8
Solid
100
AcDbLine
 10
-57.2636
 20
-2.5
 30
22.35
 11
-9.54709
 21
-2.5
 31
22.35
  0
LINE
  5
AA1
330
A02
100
AcDbEntity
  8
Solid
100
AcDbLine
 10
-57.2636
 20
-2.5
 30
22.35
 11
-57.2636
 21
-0.9
 31
22.35
  0
LINE
  5
AA2
330
A02
100
AcDbEntity
  8
Solid
100
AcDbLine
 10
-9.54709
 20
-0.9
 30
22.35
 11
-57.2636
 21
-0.9
 31
22.35
  0
LINE
  5
AA3
330
A02
100
AcDbEntity
  8
Solid
100
AcDbLine
 10
-9.54709
 20
-2.5
 30
22.35
 11
-9.54709
 21
-0.9
 31
22.35
  0
LINE
  5
AA4
330
A02
100
AcDbEntity
  8
Solid
100
AcDbLine
 10
-57.2636
 20
-2.5
 30
22.35
 11
-57.2636
 21
-0.9
 31
22.35
  0
SPLINE
  5
AA5
330
A02
100
AcDbEntity
  8
Solid
100
AcDbSpline
210
0
220
0
230
1
 70
8
 71
3
 72
11
 73
7
 74
0
 40
0.0471241
 40
0.0471241
 40
0.0471241
 40
0.0471241
 40
0.0642438
 40
0.0642438
 40
0.0642438
 40
0.103487
 40
0.103487
 40
0.103487
 40
0.103487
 10
-57.2636
 20
-0.9
 30
22.35
 10
-58.3454
 20
-0.9
 30
22.1736
 10
-59.3067
 20
-0.9
 30
21.9695
 10
-60.1474
 20
-0.9
 30
21.7375
 10
-62.0813
 20
-0.9
 30
21.2067
 10
-63.4109
 20
-0.9
 30
20.5704
 10
-64.4165
 20
-0.9
 30
19.85
  0
LINE
  5
AA6
330
A02
100
AcDbEntity
  8
Solid
100
AcDbLine
 10
-64.4165
 20
-2.5
 30
19.85
 11
-64.4165
 21
-0.9
 31
19.85
  0
SPLINE
  5
AA7
330
A02
100
AcDbEntity
  8
Solid
100
AcDbSpline
210
0
220
0
230
1
 70
8
 71
3
 72
11
 73
7
 74
0
 40
-0.103487
 40
-0.103487
 40
-0.103487
 40
-0.103487
 40
-0.0642438
 40
-0.0642438
 40
-0.0642438
 40
-0.0471241
 40
-0.0471241
 40
-0.0471241
 40
-0.0471241
 10
-64.4165
 20
-2.5
 30
19.85
 10
-63.4109
 20
-2.5
 30
20.5704
 10
-62.0813
 20
-2.5
 30
21.2067
 10
-60.1474
 20
-2.5
 30
21.7375
 10
-59.3067
 20
-2.5
 30
21.9695
 10
-58.3454
 20
-2.5
 30
22.1736
 10
-57.2636
 20
-2.5
 30
22.35
  0
LINE
  5
AA8
330
A02
100
AcDbEntity
  8
Solid
100
AcDbLine
 10
12.6555
 20
-2.5
 30
-1.65
 11
12.6555
 21
-0.9
 31
-1.65
  0
ARC
  5
AA9
330
A02
100
AcDbEntity
  8
Solid
100
AcDbCircle
 10
109.544
 20
-0.9
 30
23.1
 40
96.8888
100
AcDbArc
 50
180
 51
180
  0
LINE
  5
AAA
330
A02
100
AcDbEntity
  8
Solid
100
AcDbLine
 10
13.3287
 20
-2.5
 30
-4.15
 11
13.3287
 21
-0.9
 31
-4.15
  0
ARC
  5
AAB
330
A02
100
AcDbEntity
  8
Solid
100
AcDbCircle
 10
109.544
 20
-2.5
 30
23.1
 40
96.2156
100
AcDbArc
 50
180
 51
180
  0
LINE
  5
AAC
330
A02
100
AcDbEntity
  8
Solid
100
AcDbLine
 10
67.8203
 20
-2.5
 30
-4.15
 11
13.3287
 21
-2.5
 31
-4.15
  0
LINE
  5
AAD
330
A02
100
AcDbEntity
  8
Solid
100
AcDbLine
 10
67.8203
 20
-2.5
 30
-4.15
 11
67.8203
 21
-0.9
 31
-4.15
  0
LINE
  5
AAE
330
A02
100
AcDbEntity
  8
Solid
100
AcDbLine
 10
13.3287
 20
-0.9
 30
-4.15
 11
67.8203
 21
-0.9
 31
-4.15
  0
LINE
  5
AAF
330
A02
100
AcDbEntity
  8
Solid
100
AcDbLine
 10
13.3287
 20
-2.5
 30
-4.15
 11
13.3287
 21
-0.9
 31
-4.15
  0
LINE
  5
AB0
330
A02
100
AcDbEntity
  8
Solid
100
AcDbLine
 10
67.8203
 20
-2.5
 30
-4.15
 11
67.8203
 21
-0.9
 31
-4.15
  0
SPLINE
  5
AB1
330
A02
100
AcDbEntity
  8
Solid
100
AcDbSpline
210
0
220
0
230
1
 70
8
 71
2
 72
6
 73
3
 74
0
 40
-0.329093
 40
-0.329093
 40
-0.329093
 40
-0.309055
 40
-0.309055
 40
-0.309055
 10
67.8203
 20
-0.9
 30
-4.15
 10
68.1086
 20
-0.9
 30
-2.92091
 10
68.3263
 20
-0.9
 30
-1.65
  0
LINE
  5
AB2
330
A02
100
AcDbEntity
  8
Solid
100
AcDbLine
 10
68.3263
 20
-2.5
 30
-1.65
 11
68.3263
 21
-0.9
 31
-1.65
  0
SPLINE
  5
AB3
330
A02
100
AcDbEntity
  8
Solid
100
AcDbSpline
210
0
220
0
230
1
 70
8
 71
2
 72
6
 73
3
 74
0
 40
0.309055
 40
0.309055
 40
0.309055
 40
0.329093
 40
0.329093
 40
0.329093
 10
68.3263
 20
-2.5
 30
-1.65
 10
68.1086
 20
-2.5
 30
-2.92091
 10
67.8203
 20
-2.5
 30
-4.15
  0
LINE
  5
AB4
330
A02
100
AcDbEntity
  8
Solid
100
AcDbLine
 10
12.6555
 20
-2.5
 30
-1.65
 11
68.3263
 21
-2.5
 31
-1.65
  0
LINE
  5
AB5
330
A02
100
AcDbEntity
  8
Solid
100
AcDbLine
 10
12.6555
 20
-2.5
 30
-1.65
 11
12.6555
 21
-0.9
 31
-1.65
  0
LINE
  5
AB6
330
A02
100
AcDbEntity
  8
Solid
100
AcDbLine
 10
68.3263
 20
-0.9
 30
-1.65
 11
12.6555
 21
-0.9
 31
-1.65
  0
LINE
  5
AB7
330
A02
100
AcDbEntity
  8
Solid
100
AcDbLine
 10
68.3263
 20
-2.5
 30
-1.65
 11
68.3263
 21
-0.9
 31
-1.65
  0
LINE
  5
AB8
330
A02
100
AcDbEntity
  8
Solid
100
AcDbLine
 10
9.54709
 20
-2.5
 30
22.35
 11
9.54709
 21
-0.9
 31
22.35
  0
ARC
  5
AB9
330
A02
100
AcDbEntity
  8
Solid
100
AcDbCircle
 10
109.544
 20
-0.9
 30
23.1
 40
99.9972
100
AcDbArc
 50
180
 51
180
  0
LINE
  5
ABA
330
A02
100
AcDbEntity
  8
Solid
100
AcDbLine
 10
9.5971
 20
-2.5
 30
19.85
 11
9.5971
 21
-0.9
 31
19.85
  0
ARC
  5
ABB
330
A02
100
AcDbEntity
  8
Solid
100
AcDbCircle
 10
109.544
 20
-2.5
 30
23.1
 40
99.9472
100
AcDbArc
 50
180
 51
180
  0
LINE
  5
ABC
330
A02
100
AcDbEntity
  8
Solid
100
AcDbLine
 10
64.4165
 20
-2.5
 30
19.85
 11
9.5971
 21
-2.5
 31
19.85
  0
LINE
  5
ABD
330
A02
100
AcDbEntity
  8
Solid
100
AcDbLine
 10
64.4165
 20
-2.5
 30
19.85
 11
64.4165
 21
-0.9
 31
19.85
  0
LINE
  5
ABE
330
A02
100
AcDbEntity
  8
Solid
100
AcDbLine
 10
9.5971
 20
-0.9
 30
19.85
 11
64.4165
 21
-0.9
 31
19.85
  0
LINE
  5
ABF
330
A02
100
AcDbEntity
  8
Solid
100
AcDbLine
 10
9.5971
 20
-2.5
 30
19.85
 11
9.5971
 21
-0.9
 31
19.85
  0
LINE
  5
AC0
330
A02
100
AcDbEntity
  8
Solid
100
AcDbLine
 10
64.4165
 20
-2.5
 30
19.85
 11
64.4165
 21
-0.9
 31
19.85
  0
SPLINE
  5
AC1
330
A02
100
AcDbEntity
  8
Solid
100
AcDbSpline
210
0
220
0
230
1
 70
8
 71
3
 72
11
 73
7
 74
0
 40
-0.103487
 40
-0.103487
 40
-0.103487
 40
-0.103487
 40
-0.0642438
 40
-0.0642438
 40
-0.0642438
 40
-0.0471241
 40
-0.0471241
 40
-0.0471241
 40
-0.0471241
 10
64.4165
 20
-0.9
 30
19.85
 10
63.4109
 20
-0.9
 30
20.5704
 10
62.0813
 20
-0.9
 30
21.2067
 10
60.1474
 20
-0.9
 30
21.7375
 10
59.3067
 20
-0.9
 30
21.9695
 10
58.3454
 20
-0.9
 30
22.1736
 10
57.2636
 20
-0.9
 30
22.35
  0
LINE
  5
AC2
330
A02
100
AcDbEntity
  8
Solid
100
AcDbLine
 10
57.2636
 20
-2.5
 30
22.35
 11
57.2636
 21
-0.9
 31
22.35
  0
SPLINE
  5
AC3
330
A02
100
AcDbEntity
  8
Solid
100
AcDbSpline
210
0
220
0
230
1
 70
8
 71
3
 72
11
 73
7
 74
0
 40
0.0471241
 40
0.0471241
 40
0.0471241
 40
0.0471241
 40
0.0642438
 40
0.0642438
 40
0.0642438
 40
0.103487
 40
0.103487
 40
0.103487
 40
0.103487
 10
57.2636
 20
-2.5
 30
22.35
 10
58.3454
 20
-2.5
 30
22.1736
 10
59.3067
 20
-2.5
 30
21.9695
 10
60.1474
 20
-2.5
 30
21.7375
 10
62.0813
 20
-2.5
 30
21.2067
 10
63.4109
 20
-2.5
 30
20.5704
 10
64.4165
 20
-2.5
 30
19.85
  0
LINE
  5
AC4
330
A02
100
AcDbEntity
  8
Solid
100
AcDbLine
 10
9.54709
 20
-2.5
 30
22.35
 11
57.2636
 21
-2.5
 31
22.35
  0
LINE
  5
AC5
330
A02
100
AcDbEntity
  8
Solid
100
AcDbLine
 10
9.54709
 20
-2.5
 30
22.35
 11
9.54709
 21
-0.9
 31
22.35
  0
LINE
  5
AC6
330
A02
100
AcDbEntity
  8
Solid
100
AcDbLine
 10
57.2636
 20
-0.9
 30
22.35
 11
9.54709
 21
-0.9
 31
22.35
  0
LINE
  5
AC7
330
A02
100
AcDbEntity
  8
Solid
100
AcDbLine
 10
57.2636
 20
-2.5
 30
22.35
 11
57.2636
 21
-0.9
 31
22.35
  0
LINE
  5
AC8
330
A02
100
AcDbEntity
  8
Solid
100
AcDbLine
 10
11.3178
 20
-2.5
 30
4.35
 11
11.3178
 21
-0.9
 31
4.35
  0
ARC
  5
AC9
330
A02
100
AcDbEntity
  8
Solid
100
AcDbCircle
 10
109.544
 20
-0.9
 30
23.1
 40
98.2265
100
AcDbArc
 50
180
 51
180
  0
LINE
  5
ACA
330
A02
100
AcDbEntity
  8
Solid
100
AcDbLine
 10
11.8282
 20
-2.5
 30
1.85
 11
11.8282
 21
-0.9
 31
1.85
  0
ARC
  5
ACB
330
A02
100
AcDbEntity
  8
Solid
100
AcDbCircle
 10
109.544
 20
-2.5
 30
23.1
 40
97.7161
100
AcDbArc
 50
180
 51
180
  0
LINE
  5
ACC
330
A02
100
AcDbEntity
  8
Solid
100
AcDbLine
 10
68.7878
 20
-2.5
 30
1.85
 11
11.8282
 21
-2.5
 31
1.85
  0
LINE
  5
ACD
330
A02
100
AcDbEntity
  8
Solid
100
AcDbLine
 10
68.7878
 20
-2.5
 30
1.85
 11
68.7878
 21
-0.9
 31
1.85
  0
LINE
  5
ACE
330
A02
100
AcDbEntity
  8
Solid
100
AcDbLine
 10
11.8282
 20
-0.9
 30
1.85
 11
68.7878
 21
-0.9
 31
1.85
  0
LINE
  5
ACF
330
A02
100
AcDbEntity
  8
Solid
100
AcDbLine
 10
11.8282
 20
-2.5
 30
1.85
 11
11.8282
 21
-0.9
 31
1.85
  0
LINE
  5
AD0
330
A02
100
AcDbEntity
  8
Solid
100
AcDbLine
 10
68.7878
 20
-2.5
 30
1.85
 11
68.7878
 21
-0.9
 31
1.85
  0
SPLINE
  5
AD1
330
A02
100
AcDbEntity
  8
Solid
100
AcDbSpline
210
0
220
0
230
1
 70
8
 71
2
 72
6
 73
3
 74
0
 40
-0.281813
 40
-0.281813
 40
-0.281813
 40
-0.262572
 40
-0.262572
 40
-0.262572
 10
68.7878
 20
-0.9
 30
1.85
 10
68.905
 20
-0.9
 30
3.09992
 10
68.9571
 20
-0.9
 30
4.35
  0
LINE
  5
AD2
330
A02
100
AcDbEntity
  8
Solid
100
AcDbLine
 10
68.9571
 20
-2.5
 30
4.35
 11
68.9571
 21
-0.9
 31
4.35
  0
SPLINE
  5
AD3
330
A02
100
AcDbEntity
  8
Solid
100
AcDbSpline
210
0
220
0
230
1
 70
8
 71
2
 72
6
 73
3
 74
0
 40
0.262572
 40
0.262572
 40
0.262572
 40
0.281813
 40
0.281813
 40
0.281813
 10
68.9571
 20
-2.5
 30
4.35
 10
68.905
 20
-2.5
 30
3.09992
 10
68.7878
 20
-2.5
 30
1.85
  0
LINE
  5
AD4
330
A02
100
AcDbEntity
  8
Solid
100
AcDbLine
 10
11.3178
 20
-2.5
 30
4.35
 11
68.9571
 21
-2.5
 31
4.35
  0
LINE
  5
AD5
330
A02
100
AcDbEntity
  8
Solid
100
AcDbLine
 10
11.3178
 20
-2.5
 30
4.35
 11
11.3178
 21
-0.9
 31
4.35
  0
LINE
  5
AD6
330
A02
100
AcDbEntity
  8
Solid
100
AcDbLine
 10
68.9571
 20
-0.9
 30
4.35
 11
11.3178
 21
-0.9
 31
4.35
  0
LINE
  5
AD7
330
A02
100
AcDbEntity
  8
Solid
100
AcDbLine
 10
68.9571
 20
-2.5
 30
4.35
 11
68.9571
 21
-0.9
 31
4.35
  0
LINE
  5
AD8
330
A02
100
AcDbEntity
  8
Solid
100
AcDbLine
 10
22.4993
 20
-2.5
 30
-19.65
 11
22.4993
 21
-0.9
 31
-19.65
  0
SPLINE
  5
AD9
330
A02
100
AcDbEntity
  8
Solid
100
AcDbSpline
210
0
220
0
230
1
 70
8
 71
3
 72
8
 73
4
 74
0
 40
-0.76252
 40
-0.76252
 40
-0.76252
 40
-0.76252
 40
-0.724899
 40
-0.724899
 40
-0.724899
 40
-0.724899
 10
22.4993
 20
-0.9
 30
-19.65
 10
23.8864
 20
-0.9
 30
-20.6499
 10
25.4187
 20
-0.9
 30
-21.4783
 10
27.0889
 20
-0.9
 30
-22.15
  0
LINE
  5
ADA
330
A02
100
AcDbEntity
  8
Solid
100
AcDbLine
 10
27.0889
 20
-2.5
 30
-22.15
 11
27.0889
 21
-0.9
 31
-22.15
  0
SPLINE
  5
ADB
330
A02
100
AcDbEntity
  8
Solid
100
AcDbSpline
210
0
220
0
230
1
 70
8
 71
3
 72
8
 73
4
 74
0
 40
0.724899
 40
0.724899
 40
0.724899
 40
0.724899
 40
0.76252
 40
0.76252
 40
0.76252
 40
0.76252
 10
27.0889
 20
-2.5
 30
-22.15
 10
25.4187
 20
-2.5
 30
-21.4783
 10
23.8864
 20
-2.5
 30
-20.6499
 10
22.4993
 20
-2.5
 30
-19.65
  0
LINE
  5
ADC
330
A02
100
AcDbEntity
  8
Solid
100
AcDbLine
 10
52.7767
 20
-2.5
 30
-22.15
 11
27.0889
 21
-2.5
 31
-22.15
  0
LINE
  5
ADD
330
A02
100
AcDbEntity
  8
Solid
100
AcDbLine
 10
52.7767
 20
-2.5
 30
-22.15
 11
52.7767
 21
-0.9
 31
-22.15
  0
LINE
  5
ADE
330
A02
100
AcDbEntity
  8
Solid
100
AcDbLine
 10
27.0889
 20
-0.9
 30
-22.15
 11
52.7767
 21
-0.9
 31
-22.15
  0
LINE
  5
ADF
330
A02
100
AcDbEntity
  8
Solid
100
AcDbLine
 10
27.0889
 20
-2.5
 30
-22.15
 11
27.0889
 21
-0.9
 31
-22.15
  0
LINE
  5
AE0
330
A02
100
AcDbEntity
  8
Solid
100
AcDbLine
 10
52.7767
 20
-2.5
 30
-22.15
 11
52.7767
 21
-0.9
 31
-22.15
  0
SPLINE
  5
AE1
330
A02
100
AcDbEntity
  8
Solid
100
AcDbSpline
210
0
220
0
230
1
 70
8
 71
2
 72
6
 73
3
 74
0
 40
-0.543507
 40
-0.543507
 40
-0.543507
 40
-0.496398
 40
-0.496398
 40
-0.496398
 10
52.7767
 20
-0.9
 30
-22.15
 10
55.5546
 20
-0.9
 30
-21.1079
 10
57.793
 20
-0.9
 30
-19.65
  0
LINE
  5
AE2
330
A02
100
AcDbEntity
  8
Solid
100
AcDbLine
 10
57.793
 20
-2.5
 30
-19.65
 11
57.793
 21
-0.9
 31
-19.65
  0
SPLINE
  5
AE3
330
A02
100
AcDbEntity
  8
Solid
100
AcDbSpline
210
0
220
0
230
1
 70
8
 71
2
 72
6
 73
3
 74
0
 40
0.496398
 40
0.496398
 40
0.496398
 40
0.543507
 40
0.543507
 40
0.543507
 10
57.793
 20
-2.5
 30
-19.65
 10
55.5546
 20
-2.5
 30
-21.1079
 10
52.7767
 20
-2.5
 30
-22.15
  0
LINE
  5
AE4
330
A02
100
AcDbEntity
  8
Solid
100
AcDbLine
 10
22.4993
 20
-2.5
 30
-19.65
 11
57.793
 21
-2.5
 31
-19.65
  0
LINE
  5
AE5
330
A02
100
AcDbEntity
  8
Solid
100
AcDbLine
 10
22.4993
 20
-2.5
 30
-19.65
 11
22.4993
 21
-0.9
 31
-19.65
  0
LINE
  5
AE6
330
A02
100
AcDbEntity
  8
Solid
100
AcDbLine
 10
57.793
 20
-0.9
 30
-19.65
 11
22.4993
 21
-0.9
 31
-19.65
  0
LINE
  5
AE7
330
A02
100
AcDbEntity
  8
Solid
100
AcDbLine
 10
57.793
 20
-2.5
 30
-19.65
 11
57.793
 21
-0.9
 31
-19.65
  0
LINE
  5
AE8
330
A02
100
AcDbEntity
  8
Solid
100
AcDbLine
 10
-11.8282
 20
-2.5
 30
1.85
 11
-68.7878
 21
-2.5
 31
1.85
  0
LINE
  5
AE9
330
A02
100
AcDbEntity
  8
Solid
100
AcDbLine
 10
-11.8282
 20
-2.5
 30
1.85
 11
-11.8282
 21
-0.9
 31
1.85
  0
LINE
  5
AEA
330
A02
100
AcDbEntity
  8
Solid
100
AcDbLine
 10
-68.7878
 20
-0.9
 30
1.85
 11
-11.8282
 21
-0.9
 31
1.85
  0
LINE
  5
AEB
330
A02
100
AcDbEntity
  8
Solid
100
AcDbLine
 10
-68.7878
 20
-2.5
 30
1.85
 11
-68.7878
 21
-0.9
 31
1.85
  0
LINE
  5
AEC
330
A02
100
AcDbEntity
  8
Solid
100
AcDbLine
 10
-11.8282
 20
-2.5
 30
1.85
 11
-11.8282
 21
-0.9
 31
1.85
  0
ARC
  5
AED
330
A02
100
AcDbEntity
  8
Solid
100
AcDbCircle
 10
-109.544
 20
-0.9
 30
23.1
 40
97.7161
100
AcDbArc
 50
-8.87207e-15
 51
-8.52782e-15
  0
LINE
  5
AEE
330
A02
100
AcDbEntity
  8
Solid
100
AcDbLine
 10
-11.3178
 20
-2.5
 30
4.35
 11
-11.3178
 21
-0.9
 31
4.35
  0
ARC
  5
AEF
330
A02
100
AcDbEntity
  8
Solid
100
AcDbCircle
 10
-109.544
 20
-2.5
 30
23.1
 40
98.2265
100
AcDbArc
 50
-8.59292e-15
 51
-8.80731e-15
  0
LINE
  5
AF0
330
A02
100
AcDbEntity
  8
Solid
100
AcDbLine
 10
-68.9571
 20
-2.5
 30
4.35
 11
-11.3178
 21
-2.5
 31
4.35
  0
LINE
  5
AF1
330
A02
100
AcDbEntity
  8
Solid
100
AcDbLine
 10
-68.9571
 20
-2.5
 30
4.35
 11
-68.9571
 21
-0.9
 31
4.35
  0
LINE
  5
AF2
330
A02
100
AcDbEntity
  8
Solid
100
AcDbLine
 10
-11.3178
 20
-0.9
 30
4.35
 11
-68.9571
 21
-0.9
 31
4.35
  0
LINE
  5
AF3
330
A02
100
AcDbEntity
  8
Solid
100
AcDbLine
 10
-11.3178
 20
-2.5
 30
4.35
 11
-11.3178
 21
-0.9
 31
4.35
  0
LINE
  5
AF4
330
A02
100
AcDbEntity
  8
Solid
100
AcDbLine
 10
-68.9571
 20
-2.5
 30
4.35
 11
-68.9571
 21
-0.9
 31
4.35
  0
SPLINE
  5
AF5
330
A02
100
AcDbEntity
  8
Solid
100
AcDbSpline
210
0
220
0
230
1
 70
8
 71
2
 72
6
 73
3
 74
0
 40
0.262572
 40
0.262572
 40
0.262572
 40
0.281813
 40
0.281813
 40
0.281813
 10
-68.9571
 20
-0.9
 30
4.35
 10
-68.905
 20
-0.9
 30
3.09992
 10
-68.7878
 20
-0.9
 30
1.85
  0
LINE
  5
AF6
330
A02
100
AcDbEntity
  8
Solid
100
AcDbLine
 10
-68.7878
 20
-2.5
 30
1.85
 11
-68.7878
 21
-0.9
 31
1.85
  0
SPLINE
  5
AF7
330
A02
100
AcDbEntity
  8
Solid
100
AcDbSpline
210
0
220
0
230
1
 70
8
 71
2
 72
6
 73
3
 74
0
 40
-0.281813
 40
-0.281813
 40
-0.281813
 40
-0.262572
 40
-0.262572
 40
-0.262572
 10
-68.7878
 20
-2.5
 30
1.85
 10
-68.905
 20
-2.5
 30
3.09992
 10
-68.9571
 20
-2.5
 30
4.35
  0
LINE
  5
AF8
330
A02
100
AcDbEntity
  8
Solid
100
AcDbLine
 10
-27.0889
 20
-2.5
 30
-22.15
 11
-52.7767
 21
-2.5
 31
-22.15
  0
LINE
  5
AF9
330
A02
100
AcDbEntity
  8
Solid
100
AcDbLine
 10
-27.0889
 20
-2.5
 30
-22.15
 11
-27.0889
 21
-0.9
 31
-22.15
  0
LINE
  5
AFA
330
A02
100
AcDbEntity
  8
Solid
100
AcDbLine
 10
-52.7767
 20
-0.9
 30
-22.15
 11
-27.0889
 21
-0.9
 31
-22.15
  0
LINE
  5
AFB
330
A02
100
AcDbEntity
  8
Solid
100
AcDbLine
 10
-52.7767
 20
-2.5
 30
-22.15
 11
-52.7767
 21
-0.9
 31
-22.15
  0
LINE
  5
AFC
330
A02
100
AcDbEntity
  8
Solid
100
AcDbLine
 10
-27.0889
 20
-2.5
 30
-22.15
 11
-27.0889
 21
-0.9
 31
-22.15
  0
SPLINE
  5
AFD
330
A02
100
AcDbEntity
  8
Solid
100
AcDbSpline
210
0
220
0
230
1
 70
8
 71
3
 72
8
 73
4
 74
0
 40
0.724899
 40
0.724899
 40
0.724899
 40
0.724899
 40
0.76252
 40
0.76252
 40
0.76252
 40
0.76252
 10
-27.0889
 20
-0.9
 30
-22.15
 10
-25.4187
 20
-0.9
 30
-21.4783
 10
-23.8864
 20
-0.9
 30
-20.6499
 10
-22.4993
 20
-0.9
 30
-19.65
  0
LINE
  5
AFE
330
A02
100
AcDbEntity
  8
Solid
100
AcDbLine
 10
-22.4993
 20
-2.5
 30
-19.65
 11
-22.4993
 21
-0.9
 31
-19.65
  0
SPLINE
  5
AFF
330
A02
100
AcDbEntity
  8
Solid
100
AcDbSpline
210
0
220
0
230
1
 70
8
 71
3
 72
8
 73
4
 74
0
 40
-0.76252
 40
-0.76252
 40
-0.76252
 40
-0.76252
 40
-0.724899
 40
-0.724899
 40
-0.724899
 40
-0.724899
 10
-22.4993
 20
-2.5
 30
-19.65
 10
-23.8864
 20
-2.5
 30
-20.6499
 10
-25.4187
 20
-2.5
 30
-21.4783
 10
-27.0889
 20
-2.5
 30
-22.15
  0
LINE
  5
B00
330
A02
100
AcDbEntity
  8
Solid
100
AcDbLine
 10
-57.793
 20
-2.5
 30
-19.65
 11
-22.4993
 21
-2.5
 31
-19.65
  0
LINE
  5
B01
330
A02
100
AcDbEntity
  8
Solid
100
AcDbLine
 10
-57.793
 20
-2.5
 30
-19.65
 11
-57.793
 21
-0.9
 31
-19.65
  0
LINE
  5
B02
330
A02
100
AcDbEntity
  8
Solid
100
AcDbLine
 10
-22.4993
 20
-0.9
 30
-19.65
 11
-57.793
 21
-0.9
 31
-19.65
  0
LINE
  5
B03
330
A02
100
AcDbEntity
  8
Solid
100
AcDbLine
 10
-22.4993
 20
-2.5
 30
-19.65
 11
-22.4993
 21
-0.9
 31
-19.65
  0
LINE
  5
B04
330
A02
100
AcDbEntity
  8
Solid
100
AcDbLine
 10
-57.793
 20
-2.5
 30
-19.65
 11
-57.793
 21
-0.9
 31
-19.65
  0
SPLINE
  5
B05
330
A02
100
AcDbEntity
  8
Solid
100
AcDbSpline
210
0
220
0
230
1
 70
8
 71
2
 72
6
 73
3
 74
0
 40
0.496398
 40
0.496398
 40
0.496398
 40
0.543507
 40
0.543507
 40
0.543507
 10
-57.793
 20
-0.9
 30
-19.65
 10
-55.5546
 20
-0.9
 30
-21.1079
 10
-52.7767
 20
-0.9
 30
-22.15
  0
LINE
  5
B06
330
A02
100
AcDbEntity
  8
Solid
100
AcDbLine
 10
-52.7767
 20
-2.5
 30
-22.15
 11
-52.7767
 21
-0.9
 31
-22.15
  0
SPLINE
  5
B07
330
A02
100
AcDbEntity
  8
Solid
100
AcDbSpline
210
0
220
0
230
1
 70
8
 71
2
 72
6
 73
3
 74
0
 40
-0.543507
 40
-0.543507
 40
-0.543507
 40
-0.496398
 40
-0.496398
 40
-0.496398
 10
-52.7767
 20
-2.5
 30
-22.15
 10
-55.5546
 20
-2.5
 30
-21.1079
 10
-57.793
 20
-2.5
 30
-19.65
  0
LINE
  5
B08
330
A02
100
AcDbEntity
  8
Solid
100
AcDbLine
 10
-72.705
 20
-2.5
 30
9.1
 11
-72.705
 21
-0.9
 31
9.1
  0
CIRCLE
  5
B09
330
A02
100
AcDbEntity
  8
Solid
100
AcDbCircle
 10
-71.88
 20
-0.9
 40
0.825
  0
LINE
  5
B0A
330
A02
100
AcDbEntity
  8
Solid
100
AcDbLine
 10
-72.705
 20
-2.5
 30
9.1
 11
-72.705
 21
-0.9
 31
9.1
  0
CIRCLE
  5
B0B
330
A02
100
AcDbEntity
  8
Solid
100
AcDbCircle
 10
-71.88
 20
-2.5
 40
0.825
  0
LINE
  5
B0C
330
A02
100
AcDbEntity
  8
Solid
100
AcDbLine
 10
74.675
 20
-2.5
 30
9.1
 11
74.675
 21
-0.9
 31
9.1
  0
CIRCLE
  5
B0D
330
A02
100
AcDbEntity
  8
Solid
100
AcDbCircle
 10
75.5
 20
-0.9
 40
0.825
  0
LINE
  5
B0E
330
A02
100
AcDbEntity
  8
Solid
100
AcDbLine
 10
74.675
 20
-2.5
 30
9.1
 11
74.675
 21
-0.9
 31
9.1
  0
CIRCLE
  5
B0F
330
A02
100
AcDbEntity
  8
Solid
100
AcDbCircle
 10
75.5
 20
-2.5
 40
0.825
  0
LINE
  5
B10
330
A02
100
AcDbEntity
  8
Solid
100
AcDbLine
 10
-76.325
 20
-2.5
 30
9.1
 11
-76.325
 21
-0.9
 31
9.1
  0
CIRCLE
  5
B11
330
A02
100
AcDbEntity
  8
Solid
100
AcDbCircle
 10
-75.5
 20
-0.9
 40
0.825
  0
LINE
  5
B12
330
A02
100
AcDbEntity
  8
Solid
100
AcDbLine
 10
-76.325
 20
-2.5
 30
9.1
 11
-76.325
 21
-0.9
 31
9.1
  0
CIRCLE
  5
B13
330
A02
100
AcDbEntity
  8
Solid
100
AcDbCircle
 10
-75.5
 20
-2.5
 40
0.825
  0
LINE
  5
B14
330
A02
100
AcDbEntity
  8
Solid
100
AcDbLine
 10
71.055
 20
-2.5
 30
9.1
 11
71.055
 21
-0.9
 31
9.1
  0
CIRCLE
  5
B15
330
A02
100
AcDbEntity
  8
Solid
100
AcDbCircle
 10
71.88
 20
-0.9
 40
0.825
  0
LINE
  5
B16
330
A02
100
AcDbEntity
  8
Solid
100
AcDbLine
 10
71.055
 20
-2.5
 30
9.1
 11
71.055
 21
-0.9
 31
9.1
  0
CIRCLE
  5
B17
330
A02
100
AcDbEntity
  8
Solid
100
AcDbCircle
 10
71.88
 20
-2.5
 40
0.825
  0
LINE
  5
B18
330
A02
100
AcDbEntity
  8
Solid
100
AcDbLine
 10
77.5
 20
-0.9
 30
13.1
 11
77.5
 21
-0.9
 31
5.1
  0
LINE
  5
B19
330
A02
100
AcDbEntity
  8
Solid
100
AcDbLine
 10
77.5
 20
-0.9
 30
13.1
 11
77.5
 21
-2.5
 31
13.1
  0
LINE
  5
B1A
330
A02
100
AcDbEntity
  8
Solid
100
AcDbLine
 10
77.5
 20
-2.5
 30
5.1
 11
77.5
 21
-2.5
 31
13.1
  0
LINE
  5
B1B
330
A02
100
AcDbEntity
  8
Solid
100
AcDbLine
 10
77.5
 20
-0.9
 30
5.1
 11
77.5
 21
-2.5
 31
5.1
  0
LINE
  5
B1C
330
A02
100
AcDbEntity
  8
Solid
100
AcDbLine
 10
77.5
 20
-0.9
 30
5.1
 11
72.4831
 21
-0.9
 31
5.1
  0
LINE
  5
B1D
330
A02
100
AcDbEntity
  8
Solid
100
AcDbLine
 10
77.5
 20
-0.9
 30
5.1
 11
77.5
 21
-2.5
 31
5.1
  0
LINE
  5
B1E
330
A02
100
AcDbEntity
  8
Solid
100
AcDbLine
 10
72.4831
 20
-2.5
 30
5.1
 11
77.5
 21
-2.5
 31
5.1
  0
LINE
  5
B1F
330
A02
100
AcDbEntity
  8
Solid
100
AcDbLine
 10
72.4831
 20
-0.9
 30
5.1
 11
72.4831
 21
-2.5
 31
5.1
  0
SPLINE
  5
B20
330
A02
100
AcDbEntity
  8
Solid
100
AcDbSpline
210
0
220
0
230
1
 70
8
 71
3
 72
50
 73
46
 74
0
 40
0.256136
 40
0.256136
 40
0.256136
 40
0.256136
 40
0.302627
 40
0.302627
 40
0.302627
 40
0.349119
 40
0.349119
 40
0.349119
 40
0.442102
 40
0.442102
 40
0.442102
 40
0.535085
 40
0.535085
 40
0.535085
 40
0.581576
 40
0.581576
 40
0.581576
 40
0.628068
 40
0.628068
 40
0.628068
 40
0.674559
 40
0.674559
 40
0.674559
 40
0.721051
 40
0.721051
 40
0.721051
 40
0.767542
 40
0.767542
 40
0.767542
 40
0.814034
 40
0.814034
 40
0.814034
 40
0.860525
 40
0.860525
 40
0.860525
 40
0.907017
 40
0.907017
 40
0.907017
 40
0.953508
 40
0.953508
 40
0.953508
 40
0.976754
 40
0.976754
 40
0.976754
 40
1
 40
1
 40
1
 40
1
 10
72.4831
 20
-0.9
 30
5.1
 10
72.432
 20
-0.9
 30
2.94789
 10
72.2425
 20
-0.9
 30
0.768498
 10
71.9177
 20
-0.9
 30
-1.36617
 10
71.5924
 20
-0.9
 30
-3.50144
 10
71.1302
 20
-0.9
 30
-5.59118
 10
70.5181
 20
-0.9
 30
-7.58029
 10
69.2945
 20
-0.9
 30
-11.564
 10
67.4649
 20
-0.9
 30
-15.127
 10
64.913
 20
-0.9
 30
-18.0641
 10
62.3665
 20
-0.9
 30
-21.0062
 10
59.0831
 20
-0.9
 30
-23.3384
 10
55.1014
 20
-0.9
 30
-24.9942
 10
53.1133
 20
-0.9
 30
-25.8222
 10
50.9552
 20
-0.9
 30
-26.4819
 10
48.662
 20
-0.9
 30
-26.9612
 10
46.3697
 20
-0.9
 30
-27.4401
 10
43.9418
 20
-0.9
 30
-27.739
 10
41.4409
 20
-0.9
 30
-27.8348
 10
38.9412
 20
-0.9
 30
-27.9299
 10
36.3681
 20
-0.9
 30
-27.8223
 10
33.8178
 20
-0.9
 30
-27.4711
 10
31.2683
 20
-0.9
 30
-27.1195
 10
28.7443
 20
-0.9
 30
-26.5223
 10
26.3685
 20
-0.9
 30
-25.6257
 10
23.9919
 20
-0.9
 30
-24.73
 10
21.7673
 20
-0.9
 30
-23.5318
 10
19.7981
 20
-0.9
 30
-22.002
 10
17.8264
 20
-0.9
 30
-20.4746
 10
16.1138
 20
-0.9
 30
-18.6126
 10
14.6949
 20
-0.9
 30
-16.4522
 10
13.2718
 20
-0.9
 30
-14.2957
 10
12.146
 20
-0.9
 30
-11.8377
 10
11.2338
 20
-0.9
 30
-9.2207
 10
10.3155
 20
-0.9
 30
-6.60897
 10
9.61444
 20
-0.9
 30
-3.83517
 10
8.87851
 20
-0.9
 30
-1.18866
 10
8.13481
 20
-0.9
 30
1.45114
 10
7.36002
 20
-0.9
 30
3.96677
 10
6.08431
 20
-0.9
 30
5.88116
 10
5.44394
 20
-0.9
 30
6.8362
 10
4.67381
 20
-0.9
 30
7.63704
 10
3.69078
 20
-0.9
 30
8.20317
 10
2.7071
 20
-0.9
 30
8.76875
 10
1.51063
 20
-0.9
 30
9.09971
 10
-2.22045e-15
 20
-0.9
 30
9.1
  0
LINE
  5
B21
330
A02
100
AcDbEntity
  8
Solid
100
AcDbLine
 10
72.4831
 20
-0.9
 30
5.1
 11
72.4831
 21
-2.5
 31
5.1
  0
SPLINE
  5
B22
330
A02
100
AcDbEntity
  8
Solid
100
AcDbSpline
210
0
220
0
230
1
 70
8
 71
3
 72
50
 73
46
 74
0
 40
-1
 40
-1
 40
-1
 40
-1
 40
-0.976754
 40
-0.976754
 40
-0.976754
 40
-0.953508
 40
-0.953508
 40
-0.953508
 40
-0.907017
 40
-0.907017
 40
-0.907017
 40
-0.860525
 40
-0.860525
 40
-0.860525
 40
-0.814034
 40
-0.814034
 40
-0.814034
 40
-0.767542
 40
-0.767542
 40
-0.767542
 40
-0.721051
 40
-0.721051
 40
-0.721051
 40
-0.674559
 40
-0.674559
 40
-0.674559
 40
-0.628068
 40
-0.628068
 40
-0.628068
 40
-0.581576
 40
-0.581576
 40
-0.581576
 40
-0.535085
 40
-0.535085
 40
-0.535085
 40
-0.442102
 40
-0.442102
 40
-0.442102
 40
-0.349119
 40
-0.349119
 40
-0.349119
 40
-0.302627
 40
-0.302627
 40
-0.302627
 40
-0.256136
 40
-0.256136
 40
-0.256136
 40
-0.256136
 10
-2.66454e-15
 20
-2.5
 30
9.1
 10
1.51063
 20
-2.5
 30
9.09971
 10
2.7071
 20
-2.5
 30
8.76875
 10
3.69078
 20
-2.5
 30
8.20317
 10
4.67381
 20
-2.5
 30
7.63704
 10
5.44394
 20
-2.5
 30
6.8362
 10
6.08431
 20
-2.5
 30
5.88116
 10
7.36002
 20
-2.5
 30
3.96677
 10
8.13481
 20
-2.5
 30
1.45114
 10
8.87851
 20
-2.5
 30
-1.18866
 10
9.61444
 20
-2.5
 30
-3.83517
 10
10.3155
 20
-2.5
 30
-6.60897
 10
11.2338
 20
-2.5
 30
-9.2207
 10
12.146
 20
-2.5
 30
-11.8377
 10
13.2718
 20
-2.5
 30
-14.2957
 10
14.6949
 20
-2.5
 30
-16.4522
 10
16.1138
 20
-2.5
 30
-18.6126
 10
17.8264
 20
-2.5
 30
-20.4746
 10
19.7981
 20
-2.5
 30
-22.002
 10
21.7673
 20
-2.5
 30
-23.5318
 10
23.9919
 20
-2.5
 30
-24.73
 10
26.3685
 20
-2.5
 30
-25.6257
 10
28.7443
 20
-2.5
 30
-26.5223
 10
31.2683
 20
-2.5
 30
-27.1195
 10
33.8178
 20
-2.5
 30
-27.4711
 10
36.3681
 20
-2.5
 30
-27.8223
 10
38.9412
 20
-2.5
 30
-27.9299
 10
41.4409
 20
-2.5
 30
-27.8348
 10
43.9418
 20
-2.5
 30
-27.739
 10
46.3697
 20
-2.5
 30
-27.4401
 10
48.662
 20
-2.5
 30
-26.9612
 10
50.9552
 20
-2.5
 30
-26.4819
 10
53.1133
 20
-2.5
 30
-25.8222
 10
55.1014
 20
-2.5
 30
-24.9942
 10
59.0831
 20
-2.5
 30
-23.3384
 10
62.3665
 20
-2.5
 30
-21.0062
 10
64.913
 20
-2.5
 30
-18.0641
 10
67.4649
 20
-2.5
 30
-15.127
 10
69.2945
 20
-2.5
 30
-11.564
 10
70.5181
 20
-2.5
 30
-7.58029
 10
71.1302
 20
-2.5
 30
-5.59118
 10
71.5924
 20
-2.5
 30
-3.50144
 10
71.9177
 20
-2.5
 30
-1.36617
 10
72.2425
 20
-2.5
 30
0.768498
 10
72.432
 20
-2.5
 30
2.94789
 10
72.4831
 20
-2.5
 30
5.1
  0
LINE
  5
B23
330
A02
100
AcDbEntity
  8
Solid
100
AcDbLine
 10
-2.15137e-15
 20
-0.9
 30
9.1
 11
-2.46716e-15
 21
-2.5
 31
9.1
  0
SPLINE
  5
B24
330
A02
100
AcDbEntity
  8
Solid
100
AcDbSpline
210
0
220
0
230
1
 70
8
 71
3
 72
50
 73
46
 74
0
 40
0.256136
 40
0.256136
 40
0.256136
 40
0.256136
 40
0.302627
 40
0.302627
 40
0.302627
 40
0.349119
 40
0.349119
 40
0.349119
 40
0.442102
 40
0.442102
 40
0.442102
 40
0.535085
 40
0.535085
 40
0.535085
 40
0.581576
 40
0.581576
 40
0.581576
 40
0.628068
 40
0.628068
 40
0.628068
 40
0.674559
 40
0.674559
 40
0.674559
 40
0.721051
 40
0.721051
 40
0.721051
 40
0.767542
 40
0.767542
 40
0.767542
 40
0.814034
 40
0.814034
 40
0.814034
 40
0.860525
 40
0.860525
 40
0.860525
 40
0.907017
 40
0.907017
 40
0.907017
 40
0.953508
 40
0.953508
 40
0.953508
 40
0.976754
 40
0.976754
 40
0.976754
 40
1
 40
1
 40
1
 40
1
 10
-72.4831
 20
-0.9
 30
5.1
 10
-72.432
 20
-0.9
 30
2.94789
 10
-72.2425
 20
-0.9
 30
0.768498
 10
-71.9177
 20
-0.9
 30
-1.36617
 10
-71.5924
 20
-0.9
 30
-3.50144
 10
-71.1302
 20
-0.9
 30
-5.59118
 10
-70.5181
 20
-0.9
 30
-7.58029
 10
-69.2945
 20
-0.9
 30
-11.564
 10
-67.4649
 20
-0.9
 30
-15.127
 10
-64.913
 20
-0.9
 30
-18.0641
 10
-62.3665
 20
-0.9
 30
-21.0062
 10
-59.0831
 20
-0.9
 30
-23.3384
 10
-55.1014
 20
-0.9
 30
-24.9942
 10
-53.1133
 20
-0.9
 30
-25.8222
 10
-50.9552
 20
-0.9
 30
-26.4819
 10
-48.662
 20
-0.9
 30
-26.9612
 10
-46.3697
 20
-0.9
 30
-27.4401
 10
-43.9418
 20
-0.9
 30
-27.739
 10
-41.4409
 20
-0.9
 30
-27.8348
 10
-38.9412
 20
-0.9
 30
-27.9299
 10
-36.3681
 20
-0.9
 30
-27.8223
 10
-33.8178
 20
-0.9
 30
-27.4711
 10
-31.2683
 20
-0.9
 30
-27.1195
 10
-28.7443
 20
-0.9
 30
-26.5223
 10
-26.3685
 20
-0.9
 30
-25.6257
 10
-23.9919
 20
-0.9
 30
-24.73
 10
-21.7673
 20
-0.9
 30
-23.5318
 10
-19.7981
 20
-0.9
 30
-22.002
 10
-17.8264
 20
-0.9
 30
-20.4746
 10
-16.1138
 20
-0.9
 30
-18.6126
 10
-14.6949
 20
-0.9
 30
-16.4522
 10
-13.2718
 20
-0.9
 30
-14.2957
 10
-12.146
 20
-0.9
 30
-11.8377
 10
-11.2338
 20
-0.9
 30
-9.2207
 10
-10.3155
 20
-0.9
 30
-6.60897
 10
-9.61444
 20
-0.9
 30
-3.83517
 10
-8.87851
 20
-0.9
 30
-1.18866
 10
-8.13481
 20
-0.9
 30
1.45114
 10
-7.36002
 20
-0.9
 30
3.96677
 10
-6.08431
 20
-0.9
 30
5.88116
 10
-5.44394
 20
-0.9
 30
6.8362
 10
-4.67381
 20
-0.9
 30
7.63704
 10
-3.69078
 20
-0.9
 30
8.20317
 10
-2.7071
 20
-0.9
 30
8.76875
 10
-1.51063
 20
-0.9
 30
9.09971
 10
-2.22045e-15
 20
-0.9
 30
9.1
  0
LINE
  5
B25
330
A02
100
AcDbEntity
  8
Solid
100
AcDbLine
 10
-2.15137e-15
 20
-0.9
 30
9.1
 11
-2.46716e-15
 21
-2.5
 31
9.1
  0
SPLINE
  5
B26
330
A02
100
AcDbEntity
  8
Solid
100
AcDbSpline
210
0
220
0
230
1
 70
8
 71
3
 72
50
 73
46
 74
0
 40
0.256136
 40
0.256136
 40
0.256136
 40
0.256136
 40
0.302627
 40
0.302627
 40
0.302627
 40
0.349119
 40
0.349119
 40
0.349119
 40
0.442102
 40
0.442102
 40
0.442102
 40
0.535085
 40
0.535085
 40
0.535085
 40
0.581576
 40
0.581576
 40
0.581576
 40
0.628068
 40
0.628068
 40
0.628068
 40
0.674559
 40
0.674559
 40
0.674559
 40
0.721051
 40
0.721051
 40
0.721051
 40
0.767542
 40
0.767542
 40
0.767542
 40
0.814034
 40
0.814034
 40
0.814034
 40
0.860525
 40
0.860525
 40
0.860525
 40
0.907017
 40
0.907017
 40
0.907017
 40
0.953508
 40
0.953508
 40
0.953508
 40
0.976754
 40
0.976754
 40
0.976754
 40
1
 40
1
 40
1
 40
1
 10
-72.4831
 20
-2.5
 30
5.1
 10
-72.432
 20
-2.5
 30
2.94789
 10
-72.2425
 20
-2.5
 30
0.768498
 10
-71.9177
 20
-2.5
 30
-1.36617
 10
-71.5924
 20
-2.5
 30
-3.50144
 10
-71.1302
 20
-2.5
 30
-5.59118
 10
-70.5181
 20
-2.5
 30
-7.58029
 10
-69.2945
 20
-2.5
 30
-11.564
 10
-67.4649
 20
-2.5
 30
-15.127
 10
-64.913
 20
-2.5
 30
-18.0641
 10
-62.3665
 20
-2.5
 30
-21.0062
 10
-59.0831
 20
-2.5
 30
-23.3384
 10
-55.1014
 20
-2.5
 30
-24.9942
 10
-53.1133
 20
-2.5
 30
-25.8222
 10
-50.9552
 20
-2.5
 30
-26.4819
 10
-48.662
 20
-2.5
 30
-26.9612
 10
-46.3697
 20
-2.5
 30
-27.4401
 10
-43.9418
 20
-2.5
 30
-27.739
 10
-41.4409
 20
-2.5
 30
-27.8348
 10
-38.9412
 20
-2.5
 30
-27.9299
 10
-36.3681
 20
-2.5
 30
-27.8223
 10
-33.8178
 20
-2.5
 30
-27.4711
 10
-31.2683
 20
-2.5
 30
-27.1195
 10
-28.7443
 20
-2.5
 30
-26.5223
 10
-26.3685
 20
-2.5
 30
-25.6257
 10
-23.9919
 20
-2.5
 30
-24.73
 10
-21.7673
 20
-2.5
 30
-23.5318
 10
-19.7981
 20
-2.5
 30
-22.002
 10
-17.8264
 20
-2.5
 30
-20.4746
 10
-16.1138
 20
-2.5
 30
-18.6126
 10
-14.6949
 20
-2.5
 30
-16.4522
 10
-13.2718
 20
-2.5
 30
-14.2957
 10
-12.146
 20
-2.5
 30
-11.8377
 10
-11.2338
 20
-2.5
 30
-9.2207
 10
-10.3155
 20
-2.5
 30
-6.60897
 10
-9.61444
 20
-2.5
 30
-3.83517
 10
-8.87851
 20
-2.5
 30
-1.18866
 10
-8.13481
 20
-2.5
 30
1.45114
 10
-7.36002
 20
-2.5
 30
3.96677
 10
-6.08431
 20
-2.5
 30
5.88116
 10
-5.44394
 20
-2.5
 30
6.8362
 10
-4.67381
 20
-2.5
 30
7.63704
 10
-3.69078
 20
-2.5
 30
8.20317
 10
-2.7071
 20
-2.5
 30
8.76875
 10
-1.51063
 20
-2.5
 30
9.09971
 10
-2.22045e-15
 20
-2.5
 30
9.1
  0
LINE
  5
B27
330
A02
100
AcDbEntity
  8
Solid
100
AcDbLine
 10
-72.4831
 20
-0.9
 30
5.1
 11
-72.4831
 21
-2.5
 31
5.1
  0
LINE
  5
B28
330
A02
100
AcDbEntity
  8
Solid
100
AcDbLine
 10
-77.5
 20
-0.9
 30
5.1
 11
-72.4831
 21
-0.9
 31
5.1
  0
LINE
  5
B29
330
A02
100
AcDbEntity
  8
Solid
100
AcDbLine
 10
-72.4831
 20
-0.9
 30
5.1
 11
-72.4831
 21
-2.5
 31
5.1
  0
LINE
  5
B2A
330
A02
100
AcDbEntity
  8
Solid
100
AcDbLine
 10
-77.5
 20
-2.5
 30
5.1
 11
-72.4831
 21
-2.5
 31
5.1
  0
LINE
  5
B2B
330
A02
100
AcDbEntity
  8
Solid
100
AcDbLine
 10
-77.5
 20
-0.9
 30
5.1
 11
-77.5
 21
-2.5
 31
5.1
  0
LINE
  5
B2C
330
A02
100
AcDbEntity
  8
Solid
100
AcDbLine
 10
-77.5
 20
-0.9
 30
13.1
 11
-77.5
 21
-0.9
 31
5.1
  0
LINE
  5
B2D
330
A02
100
AcDbEntity
  8
Solid
100
AcDbLine
 10
-77.5
 20
-0.9
 30
5.1
 11
-77.5
 21
-2.5
 31
5.1
  0
LINE
  5
B2E
330
A02
100
AcDbEntity
  8
Solid
100
AcDbLine
 10
-77.5
 20
-2.5
 30
13.1
 11
-77.5
 21
-2.5
 31
5.1
  0
LINE
  5
B2F
330
A02
100
AcDbEntity
  8
Solid
100
AcDbLine
 10
-77.5
 20
-0.9
 30
13.1
 11
-77.5
 21
-2.5
 31
13.1
  0
LINE
  5
B30
330
A02
100
AcDbEntity
  8
Solid
100
AcDbLine
 10
-77.5
 20
-0.9
 30
13.1
 11
-71.9129
 21
-0.9
 31
13.1
  0
LINE
  5
B31
330
A02
100
AcDbEntity
  8
Solid
100
AcDbLine
 10
-77.5
 20
-0.9
 30
13.1
 11
-77.5
 21
-2.5
 31
13.1
  0
LINE
  5
B32
330
A02
100
AcDbEntity
  8
Solid
100
AcDbLine
 10
-71.9129
 20
-2.5
 30
13.1
 11
-77.5
 21
-2.5
 31
13.1
  0
LINE
  5
B33
330
A02
100
AcDbEntity
  8
Solid
100
AcDbLine
 10
-71.9129
 20
-0.9
 30
13.1
 11
-71.9129
 21
-2.5
 31
13.1
  0
SPLINE
  5
B34
330
A02
100
AcDbEntity
  8
Solid
100
AcDbSpline
210
0
220
0
230
1
 70
8
 71
3
 72
17
 73
13
 74
0
 40
0
 40
0
 40
0
 40
0
 40
0.0490799
 40
0.0490799
 40
0.0490799
 40
0.0981598
 40
0.0981598
 40
0.0981598
 40
0.14724
 40
0.14724
 40
0.14724
 40
0.19632
 40
0.19632
 40
0.19632
 40
0.19632
 10
-45
 20
-0.9
 30
26.6
 10
-50.6414
 20
-0.9
 30
26.6011
 10
-54.8896
 20
-0.9
 30
26.325
 10
-58.2312
 20
-0.9
 30
25.7403
 10
-61.5678
 20
-0.9
 30
25.1575
 10
-63.996
 20
-0.9
 30
24.2672
 10
-65.86
 20
-0.9
 30
23.0899
 10
-67.7196
 20
-0.9
 30
21.9139
 10
-69.0132
 20
-0.9
 30
20.452
 10
-69.9655
 20
-0.9
 30
18.7627
 10
-70.9144
 20
-0.9
 30
17.0742
 10
-71.5204
 20
-0.9
 30
15.1592
 10
-71.9129
 20
-0.9
 30
13.1
  0
LINE
  5
B35
330
A02
100
AcDbEntity
  8
Solid
100
AcDbLine
 10
-71.9129
 20
-0.9
 30
13.1
 11
-71.9129
 21
-2.5
 31
13.1
  0
SPLINE
  5
B36
330
A02
100
AcDbEntity
  8
Solid
100
AcDbSpline
210
0
220
0
230
1
 70
8
 71
3
 72
17
 73
13
 74
0
 40
0
 40
0
 40
0
 40
0
 40
0.0490799
 40
0.0490799
 40
0.0490799
 40
0.0981598
 40
0.0981598
 40
0.0981598
 40
0.14724
 40
0.14724
 40
0.14724
 40
0.19632
 40
0.19632
 40
0.19632
 40
0.19632
 10
-45
 20
-2.5
 30
26.6
 10
-50.6414
 20
-2.5
 30
26.6011
 10
-54.8896
 20
-2.5
 30
26.325
 10
-58.2312
 20
-2.5
 30
25.7403
 10
-61.5678
 20
-2.5
 30
25.1575
 10
-63.996
 20
-2.5
 30
24.2672
 10
-65.86
 20
-2.5
 30
23.0899
 10
-67.7196
 20
-2.5
 30
21.9139
 10
-69.0132
 20
-2.5
 30
20.452
 10
-69.9655
 20
-2.5
 30
18.7627
 10
-70.9144
 20
-2.5
 30
17.0742
 10
-71.5204
 20
-2.5
 30
15.1592
 10
-71.9129
 20
-2.5
 30
13.1
  0
LINE
  5
B37
330
A02
100
AcDbEntity
  8
Solid
100
AcDbLine
 10
-45
 20
-0.9
 30
26.6
 11
-45
 21
-2.5
 31
26.6
  0
LINE
  5
B38
330
A02
100
AcDbEntity
  8
Solid
100
AcDbLine
 10
45
 20
-0.9
 30
26.6
 11
-45
 21
-0.9
 31
26.6
  0
LINE
  5
B39
330
A02
100
AcDbEntity
  8
Solid
100
AcDbLine
 10
-45
 20
-0.9
 30
26.6
 11
-45
 21
-2.5
 31
26.6
  0
LINE
  5
B3A
330
A02
100
AcDbEntity
  8
Solid
100
AcDbLine
 10
45
 20
-2.5
 30
26.6
 11
-45
 21
-2.5
 31
26.6
  0
LINE
  5
B3B
330
A02
100
AcDbEntity
  8
Solid
100
AcDbLine
 10
45
 20
-0.9
 30
26.6
 11
45
 21
-2.5
 31
26.6
  0
SPLINE
  5
B3C
330
A02
100
AcDbEntity
  8
Solid
100
AcDbSpline
210
0
220
0
230
1
 70
8
 71
3
 72
17
 73
13
 74
0
 40
0
 40
0
 40
0
 40
0
 40
0.0490799
 40
0.0490799
 40
0.0490799
 40
0.0981598
 40
0.0981598
 40
0.0981598
 40
0.14724
 40
0.14724
 40
0.14724
 40
0.19632
 40
0.19632
 40
0.19632
 40
0.19632
 10
45
 20
-0.9
 30
26.6
 10
50.6414
 20
-0.9
 30
26.6011
 10
54.8896
 20
-0.9
 30
26.325
 10
58.2312
 20
-0.9
 30
25.7403
 10
61.5678
 20
-0.9
 30
25.1575
 10
63.996
 20
-0.9
 30
24.2672
 10
65.86
 20
-0.9
 30
23.0899
 10
67.7196
 20
-0.9
 30
21.9139
 10
69.0132
 20
-0.9
 30
20.452
 10
69.9655
 20
-0.9
 30
18.7627
 10
70.9144
 20
-0.9
 30
17.0742
 10
71.5204
 20
-0.9
 30
15.1592
 10
71.9129
 20
-0.9
 30
13.1
  0
LINE
  5
B3D
330
A02
100
AcDbEntity
  8
Solid
100
AcDbLine
 10
45
 20
-0.9
 30
26.6
 11
45
 21
-2.5
 31
26.6
  0
SPLINE
  5
B3E
330
A02
100
AcDbEntity
  8
Solid
100
AcDbSpline
210
0
220
0
230
1
 70
8
 71
3
 72
17
 73
13
 74
0
 40
-0.19632
 40
-0.19632
 40
-0.19632
 40
-0.19632
 40
-0.14724
 40
-0.14724
 40
-0.14724
 40
-0.0981598
 40
-0.0981598
 40
-0.0981598
 40
-0.0490799
 40
-0.0490799
 40
-0.0490799
 40
0
 40
0
 40
0
 40
0
 10
71.9129
 20
-2.5
 30
13.1
 10
71.5204
 20
-2.5
 30
15.1592
 10
70.9144
 20
-2.5
 30
17.0742
 10
69.9655
 20
-2.5
 30
18.7627
 10
69.0132
 20
-2.5
 30
20.452
 10
67.7196
 20
-2.5
 30
21.9139
 10
65.86
 20
-2.5
 30
23.0899
 10
63.996
 20
-2.5
 30
24.2672
 10
61.5678
 20
-2.5
 30
25.1575
 10
58.2312
 20
-2.5
 30
25.7403
 10
54.8896
 20
-2.5
 30
26.325
 10
50.6414
 20
-2.5
 30
26.6011
 10
45
 20
-2.5
 30
26.6
  0
LINE
  5
B3F
330
A02
100
AcDbEntity
  8
Solid
100
AcDbLine
 10
71.9129
 20
-0.9
 30
13.1
 11
71.9129
 21
-2.5
 31
13.1
  0
LINE
  5
B40
330
A02
100
AcDbEntity
  8
Solid
100
AcDbLine
 10
77.5
 20
-0.9
 30
13.1
 11
71.9129
 21
-0.9
 31
13.1
  0
LINE
  5
B41
330
A02
100
AcDbEntity
  8
Solid
100
AcDbLine
 10
71.9129
 20
-0.9
 30
13.1
 11
71.9129
 21
-2.5
 31
13.1
  0
LINE
  5
B42
330
A02
100
AcDbEntity
  8
Solid
100
AcDbLine
 10
77.5
 20
-2.5
 30
13.1
 11
71.9129
 21
-2.5
 31
13.1
  0
LINE
  5
B43
330
A02
100
AcDbEntity
  8
Solid
100
AcDbLine
 10
77.5
 20
-0.9
 30
13.1
 11
77.5
 21
-2.5
 31
13.1
  0
LINE
  5
B44
330
A02
100
AcDbEntity
  8
Solid
100
AcDbLine
 10
77.5
 20
-2.5
 30
13.1
 11
71.9129
 21
-2.5
 31
13.1
  0
SPLINE
  5
B45
330
A02
100
AcDbEntity
  8
Solid
100
AcDbSpline
210
0
220
0
230
1
 70
8
 71
3
 72
17
 73
13
 74
0
 40
-0.19632
 40
-0.19632
 40
-0.19632
 40
-0.19632
 40
-0.14724
 40
-0.14724
 40
-0.14724
 40
-0.0981598
 40
-0.0981598
 40
-0.0981598
 40
-0.0490799
 40
-0.0490799
 40
-0.0490799
 40
0
 40
0
 40
0
 40
0
 10
71.9129
 20
-2.5
 30
13.1
 10
71.5204
 20
-2.5
 30
15.1592
 10
70.9144
 20
-2.5
 30
17.0742
 10
69.9655
 20
-2.5
 30
18.7627
 10
69.0132
 20
-2.5
 30
20.452
 10
67.7196
 20
-2.5
 30
21.9139
 10
65.86
 20
-2.5
 30
23.0899
 10
63.996
 20
-2.5
 30
24.2672
 10
61.5678
 20
-2.5
 30
25.1575
 10
58.2312
 20
-2.5
 30
25.7403
 10
54.8896
 20
-2.5
 30
26.325
 10
50.6414
 20
-2.5
 30
26.6011
 10
45
 20
-2.5
 30
26.6
  0
LINE
  5
B46
330
A02
100
AcDbEntity
  8
Solid
100
AcDbLine
 10
45
 20
-2.5
 30
26.6
 11
-45
 21
-2.5
 31
26.6
  0
SPLINE
  5
B47
330
A02
100
AcDbEntity
  8
Solid
100
AcDbSpline
210
0
220
0
230
1
 70
8
 71
3
 72
17
 73
13
 74
0
 40
0
 40
0
 40
0
 40
0
 40
0.0490799
 40
0.0490799
 40
0.0490799
 40
0.0981598
 40
0.0981598
 40
0.0981598
 40
0.14724
 40
0.14724
 40
0.14724
 40
0.19632
 40
0.19632
 40
0.19632
 40
0.19632
 10
-45
 20
-2.5
 30
26.6
 10
-50.6414
 20
-2.5
 30
26.6011
 10
-54.8896
 20
-2.5
 30
26.325
 10
-58.2312
 20
-2.5
 30
25.7403
 10
-61.5678
 20
-2.5
 30
25.1575
 10
-63.996
 20
-2.5
 30
24.2672
 10
-65.86
 20
-2.5
 30
23.0899
 10
-67.7196
 20
-2.5
 30
21.9139
 10
-69.0132
 20
-2.5
 30
20.452
 10
-69.9655
 20
-2.5
 30
18.7627
 10
-70.9144
 20
-2.5
 30
17.0742
 10
-71.5204
 20
-2.5
 30
15.1592
 10
-71.9129
 20
-2.5
 30
13.1
  0
LINE
  5
B48
330
A02
100
AcDbEntity
  8
Solid
100
AcDbLine
 10
-71.9129
 20
-2.5
 30
13.1
 11
-77.5
 21
-2.5
 31
13.1
  0
LINE
  5
B49
330
A02
100
AcDbEntity
  8
Solid
100
AcDbLine
 10
-77.5
 20
-2.5
 30
13.1
 11
-77.5
 21
-2.5
 31
5.1
  0
LINE
  5
B4A
330
A02
100
AcDbEntity
  8
Solid
100
AcDbLine
 10
-77.5
 20
-2.5
 30
5.1
 11
-72.4831
 21
-2.5
 31
5.1
  0
SPLINE
  5
B4B
330
A02
100
AcDbEntity
  8
Solid
100
AcDbSpline
210
0
220
0
230
1
 70
8
 71
3
 72
50
 73
46
 74
0
 40
0.256136
 40
0.256136
 40
0.256136
 40
0.256136
 40
0.302627
 40
0.302627
 40
0.302627
 40
0.349119
 40
0.349119
 40
0.349119
 40
0.442102
 40
0.442102
 40
0.442102
 40
0.535085
 40
0.535085
 40
0.535085
 40
0.581576
 40
0.581576
 40
0.581576
 40
0.628068
 40
0.628068
 40
0.628068
 40
0.674559
 40
0.674559
 40
0.674559
 40
0.721051
 40
0.721051
 40
0.721051
 40
0.767542
 40
0.767542
 40
0.767542
 40
0.814034
 40
0.814034
 40
0.814034
 40
0.860525
 40
0.860525
 40
0.860525
 40
0.907017
 40
0.907017
 40
0.907017
 40
0.953508
 40
0.953508
 40
0.953508
 40
0.976754
 40
0.976754
 40
0.976754
 40
1
 40
1
 40
1
 40
1
 10
-72.4831
 20
-2.5
 30
5.1
 10
-72.432
 20
-2.5
 30
2.94789
 10
-72.2425
 20
-2.5
 30
0.768498
 10
-71.9177
 20
-2.5
 30
-1.36617
 10
-71.5924
 20
-2.5
 30
-3.50144
 10
-71.1302
 20
-2.5
 30
-5.59118
 10
-70.5181
 20
-2.5
 30
-7.58029
 10
-69.2945
 20
-2.5
 30
-11.564
 10
-67.4649
 20
-2.5
 30
-15.127
 10
-64.913
 20
-2.5
 30
-18.0641
 10
-62.3665
 20
-2.5
 30
-21.0062
 10
-59.0831
 20
-2.5
 30
-23.3384
 10
-55.1014
 20
-2.5
 30
-24.9942
 10
-53.1133
 20
-2.5
 30
-25.8222
 10
-50.9552
 20
-2.5
 30
-26.4819
 10
-48.662
 20
-2.5
 30
-26.9612
 10
-46.3697
 20
-2.5
 30
-27.4401
 10
-43.9418
 20
-2.5
 30
-27.739
 10
-41.4409
 20
-2.5
 30
-27.8348
 10
-38.9412
 20
-2.5
 30
-27.9299
 10
-36.3681
 20
-2.5
 30
-27.8223
 10
-33.8178
 20
-2.5
 30
-27.4711
 10
-31.2683
 20
-2.5
 30
-27.1195
 10
-28.7443
 20
-2.5
 30
-26.5223
 10
-26.3685
 20
-2.5
 30
-25.6257
 10
-23.9919
 20
-2.5
 30
-24.73
 10
-21.7673
 20
-2.5
 30
-23.5318
 10
-19.7981
 20
-2.5
 30
-22.002
 10
-17.8264
 20
-2.5
 30
-20.4746
 10
-16.1138
 20
-2.5
 30
-18.6126
 10
-14.6949
 20
-2.5
 30
-16.4522
 10
-13.2718
 20
-2.5
 30
-14.2957
 10
-12.146
 20
-2.5
 30
-11.8377
 10
-11.2338
 20
-2.5
 30
-9.2207
 10
-10.3155
 20
-2.5
 30
-6.60897
 10
-9.61444
 20
-2.5
 30
-3.83517
 10
-8.87851
 20
-2.5
 30
-1.18866
 10
-8.13481
 20
-2.5
 30
1.45114
 10
-7.36002
 20
-2.5
 30
3.96677
 10
-6.08431
 20
-2.5
 30
5.88116
 10
-5.44394
 20
-2.5
 30
6.8362
 10
-4.67381
 20
-2.5
 30
7.63704
 10
-3.69078
 20
-2.5
 30
8.20317
 10
-2.7071
 20
-2.5
 30
8.76875
 10
-1.51063
 20
-2.5
 30
9.09971
 10
-2.22045e-15
 20
-2.5
 30
9.1
  0
SPLINE
  5
B4C
330
A02
100
AcDbEntity
  8
Solid
100
AcDbSpline
210
0
220
0
230
1
 70
8
 71
3
 72
50
 73
46
 74
0
 40
-1
 40
-1
 40
-1
 40
-1
 40
-0.976754
 40
-0.976754
 40
-0.976754
 40
-0.953508
 40
-0.953508
 40
-0.953508
 40
-0.907017
 40
-0.907017
 40
-0.907017
 40
-0.860525
 40
-0.860525
 40
-0.860525
 40
-0.814034
 40
-0.814034
 40
-0.814034
 40
-0.767542
 40
-0.767542
 40
-0.767542
 40
-0.721051
 40
-0.721051
 40
-0.721051
 40
-0.674559
 40
-0.674559
 40
-0.674559
 40
-0.628068
 40
-0.628068
 40
-0.628068
 40
-0.581576
 40
-0.581576
 40
-0.581576
 40
-0.535085
 40
-0.535085
 40
-0.535085
 40
-0.442102
 40
-0.442102
 40
-0.442102
 40
-0.349119
 40
-0.349119
 40
-0.349119
 40
-0.302627
 40
-0.302627
 40
-0.302627
 40
-0.256136
 40
-0.256136
 40
-0.256136
 40
-0.256136
 10
-2.66454e-15
 20
-2.5
 30
9.1
 10
1.51063
 20
-2.5
 30
9.09971
 10
2.7071
 20
-2.5
 30
8.76875
 10
3.69078
 20
-2.5
 30
8.20317
 10
4.67381
 20
-2.5
 30
7.63704
 10
5.44394
 20
-2.5
 30
6.8362
 10
6.08431
 20
-2.5
 30
5.88116
 10
7.36002
 20
-2.5
 30
3.96677
 10
8.13481
 20
-2.5
 30
1.45114
 10
8.87851
 20
-2.5
 30
-1.18866
 10
9.61444
 20
-2.5
 30
-3.83517
 10
10.3155
 20
-2.5
 30
-6.60897
 10
11.2338
 20
-2.5
 30
-9.2207
 10
12.146
 20
-2.5
 30
-11.8377
 10
13.2718
 20
-2.5
 30
-14.2957
 10
14.6949
 20
-2.5
 30
-16.4522
 10
16.1138
 20
-2.5
 30
-18.6126
 10
17.8264
 20
-2.5
 30
-20.4746
 10
19.7981
 20
-2.5
 30
-22.002
 10
21.7673
 20
-2.5
 30
-23.5318
 10
23.9919
 20
-2.5
 30
-24.73
 10
26.3685
 20
-2.5
 30
-25.6257
 10
28.7443
 20
-2.5
 30
-26.5223
 10
31.2683
 20
-2.5
 30
-27.1195
 10
33.8178
 20
-2.5
 30
-27.4711
 10
36.3681
 20
-2.5
 30
-27.8223
 10
38.9412
 20
-2.5
 30
-27.9299
 10
41.4409
 20
-2.5
 30
-27.8348
 10
43.9418
 20
-2.5
 30
-27.739
 10
46.3697
 20
-2.5
 30
-27.4401
 10
48.662
 20
-2.5
 30
-26.9612
 10
50.9552
 20
-2.5
 30
-26.4819
 10
53.1133
 20
-2.5
 30
-25.8222
 10
55.1014
 20
-2.5
 30
-24.9942
 10
59.0831
 20
-2.5
 30
-23.3384
 10
62.3665
 20
-2.5
 30
-21.0062
 10
64.913
 20
-2.5
 30
-18.0641
 10
67.4649
 20
-2.5
 30
-15.127
 10
69.2945
 20
-2.5
 30
-11.564
 10
70.5181
 20
-2.5
 30
-7.58029
 10
71.1302
 20
-2.5
 30
-5.59118
 10
71.5924
 20
-2.5
 30
-3.50144
 10
71.9177
 20
-2.5
 30
-1.36617
 10
72.2425
 20
-2.5
 30
0.768498
 10
72.432
 20
-2.5
 30
2.94789
 10
72.4831
 20
-2.5
 30
5.1
  0
LINE
  5
B4D
330
A02
100
AcDbEntity
  8
Solid
100
AcDbLine
 10
72.4831
 20
-2.5
 30
5.1
 11
77.5
 21
-2.5
 31
5.1
  0
LINE
  5
B4E
330
A02
100
AcDbEntity
  8
Solid
100
AcDbLine
 10
77.5
 20
-2.5
 30
5.1
 11
77.5
 21
-2.5
 31
13.1
  0
LINE
  5
B4F
330
A02
100
AcDbEntity
  8
Solid
100
AcDbLine
 10
-15.3355
 20
-2.5
 30
-10.15
 11
-65.8203
 21
-2.5
 31
-10.15
  0
SPLINE
  5
B50
330
A02
100
AcDbEntity
  8
Solid
100
AcDbSpline
210
0
220
0
230
1
 70
8
 71
2
 72
6
 73
3
 74
0
 40
-0.381645
 40
-0.381645
 40
-0.381645
 40
-0.358693
 40
-0.358693
 40
-0.358693
 10
-65.8203
 20
-2.5
 30
-10.15
 10
-66.3632
 20
-2.5
 30
-8.95084
 10
-66.8136
 20
-2.5
 30
-7.65
  0
LINE
  5
B51
330
A02
100
AcDbEntity
  8
Solid
100
AcDbLine
 10
-66.8136
 20
-2.5
 30
-7.65
 11
-14.3945
 21
-2.5
 31
-7.65
  0
SPLINE
  5
B52
330
A02
100
AcDbEntity
  8
Solid
100
AcDbSpline
210
0
220
0
230
1
 70
8
 71
2
 72
6
 73
3
 74
0
 40
-0.863159
 40
-0.863159
 40
-0.863159
 40
-0.846768
 40
-0.846768
 40
-0.846768
 10
-14.3945
 20
-2.5
 30
-7.65
 10
-14.8341
 20
-2.5
 30
-8.94876
 10
-15.3355
 20
-2.5
 30
-10.15
  0
LINE
  5
B53
330
A02
100
AcDbEntity
  8
Solid
100
AcDbLine
 10
-9.97301
 20
-2.5
 30
13.85
 11
-68.1582
 21
-2.5
 31
13.85
  0
SPLINE
  5
B54
330
A02
100
AcDbEntity
  8
Solid
100
AcDbSpline
210
0
220
0
230
1
 70
8
 71
3
 72
8
 73
4
 74
0
 40
-0.183023
 40
-0.183023
 40
-0.183023
 40
-0.183023
 40
-0.155953
 40
-0.155953
 40
-0.155953
 40
-0.155953
 10
-68.1582
 20
-2.5
 30
13.85
 10
-67.9189
 20
-2.5
 30
14.7685
 10
-67.6216
 20
-2.5
 30
15.6084
 10
-67.2754
 20
-2.5
 30
16.35
  0
LINE
  5
B55
330
A02
100
AcDbEntity
  8
Solid
100
AcDbLine
 10
-67.2754
 20
-2.5
 30
16.35
 11
-9.77235
 21
-2.5
 31
16.35
  0
ARC
  5
B56
330
A02
100
AcDbEntity
  8
Solid
100
AcDbCircle
 10
-109.544
 20
-2.5
 30
23.1
 40
99.7719
100
AcDbArc
 50
-1.04561e-14
 51
-1.02216e-14
  0
SPLINE
  5
B57
330
A02
100
AcDbEntity
  8
Solid
100
AcDbSpline
210
0
220
0
230
1
 70
8
 71
2
 72
6
 73
3
 74
0
 40
0.846768
 40
0.846768
 40
0.846768
 40
0.863159
 40
0.863159
 40
0.863159
 10
15.3355
 20
-2.5
 30
-10.15
 10
14.8341
 20
-2.5
 30
-8.94876
 10
14.3945
 20
-2.5
 30
-7.65
  0
LINE
  5
B58
330
A02
100
AcDbEntity
  8
Solid
100
AcDbLine
 10
14.3945
 20
-2.5
 30
-7.65
 11
66.8136
 21
-2.5
 31
-7.65
  0
SPLINE
  5
B59
330
A02
100
AcDbEntity
  8
Solid
100
AcDbSpline
210
0
220
0
230
1
 70
8
 71
2
 72
6
 73
3
 74
0
 40
0.358693
 40
0.358693
 40
0.358693
 40
0.381645
 40
0.381645
 40
0.381645
 10
66.8136
 20
-2.5
 30
-7.65
 10
66.3632
 20
-2.5
 30
-8.95084
 10
65.8203
 20
-2.5
 30
-10.15
  0
LINE
  5
B5A
330
A02
100
AcDbEntity
  8
Solid
100
AcDbLine
 10
65.8203
 20
-2.5
 30
-10.15
 11
15.3355
 21
-2.5
 31
-10.15
  0
ARC
  5
B5B
330
A02
100
AcDbEntity
  8
Solid
100
AcDbCircle
 10
109.544
 20
-2.5
 30
23.1
 40
99.5713
100
AcDbArc
 50
180
 51
180
  0
LINE
  5
B5C
330
A02
100
AcDbEntity
  8
Solid
100
AcDbLine
 10
9.77235
 20
-2.5
 30
16.35
 11
67.2754
 21
-2.5
 31
16.35
  0
SPLINE
  5
B5D
330
A02
100
AcDbEntity
  8
Solid
100
AcDbSpline
210
0
220
0
230
1
 70
8
 71
3
 72
8
 73
4
 74
0
 40
0.155953
 40
0.155953
 40
0.155953
 40
0.155953
 40
0.183023
 40
0.183023
 40
0.183023
 40
0.183023
 10
67.2754
 20
-2.5
 30
16.35
 10
67.6216
 20
-2.5
 30
15.6084
 10
67.9189
 20
-2.5
 30
14.7685
 10
68.1582
 20
-2.5
 30
13.85
  0
LINE
  5
B5E
330
A02
100
AcDbEntity
  8
Solid
100
AcDbLine
 10
68.1582
 20
-2.5
 30
13.85
 11
9.97301
 21
-2.5
 31
13.85
  0
ARC
  5
B5F
330
A02
100
AcDbEntity
  8
Solid
100
AcDbCircle
 10
109.544
 20
-2.5
 30
23.1
 40
98.8303
100
AcDbArc
 50
180
 51
180
  0
LINE
  5
B60
330
A02
100
AcDbEntity
  8
Solid
100
AcDbLine
 10
10.3604
 20
-2.5
 30
10.35
 11
63.81
 21
-2.5
 31
10.35
  0
LINE
  5
B61
330
A02
100
AcDbEntity
  8
Solid
100
AcDbLine
 10
63.81
 20
-2.5
 30
10.35
 11
63.81
 21
-2.5
 31
7.85
  0
LINE
  5
B62
330
A02
100
AcDbEntity
  8
Solid
100
AcDbLine
 10
63.81
 20
-2.5
 30
7.85
 11
10.7139
 21
-2.5
 31
7.85
  0
SPLINE
  5
B63
330
A02
100
AcDbEntity
  8
Solid
100
AcDbSpline
210
0
220
0
230
1
 70
8
 71
2
 72
6
 73
3
 74
0
 40
0.799825
 40
0.799825
 40
0.799825
 40
0.82114
 40
0.82114
 40
0.82114
 10
18.8008
 20
-2.5
 30
-16.15
 10
17.8691
 20
-2.5
 30
-14.9966
 10
17.0739
 20
-2.5
 30
-13.65
  0
LINE
  5
B64
330
A02
100
AcDbEntity
  8
Solid
100
AcDbLine
 10
17.0739
 20
-2.5
 30
-13.65
 11
63.8858
 21
-2.5
 31
-13.65
  0
SPLINE
  5
B65
330
A02
100
AcDbEntity
  8
Solid
100
AcDbSpline
210
0
220
0
230
1
 70
8
 71
2
 72
6
 73
3
 74
0
 40
0.417498
 40
0.417498
 40
0.417498
 40
0.446839
 40
0.446839
 40
0.446839
 10
63.8858
 20
-2.5
 30
-13.65
 10
62.9952
 20
-2.5
 30
-14.9816
 10
61.9318
 20
-2.5
 30
-16.15
  0
LINE
  5
B66
330
A02
100
AcDbEntity
  8
Solid
100
AcDbLine
 10
61.9318
 20
-2.5
 30
-16.15
 11
18.8008
 21
-2.5
 31
-16.15
  0
LINE
  5
B67
330
A02
100
AcDbEntity
  8
Solid
100
AcDbLine
 10
-10.7139
 20
-2.5
 30
7.85
 11
-63.81
 21
-2.5
 31
7.85
  0
LINE
  5
B68
330
A02
100
AcDbEntity
  8
Solid
100
AcDbLine
 10
-63.81
 20
-2.5
 30
10.35
 11
-63.81
 21
-2.5
 31
7.85
  0
LINE
  5
B69
330
A02
100
AcDbEntity
  8
Solid
100
AcDbLine
 10
-63.81
 20
-2.5
 30
10.35
 11
-10.3604
 21
-2.5
 31
10.35
  0
ARC
  5
B6A
330
A02
100
AcDbEntity
  8
Solid
100
AcDbCircle
 10
-109.544
 20
-2.5
 30
23.1
 40
99.1839
100
AcDbArc
 50
-9.74845e-15
 51
-9.26841e-15
  0
LINE
  5
B6B
330
A02
100
AcDbEntity
  8
Solid
100
AcDbLine
 10
-18.8008
 20
-2.5
 30
-16.15
 11
-61.9318
 21
-2.5
 31
-16.15
  0
SPLINE
  5
B6C
330
A02
100
AcDbEntity
  8
Solid
100
AcDbSpline
210
0
220
0
230
1
 70
8
 71
2
 72
6
 73
3
 74
0
 40
-0.446839
 40
-0.446839
 40
-0.446839
 40
-0.417498
 40
-0.417498
 40
-0.417498
 10
-61.9318
 20
-2.5
 30
-16.15
 10
-62.9952
 20
-2.5
 30
-14.9816
 10
-63.8858
 20
-2.5
 30
-13.65
  0
LINE
  5
B6D
330
A02
100
AcDbEntity
  8
Solid
100
AcDbLine
 10
-63.8858
 20
-2.5
 30
-13.65
 11
-17.0739
 21
-2.5
 31
-13.65
  0
SPLINE
  5
B6E
330
A02
100
AcDbEntity
  8
Solid
100
AcDbSpline
210
0
220
0
230
1
 70
8
 71
2
 72
6
 73
3
 74
0
 40
-0.82114
 40
-0.82114
 40
-0.82114
 40
-0.799825
 40
-0.799825
 40
-0.799825
 10
-17.0739
 20
-2.5
 30
-13.65
 10
-17.8691
 20
-2.5
 30
-14.9966
 10
-18.8008
 20
-2.5
 30
-16.15
  0
LINE
  5
B6F
330
A02
100
AcDbEntity
  8
Solid
100
AcDbLine
 10
-13.3287
 20
-2.5
 30
-4.15
 11
-67.8203
 21
-2.5
 31
-4.15
  0
SPLINE
  5
B70
330
A02
100
AcDbEntity
  8
Solid
100
AcDbSpline
210
0
220
0
230
1
 70
8
 71
2
 72
6
 73
3
 74
0
 40
-0.329093
 40
-0.329093
 40
-0.329093
 40
-0.309055
 40
-0.309055
 40
-0.309055
 10
-67.8203
 20
-2.5
 30
-4.15
 10
-68.1086
 20
-2.5
 30
-2.92091
 10
-68.3263
 20
-2.5
 30
-1.65
  0
LINE
  5
B71
330
A02
100
AcDbEntity
  8
Solid
100
AcDbLine
 10
-68.3263
 20
-2.5
 30
-1.65
 11
-12.6555
 21
-2.5
 31
-1.65
  0
ARC
  5
B72
330
A02
100
AcDbEntity
  8
Solid
100
AcDbCircle
 10
-109.544
 20
-2.5
 30
23.1
 40
96.8888
100
AcDbArc
 50
-8.14106e-15
 51
-7.66912e-15
  0
LINE
  5
B73
330
A02
100
AcDbEntity
  8
Solid
100
AcDbLine
 10
-9.5971
 20
-2.5
 30
19.85
 11
-64.4165
 21
-2.5
 31
19.85
  0
SPLINE
  5
B74
330
A02
100
AcDbEntity
  8
Solid
100
AcDbSpline
210
0
220
0
230
1
 70
8
 71
3
 72
11
 73
7
 74
0
 40
-0.103487
 40
-0.103487
 40
-0.103487
 40
-0.103487
 40
-0.0642438
 40
-0.0642438
 40
-0.0642438
 40
-0.0471241
 40
-0.0471241
 40
-0.0471241
 40
-0.0471241
 10
-64.4165
 20
-2.5
 30
19.85
 10
-63.4109
 20
-2.5
 30
20.5704
 10
-62.0813
 20
-2.5
 30
21.2067
 10
-60.1474
 20
-2.5
 30
21.7375
 10
-59.3067
 20
-2.5
 30
21.9695
 10
-58.3454
 20
-2.5
 30
22.1736
 10
-57.2636
 20
-2.5
 30
22.35
  0
LINE
  5
B75
330
A02
100
AcDbEntity
  8
Solid
100
AcDbLine
 10
-57.2636
 20
-2.5
 30
22.35
 11
-9.54709
 21
-2.5
 31
22.35
  0
ARC
  5
B76
330
A02
100
AcDbEntity
  8
Solid
100
AcDbCircle
 10
-109.544
 20
-2.5
 30
23.1
 40
99.9972
100
AcDbArc
 50
-1.11959e-14
 51
-1.09469e-14
  0
ARC
  5
B77
330
A02
100
AcDbEntity
  8
Solid
100
AcDbCircle
 10
109.544
 20
-2.5
 30
23.1
 40
96.2156
100
AcDbArc
 50
180
 51
180
  0
LINE
  5
B78
330
A02
100
AcDbEntity
  8
Solid
100
AcDbLine
 10
12.6555
 20
-2.5
 30
-1.65
 11
68.3263
 21
-2.5
 31
-1.65
  0
SPLINE
  5
B79
330
A02
100
AcDbEntity
  8
Solid
100
AcDbSpline
210
0
220
0
230
1
 70
8
 71
2
 72
6
 73
3
 74
0
 40
0.309055
 40
0.309055
 40
0.309055
 40
0.329093
 40
0.329093
 40
0.329093
 10
68.3263
 20
-2.5
 30
-1.65
 10
68.1086
 20
-2.5
 30
-2.92091
 10
67.8203
 20
-2.5
 30
-4.15
  0
LINE
  5
B7A
330
A02
100
AcDbEntity
  8
Solid
100
AcDbLine
 10
67.8203
 20
-2.5
 30
-4.15
 11
13.3287
 21
-2.5
 31
-4.15
  0
ARC
  5
B7B
330
A02
100
AcDbEntity
  8
Solid
100
AcDbCircle
 10
109.544
 20
-2.5
 30
23.1
 40
99.9472
100
AcDbArc
 50
180
 51
180
  0
LINE
  5
B7C
330
A02
100
AcDbEntity
  8
Solid
100
AcDbLine
 10
9.54709
 20
-2.5
 30
22.35
 11
57.2636
 21
-2.5
 31
22.35
  0
SPLINE
  5
B7D
330
A02
100
AcDbEntity
  8
Solid
100
AcDbSpline
210
0
220
0
230
1
 70
8
 71
3
 72
11
 73
7
 74
0
 40
0.0471241
 40
0.0471241
 40
0.0471241
 40
0.0471241
 40
0.0642438
 40
0.0642438
 40
0.0642438
 40
0.103487
 40
0.103487
 40
0.103487
 40
0.103487
 10
57.2636
 20
-2.5
 30
22.35
 10
58.3454
 20
-2.5
 30
22.1736
 10
59.3067
 20
-2.5
 30
21.9695
 10
60.1474
 20
-2.5
 30
21.7375
 10
62.0813
 20
-2.5
 30
21.2067
 10
63.4109
 20
-2.5
 30
20.5704
 10
64.4165
 20
-2.5
 30
19.85
  0
LINE
  5
B7E
330
A02
100
AcDbEntity
  8
Solid
100
AcDbLine
 10
64.4165
 20
-2.5
 30
19.85
 11
9.5971
 21
-2.5
 31
19.85
  0
ARC
  5
B7F
330
A02
100
AcDbEntity
  8
Solid
100
AcDbCircle
 10
109.544
 20
-2.5
 30
23.1
 40
97.7161
100
AcDbArc
 50
180
 51
180
  0
LINE
  5
B80
330
A02
100
AcDbEntity
  8
Solid
100
AcDbLine
 10
11.3178
 20
-2.5
 30
4.35
 11
68.9571
 21
-2.5
 31
4.35
  0
SPLINE
  5
B81
330
A02
100
AcDbEntity
  8
Solid
100
AcDbSpline
210
0
220
0
230
1
 70
8
 71
2
 72
6
 73
3
 74
0
 40
0.262572
 40
0.262572
 40
0.262572
 40
0.281813
 40
0.281813
 40
0.281813
 10
68.9571
 20
-2.5
 30
4.35
 10
68.905
 20
-2.5
 30
3.09992
 10
68.7878
 20
-2.5
 30
1.85
  0
LINE
  5
B82
330
A02
100
AcDbEntity
  8
Solid
100
AcDbLine
 10
68.7878
 20
-2.5
 30
1.85
 11
11.8282
 21
-2.5
 31
1.85
  0
SPLINE
  5
B83
330
A02
100
AcDbEntity
  8
Solid
100
AcDbSpline
210
0
220
0
230
1
 70
8
 71
3
 72
8
 73
4
 74
0
 40
0.724899
 40
0.724899
 40
0.724899
 40
0.724899
 40
0.76252
 40
0.76252
 40
0.76252
 40
0.76252
 10
27.0889
 20
-2.5
 30
-22.15
 10
25.4187
 20
-2.5
 30
-21.4783
 10
23.8864
 20
-2.5
 30
-20.6499
 10
22.4993
 20
-2.5
 30
-19.65
  0
LINE
  5
B84
330
A02
100
AcDbEntity
  8
Solid
100
AcDbLine
 10
22.4993
 20
-2.5
 30
-19.65
 11
57.793
 21
-2.5
 31
-19.65
  0
SPLINE
  5
B85
330
A02
100
AcDbEntity
  8
Solid
100
AcDbSpline
210
0
220
0
230
1
 70
8
 71
2
 72
6
 73
3
 74
0
 40
0.496398
 40
0.496398
 40
0.496398
 40
0.543507
 40
0.543507
 40
0.543507
 10
57.793
 20
-2.5
 30
-19.65
 10
55.5546
 20
-2.5
 30
-21.1079
 10
52.7767
 20
-2.5
 30
-22.15
  0
LINE
  5
B86
330
A02
100
AcDbEntity
  8
Solid
100
AcDbLine
 10
52.7767
 20
-2.5
 30
-22.15
 11
27.0889
 21
-2.5
 31
-22.15
  0
LINE
  5
B87
330
A02
100
AcDbEntity
  8
Solid
100
AcDbLine
 10
-11.8282
 20
-2.5
 30
1.85
 11
-68.7878
 21
-2.5
 31
1.85
  0
SPLINE
  5
B88
330
A02
100
AcDbEntity
  8
Solid
100
AcDbSpline
210
0
220
0
230
1
 70
8
 71
2
 72
6
 73
3
 74
0
 40
-0.281813
 40
-0.281813
 40
-0.281813
 40
-0.262572
 40
-0.262572
 40
-0.262572
 10
-68.7878
 20
-2.5
 30
1.85
 10
-68.905
 20
-2.5
 30
3.09992
 10
-68.9571
 20
-2.5
 30
4.35
  0
LINE
  5
B89
330
A02
100
AcDbEntity
  8
Solid
100
AcDbLine
 10
-68.9571
 20
-2.5
 30
4.35
 11
-11.3178
 21
-2.5
 31
4.35
  0
ARC
  5
B8A
330
A02
100
AcDbEntity
  8
Solid
100
AcDbCircle
 10
-109.544
 20
-2.5
 30
23.1
 40
98.2265
100
AcDbArc
 50
-8.59292e-15
 51
-8.80731e-15
  0
LINE
  5
B8B
330
A02
100
AcDbEntity
  8
Solid
100
AcDbLine
 10
-27.0889
 20
-2.5
 30
-22.15
 11
-52.7767
 21
-2.5
 31
-22.15
  0
SPLINE
  5
B8C
330
A02
100
AcDbEntity
  8
Solid
100
AcDbSpline
210
0
220
0
230
1
 70
8
 71
2
 72
6
 73
3
 74
0
 40
-0.543507
 40
-0.543507
 40
-0.543507
 40
-0.496398
 40
-0.496398
 40
-0.496398
 10
-52.7767
 20
-2.5
 30
-22.15
 10
-55.5546
 20
-2.5
 30
-21.1079
 10
-57.793
 20
-2.5
 30
-19.65
  0
LINE
  5
B8D
330
A02
100
AcDbEntity
  8
Solid
100
AcDbLine
 10
-57.793
 20
-2.5
 30
-19.65
 11
-22.4993
 21
-2.5
 31
-19.65
  0
SPLINE
  5
B8E
330
A02
100
AcDbEntity
  8
Solid
100
AcDbSpline
210
0
220
0
230
1
 70
8
 71
3
 72
8
 73
4
 74
0
 40
-0.76252
 40
-0.76252
 40
-0.76252
 40
-0.76252
 40
-0.724899
 40
-0.724899
 40
-0.724899
 40
-0.724899
 10
-22.4993
 20
-2.5
 30
-19.65
 10
-23.8864
 20
-2.5
 30
-20.6499
 10
-25.4187
 20
-2.5
 30
-21.4783
 10
-27.0889
 20
-2.5
 30
-22.15
  0
CIRCLE
  5
B8F
330
A02
100
AcDbEntity
  8
Solid
100
AcDbCircle
 10
71.88
 20
-2.5
 40
0.825
  0
CIRCLE
  5
B90
330
A02
100
AcDbEntity
  8
Solid
100
AcDbCircle
 10
-75.5
 20
-2.5
 40
0.825
  0
CIRCLE
  5
B91
330
A02
100
AcDbEntity
  8
Solid
100
AcDbCircle
 10
75.5
 20
-2.5
 40
0.825
  0
CIRCLE
  5
B92
330
A02
100
AcDbEntity
  8
Solid
100
AcDbCircle
 10
-71.88
 20
-2.5
 40
0.825
  0
LINE
  5
B93
330
A02
100
AcDbEntity
  8
Solid
100
AcDbLine
 10
77.5
 20
-0.9
 30
13.1
 11
71.9129
 21
-0.9
 31
13.1
  0
LINE
  5
B94
330
A02
100
AcDbEntity
  8
Solid
100
AcDbLine
 10
77.5
 20
-0.9
 30
13.1
 11
77.5
 21
-0.9
 31
5.1
  0
LINE
  5
B95
330
A02
100
AcDbEntity
  8
Solid
100
AcDbLine
 10
77.5
 20
-0.9
 30
5.1
 11
72.4831
 21
-0.9
 31
5.1
  0
SPLINE
  5
B96
330
A02
100
AcDbEntity
  8
Solid
100
AcDbSpline
210
0
220
0
230
1
 70
8
 71
3
 72
50
 73
46
 74
0
 40
0.256136
 40
0.256136
 40
0.256136
 40
0.256136
 40
0.302627
 40
0.302627
 40
0.302627
 40
0.349119
 40
0.349119
 40
0.349119
 40
0.442102
 40
0.442102
 40
0.442102
 40
0.535085
 40
0.535085
 40
0.535085
 40
0.581576
 40
0.581576
 40
0.581576
 40
0.628068
 40
0.628068
 40
0.628068
 40
0.674559
 40
0.674559
 40
0.674559
 40
0.721051
 40
0.721051
 40
0.721051
 40
0.767542
 40
0.767542
 40
0.767542
 40
0.814034
 40
0.814034
 40
0.814034
 40
0.860525
 40
0.860525
 40
0.860525
 40
0.907017
 40
0.907017
 40
0.907017
 40
0.953508
 40
0.953508
 40
0.953508
 40
0.976754
 40
0.976754
 40
0.976754
 40
1
 40
1
 40
1
 40
1
 10
72.4831
 20
-0.9
 30
5.1
 10
72.432
 20
-0.9
 30
2.94789
 10
72.2425
 20
-0.9
 30
0.768498
 10
71.9177
 20
-0.9
 30
-1.36617
 10
71.5924
 20
-0.9
 30
-3.50144
 10
71.1302
 20
-0.9
 30
-5.59118
 10
70.5181
 20
-0.9
 30
-7.58029
 10
69.2945
 20
-0.9
 30
-11.564
 10
67.4649
 20
-0.9
 30
-15.127
 10
64.913
 20
-0.9
 30
-18.0641
 10
62.3665
 20
-0.9
 30
-21.0062
 10
59.0831
 20
-0.9
 30
-23.3384
 10
55.1014
 20
-0.9
 30
-24.9942
 10
53.1133
 20
-0.9
 30
-25.8222
 10
50.9552
 20
-0.9
 30
-26.4819
 10
48.662
 20
-0.9
 30
-26.9612
 10
46.3697
 20
-0.9
 30
-27.4401
 10
43.9418
 20
-0.9
 30
-27.739
 10
41.4409
 20
-0.9
 30
-27.8348
 10
38.9412
 20
-0.9
 30
-27.9299
 10
36.3681
 20
-0.9
 30
-27.8223
 10
33.8178
 20
-0.9
 30
-27.4711
 10
31.2683
 20
-0.9
 30
-27.1195
 10
28.7443
 20
-0.9
 30
-26.5223
 10
26.3685
 20
-0.9
 30
-25.6257
 10
23.9919
 20
-0.9
 30
-24.73
 10
21.7673
 20
-0.9
 30
-23.5318
 10
19.7981
 20
-0.9
 30
-22.002
 10
17.8264
 20
-0.9
 30
-20.4746
 10
16.1138
 20
-0.9
 30
-18.6126
 10
14.6949
 20
-0.9
 30
-16.4522
 10
13.2718
 20
-0.9
 30
-14.2957
 10
12.146
 20
-0.9
 30
-11.8377
 10
11.2338
 20
-0.9
 30
-9.2207
 10
10.3155
 20
-0.9
 30
-6.60897
 10
9.61444
 20
-0.9
 30
-3.83517
 10
8.87851
 20
-0.9
 30
-1.18866
 10
8.13481
 20
-0.9
 30
1.45114
 10
7.36002
 20
-0.9
 30
3.96677
 10
6.08431
 20
-0.9
 30
5.88116
 10
5.44394
 20
-0.9
 30
6.8362
 10
4.67381
 20
-0.9
 30
7.63704
 10
3.69078
 20
-0.9
 30
8.20317
 10
2.7071
 20
-0.9
 30
8.76875
 10
1.51063
 20
-0.9
 30
9.09971
 10
-2.22045e-15
 20
-0.9
 30
9.1
  0
SPLINE
  5
B97
330
A02
100
AcDbEntity
  8
Solid
100
AcDbSpline
210
0
220
0
230
1
 70
8
 71
3
 72
50
 73
46
 74
0
 40
0.256136
 40
0.256136
 40
0.256136
 40
0.256136
 40
0.302627
 40
0.302627
 40
0.302627
 40
0.349119
 40
0.349119
 40
0.349119
 40
0.442102
 40
0.442102
 40
0.442102
 40
0.535085
 40
0.535085
 40
0.535085
 40
0.581576
 40
0.581576
 40
0.581576
 40
0.628068
 40
0.628068
 40
0.628068
 40
0.674559
 40
0.674559
 40
0.674559
 40
0.721051
 40
0.721051
 40
0.721051
 40
0.767542
 40
0.767542
 40
0.767542
 40
0.814034
 40
0.814034
 40
0.814034
 40
0.860525
 40
0.860525
 40
0.860525
 40
0.907017
 40
0.907017
 40
0.907017
 40
0.953508
 40
0.953508
 40
0.953508
 40
0.976754
 40
0.976754
 40
0.976754
 40
1
 40
1
 40
1
 40
1
 10
-72.4831
 20
-0.9
 30
5.1
 10
-72.432
 20
-0.9
 30
2.94789
 10
-72.2425
 20
-0.9
 30
0.768498
 10
-71.9177
 20
-0.9
 30
-1.36617
 10
-71.5924
 20
-0.9
 30
-3.50144
 10
-71.1302
 20
-0.9
 30
-5.59118
 10
-70.5181
 20
-0.9
 30
-7.58029
 10
-69.2945
 20
-0.9
 30
-11.564
 10
-67.4649
 20
-0.9
 30
-15.127
 10
-64.913
 20
-0.9
 30
-18.0641
 10
-62.3665
 20
-0.9
 30
-21.0062
 10
-59.0831
 20
-0.9
 30
-23.3384
 10
-55.1014
 20
-0.9
 30
-24.9942
 10
-53.1133
 20
-0.9
 30
-25.8222
 10
-50.9552
 20
-0.9
 30
-26.4819
 10
-48.662
 20
-0.9
 30
-26.9612
 10
-46.3697
 20
-0.9
 30
-27.4401
 10
-43.9418
 20
-0.9
 30
-27.739
 10
-41.4409
 20
-0.9
 30
-27.8348
 10
-38.9412
 20
-0.9
 30
-27.9299
 10
-36.3681
 20
-0.9
 30
-27.8223
 10
-33.8178
 20
-0.9
 30
-27.4711
 10
-31.2683
 20
-0.9
 30
-27.1195
 10
-28.7443
 20
-0.9
 30
-26.5223
 10
-26.3685
 20
-0.9
 30
-25.6257
 10
-23.9919
 20
-0.9
 30
-24.73
 10
-21.7673
 20
-0.9
 30
-23.5318
 10
-19.7981
 20
-0.9
 30
-22.002
 10
-17.8264
 20
-0.9
 30
-20.4746
 10
-16.1138
 20
-0.9
 30
-18.6126
 10
-14.6949
 20
-0.9
 30
-16.4522
 10
-13.2718
 20
-0.9
 30
-14.2957
 10
-12.146
 20
-0.9
 30
-11.8377
 10
-11.2338
 20
-0.9
 30
-9.2207
 10
-10.3155
 20
-0.9
 30
-6.60897
 10
-9.61444
 20
-0.9
 30
-3.83517
 10
-8.87851
 20
-0.9
 30
-1.18866
 10
-8.13481
 20
-0.9
 30
1.45114
 10
-7.36002
 20
-0.9
 30
3.96677
 10
-6.08431
 20
-0.9
 30
5.88116
 10
-5.44394
 20
-0.9
 30
6.8362
 10
-4.67381
 20
-0.9
 30
7.63704
 10
-3.69078
 20
-0.9
 30
8.20317
 10
-2.7071
 20
-0.9
 30
8.76875
 10
-1.51063
 20
-0.9
 30
9.09971
 10
-2.22045e-15
 20
-0.9
 30
9.1
  0
LINE
  5
B98
330
A02
100
AcDbEntity
  8
Solid
100
AcDbLine
 10
-77.5
 20
-0.9
 30
5.1
 11
-72.4831
 21
-0.9
 31
5.1
  0
LINE
  5
B99
330
A02
100
AcDbEntity
  8
Solid
100
AcDbLine
 10
-77.5
 20
-0.9
 30
13.1
 11
-77.5
 21
-0.9
 31
5.1
  0
LINE
  5
B9A
330
A02
100
AcDbEntity
  8
Solid
100
AcDbLine
 10
-77.5
 20
-0.9
 30
13.1
 11
-71.9129
 21
-0.9
 31
13.1
  0
SPLINE
  5
B9B
330
A02
100
AcDbEntity
  8
Solid
100
AcDbSpline
210
0
220
0
230
1
 70
8
 71
3
 72
17
 73
13
 74
0
 40
0
 40
0
 40
0
 40
0
 40
0.0490799
 40
0.0490799
 40
0.0490799
 40
0.0981598
 40
0.0981598
 40
0.0981598
 40
0.14724
 40
0.14724
 40
0.14724
 40
0.19632
 40
0.19632
 40
0.19632
 40
0.19632
 10
-45
 20
-0.9
 30
26.6
 10
-50.6414
 20
-0.9
 30
26.6011
 10
-54.8896
 20
-0.9
 30
26.325
 10
-58.2312
 20
-0.9
 30
25.7403
 10
-61.5678
 20
-0.9
 30
25.1575
 10
-63.996
 20
-0.9
 30
24.2672
 10
-65.86
 20
-0.9
 30
23.0899
 10
-67.7196
 20
-0.9
 30
21.9139
 10
-69.0132
 20
-0.9
 30
20.452
 10
-69.9655
 20
-0.9
 30
18.7627
 10
-70.9144
 20
-0.9
 30
17.0742
 10
-71.5204
 20
-0.9
 30
15.1592
 10
-71.9129
 20
-0.9
 30
13.1
  0
LINE
  5
B9C
330
A02
100
AcDbEntity
  8
Solid
100
AcDbLine
 10
45
 20
-0.9
 30
26.6
 11
-45
 21
-0.9
 31
26.6
  0
SPLINE
  5
B9D
330
A02
100
AcDbEntity
  8
Solid
100
AcDbSpline
210
0
220
0
230
1
 70
8
 71
3
 72
17
 73
13
 74
0
 40
0
 40
0
 40
0
 40
0
 40
0.0490799
 40
0.0490799
 40
0.0490799
 40
0.0981598
 40
0.0981598
 40
0.0981598
 40
0.14724
 40
0.14724
 40
0.14724
 40
0.19632
 40
0.19632
 40
0.19632
 40
0.19632
 10
45
 20
-0.9
 30
26.6
 10
50.6414
 20
-0.9
 30
26.6011
 10
54.8896
 20
-0.9
 30
26.325
 10
58.2312
 20
-0.9
 30
25.7403
 10
61.5678
 20
-0.9
 30
25.1575
 10
63.996
 20
-0.9
 30
24.2672
 10
65.86
 20
-0.9
 30
23.0899
 10
67.7196
 20
-0.9
 30
21.9139
 10
69.0132
 20
-0.9
 30
20.452
 10
69.9655
 20
-0.9
 30
18.7627
 10
70.9144
 20
-0.9
 30
17.0742
 10
71.5204
 20
-0.9
 30
15.1592
 10
71.9129
 20
-0.9
 30
13.1
  0
LINE
  5
B9E
330
A02
100
AcDbEntity
  8
Solid
100
AcDbLine
 10
-65.8203
 20
-0.9
 30
-10.15
 11
-15.3355
 21
-0.9
 31
-10.15
  0
SPLINE
  5
B9F
330
A02
100
AcDbEntity
  8
Solid
100
AcDbSpline
210
0
220
0
230
1
 70
8
 71
2
 72
6
 73
3
 74
0
 40
0.846768
 40
0.846768
 40
0.846768
 40
0.863159
 40
0.863159
 40
0.863159
 10
-15.3355
 20
-0.9
 30
-10.15
 10
-14.8341
 20
-0.9
 30
-8.94876
 10
-14.3945
 20
-0.9
 30
-7.65
  0
LINE
  5
BA0
330
A02
100
AcDbEntity
  8
Solid
100
AcDbLine
 10
-14.3945
 20
-0.9
 30
-7.65
 11
-66.8136
 21
-0.9
 31
-7.65
  0
SPLINE
  5
BA1
330
A02
100
AcDbEntity
  8
Solid
100
AcDbSpline
210
0
220
0
230
1
 70
8
 71
2
 72
6
 73
3
 74
0
 40
0.358693
 40
0.358693
 40
0.358693
 40
0.381645
 40
0.381645
 40
0.381645
 10
-66.8136
 20
-0.9
 30
-7.65
 10
-66.3632
 20
-0.9
 30
-8.95084
 10
-65.8203
 20
-0.9
 30
-10.15
  0
LINE
  5
BA2
330
A02
100
AcDbEntity
  8
Solid
100
AcDbLine
 10
-68.1582
 20
-0.9
 30
13.85
 11
-9.97301
 21
-0.9
 31
13.85
  0
ARC
  5
BA3
330
A02
100
AcDbEntity
  8
Solid
100
AcDbCircle
 10
-109.544
 20
-0.9
 30
23.1
 40
99.5713
100
AcDbArc
 50
-1.04561e-14
 51
-1.01577e-14
  0
LINE
  5
BA4
330
A02
100
AcDbEntity
  8
Solid
100
AcDbLine
 10
-9.77235
 20
-0.9
 30
16.35
 11
-67.2754
 21
-0.9
 31
16.35
  0
SPLINE
  5
BA5
330
A02
100
AcDbEntity
  8
Solid
100
AcDbSpline
210
0
220
0
230
1
 70
8
 71
3
 72
8
 73
4
 74
0
 40
0.155953
 40
0.155953
 40
0.155953
 40
0.155953
 40
0.183023
 40
0.183023
 40
0.183023
 40
0.183023
 10
-67.2754
 20
-0.9
 30
16.35
 10
-67.6216
 20
-0.9
 30
15.6084
 10
-67.9189
 20
-0.9
 30
14.7685
 10
-68.1582
 20
-0.9
 30
13.85
  0
SPLINE
  5
BA6
330
A02
100
AcDbEntity
  8
Solid
100
AcDbSpline
210
0
220
0
230
1
 70
8
 71
2
 72
6
 73
3
 74
0
 40
-0.863159
 40
-0.863159
 40
-0.863159
 40
-0.846768
 40
-0.846768
 40
-0.846768
 10
14.3945
 20
-0.9
 30
-7.65
 10
14.8341
 20
-0.9
 30
-8.94876
 10
15.3355
 20
-0.9
 30
-10.15
  0
LINE
  5
BA7
330
A02
100
AcDbEntity
  8
Solid
100
AcDbLine
 10
15.3355
 20
-0.9
 30
-10.15
 11
65.8203
 21
-0.9
 31
-10.15
  0
SPLINE
  5
BA8
330
A02
100
AcDbEntity
  8
Solid
100
AcDbSpline
210
0
220
0
230
1
 70
8
 71
2
 72
6
 73
3
 74
0
 40
-0.381645
 40
-0.381645
 40
-0.381645
 40
-0.358693
 40
-0.358693
 40
-0.358693
 10
65.8203
 20
-0.9
 30
-10.15
 10
66.3632
 20
-0.9
 30
-8.95084
 10
66.8136
 20
-0.9
 30
-7.65
  0
LINE
  5
BA9
330
A02
100
AcDbEntity
  8
Solid
100
AcDbLine
 10
66.8136
 20
-0.9
 30
-7.65
 11
14.3945
 21
-0.9
 31
-7.65
  0
ARC
  5
BAA
330
A02
100
AcDbEntity
  8
Solid
100
AcDbCircle
 10
109.544
 20
-0.9
 30
23.1
 40
99.7719
100
AcDbArc
 50
180
 51
180
  0
LINE
  5
BAB
330
A02
100
AcDbEntity
  8
Solid
100
AcDbLine
 10
9.97301
 20
-0.9
 30
13.85
 11
68.1582
 21
-0.9
 31
13.85
  0
SPLINE
  5
BAC
330
A02
100
AcDbEntity
  8
Solid
100
AcDbSpline
210
0
220
0
230
1
 70
8
 71
3
 72
8
 73
4
 74
0
 40
-0.183023
 40
-0.183023
 40
-0.183023
 40
-0.183023
 40
-0.155953
 40
-0.155953
 40
-0.155953
 40
-0.155953
 10
68.1582
 20
-0.9
 30
13.85
 10
67.9189
 20
-0.9
 30
14.7685
 10
67.6216
 20
-0.9
 30
15.6084
 10
67.2754
 20
-0.9
 30
16.35
  0
LINE
  5
BAD
330
A02
100
AcDbEntity
  8
Solid
100
AcDbLine
 10
67.2754
 20
-0.9
 30
16.35
 11
9.77235
 21
-0.9
 31
16.35
  0
ARC
  5
BAE
330
A02
100
AcDbEntity
  8
Solid
100
AcDbCircle
 10
109.544
 20
-0.9
 30
23.1
 40
99.1839
100
AcDbArc
 50
180
 51
180
  0
LINE
  5
BAF
330
A02
100
AcDbEntity
  8
Solid
100
AcDbLine
 10
10.7139
 20
-0.9
 30
7.85
 11
63.81
 21
-0.9
 31
7.85
  0
LINE
  5
BB0
330
A02
100
AcDbEntity
  8
Solid
100
AcDbLine
 10
63.81
 20
-0.9
 30
7.85
 11
63.81
 21
-0.9
 31
10.35
  0
LINE
  5
BB1
330
A02
100
AcDbEntity
  8
Solid
100
AcDbLine
 10
63.81
 20
-0.9
 30
10.35
 11
10.3604
 21
-0.9
 31
10.35
  0
SPLINE
  5
BB2
330
A02
100
AcDbEntity
  8
Solid
100
AcDbSpline
210
0
220
0
230
1
 70
8
 71
2
 72
6
 73
3
 74
0
 40
-0.82114
 40
-0.82114
 40
-0.82114
 40
-0.799825
 40
-0.799825
 40
-0.799825
 10
17.0739
 20
-0.9
 30
-13.65
 10
17.8691
 20
-0.9
 30
-14.9966
 10
18.8008
 20
-0.9
 30
-16.15
  0
LINE
  5
BB3
330
A02
100
AcDbEntity
  8
Solid
100
AcDbLine
 10
18.8008
 20
-0.9
 30
-16.15
 11
61.9318
 21
-0.9
 31
-16.15
  0
SPLINE
  5
BB4
330
A02
100
AcDbEntity
  8
Solid
100
AcDbSpline
210
0
220
0
230
1
 70
8
 71
2
 72
6
 73
3
 74
0
 40
-0.446839
 40
-0.446839
 40
-0.446839
 40
-0.417498
 40
-0.417498
 40
-0.417498
 10
61.9318
 20
-0.9
 30
-16.15
 10
62.9952
 20
-0.9
 30
-14.9816
 10
63.8858
 20
-0.9
 30
-13.65
  0
LINE
  5
BB5
330
A02
100
AcDbEntity
  8
Solid
100
AcDbLine
 10
63.8858
 20
-0.9
 30
-13.65
 11
17.0739
 21
-0.9
 31
-13.65
  0
LINE
  5
BB6
330
A02
100
AcDbEntity
  8
Solid
100
AcDbLine
 10
-63.81
 20
-0.9
 30
7.85
 11
-10.7139
 21
-0.9
 31
7.85
  0
ARC
  5
BB7
330
A02
100
AcDbEntity
  8
Solid
100
AcDbCircle
 10
-109.544
 20
-0.9
 30
23.1
 40
98.8303
100
AcDbArc
 50
-9.68431e-15
 51
-9.33277e-15
  0
LINE
  5
BB8
330
A02
100
AcDbEntity
  8
Solid
100
AcDbLine
 10
-10.3604
 20
-0.9
 30
10.35
 11
-63.81
 21
-0.9
 31
10.35
  0
LINE
  5
BB9
330
A02
100
AcDbEntity
  8
Solid
100
AcDbLine
 10
-63.81
 20
-0.9
 30
10.35
 11
-63.81
 21
-0.9
 31
7.85
  0
LINE
  5
BBA
330
A02
100
AcDbEntity
  8
Solid
100
AcDbLine
 10
-61.9318
 20
-0.9
 30
-16.15
 11
-18.8008
 21
-0.9
 31
-16.15
  0
SPLINE
  5
BBB
330
A02
100
AcDbEntity
  8
Solid
100
AcDbSpline
210
0
220
0
230
1
 70
8
 71
2
 72
6
 73
3
 74
0
 40
0.799825
 40
0.799825
 40
0.799825
 40
0.82114
 40
0.82114
 40
0.82114
 10
-18.8008
 20
-0.9
 30
-16.15
 10
-17.8691
 20
-0.9
 30
-14.9966
 10
-17.0739
 20
-0.9
 30
-13.65
  0
LINE
  5
BBC
330
A02
100
AcDbEntity
  8
Solid
100
AcDbLine
 10
-17.0739
 20
-0.9
 30
-13.65
 11
-63.8858
 21
-0.9
 31
-13.65
  0
SPLINE
  5
BBD
330
A02
100
AcDbEntity
  8
Solid
100
AcDbSpline
210
0
220
0
230
1
 70
8
 71
2
 72
6
 73
3
 74
0
 40
0.417498
 40
0.417498
 40
0.417498
 40
0.446839
 40
0.446839
 40
0.446839
 10
-63.8858
 20
-0.9
 30
-13.65
 10
-62.9952
 20
-0.9
 30
-14.9816
 10
-61.9318
 20
-0.9
 30
-16.15
  0
LINE
  5
BBE
330
A02
100
AcDbEntity
  8
Solid
100
AcDbLine
 10
-67.8203
 20
-0.9
 30
-4.15
 11
-13.3287
 21
-0.9
 31
-4.15
  0
ARC
  5
BBF
330
A02
100
AcDbEntity
  8
Solid
100
AcDbCircle
 10
-109.544
 20
-0.9
 30
23.1
 40
96.2156
100
AcDbArc
 50
-8.07541e-15
 51
-7.73523e-15
  0
LINE
  5
BC0
330
A02
100
AcDbEntity
  8
Solid
100
AcDbLine
 10
-12.6555
 20
-0.9
 30
-1.65
 11
-68.3263
 21
-0.9
 31
-1.65
  0
SPLINE
  5
BC1
330
A02
100
AcDbEntity
  8
Solid
100
AcDbSpline
210
0
220
0
230
1
 70
8
 71
2
 72
6
 73
3
 74
0
 40
0.309055
 40
0.309055
 40
0.309055
 40
0.329093
 40
0.329093
 40
0.329093
 10
-68.3263
 20
-0.9
 30
-1.65
 10
-68.1086
 20
-0.9
 30
-2.92091
 10
-67.8203
 20
-0.9
 30
-4.15
  0
LINE
  5
BC2
330
A02
100
AcDbEntity
  8
Solid
100
AcDbLine
 10
-64.4165
 20
-0.9
 30
19.85
 11
-9.5971
 21
-0.9
 31
19.85
  0
ARC
  5
BC3
330
A02
100
AcDbEntity
  8
Solid
100
AcDbCircle
 10
-109.544
 20
-0.9
 30
23.1
 40
99.9472
100
AcDbArc
 50
-1.11959e-14
 51
-1.08832e-14
  0
LINE
  5
BC4
330
A02
100
AcDbEntity
  8
Solid
100
AcDbLine
 10
-9.54709
 20
-0.9
 30
22.35
 11
-57.2636
 21
-0.9
 31
22.35
  0
SPLINE
  5
BC5
330
A02
100
AcDbEntity
  8
Solid
100
AcDbSpline
210
0
220
0
230
1
 70
8
 71
3
 72
11
 73
7
 74
0
 40
0.0471241
 40
0.0471241
 40
0.0471241
 40
0.0471241
 40
0.0642438
 40
0.0642438
 40
0.0642438
 40
0.103487
 40
0.103487
 40
0.103487
 40
0.103487
 10
-57.2636
 20
-0.9
 30
22.35
 10
-58.3454
 20
-0.9
 30
22.1736
 10
-59.3067
 20
-0.9
 30
21.9695
 10
-60.1474
 20
-0.9
 30
21.7375
 10
-62.0813
 20
-0.9
 30
21.2067
 10
-63.4109
 20
-0.9
 30
20.5704
 10
-64.4165
 20
-0.9
 30
19.85
  0
ARC
  5
BC6
330
A02
100
AcDbEntity
  8
Solid
100
AcDbCircle
 10
109.544
 20
-0.9
 30
23.1
 40
96.8888
100
AcDbArc
 50
180
 51
180
  0
LINE
  5
BC7
330
A02
100
AcDbEntity
  8
Solid
100
AcDbLine
 10
13.3287
 20
-0.9
 30
-4.15
 11
67.8203
 21
-0.9
 31
-4.15
  0
SPLINE
  5
BC8
330
A02
100
AcDbEntity
  8
Solid
100
AcDbSpline
210
0
220
0
230
1
 70
8
 71
2
 72
6
 73
3
 74
0
 40
-0.329093
 40
-0.329093
 40
-0.329093
 40
-0.309055
 40
-0.309055
 40
-0.309055
 10
67.8203
 20
-0.9
 30
-4.15
 10
68.1086
 20
-0.9
 30
-2.92091
 10
68.3263
 20
-0.9
 30
-1.65
  0
LINE
  5
BC9
330
A02
100
AcDbEntity
  8
Solid
100
AcDbLine
 10
68.3263
 20
-0.9
 30
-1.65
 11
12.6555
 21
-0.9
 31
-1.65
  0
ARC
  5
BCA
330
A02
100
AcDbEntity
  8
Solid
100
AcDbCircle
 10
109.544
 20
-0.9
 30
23.1
 40
99.9972
100
AcDbArc
 50
180
 51
180
  0
LINE
  5
BCB
330
A02
100
AcDbEntity
  8
Solid
100
AcDbLine
 10
9.5971
 20
-0.9
 30
19.85
 11
64.4165
 21
-0.9
 31
19.85
  0
SPLINE
  5
BCC
330
A02
100
AcDbEntity
  8
Solid
100
AcDbSpline
210
0
220
0
230
1
 70
8
 71
3
 72
11
 73
7
 74
0
 40
-0.103487
 40
-0.103487
 40
-0.103487
 40
-0.103487
 40
-0.0642438
 40
-0.0642438
 40
-0.0642438
 40
-0.0471241
 40
-0.0471241
 40
-0.0471241
 40
-0.0471241
 10
64.4165
 20
-0.9
 30
19.85
 10
63.4109
 20
-0.9
 30
20.5704
 10
62.0813
 20
-0.9
 30
21.2067
 10
60.1474
 20
-0.9
 30
21.7375
 10
59.3067
 20
-0.9
 30
21.9695
 10
58.3454
 20
-0.9
 30
22.1736
 10
57.2636
 20
-0.9
 30
22.35
  0
LINE
  5
BCD
330
A02
100
AcDbEntity
  8
Solid
100
AcDbLine
 10
57.2636
 20
-0.9
 30
22.35
 11
9.54709
 21
-0.9
 31
22.35
  0
ARC
  5
BCE
330
A02
100
AcDbEntity
  8
Solid
100
AcDbCircle
 10
109.544
 20
-0.9
 30
23.1
 40
98.2265
100
AcDbArc
 50
180
 51
180
  0
LINE
  5
BCF
330
A02
100
AcDbEntity
  8
Solid
100
AcDbLine
 10
11.8282
 20
-0.9
 30
1.85
 11
68.7878
 21
-0.9
 31
1.85
  0
SPLINE
  5
BD0
330
A02
100
AcDbEntity
  8
Solid
100
AcDbSpline
210
0
220
0
230
1
 70
8
 71
2
 72
6
 73
3
 74
0
 40
-0.281813
 40
-0.281813
 40
-0.281813
 40
-0.262572
 40
-0.262572
 40
-0.262572
 10
68.7878
 20
-0.9
 30
1.85
 10
68.905
 20
-0.9
 30
3.09992
 10
68.9571
 20
-0.9
 30
4.35
  0
LINE
  5
BD1
330
A02
100
AcDbEntity
  8
Solid
100
AcDbLine
 10
68.9571
 20
-0.9
 30
4.35
 11
11.3178
 21
-0.9
 31
4.35
  0
SPLINE
  5
BD2
330
A02
100
AcDbEntity
  8
Solid
100
AcDbSpline
210
0
220
0
230
1
 70
8
 71
3
 72
8
 73
4
 74
0
 40
-0.76252
 40
-0.76252
 40
-0.76252
 40
-0.76252
 40
-0.724899
 40
-0.724899
 40
-0.724899
 40
-0.724899
 10
22.4993
 20
-0.9
 30
-19.65
 10
23.8864
 20
-0.9
 30
-20.6499
 10
25.4187
 20
-0.9
 30
-21.4783
 10
27.0889
 20
-0.9
 30
-22.15
  0
LINE
  5
BD3
330
A02
100
AcDbEntity
  8
Solid
100
AcDbLine
 10
27.0889
 20
-0.9
 30
-22.15
 11
52.7767
 21
-0.9
 31
-22.15
  0
SPLINE
  5
BD4
330
A02
100
AcDbEntity
  8
Solid
100
AcDbSpline
210
0
220
0
230
1
 70
8
 71
2
 72
6
 73
3
 74
0
 40
-0.543507
 40
-0.543507
 40
-0.543507
 40
-0.496398
 40
-0.496398
 40
-0.496398
 10
52.7767
 20
-0.9
 30
-22.15
 10
55.5546
 20
-0.9
 30
-21.1079
 10
57.793
 20
-0.9
 30
-19.65
  0
LINE
  5
BD5
330
A02
100
AcDbEntity
  8
Solid
100
AcDbLine
 10
57.793
 20
-0.9
 30
-19.65
 11
22.4993
 21
-0.9
 31
-19.65
  0
LINE
  5
BD6
330
A02
100
AcDbEntity
  8
Solid
100
AcDbLine
 10
-68.7878
 20
-0.9
 30
1.85
 11
-11.8282
 21
-0.9
 31
1.85
  0
ARC
  5
BD7
330
A02
100
AcDbEntity
  8
Solid
100
AcDbCircle
 10
-109.544
 20
-0.9
 30
23.1
 40
97.7161
100
AcDbArc
 50
-8.87207e-15
 51
-8.52782e-15
  0
LINE
  5
BD8
330
A02
100
AcDbEntity
  8
Solid
100
AcDbLine
 10
-11.3178
 20
-0.9
 30
4.35
 11
-68.9571
 21
-0.9
 31
4.35
  0
SPLINE
  5
BD9
330
A02
100
AcDbEntity
  8
Solid
100
AcDbSpline
210
0
220
0
230
1
 70
8
 71
2
 72
6
 73
3
 74
0
 40
0.262572
 40
0.262572
 40
0.262572
 40
0.281813
 40
0.281813
 40
0.281813
 10
-68.9571
 20
-0.9
 30
4.35
 10
-68.905
 20
-0.9
 30
3.09992
 10
-68.7878
 20
-0.9
 30
1.85
  0
LINE
  5
BDA
330
A02
100
AcDbEntity
  8
Solid
100
AcDbLine
 10
-52.7767
 20
-0.9
 30
-22.15
 11
-27.0889
 21
-0.9
 31
-22.15
  0
SPLINE
  5
BDB
330
A02
100
AcDbEntity
  8
Solid
100
AcDbSpline
210
0
220
0
230
1
 70
8
 71
3
 72
8
 73
4
 74
0
 40
0.724899
 40
0.724899
 40
0.724899
 40
0.724899
 40
0.76252
 40
0.76252
 40
0.76252
 40
0.76252
 10
-27.0889
 20
-0.9
 30
-22.15
 10
-25.4187
 20
-0.9
 30
-21.4783
 10
-23.8864
 20
-0.9
 30
-20.6499
 10
-22.4993
 20
-0.9
 30
-19.65
  0
LINE
  5
BDC
330
A02
100
AcDbEntity
  8
Solid
100
AcDbLine
 10
-22.4993
 20
-0.9
 30
-19.65
 11
-57.793
 21
-0.9
 31
-19.65
  0
SPLINE
  5
BDD
330
A02
100
AcDbEntity
  8
Solid
100
AcDbSpline
210
0
220
0
230
1
 70
8
 71
2
 72
6
 73
3
 74
0
 40
0.496398
 40
0.496398
 40
0.496398
 40
0.543507
 40
0.543507
 40
0.543507
 10
-57.793
 20
-0.9
 30
-19.65
 10
-55.5546
 20
-0.9
 30
-21.1079
 10
-52.7767
 20
-0.9
 30
-22.15
  0
CIRCLE
  5
BDE
330
A02
100
AcDbEntity
  8
Solid
100
AcDbCircle
 10
71.88
 20
-0.9
 40
0.825
  0
CIRCLE
  5
BDF
330
A02
100
AcDbEntity
  8
Solid
100
AcDbCircle
 10
-75.5
 20
-0.9
 40
0.825
  0
CIRCLE
  5
BE0
330
A02
100
AcDbEntity
  8
Solid
100
AcDbCircle
 10
75.5
 20
-0.9
 40
0.825
  0
CIRCLE
  5
BE1
330
A02
100
AcDbEntity
  8
Solid
100
AcDbCircle
 10
-71.88
 20
-0.9
 40
0.825
  0
ENDSEC
  0
SECTION
  2
OBJECTS
  0
DICTIONARY
  5
F000
330
0
100
AcDbDictionary
  3
ACAD_GROUP
350
F001
  0
DICTIONARY
  5
F001
330
F000
100
AcDbDictionary
  0
ENDSEC
  0
EOF