0
SECTION
2
HEADER
9
$INSUNITS
70
4
9
$ACADVER
1
AC1014
9
$HANDSEED
5
FFFF
0
ENDSEC
0
SECTION
2
TABLES
0
TABLE
2
VPORT
5
8
100
AcDbSymbolTable
0
ENDTAB
0
TABLE
2
LTYPE
5
5
100
AcDbSymbolTable
0
LTYPE
5
14
100
AcDbSymbolTableRecord
100
AcDbLinetypeTableRecord
2
BYBLOCK
70
0
0
LTYPE
5
15
100
AcDbSymbolTableRecord
100
AcDbLinetypeTableRecord
2
BYLAYER
70
0
0
ENDTAB
0
TABLE
2
LAYER
5
2
100
AcDbSymbolTable
70
2
0
LAYER
5
50
100
AcDbSymbolTableRecord
100
AcDbLayerTableRecord
2
0
70
0
6
CONTINUOUS
0
ENDTAB
0
TABLE
2
STYLE
5
3
100
AcDbSymbolTable
70
1
0
STYLE
5
11
100
AcDbSymbolTableRecord
100
AcDbTextStyleTableRecord
2
STANDARD
70
0
0
ENDTAB
0
TABLE
2
VIEW
5
6
100
AcDbSymbolTable
70
0
0
ENDTAB
0
TABLE
2
UCS
5
7
100
AcDbSymbolTable
70
0
0
ENDTAB
0
TABLE
2
APPID
5
9
100
AcDbSymbolTable
70
2
0
APPID
5
12
100
AcDbSymbolTableRecord
100
AcDbRegAppTableRecord
2
ACAD
70
0
0
ENDTAB
0
TABLE
2
DIMSTYLE
5
A
100
AcDbSymbolTable
70
1
0
ENDTAB
0
TABLE
2
BLOCK_RECORD
5
1
100
AcDbSymbolTable
70
1
0
BLOCK_RECORD
5
1F
100
AcDbSymbolTableRecord
100
AcDbBlockTableRecord
2
*MODEL_SPACE
0
BLOCK_RECORD
5
1B
100
AcDbSymbolTableRecord
100
AcDbBlockTableRecord
2
*PAPER_SPACE
0
ENDTAB
0
ENDSEC
0
SECTION
2
BLOCKS
0
BLOCK
5
20
100
AcDbEntity
100
AcDbBlockBegin
2
*MODEL_SPACE
0
ENDBLK
5
21
100
AcDbEntity
100
AcDbBlockEnd
0
BLOCK
5
1C
100
AcDbEntity
100
AcDbBlockBegin
2
*PAPER_SPACE
0
ENDBLK
5
1D
100
AcDbEntity
100
AcDbBlockEnd
0
ENDSEC
0
SECTION
2
ENTITIES
0
LINE
5
100
100
AcDbEntity
8
0
100
AcDbLine
10
-15.335508442668544
20
-10.150000000000041
30
-5.5511151231257827e-16
11
-65.820315618863816
21
-10.150000000000052
31
-5.5511151231257778e-16
0
SPLINE
5
101
100
AcDbEntity
8
0
100
AcDbSpline
70
0
71
3
72
11
73
7
74
0
42
0.000000001
43
0.0000000001
44
0.0000000001
40
-0.38164533257239619
40
-0.38164533257239619
40
-0.38164533257239619
40
-0.38164533257239619
40
-0.36347198542535791
40
-0.36347198542535791
40
-0.36347198542535791
40
-0.35869338075472901
40
-0.35869338075472901
40
-0.35869338075472901
40
-0.35869338075472901
10
-65.820315618863816
20
-10.15000000000005
30
0
10
-66.107064643218393
20
-9.5169795958182632
30
0
10
-66.374028209362095
20
-8.8627732008120574
30
5.5511151231257827e-16
10
-66.622043711368249
20
-8.1872651883898779
30
0
10
-66.687258337308407
20
-8.0096432172091898
30
0
10
-66.751122734809542
20
-7.8305297552595432
30
0
10
-66.813637986775035
20
-7.650000000016103
30
0
0
LINE
5
102
100
AcDbEntity
8
0
100
AcDbLine
10
-66.813637986775035
20
-7.6500000000161039
30
0
11
-14.394473105417465
21
-7.6500000000000412
31
-2.4651903288156619e-31
0
SPLINE
5
103
100
AcDbEntity
8
0
100
AcDbSpline
70
0
71
3
72
11
73
7
74
0
42
0.000000001
43
0.0000000001
44
0.0000000001
40
-0.86315855090612092
40
-0.86315855090612092
40
-0.86315855090612092
40
-0.86315855090612092
40
-0.86214533693894324
40
-0.86214533693894324
40
-0.86214533693894324
40
-0.84676824432074238
40
-0.84676824432074238
40
-0.84676824432074238
40
-0.84676824432074238
10
-14.394473105417466
20
-7.6500000000000732
30
0
10
-14.412605994667786
20
-7.7034879847061211
30
0
10
-14.430816322704628
20
-7.7568643602229521
30
0
10
-14.449106871193951
20
-7.8101270418754254
30
0
10
-14.726694298202542
20
-8.6184708028139188
30
-5.5511151231257827e-16
10
-15.021525931739689
20
-9.3990286057443182
30
0
10
-15.335508442668546
20
-10.150000000000048
30
-5.5511151231257827e-16
0
LINE
5
104
100
AcDbEntity
8
0
100
AcDbLine
10
-9.9730059088752867
20
13.849999999999962
30
0
11
-68.158202362035439
21
13.849999999999952
31
4.9303806576313238e-31
0
SPLINE
5
105
100
AcDbEntity
8
0
100
AcDbSpline
70
0
71
3
72
11
73
7
74
0
42
0.000000001
43
0.0000000001
44
0.0000000001
40
-0.18302341457696594
40
-0.18302341457696594
40
-0.18302341457696594
40
-0.18302341457696594
40
-0.16636565525713423
40
-0.16636565525713423
40
-0.16636565525713423
40
-0.15595309471313312
40
-0.15595309471313312
40
-0.15595309471313312
40
-0.15595309471313312
10
-68.158202362035439
20
13.849999999999952
30
-5.5511151231257827e-16
10
-68.01050616521438
20
14.414927594511635
30
0
10
-67.842256049410537
20
14.950682158794233
30
0
10
-67.652633390906345
20
15.451853201733599
30
0
10
-67.534102598482264
20
15.765129058786805
30
0
10
-67.408853395123217
20
16.064090800972625
30
0
10
-67.275362967472446
20
16.349999999999945
30
0
0
LINE
5
106
100
AcDbEntity
8
0
100
AcDbLine
10
-67.275362967472446
20
16.349999999999945
30
0
11
-9.7723469406708041
21
16.349999999999962
31
-4.9303806576313238e-31
0
ARC
5
107
100
AcDbEntity
8
0
100
AcDbCircle
10
-109.54427435520188
20
23.100000000003771
30
-4.2586336142371394e-42
40
100.00000000005252
210
6.4334658043204001e-35
220
6.9252794710037689e-34
230
1
100
AcDbArc
50
354.69255332537028
51
356.1295919886889
0
SPLINE
5
108
100
AcDbEntity
8
0
100
AcDbSpline
70
0
71
3
72
11
73
7
74
0
42
0.000000001
43
0.0000000001
44
0.0000000001
40
0.84676824432074227
40
0.84676824432074227
40
0.84676824432074227
40
0.84676824432074227
40
0.86214533693895845
40
0.86214533693895845
40
0.86214533693895845
40
0.86315855090612092
40
0.86315855090612092
40
0.86315855090612092
40
0.86315855090612092
10
15.335508442668559
20
-10.150000000000041
30
0
10
15.02152593173939
20
-9.3990286057435632
30
5.5511151231257827e-16
10
14.726694298201968
20
-8.6184708028123573
30
0
10
14.449106871193129
20
-7.8101270418730095
30
0
10
14.430816322704082
20
-7.756864360221333
30
0
10
14.412605994667517
20
-7.7034879847053013
30
0
10
14.394473105417468
20
-7.6500000000000572
30
0
0
LINE
5
109
100
AcDbEntity
8
0
100
AcDbLine
10
14.394473105417468
20
-7.6500000000000572
30
0
11
66.813637986780549
21
-7.6500000000000243
31
-2.4651903288156619e-31
0
SPLINE
5
110
100
AcDbEntity
8
0
100
AcDbSpline
70
0
71
3
72
11
73
7
74
0
42
0.000000001
43
0.0000000001
44
0.0000000001
40
0.35869338075472901
40
0.35869338075472901
40
0.35869338075472901
40
0.35869338075472901
40
0.3634719854253573
40
0.3634719854253573
40
0.3634719854253573
40
0.38164533257239625
40
0.38164533257239625
40
0.38164533257239625
40
0.38164533257239625
10
66.813637986775007
20
-7.6500000000160719
30
0
10
66.751122734809542
20
-7.830529755259489
30
0
10
66.687258337308407
20
-8.0096432172091134
30
0
10
66.622043711368249
20
-8.1872651883897785
30
-5.5511151231257827e-16
10
66.374028209362095
20
-8.8627732008119846
30
0
10
66.107064643218379
20
-9.5169795958182135
30
0
10
65.820315618863802
20
-10.150000000000023
30
0
0
LINE
5
111
100
AcDbEntity
8
0
100
AcDbLine
10
65.820315618863802
20
-10.150000000000023
30
-2.5936145451744463e-32
11
15.335508442668559
21
-10.150000000000041
31
0
0
ARC
5
112
100
AcDbEntity
8
0
100
AcDbCircle
10
109.54427435507127
20
23.099999999994019
30
2.3988478086160462e-42
40
99.99999999992167
210
-9.2048298000935027e-33
220
-8.5511289531045178e-34
230
1
100
AcDbArc
50
183.87040801131062
51
185.307446674631
0
LINE
5
113
100
AcDbEntity
8
0
100
AcDbLine
10
9.7723469406707153
20
16.349999999999973
30
-9.2415562271778171e-31
11
67.275362967472475
21
16.349999999999977
31
-4.9303806576313238e-31
0
SPLINE
5
114
100
AcDbEntity
8
0
100
AcDbSpline
70
0
71
3
72
11
73
7
74
0
42
0.000000001
43
0.0000000001
44
0.0000000001
40
0.15595309471313326
40
0.15595309471313326
40
0.15595309471313326
40
0.15595309471313326
40
0.16636565525713348
40
0.16636565525713348
40
0.16636565525713348
40
0.18302341457696608
40
0.18302341457696608
40
0.18302341457696608
40
0.18302341457696608
10
67.275362967472475
20
16.349999999999977
30
-5.5511151231257827e-16
10
67.408853395123231
20
16.064090800972682
30
0
10
67.534102598482264
20
15.765129058786886
30
0
10
67.652633390906331
20
15.451853201733709
30
0
10
67.842256049410537
20
14.950682158794319
30
0
10
68.01050616521438
20
14.414927594511695
30
0
10
68.158202362035453
20
13.84999999999998
30
0
0
LINE
5
115
100
AcDbEntity
8
0
100
AcDbLine
10
68.158202362035453
20
13.84999999999998
30
0
11
9.9730059088752103
21
13.849999999999877
31
-9.2444637330587321e-31
0
LWPOLYLINE
5
116
100
AcDbEntity
8
0
100
AcDbPolyline
90
4
70
1
43
0.0
10
10.360417301695382
20
10.349999999999948
42
0.0063124269149287668
10
10.713927295149563
20
7.8500000000005361
10
63.810000000000088
20
7.8500000000000032
10
63.810000000000088
20
10.349999999999975
0
SPLINE
5
117
100
AcDbEntity
8
0
100
AcDbSpline
70
0
71
3
72
11
73
7
74
0
42
0.000000001
43
0.0000000001
44
0.0000000001
40
0.79982498945364355
40
0.79982498945364355
40
0.79982498945364355
40
0.79982498945364355
40
0.80424509088196316
40
0.80424509088196316
40
0.80424509088196316
40
0.82113950440329531
40
0.82113950440329531
40
0.82113950440329531
40
0.82113950440329531
10
18.800816425266479
20
-16.150000000000038
30
-5.5511151231257827e-16
10
18.671833011193243
20
-15.990380408553754
30
-5.5511151231257827e-16
10
18.544892819986941
20
-15.82814903805431
30
-5.5511151231257827e-16
10
18.42000242711854
20
-15.663278260922555
30
-5.5511151231257827e-16
10
17.942649140960448
20
-15.033112837884708
30
0
10
17.494777094367628
20
-14.361224169332868
30
0
10
17.073857674145849
20
-13.650000000000036
30
0
0
LINE
5
118
100
AcDbEntity
8
0
100
AcDbLine
10
17.073857674145849
20
-13.650000000000036
30
5.7824847733914445e-32
11
63.885773829950097
21
-13.650000000000027
31
0
0
SPLINE
5
119
100
AcDbEntity
8
0
100
AcDbSpline
70
0
71
3
72
8
73
4
74
0
42
0.000000001
43
0.0000000001
44
0.0000000001
40
0.4174978006391768
40
0.4174978006391768
40
0.4174978006391768
40
0.4174978006391768
40
0.44683945666673874
40
0.44683945666673874
40
0.44683945666673874
40
0.44683945666673874
10
63.885773829950097
20
-13.650000000000023
30
-5.5511151231257827e-16
10
63.291502698536689
20
-14.537803081556467
30
0
10
62.641349431486915
20
-15.370974201912851
30
0
10
61.93178967921834
20
-16.149999999967942
30
0
0
LINE
5
120
100
AcDbEntity
8
0
100
AcDbLine
10
61.93178967921834
20
-16.149999999967942
30
-1.0084044055349866e-31
11
18.800816425266479
21
-16.150000000000038
31
-5.5511151231257827e-16
0
LWPOLYLINE
5
121
100
AcDbEntity
8
0
100
AcDbPolyline
90
4
70
1
43
0.0
10
-10.713927295149743
20
7.8499999999999623
10
-63.809999999999988
20
7.8499999999999526
10
-63.809999999999988
20
10.349999999999952
10
-10.360417301695538
20
10.350000000000064
42
-0.0063124269149210654
0
LINE
5
122
100
AcDbEntity
8
0
100
AcDbLine
10
-18.800816425266472
20
-16.150000000000048
30
0
11
-61.931789679189123
21
-16.150000000000059
31
0
0
SPLINE
5
123
100
AcDbEntity
8
0
100
AcDbSpline
70
0
71
3
72
8
73
4
74
0
42
0.000000001
43
0.0000000001
44
0.0000000001
40
-0.44683945666673858
40
-0.44683945666673858
40
-0.44683945666673858
40
-0.44683945666673858
40
-0.41749780063917658
40
-0.41749780063917658
40
-0.41749780063917658
40
-0.41749780063917658
10
-61.931789679218348
20
-16.149999999967964
30
0
10
-62.641349431486944
20
-15.370974201912873
30
0
10
-63.291502698536718
20
-14.537803081556488
30
0
10
-63.885773829950132
20
-13.650000000000047
30
0
0
LINE
5
124
100
AcDbEntity
8
0
100
AcDbLine
10
-63.885773829950132
20
-13.650000000000047
30
0
11
-17.073857674145856
21
-13.650000000000045
31
0
0
SPLINE
5
125
100
AcDbEntity
8
0
100
AcDbSpline
70
0
71
3
72
11
73
7
74
0
42
0.000000001
43
0.0000000001
44
0.0000000001
40
-0.82113950440329531
40
-0.82113950440329531
40
-0.82113950440329531
40
-0.82113950440329531
40
-0.80424509088194562
40
-0.80424509088194562
40
-0.80424509088194562
40
-0.79982498945364355
40
-0.79982498945364355
40
-0.79982498945364355
40
-0.79982498945364355
10
-17.073857674145842
20
-13.650000000000045
30
-5.5511151231257827e-16
10
-17.494777094368061
20
-14.361224169333614
30
0
10
-17.942649140961375
20
-15.033112837886112
30
0
10
-18.420002427120018
20
-15.663278260924534
30
0
10
-18.544892819987943
20
-15.828149038055612
30
0
10
-18.671833011193748
20
-15.990380408554401
30
0
10
-18.800816425266468
20
-16.150000000000052
30
0
0
LINE
5
126
100
AcDbEntity
8
0
100
AcDbLine
10
-13.328696094661954
20
-4.1500000000000412
30
5.5511151231257827e-16
11
-67.82033109827475
21
-4.1500000000000519
31
5.5511151231257866e-16
0
SPLINE
5
127
100
AcDbEntity
8
0
100
AcDbSpline
70
0
71
3
72
8
73
4
74
0
42
0.000000001
43
0.0000000001
44
0.0000000001
40
-0.32909262416482549
40
-0.32909262416482549
40
-0.32909262416482549
40
-0.32909262416482549
40
-0.30905508022837308
40
-0.30905508022837308
40
-0.30905508022837308
40
-0.30905508022837308
10
-67.82033109827475
20
-4.1500000000000519
30
0
10
-68.01255654276801
20
-3.3315308046169498
30
0
10
-68.18117824499484
20
-2.4963494279205847
30
0
10
-68.326276044833179
20
-1.6500000000000516
30
0
0
LINE
5
128
100
AcDbEntity
8
0
100
AcDbLine
10
-68.326276044833179
20
-1.6500000000000519
30
0
11
-12.655485013967187
21
-1.6500000000000403
31
-4.9303806576313238e-31
0
ARC
5
129
100
AcDbEntity
8
0
100
AcDbCircle
10
-109.54427435520188
20
23.100000000003771
30
-4.2586336142371394e-42
40
100.00000000005144
210
-5.3410375156182654e-18
220
1.5126788710504066e-18
230
1
100
AcDbArc
50
344.18691427080734
51
345.67037576527099
0
LINE
5
130
100
AcDbEntity
8
0
100
AcDbLine
10
-9.5971008083202527
20
19.849999999999966
30
0
11
-64.416530743963861
21
19.849999999999955
31
9.8607613152626476e-31
0
SPLINE
5
131
100
AcDbEntity
8
0
100
AcDbSpline
70
0
71
3
72
11
73
7
74
0
42
0.000000001
43
0.0000000001
44
0.0000000001
40
-0.10348724249874663
40
-0.10348724249874663
40
-0.10348724249874663
40
-0.10348724249874663
40
-0.064243792727767465
40
-0.064243792727767465
40
-0.064243792727767465
40
-0.047124122152018361
40
-0.047124122152018361
40
-0.047124122152018361
40
-0.047124122152018361
10
-64.416530743937471
20
19.850000000018863
30
0
10
-63.410938680982085
20
20.570399135081502
30
5.5511151231257827e-16
10
-62.081300173907579
20
21.206672344001625
30
0
10
-60.147422464945095
20
21.737510811943935
30
-5.5511151231257827e-16
10
-59.303782328707499
20
21.969085246738615
30
0
10
-58.348349495870906
20
22.173992232233857
30
0
10
-57.263583341538066
20
22.349999999999941
30
0
0
LINE
5
132
100
AcDbEntity
8
0
100
AcDbLine
10
-57.263583341538066
20
22.349999999999941
30
-3.3900654764812242e-32
11
-9.547086894701371
21
22.349999999999966
31
9.8607613152626476e-31
0
ARC
5
133
100
AcDbEntity
8
0
100
AcDbCircle
10
-109.54427435520188
20
23.100000000003771
30
-4.2586336142371394e-42
40
100.00000000005249
210
-1.6281649203728223e-33
220
-5.0070917493845574e-32
230
1
100
AcDbArc
50
358.13755920046685
51
359.57027762493829
0
ARC
5
134
100
AcDbEntity
8
0
100
AcDbCircle
10
109.54427435507127
20
23.099999999994019
30
2.3988478086160462e-42
40
99.999999999922821
210
-2.3718971300957684e-32
220
-6.7176436460330534e-33
230
1
100
AcDbArc
50
194.32962423474214
51
195.81308572920716
0
LINE
5
135
100
AcDbEntity
8
0
100
AcDbLine
10
12.655485013967098
20
-1.6500000000000181
30
-2.4643640940030631e-30
11
68.326276044833151
21
-1.6500000000000246
31
5.5511151231257788e-16
0
SPLINE
5
136
100
AcDbEntity
8
0
100
AcDbSpline
70
0
71
3
72
8
73
4
74
0
42
0.000000001
43
0.0000000001
44
0.0000000001
40
0.30905508022837314
40
0.30905508022837314
40
0.30905508022837314
40
0.30905508022837314
40
0.32909262416482554
40
0.32909262416482554
40
0.32909262416482554
40
0.32909262416482554
10
68.326276044833151
20
-1.6500000000000239
30
5.5511151231257827e-16
10
68.181178244994811
20
-2.496349427920558
30
0
10
68.012556542767996
20
-3.3315308046169245
30
0
10
67.820331098274721
20
-4.1500000000000279
30
0
0
LINE
5
137
100
AcDbEntity
8
0
100
AcDbLine
10
67.820331098274721
20
-4.1500000000000288
30
-1.3235630758729811e-31
11
13.328696094661618
21
-4.1499999999991761
31
-2.4651903288156615e-30
0
ARC
5
138
100
AcDbEntity
8
0
100
AcDbCircle
10
109.54427435507127
20
23.099999999994019
30
2.3988478086160462e-42
40
99.99999999992184
210
-3.3878460772814824e-32
220
-1.1016319281888993e-33
230
1
100
AcDbArc
50
180.42972237505666
51
181.86244079952982
0
LINE
5
139
100
AcDbEntity
8
0
100
AcDbLine
10
9.5470868947012733
20
22.350000000000001
30
-3.3885770167116911e-30
11
57.263583341537995
21
22.34999999999998
31
9.8607613152626476e-31
0
SPLINE
5
140
100
AcDbEntity
8
0
100
AcDbSpline
70
0
71
3
72
11
73
7
74
0
42
0.000000001
43
0.0000000001
44
0.0000000001
40
0.047124122152018659
40
0.047124122152018659
40
0.047124122152018659
40
0.047124122152018659
40
0.064243792727766591
40
0.064243792727766591
40
0.064243792727766591
40
0.10348724249874663
40
0.10348724249874663
40
0.10348724249874663
40
0.10348724249874663
10
57.263583341538094
20
22.349999999999959
30
0
10
58.348349495870877
20
22.173992232233893
30
0
10
59.303782328707406
20
21.969085246738665
30
0
10
60.14742246494496
20
21.737510811944006
30
0
10
62.081300173907536
20
21.206672344001689
30
5.5511151231257827e-16
10
63.410938680982063
20
20.570399135081541
30
0
10
64.416530743937471
20
19.850000000018884
30
0
0
LINE
5
141
100
AcDbEntity
8
0
100
AcDbLine
10
64.416530743937471
20
19.850000000018888
30
-1.3483629073644422e-31
11
9.5971008083201443
21
19.850000000000239
31
-3.3896367021215351e-30
0
ARC
5
142
100
AcDbEntity
8
0
100
AcDbCircle
10
109.54427435507127
20
23.099999999994019
30
2.3988478086160462e-42
40
99.999999999922153
210
-4.2155540192172164e-32
220
-9.1674265352952867e-33
230
1
100
AcDbArc
50
190.80692287486534
51
192.2688989959623
0
LINE
5
143
100
AcDbEntity
8
0
100
AcDbLine
10
11.317814070763674
20
4.3499999999999623
30
-4.3126787419842651e-30
11
68.957109114861652
21
4.3499999999999766
31
-4.9303806576313238e-31
0
SPLINE
5
144
100
AcDbEntity
8
0
100
AcDbSpline
70
0
71
3
72
11
73
7
74
0
42
0.000000001
43
0.0000000001
44
0.0000000001
40
0.26257176011041267
40
0.26257176011041267
40
0.26257176011041267
40
0.26257176011041267
40
0.27161635594265277
40
0.27161635594265277
40
0.27161635594265277
40
0.28181272284796277
40
0.28181272284796277
40
0.28181272284796277
40
0.28181272284796277
10
68.957109114859762
20
4.3499999999541439
30
-5.5511151231257827e-16
10
68.940850719481645
20
3.9589719650227866
30
-5.5511151231257827e-16
10
68.919685290331131
20
3.5669605891931848
30
0
10
68.893743866860305
20
3.1748319453337119
30
5.5511151231257827e-16
10
68.864498970055564
20
2.7327682422082895
30
5.5511151231257827e-16
10
68.829201382484101
20
2.2909140847405118
30
0
10
68.787840583975708
20
1.8499999999999788
30
0
0
LINE
5
145
100
AcDbEntity
8
0
100
AcDbLine
10
68.787840583975694
20
1.8499999999999786
30
-1.1155150463554515e-31
11
11.828167699183851
21
1.8500000000006929
31
-4.3140830754274083e-30
0
SPLINE
5
146
100
AcDbEntity
8
0
100
AcDbSpline
70
0
71
3
72
11
73
7
74
0
42
0.000000001
43
0.0000000001
44
0.0000000001
40
0.72489876045540114
40
0.72489876045540114
40
0.72489876045540114
40
0.72489876045540114
40
0.72986228497599392
40
0.72986228497599392
40
0.72986228497599392
40
0.76251981995605744
40
0.76251981995605744
40
0.76251981995605744
40
0.76251981995605744
10
27.088923796706624
20
-22.149999999998794
30
0
10
26.868787434010425
20
-22.061528869025405
30
0
10
26.650829190816729
20
-21.970224052534604
30
5.5511151231257827e-16
10
26.435204340137943
20
-21.876052643361191
30
5.5511151231257827e-16
10
25.016499531811064
20
-21.256451374858703
30
0
10
23.703649988428431
20
-20.518148110779837
30
0
10
22.499307751765176
20
-19.650000000000038
30
0
0
LINE
5
147
100
AcDbEntity
8
0
100
AcDbLine
10
22.499307751765176
20
-19.650000000000041
30
3.7101953679076824e-32
11
57.792954053622182
21
-19.650000000000034
31
4.9303806576313238e-31
0
SPLINE
5
148
100
AcDbEntity
8
0
100
AcDbSpline
70
0
71
3
72
8
73
4
74
0
42
0.000000001
43
0.0000000001
44
0.0000000001
40
0.49639761938901389
40
0.49639761938901389
40
0.49639761938901389
40
0.49639761938901389
40
0.54350674879903815
40
0.54350674879903815
40
0.54350674879903815
40
0.54350674879903815
10
57.792954053622182
20
-19.650000000000038
30
0
10
56.299690510149404
20
-20.620324838473252
30
0
10
54.629740323867679
20
-21.456866803513563
30
5.5511151231257827e-16
10
52.776744740461012
20
-22.150000000000038
30
0
0
LINE
5
149
100
AcDbEntity
8
0
100
AcDbLine
10
52.776744740461019
20
-22.150000000000038
30
-3.623353778676601e-31
11
27.088923796706624
21
-22.149999999998794
31
0
0
LINE
5
150
100
AcDbEntity
8
0
100
AcDbLine
10
-11.828167699184107
20
1.8499999999999606
30
0
11
-68.787840583975722
21
1.8499999999999495
31
4.9303806576313238e-31
0
SPLINE
5
151
100
AcDbEntity
8
0
100
AcDbSpline
70
0
71
3
72
11
73
7
74
0
42
0.000000001
43
0.0000000001
44
0.0000000001
40
-0.28181272284796272
40
-0.28181272284796272
40
-0.28181272284796272
40
-0.28181272284796272
40
-0.27161635594265243
40
-0.27161635594265243
40
-0.27161635594265243
40
-0.26257176011041261
40
-0.26257176011041261
40
-0.26257176011041261
40
-0.26257176011041261
10
-68.787840583975722
20
1.8499999999999492
30
0
10
-68.829201382484101
20
2.2909140847404941
30
0
10
-68.864498970055578
20
2.7327682422082837
30
0
10
-68.893743866860319
20
3.174831945333719
30
0
10
-68.919685290331159
20
3.5669605891931804
30
5.5511151231257827e-16
10
-68.940850719481659
20
3.9589719650227702
30
0
10
-68.957109114859762
20
4.3499999999541155
30
0
0
LINE
5
152
100
AcDbEntity
8
0
100
AcDbLine
10
-68.957109114859776
20
4.3499999999541146
30
4.0225095750571861e-32
11
-11.317814070763781
21
4.3499999999999615
31
-4.9303806576313238e-31
0
ARC
5
153
100
AcDbEntity
8
0
100
AcDbCircle
10
-109.54427435520188
20
23.100000000003771
30
-4.2586336142371394e-42
40
100.00000000005201
210
6.6826684168382043e-35
220
3.0729616009049866e-34
230
1
100
AcDbArc
50
347.73110100404773
51
349.19307712514319
0
LINE
5
154
100
AcDbEntity
8
0
100
AcDbLine
10
-27.088923796709675
20
-22.150000000000048
30
5.5511151231257827e-16
11
-52.776744740461083
21
-22.150000000000052
31
5.5511151231257827e-16
0
SPLINE
5
155
100
AcDbEntity
8
0
100
AcDbSpline
70
0
71
3
72
8
73
4
74
0
42
0.000000001
43
0.0000000001
44
0.0000000001
40
-0.5435067487990376
40
-0.5435067487990376
40
-0.5435067487990376
40
-0.5435067487990376
40
-0.49639761938901372
40
-0.49639761938901372
40
-0.49639761938901372
40
-0.49639761938901372
10
-52.776744740461069
20
-22.150000000000034
30
0
10
-54.629740323867736
20
-21.45686680351357
30
0
10
-56.299690510149446
20
-20.620324838473259
30
0
10
-57.792954053622196
20
-19.650000000000055
30
0
0
LINE
5
156
100
AcDbEntity
8
0
100
AcDbLine
10
-57.792954053622204
20
-19.650000000000059
30
0
11
-22.499307751765155
21
-19.650000000000048
31
-4.9303806576313238e-31
0
SPLINE
5
157
100
AcDbEntity
8
0
100
AcDbSpline
70
0
71
3
72
11
73
7
74
0
42
0.000000001
43
0.0000000001
44
0.0000000001
40
-0.76251981995605767
40
-0.76251981995605767
40
-0.76251981995605767
40
-0.76251981995605767
40
-0.72986228497597083
40
-0.72986228497597083
40
-0.72986228497597083
40
-0.72489876045540147
40
-0.72489876045540147
40
-0.72489876045540147
40
-0.72489876045540147
10
-22.499307751765151
20
-19.650000000000041
30
0
10
-23.70364998842927
20
-20.518148110780459
30
-5.5511151231257827e-16
10
-25.016499531812919
20
-21.256451374859765
30
5.5511151231257827e-16
10
-26.435204340140945
20
-21.876052643362524
30
0
10
-26.650829190818733
20
-21.970224052535464
30
0
10
-26.868787434011409
20
-22.061528869025821
30
5.5511151231257827e-16
10
-27.088923796706577
20
-22.149999999998805
30
5.5511151231257827e-16
0
CIRCLE
5
158
100
AcDbEntity
8
0
100
AcDbCircle
10
71.879999999999995
20
9.1000000000000156
30
-5.5511151231257827e-16
40
0.82499999999999574
210
1.917370255745514e-32
220
3.7843708527290564e-48
230
1
0
CIRCLE
5
159
100
AcDbEntity
8
0
100
AcDbCircle
10
-75.5
20
9.0999999999999872
30
0
40
0.82499999999999574
210
1.917370255745514e-32
220
3.7843708527290564e-48
230
1
0
CIRCLE
5
160
100
AcDbEntity
8
0
100
AcDbCircle
10
75.5
20
9.1000000000000174
30
-5.5511151231257827e-16
40
0.82499999999999574
210
1.917370255745514e-32
220
3.7843708527290564e-48
230
1
0
CIRCLE
5
161
100
AcDbEntity
8
0
100
AcDbCircle
10
-71.879999999999995
20
9.0999999999999872
30
0
40
0.82499999999999574
210
1.917370255745514e-32
220
3.7843708527290564e-48
230
1
0
LINE
5
162
100
AcDbEntity
8
0
100
AcDbLine
10
77.5
20
13.100000000000016
30
0
11
71.912898569916734
21
13.100000000000014
31
0
0
SPLINE
5
163
100
AcDbEntity
8
0
100
AcDbSpline
70
4
71
5
72
12
73
6
74
0
42
0.000000001
43
0.0000000001
44
0.0000000001
40
-0.1963195375771713
40
-0.1963195375771713
40
-0.1963195375771713
40
-0.1963195375771713
40
-0.1963195375771713
40
-0.1963195375771713
40
0
40
0
40
0
40
0
40
0
40
0
41
1
41
1
41
1
41
1
41
1
41
1
10
71.912898569910666
20
13.100000000031905
30
0
10
70.974297675987629
20
18.041496431907944
30
0
10
68.97232560808105
20
22.297612645031293
30
-5.5511151231257827e-16
10
65.328087359192395
20
25.299229071835153
30
0
10
58.546048092824833
20
26.600000000000016
30
-5.5511151231257827e-16
10
44.999999999999993
20
26.600000000000009
30
0
0
LINE
5
164
100
AcDbEntity
8
0
100
AcDbLine
10
44.999999999999993
20
26.600000000000016
30
-5.5351188691996344e-30
11
-45.000000000000007
21
26.599999999999994
31
0
0
SPLINE
5
165
100
AcDbEntity
8
0
100
AcDbSpline
70
4
71
5
72
12
73
6
74
0
42
0.000000001
43
0.0000000001
44
0.0000000001
40
0
40
0
40
0
40
0
40
0
40
0
40
0.1963195375771718
40
0.1963195375771718
40
0.1963195375771718
40
0.1963195375771718
40
0.1963195375771718
40
0.1963195375771718
41
1
41
1
41
1
41
1
41
1
41
1
10
-45.000000000000007
20
26.599999999999994
30
0
10
-58.546048092824876
20
26.599999999999994
30
0
10
-65.328087359192423
20
25.299229071835121
30
0
10
-68.972325608081064
20
22.297612645031244
30
0
10
-70.974297675987657
20
18.04149643190787
30
0
10
-71.912898569910681
20
13.100000000031805
30
5.5511151231257827e-16
0
LINE
5
166
100
AcDbEntity
8
0
100
AcDbLine
10
-71.912898569910681
20
13.100000000031802
30
5.5511151231257837e-16
11
-77.499999999999986
21
13.099999999999985
31
5.5511151231257827e-16
0
LINE
5
167
100
AcDbEntity
8
0
100
AcDbLine
10
-77.499999999999986
20
13.099999999999985
30
5.5511151231257827e-16
11
-77.499999999999986
21
5.0999999999999854
31
5.5511151231257827e-16
0
LINE
5
168
100
AcDbEntity
8
0
100
AcDbLine
10
-77.499999999999986
20
5.0999999999999854
30
5.5511151231257827e-16
11
-72.483054594481516
21
5.099999999999989
31
0
0
SPLINE
5
169
100
AcDbEntity
8
0
100
AcDbSpline
70
4
71
5
72
14
73
8
74
0
42
0.000000001
43
0.0000000001
44
0.0000000001
40
0.25613592411112041
40
0.25613592411112041
40
0.25613592411112041
40
0.25613592411112041
40
0.25613592411112041
40
0.25613592411112041
40
0.33333333333333331
40
0.66666666666666663
40
1
40
1
40
1
40
1
40
1
40
1
41
1
41
1
41
1
41
1
41
1
41
1
41
1
41
1
10
-72.48305459448153
20
5.099999999999981
30
0
10
-72.432648812480323
20
2.9560891151585746
30
0
10
-71.543628858311507
20
-8.5696166583304709
30
-5.5511151231257827e-16
10
-64.363669753754778
20
-28.856664301310929
30
0
10
-44.631844553332769
20
-31.90000000000002
30
0
10
6.1185624468230916e-15
20
-31.900000000000013
30
0
10
-13.000000000000004
20
9.0999999999999996
30
0
10
-1.97372982155583e-15
20
9.1000000000000032
30
0
0
SPLINE
5
170
100
AcDbEntity
8
0
100
AcDbSpline
70
4
71
5
72
14
73
8
74
0
42
0.000000001
43
0.0000000001
44
0.0000000001
40
-1
40
-1
40
-1
40
-1
40
-1
40
-1
40
-0.66666666666666663
40
-0.33333333333333331
40
-0.25613592411112041
40
-0.25613592411112041
40
-0.25613592411112041
40
-0.25613592411112041
40
-0.25613592411112041
40
-0.25613592411112041
41
1
41
1
41
1
41
1
41
1
41
1
41
1
41
1
10
-1.97372982155583e-15
20
9.1000000000000032
30
0
10
12.999999999999998
20
9.100000000000005
30
-5.5511151231257827e-16
10
3.6748829756076948e-15
20
-31.900000000000006
30
0
10
44.631844553332783
20
-31.899999999999995
30
0
10
64.363669753754806
20
-28.856664301310889
30
0
10
71.543628858311507
20
-8.5696166583304283
30
0
10
72.432648812480323
20
2.9560891151586155
30
0
10
72.483054594481516
20
5.1000000000000174
30
0
0
LINE
5
171
100
AcDbEntity
8
0
100
AcDbLine
10
72.48305459448153
20
5.1000000000000121
30
0
11
77.5
21
5.1000000000000174
31
-5.917124788004178e-48
0
LINE
5
172
100
AcDbEntity
8
0
100
AcDbLine
10
77.5
20
5.1000000000000174
30
-5.917124788004178e-48
11
77.5
21
13.100000000000016
31
0
0
ENDSEC
0
SECTION
2
OBJECTS
0
DICTIONARY
5
C
100
AcDbDictionary
3
ACAD_GROUP
350
D
3
ACAD_MLINESTYLE
350
17
0
DICTIONARY
5
D
100
AcDbDictionary
0
DICTIONARY
5
1A
330
C
100
AcDbDictionary
0
DICTIONARY
5
17
100
AcDbDictionary
0
ENDSEC
0
EOF
