999
FreeCAD v0.20 29410 (Git)
  0
SECTION
  2
HEADER
  9
$ACADVER
  1
AC1014
  9
$ACADMAINTVER
 70
     9
  9
$DWGCODEPAGE
  3
ANSI_1252
  9
$TEXTSTYLE
  7
STANDARD
  9
$DIMSTYLE
  2
STANDARD
  9
$DIMTXSTY
  7
STANDARD
  9
$CMLSTYLE
  2
STANDARD
  9
$LUNITS
 70
2
  9
$INSUNITS
 70
4
  9
$PEXTMAX
 10
50
 20
50
 30
50
  9
$PEXTMIN
 10
0
 20
0
 30
0
  9
$HANDSEED
  5
FFFF
  0
ENDSEC
  0
SECTION
  2
CLASSES
  0
CLASS
  1
ACDBDICTIONARYWDFLT
  2
AcDbDictionaryWithDefault
  3
ObjectDBX Classes
 90
        0
280
     0
281
     0
  0
CLASS
  1
XRECORD
  2
AcDbXrecord
  3
ObjectDBX Classes
 90
        0
280
     0
281
     0
  0
CLASS
  1
LWPOLYLINE
  2
AcDbPolyline
  3
ObjectDBX Classes
 90
        0
280
     0
281
     1
  0
ENDSEC
  0
SECTION
  2
TABLES
  0
TABLE
  2
VPORT
  5
20
330
0
100
AcDbSymbolTable
 70
     1
  0
VPORT
  5
21
330
20
100
AcDbSymbolTableRecord
100
AcDbViewportTableRecord
  2
*ACTIVE
 70
     0
  0
ENDTAB
  0
TABLE
  2
LTYPE
  5
22
330
0
100
AcDbSymbolTable
 70
     1
  0
LTYPE
  5
23
330
21
100
AcDbSymbolTableRecord
100
AcDbLinetypeTableRecord
  2
BYBLOCK
 70
     0
  3

 72
    65
 73
     0
 40
0.0
  0
LTYPE
  5
24
330
21
100
AcDbSymbolTableRecord
100
AcDbLinetypeTableRecord
  2
BYLAYER
 70
     0
  3

 72
    65
 73
     0
 40
0.0
  0
LTYPE
  5
25
330
21
100
AcDbSymbolTableRecord
100
AcDbLinetypeTableRecord
  2
CONTINUOUS
 70
     0
  3
Solid line
 72
    65
 73
     0
 40
0.0
  0
ENDTAB
  0
TABLE
  2
LAYER
  5
A0C
330
0
100
AcDbSymbolTable
 70
6
  0
LAYER
  5
A0D
330
A0C
100
AcDbSymbolTableRecord
100
AcDbLayerTableRecord
  2
0
 70
   0
 62
   7
  6
CONTINUOUS
  0
LAYER
  5
A0E
330
A0C
100
AcDbSymbolTableRecord
100
AcDbLayerTableRecord
  2
none
 70
    0
 62
    7
  6
CONTINUOUS
  0
LAYER
  5
A0F
330
A0C
100
AcDbSymbolTableRecord
100
AcDbLayerTableRecord
  2
Shape
 70
    0
 62
    7
  6
CONTINUOUS
  0
LAYER
  5
A10
330
A0C
100
AcDbSymbolTableRecord
100
AcDbLayerTableRecord
  2
Shape001
 70
    0
 62
    7
  6
CONTINUOUS
  0
LAYER
  5
A11
330
A0C
100
AcDbSymbolTableRecord
100
AcDbLayerTableRecord
  2
Shape002
 70
    0
 62
    7
  6
CONTINUOUS
  0
LAYER
  5
A12
330
A0C
100
AcDbSymbolTableRecord
100
AcDbLayerTableRecord
  2
Shape003
 70
    0
 62
    7
  6
CONTINUOUS
  0
ENDTAB
  0
TABLE
  2
STYLE
  5
70
330
0
100
AcDbSymbolTable
 70
     2
  0
STYLE
  5
71
330
70
100
AcDbSymbolTableRecord
100
AcDbTextStyleTableRecord
  2
STANDARD
 70
     0
 40
0.0
 41
1.0
 50
0.0
 71
     0
 42
2.5
  3
arial.ttf
  4

  0
STYLE
  5
72
330
70
100
AcDbSymbolTableRecord
100
AcDbTextStyleTableRecord
  2
ANNOTATIVE
 70
     0
 40
0.0
 41
1.0
 50
0.0
 71
     0
 42
2.5
  3
arial.ttf
  4

  0
ENDTAB
  0
TABLE
  2
VIEW
  5
73
330
0
100
AcDbSymbolTable
 70
     0
  0
ENDTAB
  0
TABLE
  2
UCS
  5
74
330
0
100
AcDbSymbolTable
 70
     0
  0
ENDTAB
  0
TABLE
  2
APPID
  5
75
330
0
100
AcDbSymbolTable
 70
     2
  0
APPID
  5
76
330
75
100
AcDbSymbolTableRecord
100
AcDbRegAppTableRecord
  2
ACAD
 70
     0
  0
APPID
  5
77
330
75
100
AcDbSymbolTableRecord
100
AcDbRegAppTableRecord
  2
ACADANNOTATIVE
 70
     0
  0
ENDTAB
  0
TABLE
  2
DIMSTYLE
  5
78
330
0
100
AcDbSymbolTable
 70
     2
  0
DIMSTYLE
105
79
330
78
100
AcDbSymbolTableRecord
100
AcDbDimStyleTableRecord
  2
STANDARD
 70
     0
  3

  4

  5

  6

  7

 40
0.0
 41
2.5
 42
0.625
 43
3.75
 44
1.25
 45
0.0
 46
0.0
 47
0.0
 48
0.0
140
2.5
141
2.5
142
0.0
143
0.03937007874016
144
1.0
145
0.0
146
1.0
147
0.625
 71
     0
 72
     0
 73
     0
 74
     0
 75
     0
 76
     0
 77
     1
 78
     8
170
     0
171
     3
172
     1
173
     0
174
     0
175
     0
176
     0
177
     0
178
     0
270
     2
271
     2
272
     2
273
     2
274
     3
340
71
275
     0
280
     0
281
     0
282
     0
283
     0
284
     8
285
     0
286
     0
287
     3
288
     0
  0
ENDTAB
  0
TABLE
  2
BLOCK_RECORD
  5
A01
330
0
100
AcDbSymbolTable
  70
5
  0
BLOCK_RECORD
  5
A02
330
A01
100
AcDbSymbolTableRecord
100
AcDbBlockTableRecord
  2
*MODEL_SPACE
  0
BLOCK_RECORD
  5
A03
330
A01
100
AcDbSymbolTableRecord
100
AcDbBlockTableRecord
  2
*PAPER_SPACE
  0
ENDTAB
  0
ENDSEC
  0
SECTION
  2
BLOCKS
  0
BLOCK
  5
A04
330
A02
100
AcDbEntity
  8
0
100
AcDbBlockBegin
  2
*MODEL_SPACE
 70
   0
 10
0
 20
0
 30
0
  3
*MODEL_SPACE
  1
 
  0
ENDBLK
  5
A05
330
A02
100
AcDbEntity
  8
0
100
AcDbBlockEnd
  0
BLOCK
  5
A06
330
A03
100
AcDbEntity
 67
1
  8
0
100
AcDbBlockBegin
  2
*PAPER_SPACE
 70
   0
 10
0
 20
0
 30
0
  3
*PAPER_SPACE
  1
 
  0
ENDBLK
  5
A07
330
A03
100
AcDbEntity
 67
    1
  8
0
100
AcDbBlockEnd
  0
ENDSEC
  0
SECTION
  2
ENTITIES
  0
CIRCLE
  5
A08
330
A02
100
AcDbEntity
  8
Shape
100
AcDbCircle
 10
4.6
 20
9.1
 40
0.825
  0
CIRCLE
  5
A09
330
A02
100
AcDbEntity
  8
Shape001
100
AcDbCircle
 10
8.22
 20
9.1
 40
0.825
  0
LINE
  5
A0A
330
A02
100
AcDbEntity
  8
Shape002
100
AcDbLine
 10
2.6
 20
5.1
 30
0
 11
2.6
 21
13.1
 31
0
  0
SPLINE
  5
A0B
330
A02
100
AcDbEntity
  8
Shape003
100
AcDbSpline
210
0
220
0
230
1
 70
8
 71
3
 72
89
 73
85
 74
0
 40
0
 40
0
 40
0
 40
0
 40
0.03125
 40
0.03125
 40
0.03125
 40
0.0625
 40
0.0625
 40
0.0625
 40
0.09375
 40
0.09375
 40
0.09375
 40
0.125
 40
0.125
 40
0.125
 40
0.15625
 40
0.15625
 40
0.15625
 40
0.1875
 40
0.1875
 40
0.1875
 40
0.21875
 40
0.21875
 40
0.21875
 40
0.25
 40
0.25
 40
0.25
 40
0.3125
 40
0.3125
 40
0.3125
 40
0.375
 40
0.375
 40
0.375
 40
0.40625
 40
0.40625
 40
0.40625
 40
0.4375
 40
0.4375
 40
0.4375
 40
0.46875
 40
0.46875
 40
0.46875
 40
0.5
 40
0.5
 40
0.5
 40
0.5625
 40
0.5625
 40
0.5625
 40
0.59375
 40
0.59375
 40
0.59375
 40
0.625
 40
0.625
 40
0.625
 40
0.6875
 40
0.6875
 40
0.6875
 40
0.71875
 40
0.71875
 40
0.71875
 40
0.75
 40
0.75
 40
0.75
 40
0.78125
 40
0.78125
 40
0.78125
 40
0.8125
 40
0.8125
 40
0.8125
 40
0.84375
 40
0.84375
 40
0.84375
 40
0.875
 40
0.875
 40
0.875
 40
0.90625
 40
0.90625
 40
0.90625
 40
0.9375
 40
0.9375
 40
0.9375
 40
0.96875
 40
0.96875
 40
0.96875
 40
1
 40
1
 40
1
 40
1
 10
2.6
 20
13.1
 30
0
 10
8.47122
 20
13.0997
 30
0
 10
15.2399
 20
12.8652
 30
0
 10
22.3286
 20
12.4775
 30
0
 10
29.4231
 20
12.0892
 30
0
 10
36.8393
 20
11.5476
 30
0
 10
44.1606
 20
10.9161
 30
0
 10
51.4868
 20
10.2841
 30
0
 10
58.7197
 20
9.56206
 30
0
 10
65.5808
 20
8.79825
 30
0
 10
72.4459
 20
8.03396
 30
0
 10
78.9409
 20
7.22771
 30
0
 10
84.9025
 20
6.41413
 30
0
 10
90.8674
 20
5.60014
 30
0
 10
96.3005
 20
4.77868
 30
0
 10
101.131
 20
3.97277
 30
0
 10
105.965
 20
3.16429
 30
0
 10
110.197
 20
2.37791
 30
0
 10
113.829
 20
1.61361
 30
0
 10
117.463
 20
0.851259
 30
0
 10
120.497
 20
0.117521
 30
0
 10
122.979
 20
-0.582018
 30
0
 10
125.461
 20
-1.28175
 30
0
 10
127.393
 20
-1.94749
 30
0
 10
128.851
 20
-2.57901
 30
0
 10
131.772
 20
-3.84229
 30
0
 10
132.793
 20
-4.96928
 30
0
 10
132.745
 20
-5.98028
 30
0
 10
132.696
 20
-6.98964
 30
0
 10
131.605
 20
-7.88971
 30
0
 10
130.262
 20
-8.65478
 30
0
 10
129.588
 20
-9.03631
 30
0
 10
128.847
 20
-9.38236
 30
0
 10
128.104
 20
-9.67872
 30
0
 10
127.36
 20
-9.975
 30
0
 10
126.614
 20
-10.221
 30
0
 10
125.89
 20
-10.4009
 30
0
 10
125.166
 20
-10.5831
 30
0
 10
124.459
 20
-10.6924
 30
0
 10
123.769
 20
-10.7287
 30
0
 10
123.077
 20
-10.7631
 30
0
 10
122.396
 20
-10.7176
 30
0
 10
121.698
 20
-10.5848
 30
0
 10
120.303
 20
-10.3228
 30
0
 10
118.833
 20
-9.69656
 30
0
 10
117.009
 20
-8.76299
 30
0
 10
116.098
 20
-8.29828
 30
0
 10
115.1
 20
-7.76026
 30
0
 10
114
 20
-7.17738
 30
0
 10
112.9
 20
-6.59509
 30
0
 10
111.697
 20
-5.96801
 30
0
 10
110.404
 20
-5.34184
 30
0
 10
107.82
 20
-4.08919
 30
0
 10
104.87
 20
-2.84817
 30
0
 10
101.838
 20
-2.03927
 30
0
 10
100.323
 20
-1.63341
 30
0
 10
98.7888
 20
-1.33462
 30
0
 10
97.2638
 20
-1.17399
 30
0
 10
95.7374
 20
-1.01226
 30
0
 10
94.2225
 20
-0.989606
 30
0
 10
92.7191
 20
-1.10603
 30
0
 10
91.2148
 20
-1.22083
 30
0
 10
89.7244
 20
-1.47563
 30
0
 10
88.2118
 20
-1.82582
 30
0
 10
86.6972
 20
-2.17397
 30
0
 10
85.1614
 20
-2.61844
 30
0
 10
83.5145
 20
-3.05724
 30
0
 10
81.8655
 20
-3.49475
 30
0
 10
80.1045
 20
-3.92205
 30
0
 10
78.085
 20
-4.19964
 30
0
 10
76.0641
 20
-4.4782
 30
0
 10
73.7838
 20
-4.602
 30
0
 10
71.0557
 20
-4.45893
 30
0
 10
68.3266
 20
-4.3192
 30
0
 10
65.1487
 20
-3.90754
 30
0
 10
61.3063
 20
-3.20558
 30
0
 10
57.4634
 20
-2.50933
 30
0
 10
52.9549
 20
-1.51772
 30
0
 10
47.5524
 20
-0.372484
 30
0
 10
42.1499
 20
0.764665
 30
0
 10
35.8524
 20
2.0605
 30
0
 10
28.4333
 20
3.14682
 30
0
 10
21.0148
 20
4.22268
 30
0
 10
12.4736
 20
5.09409
 30
0
 10
2.6
 20
5.1
 30
0
  0
ENDSEC
  0
SECTION
  2
OBJECTS
  0
DICTIONARY
  5
F000
330
0
100
AcDbDictionary
  3
ACAD_GROUP
350
F001
  0
DICTIONARY
  5
F001
330
F000
100
AcDbDictionary
  0
ENDSEC
  0
EOF